<?xml version="1.0" encoding="utf-8"?>
<!-- DO NOT EDIT THIS, THIS FILE IS GENERATED FROM "1_38.original_3.svg" using transform-svgs.js script -->
<!-- Generator: Adobe Illustrator 24.2.0, SVG Export Plug-In . SVG Version: 6.00 Build 0)  -->
<!DOCTYPE svg PUBLIC "-//W3C//DTD SVG 1.1//EN" "http://www.w3.org/Graphics/SVG/1.1/DTD/svg11.dtd" [
	<!ENTITY ns_extend "http://ns.adobe.com/Extensibility/1.0/">
	<!ENTITY ns_ai "http://ns.adobe.com/AdobeIllustrator/10.0/">
	<!ENTITY ns_graphs "http://ns.adobe.com/Graphs/1.0/">
	<!ENTITY ns_vars "http://ns.adobe.com/Variables/1.0/">
	<!ENTITY ns_imrep "http://ns.adobe.com/ImageReplacement/1.0/">
	<!ENTITY ns_sfw "http://ns.adobe.com/SaveForWeb/1.0/">
	<!ENTITY ns_custom "http://ns.adobe.com/GenericCustomNamespace/1.0/">
	<!ENTITY ns_adobe_xpath "http://ns.adobe.com/XPath/1.0/">
]>
<svg version="1.1" id="Слой_1" xmlns:x="&ns_extend;" xmlns:i="&ns_ai;" xmlns:graph="&ns_graphs;"
	 xmlns="http://www.w3.org/2000/svg" xmlns:xlink="http://www.w3.org/1999/xlink" x="0px" y="0px" viewBox="0 0 35 50"
	 style="enable-background:new 0 0 35 50;" xml:space="preserve">
<style type="text/css">
	.st0{fill:#D5C5B7;}
</style>
<metadata>
	<sfw  xmlns="&ns_sfw;">
		<slices></slices>
		<sliceSourceBounds  bottomLeftOrigin="true" height="50" width="35" x="0" y="0"></sliceSourceBounds>
	</sfw>
</metadata>
<polygon id="rectangles" class="st0" points="35,0 34.999939,0 17,0 17,15 13,15 13,16 18,16 18,1 33.999939,1 33.999939,38 23,38
	23,34 19,34 19,35 22,35 22,39 34.999939,39 "/>
<polygon id="apart_x5F_03_1_" style="fill: #565440;" class="st0" points="12,11 0,11 0,28 9,28 9,19 12,19 "/>
<rect id="apart_x5F_02_1_" y="29" class="st0" width="9" height="8"/>
<polygon id="apart_x5F_01_1_" class="st0" points="12,34 12,38 0,38 0,50 18,50 18,34 "/>
</svg>
