<?xml version="1.0" encoding="utf-8"?>
<!-- DO NOT EDIT THIS, THIS FILE IS GENERATED FROM "2_13-22_7.original.svg" using transform-svgs.js script -->
<!-- Generator: Adobe Illustrator 24.2.0, SVG Export Plug-In . SVG Version: 6.00 Build 0)  -->
<!DOCTYPE svg PUBLIC "-//W3C//DTD SVG 1.1//EN" "http://www.w3.org/Graphics/SVG/1.1/DTD/svg11.dtd" [
	<!ENTITY ns_extend "http://ns.adobe.com/Extensibility/1.0/">
	<!ENTITY ns_ai "http://ns.adobe.com/AdobeIllustrator/10.0/">
	<!ENTITY ns_graphs "http://ns.adobe.com/Graphs/1.0/">
	<!ENTITY ns_vars "http://ns.adobe.com/Variables/1.0/">
	<!ENTITY ns_imrep "http://ns.adobe.com/ImageReplacement/1.0/">
	<!ENTITY ns_sfw "http://ns.adobe.com/SaveForWeb/1.0/">
	<!ENTITY ns_custom "http://ns.adobe.com/GenericCustomNamespace/1.0/">
	<!ENTITY ns_adobe_xpath "http://ns.adobe.com/XPath/1.0/">
]>
<svg version="1.1" id="Слой_1" xmlns:x="&ns_extend;" xmlns:i="&ns_ai;" xmlns:graph="&ns_graphs;"
	 xmlns="http://www.w3.org/2000/svg" xmlns:xlink="http://www.w3.org/1999/xlink" x="0px" y="0px" viewBox="0 0 150 100"
	 style="enable-background:new 0 0 150 100;" xml:space="preserve"><g transform="translate(32.621397460952245 21.747598307301498) scale(0.5650480338539701)">
<style type="text/css">
	.st0{fill:#DBD4CA;}
	.st1{fill:none;stroke:#565440;}
	.st2{fill:#565440;}
</style>
<metadata>
	<sfw  xmlns="&ns_sfw;">
		<slices></slices>
		<sliceSourceBounds  bottomLeftOrigin="true" height="100" width="136.408371" x="6.795805" y="0"></sliceSourceBounds>
	</sfw>
</metadata>
<polygon id="Floor" class="st0" points="135.4550934,97.9089584 141.9562378,70.0466385 135.9509277,67.3865051 
	136.0981598,31.5889568 141.6559601,8.5711613 133.9631958,6.4846625 133.9631958,0.0163574 6.795805,0 6.795805,93.7239227 
	16.804678,93.8026505 38.1271439,98.9168701 40.4294472,93.503067 55.1165657,94.0552139 77.0499878,99.0980225 
	79.3665314,93.5529633 97.3006134,94.2804565 120.2029495,94.4649429 "/>
<path id="Windows" class="st1" d="M135.4550781,97.9089584l6.8880157-29.5203629l-1.974884-0.5678787l-6.3960724,27.7982788
	l-13.7692032-2.9990692L97.0786819,92.619957v1.844986h23.1242523L135.4550781,97.9089584z M40.0061417,97.4170456
	l-0.3690376,1.8450165l-22.8782864-5.2301712l0.369009-1.8450775L40.0061417,97.4170456z M78.1365662,97.4170151
	l-0.3690414,1.8450241l-21.5252609-4.9200745l0.3690376-1.8450241L78.1365662,97.4170151z M142.0971832,6.6420536
	l-5.2889709,23.1241493l-1.8449707-0.369009l5.2889709-23.124176L142.0971832,6.6420536z"/>
<path id="Doors" class="st1" d="M38.7761269,15.9902353c1.3530235,0,2.4599724,0.2459707,3.6899834,0.7380171
	c1.230011,0.4919415,2.3370667,1.2299862,3.19804,2.0909615c0.9839897,0.8610573,1.7220612,1.9680576,2.2140007,3.1980419
	c0.4919395,1.2299576,0.738018,2.4599972,0.738018,3.8130207h-9.8400421 M79.3665237,28.2902737
	c0-1.3530235,0.2459641-2.4600239,0.7380676-3.6899815c0.4919434-1.2299862,1.2299576-2.3369312,2.0909348-3.1980419
	c0.8609772-0.9840145,1.9680862-1.722086,3.1980438-2.2140541c1.230011-0.4920483,2.4599686-0.738018,3.8130493-0.738018v9.8400955
	 M91.6665878,30.7503777c1.3530731,0,2.4599686,0.2459698,3.6899796,0.7380447
	c1.230011,0.4919415,2.3370667,1.2299843,3.1980438,2.0909348c0.9839859,0.8609772,1.7220612,1.9680557,2.2139969,3.19804
	c0.4921036,1.2299881,0.7380753,2.4599991,0.7380753,3.8130226h-9.8400955 M88.7805481,52.8904839
	c0,1.3530235-0.2459717,2.4599991-0.7380753,3.6899834c-0.4919357,1.2299843-1.2299576,2.3370934-2.0909348,3.19804
	c-0.8609772,0.9840164-1.9680252,1.7220879-3.1980362,2.2140274c-1.2300186,0.4919701-2.4599762,0.7380447-3.8130493,0.7380447
	v-9.8400955 M24.0159321,3.6900089c0,1.5990207-0.3689823,3.0750029-0.9839878,4.5510654
	c-0.6150074,1.4761162-1.4759827,2.9520712-2.7061024,4.0590181c-1.1070538,1.1070528-2.4599705,2.091095-3.93606,2.7061005
	c-1.4760885,0.6149797-3.074975,0.9839888-4.673996,0.9840155V3.6900358"/>
<g id="Walls">
	<polygon class="st2" points="37.5461159,15.9902086 38.7761269,15.9902086 38.7761269,3.6899822 55.9962959,3.6899822 
		55.9962959,28.2902737 38.7761269,28.2902737 38.7761269,25.8302498 37.5461159,25.8302498 37.5461159,29.5202312 
		79.3665237,29.5202312 79.3665237,28.2902737 57.2263069,28.2902737 57.2262535,3.6899822 90.4365768,3.6899822 
		90.4366302,28.2902737 89.2066193,28.2902737 89.2066193,29.5202312 90.4366302,29.5202312 90.4366302,30.750351 
		91.6665878,30.750351 91.6665878,3.6899822 133.4869843,3.6899822 133.4856567,7.408669 141.7281952,9.3481016 
		142.5891724,5.7810774 137.1770782,4.5075803 137.1770782,0 24.0159321,0 24.0159321,3.6899822 37.5461159,3.6899822 	"/>
	<polygon class="st2" points="38.2983246,88.5609131 38.2983246,94.7110214 38.3084488,94.7110214 37.3144455,99.1390228 
		40.8814697,100 42.0687447,94.7110214 53.4178658,94.7110214 57.6819916,95.695015 59.0351219,89.6680145 54.3610458,88.5609131 	
		"/>
	<polygon class="st2" points="10.4858007,3.6900358 11.7157593,3.6900358 11.7157593,0 6.7958183,0.0000536 6.7958183,94.7110748 
		18.4453716,94.7110748 18.4453716,87.3372192 10.4858007,87.3372192 	"/>
	<polygon class="st2" points="77.5492935,52.8904572 78.9404526,52.8904572 78.9404526,51.6604996 77.5492935,51.6604996 
		77.5492935,43.050415 76.3192825,43.050415 76.3293533,94.7110214 75.3352966,99.1390228 78.9023209,100 80.0897598,94.7110214 
		98.3018417,94.7110214 98.3018417,87.3371658 77.5492935,87.3371658 	"/>
	<polygon class="st2" points="137.1771393,64.0668716 137.1771393,25.8302498 133.4869843,25.8302498 133.4869843,51.6604996 
		91.6665878,51.6604996 91.6665878,40.5903931 90.4366302,40.5904465 90.4366302,51.6604996 88.7805481,51.6604996 
		88.7805481,52.8904572 131.0270233,52.8904572 131.0270233,68.8806686 131.054657,68.8806686 131.0270233,69.0036774 
		141.8512573,71.4638062 143.2041779,65.4366531 	"/>
</g>
</g></svg>
