<?xml version="1.0" encoding="utf-8"?>
<!-- DO NOT EDIT THIS, THIS FILE IS GENERATED FROM "2_23_6.original.svg" using transform-svgs.js script -->
<!-- Generator: Adobe Illustrator 24.2.0, SVG Export Plug-In . SVG Version: 6.00 Build 0)  -->
<!DOCTYPE svg PUBLIC "-//W3C//DTD SVG 1.1//EN" "http://www.w3.org/Graphics/SVG/1.1/DTD/svg11.dtd" [
	<!ENTITY ns_extend "http://ns.adobe.com/Extensibility/1.0/">
	<!ENTITY ns_ai "http://ns.adobe.com/AdobeIllustrator/10.0/">
	<!ENTITY ns_graphs "http://ns.adobe.com/Graphs/1.0/">
	<!ENTITY ns_vars "http://ns.adobe.com/Variables/1.0/">
	<!ENTITY ns_imrep "http://ns.adobe.com/ImageReplacement/1.0/">
	<!ENTITY ns_sfw "http://ns.adobe.com/SaveForWeb/1.0/">
	<!ENTITY ns_custom "http://ns.adobe.com/GenericCustomNamespace/1.0/">
	<!ENTITY ns_adobe_xpath "http://ns.adobe.com/XPath/1.0/">
]>
<svg version="1.1" id="Слой_1" xmlns:x="&ns_extend;" xmlns:i="&ns_ai;" xmlns:graph="&ns_graphs;"
	 xmlns="http://www.w3.org/2000/svg" xmlns:xlink="http://www.w3.org/1999/xlink" x="0px" y="0px" viewBox="0 0 150 100"
	 style="enable-background:new 0 0 150 100;" xml:space="preserve"><g transform="translate(27.73441834933083 18.48961223288722) scale(0.6302077553422556)">
<style type="text/css">
	.st0{fill:#DBD4CA;}
	.st1{fill:none;stroke:#565440;}
	.st2{fill:none;stroke:#565440;stroke-width:1.0000414;stroke-miterlimit:4.0003653;}
	.st3{fill:#565440;}
</style>
<metadata>
	<sfw  xmlns="&ns_sfw;">
		<slices></slices>
		<sliceSourceBounds  bottomLeftOrigin="true" height="100.0593719" width="111.9607849" x="19.0196075" y="-0.0593737">
			</sliceSourceBounds>
	</sfw>
</metadata>
<polygon id="Floor" class="st0" points="130.9803925,25.5555592 98.9542465,25.5555592 98.8235397,2.8301392 25.3594742,2.8037109 
	20.7189465,26.7484665 24.6380367,28.7914104 24.8220863,39.8896027 19.7385559,63.7908325 24.4444447,65.3435593 
	23.9218807,76.4935532 20.4049072,94.8282242 38.9542465,99.0196075 40.503067,93.9820862 53.1047707,95.406311 
	68.6149673,99.4365005 69.9509201,94.7914124 82.0245361,95.3598633 96.9687881,99.2323837 97.7805862,94.6073608 
	112.635582,94.9754639 128.2944794,99.4496765 130.9803925,93.9278336 "/>
<g id="Windows">
	<path class="st1" d="M25.3594742,11.8954325l-3.2679749,14.2483587l-1.3725529-0.2614346l3.2679749-14.2483578
		L25.3594742,11.8954325z"/>
	<path class="st1" d="M26.6666641,12.156867l-3.2679749,14.2483568l-1.3725529-0.2614326l3.2679749-14.2483587L26.6666641,12.156867
		z"/>
	<path class="st1" d="M27.7777824,40.9804001l-5.2941208,23.0718842l-1.3725529-0.2614288l5.2941208-23.071888
		L27.7777824,40.9804001z"/>
	<path class="st1" d="M26.4052296,40.7189445l-5.2941208,23.071888l-1.3725529-0.2614326l5.2941208-23.071888L26.4052296,40.7189445
		z"/>
	<polygon class="st1" points="38.1699371,99.0196075 38.5620956,97.6470566 21.8954296,93.8562164 26.143795,71.8954239 
		24.9019604,71.6339874 20.1960793,94.9673157 	"/>
	<polygon class="st1" points="38.5620956,97.6470566 38.9542465,96.2745056 23.529417,92.8104553 27.5163383,72.2222214 
		26.2745132,71.9607849 21.8954296,93.8562164 	"/>
	
		<rect x="60.1619453" y="88.50634" transform="matrix(0.2514896 -0.96786 0.96786 0.2514896 -48.0555077 131.2805023)" class="st2" width="1.3726097" height="16.4059105"/>
	
		<rect x="60.5303764" y="87.1569061" transform="matrix(0.2514896 -0.96786 0.96786 0.2514896 -46.4736748 130.6270294)" class="st2" width="1.3726097" height="16.4059105"/>
	
		<rect x="89.3200912" y="89.4193192" transform="matrix(0.2514896 -0.96786 0.96786 0.2514896 -26.4180908 159.6467133)" class="st2" width="1.3726097" height="14.9679346"/>
	
		<rect x="89.6782532" y="88.0550232" transform="matrix(0.2514896 -0.96786 0.96786 0.2514896 -24.8295555 158.972168)" class="st2" width="1.3726097" height="14.9679346"/>
	
		<rect x="120.0611877" y="88.4520798" transform="matrix(0.2514896 -0.96786 0.96786 0.2514896 -3.1677904 189.213974)" class="st2" width="1.3726097" height="16.4059105"/>
	
		<rect x="120.4148788" y="87.1517868" transform="matrix(0.2514896 -0.96786 0.96786 0.2514896 -1.6445452 188.5830078)" class="st2" width="1.3726097" height="16.4059105"/>
</g>
<g id="Doors">
	<path class="st1" d="M98.9542465,19.6078434c1.2418289,0,2.2875824-0.1960716,3.3987045-0.653595
		c1.1111145-0.4575253,2.1568527-1.1111183,2.9411774-1.9607849c0.9150238-0.7843208,1.5686188-1.8300571,2.0261459-2.9411755
		s0.653595-2.2875824,0.653595-3.5294085h-9.1503296"/>
	<path class="st1" d="M96.8627396,60.9150391c0.9803925,0,1.8300552-0.1960678,2.7451019-0.5228653
		c0.9150314-0.3921623,1.7647171-0.9150314,2.352951-1.5686226c0.718956-0.653595,1.3071899-1.4379196,1.6339874-2.3529472
		c0.3921585-0.9150276,0.5228653-1.8300552,0.5228653-2.8104477h-7.3202744"/>
	<path class="st1" d="M111.6339874,46.0784302c0-0.9150276,0.1960678-1.6339874,0.5228653-2.4836502
		c0.3267975-0.8496666,0.8496628-1.5686226,1.372551-2.1568565c0.5882339-0.653595,1.3071899-1.1764603,2.1568527-1.5032578
		c0.8496704-0.3267975,1.6339874-0.5228691,2.5490189-0.5228691v6.6013107"/>
	<path class="st1" d="M79.6732025,50.5882301c0-0.9150276,0.1960678-1.6993484,0.5228653-2.549015
		c0.3267975-0.8496628,0.8496704-1.6339874,1.4379196-2.2222176c0.5882339-0.653595,1.372551-1.1764641,2.2222214-1.5032616
		c0.8496628-0.3267975,1.6993484-0.5228653,2.6143799-0.5228653v6.7973824"/>
	<path class="st1" d="M86.4705887,20.7843056c0-0.9150276-0.1960754-1.6993504-0.5228729-2.549015
		s-0.8496628-1.6339874-1.437912-2.2222195c-0.5882339-0.653594-1.3725586-1.1764622-2.2222214-1.5032587
		c-0.8496628-0.3267975-1.6993484-0.5228682-2.6143799-0.5228682v6.7973824"/>
	<path class="st1" d="M76.0784302,62.0915031c0,1.0457573-0.1960678,1.8954201-0.5882263,2.8104515
		c-0.3921661,0.9150238-0.9150314,1.7647095-1.5686264,2.4183044c-0.653595,0.7189636-1.5032578,1.3071899-2.4183121,1.6993561
		c-0.9150238,0.3921585-1.8954163,0.5882263-2.8758087,0.5882263v-7.5163383"/>
	<path class="st1" d="M61.5686302,59.3463974c-0.9803925,0-1.8300667-0.1960716-2.7450943-0.5228691
		c-0.9150314-0.3921585-1.7647057-0.9150276-2.3529472-1.5686226c-0.718956-0.653595-1.3071899-1.4379158-1.6339874-2.3529434
		c-0.3267975-0.9150314-0.5228767-1.8300591-0.5228767-2.8104515h7.3202591"/>
</g>
<g id="Walls">
	<polygon class="st3" points="27.7777824,10.0653553 27.7777824,4.5751634 96.2091446,4.5751634 96.2091446,10.5228796 
		98.9542465,10.5228796 98.9542465,0 23.2026196,0 23.2026196,9.4117603 22.6797409,11.6993427 27.1241875,12.6797342 	"/>
	<polygon class="st3" points="23.2026196,41.045742 28.692812,41.045742 28.692812,26.4705887 25.0326767,26.4705887 
		20.5882397,25.4901962 19.9346447,28.1045761 23.2026196,28.8888969 	"/>
	<polygon class="st3" points="23.7254868,63.8562164 19.6732025,62.9411697 19.0196075,65.6209106 23.2026196,66.5359421 
		23.2026196,77.5817108 28.692812,77.5817108 28.692812,63.8562164 	"/>
	<polygon class="st3" points="38.5620956,95.2941132 37.7124214,99.346405 40.3268013,100 41.2418289,95.8169937 
		53.9215736,95.8169937 53.9215736,90.3268051 38.5620956,90.3268051 	"/>
	<polygon class="st3" points="81.6339874,91.2418365 68.3660202,91.2418365 68.3660202,95.2941132 67.4509735,99.346405 
		70.0653534,100 71.0457458,95.8169937 80.9803925,95.8169937 83.2679749,96.3398666 84.2483673,91.8954315 	"/>
	<polygon class="st3" points="62.4836578,52.0261459 62.4836578,50.1960716 26.6013107,50.1960716 24.1176472,49.6732025 
		23.9869308,50.5882301 26.4052296,51.1111183 61.5686302,51.1111183 61.5686302,52.0261459 	"/>
	<polygon class="st3" points="68.6274567,62.0915031 68.6274567,61.1764755 62.4836578,61.1764755 62.4836578,59.3463974 
		61.5686302,59.3463974 61.5686302,93.7908478 60.9803886,96.0130692 61.8954277,96.1437912 62.4836578,93.9869232 
		62.4836578,62.0915031 	"/>
	<polygon class="st3" points="98.9542465,60.5228806 96.2091446,60.5228806 96.2091446,61.1764755 76.0784302,61.1764755 
		76.0784302,62.0915031 96.2091446,62.0915031 96.2091446,97.1241837 95.6862793,99.346405 98.3006516,100 98.9542465,97.3856201 
		98.9542465,95.8169937 113.5294037,95.8169937 113.5294037,90.3268051 98.9542465,90.3268051 	"/>
	<polygon class="st3" points="130.9803925,25.5555592 130.8496704,25.5555592 98.9542465,25.5555592 98.9542465,19.6078434 
		96.2091446,19.6078434 96.2091446,20.7843056 86.4705887,20.7843056 86.4705887,21.6993542 96.2091446,21.6993542 
		96.2091446,32.2222137 73.8562164,32.2222137 73.8562164,21.6993542 79.6732025,21.6993542 79.6732025,20.7843056 
		72.941185,20.7843056 72.941185,51.5032616 73.0065308,51.5032616 79.6732025,51.5032616 79.6732025,50.5882301 
		73.8562164,50.5882301 73.8562164,33.1372643 96.2091446,33.1372643 96.2091446,50.5882301 86.4705887,50.5882301 
		86.4705887,51.5032616 96.2091446,51.5032616 96.2091446,53.6601334 97.1241913,53.6601334 97.1241913,46.9934616 
		111.6339874,46.9934616 111.6339874,46.0784302 97.1241913,46.0784302 97.1241913,28.3006458 128.2352905,28.3006458 
		128.2352905,46.0784302 118.1699295,46.0784302 118.1699295,46.9934616 128.2352905,46.9934616 128.2352905,94.9019699 
		127.2548981,99.346405 129.869278,100 130.9803925,94.9673157 	"/>
</g>
</g></svg>
