<?xml version="1.0" encoding="utf-8"?>
<!-- DO NOT EDIT THIS, THIS FILE IS GENERATED FROM "2_24_5.original.svg" using transform-svgs.js script -->
<!-- Generator: Adobe Illustrator 24.2.0, SVG Export Plug-In . SVG Version: 6.00 Build 0)  -->
<!DOCTYPE svg PUBLIC "-//W3C//DTD SVG 1.1//EN" "http://www.w3.org/Graphics/SVG/1.1/DTD/svg11.dtd" [
	<!ENTITY ns_extend "http://ns.adobe.com/Extensibility/1.0/">
	<!ENTITY ns_ai "http://ns.adobe.com/AdobeIllustrator/10.0/">
	<!ENTITY ns_graphs "http://ns.adobe.com/Graphs/1.0/">
	<!ENTITY ns_vars "http://ns.adobe.com/Variables/1.0/">
	<!ENTITY ns_imrep "http://ns.adobe.com/ImageReplacement/1.0/">
	<!ENTITY ns_sfw "http://ns.adobe.com/SaveForWeb/1.0/">
	<!ENTITY ns_custom "http://ns.adobe.com/GenericCustomNamespace/1.0/">
	<!ENTITY ns_adobe_xpath "http://ns.adobe.com/XPath/1.0/">
]>
<svg version="1.1" id="Слой_1" xmlns:x="&ns_extend;" xmlns:i="&ns_ai;" xmlns:graph="&ns_graphs;"
	 xmlns="http://www.w3.org/2000/svg" xmlns:xlink="http://www.w3.org/1999/xlink" x="0px" y="0px" viewBox="0 0 150 100"
	 style="enable-background:new 0 0 150 100;" xml:space="preserve"><g transform="translate(13.714987256015112 9.143324837343409) scale(0.8171335032531318)">
<style type="text/css">
	.st0{fill:#DBD4CA;}
	.st1{fill:none;stroke:#565440;}
	.st2{fill:none;stroke:#565440;stroke-width:1.0000414;stroke-miterlimit:4.0001655;}
	.st3{fill:#565440;}
</style>
<metadata>
	<sfw  xmlns="&ns_sfw;">
		<slices></slices>
		<sliceSourceBounds  bottomLeftOrigin="true" height="100" width="80.7076874" x="34.6461563" y="0"></sliceSourceBounds>
	</sfw>
</metadata>
<polygon id="Floor_1_" class="st0" points="37.1717796,93.7239227 50.6993866,93.7239227 70.3863983,99.3221741 
	71.9570541,93.7239227 86.4785309,93.7239227 106.991394,99.2728577 107.6663208,93.7239227 115.305275,93.7239227 
	115.305275,11.4605513 37.1717796,11.4605513 "/>
<g id="Doors">
	<path class="st1" d="M57.1969376,11.485693c0-1.5105362-0.2745972-2.7463579-0.8239517-4.1196675
		c-0.5493355-1.373167-1.3731689-2.6090841-2.3345375-3.5703104C53.0772705,2.6971433,51.8413048,1.8731909,50.4681358,1.324
		C49.0949707,0.7747854,47.7217789,0.5,46.2112656,0.5v10.9855509"/>
	<path class="st1" d="M93.2142715,35.8925591c0-1.1262856,0.2047577-2.0477142,0.6143494-3.0716515
		c0.409584-1.0238438,1.0238419-1.9453678,1.7406311-2.6620598c0.7166901-0.819109,1.6382141-1.4334583,2.662056-1.8429527
		c1.0238495-0.4094944,2.0477142-0.6143723,3.1739731-0.6143723v8.1909409"/>
	<path class="st1" d="M59.8188896,23.8787708c1.1262856,0,2.0477142-0.2047596,3.0716743-0.6143723
		c1.0238457-0.4095669,1.945343-1.0238438,2.6620636-1.740633c0.8190842-0.7166691,1.4334335-1.638216,1.842926-2.6620598
		c0.4094925-1.0238209,0.6143723-2.0476875,0.6143723-3.1739473h-8.190918"/>
	<path class="st1" d="M77.1034927,78.4297256c1.1262817,0,2.0476837,0.2047577,3.0716476,0.6143494
		c1.0238419,0.4095917,1.9453659,1.0238419,2.6620636,1.7406311c0.8190842,0.7166977,1.4334335,1.6382217,1.842926,2.6620636
		s0.6143723,2.0477066,0.6143723,3.1739731h-8.190918"/>
</g>
<g id="Windows">
	
		<rect x="97.180687" y="86.2855835" transform="matrix(0.2514893 -0.9678601 0.9678601 0.2514893 -19.6255341 166.7481689)" class="st2" width="1.626439" height="19.5537643"/>
	
		<rect x="61.1098251" y="87.3848648" transform="matrix(0.2514893 -0.9678601 0.9678601 0.2514893 -46.8481712 132.0092468)" class="st2" width="1.626439" height="17.816433"/>
</g>
<g id="Walls">
	<polygon class="st3" points="77.1034927,86.6207657 73.8458176,86.6207657 73.8458176,88.4953003 71.1517258,88.4953003 
		71.1517258,93.9190521 69.9573593,99.2398987 73.1062775,100 74.2276459,95.0049973 89.0524292,94.9972076 89.0524292,88.5018539 
		77.1034927,88.4967194 	"/>
	<polygon class="st3" points="115.3538437,11.3932037 57.1969376,11.3932037 57.1969376,14.6507359 58.7863312,14.6507359 
		58.7863312,15.6877584 59.8722725,15.6877584 59.8722229,14.6507359 73.8457718,14.6507359 73.8457718,35.8266411 
		59.8722725,35.8266869 59.8722229,23.8784618 58.7863312,23.8784618 58.7863312,35.8266869 53.4471092,35.8266869 
		53.4471092,36.9125328 73.8457718,36.9125328 73.8458176,78.4297256 77.1034927,78.4297256 77.1034393,36.9125328 
		93.2142944,36.9125328 93.2142944,35.8266411 77.1034393,35.8266869 77.1034393,14.6507359 112.0962677,14.6507359 
		112.0962677,35.8266869 101.4052811,35.8267365 101.4052811,36.9125786 112.0962677,36.9125786 112.0962677,89.5715027 
		106.4084549,89.5715027 106.4084549,95.0008621 106.4172897,95.0008621 105.5397415,98.9100723 108.6888046,99.6701736 
		109.7369385,95.0008621 115.3538437,95.0008621 	"/>
	<polygon class="st3" points="39.0878372,89.5756302 39.0878372,14.6507359 46.2112656,14.6507359 46.2112656,11.3932037 
		35.830307,11.3932037 35.830307,54.0991554 35.8275032,54.0991554 35.8275032,93.9190521 34.6461563,99.2398987 37.7950249,100 
		38.9163933,95.0049973 49.7576408,95.0057526 53.522049,95.8746567 54.7165527,90.5538635 50.590168,89.5765839 	"/>
</g>
</g></svg>
