<?xml version="1.0" encoding="utf-8"?>
<!-- DO NOT EDIT THIS, THIS FILE IS GENERATED FROM "2_37_5.original.svg" using transform-svgs.js script -->
<!-- Generator: Adobe Illustrator 24.2.0, SVG Export Plug-In . SVG Version: 6.00 Build 0)  -->
<!DOCTYPE svg PUBLIC "-//W3C//DTD SVG 1.1//EN" "http://www.w3.org/Graphics/SVG/1.1/DTD/svg11.dtd" [
	<!ENTITY ns_extend "http://ns.adobe.com/Extensibility/1.0/">
	<!ENTITY ns_ai "http://ns.adobe.com/AdobeIllustrator/10.0/">
	<!ENTITY ns_graphs "http://ns.adobe.com/Graphs/1.0/">
	<!ENTITY ns_vars "http://ns.adobe.com/Variables/1.0/">
	<!ENTITY ns_imrep "http://ns.adobe.com/ImageReplacement/1.0/">
	<!ENTITY ns_sfw "http://ns.adobe.com/SaveForWeb/1.0/">
	<!ENTITY ns_custom "http://ns.adobe.com/GenericCustomNamespace/1.0/">
	<!ENTITY ns_adobe_xpath "http://ns.adobe.com/XPath/1.0/">
]>
<svg version="1.1" id="Слой_1" xmlns:x="&ns_extend;" xmlns:i="&ns_ai;" xmlns:graph="&ns_graphs;"
	 xmlns="http://www.w3.org/2000/svg" xmlns:xlink="http://www.w3.org/1999/xlink" x="0px" y="0px" viewBox="0 0 150 100"
	 style="enable-background:new 0 0 150 100;" xml:space="preserve"><g transform="translate(32.58933224697233 21.726221497981555) scale(0.5654755700403689)">
<style type="text/css">
	.st0{fill:#DBD4CA;}
	.st1{fill:none;stroke:#565440;}
	.st2{fill:#565440;}
</style>
<metadata>
	<sfw  xmlns="&ns_sfw;">
		<slices></slices>
		<sliceSourceBounds  bottomLeftOrigin="true" height="100" width="136.4084167" x="6.7957916" y="0"></sliceSourceBounds>
	</sfw>
</metadata>
<polygon id="Floor_1_" class="st0" points="17.2760735,94.0184021 6.7957916,94.0184021 6.7957916,0.0000536 136.0981598,0.0000536 
	136.0981598,5.6748466 141.9141083,7.2208591 136.7607422,28.8650303 136.7607422,67.8207169 141.9141083,69.8711624 
	135.4551086,97.9089813 119.4141083,94.0276108 78.3619614,94.0276108 77.2852783,98.9693222 54.6748466,94.2804718 
	40.2914124,94.2804718 38.3564949,98.9693222 "/>
<path id="Windows" class="st1" d="M135.4551086,97.9089813l6.8880157-29.5203857l-1.974884-0.5678787l-6.3960876,27.7983017
	l-13.7691879-2.9990616l-23.1242599,0.0000229v1.8449936h23.1242599L135.4551086,97.9089813z M40.0061684,97.4170685
	l-0.3690376,1.8450241l-22.8783131-5.2301788l0.369009-1.8450699L40.0061684,97.4170685z M78.1365891,97.4170456
	l-0.3690338,1.8450165l-21.5252647-4.9200745l0.3690376-1.8450165L78.1365891,97.4170456z M142.0972137,6.6420536
	l-5.2889862,23.1241493l-1.8449554-0.369009l5.2889709-23.124176L142.0972137,6.6420536z"/>
<path id="Doors" class="st1" d="M38.7761536,15.9902353c1.3530235,0,2.4599724,0.2459707,3.6899834,0.7380171
	c1.230011,0.4919415,2.3370667,1.2299862,3.19804,2.0909615c0.9839897,0.8610573,1.7220612,1.9680576,2.2140007,3.1980419
	c0.4919395,1.2299576,0.738018,2.4599972,0.738018,3.8130207h-9.8400421 M79.3665466,28.2902737
	c0-1.3530235,0.2459717-2.4600239,0.7380753-3.6899815c0.4919357-1.2299862,1.2299576-2.3369312,2.0909348-3.1980419
	c0.8609695-0.9840145,1.9680786-1.722086,3.1980362-2.2140541c1.230011-0.4920483,2.4599762-0.738018,3.8130493-0.738018v9.8400955
	 M91.6666107,30.7503777c1.3530807,0,2.4599762,0.2459698,3.6899872,0.7380447
	c1.230011,0.4919415,2.3370667,1.2299843,3.1980362,2.0909348c0.9839935,0.8609772,1.7220612,1.9680557,2.2140045,3.19804
	c0.4920959,1.2299881,0.7380676,2.4599991,0.7380676,3.8130226h-9.8400955 M88.780571,52.8904839
	c0,1.3530235-0.2459717,2.4599991-0.7380676,3.6899834c-0.4919434,1.2299843-1.2299576,2.3370934-2.0909348,3.19804
	c-0.8609772,0.9840164-1.9680328,1.7220879-3.1980438,2.2140274c-1.230011,0.4919701-2.4599686,0.7380447-3.8130493,0.7380447
	v-9.8400955 M24.0159588,3.6900089c0,1.5990207-0.3689823,3.0750029-0.9839878,4.5510654
	c-0.6150074,1.4761162-1.4759827,2.9520712-2.7061024,4.0590181c-1.1070538,1.1070528-2.4600239,2.091095-3.9360867,2.7061005
	c-1.4760885,0.6149797-3.074975,0.9839888-4.673996,0.9840155V3.6900358"/>
<g id="Walls">
	<polygon class="st2" points="137.1771088,4.5075803 137.1771088,0 24.0159588,0 24.0159588,3.6899822 37.5460892,3.6899822 
		37.5460892,15.9902086 38.7761002,15.9902086 38.7761002,3.6899822 55.9962692,3.6899822 55.9963226,28.2902737 
		38.7761002,28.2902737 38.7761002,25.8302498 37.5460892,25.8302498 37.5460892,29.5202866 79.3665466,29.5202866 
		79.3665466,28.2902737 57.2263336,28.2902737 57.2262802,7.9328485 57.2262802,3.6899822 90.4365997,3.6899822 
		90.4366531,28.2902737 89.2066422,28.2902737 89.2066422,29.5202866 90.4366531,29.5202866 90.4366531,30.750351 
		91.6666107,30.750351 91.6666107,3.6899822 133.4870148,3.6899822 133.485672,7.408669 141.7282257,9.348155 
		142.5892029,5.7810774 	"/>
	<polygon class="st2" points="38.2982979,88.560936 38.2982979,94.7110748 38.3084221,94.7110748 37.3144722,99.1390762 
		40.8814964,100 42.0687714,94.7110748 53.4178925,94.7110748 57.6820183,95.6950378 59.0351486,89.6680679 54.3610725,88.560936 	
		"/>
	<polygon class="st2" points="10.485774,3.6900358 11.7157326,3.6900358 11.7157326,0 6.7957916,0.0000536 6.7957916,94.7110748 
		18.4453983,94.7110748 18.4453983,87.3372192 10.485774,87.3372192 	"/>
	<polygon class="st2" points="77.549324,52.8904839 78.9404755,52.8904839 78.9404755,51.6604996 77.549324,51.6604996 
		77.549324,43.0504417 76.319313,43.0504417 76.3293762,94.7110748 75.3353271,99.1390533 78.9023514,100 80.0897827,94.7110748 
		98.3018646,94.7110748 98.3018646,87.3371887 77.549324,87.3371887 	"/>
	<polygon class="st2" points="137.1771545,64.0668945 137.1771545,25.8302498 133.4870148,25.8302498 133.4870148,51.6604996 
		91.6666107,51.6604996 91.6666107,40.5904198 90.4366531,40.5904465 90.4366531,51.6604996 88.780571,51.6604996 
		88.780571,52.8904839 131.0270538,52.8904839 131.0270538,68.8806915 131.0546875,68.8806915 131.0270538,69.0037079 
		141.8512878,71.4638367 143.2042084,65.4366837 	"/>
</g>
</g></svg>
