<?xml version="1.0" encoding="utf-8"?>
<!-- DO NOT EDIT THIS, THIS FILE IS GENERATED FROM "2_4_3.original.svg" using transform-svgs.js script -->
<!-- Generator: Adobe Illustrator 24.2.0, SVG Export Plug-In . SVG Version: 6.00 Build 0)  -->
<!DOCTYPE svg PUBLIC "-//W3C//DTD SVG 1.1//EN" "http://www.w3.org/Graphics/SVG/1.1/DTD/svg11.dtd" [
	<!ENTITY ns_extend "http://ns.adobe.com/Extensibility/1.0/">
	<!ENTITY ns_ai "http://ns.adobe.com/AdobeIllustrator/10.0/">
	<!ENTITY ns_graphs "http://ns.adobe.com/Graphs/1.0/">
	<!ENTITY ns_vars "http://ns.adobe.com/Variables/1.0/">
	<!ENTITY ns_imrep "http://ns.adobe.com/ImageReplacement/1.0/">
	<!ENTITY ns_sfw "http://ns.adobe.com/SaveForWeb/1.0/">
	<!ENTITY ns_custom "http://ns.adobe.com/GenericCustomNamespace/1.0/">
	<!ENTITY ns_adobe_xpath "http://ns.adobe.com/XPath/1.0/">
]>
<svg version="1.1" id="Слой_1" xmlns:x="&ns_extend;" xmlns:i="&ns_ai;" xmlns:graph="&ns_graphs;"
	 xmlns="http://www.w3.org/2000/svg" xmlns:xlink="http://www.w3.org/1999/xlink" x="0px" y="0px" viewBox="0 0 150 100"
	 style="enable-background:new 0 0 150 100;" xml:space="preserve"><g transform="translate(11.189825121614636 7.459883414409757) scale(0.8508023317118049)">
<style type="text/css">
	.st0{fill:#DBD4CA;}
	.st1{fill:none;stroke:#565440;}
	.st2{fill:#565440;}
</style>
<metadata>
	<sfw  xmlns="&ns_sfw;">
		<slices></slices>
		<sliceSourceBounds  bottomLeftOrigin="true" height="99.8637161" width="73.7545013" x="38.1227493" y="0.136287">
			</sliceSourceBounds>
	</sfw>
</metadata>
<rect id="Floor" x="38.1227608" y="0.5122551" class="st0" width="72.7301025" height="88.6194763"/>
<path id="Windows" class="st1" d="M110.8528595,0.5121878v1.5365312L59.1222534,2.0487359V0.5122045L110.8528595,0.5121878z"/>
<g id="Walls">
	<polygon class="st2" points="74.9999237,5.1218848 74.9999237,44.0477753 76.0243988,44.0477753 76.0243759,5.1218848 
		81.1462555,5.121882 81.1462555,0.0000111 73.9755783,0.0000125 73.9755783,5.1218848 	"/>
	<polygon class="st2" points="41.1959267,86.0468292 41.1959038,7.1705995 59.6344604,7.1705914 59.6344604,0.0000181 
		38.1227493,0.0000251 38.1227493,7.1705995 38.1227798,89.1200104 41.1959381,89.1200104 64.7563248,89.1200104 
		64.7563248,86.046814 	"/>
	<polygon class="st2" points="111.8772049,0 108.8041534,0.0000014 95.4873734,0.0000056 95.4873734,7.1705799 
		108.8041534,7.170577 108.8041763,59.4133492 83.1949692,59.413353 83.1949692,54.2914848 83.1949692,53.2671394 
		76.0243988,53.2671432 76.0243988,52.2428017 74.9999466,52.2428017 74.9999466,60.437706 76.0243988,60.437706 
		76.0243988,54.2914848 82.1706238,54.2914848 82.1706238,62.4864159 83.1949692,62.4864159 83.1949692,60.4376984 
		108.8041763,60.4376945 108.8041763,86.0468063 83.1949692,86.0468063 83.1949692,70.6813507 82.1706238,70.6813507 
		82.1706238,86.046814 74.9999466,86.046814 74.9999466,89.1199951 108.8041763,89.1199875 111.8772507,89.1199875 	"/>
	<rect x="59.6345825" y="79.0823441" class="st2" width="1.0243449" height="8.4037762"/>
</g>
<path id="Doors" class="st1" d="M76.0243988,44.0477753c1.1268158,0,2.0487137,0.2049408,3.0730591,0.6146393
	s1.9463577,1.0243454,2.6633606,1.7413635c0.8195038,0.7171135,1.4341736,1.639019,1.8438644,2.6633568
	c0.4097214,1.0243454,0.6146545,2.0487175,0.6146545,3.1755371h-8.1949387 M83.1949692,70.6813507
	c1.1268158,0,2.0487137-0.2049408,3.0731506-0.6146393c1.0244293-0.4097061,1.9462204-1.0243454,2.6633606-1.7413712
	c0.8194962-0.7171173,1.4341736-1.6390228,1.8438644-2.6633606c0.4098053-1.0243454,0.6146545-2.0487175,0.6146545-3.1755371
	l-8.1949387,0.0000076 M75.0000763,89.1199951c0,1.3316727-0.3073349,2.5608978-0.8194962,3.7901764
	c-0.5121613,1.2293243-1.2293243,2.458519-2.2536697,3.3803864c-0.9219437,0.9219666-2.0487137,1.7413712-3.2779922,2.2536697
	c-1.2293167,0.5121689-2.5608826,0.8194885-3.8925552,0.8194885V89.1200943"/>
</g></svg>
