<?xml version="1.0" encoding="utf-8"?>
<!-- DO NOT EDIT THIS, THIS FILE IS GENERATED FROM "2_4_5.original.svg" using transform-svgs.js script -->
<!-- Generator: Adobe Illustrator 24.2.0, SVG Export Plug-In . SVG Version: 6.00 Build 0)  -->
<!DOCTYPE svg PUBLIC "-//W3C//DTD SVG 1.1//EN" "http://www.w3.org/Graphics/SVG/1.1/DTD/svg11.dtd" [
	<!ENTITY ns_extend "http://ns.adobe.com/Extensibility/1.0/">
	<!ENTITY ns_ai "http://ns.adobe.com/AdobeIllustrator/10.0/">
	<!ENTITY ns_graphs "http://ns.adobe.com/Graphs/1.0/">
	<!ENTITY ns_vars "http://ns.adobe.com/Variables/1.0/">
	<!ENTITY ns_imrep "http://ns.adobe.com/ImageReplacement/1.0/">
	<!ENTITY ns_sfw "http://ns.adobe.com/SaveForWeb/1.0/">
	<!ENTITY ns_custom "http://ns.adobe.com/GenericCustomNamespace/1.0/">
	<!ENTITY ns_adobe_xpath "http://ns.adobe.com/XPath/1.0/">
]>
<svg version="1.1" id="Слой_1" xmlns:x="&ns_extend;" xmlns:i="&ns_ai;" xmlns:graph="&ns_graphs;"
	 xmlns="http://www.w3.org/2000/svg" xmlns:xlink="http://www.w3.org/1999/xlink" x="0px" y="0px" viewBox="0 0 150 100"
	 style="enable-background:new 0 0 150 100;" xml:space="preserve"><g transform="translate(16.685260429384385 11.123506952922924) scale(0.7775298609415415)">
<style type="text/css">
	.st0{fill:#DBD4CA;}
	.st1{fill:none;stroke:#565440;}
	.st2{fill:#565440;}
</style>
<metadata>
	<sfw  xmlns="&ns_sfw;">
		<slices></slices>
		<sliceSourceBounds  bottomLeftOrigin="true" height="100.122818" width="84.7732086" x="32.3947334" y="-0.0614228">
			</sliceSourceBounds>
	</sfw>
</metadata>
<rect id="Floor" x="41.6666412" y="0.4386083" class="st0" width="75.0006409" height="99.122818"/>
<polygon id="Windows" class="st1" points="116.6666336,0.4386083 48.2455673,0.4386297 48.2455673,1.7544152 115.3508835,1.7543937 
	115.3508835,98.245636 103.5087814,98.2456436 103.5087814,99.5614243 116.6679306,99.5614243 "/>
<g id="Walls">
	<rect x="60.9648209" y="0.0000119" class="st2" width="6.1403489" height="6.1403522"/>
	<polygon class="st2" points="82.8946762,4.3860002 82.8946991,37.7192688 81.1403275,37.7192688 81.1403275,38.5965462 
		82.8946991,38.5965462 82.8946991,40.3508873 83.7718658,40.3508873 83.7718506,4.3860002 85.5262909,4.3860002 
		85.5262909,0.0000048 79.3858643,0.0000072 79.3858643,4.386003 	"/>
	<rect x="97.8069916" class="st2" width="6.1403489" height="6.1403522"/>
	<rect x="110.9648819" y="20.1754112" class="st2" width="6.1403489" height="6.140337"/>
	<rect x="112.7192688" y="76.3157959" class="st2" width="4.3860016" height="6.1403394"/>
	<polygon class="st2" points="103.9473801,95.6140213 67.9824753,95.6140289 67.9824753,85.0876923 73.2455597,85.0876846 
		73.2455597,84.210495 67.1052094,84.210495 67.1052094,85.0876923 67.1052094,95.6140289 44.2981796,95.6140366 
		44.2981796,85.9649582 41.6666412,85.9649582 41.6666412,100 44.2981796,100 103.9473801,99.9999771 	"/>
	<polygon class="st2" points="83.7718658,48.2455978 83.7718658,47.3684311 82.8946991,47.3684311 82.8946991,48.2455978 
		82.8946991,49.1227722 112.7192307,49.1227608 112.7192307,57.0175552 110.9648819,57.0175552 110.9648819,63.157917 
		112.7192307,63.157917 117.1052322,63.157917 117.1052322,57.0175552 117.1052322,38.5965347 112.7192307,38.5965347 
		112.7192307,48.2455902 	"/>
	<polygon class="st2" points="58.3333206,73.684166 58.3333206,72.8070755 44.2981796,72.8070755 44.2981606,56.1404037 
		67.1051865,56.1403961 67.1051865,72.8070679 65.3508453,72.8070679 65.3508453,73.684166 67.1051865,73.684166 
		67.98246,73.684166 73.2455597,73.684166 73.2455597,72.8070679 67.98246,72.8070679 67.98246,38.59655 74.1227112,38.59655 
		74.1227112,37.7192688 59.2104759,37.7192726 59.2104759,38.5965538 67.1051865,38.59655 67.1051865,55.2631454 
		44.2981606,55.2631493 44.2981606,38.5965614 52.1929512,38.5965538 52.1929512,37.7192764 44.2981606,37.7192764 
		44.2981415,6.1403713 48.684124,6.1403689 48.684124,0.0000167 44.2981415,0.0000191 41.6666031,0.0000191 41.6666412,77.1929932 
		44.2981796,77.1929932 44.2981796,73.6841736 	"/>
</g>
<path id="Doors" class="st1" d="M41.6666412,85.9649582c-1.1403542,0-2.1929436-0.263176-3.2456474-0.7017593
	c-1.0526085-0.4385757-2.1052933-1.0526962-2.894722-1.9298706c-0.7894096-0.789505-1.4911842-1.754364-1.9297638-2.8070374
	c-0.4385948-1.0526962-0.7017746-2.192955-0.7017746-3.3332977h8.7719841 M83.7718658,40.3508873
	c0.96492,0,1.7543488,0.1754227,2.631546,0.5263367c0.8771744,0.3508377,1.6666718,0.8771706,2.2807083,1.4911766
	c0.7017593,0.6140862,1.228096,1.4035301,1.5789261,2.2807045c0.3508377,0.8771744,0.5263443,1.7543716,0.5263443,2.7192917
	l-7.0175247,0.0000038 M74.1228104,37.7192688c0-0.96492,0.175415-1.7543716,0.5263367-2.6315422
	c0.3509293-0.8771744,0.8771973-1.6665955,1.491188-2.2807083c0.6140137-0.7017517,1.4035339-1.2281189,2.2807083-1.5789547
	c0.8771896-0.3509178,1.754364-0.5263329,2.7193069-0.5263329v7.0175381 M59.2104759,37.7192726
	c0-0.96492-0.1754189-1.7543716-0.5263443-2.6315422c-0.3508492-0.8771706-0.8771935-1.6665955-1.4912033-2.2807083
	c-0.6139946-0.7017517-1.4035149-1.2281132-2.2806892-1.578949c-0.8771935-0.3509178-1.7543678-0.5263386-2.7193069-0.5263329
	v7.0175362 M58.3333206,72.8070755c0-0.9649277,0.175415-1.7543793,0.5263405-2.6316299
	c0.3509293-0.877243,0.8771935-1.6665878,1.491188-2.2807083c0.6140099-0.7017517,1.4035339-1.2281189,2.2807083-1.578949
	c0.8771935-0.350914,1.7543678-0.5263443,2.7193031-0.5263443v7.0175476"/>
</g></svg>
