<?xml version="1.0" encoding="utf-8"?>
<!-- DO NOT EDIT THIS, THIS FILE IS GENERATED FROM "2_5-6_3.original.svg" using transform-svgs.js script -->
<!-- Generator: Adobe Illustrator 24.2.0, SVG Export Plug-In . SVG Version: 6.00 Build 0)  -->
<!DOCTYPE svg PUBLIC "-//W3C//DTD SVG 1.1//EN" "http://www.w3.org/Graphics/SVG/1.1/DTD/svg11.dtd" [
	<!ENTITY ns_extend "http://ns.adobe.com/Extensibility/1.0/">
	<!ENTITY ns_ai "http://ns.adobe.com/AdobeIllustrator/10.0/">
	<!ENTITY ns_graphs "http://ns.adobe.com/Graphs/1.0/">
	<!ENTITY ns_vars "http://ns.adobe.com/Variables/1.0/">
	<!ENTITY ns_imrep "http://ns.adobe.com/ImageReplacement/1.0/">
	<!ENTITY ns_sfw "http://ns.adobe.com/SaveForWeb/1.0/">
	<!ENTITY ns_custom "http://ns.adobe.com/GenericCustomNamespace/1.0/">
	<!ENTITY ns_adobe_xpath "http://ns.adobe.com/XPath/1.0/">
]>
<svg version="1.1" id="Слой_1" xmlns:x="&ns_extend;" xmlns:i="&ns_ai;" xmlns:graph="&ns_graphs;"
	 xmlns="http://www.w3.org/2000/svg" xmlns:xlink="http://www.w3.org/1999/xlink" x="0px" y="0px" viewBox="0 0 150 100"
	 style="enable-background:new 0 0 150 100;" xml:space="preserve"><g transform="translate(11.11472559766214 7.4098170651080935) scale(0.8518036586978381)">
<style type="text/css">
	.st0{fill:#DBD4CA;}
	.st1{fill:none;stroke:#565440;}
	.st2{fill:#565440;}
</style>
<metadata>
	<sfw  xmlns="&ns_sfw;">
		<slices></slices>
		<sliceSourceBounds  bottomLeftOrigin="true" height="99.9478531" width="73.8169327" x="38.0915337" y="0.0521472">
			</sliceSourceBounds>
	</sfw>
</metadata>
<polygon id="Floor_1_" class="st0" points="38.0915337,0.0000181 110.2208557,0.024946 110.2208557,89.1954727 
	38.1067963,89.1954727 "/>
<path id="Windows" class="st1" d="M110.8832092,0.5126215v1.5378325L59.1087952,2.0504706V0.5126382L110.8832092,0.5126215z"/>
<path id="Doors" class="st1" d="M76.0252533,44.0850716c1.1277695,0,2.0504532,0.2051163,3.0756607,0.6151619
	c1.0252151,0.4100456,1.9480057,1.0252113,2.6656189,1.7428398c0.8201904,0.71772,1.4353867,1.6404037,1.8454285,2.6656113
	c0.4100647,1.0252113,0.6151733,2.0504532,0.6151733,3.1782265h-8.2018814 M83.2018967,70.7412033
	c1.1277695,0,2.0504456-0.2051163,3.0757523-0.6151657c1.0252991-0.4100494,1.9478683-1.0252075,2.6656189-1.7428436
	c0.8201904-0.71772,1.4353867-1.6404037,1.8454285-2.6656113c0.4101486-1.0252151,0.6151657-2.0504532,0.6151657-3.1782265
	l-8.2018738,0.0000076 M75.0000687,89.1954651c0,1.3327942-0.3076019,2.5630646-0.8201904,3.7933807
	c-0.5125961,1.2303696-1.2303696,2.4606018-2.2555847,3.3832474c-0.9227219,0.9227448-2.0504456,1.7428513-3.2807693,2.2555771
	c-1.2303543,0.5126114-2.5630493,0.8201828-3.8958511,0.8201828V89.1955643"/>
<g id="Walls">
	<polygon class="st2" points="74.9999084,5.1262217 74.9999084,44.0850716 76.0252533,44.0850716 76.025238,5.1262217 
		81.1514511,5.1262193 81.1514511,0.0000112 73.9747009,0.0000126 73.9747009,5.1262217 	"/>
	<polygon class="st2" points="111.9084244,0 95.504715,0.0000056 95.504715,7.176652 108.8327637,7.1766491 108.8327866,59.4636574 
		83.2018967,59.463665 83.2018967,53.3122444 76.0252533,53.312252 76.0252533,52.2870369 74.9999313,52.2870369 
		74.9999313,60.4888802 76.0252533,60.4888802 76.0252533,54.3374596 82.1766891,54.3374596 82.1766891,62.5393295 
		83.2018967,62.5393295 83.2018967,60.4888763 108.8327866,60.4888725 108.8327866,86.1196671 83.2018967,86.1196671 
		83.2018967,70.7412033 82.1766891,70.7412033 82.1766891,86.1196823 74.9999313,86.1196823 74.9999313,89.1954651 
		111.9084702,89.1954498 	"/>
	<polygon class="st2" points="59.0719261,86.1196823 59.0719261,79.1493073 58.0466919,79.1493073 58.0466919,86.1196823 
		41.1672821,86.1196823 41.1672821,7.1766605 59.62146,7.1766605 59.62146,0.0000181 38.0915337,0.0000181 38.0915337,89.1954727 
		64.7476349,89.1954727 64.7476349,86.1196823 	"/>
</g>
</g></svg>
