<?xml version="1.0" encoding="utf-8"?>
<!-- DO NOT EDIT THIS, THIS FILE IS GENERATED FROM "2_5-6_4.original.svg" using transform-svgs.js script -->
<!-- Generator: Adobe Illustrator 24.2.0, SVG Export Plug-In . SVG Version: 6.00 Build 0)  -->
<!DOCTYPE svg PUBLIC "-//W3C//DTD SVG 1.1//EN" "http://www.w3.org/Graphics/SVG/1.1/DTD/svg11.dtd" [
	<!ENTITY ns_extend "http://ns.adobe.com/Extensibility/1.0/">
	<!ENTITY ns_ai "http://ns.adobe.com/AdobeIllustrator/10.0/">
	<!ENTITY ns_graphs "http://ns.adobe.com/Graphs/1.0/">
	<!ENTITY ns_vars "http://ns.adobe.com/Variables/1.0/">
	<!ENTITY ns_imrep "http://ns.adobe.com/ImageReplacement/1.0/">
	<!ENTITY ns_sfw "http://ns.adobe.com/SaveForWeb/1.0/">
	<!ENTITY ns_custom "http://ns.adobe.com/GenericCustomNamespace/1.0/">
	<!ENTITY ns_adobe_xpath "http://ns.adobe.com/XPath/1.0/">
]>
<svg version="1.1" id="Слой_1" xmlns:x="&ns_extend;" xmlns:i="&ns_ai;" xmlns:graph="&ns_graphs;"
	 xmlns="http://www.w3.org/2000/svg" xmlns:xlink="http://www.w3.org/1999/xlink" x="0px" y="0px" viewBox="0 0 150 100"
	 style="enable-background:new 0 0 150 100;" xml:space="preserve"><g transform="translate(11.11472559766214 7.4098170651080935) scale(0.8518036586978381)">
<style type="text/css">
	.st0{fill:#DBD4CA;}
	.st1{fill:none;stroke:#565440;}
	.st2{fill:#565440;}
</style>
<metadata>
	<sfw  xmlns="&ns_sfw;">
		<slices></slices>
		<sliceSourceBounds  bottomLeftOrigin="true" height="99.9478989" width="74.8421402" x="37.5789299" y="0.0521">
			</sliceSourceBounds>
	</sfw>
</metadata>
<polygon id="Floor_1_" class="st0" points="38.0915337,0.0000181 110.2208557,0.024946 110.2208557,89.1954727 
	38.1067963,89.1954727 "/>
<path id="Windows" class="st1" d="M109.8579788,0.5126217v1.5378332L52.4448395,2.0504715V0.5126399L109.8579788,0.5126217z"/>
<g id="Walls">
	<rect x="88.8406601" y="0.0000056" class="st2" width="7.1766458" height="5.1261964"/>
	<polygon class="st2" points="76.5378189,7.176661 76.5378189,44.0850868 77.5630569,44.0850868 77.5630569,6.1514344 
		74.4873734,6.1514344 74.4873734,0.0000112 67.3107452,0.0000139 67.3107452,7.1766639 	"/>
	<polygon class="st2" points="60.6067924,86.1197205 60.6067924,79.1456146 59.5673409,79.1456299 59.5673409,86.1197205 
		40.6546364,86.1197357 40.6545906,7.176672 52.9574585,7.1766691 52.9574356,0.0000181 37.5789299,0.0000237 37.5789299,7.1766748 
		37.5789528,89.1955185 65.0947189,89.1955185 65.0947189,86.1197205 	"/>
	<polygon class="st2" points="112.4210281,0 109.3453674,0 109.3453903,59.4636879 84.7397003,59.4636917 84.7397003,54.3374825 
		84.7397003,53.3122711 77.5630569,53.3122711 77.5630569,52.2870636 76.5378418,52.2870636 76.5378418,60.4889069 
		77.5630569,60.4889069 77.5630569,54.3374825 83.7144852,54.3374825 83.7144852,62.53936 84.7397003,62.53936 
		84.7397003,60.4889069 109.3453903,60.4888954 109.3453903,86.1197128 84.7397003,86.1197128 84.7397003,70.7412338 
		83.7144852,70.7412338 83.7144852,86.1197128 75.3471375,86.1197205 75.3471375,89.1955032 112.4210663,89.1954956 	"/>
</g>
<path id="Doors" class="st1" d="M77.5630569,44.0850868c1.1277847,0,2.0504456,0.2051201,3.0756607,0.6151695
	c1.0252304,0.4100456,1.9479828,1.0252037,2.6656189,1.742836c0.8202133,0.7177238,1.4353638,1.6404076,1.8454285,2.6656151
	c0.4100418,1.0252151,0.6151733,2.0504532,0.6151733,3.1782265h-8.2018585 M84.7397003,70.7412338
	c1.1277924,0,2.0504456-0.2051163,3.0757523-0.6151657c1.0252304-0.4100494,1.9479828-1.0252075,2.6656189-1.7428436
	c0.8202133-0.71772,1.4353638-1.6404037,1.8454285-2.6656189c0.4100418-1.0252075,0.6151733-2.0504532,0.6151733-3.1782188
	h-8.2018585 M75.3471375,89.1955032c0,1.3328018-0.3076019,2.5630646-0.8202209,3.7933884
	c-0.5125885,1.2303696-1.2302322,2.4606018-2.2554398,3.3832474c-0.9227753,0.9227448-2.0504532,1.742836-3.2807922,2.2555771
	c-1.2302551,0.5126114-2.5630493,0.8201828-3.8958588,0.8201828V89.1956024"/>
</g></svg>
