<?xml version="1.0" encoding="utf-8"?>
<!-- DO NOT EDIT THIS, THIS FILE IS GENERATED FROM "2_7-12_9.original.svg" using transform-svgs.js script -->
<!-- Generator: Adobe Illustrator 24.2.0, SVG Export Plug-In . SVG Version: 6.00 Build 0)  -->
<!DOCTYPE svg PUBLIC "-//W3C//DTD SVG 1.1//EN" "http://www.w3.org/Graphics/SVG/1.1/DTD/svg11.dtd" [
	<!ENTITY ns_extend "http://ns.adobe.com/Extensibility/1.0/">
	<!ENTITY ns_ai "http://ns.adobe.com/AdobeIllustrator/10.0/">
	<!ENTITY ns_graphs "http://ns.adobe.com/Graphs/1.0/">
	<!ENTITY ns_vars "http://ns.adobe.com/Variables/1.0/">
	<!ENTITY ns_imrep "http://ns.adobe.com/ImageReplacement/1.0/">
	<!ENTITY ns_sfw "http://ns.adobe.com/SaveForWeb/1.0/">
	<!ENTITY ns_custom "http://ns.adobe.com/GenericCustomNamespace/1.0/">
	<!ENTITY ns_adobe_xpath "http://ns.adobe.com/XPath/1.0/">
]>
<svg version="1.1" id="Слой_1" xmlns:x="&ns_extend;" xmlns:i="&ns_ai;" xmlns:graph="&ns_graphs;"
	 xmlns="http://www.w3.org/2000/svg" xmlns:xlink="http://www.w3.org/1999/xlink" x="0px" y="0px" viewBox="0 0 150 100"
	 style="enable-background:new 0 0 150 100;" xml:space="preserve"><g transform="translate(13.452839582729977 8.968559721819986) scale(0.8206288055636003)">
<style type="text/css">
	.st0{fill:#DBD4CA;}
	.st1{fill:none;stroke:#565440;}
	.st2{fill:none;stroke:#565440;stroke-width:1.0000414;stroke-miterlimit:4.0001655;}
	.st3{fill:#565440;}
</style>
<metadata>
	<sfw  xmlns="&ns_sfw;">
		<slices></slices>
		<sliceSourceBounds  bottomLeftOrigin="true" height="100" width="79.9451065" x="35.0274467" y="0"></sliceSourceBounds>
	</sfw>
</metadata>
<polygon id="Floor" class="st0" points="113.8098145,91.8190155 113.8098145,11.4268036 36.2331276,11.4104757 
	36.2331276,93.6134949 53.8282204,93.8711624 73.526886,99.1509323 75.509201,94.2392654 90.9581146,94.8352661 
	108.6165314,99.3086243 "/>
<path id="Doors" class="st1" d="M65.0068665,29.8278008c-1.1948662,0-2.1723747,0.2172127-3.2585602,0.6517353
	c-1.0861855,0.4345455-2.0637169,1.0861855-2.8241539,1.8466473c-0.8689728,0.7602921-1.5207558,1.7379684-1.9551811,2.8241539
	c-0.4344521,1.0861626-0.6517601,2.1723938-0.6517601,3.3672333h8.6896553 M73.6965408,58.0692482
	c-1.1948624,0-2.1723938-0.2172127-3.2586975-0.6517563c-1.0861893-0.4345207-2.0638123-1.0861855-2.8241577-1.8466225
	c-0.8689728-0.7603188-1.5207291-1.7379684-1.9551544-2.8241539c-0.434433-1.0861855-0.6517868-2.1723976-0.6517868-3.3672371
	h8.689682 M85.6448669,11.4104757c0-1.412077-0.3258667-2.7638092-0.8689651-4.0673504
	c-0.5431061-1.3035178-1.3034286-2.6069174-2.3896103-3.5844493c-0.9775314-0.9776266-2.1724014-1.8465043-3.475914-2.3897274
	C77.6069794,0.8258676,76.1949005,0.5,74.7828217,0.5l0.0000229,10.9103336"/>
<g id="Windows">
	
		<rect x="64.0592117" y="86.2817993" transform="matrix(0.2514893 -0.9678601 0.9678601 0.2514893 -44.4164467 134.6909485)" class="st2" width="1.6269498" height="19.5599308"/>
	
		<rect x="98.9738388" y="87.3779373" transform="matrix(0.2514893 -0.9678601 0.9678601 0.2514893 -18.5023785 168.6534729)" class="st2" width="1.6269498" height="17.8220577"/>
</g>
<g id="Walls">
	<polygon class="st3" points="38.9378128,95.0005188 56.317234,95.0005188 56.317234,88.488678 38.9378128,88.488678 
		38.9378128,41.7761307 65.0068665,41.7761307 65.0068665,48.2933884 73.6965179,48.2933884 73.6965408,49.3795967 
		74.7827301,49.3795967 74.7827301,41.7761078 73.6965179,41.7761078 73.6965179,47.2072029 66.093071,47.2072029 
		66.093071,38.5175705 65.0068665,38.5175705 65.0068665,40.6899452 38.9378128,40.6899452 38.9377861,14.6208668 
		65.0068665,14.6208429 65.0068665,29.8278008 66.093071,29.8278008 66.093071,14.6208429 74.7827301,14.6208429 
		74.7827301,11.3622618 35.6792068,11.3622847 35.6792297,96.5398102 35.0274467,99.2397079 38.177494,100 38.9378128,96.8499298 	
		"/>
	<polygon class="st3" points="112.0958328,95.0004959 114.9725494,95.0004959 114.9725266,11.3622618 85.6447525,11.3622618 
		85.6447525,14.6208429 90.7782593,14.6208429 90.7782593,20.8637104 91.869812,20.8637104 91.869812,14.6208429 
		111.7138519,14.6208429 111.7138748,88.488678 109.0189514,88.488678 109.0189514,93.9141693 107.8241806,99.2366791 
		110.9741058,99.9970474 	"/>
	<polygon class="st3" points="76.7734528,95.0004959 87.6180954,95.0012283 91.3836975,95.870369 92.5785599,90.5479279 
		88.4508896,89.5703201 74.782753,89.5693741 74.7827301,58.0692482 73.6965408,58.0692482 73.6965408,93.9141922 
		72.5017929,99.2366791 75.6517258,99.9970474 	"/>
</g>
</g></svg>
