<!-- DO NOT EDIT THIS, THIS FILE IS GENERATED FROM "1_2.original.svg" using transform-svgs.js script -->



<svg version="1.1" 
	 xmlns="http://www.w3.org/2000/svg" xmlns:xlink="http://www.w3.org/1999/xlink" x="0px" y="0px" viewBox="0 0 720 480"
	 style="enable-background:new 0 0 720 480;" xml:space="preserve">


<g>
	<g>
		<path fill="#DBD4CA" d="M348.6196899,71.9292145H186.6604004v130.1636047h49.6808014h112.2784882V71.9292145z"/>
		<path fill="#DBD4CA" d="M318.8111877,202.0927124h-82.4700012v71.5403137h82.4700012V202.0927124z"/>
		<path fill="#DBD4CA" d="M318.8111877,273.6330261h-82.4700012v175.8699036l78.9924011-60.8092957l78.9924011-60.8092957
			L318.8111877,273.6330261z"/>
		<path fill="#DBD4CA" d="M425.1279907,359.0839233v-81.4764099h104.3295898l3.6381836,1.6756897l-4.8422241,16.7987061
			l0.2103271,11.3340149l4.4713135,0.9935913l-4.4713135,19.3754883v12.4201965l4.4713135,0.9935913l-4.7692871,21.9588928
			l-21.1640015-4.0737915h-9.836792l-2.5925903,4.2724915l-25.3280029-5.4648132l-13.3145142,1.1922913l-0.9935913,3.4776917
			l-17.3883057-3.9744873L425.1279907,359.0839233z"/>
		<path fill="#DBD4CA" d="M452.9491882,277.6075439v-67.5658112h75.514679l4.4713135,1.9871979l-4.4713135,19.8722992v10.9297943
			l4.4713135,1.9871979l-4.4711914,18.3818207v14.4074097h-75.514801V277.6075439z"/>
		<path fill="#DBD4CA" d="M452.9491882,210.0417175v-69.5531006h75.514679v4.9680939l4.1052246,3.4382935l-4.1052246,16.7675018
			v12.1860046l3.9241943,3.6508026l-3.9241943,16.4037933v12.138504L452.9491882,210.0417175L452.9491882,210.0417175z"/>
		<path fill="#DBD4CA" d="M528.4639893,140.4886169h-75.514801V36.1590157h3.4776917l0.9935913-4.4712982l19.3754883,4.4712982
			h27.8211975l0.9935913-4.9680977l25.8340149,5.9616966l-2.9807739,12.2215004v33.4848022l3.9744263,0.9935989
			l-3.9744263,18.3819046v10.9298019l3.9744263,0.9935989l-3.9744263,17.8851013V140.4886169z"/>
		<path fill="#DBD4CA" d="M452.9491882,36.1590157v89.0279083v15.3016968v30.8020935H348.6196899v-46.1038055V71.9292145H187.157196
			V36.6558151h192.761322v-5.4648991l25.3371887,5.9616985h24.8403931l2.9808044-4.9681015l17.8851013,3.9744987
			C450.9620056,36.1590118,452.9491882,36.1590118,452.9491882,36.1590157z"/>
		<path fill="#DBD4CA" d="M394.3259888,449.5029297h-157.984787l78.9924164-60.8092957l78.9924011-60.8092957v121.6185913H394.3259888z
			"/>
		<polygon fill="#DBD4CA" points="318.8111877,125.1869125 318.8111877,327.3876343 394.6502991,327.3876343 394.6502991,326.1526184
			424.6599121,326.1526184 424.6599121,327.3876343 452.9493103,327.3876343 452.9493103,125.1869125 		"/>
		<path fill="#DBD4CA" d="M318.8111877,327.3876343l75.5147095,0.4967957l-78.9924011,60.8092957l-78.9924011,60.8092957
			L318.8111877,327.3876343z"/>
	</g>
	<rect x="394.3259888" y="323.8105164" fill="#565440" width="30.3052979" height="2.9808044"/>
</g>
<g>
	<path fill="none" stroke="#565440" d="M188.5482941,200.6023102V72.9228134h158.4816132v47.6935043H236.241806v77.5019989h1.4904022
		V122.10672h109.297699v13.4138031h1.490387V71.432312H187.0578003v130.6604004h49.1839905v-1.4904022H188.5482941
		L188.5482941,200.6023102z"/>
	<g>
		<rect x="235.7449951" y="176.7556152" fill="#565440" width="6.955307" height="6.955307"/>
		<polygon fill="#565440" points="240.7131042,158.8705139 278.4703979,158.8705139 278.4703979,160.8577118 279.4641113,160.8577118
			279.4641113,158.8705139 281.4512939,158.8705139 281.4512939,157.8769226 240.7131042,157.8769226 240.7131042,155.8896179
			235.7449951,155.8896179 235.7449951,162.8450165 240.7131042,162.8450165 		"/>
		<rect x="235.7449951" y="135.0237122" fill="#565440" width="6.955307" height="6.955307"/>
		<rect x="258.598114" y="120.1195145" fill="#565440" width="6.9552917" height="6.9552994"/>
		<rect x="322.1895142" y="120.1195145" fill="#565440" width="6.9552917" height="4.9681015"/>
		<polygon fill="#565440" points="344.0490112,135.0237122 344.0490112,175.7619171 332.1256104,175.7619171 332.1256104,169.8003082
			331.1319885,169.8003082 331.1319885,176.7556152 332.1256104,176.7556152 344.0490112,176.7556152 344.0490112,202.5896149
			333.1192932,202.5896149 333.1192932,205.5704193 349.0170898,205.5704193 349.0170898,202.5896149 349.0170898,135.0237122 		"/>
		<polygon fill="#565440" points="290.3937988,157.8769226 289.4002075,157.8769226 289.4002075,158.8705139 290.3937988,158.8705139
			291.3873901,158.8705139 291.3873901,125.087616 300.3299866,125.087616 300.3299866,127.0748138 307.2853088,127.0748138
			307.2853088,125.087616 307.2853088,120.1195145 300.3299866,120.1195145 279.4641113,120.1195145 279.4641113,125.087616
			290.3937988,125.087616 		"/>
		<polygon fill="#565440" points="319.2085876,186.6917114 318.2150879,186.6917114 318.2150879,202.5896149 299.3363953,202.5896149
			299.3363953,176.7556152 318.2150879,176.7556152 318.2150879,178.7428131 319.2085876,178.7428131 319.2085876,176.7556152
			319.2085876,175.7619171 319.2085876,169.8003082 318.2150879,169.8003082 318.2150879,175.7619171 279.4641113,175.7619171
			279.4641113,168.8067169 278.4703979,168.8067169 278.4703979,185.6981201 279.4641113,185.6981201 279.4641113,176.7556152
			298.3427124,176.7556152 298.3427124,202.5896149 279.4641113,202.5896149 279.4641113,193.6470184 278.4703979,193.6470184
			278.4703979,202.5896149 242.7003021,202.5896149 242.7003021,197.621521 235.7449951,197.621521 235.7449951,202.5896149
			235.7449951,205.5704193 323.1831055,205.5704193 323.1831055,202.5896149 319.2085876,202.5896149 		"/>
	</g>
	<path fill="none" stroke="#565440" d="M333.1192932,205.5704193c0,1.2917023-0.2980957,2.4839935-0.7948914,3.6764069
		c-0.4967957,1.1923065-1.1924133,2.3847046-2.1860046,3.2789001c-0.8942871,0.8941956-1.9872131,1.6891022-3.1795959,2.1858978
		c-1.1924133,0.4967957-2.4840088,0.7949066-3.7756958,0.7949066v-9.936203 M281.4512939,157.8769226
		c0-1.0930023,0.1987-1.9871979,0.5961914-2.9808044c0.3973999-0.9936066,0.9935913-1.8878937,1.6890869-2.5834045
		c0.6955872-0.7949066,1.5898132-1.391098,2.5834045-1.7884979s1.9872131-0.5962067,3.0802002-0.5962067v7.9488983
		 M278.4703979,168.8066101c-1.0929871,0-1.9872131-0.1987-2.9808044-0.5962067s-1.8877869-0.9936066-2.5834045-1.6891022
		c-0.7948914-0.6954956-1.3911133-1.589798-1.7885132-2.5834045c-0.3974915-0.9936066-0.5961914-1.9871979-0.5961914-3.0802002
		h7.9489136 M278.4703979,185.6981201c-1.0929871,0-1.9872131,0.1987-2.9808044,0.5962067
		c-0.9935913,0.3973999-1.8877869,0.9936066-2.5834045,1.6891022c-0.7948914,0.6954956-1.3911133,1.589798-1.7885132,2.5834045
		c-0.3974915,0.9936066-0.5961914,1.9871979-0.5961914,3.0802002h7.9489136 M318.2150879,186.6917114
		c-1.0929871,0-1.9872131-0.1987-2.980896-0.5962067s-1.8877869-0.9936066-2.5834045-1.6891022
		c-0.7948914-0.6954956-1.3911133-1.589798-1.7885132-2.5834045c-0.3974915-0.9936066-0.5961914-1.9871979-0.5961914-3.0802002
		h7.9489136 M320.202301,120.6163177c0-1.2917023-0.2980957-2.4840012-0.7948914-3.6763992
		c-0.4967957-1.1922989-1.1922913-2.384697-2.1859131-3.2789001c-0.8942871-0.8943024-1.9872131-1.6891022-3.1795959-2.185997
		c-1.1924133-0.4968033-2.4840088-0.794899-3.7756958-0.794899v9.9361038"/>
</g>
<g>
	<path fill="none" stroke="#565440" d="M236.241806,205.0736084h1.4904022v55.6424255h-1.4904022V205.0736084z"/>
	<g>
		<rect x="235.7449951" y="218.4874115" fill="#565440" width="4.9680939" height="6.955307"/>
		<polygon fill="#565440" points="242.7003021,239.3533173 242.7003021,237.3661194 278.4703979,237.3661194 278.4703979,236.3725128
			241.7066956,236.3725128 241.7066956,237.3661194 241.7066956,239.3533173 235.7449951,239.3533173 235.7449951,246.308609
			242.7003021,246.308609 		"/>
		<polygon fill="#565440" points="319.2085876,254.6326141 312.449585,254.6326141 312.449585,255.6400146 319.2085876,255.6400146
			319.2085876,272.1426392 242.7003021,272.1426392 242.7003021,260.2192383 235.7449951,260.2192383 235.7449951,275.1234436
			242.7003021,275.1234436 322.1895142,275.1234436 322.1895142,272.1426392 322.1895142,250.2831116 319.2085876,250.2831116 		"/>
		<polygon fill="#565440" points="235.7449951,202.5896149 235.7449951,205.5704193 293.3746948,205.5704193 293.3746948,229.4172211
			288.4065857,229.4172211 287.4129944,229.4172211 287.4129944,236.3725128 286.4194031,236.3725128 286.4194031,237.3661194
			294.3682861,237.3661194 294.3682861,236.3725128 288.4065857,236.3725128 288.4065857,230.4108124 296.3554993,230.4108124
			296.3554993,229.4172211 294.3682861,229.4172211 294.3682861,205.5704193 319.2085876,205.5704193 319.2085876,229.4172211
			304.3044128,229.4172211 304.3044128,230.4108124 319.2085876,230.4108124 319.2085876,240.3469086 322.1895142,240.3469086
			322.1895142,205.5704193 322.1895142,202.5896149 		"/>
	</g>
	<path fill="none" stroke="#565440" d="M278.4703979,236.3725128c0-1.0930023,0.1987915-1.9871979,0.5961914-2.9808044
		s0.9935913-1.8878937,1.6890869-2.5834045c0.6955872-0.7949066,1.5898132-1.391098,2.5834045-1.7884979
		s1.9872131-0.5962067,3.0802002-0.5962067v7.9488983 M304.3044128,229.4172211c0-1.0930023-0.1987915-1.9871979-0.5961914-2.980896
		c-0.3973999-0.9936066-0.9935913-1.8878937-1.6890869-2.5834045c-0.6955872-0.7949066-1.5898132-1.391098-2.5834045-1.7884979
		s-1.9872131-0.5962067-3.0802002-0.5962067v7.9488983 M322.1895142,240.3469086
		c1.291687,0,2.4840088,0.2980957,3.6763916,0.7949066c1.1924133,0.4967957,2.3847046,1.1923065,3.2789001,2.1858978
		c0.8942871,0.8943024,1.6890869,1.9871979,2.1860046,3.1795959c0.4967957,1.1923065,0.7948914,2.4839935,0.7948914,3.7756958
		h-9.9360962"/>
</g>
<g>
	<path fill="none" stroke="#565440" d="M236.241806,273.1362305h1.4904022v50.1776123h-1.4904022V273.1362305z"/>
	<g>
		<polygon fill="#565440" points="240.7131042,307.9128418 278.4703979,307.9128418 278.4703979,306.9191284 240.7131042,306.9191284
			240.7131042,301.9510193 235.7449951,301.9510193 235.7449951,308.9064331 240.7131042,308.9064331 		"/>
		<polygon fill="#565440" points="319.2085876,340.7020264 242.7003021,340.7020264 242.7003021,322.8170166 235.7449951,322.8170166
			235.7449951,343.6829224 242.7003021,343.6829224 322.1895142,343.6829224 322.1895142,340.7020264 322.1895142,317.848938
			319.2085876,317.848938 		"/>
		<polygon fill="#565440" points="235.7449951,272.1426392 235.7449951,275.1234436 235.7449951,288.0404358 242.7003021,288.0404358
			242.7003021,275.1234436 293.3746948,275.1234436 293.3746948,299.9638367 288.4065857,299.9638367 287.4129944,299.9638367
			287.4129944,306.9191284 286.4194031,306.9191284 286.4194031,307.9128418 294.3682861,307.9128418 294.3682861,306.9191284
			288.4065857,306.9191284 288.4065857,300.957428 296.3554993,300.957428 296.3554993,299.9638367 294.3682861,299.9638367
			294.3682861,275.1234436 319.2085876,275.1234436 319.2085876,299.9638367 304.3044128,299.9638367 304.3044128,300.957428
			319.2085876,300.957428 319.2085876,307.9128418 322.1895142,307.9128418 322.1895142,275.1234436 322.1895142,272.1426392 		"/>
		<rect x="312.453186" y="321.8233337" fill="#565440" width="8.1514893" height="0.9935913"/>
	</g>
	<path fill="none" stroke="#565440" d="M278.4703979,306.9191284c0-1.0929871,0.1987915-1.9872131,0.5961914-2.9808044
		s0.9935913-1.8879089,1.6890869-2.5834045c0.6955872-0.7948914,1.5898132-1.3911133,2.5834045-1.7885132
		s1.9872131-0.5961914,3.0802002-0.5961914v7.9489136 M304.3044128,299.9638367c0-1.0929871-0.1987915-1.9872131-0.5961914-2.980896
		s-0.9935913-1.8877869-1.6890869-2.5834045c-0.6955872-0.7948914-1.5898132-1.3911133-2.5834045-1.7885132
		c-0.9935913-0.3974915-1.9872131-0.5961914-3.0802002-0.5961914v7.9489136 M322.1895142,307.9127197
		c1.291687,0,2.4840088,0.2980957,3.6763916,0.7948914c1.1924133,0.4967957,2.3847046,1.1924133,3.2789001,2.1860046
		c0.8942871,0.8942871,1.6890869,1.9872131,2.1860046,3.1795959c0.4967957,1.1924133,0.7948914,2.4840088,0.7948914,3.7756958
		h-9.9360962"/>
</g>
<g>
	<path fill="none" stroke="#565440" d="M237.732193,342.2918396h-1.4904022v107.2110901h83.4637146v-1.490387h-81.9732971V342.2918396
		H237.732193z"/>
	<g>
		<polygon fill="#565440" points="235.7449951,340.7020264 235.7449951,343.6829224 235.7449951,350.6382446 242.7003021,350.6382446
			242.7003021,343.6829224 319.2085876,343.6829224 319.2085876,345.6701355 322.1895142,345.6701355 322.1895142,343.6829224
			322.1895142,340.7020264 		"/>
		<rect x="235.7449951" y="365.5424194" fill="#565440" width="4.9680939" height="6.9552917"/>
		<polygon fill="#565440" points="276.4831848,400.3189392 277.4768066,400.3189392 277.4768066,395.3509216 277.4768066,394.3572388
			242.7003021,394.3572388 242.7003021,386.4083252 235.7449951,386.4083252 235.7449951,414.2296448 242.7003021,414.2296448
			242.7003021,395.3509216 276.4831848,395.3509216 		"/>
		<polygon fill="#565440" points="277.4768066,412.2423401 279.4641113,412.2423401 279.4641113,411.2487183 277.4768066,411.2487183
			277.4768066,408.2679443 276.4831848,408.2679443 276.4831848,445.0316162 265.5534058,445.0316162 265.5534058,443.0444336
			258.598114,443.0444336 258.598114,449.9997253 265.5534058,449.9997253 286.4194031,449.9997253 286.4194031,445.0316162
			277.4768066,445.0316162 		"/>
		<rect x="235.7449951" y="428.1402283" fill="#565440" width="6.955307" height="6.9552917"/>
		<polygon fill="#565440" points="319.2085876,364.5488281 302.3171997,364.5488281 302.3171997,365.5424194 319.2085876,365.5424194
			319.2085876,385.4147339 289.4002075,385.4147339 289.4002075,365.5424194 294.3682861,365.5424194 294.3682861,364.5488281
			289.4002075,364.5488281 288.4065857,364.5488281 288.4065857,411.2487183 287.4129944,411.2487183 287.4129944,412.2423401
			289.4002075,412.2423401 289.4002075,411.2487183 289.4002075,405.2870178 301.3236084,405.2870178 301.3236084,404.2934265
			289.4002075,404.2934265 289.4002075,386.4083252 319.2085876,386.4083252 319.2085876,404.2934265 309.2724915,404.2934265
			309.2724915,405.2870178 319.2085876,405.2870178 319.2085876,443.0444336 300.3299866,443.0444336 300.3299866,449.9997253
			322.1895142,449.9997253 322.1895142,443.0444336 322.1895142,355.6063232 319.2085876,355.6063232 		"/>
	</g>
	<path fill="none" stroke="#565440" d="M276.4831848,408.2678223c-1.0929871,0-1.9872131-0.1987-2.980896-0.5961914
		c-0.9935913-0.3973999-1.8877869-0.9935913-2.5834045-1.6890869c-0.7948914-0.6955872-1.3911133-1.5898132-1.7885132-2.5834045
		s-0.5961914-1.9872131-0.5961914-3.0802002h7.9489136 M287.4129944,412.2423401c0,1.0929871-0.1987,1.9872131-0.5961914,2.980896
		s-0.9935913,1.8877869-1.6890869,2.5834045c-0.6955872,0.7948914-1.5898132,1.3911133-2.5834045,1.7885132
		c-0.9935913,0.3974915-1.9872131,0.5961914-3.0802002,0.5961914v-7.9489136 M301.3236084,405.2870178
		c0,1.0929871,0.1987,1.9872131,0.5961914,2.9808044c0.3973999,0.9935913,0.9935913,1.8879089,1.6890869,2.5834045
		c0.6955872,0.7948914,1.5898132,1.3911133,2.5834045,1.7885132s1.9872131,0.5961914,3.0802002,0.5961914v-7.9489136
		 M302.3171997,365.5424194c0,1.0929871-0.1987,1.9872131-0.5961914,2.9808044s-0.9935913,1.8879089-1.689209,2.5834045
		c-0.6954956,0.7948914-1.5898132,1.3911133-2.5834045,1.7885132s-1.9872131,0.5961914-3.0802002,0.5961914v-7.9489136
		 M319.2085876,355.6062317c-1.291687,0-2.4840088-0.2980957-3.6763916-0.7948914
		c-1.1924133-0.4967957-2.384613-1.1922913-3.2789001-2.1859131c-0.8942871-0.8942871-1.6890869-1.9872131-2.1860046-3.1795959
		c-0.4967957-1.1924133-0.7948914-2.4840088-0.7948914-3.7756958h9.9361877"/>
</g>
<g>
	<path fill="none" stroke="#565440" d="M392.7362061,448.0125427h-71.9376831v1.490387h73.4281006v-99.3615112h-1.490387v97.8711243
		H392.7362061z"/>
	<g>
		<polygon fill="#565440" points="363.9213257,445.0316162 354.9788208,445.0316162 353.9852295,445.0316162 343.0554199,445.0316162
			343.0554199,449.9996948 363.9213257,449.9996948 370.8765869,449.9996948 370.8765869,443.0444336 363.9213257,443.0444336 		"/>
		<rect x="386.7745361" y="428.1401978" fill="#565440" width="7.9489136" height="6.9553223"/>
		<polygon fill="#565440" points="389.7553101,364.5488281 389.7553101,366.0668945 356.7807007,366.0668945 356.7807007,367.0604858
			357.315979,367.0604858 357.315979,382.6765747 358.3095703,382.6765747 358.3095703,367.0604858 389.7553101,367.0604858
			389.7553101,371.5040894 394.7234497,371.5040894 394.7234497,364.5488281 		"/>
		<polygon fill="#565440" points="341.0682373,359.5806885 347.0305176,359.5806885 347.0305176,367.0606079 349.0678406,367.0606079
			349.0678406,366.0670166 348.0241089,366.0670166 348.0241089,358.5917358 348.0234985,358.5917358 348.0234985,358.5870972
			341.0682373,358.5870972 341.0682373,343.6829224 348.0234985,343.6829224 348.0234985,340.7020264 348.0234985,331.0256958
			350.947876,331.0256958 350.947876,330.0321045 348.0234985,330.0321045 348.0234985,312.8807983 372.1716309,312.8807983
			372.1716309,330.0316162 358.3652954,330.0316162 358.3652954,331.0252075 378.3805542,331.0252075 378.3805542,330.0316162
			373.1652222,330.0316162 373.1652222,312.8807983 387.7681274,312.8807983 387.7681274,330.0317383 385.9631958,330.0317383
			385.9631958,331.0253296 387.7681274,331.0253296 387.7681274,350.6382446 394.7233887,350.6382446 394.7233887,307.9128418
			345.0427246,307.9128418 345.0427246,312.8807983 345.0427246,340.7020264 338.0873413,340.7020264 338.0873413,343.6829224
			338.0873413,356.5999146 333.1193237,356.5999146 333.1193237,359.5806885 338.0873413,359.5806885 		"/>
		<polygon fill="#565440" points="322.1895142,405.2869873 344.0490112,405.2869873 344.0490112,404.293396 341.0682373,404.293396
			341.0682373,395.3508911 340.074585,395.3508911 340.074585,404.293396 322.1895142,404.293396 322.1895142,379.4530029
			340.074585,379.4530029 340.074585,387.4019165 341.0682373,387.4019165 341.0682373,378.4594116 340.074585,378.4594116
			322.1895142,378.4594116 322.1895142,359.5806885 323.1831055,359.5806885 323.1831055,356.5999146 322.1895142,356.5999146
			319.2086182,356.5999146 319.2086182,449.9996948 322.1895142,449.9996948 328.1512451,449.9996948 328.1512451,443.0444336
			322.1895142,443.0444336 		"/>
		<polygon fill="#565440" points="357.315979,391.4841919 357.315979,404.293396 357.315979,405.2869873 358.3095703,405.2869873
			389.7553101,405.2869873 389.7553101,409.2615356 394.7233887,409.2615356 394.7233887,381.4401855 387.7681274,381.4401855
			387.7681274,388.3956299 389.7553101,388.3956299 389.7553101,404.293396 358.3095703,404.293396 358.3095703,391.4841919 		"/>
	</g>
	<path fill="none" stroke="#565440" d="M341.0682068,387.4019165c1.0929871,0,1.9872131,0.1987,2.980896,0.5961914
		c0.9935913,0.3974915,1.8877869,0.9935913,2.5834045,1.689209c0.7948914,0.6954956,1.3911133,1.5898132,1.7885132,2.5834045
		s0.5961914,1.9872131,0.5961914,3.0802002h-7.9489136 M358.3095398,391.640625c1.0641785,0,1.934845-0.2299194,2.9023438-0.6898804
		c0.9674072-0.4598389,1.8380432-1.1496887,2.5153198-1.9544678c0.7739563-0.8047791,1.3544617-1.8395996,1.741394-2.9892883
		c0.3869324-1.1497192,0.5804749-2.2994385,0.5804749-3.5641785h-7.7394409 M378.1752319,331.025238
		c0,1.0929871,0.1987,1.9872131,0.5961914,2.9808044s0.9935913,1.8877869,1.689209,2.5834045
		c0.6954956,0.7948914,1.5898132,1.3911133,2.5834045,1.7885132c0.9935913,0.3974915,1.9872131,0.5961914,3.0802002,0.5961914
		v-7.9489136 M358.6391907,331.025238c0,1.0929871-0.1987,1.9872131-0.5961914,2.9808044s-0.9935913,1.8877869-1.689209,2.5834045
		c-0.6954956,0.7948914-1.5898132,1.3911133-2.5834045,1.7885132c-0.9935913,0.3974915-1.9872131,0.5961914-3.0802002,0.5961914
		v-7.9489136 M356.9660034,366.0948486c0-1.0929871-0.1987305-1.9872131-0.5961914-2.9808044
		c-0.397522-0.9935913-0.9935913-1.8877869-1.689209-2.5834045c-0.6954956-0.7948914-1.5898438-1.3911133-2.5834351-1.7885132
		c-0.9935913-0.3974915-1.9871826-0.5961914-3.0802002-0.5961914v7.9489136 M333.1192932,359.580719
		c0,1.291687-0.2980957,2.4840088-0.7948914,3.6763916c-0.4967957,1.1924133-1.1924133,2.3847046-2.1860046,3.2789001
		c-0.8942871,0.8941956-1.9872131,1.6890869-3.1795959,2.1859131c-1.1924133,0.4967957-2.4840088,0.7948914-3.7756958,0.7948914
		v-9.9361877"/>
</g>
<g>
	<g>
		<path fill="none" stroke="#565440" d="M437.4489136,357.2954407l15.5003967,3.5769958l-0.2980957,1.490387l-15.5003967-3.5769958
			L437.4489136,357.2954407z"/>
		<path fill="none" stroke="#565440" d="M468.8471069,356.1031189l25.1383972,5.7629089l-0.2980957,1.490387l-25.1384888-5.7629089
			L468.8471069,356.1031189z"/>
		<polygon fill="none" stroke="#565440" points="532.3391113,343.2854309 530.8486938,342.888031 526.7747803,361.0711365 502.8287048,356.401123
			502.5306091,357.7922363 527.9672241,362.8596191 528.0665283,362.1641235 		"/>

			<rect x="520.8887939" y="317.8762817" transform="matrix(0.2514896 -0.96786 0.96786 0.2514896 88.2070465 751.296936)" fill="none" stroke="#565440" stroke-width="1.0000414" stroke-miterlimit="4.0001655" width="17.8925247" height="1.4883733"/>

			<rect x="521.8916016" y="286.1178894" transform="matrix(0.2514896 -0.96786 0.96786 0.2514896 119.1003571 727.7266235)" fill="none" stroke="#565440" stroke-width="1.0000414" stroke-miterlimit="4.0001655" width="16.3027973" height="1.4883733"/>
	</g>
	<g>
		<polygon fill="#565440" points="424.5318909,277.1107178 424.5318909,359.580719 429.4999084,359.580719 434.7804871,359.580719
			437.2500916,360.1769409 438.3431091,355.3082275 435.4616089,354.6126404 429.4999084,354.6126404 429.4999084,280.0915222
			438.4425049,280.0915222 438.4425049,277.1107178 429.4999084,277.1107178 		"/>
		<polygon fill="#565440" points="453.3467102,357.5935364 452.2538147,362.4622192 455.1351929,363.1577454 455.9382019,359.580719
			469.2445068,359.580719 469.2445068,352.6254272 453.3467102,352.6254272 		"/>
		<polygon fill="#565440" points="494.0848999,359.0299377 493.0913086,363.4558411 495.9728088,364.1513367 496.9989014,359.580719
			508.9891052,359.580719 508.9891052,352.6254272 494.0848999,352.6254272 		"/>
		<polygon fill="#565440" points="528.8615112,326.1212158 521.9061279,326.1212158 521.9061279,342.8490295 528.3106079,342.8490295
			532.7365723,343.8427429 533.4321289,340.9612427 528.8615112,339.9351196 		"/>
		<polygon fill="#565440" points="529.4575806,294.2009277 524.5889282,293.1078186 523.9165039,295.9893188 523.8933716,295.9893188
			523.8933716,310.4377441 528.3106079,310.4377441 532.7365723,311.4313354 533.4321289,308.5498352 528.8615112,307.5237427
			528.8615112,296.6708374 		"/>
		<polygon fill="#565440" points="479.1806946,316.8553162 479.1806946,355.9043274 478.5845032,358.5871277 479.578186,358.7859192
			480.1742859,356.1031189 480.1742859,317.848938 481.1679077,317.848938 481.1679077,316.8553162 480.1742859,316.8553162 		"/>
		<polygon fill="#565440" points="487.1296082,304.9319153 487.1296082,305.9255371 495.0784912,305.9255371 495.0784912,307.9128418
			496.072113,307.9128418 496.072113,305.9255371 496.072113,304.9319153 490.1104126,304.9319153 490.1104126,280.0915222
			530.2695923,280.0915222 532.7393188,280.6877441 533.4348145,277.8062439 530.5532837,277.1107178 448.3786011,277.1107178
			448.3786011,280.0915222 449.3721924,280.0915222 449.3721924,289.0341187 450.3658142,289.0341187 450.3658142,280.0915222
			470.2381897,280.0915222 470.2381897,304.9319153 450.3658142,304.9319153 450.3658142,296.9830322 449.3721924,296.9830322
			449.3721924,305.9255371 450.3658142,305.9255371 479.1806946,305.9255371 479.1806946,304.9319153 471.2318115,304.9319153
			471.2318115,280.0915222 489.1167908,280.0915222 489.1167908,304.9319153 		"/>
		<polygon fill="#565440" points="529.0601807,318.4450378 529.2589111,317.451416 526.8742065,316.8553162 496.072113,316.8553162
			496.072113,315.8617249 495.0784912,315.8617249 495.0784912,316.8553162 489.1167908,316.8553162 489.1167908,317.848938
			526.6754761,317.848938 		"/>
	</g>
	<path fill="none" stroke="#565440" d="M489.1167908,317.848938c0,1.0929871-0.1987,1.9872131-0.5961914,2.9808044
		s-0.9935913,1.8877869-1.6890869,2.5834045c-0.6955872,0.7948914-1.5898132,1.3911133-2.5834045,1.7885132
		c-0.9935913,0.3974915-1.9872131,0.5961914-3.0802002,0.5961914v-7.9489136 M479.1806946,304.9319153
		c0-1.0929871,0.1987-1.9872131,0.5961914-2.9808044s0.9935913-1.8877869,1.6890869-2.5834045
		c0.6955872-0.7948914,1.5898132-1.3911133,2.5834045-1.7885132c0.9935913-0.3974915,1.9872131-0.5961914,3.0802002-0.5961914
		v7.9489136 M450.3658142,289.0340271c1.0929871,0,1.9872131,0.1987,2.9808044,0.5961914s1.8879089,0.9935913,2.5834045,1.689209
		c0.7948914,0.6954956,1.3911133,1.5898132,1.7885132,2.5834045s0.5961914,1.9872131,0.5961914,3.0802002h-7.9489136
		 M496.072113,307.9127197c1.0929871,0,1.9872131,0.1987,2.9808044,0.5961914s1.8879089,0.9935913,2.5834045,1.689209
		c0.7948914,0.6954956,1.3911133,1.5898132,1.7885132,2.5834045s0.5961914,1.9872131,0.5961914,3.0802002h-7.9489136
		 M438.4425049,277.2064209c0-1.291687,0.2980957-2.5798035,0.7948914-3.7721863
		c0.4967957-1.1924133,1.1924133-2.3847046,2.1860046-3.2789001c0.8942871-0.8942871,1.9872131-1.6890869,3.1795959-2.1860046
		c1.1922913-0.4967957,2.4840088-0.7948914,3.7756958-0.7948914v10.0318909"/>
</g>
<g>
	<g>
		<polygon fill="#565440" points="528.8615112,277.1107178 528.8615112,261.2128296 521.9061279,261.2128296 521.9061279,277.1107178
			480.1742859,277.1107178 480.1742859,253.263916 486.1359863,253.263916 486.1359863,252.2703094 486.1359863,245.3150177
			487.1296082,245.3150177 487.1296082,244.3214111 480.1742859,244.3214111 480.1742859,245.3150177 485.142395,245.3150177
			485.142395,252.2703094 477.193512,252.2703094 477.193512,253.263916 479.1806946,253.263916 479.1806946,277.1107178
			455.3338928,277.1107178 455.3338928,253.263916 469.2445068,253.263916 469.2445068,252.2703094 455.3338928,252.2703094
			455.3338928,244.3214111 452.3530884,244.3214111 452.3530884,277.1107178 452.3530884,280.0915222 530.2695923,280.0915222
			532.7393188,280.6877441 533.4348145,277.8062439 530.5532837,277.1107178 		"/>
		<polygon fill="#565440" points="528.8615112,210.1891174 528.8615112,207.5576172 452.3530884,207.5576172 452.3530884,210.5385132
			452.3530884,234.3853149 455.3338928,234.3853149 455.3338928,229.6894226 461.0445862,229.6894226 461.0445862,228.690918
			455.3338928,228.690918 455.3338928,210.5385132 521.9061279,210.5385132 521.9061279,213.0037079 527.8677979,213.0037079
			532.7365723,214.0966187 533.4321289,211.21521 		"/>
		<polygon fill="#565440" points="528.8615112,242.500412 528.8615112,240.6911163 528.8621826,240.6911163 528.8621826,232.5802155
			529.6572266,229.1356201 524.7885132,228.0426178 523.8942261,231.8184204 523.8942261,235.7947083 523.8933716,235.7947083
			523.8933716,244.3214111 495.0784912,244.3214111 495.0784912,245.3150177 527.8677979,245.3150177 532.7365723,246.4079132
			533.4321289,243.5265198 		"/>
	</g>
	<path fill="none" stroke="#565440" d="M469.2445068,253.263916c0,1.0930023,0.1987,1.9871979,0.5961914,2.9808044
		c0.3974915,0.9935913,0.9935913,1.8877869,1.689209,2.5834045c0.6954956,0.7948914,1.5898132,1.3911133,2.5834045,1.7885132
		s1.9872131,0.5961914,3.0802002,0.5961914v-7.9489136 M495.0784912,245.3150177c0,1.0930023-0.1987,1.9871979-0.5961914,2.980896
		c-0.3974915,0.9936066-0.9935913,1.8878937-1.689209,2.5834045c-0.6954956,0.7949066-1.5898132,1.391098-2.5834045,1.7884979
		s-1.9872131,0.5962067-3.0802002,0.5962067v-7.9488983 M452.3971863,234.3852081
		c-1.291687,0-2.5281982,0.2980957-3.7206116,0.7949066c-1.1924133,0.4967957-2.3847046,1.1923065-3.2789001,2.1858978
		c-0.8942871,0.8941956-1.6890869,1.9871979-2.1860046,3.1795959c-0.4967957,1.1923065-0.7948914,2.4839935-0.7948914,3.7756958
		h9.9802856"/>
	<g>

			<rect x="520.8861084" y="252.6425934" transform="matrix(0.2514896 -0.96786 0.96786 0.2514896 151.3421326 702.4661255)" fill="none" stroke="#565440" stroke-width="1.0000414" stroke-miterlimit="4.0001655" width="17.8925247" height="1.4882665"/>

			<rect x="521.8887939" y="220.7042999" transform="matrix(0.2514896 -0.96786 0.96786 0.2514896 182.4095001 678.7611084)" fill="none" stroke="#565440" stroke-width="1.0000414" stroke-miterlimit="4.0001655" width="16.3027973" height="1.4882665"/>
	</g>
</g>
<g>
	<path fill="none" stroke="#565440" d="M469.2445068,183.7109222c0,1.0930023,0.1987,1.9871979,0.5961914,2.980896
		c0.3974915,0.9936066,0.9935913,1.8878937,1.689209,2.5834045c0.6954956,0.7949066,1.5898132,1.391098,2.5834045,1.7884979
		s1.9872131,0.5962067,3.0802002,0.5962067v-7.9488983 M495.0784912,175.7619171c0,1.0930023-0.1987,1.9871979-0.5961914,2.980896
		c-0.3974915,0.9936066-0.9935913,1.8878937-1.689209,2.5834045c-0.6954956,0.7949066-1.5898132,1.391098-2.5834045,1.7884979
		s-1.9872131,0.5962067-3.0802002,0.5962067v-7.9488983 M452.438385,174.7683105
		c-1.291687,0-2.569397-0.2980957-3.7616882-0.7949066c-1.1924133-0.4967957-2.3847046-1.1923065-3.2789001-2.1860046
		c-0.8942871-0.8941956-1.6890869-1.9871979-2.1860046-3.1795959c-0.4967957-1.1923065-0.7948914-2.4839935-0.7948914-3.7756958
		h10.0215149"/>
	<g>
		<polygon fill="#565440" points="528.8543701,199.0321198 528.8543701,196.6238098 521.9121704,196.6238098 521.9061279,207.5577087
			480.1742859,207.5577087 480.1742859,183.7109222 486.1359863,183.7109222 486.1359863,175.7620087 487.1296082,175.7620087
			487.1296082,174.7684174 480.1742859,174.7684174 480.1742859,175.7620087 485.142395,175.7620087 485.142395,182.7173157
			477.193512,182.7173157 477.193512,183.7109222 479.1806946,183.7109222 479.1806946,207.5577087 461.3573914,207.5577087
			461.3573914,199.7249146 460.3703003,199.7249146 460.3703003,207.5577087 455.3338928,207.5577087 455.3338928,183.7109222
			469.2445068,183.7109222 469.2445068,182.7173157 455.3338928,182.7173157 455.3338928,174.7684174 452.3530884,174.7684174
			452.3530884,210.5385132 528.8615112,210.5385132 528.8577271,199.0321198 		"/>
		<polygon fill="#565440" points="455.3338928,158.711319 461.1957092,158.711319 461.1957092,157.7243195 455.3338928,157.7243195
			455.3338928,140.9855194 521.9061279,140.9855194 521.9061279,148.3302155 528.302002,148.3302155 532.7294922,149.3241119
			532.7296753,149.3232117 532.7327271,149.3239136 533.4282837,146.4424133 528.8577271,145.4163208 528.8615112,138.0046082
			528.8577271,138.0046082 528.8577271,138.0011139 521.9061279,138.0011139 521.9061279,138.0046082 452.3530884,138.0046082
			452.3530884,164.8322144 455.3338928,164.8322144 		"/>
		<polygon fill="#565440" points="528.8577271,168.2025146 529.6525879,164.7579193 524.7838745,163.664917 523.8895874,167.4406128
			523.8895874,174.7684174 495.0784912,174.7684174 495.0784912,175.7620087 523.8895874,175.7620087 523.8895874,180.7423096
			528.8577271,180.7423096 528.8577271,180.7342224 532.4348145,181.5372162 533.1303101,178.6557159 528.8577271,177.6966095 		"/>
	</g>
	<g>

			<rect x="520.8829346" y="187.6979218" transform="matrix(0.2514896 -0.96786 0.96786 0.2514896 214.1971436 653.8513184)" fill="none" stroke="#565440" stroke-width="1.0000414" stroke-miterlimit="4.0001655" width="17.8925247" height="1.4882665"/>
		<polygon fill="none" stroke="#565440" points="528.5396729,165.3534088 527.0991821,164.9791107 531.3693237,148.455719 532.8096924,148.8300171
			"/>
	</g>
</g>
<g>
	<path fill="none" stroke="#565440" d="M531.4448242,37.0533142l-23.8468018-5.5641975l-0.2980347,1.4902992l22.4556885,5.1668015
		l-2.583374,11.2278976v18.6800003h1.4904175V49.374115L531.4448242,37.0533142z M531.0474243,114.157814l1.4904175,0.2981033
		l-4.2249756,18.4812927l-1.4904785-0.2980957L531.0474243,114.157814z M531.0474243,83.3557129l1.4904175,0.2981033
		l-3.9744873,17.388298l-1.4904175-0.2981033L531.0474243,83.3557129z M457.7185974,31.6877174l18.6799011,4.2724991
		l-0.2980957,1.4903984l-18.6799011-4.2724991L457.7185974,31.6877174z"/>
	<g>
		<polygon fill="#565440" points="455.3338928,116.1450119 465.2701111,116.1450119 465.2701111,115.151413 455.3338928,115.151413
			455.3338928,101.2408142 475.2062073,101.2408142 475.2062073,115.151413 473.2189941,115.151413 473.2189941,116.1450119
			476.1997986,116.1450119 476.1997986,115.151413 476.1997986,82.362114 475.2062073,82.362114 475.2062073,100.2472153
			455.3338928,100.2472153 455.3338928,73.4196167 475.2062073,73.4196167 475.2062073,74.4132156 476.1997986,74.4132156
			476.1997986,73.4196167 477.193512,73.4196167 477.193512,72.4260178 455.3338928,72.4260178 455.3338928,38.643116
			458.3378906,38.6442146 459.9046021,31.985817 457.0231018,31.2903175 455.9943848,35.6622162 455.3338928,35.6622162
			452.3530884,35.6622162 452.3530884,127.0748138 455.3338928,127.0748138 		"/>
		<polygon fill="#565440" points="528.8615112,103.3237152 529.6563721,99.8791122 524.7877197,98.7860184 523.8933716,102.5618134
			523.8933716,115.5374146 528.8615112,115.5374146 528.8615112,115.529213 532.4384766,116.3322144 533.1339722,113.4507141
			528.8615112,112.4916153 		"/>
		<polygon fill="#565440" points="521.9061279,138.0046082 455.3338928,138.0046082 455.3338928,137.0110168 452.3530884,137.0110168
			452.3530884,138.0046082 452.3530884,140.9854126 528.8615112,140.9854126 528.8615112,138.0046082 528.8615112,131.5748138
			521.9061279,131.5748138 		"/>
		<polygon fill="#565440" points="495.0784912,82.7063141 494.0848999,82.7063141 494.0848999,83.8301163 487.1296082,83.8301163
			487.1296082,84.8237152 521.9061279,84.8237152 528.8615112,84.8156128 532.4384766,85.6186142 533.1339722,82.737114
			528.8615112,81.777916 528.8615112,67.0660172 521.9061279,67.0660172 521.9061279,83.8301163 495.0784912,83.8301163 		"/>
		<polygon fill="#565440" points="494.0848999,72.4260178 485.142395,72.4260178 485.142395,73.4196167 494.0848999,73.4196167
			494.0848999,74.7574158 495.0784912,74.7574158 495.0784912,40.6303139 507.9955139,40.6303139 507.9955139,40.608017
			508.0949097,40.6303139 510.0822144,31.8864174 505.2134094,30.7935181 504.1069031,35.6622162 495.0784912,35.6622162
			473.2189941,35.6622162 473.2189941,38.643116 494.0848999,38.643116 		"/>
	</g>
	<path fill="none" stroke="#565440" d="M465.2701111,115.151413c0-1.0930023,0.1987-1.9871979,0.5961914-2.9807968
		c0.3973999-0.9935989,0.9935913-1.8879013,1.6890869-2.5833969c0.6955872-0.794899,1.5898132-1.391098,2.5834045-1.7884979
		s1.9872131-0.596199,3.0802002-0.596199v7.9488983 M475.2062073,82.362114c-1.0929871,0-1.9872131-0.1987-2.9808044-0.596199
		c-0.9935913-0.3973999-1.8877869-0.9935989-2.5834045-1.6891022c-0.7948914-0.6955032-1.3911133-1.589798-1.7885132-2.5833969
		c-0.3974915-0.9935989-0.5961914-1.9871979-0.5961914-3.0802002h7.9489136 M477.193512,72.4260178
		c0-1.0930023,0.1987-1.9871979,0.5961914-2.9807968c0.3973999-0.9935989,0.9935913-1.8879013,1.6890869-2.5833969
		c0.6954956-0.794899,1.5898132-1.391098,2.5834045-1.7884979c0.9935913-0.3974991,1.9872131-0.596199,3.0802002-0.596199v7.9488983
		 M495.0784912,74.7574158c1.0929871,0,1.9872131,0.1987,2.9808044,0.596199
		c0.9935913,0.3973999,1.8879089,0.9935989,2.5834045,1.6891022c0.7948914,0.6955032,1.3911133,1.589798,1.7885132,2.5833969
		s0.5961914,1.9871979,0.5961914,3.0802002h-7.9489136 M455.3338928,127.0748138c1.291687,0,2.4840088,0.2981033,3.6763916,0.794899
		c1.1924133,0.4968033,2.3847046,1.1922989,3.2789001,2.185997c0.8942871,0.8943024,1.689209,1.9871979,2.1860046,3.1795959
		s0.7948914,2.4839935,0.7948914,3.7756958h-9.9361877"/>
</g>
<g>
	<g>
		<path fill="none" stroke="#565440" d="M431.5864868,31.5884171l19.3754883,4.4712982l-0.2980957,1.4903984l-19.3754883-4.471302
			L431.5864868,31.5884171z"/>
		<path fill="none" stroke="#565440" d="M379.8192139,99.2536163h1.490387v28.8148041h-1.490387V99.2536163z"/>
		<polygon fill="none" stroke="#565440" points="399.1947021,35.8609161 379.8192139,30.6941166 379.8192139,37.1526146 188.5482941,37.1526146
			187.0578003,37.1526146 187.0578003,38.6430168 187.0578003,71.432312 187.0578003,71.432312 187.0578003,72.9228134
			347.0299072,72.9228134 347.0299072,136.3154144 348.5202942,136.3154144 348.5202942,72.9228134 348.5202942,72.3266144
			348.5202942,71.432312 188.5482941,71.432312 188.5482941,38.6430168 379.8192139,38.6430168 379.8192139,59.906414
			381.3096008,59.906414 381.3096008,32.6814156 398.7972107,37.2520142 		"/>
	</g>
	<g>
		<polygon fill="#565440" points="452.3530884,35.6622162 448.3786011,35.6622162 448.3786011,42.6175156 452.3530884,42.6175156
			452.3530884,76.4004135 429.4999084,76.4004135 429.4999084,77.3941116 432.4808044,77.3941116 432.4808044,87.3302155
			433.4743958,87.3302155 433.4743958,77.3941116 452.3530884,77.3941116 452.3530884,103.2281189 433.4743958,103.2281189
			433.4743958,95.2791138 432.4808044,95.2791138 432.4808044,104.2217178 433.4743958,104.2217178 452.3530884,104.2217178
			452.3530884,123.1003189 450.3658142,123.1003189 450.3658142,126.0812149 452.3530884,126.0812149 455.3338928,126.0812149
			455.3338928,35.6622162 		"/>
		<polygon fill="#565440" points="385.7809143,100.2472153 387.7680969,100.2472153 419.5638123,100.2472153 419.5638123,99.2536163
			419.5638123,88.3238144 418.5701904,88.3238144 418.5701904,99.2536163 407.6404114,99.2536163 407.6404114,77.3941116
			407.6404114,76.4004135 404.6594849,76.4004135 404.6594849,77.3941116 406.6467896,77.3941116 406.6467896,99.2536163
			387.7680969,99.2536163 387.7680969,77.3941116 396.7106018,77.3941116 396.7106018,76.4004135 387.7680969,76.4004135
			387.7680969,50.5664139 378.825592,50.5664139 378.825592,51.5601158 375.844696,51.5601158 375.844696,54.5409164
			378.825592,54.5409164 378.825592,66.4643173 375.844696,66.4643173 375.844696,69.4451141 378.825592,69.4451141
			378.825592,81.368515 375.844696,81.368515 375.844696,84.3494186 378.825592,84.3494186 378.825592,97.2664185
			375.844696,97.2664185 375.844696,100.2472153 378.825592,100.2472153 		"/>
		<rect x="375.844696" y="112.1706161" fill="#565440" width="6.9552917" height="2.9807968"/>
		<polygon fill="#565440" points="398.6979065,39.6367149 400.6850891,39.6367149 400.6850891,42.6175156 407.6404114,42.6175156
			407.6404114,39.6367149 418.5701904,39.6367149 418.5701904,80.3749161 419.5638123,80.3749161 419.5638123,77.3941116
			421.5509949,77.3941116 421.5509949,76.4004135 419.5638123,76.4004135 419.5638123,39.6367149 432.0692139,39.6367149
			432.4808044,39.7360153 434.2692871,31.985817 431.3877869,31.2903175 430.1495972,36.6558151 402.8710938,36.6558151
			398.8966064,35.0660172 397.8035889,37.848114 398.6979065,38.2058144 		"/>
		<path fill="#565440" d="M425.5255127,123.1003189v0.9935989h6.9552917v1.9871979v12.9170074H429.5h-2.980896v13.9105988h-29.8084106
			v-5.9617004h-0.9935913v5.9617004v0.9936066h12.9169922v0.9936066h0.9935913v-0.9936066h16.8913879v14.9042053h-16.8913879
			v-5.9617004h-0.9935913v5.9617004h-22.8530884v-20.8659058h1.9872131v-0.9936066h-1.9872131v-19.8722992h-6.9552917h-2.9808044
			v2.9808044h2.9808044v12.9169922h-2.9808044v2.980896h2.9808044v9.9360962h-29.8084106v-20.8659058h-2.980896v33.7828979
			v2.9808044h2.980896h29.8084106h6.9552917h40.7381897h2.980896v-2.9808044v-26.8274841h2.9808044h2.9808044v-15.8977966h4.9681091
			v-2.9807968h-7.9489136h-6.9553833V123.1003189z M349.0170898,168.8067169V156.883316h29.8084106v11.9234009H349.0170898z"/>
	</g>
	<path fill="none" stroke="#565440" d="M429.4999084,76.4004135c0-1.0930023-0.1987-1.9871979-0.5961914-2.9809036
		c-0.3973999-0.9935989-0.9935913-1.8879013-1.6890869-2.5833969c-0.6955872-0.794899-1.5898132-1.391098-2.5834045-1.7884979
		s-1.9872131-0.596199-3.0802002-0.596199v7.9488983 M418.5701904,80.3749161c-1.0929871,0-1.9872131,0.1987-2.9808044,0.596199
		s-1.8879089,0.9935989-2.5834045,1.6891022c-0.7948914,0.6955032-1.3911133,1.589798-1.7885132,2.5833969
		s-0.5961914,1.9871979-0.5961914,3.0802002h7.9489136 M432.4808044,95.2791138c-1.0929871,0-1.9872131-0.1987-2.9808044-0.596199
		c-0.9935913-0.3973999-1.8879089-0.9935989-2.5834045-1.6891022c-0.7948914-0.6955032-1.3911133-1.589798-1.7885132-2.5833969
		s-0.5961914-1.9871979-0.5961914-3.0802002h7.9489136 M396.7106018,77.3940125c0,1.0930023,0.1987,1.9871979,0.5961914,2.9807968
		s0.9935913,1.8879013,1.689209,2.5833969c0.6954956,0.794899,1.5898132,1.391098,2.5834045,1.7884979
		s1.9872131,0.596199,3.0802002,0.596199v-7.9488907 M395.7170105,146.947113c0-1.0930023-0.1987-1.9871979-0.5961914-2.9808044
		s-0.9935913-1.8878937-1.689209-2.5834045c-0.6954956-0.7949066-1.5898132-1.391098-2.5834045-1.7884979
		s-1.9872131-0.5962067-3.0802002-0.5962067v7.9488983 M408.6340027,162.8449097c-1.0929871,0-1.9872131-0.1987-2.9808044-0.5962067
		c-0.9935913-0.3973999-1.8877869-0.9936066-2.5834045-1.6891022c-0.7948914-0.6954956-1.3911133-1.589798-1.7885132-2.5834045
		c-0.3974915-0.9936066-0.5961914-1.9871979-0.5961914-3.0802002h7.9489136 M440.4296875,123.1003189
		c0-1.2917023,0.2980957-2.4840012,0.7948914-3.6763992c0.4967957-1.1922989,1.1924133-2.384697,2.1860046-3.2789001
		c0.8941956-0.8943024,1.9872131-1.6891022,3.1795959-2.185997c1.1924133-0.4968033,2.4840088-0.794899,3.7756958-0.794899
		v9.9360962 M379.8192139,101.2408142c-1.291687,0-2.4840088,0.2981033-3.6763916,0.794899
		c-1.1924133,0.4968033-2.3847046,1.1922989-3.2789001,2.185997c-0.8941956,0.8942032-1.6890869,1.9871979-2.1859131,3.1796036
		c-0.4967957,1.1922989-0.7948914,2.4840012-0.7948914,3.7757034h9.9361877"/>
</g>
<g >
	<rect x="355" y="-0.0000832" fill="none" width="10" height="10"/>
	<rect x="156.5610962" y="235.0000153" fill="none" width="10" height="10"/>
	<rect x="355" y="469.999939" fill="none" width="10" height="10"/>
	<rect x="553.4348145" y="235.0000153" fill="none" width="10" height="10"/>
</g>
<g >
	<path data-nr="5" class="plan__svg__hoverable" fill="none" d="M186.5610962,70.9354172v131.6540222h49.1838989v0.0001984v2.980896h86.9412842
		v10.4328003h0.4967957c1.2875977,0,2.6592102-0.2881927,3.9667053-0.8329926
		c1.1745911-0.4889984,2.3292847-1.2823029,3.3210144-2.2754059c0.9256897-0.8329926,1.7038879-1.9965057,2.3122864-3.4568024
		c0.5681152-1.3641968,0.8330078-2.5930939,0.8330078-3.8674927h15.401001v-2.980896v-66.572403v-0.9933929V70.9354172H186.5610962z
		 M348.0234985,71.9290161v0.0001984H187.5547028v-0.0001984H348.0234985z M331.8660889,209.0556183
		c-0.5516052,1.3235016-1.2443848,2.3666077-2.0788879,3.1186066c-0.9198914,0.9203033-1.9639893,1.6389008-3.0197144,2.0789032
		c-1.0192871,0.4244995-2.0765076,0.6777954-3.0875854,0.740799v-9.4237976h8.9425049
		C332.6224976,206.7094116,332.3822937,207.8170166,331.8660889,209.0556183z"/>
	<path data-nr="4" class="plan__svg__hoverable" fill="none" d="M331.7893982,246.3157196
		c-0.489502-1.1741028-1.2822876-2.3287964-2.2753906-3.3195038c-0.8320007-0.925705-1.9949951-1.7039032-3.4567871-2.3128052
		c-1.3646851-0.5686035-2.593689-0.8334961-3.8677063-0.8334961v-34.2794952v-0.9938049v-1.9871063h-86.444519v1.9871063v0.9938049
		v12.9169922v6.955307v13.9105988v6.955307v13.910614v0.9938965v13.9103088h6.955307h79.489212v-1.0899048v-1.8908997v-21.3624115
		h10.4330139v-0.4967957C332.6224976,248.9773102,332.3420105,247.6422119,331.7893982,246.3157196z M322.1895142,249.7866211
		v-8.9429932c1.1382141,0,2.2457886,0.2406006,3.4854126,0.756897c1.3244934,0.5520935,2.3676147,1.2454071,3.1185913,2.0789032
		c0.9198914,0.9199066,1.6388855,1.9629974,2.0788879,3.0187073c0.4244995,1.0198059,0.6777954,2.0774994,0.7408142,3.088501
		h-9.4237061V249.7866211z"/>
	<path data-nr="3" class="plan__svg__hoverable" fill="none" d="M331.7893982,313.8825378
		c-0.4890137-1.1741028-1.2822876-2.3298035-2.2753906-3.3204956c-0.832489-0.9256897-1.9959106-1.7038879-3.4567871-2.3132935
		c-1.3642883-0.5675964-2.5932007-0.8326111-3.8677063-0.8326111v-32.2928162v-1.8031006v-1.1777039h-86.444519v0.4971008v2.4837036
		v12.9169922v13.910614v6.9552917v13.910614v0.9938965v19.8720093h6.955307h79.489212v-0.6326904v-2.348114v-22.3559875h10.4330139
		v-0.4967957C332.6224976,316.5616455,332.3342896,315.1895447,331.7893982,313.8825378z M322.1895142,317.352417v-8.9425049
		c1.1391907,0,2.2467957,0.2406006,3.4854126,0.756897c1.3240051,0.5510864,2.3670959,1.243988,3.1185913,2.0783997
		c0.9202881,0.9198914,1.6388855,1.9639893,2.0788879,3.0197144c0.4244995,1.0188904,0.6777954,2.0765076,0.7408142,3.0875854
		h-9.4237061V317.352417z"/>
	<polygon data-nr="2" class="plan__svg__hoverable" fill="none" points="235.7449951,340.7020264 235.7449951,341.7949219 235.7449951,343.6829224
		235.7449951,350.6382446 235.7449951,365.5424194 235.7449951,372.4977417 235.7449951,386.4083252 235.7449951,414.2296448
		235.7449951,428.1402283 235.7449951,435.09552 235.7449951,450.0000305 320.202301,450.0000305 320.202301,449.9997253
		322.1895142,449.9997253 322.1895142,449.5029297 322.1895142,443.0444336 322.1895142,355.6063232 322.1895142,345.6701355
		322.1895142,343.6829224 322.1895142,341.7949219 322.1895142,340.7020264 	"/>
	<polygon data-nr="1" class="plan__svg__hoverable" fill="none" points="387.7680969,307.9128418 345.0426941,307.9128418 345.0426941,312.8808289
		345.0426941,340.7020264 338.0873108,340.7020264 338.0873108,343.6829224 338.0873108,356.5999451 333.1192932,356.5999451
		323.1831055,356.5999451 322.1895142,356.5999451 320.5497131,356.5999451 319.2085876,356.5999451 319.2085876,449.9997253
		320.3016968,449.9997253 320.3016968,450.0000305 394.7233887,450.0000305 394.7233887,435.09552 394.7233887,428.1402283
		394.7233887,409.2615356 394.7233887,381.4402161 394.7233887,371.5041199 394.7233887,364.5488281 394.7233887,350.6382446
		394.7233887,349.644928 394.7233887,307.9128418 	"/>
	<path data-nr="10" class="plan__svg__hoverable" fill="none" d="M528.8615112,307.5237427v-10.8529968l0.5961914-2.4699097l-0.0302734-0.0068054
		l3.9915771-15.3617859l-0.2180786-0.0566101l0.2340088-0.9695129l-2.8814697-0.6955872h-53.9890137h-27.6854858v-10.4364929h-0.5
		c-1.3046875,0-2.6395874,0.280304-3.968811,0.8330078c-1.1737976,0.4902039-2.3291016,1.2832031-3.3212891,2.2763977
		c-0.9258118,0.8330078-1.7030945,1.9960938-2.3135071,3.4580078c-0.5393066,1.2939148-0.8146057,2.5947876-0.8279114,3.8691101
		h-8.4476013h-2.5552063h-2.4129028v82.4700928h4.9681091h5.2804871l2.469696,0.5960999l0.1825867-0.8132019l15.6083069,3.6014099
		l0.0596008-0.2986145l2.0346069,0.4910889l0.803009-3.5769958h13.3063049v-1.3149109l24.8326111,5.693512l0.0505981-0.2532959
		l1.8450012,0.4453125l1.0260925-4.5705872h11.9476929l19.4402161,3.8727112l0.1669922-1.1787109l4.1719971-18.4345093
		l0.0109253,0.0024109l0.6956177-2.8815002l-4.5706787-1.0260925v-12.6095886l4.5477295-17.5038147l-0.2672729-0.069397
		l0.2902222-1.2023926L528.8615112,307.5237427z M441.7763977,270.5091248
		c0.9198914-0.9198914,1.9638977-1.6387024,3.0185852-2.0780945c1.0195007-0.4248047,2.0751953-0.6777039,3.0840149-0.7412109
		v9.4208984h-8.9313049c0.0133972-1.1419067,0.2632141-2.3128967,0.7515869-3.4844055
		C440.2510071,272.302124,440.9433899,271.2601318,441.7763977,270.5091248z"/>
	<path data-nr="9" class="plan__svg__hoverable" fill="none" d="M530.5532837,277.1107178h-1.6918945v-15.0215149l4.5477295-17.5020142
		l-0.2192993-0.0570984l0.2421875-1.0036926l-4.5706787-1.0260925v-1.8092041h0.0007935v-8.1110077l0.7949219-3.4445953
		l-0.3051147-0.0684967l4.0667725-15.6497955l-0.487915-0.1266022l0.5009766-2.0756073l-4.5706787-1.0260925v-2.6313934h-76.5083923
		v2.9808044v1.0762024v22.2727051c-1.2712097,0.0061951-2.5375061,0.2765961-3.8687134,0.8311005
		c-1.4619141,0.6094055-2.625,1.3876953-3.4403992,2.2938995c-1.0116882,1.0126953-1.8046875,2.1674957-2.2939148,3.3408051
		c-0.5448914,1.3070984-0.8330078,2.6791992-0.8330078,3.9683075v0.5h10.4360962v12.6670074v19.6221008v2.9808044h77.9164734
		l2.4697266,0.5961914l0.6956177-2.8815002L530.5532837,277.1107178z M443.6737976,240.7381134
		c0.4385071-1.0536957,1.157196-2.097702,2.0957031-3.0375977c0.7323914-0.8144989,1.7753906-1.5072937,3.0996094-2.0590973
		c1.2060852-0.5023041,2.3463135-0.7476959,3.4838867-0.7539978v8.9340973h-9.4205017
		C442.9960938,242.8118134,443.2489929,241.7552185,443.6737976,240.7381134z"/>
	<path data-nr="8" class="plan__svg__hoverable" fill="none" d="M532.9667969,148.3541107l0.4614868-1.9116974l-4.5706177-1.0260925
		l0.0037842-7.4116974h-0.0037842v-0.0034943h-6.9514771v0.0034943h-69.553009v2.530304v23.7973938h-10.4361877v0.5
		c0,1.2886047,0.2880859,2.6605988,0.8330078,3.967804c0.4902039,1.1737976,1.2832031,2.3291016,2.2753906,3.3217926
		c0.8340149,0.9263,1.9979858,1.7046051,3.4590149,2.3130035c1.2991028,0.5411072,2.5997009,0.8170013,3.8687134,0.8289032
		v24.6085968v10.6661072h76.5083923l-0.0037842-11.5063019h-0.0031738v-1.8612976l4.5546875-17.529892l-0.4862061-0.1262054
		l0.2072754-0.8591003l-4.272583-0.9591064v-9.4940948l0.7949219-3.4445953l-0.4185181-0.0939026l4.1848145-16.1923981
		L532.9667969,148.3541107z M445.7510071,171.4339142c-0.9189148-0.9199066-1.6376953-1.9638977-2.0770874-3.0186005
		c-0.4248047-1.0171051-0.6777039-2.0731964-0.7412109-3.0829926h9.4205017v8.9313965
		c-1.1365967-0.0121002-2.308197-0.2619934-3.4838867-0.7516937
		C447.5458984,172.9608154,446.5028992,172.2684174,445.7510071,171.4339142z"/>
	<polygon data-nr="7" class="plan__svg__hoverable" fill="none" points="532.9926147,114.0368118 533.1339722,113.4507141 528.8615112,112.4916153
		528.8615112,103.3237152 529.6563721,99.8791122 529.3574829,99.8120117 533.1395874,83.2640152 533.0128784,83.2386169
		533.1339722,82.737114 528.8615112,81.7780151 528.8615112,68.5540161 529.1630859,68.5540161 529.1630859,49.4300156
		532.0410156,36.6795158 507.2090149,30.8851166 507.140686,31.2261181 505.2134094,30.7935181 504.1069031,35.6622162
		495.0786133,35.6622162 476.9682007,35.6622162 476.9844055,35.5814171 457.3291016,31.0858173 457.276001,31.3513165
		457.0231018,31.2903175 455.9943848,35.6622162 455.3338928,35.6622162 452.3530884,35.6622162 452.3530884,114.0366135
		452.3530884,127.0748138 452.3530884,137.0110168 452.3530884,138.0046082 452.3530884,140.0565186 452.3530884,140.9854126
		528.8615112,140.9854126 528.8615112,138.0046082 528.8615112,132.7795105 533.1395874,114.0662155 	"/>
	<path data-nr="6" class="plan__svg__hoverable" fill="none" d="M455.181488,35.6622162h-3.7336121l-20.2489014-4.6727982l-0.4919128,2.4650993
		l0.1720886,0.0396996l-0.7296143,3.1615982h-27.2785034l-3.9744873-1.5898018l-0.0715027,0.1819992l-19.5027161-5.200798v6.6083984
		H186.5610962v36.7638054h159.9719849v61.6043091h-0.4967957v36.7637024H429.5v-29.8084106h5.9617004v-15.8977966h19.7199097
		V35.6622162H455.181488z M347.5419006,135.0237122h-0.0151978V72.9227142h0.0151978V135.0237122z"/>
</g>
</svg>
