<!-- DO NOT EDIT THIS, THIS FILE IS GENERATED FROM "1_23.original.svg" using transform-svgs.js script -->



<svg version="1.1" 
	 xmlns="http://www.w3.org/2000/svg" xmlns:xlink="http://www.w3.org/1999/xlink" x="0px" y="0px" viewBox="0 0 720 480"
	 style="enable-background:new 0 0 720 480;" xml:space="preserve">


<g>
	<polygon fill="#DBD4CA" points="508.2430115,243.7060089 503.8909912,241.8270111 503.3659973,231.1830139
		508.2120056,212.2940216 503.9899902,210.280014 503.9899902,197.1420135 507.8479919,180.9210205 503.9899902,179.7640228
		503.9899902,166.0950165 508.1380005,148.1740112 503.9899902,144.9110107 503.9899902,131.5600128 508.131012,115.0610123
		503.9899902,112.7700119 503.9899902,101.8920135 507.9460144,83.5960159 503.9899902,82.6070175 503.9899902,49.280014
		506.9570007,37.1160164 481.2449951,31.1820164 480.256012,36.1270142 452.5650024,36.1270142 433.2810059,31.6760178
		432.2919922,36.1270142 426.8529968,36.1270142 409.052002,32.1710167 406.0849915,37.1160164 381.3609924,37.1160164
		356.4400024,30.9840164 356.5390015,155.5910187 324.9909973,155.5910187 324.8919983,119.9890137 213.3390045,119.9890137
		213.3390045,447.5280457 370.4830017,447.5280457 370.4830017,326.4810181 369.6919861,323.9090271 401.1400146,323.9090271
		401.1400146,357.5340271 413.5020142,357.039032 430.8080139,360.9950256 431.7969971,357.5340271 445.0490112,356.3470154
		471.0580139,361.8850403 472.8389893,357.5340271 482.6289978,357.5340271 503.6940002,361.3910217 508.4400024,339.7330322
		503.9899902,338.7440186 503.9899902,326.382019 508.4400024,307.0980225 503.9899902,306.1080322 503.9859924,294.7360229
		508.4400024,278.1610413 504.9790039,276.440033 503.9899902,276.440033 503.9899902,262.1000366 	"/>
	<g>
		<path fill="#565440" d="M324.0020142,155.2950134h32.4370117v0.9889984h-32.4370117V155.2950134z"/>
		<path fill="#565440" d="M322.4200134,168.1510162v2.9669952h36.5910034v-2.9669952H322.4200134z"/>
		<rect x="370.4830017" y="322.4260254" fill="#565440" width="30.3609924" height="2.9670105"/>
	</g>
</g>
<g>
	<g>
		<polygon fill="#565440" points="272.0830078,202.0720215 272.0830078,201.7750092 272.0830078,196.0390167 271.0939941,196.0390167
			271.0939941,201.7750092 235.095993,201.7750092 235.095993,195.5450134 230.1519928,195.5450134 230.1519928,201.7750092
			230.1519928,204.1480103 230.1519928,204.7420197 272.0830078,204.7420197 		"/>
		<polygon fill="#565440" points="271.0939941,188.7210083 272.0830078,188.7210083 272.0830078,188.4240112 273.7640076,188.4240112
			273.7640076,187.4350128 272.0830078,187.4350128 272.0830078,143.5260162 272.8739929,143.5260162 272.8739929,138.5810089
			264.368988,138.5810089 264.368988,143.5260162 271.0939941,143.5260162 		"/>
		<polygon fill="#565440" points="212.3500061,143.9220123 212.8450012,143.9220123 212.8450012,145.306015 214.526001,145.306015
			214.526001,143.9220123 215.4160004,143.9220123 215.4160004,145.306015 217.0970001,145.306015 217.0970001,143.9220123
			218.2839966,143.9220123 218.2839966,132.3510132 217.0970001,132.3510132 217.0970001,130.8680115 215.4160004,130.8680115
			215.4160004,132.3510132 214.526001,132.3510132 214.526001,130.8680115 212.8450012,130.8680115 212.8450012,132.3510132
			212.3500061,132.3510132 212.3500061,133.3400116 210.8670044,133.3400116 210.8670044,135.0210114 212.3500061,135.0210114
			212.3500061,135.9110107 210.8670044,135.9110107 210.8670044,137.5920105 212.3500061,137.5920105 212.3500061,138.4820099
			210.8670044,138.4820099 210.8670044,140.1640167 212.3500061,140.1640167 212.3500061,141.0540161 210.8670044,141.0540161
			210.8670044,142.7350159 212.3500061,142.7350159 		"/>
		<polygon fill="#565440" points="212.3500061,185.655014 212.8450012,185.655014 212.8450012,187.0400085 214.526001,187.0400085
			214.526001,185.655014 215.4160004,185.655014 215.4160004,187.0400085 217.0970001,187.0400085 217.0970001,185.655014
			218.2839966,185.655014 218.2839966,174.085022 217.0970001,174.085022 217.0970001,172.6010132 215.4160004,172.6010132
			215.4160004,174.085022 214.526001,174.085022 214.526001,172.6010132 212.8450012,172.6010132 212.8450012,174.085022
			212.3500061,174.085022 212.3500061,175.0730133 210.8670044,175.0730133 210.8670044,176.7550201 212.3500061,176.7550201
			212.3500061,177.6450195 210.8670044,177.6450195 210.8670044,179.3260193 212.3500061,179.3260193 212.3500061,180.2160187
			210.8670044,180.2160187 210.8670044,181.8970184 212.3500061,181.8970184 212.3500061,182.7870178 210.8670044,182.7870178
			210.8670044,184.4680176 212.3500061,184.4680176 		"/>
		<polygon fill="#565440" points="212.3500061,248.0570221 212.8450012,248.0570221 212.8450012,249.5410156 214.526001,249.5410156
			214.526001,248.0570221 215.4160004,248.0570221 215.4160004,249.5410156 217.0970001,249.5410156 217.0970001,248.0570221
			218.2839966,248.0570221 218.2839966,236.4870148 217.0970001,236.4870148 217.0970001,235.0040131 215.4160004,235.0040131
			215.4160004,236.4870148 214.526001,236.4870148 214.526001,235.0040131 212.8450012,235.0040131 212.8450012,236.4870148
			212.3500061,236.4870148 212.3500061,237.4760132 210.8670044,237.4760132 210.8670044,239.1570129 212.3500061,239.1570129
			212.3500061,240.0470123 210.8670044,240.0470123 210.8670044,241.7280121 212.3500061,241.7280121 212.3500061,242.6180115
			210.8670044,242.6180115 210.8670044,244.2990112 212.3500061,244.2990112 212.3500061,245.2880096 210.8670044,245.2880096
			210.8670044,246.9700165 212.3500061,246.9700165 		"/>
		<polygon fill="#565440" points="212.8450012,279.0110168 212.8450012,280.4950256 214.526001,280.4950256 214.526001,279.0110168
			215.4160004,279.0110168 215.4160004,280.4950256 217.0970001,280.4950256 217.0970001,279.0110168 218.2839966,279.0110168
			218.2839966,267.44104 217.0970001,267.44104 217.0970001,265.9570313 215.4160004,265.9570313 215.4160004,267.44104
			214.526001,267.44104 214.526001,265.9570313 212.8450012,265.9570313 212.8450012,267.44104 212.3500061,267.44104
			212.3500061,268.4300232 210.8670044,268.4300232 210.8670044,270.1110229 212.3500061,270.1110229 212.3500061,271.1000366
			210.8670044,271.1000366 210.8670044,272.7810364 212.3500061,272.7810364 212.3500061,273.6710205 210.8670044,273.6710205
			210.8670044,275.3520203 212.3500061,275.3520203 212.3500061,276.2420349 210.8670044,276.2420349 210.8670044,277.9240417
			212.3500061,277.9240417 212.3500061,279.0110168 		"/>
		<polygon fill="#565440" points="233.2169952,125.8240128 244.7879944,125.8240128 244.7879944,124.6370163 246.2709961,124.6370163
			246.2709961,122.9560165 244.7879944,122.9560165 244.7879944,122.0660172 246.2709961,122.0660172 246.2709961,120.3850174
			244.7879944,120.3850174 244.7879944,119.8900146 243.798996,119.8900146 243.798996,118.4070129 242.1179962,118.4070129
			242.1179962,119.8900146 241.2279968,119.8900146 241.2279968,118.4070129 239.5460052,118.4070129 239.5460052,119.8900146
			238.6560059,119.8900146 238.6560059,118.4070129 236.9750061,118.4070129 236.9750061,119.8900146 235.9859924,119.8900146
			235.9859924,118.4070129 234.3049927,118.4070129 234.3049927,119.8900146 233.2169952,119.8900146 233.2169952,120.3850174
			231.7339935,120.3850174 231.7339935,122.0660172 233.2169952,122.0660172 233.2169952,122.9560165 231.7339935,122.9560165
			231.7339935,124.6370163 233.2169952,124.6370163 		"/>
		<polygon fill="#565440" points="274.7529907,125.8240128 286.3240051,125.8240128 286.3240051,124.6370163 287.8070068,124.6370163
			287.8070068,122.9560165 286.3240051,122.9560165 286.3240051,122.0660172 287.8070068,122.0660172 287.8070068,120.3850174
			286.3240051,120.3850174 286.3240051,119.8900146 285.3349915,119.8900146 285.3349915,118.4070129 283.6530151,118.4070129
			283.6530151,119.8900146 282.7630005,119.8900146 282.7630005,118.4070129 281.0820007,118.4070129 281.0820007,119.8900146
			280.1919861,119.8900146 280.1919861,118.4070129 278.5109863,118.4070129 278.5109863,119.8900146 277.6210022,119.8900146
			277.6210022,118.4070129 275.9400024,118.4070129 275.9400024,119.8900146 274.7529907,119.8900146 274.7529907,120.3850174
			273.3680115,120.3850174 273.3680115,122.0660172 274.7529907,122.0660172 274.7529907,122.9560165 273.3680115,122.9560165
			273.3680115,124.6370163 274.7529907,124.6370163 		"/>
		<polygon fill="#565440" points="327.8590088,122.7580185 327.8590088,121.0770187 326.3760071,121.0770187 326.3760071,119.8900146
			325.980011,119.8900146 325.980011,118.506012 324.2000122,118.506012 324.2000122,119.8900146 323.3099976,119.8900146
			323.3099976,118.506012 321.6289978,118.506012 321.6289978,119.8900146 320.4419861,119.8900146 320.4419861,121.0770187
			318.9590149,121.0770187 318.9590149,122.7580185 320.4419861,122.7580185 320.4419861,123.6480179 318.9590149,123.6480179
			318.9590149,125.3290176 320.4419861,125.3290176 320.4419861,126.2200165 318.9590149,126.2200165 318.9590149,127.9010162
			320.4419861,127.9010162 320.4419861,128.8900146 318.9590149,128.8900146 318.9590149,130.5710144 320.4419861,130.5710144
			320.4419861,131.4610138 318.9590149,131.4610138 318.9590149,133.1420135 320.4419861,133.1420135 320.4419861,134.0320129
			318.9590149,134.0320129 318.9590149,135.7130127 320.4419861,135.7130127 320.4419861,136.6040192 318.9590149,136.6040192
			318.9590149,138.2850189 320.4419861,138.2850189 320.4419861,155.2940216 320.4419861,182.2930145 304.8169861,182.2930145
			304.8169861,183.2820129 320.4419861,183.2820129 320.4419861,201.7750092 291.0700073,201.7750092 291.0700073,183.2820129
			297.2019958,183.2820129 297.2019958,182.2930145 291.0700073,182.2930145 290.0820007,182.2930145 290.0820007,183.2820129
			290.0820007,187.4350128 281.0820007,187.4350128 281.0820007,188.4240112 290.0820007,188.4240112 290.0820007,201.7750092
			282.4670105,201.7750092 282.4670105,204.7420197 295.7189941,204.7420197 295.7189941,242.2230225 298.6849976,242.2230225
			298.6849976,204.7420197 325.3869934,204.7420197 325.3869934,201.7750092 325.3869934,155.2940216 326.3760071,155.2940216
			326.3760071,153.9100189 327.8590088,153.9100189 327.8590088,152.2290192 326.3760071,152.2290192 326.3760071,151.2400208
			327.8590088,151.2400208 327.8590088,149.559021 326.3760071,149.559021 326.3760071,148.6690216 327.8590088,148.6690216
			327.8590088,146.9880219 326.3760071,146.9880219 326.3760071,146.0970154 327.8590088,146.0970154 327.8590088,144.4160156
			326.3760071,144.4160156 326.3760071,143.5260162 327.8590088,143.5260162 327.8590088,141.8450165 326.3760071,141.8450165
			326.3760071,140.8560181 327.8590088,140.8560181 327.8590088,139.1750183 326.3760071,139.1750183 326.3760071,138.2850189
			327.8590088,138.2850189 327.8590088,136.6040192 326.3760071,136.6040192 326.3760071,135.7130127 327.8590088,135.7130127
			327.8590088,134.0320129 326.3760071,134.0320129 326.3760071,133.1420135 327.8590088,133.1420135 327.8590088,131.4610138
			326.3760071,131.4610138 326.3760071,130.5710144 327.8590088,130.5710144 327.8590088,128.8900146 326.3760071,128.8900146
			326.3760071,127.9010162 327.8590088,127.9010162 327.8590088,126.2200165 326.3760071,126.2200165 326.3760071,125.3290176
			327.8590088,125.3290176 327.8590088,123.6480179 326.3760071,123.6480179 326.3760071,122.7580185 		"/>
		<rect x="230.1519928" y="138.5810089" fill="#565440" width="10.1860046" height="4.9450073"/>
		<polygon fill="#565440" points="273.5660095,276.8360291 274.5549927,276.8360291 274.5549927,274.7590332 277.9179993,274.7590332
			277.9179993,271.7920227 230.1519928,271.7920227 230.1519928,274.7590332 273.5660095,274.7590332 		"/>
		<polygon fill="#565440" points="295.7189941,271.7920227 288.1040039,271.7920227 288.1040039,274.7590332 295.7189941,274.7590332
			295.7189941,284.5500183 288.1040039,284.5500183 288.1040039,285.539032 295.7189941,285.539032 295.7189941,305.6140442
			274.5549927,305.6140442 274.5549927,285.539032 280.8840027,285.539032 280.8840027,284.5500183 274.5549927,284.5500183
			274.5549927,284.2530212 273.5660095,284.2530212 273.5660095,305.6140442 212.6470032,305.6140442 212.6470032,308.5810242
			295.7189941,308.5810242 298.6849976,308.5810242 298.6849976,305.6140442 298.6849976,252.1120148 295.7189941,252.1120148 		"/>
	</g>
	<g>
		<polygon fill="none" stroke="#565440" points="325.1889954,120.1870117 214.1309967,120.1870117 213.1419983,120.1870117
			213.1419983,307.0980225 214.625,307.0980225 214.625,121.6700134 325.1889954,121.6700134 		"/>
		<rect x="239.8430023" y="139.0760193" fill="none" stroke="#565440" width="81.9829865" height="1.4830017"/>
		<rect x="230.6459961" y="141.1530151" fill="none" stroke="#565440" width="1.4830017" height="165.9450226"/>
	</g>
	<g>
		<path fill="none" stroke="#565440" d="M297.1029968,138.7790222c0-1.0879974-0.197998-1.9779968-0.5929871-2.9669952
			s-0.9890137-1.8789978-1.6809998-2.5709991c-0.6919861-0.7910004-1.5820007-1.3849945-2.5710144-1.7799988
			c-0.9890137-0.3959961-1.9779968-0.5930023-3.0660095-0.5930023v7.9120026"/>
		<path fill="none" stroke="#565440" d="M296.9049988,182.4910126c0-1.0879974,0.197998-1.9779968,0.5929871-2.9669952
			c0.3959961-0.9889984,0.9890137-1.8789978,1.6809998-2.5709991c0.6919861-0.7910004,1.5820007-1.3849945,2.5710144-1.7799988
			c0.9890137-0.3959961,1.9779968-0.5930023,3.0660095-0.5930023v7.9109955"/>
		<path fill="none" stroke="#565440" d="M281.3789978,187.6330109c0-1.0879974-0.197998-1.9779968-0.5929871-2.9669952
			c-0.3959961-0.9889984-0.9890137-1.8789978-1.6809998-2.5709991c-0.6919861-0.7910004-1.5820007-1.3849945-2.5710144-1.7799988
			c-0.9890137-0.3959961-1.9779968-0.5930023-3.0660095-0.5930023v7.9120026"/>
		<path fill="none" stroke="#565440" d="M271.6870117,196.8300171c-1.0880127,0-1.9779968-0.197998-2.9670105-0.5930023
			c-0.9890137-0.3959961-1.8789978-0.9889984-2.5710144-1.6809998c-0.7909851-0.6920013-1.3840027-1.5820007-1.7799988-2.5709991
			s-0.5929871-1.9779968-0.5929871-3.0659943h7.9119873"/>
		<path fill="none" stroke="#565440" d="M273.8630066,284.4510193c-1.0880127,0-1.9779968-0.197998-2.9670105-0.5929871
			c-0.9890137-0.3959961-1.8789978-0.9890137-2.5710144-1.6809998c-0.7909851-0.6919861-1.3840027-1.5820007-1.7799988-2.5710144
			s-0.5929871-1.9779968-0.5929871-3.0660095h7.9119873"/>
		<path fill="none" stroke="#565440" d="M230.348999,239.6520081c-1.0879974,0-1.9779968,0.197998-2.9669952,0.5930023
			c-0.9889984,0.3959961-1.8789978,0.9889984-2.5709991,1.6809998c-0.7910004,0.6920013-1.3849945,1.5820007-1.7799988,2.5709991
			c-0.3959961,0.9889984-0.5930023,1.9779968-0.5930023,3.0659943h7.9109955"/>
		<path fill="none" stroke="#565440" d="M280.6870117,284.9450378c0-1.0880127,0.197998-1.9779968,0.5929871-2.9670105
			c0.3959961-0.9890137,0.9890137-1.8789978,1.6809998-2.5710144c0.6919861-0.7909851,1.5820007-1.3840027,2.5710144-1.7799988
			s1.9779968-0.5929871,3.0660095-0.5929871v7.9119873"/>
		<path fill="none" stroke="#565440" d="M298.5859985,242.2230225c1.2860107,0,2.4719849,0.2969971,3.6589966,0.7910004
			c1.1870117,0.4949951,2.3729858,1.1869965,3.2630005,2.1759949c0.8900146,0.8899994,1.6809998,1.9779968,2.1759949,3.1649933
			s0.7909851,2.4720001,0.7909851,3.7579956h-9.8890076"/>
	</g>
</g>
<g>
	<g>
		<polygon fill="#565440" points="370.8779907,379.7850342 364.9450073,379.7850342 364.9450073,386.7070313 365.934021,386.7070313
			365.934021,404.9870605 335.0179443,404.9870605 335.0179443,386.6898804 334.0331421,386.6898804 334.0331421,387.7943115
			332.0443115,387.7943115 332.0443115,388.7791138 334.0331421,388.7791138 334.0331421,405.9718628 346.9460449,405.9718628
			346.9460449,425.473999 340.2210083,425.473999 340.2210083,430.4190063 346.9460449,430.4190063 348.6270142,430.4190063
			351.8909912,430.4190063 351.8909912,409.947998 370.8779907,409.947998 370.8779907,407.4750366 370.8779907,407.3760376
			372.3619995,407.3760376 372.3619995,405.6950073 370.8779907,405.6950073 370.8779907,405.0029907 370.8779907,404.7059937
			372.3619995,404.7059937 372.3619995,403.0250244 370.8779907,403.0250244 370.8779907,402.1350098 372.3619995,402.1350098
			372.3619995,400.4540405 370.8779907,400.4540405 370.8779907,399.5640259 372.3619995,399.5640259 372.3619995,397.8829956
			370.8779907,397.8829956 370.8779907,396.993042 372.3619995,396.993042 372.3619995,395.3110352 370.8779907,395.3110352
			370.8779907,394.4210205 372.3619995,394.4210205 372.3619995,392.7399902 370.8779907,392.7399902 370.8779907,391.7510376
			372.3619995,391.7510376 372.3619995,390.0700073 370.8779907,390.0700073 370.8779907,389.1799927 372.3619995,389.1799927
			372.3619995,387.4990234 370.8779907,387.4990234 370.8779907,386.7070313 370.8779907,386.6090088 372.3619995,386.6090088
			372.3619995,384.927002 370.8779907,384.927002 370.8779907,384.0369873 372.3619995,384.0369873 372.3619995,382.3560181
			370.8779907,382.3560181 		"/>
		<polygon fill="#565440" points="370.8779907,362.9730225 365.934021,362.9730225 365.934021,364.8364868 333.5026855,364.8364868
			333.5026855,365.8212891 334.0331421,365.8212891 334.0331421,377.9602661 335.0179443,377.9602661 335.0179443,365.8212891
			365.934021,365.8212891 365.934021,369.8950195 370.8779907,369.8950195 370.8779907,369.7969971 372.3619995,369.7969971
			372.3619995,368.1149902 370.8779907,368.1149902 370.8779907,367.2250366 372.3619995,367.2250366 372.3619995,365.5440063
			370.8779907,365.5440063 		"/>
		<polygon fill="#565440" points="273.0720215,340.0289917 230.1519775,340.0289917 230.1519775,342.9960327 260.710022,342.9960327
			273.0720215,342.9960327 275.3460083,342.9960327 275.3460083,342.007019 273.0720215,342.007019 		"/>
		<polygon fill="#565440" points="288.4000244,340.0289917 288.4000244,342.007019 282.6640015,342.007019 282.6640015,342.9960327
			288.4000244,342.9960327 297.3010254,342.9960327 301.3550415,342.9960327 301.3550415,340.0289917 298.6849976,340.0289917
			298.6849976,308.4819946 298.6849976,307.1960449 298.6849976,305.5150146 212.6470337,305.5150146 212.6470337,308.4819946
			272.0830078,308.4819946 272.0830078,313.8220215 273.0720215,313.8220215 273.0720215,308.4819946 295.7189941,308.4819946
			295.7189941,327.9639893 273.0720215,327.9639893 273.0720215,321.4370117 272.0830078,321.4370117 272.0830078,328.9530029
			273.0720215,328.9530029 295.7189941,328.9530029 295.7189941,340.0289917 		"/>
		<polygon fill="#565440" points="217.0969849,331.1290283 215.4160156,331.1290283 215.4160156,332.6119995 214.526001,332.6119995
			214.526001,331.1290283 212.8450317,331.1290283 212.8450317,332.6119995 212.3500366,332.6119995 212.3500366,333.6010132
			210.8670044,333.6010132 210.8670044,335.2820435 212.3500366,335.2820435 212.3500366,336.1719971 210.8670044,336.1719971
			210.8670044,337.8540039 212.3500366,337.8540039 212.3500366,338.7440186 210.8670044,338.7440186 210.8670044,340.4249878
			212.3500366,340.4249878 212.3500366,341.4140015 210.8670044,341.4140015 210.8670044,343.0950317 212.3500366,343.0950317
			212.3500366,344.1830444 212.8450317,344.1830444 212.8450317,345.5670166 214.526001,345.5670166 214.526001,344.1830444
			215.4160156,344.1830444 215.4160156,345.5670166 217.0969849,345.5670166 217.0969849,344.1830444 218.2839966,344.1830444
			218.2839966,332.6119995 217.0969849,332.6119995 		"/>
		<polygon fill="#565440" points="217.0969849,391.15802 215.4160156,391.15802 215.4160156,392.6409912 214.526001,392.6409912
			214.526001,391.15802 212.8450317,391.15802 212.8450317,392.6409912 212.3500366,392.6409912 212.3500366,393.6300049
			210.8670044,393.6300049 210.8670044,395.3110352 212.3500366,395.3110352 212.3500366,396.2009888 210.8670044,396.2009888
			210.8670044,397.8829956 212.3500366,397.8829956 212.3500366,398.7730103 210.8670044,398.7730103 210.8670044,400.4540405
			212.3500366,400.4540405 212.3500366,401.3439941 210.8670044,401.3439941 210.8670044,403.0250244 212.3500366,403.0250244
			212.3500366,404.2120361 212.8450317,404.2120361 212.8450317,405.5960083 214.526001,405.5960083 214.526001,404.2120361
			215.4160156,404.2120361 215.4160156,405.5960083 217.0969849,405.5960083 217.0969849,404.2120361 218.2839966,404.2120361
			218.2839966,392.6409912 217.0969849,392.6409912 		"/>
		<polygon fill="#565440" points="217.0969849,423.4960327 215.4160156,423.4960327 215.4160156,424.9800415 214.526001,424.9800415
			214.526001,423.4960327 212.8450317,423.4960327 212.8450317,424.9800415 212.3500366,424.9800415 212.3500366,425.9689941
			210.8670044,425.9689941 210.8670044,427.6500244 212.3500366,427.6500244 212.3500366,428.5400391 210.8670044,428.5400391
			210.8670044,430.2210083 212.3500366,430.2210083 212.3500366,431.210022 210.8670044,431.210022 210.8670044,432.8909912
			212.3500366,432.8909912 212.3500366,433.7810059 210.8670044,433.7810059 210.8670044,435.4620361 212.3500366,435.4620361
			212.3500366,436.5499878 212.8450317,436.5499878 212.8450317,438.0339966 214.526001,438.0339966 214.526001,436.5499878
			215.4160156,436.5499878 215.4160156,438.0339966 217.0969849,438.0339966 217.0969849,436.5499878 218.2839966,436.5499878
			218.2839966,424.9800415 217.0969849,424.9800415 		"/>
		<polygon fill="#565440" points="370.8779907,425.0790405 370.3840332,425.0790405 370.3840332,423.5950317 368.7030029,423.5950317
			368.7030029,425.0790405 367.8129883,425.0790405 367.8129883,423.5950317 366.1310425,423.5950317 366.1310425,425.0790405
			364.9450073,425.0790405 364.9450073,436.6489868 366.1310425,436.6489868 366.1310425,438.1329956 367.8129883,438.1329956
			367.8129883,436.6489868 368.7030029,436.6489868 368.7030029,438.1329956 370.3840332,438.1329956 370.3840332,436.6489868
			370.8779907,436.6489868 370.8779907,435.5610352 372.3619995,435.5610352 372.3619995,433.8800049 370.8779907,433.8800049
			370.8779907,432.9899902 372.3619995,432.9899902 372.3619995,431.309021 370.8779907,431.309021 370.8779907,430.4190063
			372.3619995,430.4190063 372.3619995,428.7380371 370.8779907,428.7380371 370.8779907,427.7490234 372.3619995,427.7490234
			372.3619995,426.0679932 370.8779907,426.0679932 		"/>
		<polygon fill="#565440" points="372.3619995,328.3599854 372.3619995,326.6790161 370.8779907,326.6790161 370.8779907,307.1960449
			321.4310303,307.1960449 321.4310303,340.0289917 311.6409912,340.0289917 311.6409912,342.9960327 318.0369263,342.9960327
			318.0369263,358.4063721 318.4356079,358.4063721 318.4356079,358.4064331 323.8388062,358.4064331 323.8388062,365.8201294
			325.8508301,365.8201294 325.8508301,364.8353271 324.8236084,364.8353271 324.8236084,357.4262695 324.822998,357.4262695
			324.822998,357.4216309 319.0217285,357.4216309 319.0217285,342.9960327 324.3980103,342.9960327 324.3980103,330.104248
			327.7214355,330.104248 327.7214355,329.1194458 324.3980103,329.1194458 324.3980103,312.1409912 348.7573853,312.1409912
			348.7573853,329.1189575 335.0732422,329.1189575 335.0732422,330.1037598 354.9113159,330.1037598 354.9113159,329.1189575
			349.7421265,329.1189575 349.7421265,312.1409912 365.934021,312.1409912 365.934021,329.1190796 362.4268188,329.1190796
			362.4268188,330.1038818 365.934021,330.1038818 365.934021,349.1279907 372.3619995,349.1279907 372.3619995,347.4460449
			370.8779907,347.4460449 370.8779907,346.5560303 372.3619995,346.5560303 372.3619995,344.875 370.8779907,344.875
			370.8779907,343.9849854 372.3619995,343.9849854 372.3619995,342.3040161 370.8779907,342.3040161 370.8779907,341.3150024
			372.3619995,341.3150024 372.3619995,339.6340332 370.8779907,339.6340332 370.8779907,338.7440186 372.3619995,338.7440186
			372.3619995,337.0629883 370.8779907,337.0629883 370.8779907,336.1719971 372.3619995,336.1719971 372.3619995,334.4910278
			370.8779907,334.4910278 370.8779907,333.6010132 372.3619995,333.6010132 372.3619995,331.9200439 370.8779907,331.9200439
			370.8779907,330.9310303 372.3619995,330.9310303 372.3619995,329.25 370.8779907,329.25 370.8779907,328.3599854 		"/>
		<polygon fill="#565440" points="243.9970093,442.4840088 232.4260254,442.4840088 232.4260254,443.7700195 230.9429932,443.7700195
			230.9429932,445.4509888 232.4260254,445.4509888 232.4260254,446.3410034 230.9429932,446.3410034 230.9429932,448.0220337
			232.4260254,448.0220337 232.4260254,448.4180298 233.414978,448.4180298 233.414978,450 235.0960083,450
			235.0960083,448.4180298 235.9860229,448.4180298 235.9860229,450 237.6669922,450 237.6669922,448.4180298
			238.5570068,448.4180298 238.5570068,450 240.2390137,450 240.2390137,448.4180298 241.1290283,448.4180298 241.1290283,450
			242.9089966,450 242.9089966,448.4180298 243.9970093,448.4180298 243.9970093,448.0220337 245.3809814,448.0220337
			245.3809814,446.3410034 243.9970093,446.3410034 243.9970093,445.4509888 245.3809814,445.4509888 245.3809814,443.7700195
			243.9970093,443.7700195 		"/>
		<polygon fill="#565440" points="298.8829956,442.4840088 287.3129883,442.4840088 287.3129883,443.7700195 285.8290405,443.7700195
			285.8290405,445.4509888 287.3129883,445.4509888 287.3129883,446.3410034 285.8290405,446.3410034 285.8290405,448.0220337
			287.3129883,448.0220337 287.3129883,448.4180298 288.302002,448.4180298 288.302002,450 289.9830322,450
			289.9830322,448.4180298 290.8729858,448.4180298 290.8729858,450 292.5540161,450 292.5540161,448.4180298
			293.4440308,448.4180298 293.4440308,450 295.125,450 295.125,448.4180298 296.0150146,448.4180298 296.0150146,450
			297.6960449,450 297.6960449,448.4180298 298.8829956,448.4180298 298.8829956,448.0220337 300.2680054,448.0220337
			300.2680054,446.3410034 298.8829956,446.3410034 298.8829956,445.4509888 300.2680054,445.4509888 300.2680054,443.7700195
			298.8829956,443.7700195 		"/>
		<polygon fill="#565440" points="348.7260132,442.4840088 337.1550293,442.4840088 337.1550293,443.7700195 335.6719971,443.7700195
			335.6719971,445.4509888 337.1550293,445.4509888 337.1550293,446.3410034 335.6719971,446.3410034 335.6719971,448.0220337
			337.1550293,448.0220337 337.1550293,448.4180298 338.0450439,448.4180298 338.0450439,450 339.8259888,450
			339.8259888,448.4180298 340.7160034,448.4180298 340.7160034,450 342.3970337,450 342.3970337,448.4180298
			343.2869873,448.4180298 343.2869873,450 344.9680176,450 344.9680176,448.4180298 345.8580322,448.4180298 345.8580322,450
			347.5390015,450 347.5390015,448.4180298 348.7260132,448.4180298 348.7260132,448.0220337 350.1110229,448.0220337
			350.1110229,446.3410034 348.7260132,446.3410034 348.7260132,445.4509888 350.1110229,445.4509888 350.1110229,443.7700195
			348.7260132,443.7700195 		"/>
		<polygon fill="#565440" points="317.9292603,378.0050049 296.7070313,378.0050049 296.3120117,378.0050049 293.7410278,378.0050049
			293.7410278,378.9898071 293.7410278,404.9870605 293.7410278,405.9718628 293.7410278,430.4190063 296.7070313,430.4190063
			296.7070313,405.9718628 317.9293213,405.9718628 317.9292603,397.7694702 316.944458,397.7694702 316.944458,404.9870605
			296.7070313,404.9870605 296.7070313,378.9940186 296.7070313,378.9898071 316.944458,378.9898071 316.944458,389.8908691
			317.9292603,389.8908691 317.9292603,388.7790527 324.5460205,388.7790527 324.5460205,387.7942505 317.9292603,387.7942505 		"/>
	</g>
	<g>
		<polygon fill="none" stroke="#565440" points="368.901001,348.6330261 368.901001,446.0440369 336.3640137,446.0440369 297.3009949,446.0440369
			214.625,446.0440369 214.625,307.493042 213.1419983,307.493042 213.1419983,447.5280457 297.3009949,447.5280457
			336.3640137,447.5280457 370.3840027,447.5280457 370.3840027,348.6330261 		"/>
		<polygon fill="none" stroke="#565440" points="232.0310059,428.44104 232.0310059,306.9990234 230.5469971,306.9990234 230.5469971,429.9240417
			231.1410065,429.9240417 232.0310059,429.9240417 346.7479858,429.9240417 346.7479858,428.44104 		"/>
	</g>
	<g>
		<path fill="none" stroke="#565440" d="M275.3460083,342.1060181c0-1.0880127,0.197998-1.9779968,0.5929871-2.9670105
			c0.3959961-0.9890137,0.9890137-1.8789978,1.6809998-2.5710144c0.6919861-0.7909851,1.5820007-1.3840027,2.5710144-1.7799988
			s1.9779968-0.5929871,3.0660095-0.5929871v7.9119873"/>
		<path fill="none" stroke="#565440" d="M272.2799988,321.7340393c-0.9890137,0-1.9779968-0.197998-2.9670105-0.5929871
			s-1.8789978-0.9890137-2.5710144-1.7799988c-0.6919861-0.6919861-1.3840027-1.5820007-1.7799988-2.5710144
			s-0.5929871-1.9779968-0.5929871-2.9670105h7.9119873"/>
		<path fill="none" stroke="#565440" d="M317.4750061,430.0230408c0,1.0880127-0.197998,1.9779968-0.5929871,2.9670105
			s-0.9890137,1.8789978-1.6809998,2.5710144c-0.6919861,0.7909851-1.5820007,1.3840027-2.5710144,1.7799988
			s-1.9779968,0.5929871-3.0660095,0.5929871v-7.9119873"/>
		<path fill="none" stroke="#565440" d="M275.4450073,430.0230408c0,1.0880127,0.197998,1.9779968,0.5929871,2.9670105
			s0.9890137,1.8789978,1.6809998,2.5710144c0.6919861,0.7909851,1.5820007,1.3840027,2.5710144,1.7799988
			s1.9779968,0.5929871,3.0660095,0.5929871v-7.9119873"/>
		<path fill="none" stroke="#565440" d="M300.9599915,340.5240173c0-1.4830017,0.2969971-2.7690125,0.7909851-4.1539917
			c0.5929871-1.3840027,1.3840027-2.6700134,2.3729858-3.5599976c0.9890137-1.0880127,2.1759949-1.9779968,3.5599976-2.4719849
			c1.3840027-0.5929871,2.7690125-0.7909851,4.2529907-0.7909851v10.9769897"/>
		<path fill="none" stroke="#565440" d="M317.9292908,389.8908386c1.083313,0,1.969635,0.1969299,2.9544983,0.5909119
			c0.9848022,0.3939514,1.8710938,0.9847717,2.5605469,1.6742554c0.7878418,0.6893311,1.3787842,1.5757141,1.7726746,2.5605164
			s0.5909119,1.969635,0.5909119,3.052948h-7.87854 M335.0179749,386.8733826c1.0547791,0,1.9177246-0.2278748,2.8766479-0.6837463
			c0.9588623-0.45578,1.8217773-1.1395264,2.4930725-1.9371643c0.7670898-0.7976685,1.3424683-1.8233337,1.7259521-2.9628601
			c0.3835144-1.1395264,0.5753479-2.2790833,0.5753479-3.5325928h-7.670929 M333.6196289,364.8364563
			c0-0.9076538-0.196106-1.6502686-0.5884094-2.4754944c-0.3922119-0.8251343-0.9806213-1.5677185-1.6670227-2.1453857
			c-0.6864319-0.6601257-1.5690613-1.1552734-2.5496826-1.4852905s-1.9612732-0.4951172-3.039978-0.4951172v6.6012268
			 M324.3205566,388.7790527c0,0.9076538,0.196106,1.6502686,0.5884094,2.4754944
			c0.3922119,0.8251343,0.9806213,1.5677185,1.6670227,2.1453857c0.6864319,0.6601257,1.5690613,1.1552734,2.5496826,1.4852905
			s1.9612732,0.4951172,3.039978,0.4951172v-6.6012268 M354.7077942,330.1037903c0,1.083313,0.1969299,1.969635,0.5909119,2.9544067
			c0.3939514,0.9848022,0.9848022,1.8710938,1.6742554,2.5605469c0.6893311,0.7878418,1.5757446,1.3787842,2.5605164,1.7726746
			c0.9848022,0.3939819,1.969635,0.5909119,3.052948,0.5909119v-7.87854 M335.344696,330.1037903
			c0,1.083313-0.1969299,1.969635-0.5909119,2.9544067c-0.3939514,0.9848022-0.9847717,1.8710938-1.6742554,2.5605469
			c-0.6893311,0.7878418-1.5757141,1.3787842-2.5605164,1.7726746c-0.9848022,0.3939819-1.969635,0.5909119-3.0529175,0.5909119
			v-7.87854"/>
	</g>
</g>
<g>
	<g>
		<path fill="none" stroke="#565440" d="M413.4030151,355.7540283l15.428009,3.5599976l-0.2969971,1.4830017l-15.428009-3.5599976
			L413.4030151,355.7540283z"/>
		<path fill="none" stroke="#565440" d="M444.6539917,354.5670166l25.019989,5.7359924l-0.2969971,1.4830017l-25.019989-5.7359924
			L444.6539917,354.5670166z"/>
		<polygon fill="none" stroke="#565440" points="507.8469849,341.7110291 506.3640137,341.414032 502.3089905,359.5120239 478.4750061,354.7650452
			478.2780151,356.2480164 503.4960022,361.2920227 503.5950012,360.5990295 		"/>
		<line fill="none" stroke="#565440" x1="470.3659973" y1="358.7200317" x2="444.3569946" y2="352.8860168"/>
		<line fill="none" stroke="#565440" x1="429.5230103" y1="357.7310181" x2="413.9960022" y2="354.2700195"/>
		<polyline fill="none" stroke="#565440" points="484.3099976,354.2700195 501.0230103,357.5340271 504.7810059,341.315033 		"/>

			<rect x="496.4555054" y="251.558136" transform="matrix(0.2514896 -0.96786 0.96786 0.2514896 134.077713 677.9663086)" fill="none" stroke="#565440" stroke-width="1.0000414" stroke-miterlimit="4.0005655" width="17.8097572" height="1.481064"/>

			<rect x="496.4630432" y="316.4873047" transform="matrix(0.2514896 -0.96786 0.96786 0.2514896 71.2409821 726.5737305)" fill="none" stroke="#565440" stroke-width="1.0000414" stroke-miterlimit="4.0005655" width="17.8097267" height="1.4810487"/>

			<rect x="494.9455261" y="316.0022888" transform="matrix(0.2514896 -0.96786 0.96786 0.2514896 70.4862061 724.8087158)" fill="none" stroke="#565440" stroke-width="1.0000414" stroke-miterlimit="4.0005655" width="17.8077126" height="1.662056"/>

			<rect x="495.912384" y="284.3833008" transform="matrix(0.2514896 -0.96786 0.96786 0.2514896 101.219429 701.3103027)" fill="none" stroke="#565440" stroke-width="1.0000414" stroke-miterlimit="4.0005655" width="16.2226543" height="1.662056"/>

			<rect x="494.9293213" y="251.0762024" transform="matrix(0.2514896 -0.96786 0.96786 0.2514896 133.311554 676.192749)" fill="none" stroke="#565440" stroke-width="1.0000414" stroke-miterlimit="4.0005655" width="17.8027382" height="1.6620712"/>

			<rect x="497.4586487" y="284.8773804" transform="matrix(0.2514896 -0.96786 0.96786 0.2514896 101.9880981 703.1113892)" fill="none" stroke="#565440" stroke-width="1.0000414" stroke-miterlimit="4.0005655" width="16.2276897" height="1.4810487"/>
	</g>
	<g>
		<polygon fill="#565440" points="405.4909973,353.0830383 405.4909973,278.9130249 411.3259888,278.9130249 411.3259888,275.9460449
			400.5469971,275.9460449 400.5469971,358.0280457 410.7470093,358.0280457 413.2049866,358.6220398 414.2929993,353.7760315
			411.4249878,353.0830383 		"/>
		<polygon fill="#565440" points="429.2260132,356.0500183 428.1380005,360.8960266 431.006012,361.5880432 431.8280029,357.9290161
			445.0490112,357.9290161 445.0490112,351.9960327 429.2260132,351.9960327 		"/>
		<polygon fill="#565440" points="469.7730103,357.9200439 468.8829956,361.8850403 471.7510071,362.5770264 472.7940063,357.9290161
			484.6069946,357.9290161 484.6069946,351.9960327 469.7730103,351.9960327 		"/>
		<polygon fill="#565440" points="454.9389954,315.5040283 454.9389954,354.3690186 454.3450012,357.039032 455.3340149,357.23703
			455.928009,354.5670166 455.928009,316.4920349 456.9169922,316.4920349 456.9169922,315.5040283 455.928009,315.5040283 		"/>
		<polygon fill="#565440" points="504.5840149,317.0860291 504.7810059,316.0970154 502.4079895,315.5040283 467.9930115,315.5040283
			467.9930115,309.0750427 467.0039978,309.0750427 467.0039978,315.5040283 464.8280029,315.5040283 464.8280029,316.4920349
			502.2099915,316.4920349 		"/>
		<polygon fill="#565440" points="451.2799988,263.0890198 450.2909851,263.0890198 450.2909851,277.9240417 431.20401,277.9240417
			431.20401,275.9460449 431.20401,245.585022 450.2909851,245.585022 450.2909851,255.178009 451.2799988,255.178009
			451.2799988,245.585022 508.4400024,245.585022 508.4400024,242.6180115 428.2369995,242.6180115 428.2369995,275.9460449
			421.0180054,275.9460449 421.0180054,278.9130249 422.9960022,278.9130249 422.9960022,289.9890442 423.9849854,289.9890442
			423.9849854,278.9130249 431.20401,278.9130249 435.3580017,278.9130249 435.3580017,303.6360168 423.9849854,303.6360168
			423.9849854,297.9000244 422.9960022,297.9000244 422.9960022,303.6360168 422.9960022,304.6250305 423.9849854,304.6250305
			455.3340149,304.6250305 455.82901,304.6250305 456.322998,304.6250305 456.322998,297.5050354 455.3340149,297.5050354
			455.3340149,303.6360168 436.3460083,303.6360168 436.3460083,278.9130249 455.3340149,278.9130249 455.3340149,289.5930176
			456.322998,289.5930176 456.322998,278.9130249 458.4410095,278.9130249 458.4410095,277.9240417 451.2799988,277.9240417 		"/>
		<polygon fill="#565440" points="504.3630066,324.7260437 498.4289856,324.7260437 498.4289856,341.3750305 503.8150024,341.3750305
			508.2200012,342.3640442 508.9119873,339.4960327 504.3630066,338.4740295 		"/>
		<polygon fill="#565440" points="504.3630066,295.414032 504.9559937,292.9550171 500.1109924,291.8670349 499.4410095,294.7350159
			499.4179993,294.7350159 499.4179993,309.1160278 503.8150024,309.1160278 508.2200012,310.1050415 508.9119873,307.23703
			504.3630066,306.2160339 		"/>
		<polygon fill="#565440" points="506.0509949,275.9440308 504.3869934,275.9440308 504.3869934,260.1240234 504.3630066,260.1240234
			504.3630066,260.1220398 498.4379883,260.1220398 498.4379883,275.9460449 467.0209961,275.9460449 467.0209961,277.9240417
			466.3110046,277.9240417 466.3110046,278.9130249 467.0039978,278.9130249 467.0039978,300.769043 467.9930115,300.769043
			467.9930115,278.9130249 505.7680054,278.9110413 508.2229919,279.5060425 508.2229919,279.5040283 508.2260132,279.5050354
			508.9190063,276.6370239 		"/>
	</g>
	<path fill="none" stroke="#565440" d="M464.8280029,316.4920349c0,1.0880127-0.197998,1.9779968-0.5929871,2.9670105
		s-0.9890137,1.8789978-1.6809998,2.5710144c-0.6919861,0.7909851-1.5820007,1.3840027-2.5710144,1.7799988
		s-1.9779968,0.5929871-3.0660095,0.5929871v-7.9110107 M455.730011,297.5050354
		c-1.0880127,0-1.9779968-0.197998-2.9670105-0.5929871s-1.8789978-0.9890137-2.5710144-1.6809998
		c-0.7909851-0.6919861-1.3840027-1.5820007-1.7799988-2.5710144s-0.5929871-1.9779968-0.5929871-3.0660095h7.9110107
		 M450.3890076,263.0890198c-1.0880127,0-1.9779968-0.197998-2.9670105-0.5929871
		c-0.9890137-0.3959961-1.8789978-0.9890137-2.5710144-1.6809998c-0.7909851-0.6919861-1.3840027-1.5820007-1.7799988-2.5710144
		s-0.5929871-1.9779968-0.5929871-3.0660095h7.9119873 M466.3110046,278.0220337
		c0-1.0880127-0.197998-1.9779968-0.5929871-2.9670105c-0.3959961-0.9890137-0.9890137-1.8789978-1.6809998-2.5710144
		c-0.6919861-0.7909851-1.5820007-1.3840027-2.5710144-1.7799988s-1.9779968-0.5929871-3.0660095-0.5929871v7.9119873
		 M422.9960022,289.9890442c-1.0880127,0-1.9779968,0.197998-2.9670105,0.5929871s-1.8789978,0.9890137-2.5710144,1.6809998
		c-0.7909851,0.6919861-1.3840027,1.5820007-1.7799988,2.5710144s-0.5929871,1.9779968-0.5929871,3.0660095h7.9119873
		 M467.9930115,300.7680359c1.1870117,0,2.1759949,0.197998,3.2630005,0.5929871s1.9779968,1.0880127,2.6700134,1.7799988
		c0.7909851,0.6919861,1.4830017,1.6809998,1.8789978,2.6700134s0.5929871,2.0769958,0.5929871,3.2630005h-8.4060059
		 M421.0180054,275.9460449c0-1.2860107-0.2969971-2.4719849-0.7909851-3.6589966
		c-0.4949951-1.1870117-1.1870117-2.3739929-2.1759949-3.2630005c-0.8900146-0.8900146-1.9779968-1.6809998-3.1650085-2.1759949
		s-2.4719849-0.7909851-3.7579956-0.7909851v9.8890076"/>
</g>
<g>
	<path fill="none" stroke="#565440" d="M428.2600098,225.0150146c-1.3309937,0-2.5220032,0.2100067-3.7130127,0.701004
		s-2.3120117,1.1909943-3.1530151,2.102005c-0.9809875,0.8410034-1.6809998,1.9620056-2.1719971,3.1529999
		c-0.4899902,1.1909943-0.7009888,2.4519958-0.7009888,3.7830048h9.7390137 M488.8590088,206.8190155
		c0-1.0879974,0.197998-2.0769958,0.5929871-3.0659943s0.9890137-1.9779968,1.6809998-2.6699982
		c0.6919861-0.7910004,1.5820007-1.3849945,2.6700134-1.8789978c0.9890137-0.3959961,2.0769958-0.5930023,3.1650085-0.5930023
		v8.1089935 M439.7090149,223.0370178c0-1.0879974-0.197998-1.9779968-0.5929871-2.9669952
		c-0.3959961-0.9889984-0.9890137-1.8789978-1.6809998-2.5709991c-0.6919861-0.7910004-1.5820007-1.3849945-2.5710144-1.7799988
		c-0.9890137-0.3959961-1.9779968-0.5930023-3.0660095-0.5930023v7.8130035 M451.0820007,192.1820221
		c-0.9890137,0-1.9779968-0.197998-2.8680115-0.5930023c-0.8900146-0.3959961-1.8789978-0.8899994-2.5710144-1.6809998
		c-0.6919861-0.6920013-1.2860107-1.5820007-1.6809998-2.4720001c-0.3959961-0.8899994-0.5929871-1.9779968-0.5929871-2.9669952
		h7.8129883"/>
	<g>
		<polygon fill="#565440" points="503.3739929,212.1400146 508.2200012,213.2280121 508.9119873,210.3600159 504.3630066,209.3380127
			504.3590088,198.2340088 504.3559875,198.2340088 504.3559875,195.8370209 498.4440002,195.8370209 498.4400024,206.7160187
			496.9689941,206.7200165 496.9689941,209.6860199 498.4389954,209.6880188 498.4379883,212.1400146 		"/>
		<polygon fill="#565440" points="504.3580017,176.9950104 504.3580017,172.0030212 499.4400024,172.0030212 499.4400024,172.0080109
			428.2369995,172.0080109 428.2369995,225.1140137 431.20401,225.1140137 431.20401,223.8280182 432.0939941,223.8280182
			432.0939941,222.8390198 431.20401,222.8390198 431.20401,209.6860199 450.9830017,209.6860199 450.9830017,222.8390198
			439.2139893,222.8390198 439.2139893,223.8280182 450.9830017,223.8280182 450.9830017,228.3780212 451.9719849,228.3780212
			451.9719849,209.6860199 488.8590088,209.6860199 488.8590088,206.7200165 451.9719849,206.7200165 451.9719849,191.8850098
			450.9830017,191.8850098 450.9830017,206.7200165 431.20401,206.7200165 431.20401,174.9750214 450.9830017,174.9750214
			450.9830017,184.7650146 451.9719849,184.7650146 451.9719849,174.9750214 499.4400024,174.9750214 499.4400024,180.0260162
			504.3580017,180.0260162 504.3580017,180.0180206 507.9190063,180.8170166 508.6109924,177.9490204 		"/>
		<polygon fill="#565440" points="509.1329956,242.7170105 504.3640137,241.7080078 504.3640137,231.5650177 505.1549988,228.1370087
			500.3349915,227.0490112 499.4450073,230.8070221 499.4450073,242.6180115 431.20401,242.6180115 431.20401,234.7280121
			428.2369995,234.7280121 428.2369995,245.585022 508.4400024,245.585022 508.4410095,245.585022 		"/>
	</g>
	<g>

			<rect x="496.1921387" y="187.1549072" transform="matrix(0.2517013 -0.967805 0.967805 0.2517013 196.2610626 629.6231689)" fill="none" stroke="#565440" stroke-width="0.9999949" stroke-miterlimit="4.0001793" width="18.1939068" height="1.4809953"/>

			<rect x="497.4506836" y="219.7690277" transform="matrix(0.2514896 -0.96786 0.96786 0.2514896 164.9979095 654.3693848)" fill="none" stroke="#565440" stroke-width="1.0000414" stroke-miterlimit="4.0005655" width="16.2276592" height="1.481064"/>

			<rect x="495.9294434" y="219.2834778" transform="matrix(0.2514896 -0.96786 0.96786 0.2514896 164.2389679 652.5979004)" fill="none" stroke="#565440" stroke-width="1.0000414" stroke-miterlimit="4.0005655" width="16.2206707" height="1.6620712"/>

			<rect x="494.6682129" y="186.6687012" transform="matrix(0.2517013 -0.967805 0.967805 0.2517013 195.5025482 627.850769)" fill="none" stroke="#565440" stroke-width="0.9999949" stroke-miterlimit="4.0001793" width="18.1909161" height="1.6619941"/>
	</g>
</g>
<g>
	<g>
		<polygon fill="none" stroke="#565440" points="506.9570007,37.0170135 483.2219849,31.4790173 482.9259949,32.9620171 505.276001,38.1050148
			502.7049866,49.280014 502.7049866,67.8720169 504.1879883,67.8720169 504.1879883,49.280014 		"/>
		<polygon fill="none" stroke="#565440" points="433.5769958,31.6760178 452.1700134,35.9290161 451.8729858,37.412014 433.2810059,33.1600151 		"/>
		<line fill="none" stroke="#565440" x1="432.6870117" y1="34.7420158" x2="449.2030029" y2="38.5990143"/>
		<polyline fill="none" stroke="#565440" points="501.0230103,68.3620148 501.0230103,49.181015 503.2980042,39.4890137 482.1419983,34.445015 		"/>
		<polygon fill="none" stroke="#565440" points="504.0429993,164.7140198 502.6090088,164.3410187 506.8590088,147.8950195 508.2929993,148.2680206
					"/>
		<path fill="none" stroke="#565440" d="M506.9339905,37.0160141l-23.7350159-5.5379982l-0.2969971,1.4829979
			l22.3500061,5.1430016l-2.5710144,11.1749992v18.5920029h1.4830017V49.2790146L506.9339905,37.0160141z M433.5549927,31.6760178
			l18.5920105,4.2529984l-0.2969971,1.4830017l-18.5920105-4.2519989L433.5549927,31.6760178z M503.9349976,132.2940216
			l-1.4339905-0.3730011l4.3580017-16.8600006l1.4339905,0.3730011L503.9349976,132.2940216z M502.4620056,131.90802
			l-1.6080017-0.4179993l4.3800049-16.8560028l1.6080017,0.4179993L502.4620056,131.90802z M503.9349976,100.582016
			l-1.4339905-0.3730011l4.3580017-16.8600006l1.4339905,0.3730011L503.9349976,100.582016z M502.4620056,100.1970139
			l-1.6080017-0.4179993l4.3800049-16.8560028l1.6080017,0.4179993L502.4620056,100.1970139z"/>

			<rect x="495.4273376" y="155.0024567" transform="matrix(0.2514896 -0.96786 0.96786 0.2514896 226.3659821 604.3690796)" fill="none" stroke="#565440" stroke-width="1.0000414" stroke-miterlimit="4.0005655" width="16.9897156" height="1.6620712"/>
	</g>
	<g>
		<polygon fill="#565440" points="431.20401,119.594017 441.0929871,119.594017 441.0929871,118.6050186 431.20401,118.6050186
			431.20401,100.9030151 450.9830017,100.9030151 450.9830017,118.6050186 449.0050049,118.6050186 449.0050049,119.594017
			450.9830017,119.594017 451.9719849,119.594017 451.9719849,118.6050186 451.9719849,82.1130142 450.9830017,82.1130142
			450.9830017,99.9140167 431.20401,99.9140167 431.20401,73.2120132 450.9830017,73.2120132 450.9830017,74.2010117
			451.9719849,74.2010117 451.9719849,73.2120132 452.9609985,73.2120132 452.9609985,72.2230148 431.20401,72.2230148
			431.20401,38.5990143 434.17099,38.5990143 435.7529907,31.8740177 432.8850098,31.1820164 431.8380127,35.6320152
			431.20401,35.6320152 428.2369995,35.6320152 428.2369995,126.6150131 431.20401,126.6150131 		"/>
		<polygon fill="#565440" points="469.7730103,72.2230148 460.8720093,72.2230148 460.8720093,73.2120132 469.7730103,73.2120132
			469.7730103,74.2010117 470.7619934,74.2010117 470.7619934,40.5770149 483.6180115,40.5770149 483.6180115,40.5550156
			483.7170105,40.5770149 485.6950073,31.8740177 480.848999,30.7860165 479.7479858,35.6320152 470.7619934,35.6320152
			449.0050049,35.6320152 449.0050049,38.5990143 469.7730103,38.5990143 		"/>
		<polygon fill="#565440" points="505.1539917,99.5470123 500.3340149,98.4590149 499.4440002,102.2170181 499.4440002,115.132019
			504.3630066,115.132019 504.3630066,115.1240158 507.9230042,115.9230118 508.6159973,113.0550156 504.3630066,112.1000137
			504.3630066,102.9750137 		"/>
		<polygon fill="#565440" points="470.7390137,82.1130142 469.75,82.1130142 469.75,83.5730133 462.8269958,83.5730133
			462.8269958,84.5620117 504.3630066,84.5540161 507.9230042,85.3530121 508.6159973,82.4850159 504.3630066,81.5310135
			504.3630066,66.8880157 498.447998,66.8880157 498.447998,83.5730133 470.7390137,83.5730133 		"/>
		<polygon fill="#565440" points="503.8059998,147.7700195 508.2130127,148.7600098 508.2130127,148.7590179 508.2160034,148.7590179
			508.9079895,145.8910217 504.3590088,144.8700104 504.3599854,143.9270172 504.3599854,143.9270172 504.3599854,143.7080078
			504.3609924,140.460022 504.3630066,140.460022 504.3630066,131.0940094 498.4379883,131.0940094 498.4379883,137.4930115
			498.4379883,137.4930115 498.4379883,137.4930115 496.9689941,137.4930115 496.9689941,140.460022 498.4379883,140.460022
			498.4379883,140.4630127 498.4379883,140.4630127 498.4379883,147.7700195 		"/>
		<polygon fill="#565440" points="504.3580017,167.710022 505.1499939,164.2820129 500.32901,163.1940155 499.4400024,166.9520111
			499.4400024,171.9090118 451.9719849,171.9090118 451.9719849,162.6130219 450.9830017,162.6130219 450.9830017,171.9090118
			431.20401,171.9090118 431.20401,145.9000092 450.9830017,145.9000092 450.9830017,155.5910187 451.9719849,155.5910187
			451.9719849,140.460022 489.0570068,140.460022 489.0570068,137.4940186 447.1260071,137.4940186 447.1260071,140.460022
			450.9830017,140.460022 450.9830017,144.9110107 431.20401,144.9110107 431.20401,136.5050201 428.2369995,136.5050201
			428.2369995,174.8760223 504.3630066,174.8760223 		"/>
	</g>
	<path fill="none" stroke="#565440" d="M441.0419922,118.7040176c0-1.0879974,0.197998-1.9779968,0.5929871-2.9670029
		s0.9890137-1.8789978,1.6809998-2.5709991c0.6919861-0.7910004,1.5820007-1.3840027,2.5710144-1.7799988
		c0.9890137-0.3960037,1.9779968-0.5930023,3.0660095-0.5930023v7.9120026 M450.9309998,82.1130142
		c-1.0880127,0-1.9779968-0.197998-2.9670105-0.5930023c-0.9890137-0.3960037-1.8789978-0.9889984-2.5710144-1.6809998
		c-0.7909851-0.6920013-1.3840027-1.5820007-1.7799988-2.5709991s-0.5929871-1.9779968-0.5929871-3.0660019h7.9119873
		 M452.9089966,72.2230148c0-1.0879974,0.197998-1.9779968,0.5929871-2.9670029s0.9890137-1.8789978,1.6809998-2.5709991
		c0.6919861-0.7910004,1.5820007-1.3840027,2.5710144-1.7799988c0.9890137-0.3960037,1.9779968-0.5930023,3.0660095-0.5930023
		v7.9120026 M470.7099915,74.2010117c1.0880127,0,1.9779968,0.197998,2.9670105,0.5930023
		c0.9890137,0.3960037,1.8789978,0.9889984,2.5710144,1.6809998c0.7909851,0.6920013,1.3840027,1.5820007,1.7799988,2.5709991
		s0.5929871,1.9779968,0.5929871,3.0660019h-7.9119873 M431.1530151,126.6150131
		c1.2860107,0,2.4719849,0.2969971,3.6589966,0.7910004s2.3739929,1.1870041,3.2630005,2.1760025
		c0.8900146,0.8899994,1.6809998,1.9779968,2.1759949,3.1649933c0.493988,1.1869965,0.7909851,2.4720001,0.7909851,3.7579956
		h-9.8890076 M451.4259949,155.3930206c0.9890137,0,1.8789978,0.197998,2.7690125,0.5930023
		s1.7799988,0.8899994,2.4719849,1.6809998c0.6919861,0.6920013,1.2860107,1.4830017,1.6809998,2.3739929
		c0.3959961,0.8899994,0.5929871,1.8789978,0.5929871,2.8679962h-7.5159912 M489.006012,140.2630157
		c0,1.0879974,0.197998,1.9779968,0.5929871,2.9669952c0.3959961,0.9889984,0.9890137,1.8789978,1.6809998,2.5709991
		c0.6919861,0.7910004,1.5820007,1.3849945,2.5710144,1.7799988c0.9890137,0.3959961,1.9779968,0.5930023,3.0660095,0.5930023
		v-7.9109955"/>
</g>
<g>
	<g>
		<path fill="none" stroke="#565440" d="M407.5679932,31.5770168l19.2839966,4.4499989l-0.2969971,1.4830017l-19.2839966-4.5489998
			L407.5679932,31.5770168z"/>
		<path fill="none" stroke="#565440" d="M356.0440063,98.9250183h1.4830017v28.6790009h-1.4830017V98.9250183z"/>
		<polygon fill="none" stroke="#565440" points="356.0440063,30.6880169 356.0440063,59.7630157 357.5280151,59.7630157 357.5280151,32.6650162
			374.9330139,37.2150154 375.32901,35.7310143 		"/>
		<polyline fill="none" stroke="#565440" points="375.32901,38.8960152 359.2090149,34.8410149 359.2090149,128.6920166 		"/>
		<line fill="none" stroke="#565440" x1="407.7659912" y1="34.7420158" x2="425.6659851" y2="38.9950142"/>
	</g>
	<g>
		<polygon fill="#565440" points="428.8309937,35.6320152 428.2369995,35.6320152 424.2810059,35.6320152 424.2810059,41.5660172
			428.2369995,41.5660172 428.2369995,76.1790161 405.4909973,76.1790161 405.4909973,77.1680145 408.4580078,77.1680145
			408.4580078,86.0680161 409.446991,86.0680161 409.446991,77.1680145 428.2369995,77.1680145 428.2369995,102.8800125
			409.446991,102.8800125 409.446991,93.881012 408.4580078,93.881012 408.4580078,103.8690186 409.446991,103.8690186
			428.2369995,103.8690186 428.2369995,122.6590118 426.2590027,122.6590118 426.2590027,125.6260147 428.2369995,125.6260147
			431.20401,125.6260147 431.20401,35.6320152 		"/>
		<polygon fill="#565440" points="359.802002,99.9140167 360.9890137,99.9140167 395.6019897,99.9140167 395.6019897,98.9250183
			395.6019897,88.0460129 394.6130066,88.0460129 394.6130066,98.9250183 382.3500061,98.9250183 382.3500061,77.1680145
			382.3500061,77.1680145 382.3500061,76.1790161 380.3720093,76.1790161 380.3720093,77.1680145 381.3609924,77.1680145
			381.3609924,98.9250183 360.9890137,98.9250183 360.9890137,77.1680145 372.8559875,77.1680145 372.8559875,76.1790161
			360.9890137,76.1790161 360.9890137,50.4660149 355.0549927,50.4660149 355.0549927,51.4550171 352.0880127,51.4550171
			352.0880127,54.4220161 355.0549927,54.4220161 355.0549927,66.2890167 352.0880127,66.2890167 352.0880127,69.256012
			355.0549927,69.256012 355.0549927,81.1240158 352.0880127,81.1240158 352.0880127,84.0900116 355.0549927,84.0900116
			355.0549927,96.9470139 352.0880127,96.9470139 352.0880127,99.9140167 355.0549927,99.9140167 		"/>
		<rect x="352.0880127" y="111.7810135" fill="#565440" width="6.9230042" height="2.9670029"/>
		<polygon fill="#565440" points="374.8340149,39.5880165 376.8120117,39.5880165 376.8120117,41.5660172 383.7349854,41.5660172
			383.7349854,39.5880165 394.6130066,39.5880165 394.6130066,80.1350174 395.6019897,80.1350174 395.6019897,77.1680145
			397.5799866,77.1680145 397.5799866,76.1790161 395.6019897,76.1790161 395.6019897,39.5880165 408.0490112,39.5880165
			408.4580078,39.6870155 410.2380066,31.9730167 407.3699951,31.2810173 406.1380005,36.6210136 383.7349854,36.6210136
			378.9880066,36.6210136 375.0320129,35.0390167 373.9440002,37.8080139 374.8340149,38.1640167 		"/>
		<polygon fill="#565440" points="401.5360107,122.6590118 401.5360107,123.6480179 408.4580078,123.6480179 408.4580078,125.6260147
			408.4580078,138.4820099 405.4909973,138.4820099 402.5249939,138.4820099 402.5249939,152.3280182 372.8559875,152.3280182
			372.8559875,146.3940125 371.8670044,146.3940125 371.8670044,152.3280182 371.8670044,153.3170166 384.723999,153.3170166
			384.723999,154.306015 385.7120056,154.306015 385.7120056,153.3170166 402.5249939,153.3170166 402.5249939,168.1510162
			385.7120056,168.1510162 385.7120056,162.2170105 384.723999,162.2170105 384.723999,168.1510162 360.9890137,168.1510162
			360.9890137,147.3830109 363.9559937,147.3830109 363.9559937,146.3940125 360.9890137,146.3940125 360.9890137,126.6150131
			355.0549927,126.6150131 352.0880127,126.6150131 352.0880127,129.582016 355.0549927,129.582016 355.0549927,142.4380188
			352.0880127,142.4380188 352.0880127,145.405014 355.0549927,145.405014 355.0549927,171.1180115 357.0329895,171.1180115
			360.9890137,171.1180115 402.5249939,171.1180115 403.3160095,171.1180115 405.4909973,171.1180115 405.4909973,141.4490204
			408.4580078,141.4490204 411.4249878,141.4490204 411.4249878,125.6260147 416.3699951,125.6260147 416.3699951,122.6590118
			408.4580078,122.6590118 		"/>
	</g>
	<path fill="none" stroke="#565440" d="M405.4909973,76.1790161c0-1.0879974-0.197998-1.9779968-0.5929871-2.9670029
		s-0.9890137-1.8789978-1.6809998-2.5709991c-0.6919861-0.7910004-1.5820007-1.3840027-2.5710144-1.7799988
		c-0.9890137-0.3960037-1.9779968-0.5930023-3.0660095-0.5930023v7.9120026 M394.6130066,80.1350174
		c-1.0880127,0-1.9779968,0.197998-2.9670105,0.5930023c-0.9890137,0.3960037-1.8789978,0.9889984-2.5710144,1.6809998
		c-0.7909851,0.6920013-1.3840027,1.5820007-1.7799988,2.5709991s-0.5929871,1.9779968-0.5929871,3.0660019h7.9119873
		 M408.4580078,93.881012c-1.0880127,0-1.9779968-0.197998-2.9670105-0.5930023
		c-0.9890137-0.3960037-1.8789978-0.9889984-2.5710144-1.6809998c-0.7909851-0.6920013-1.3840027-1.5820007-1.7799988-2.5709991
		s-0.5929871-1.9779968-0.5929871-3.0660019h7.9119873 M372.7569885,77.1680145c0,0.9889984,0.197998,1.8789978,0.5929871,2.7689972
		s0.8900146,1.7799988,1.6809998,2.4720001c0.6919861,0.6920013,1.5820007,1.2860031,2.4719849,1.6809998
		s1.8789978,0.5930023,2.8680115,0.5930023v-7.5159988 M371.8670044,146.3940125
		c0-1.0879974-0.197998-1.9779968-0.5929871-2.9669952c-0.3959961-0.9889984-0.9890137-1.8789978-1.6809998-2.5709991
		c-0.6919861-0.7910004-1.5820007-1.3849945-2.5710144-1.7799988c-0.9890137-0.3959961-1.9779968-0.5930023-3.0660095-0.5930023
		v7.9120026 M384.723999,162.2170105c-1.0880127,0-1.9779968-0.197998-2.9670105-0.5930023
		c-0.9890137-0.3959961-1.8789978-0.9889984-2.5710144-1.6809998c-0.7909851-0.6920013-1.3840027-1.5820007-1.7799988-2.5709991
		s-0.5929871-1.9779968-0.5929871-3.0659943h7.9119873 M416.3699951,122.6590118
		c0-1.2860031,0.2969971-2.4720001,0.7909851-3.6589966s1.1870117-2.3730011,2.1759949-3.2630005
		c0.8900146-0.8899994,1.9779968-1.6809998,3.1650085-2.1760025c1.1870117-0.4940033,2.4719849-0.7910004,3.7579956-0.7910004
		v9.8889999"/>
</g>
<g >
	<rect x="355" y="0.0000168" fill="none" width="10" height="10"/>
	<rect x="180.8670044" y="235.0000153" fill="none" width="10" height="10"/>
	<rect x="355" y="470.0000305" fill="none" width="10" height="10"/>
	<rect x="529.125" y="235.0000153" fill="none" width="10" height="10"/>
</g>
<g >
	<path data-nr="2" class="plan__svg__hoverable" fill="none" d="M327.8590088,122.7580185v-1.6809998h-1.4830017v-1.1869965h-0.3959961v-1.3840027
		h-1.7799988v1.1869965h-0.8900146v-1.1869965h-1.6809998v1.1869965h-36.2940063v-1.2860031h-1.6809998v1.2860031h-0.8900146
		v-1.2860031h-1.6809998v1.2860031h-0.8900146v-1.2860031h-1.6809998v1.2860031h-0.8900146v-1.2860031h-1.6809998v1.2860031
		h-32.1409454v-1.2860031h-1.6809998v1.2860031h-0.8899994v-1.2860031h-1.6809998v1.2860031h-0.8899994v-1.2860031h-1.6809998
		v1.2860031h-0.9889984v-1.2860031h-1.6809998v1.2860031h-21.6580048v12.6579971h-0.2969971v0.9889984h-1.4830017v1.6809998
		h1.4830017v0.8899994h-1.4830017v1.6809998h1.4830017v0.8899994h-1.4830017v1.6809998h1.4830017v0.8899994h-1.4830017v1.6809998
		h1.4830017v1.1869965h0.2969971v30.1629944h-0.2969971v0.9889984h-1.4830017v1.6809998h1.4830017v0.8899994h-1.4830017v1.6809998
		h1.4830017v0.8899994h-1.4830017v1.6809998h1.4830017v0.8899994h-1.4830017v1.6809998h1.4830017v1.1869965h0.2969971v50.8320007
		h-0.2969971v0.9889984h-1.4830017v1.6809998h1.4830017v0.8899994h-1.4830017v1.6809998h1.4830017v0.8899994h-1.4830017v1.6809998
		h1.4830017v0.9889984h-1.4830017v1.6809998h1.4830017v1.0879974h0.2969971v19.3830109h-0.2969971v0.9890137h-1.4830017v1.6809998
		h1.4830017v0.9890137h-1.4830017v1.6809998h1.4830017v0.8900146h-1.4830017v1.6809998h1.4830017v0.8900146h-1.4830017v1.6809998
		h1.4830017v1.0880127h0.2969971v26.6029968l0,0v2.9670105h83.0709991h2.9670105v-1.3840027v-1.5820007v-53.007019h10.2850037
		v-0.4949951c0-1.2810059-0.2869873-2.6450043-0.8299866-3.947998c-0.4859924-1.1679993-1.2749939-2.3170013-2.2640076-3.3049927
		c-0.82901-0.9210052-1.9869995-1.6950073-3.4410095-2.3009949c-1.321991-0.5509949-2.5169983-0.8110046-3.75-0.8240051v-36.9920044
		h26.7019958v-2.9669952v-46.4799957h0.9890137v-1.3849945h1.4830017v-1.6809998h-1.4830017v-0.9889984h1.4830017v-1.6809998
		h-1.4830017v-0.8899994h1.4830017v-1.6809998h-1.4830017v-0.8899994h1.4830017v-1.6809998h-1.4830017v-0.8899994h1.4830017
		v-1.6809998h-1.4830017v-0.9889984h1.4830017v-1.6809998h-1.4830017V138.28508h1.4830017v-1.6809998h-1.4830017v-0.8899994
		h1.4830017v-1.6809998h-1.4830017v-0.8899994h1.4830017v-1.6809998h-1.4830017v-0.8899994h1.4830017v-1.6809998h-1.4830017
		v-0.991066h1.4830017v-1.6809998h-1.4830017v-0.8899994h1.4830017v-1.6809998h-1.4830017v-0.8899994H327.8590088
		L327.8590088,122.7580185z M305.1600037,245.5390167c0.9159851,0.9170074,1.631012,1.9559937,2.0690002,3.0050049
		c0.4230042,1.0149994,0.6749878,2.0679932,0.7380066,3.072998h-9.2810059v-8.8950043
		c1.098999,0.0140076,2.1719971,0.2489929,3.3699951,0.7480011
		C303.3729858,244.0200195,304.4119873,244.710022,305.1600037,245.5390167z"/>
	<path data-nr="1" class="plan__svg__hoverable" fill="none" d="M372.3619995,328.3600159v-1.6809998h-1.4830017v-14.5379944v-4.9450073h-4.9450073
		h-44.5029907v4.3510132v0.5929871v27.8880005h-8.9989929v-10.9779968h-0.4949951
		c-1.7099915,0-3.1229858,0.2640076-4.4190063,0.8200073c-1.3659973,0.4880066-2.631012,1.3649902-3.723999,2.5710144
		c-0.9700012,0.8729858-1.8099976,2.1289978-2.5090027,3.7619934c-0.5,1.3989868-0.7430115,2.6000061-0.7969971,3.8250122h-1.803009
		v-31.5469971v-1.2860107v-1.6809998h-86.0379944v2.9670105l0,0v24.1300049h-0.2969971v0.9890137h-1.4830017v1.6809998h1.4830017
		v0.8900146h-1.4830017v1.6809998h1.4830017v0.8900146h-1.4830017v1.6809998h1.4830017v0.9890137h-1.4830017v1.6809998h1.4830017
		v1.0880127h0.2969971v48.4580078h-0.2969971v0.9890137h-1.4830017v1.6809998h1.4830017v0.8900146h-1.4830017v1.6809998h1.4830017
		v0.8900146h-1.4830017v1.6809998h1.4830017v0.8900146h-1.4830017v1.6809998h1.4830017v1.1870117h0.2969971v20.7680054h-0.2969971
		v0.9890137h-1.4830017v1.6809998h1.4830017v0.8900146h-1.4830017v1.6809998h1.4830017v0.9890137h-1.4830017v1.6809998h1.4830017
		v0.8900146h-1.4830017v1.6809998h1.4830017v1.0880127h0.2969971V448.01828h18.2949982l0,0h1.4830017v0.3959961h0.9889984v1.5857544
		h1.6809998v-1.5820007h0.8899994v1.5820007h1.6809998v-1.5820007h0.8899994v1.5820007h1.6809998v-1.5820007h0.8899994v1.5820007
		h1.7799988v-1.5820007h1.0879974v-0.3959961h1.3849945l0,0h40.4480133l0,0h1.4830017v0.3959961h0.9890137v1.5820007h1.6809998
		v-1.5820007h0.8900146v1.5820007h1.6809998v-1.5820007h0.8900146v1.5820007h1.6809998v-1.5820007h0.8900146v1.5820007h1.6809998
		v-1.5820007h1.1870117v-0.3959961h1.3840027l0,0h35.4039917l0,0h1.4830017v0.3959961h0.8900146v1.5820007h1.7799988v-1.5820007
		h0.8900146v1.5820007h1.6809998v-1.5820007h0.8900146v1.5820007h1.6809998v-1.5820007h0.8900146v1.5820007h1.6809998v-1.5820007
		h1.1870117v-0.3959961h1.3840027l0,0h20.7680054v-12.4599915h1.4830017v-1.6809998h-1.4830017v-0.8900146h1.4830017v-1.6809998
		h-1.4830017v-0.8900146h1.4830017v-1.6809998h-1.4830017V427.75h1.4830017v-1.6809998h-1.4830017v-18.6910095h1.4830017v-1.6809998
		h-1.4830017v-0.9890137h1.4830017v-1.6809998h-1.4830017v-0.8900146h1.4830017v-1.6809998h-1.4830017v-0.8900146h1.4830017
		v-1.6809998h-1.4830017v-0.8900146h1.4830017v-1.6809998h-1.4830017v-0.8900146h1.4830017v-1.6809998h-1.4830017v-0.9890137
		h1.4830017v-1.6809998h-1.4830017v-0.8900146h1.4830017v-1.6809998h-1.4830017v-0.8900146h1.4830017v-1.6809998h-1.4830017
		v-0.8900146h1.4830017v-1.6809998h-1.4830017v-12.559845h1.4830017v-1.6809998h-1.4830017v-0.8900146h1.4830017v-1.6809998
		h-1.4830017V349.131012h1.4830017v-1.6809998h-1.4830017v-0.8900146h1.4830017v-1.6809998h-1.4830017v-0.8900146h1.4830017
		v-1.6809998h-1.4830017v-0.9890137h1.4830017V339.63797h-1.4830017v-0.8900146h1.4830017v-1.6809998h-1.4830017v-0.8900146
		h1.4830017v-1.6809998h-1.4830017v-0.8900146h1.4830017v-1.6809998h-1.4830017v-0.9890137h1.4830017v-1.6809998h-1.4830017
		v-0.8900146L372.3619995,328.3600159L372.3619995,328.3600159z M304.4909973,333.1420288
		c1.0180054-1.118988,2.1480103-1.9060059,3.3880005-2.3500061c1.0690002-0.4580078,2.2120056-0.696991,3.5639954-0.7430115
		v10.473999h-9.9880066c0-1.2999878,0.2279968-2.4920044,0.7510071-3.9580078
		C302.8269958,335.1140442,303.605011,333.9430237,304.4909973,333.1420288z"/>
	<path data-nr="6" class="plan__svg__hoverable" fill="none" d="M504.3630066,306.2160339v-10.802002l0.5929871-2.4580078l-0.0289917-0.006012
		l3.973999-15.2909851l-0.2160034-0.0559998l0.2330017-0.9649963l-2.8680115-0.6919861h-1.6640015v-15.0299988l3.9830017-15.32901
		h0.0710144v-0.272995l0.4519958-1.7400055l-0.4519958-0.1170044v-0.8370056h-3.2590027l-0.3080139-0.0800018l-0.0209961,0.0800018
		h-73.6480103h-2.2749939h-0.6919861v33.3270264h-6.7219849c-0.0069885-1.2520142-0.2680054-2.5100098-0.8269958-3.8519897
		c-0.605011-1.45401-1.381012-2.6119995-2.2839966-3.4249878c-1.006012-1.006012-2.1560059-1.79599-3.3250122-2.2839966
		c-1.322998-0.5499878-2.6520081-0.82901-3.9509888-0.82901h-0.5v10.3900146h-5.1369934h-0.197998h-4.7470093v82.0820007h4.9450073
		h5.2550049l2.4580078,0.5929871l0.1809998-0.8070068l15.5379944,3.5859985l0.0599976-0.3009949l2.0220032,0.4880066
		l0.821991-3.6589966h13.2219849v-1.2070007l24.7170105,5.6669922l0.0559998-0.2770081l1.9289856,0.4660034l1.0429993-4.6480103
		h11.3389893l19.7829895,3.9559937l0.1650085-1.177002l4.131012-18.3460083l0.0069885,0.0010071l0.6919861-2.8680115
		l-4.5490112-1.0209961v-12.5429993l4.5299988-17.4299927l-0.2690125-0.0700073l0.2879944-1.1950073L504.3630066,306.2160339z
		 M411.6279907,275.9460449v-9.3739929c1.0029907,0.0639954,2.053009,0.3150024,3.0660095,0.7369995
		c1.0499878,0.4379883,2.0880127,1.1520081,3.0220032,2.0859985c0.8110046,0.7290039,1.5010071,1.7680054,2.0490112,3.0840149
		c0.506012,1.2149963,0.7430115,2.3500061,0.75,3.4670105L411.6279907,275.9460449L411.6279907,275.9460449z"/>
	<path data-nr="5" class="plan__svg__hoverable" fill="none" d="M504.3640137,241.7080078v-10.1430054l0.7909851-3.4279938l-0.2860107-0.0639954
		l4.0329895-15.5220032l-0.4880066-0.1269989l0.4979858-2.0639954l-4.5490112-1.0209961l-0.0039978-11.1049957h-0.0029907
		v-1.8410034l4.5360107-17.4609985l-0.4880066-0.1269989l0.2070007-0.8560028l-4.2529907-0.9550018v-4.9909973h-4.9190063v0.0039978
		H428.236969v37.0120087v15.496994c-1.4299927,0.003006-2.6640015,0.2359924-3.881012,0.7369995
		c-1.3469849,0.5549927-2.4979858,1.3240051-3.2879944,2.1849976c-0.9549866,0.8190002-1.7319946,1.9429932-2.3089905,3.3419952
		c-0.4970093,1.2059937-0.7380066,2.5070038-0.7380066,3.973999v0.5h10.2160034v8.9140015v1.4170074h80.2030029l0,0
		l0.6919861-2.8679962L504.3640137,241.7080078z M419.6839905,231.1610107
		c0.5169983-1.2510071,1.2009888-2.2480011,2.0769958-3.0039978c0.7340088-0.7949982,1.7640076-1.4799957,2.9769897-1.9790039
		c1.0920105-0.4490051,2.2049866-0.6589966,3.5-0.6620026v8.7380066h-9.2049866
		C419.0799866,233.1230164,419.2950134,232.1070099,419.6839905,231.1610107z"/>
	<polygon data-nr="4" class="plan__svg__hoverable" fill="none" points="508.4500122,147.7920227 508.9079895,145.8910217 504.3590088,144.8700104
		504.3599854,143.9270172 504.3599854,143.9270172 504.3599854,143.7080078 504.3609924,140.460022 504.3630066,140.460022
		504.3630066,132.6370087 508.9020081,115.0760117 508.1730042,114.8860168 508.6159973,113.0550156 504.3630066,112.1000137
		504.3630066,102.9750137 505.1539917,99.5470123 504.7430115,99.4540176 508.9020081,83.3640137 508.4330139,83.242012
		508.6159973,82.4850159 504.3630066,81.5310135 504.3630066,68.3720169 504.6889954,68.3720169 504.6889954,49.3350143
		507.5539856,36.6430168 482.8340149,30.8750172 482.8330078,30.8790169 482.8099976,30.8740177 482.7420044,31.2110176
		480.848999,30.7860165 479.7479858,35.6320152 470.7619934,35.6320152 452.7390137,35.6320152 452.756012,35.5500145
		433.1879883,31.0740166 433.1870117,31.0790176 433.1650085,31.0740166 433.1319885,31.2420177 432.8850098,31.1820164
		431.8380127,35.6320152 431.20401,35.6320152 428.2369995,35.6320152 428.2369995,119.9580154 428.2369995,126.6150131
		428.2369995,136.5050201 428.2369995,155.8980103 428.2369995,174.8760223 504.3630066,174.8760223 504.3580017,167.710022
		505.1499939,164.2820129 504.696991,164.1800079 508.9020081,147.9100189 	"/>
	<polygon data-nr="3" class="plan__svg__hoverable" fill="none" points="428.8309937,35.6320152 428.2369995,35.6320152 427.3359985,35.6320152
		407.1889954,30.983017 406.6860046,33.332016 406.8859863,33.3790169 406.1380005,36.6210136 383.7349854,36.6210136
		378.9880066,36.6210136 375.9289856,35.3980141 375.9339905,35.3790169 375.7820129,35.339016 375.0320129,35.0390167
		374.9949951,35.1330147 355.5499878,30.0470181 355.5499878,50.4660149 355.0549927,50.4660149 355.0549927,51.4550171
		352.0880127,51.4550171 352.0880127,54.4220161 355.0549927,54.4220161 355.0549927,66.2890167 352.0880127,66.2890167
		352.0880127,69.256012 355.0549927,69.256012 355.0549927,81.1240158 352.0880127,81.1240158 352.0880127,84.0900116
		355.0549927,84.0900116 355.0549927,96.9470139 352.0880127,96.9470139 352.0880127,99.9140167 355.0549927,99.9140167
		355.5499878,99.9140167 355.5499878,111.7810135 352.0880127,111.7810135 352.0880127,114.7480164 355.5499878,114.7480164
		355.5499878,126.6150131 355.0549927,126.6150131 352.0880127,126.6150131 352.0880127,129.582016 355.0549927,129.582016
		355.0549927,142.4380188 352.0880127,142.4380188 352.0880127,145.405014 355.0549927,145.405014 355.0549927,171.1180115
		357.0329895,171.1180115 360.9890137,171.1180115 402.5249939,171.1180115 403.3160095,171.1180115 405.4909973,171.1180115
		405.4909973,141.4490204 408.4580078,141.4490204 411.4249878,141.4490204 411.4249878,125.6260147 416.3699951,125.6260147
		426.2590027,125.6260147 428.2369995,125.6260147 430.6719971,125.6260147 431.20401,125.6260147 431.20401,35.6320152 	"/>
</g>
</svg>
