<!-- DO NOT EDIT THIS, THIS FILE IS GENERATED FROM "1_24.original.svg" using transform-svgs.js script -->



<svg version="1.1" 
	 xmlns="http://www.w3.org/2000/svg" xmlns:xlink="http://www.w3.org/1999/xlink" x="0px" y="0px" viewBox="0 0 720 480"
	 style="enable-background:new 0 0 720 480;" xml:space="preserve">


<g>
	<polygon fill="#DBD4CA" points="508.2593079,243.6830292 503.9074097,241.803833 503.6106873,231.1221313
		508.4570923,212.2311249 504.0062866,210.2530365 504.0062866,195.980423 508.1723938,179.7267303 504.0062866,177.1197357
		504.0062866,165.2257233 508.3063965,148.5060272 504.0062866,144.8765259 504.0062866,131.524231 507.9625854,113.7213287
		504.0062866,112.7322311 504.0062866,101.8526306 507.9625854,83.55513 504.0062866,82.5660324 504.0062866,49.2349319
		506.9735107,37.0695305 481.2580872,31.1352348 480.2690125,36.0805321 452.5755005,36.0805321 433.2889099,31.629734
		432.2998962,36.0805321 426.8601074,36.0805321 409.0570984,32.1243286 406.0899048,37.0695305 381.3635864,37.0695305
		356.4393921,30.9374352 356.5382996,155.5583344 324.9874878,155.5583344 324.8884888,119.9523315 213.3231964,119.9523315
		213.3231964,447.5272522 370.4838867,447.5272522 370.4838867,326.4668579 369.692688,323.8953552 401.1447144,323.8953552
		401.1447144,357.5232544 413.5078125,357.0287476 430.8163147,360.9849548 431.8052979,357.5232544 445.0586853,356.3362732
		471.0708008,361.8751526 472.8511047,357.5232544 482.6427917,357.5232544 503.7095947,361.3805542 508.4570923,339.7202759
		504.0062866,338.7311707 504.0062866,326.3680725 508.2543945,308.4232483 504.0062866,307.3763733 503.9129028,295.4168701
		508.1809082,278.6219482 504.9953918,276.4207458 504.0062866,276.4207458 504.0062866,262.0794678 	"/>
	<g>
		<path fill="#565440" d="M323.9984131,155.2616272h32.4410095v0.9891052h-32.4410095V155.2616272z"/>
		<path fill="#565440" d="M322.4158936,168.1193237v2.9671936h36.5950012v-2.9671936H322.4158936z"/>
		<rect x="370.4838867" y="322.4117737" fill="#565440" width="30.3640137" height="2.9671936"/>
	</g>
</g>
<g>
	<g>
		<polygon fill="#565440" points="272.072998,202.0438232 272.072998,201.7471313 272.072998,196.0106354 271.0840149,196.0106354
			271.0840149,201.7471313 235.0823975,201.7471313 235.0823975,195.5161285 230.1371002,195.5161285 230.1371002,201.7471313
			230.1371002,204.1209259 230.1371002,204.714325 272.072998,204.714325 		"/>
		<polygon fill="#565440" points="271.0840149,188.6916351 272.072998,188.6916351 272.072998,188.394928 273.7543945,188.394928
			273.7543945,187.405838 272.072998,187.405838 272.072998,143.4918365 272.8642883,143.4918365 272.8642883,138.546524
			264.3583984,138.546524 264.3583984,143.4918365 271.0840149,143.4918365 		"/>
		<polygon fill="#565440" points="212.3341064,143.8874359 212.8287048,143.8874359 212.8287048,145.2721252 214.5101013,145.2721252
			214.5101013,143.8874359 215.4002075,143.8874359 215.4002075,145.2721252 217.081604,145.2721252 217.081604,143.8874359
			218.2684937,143.8874359 218.2684937,132.3155365 217.081604,132.3155365 217.081604,130.8319244 215.4002075,130.8319244
			215.4002075,132.3155365 214.5101013,132.3155365 214.5101013,130.8319244 212.8287048,130.8319244 212.8287048,132.3155365
			212.3341064,132.3155365 212.3341064,133.3046265 210.8506012,133.3046265 210.8506012,134.9859314 212.3341064,134.9859314
			212.3341064,135.8761292 210.8506012,135.8761292 210.8506012,137.5575256 212.3341064,137.5575256 212.3341064,138.4476318
			210.8506012,138.4476318 210.8506012,140.1290283 212.3341064,140.1290283 212.3341064,141.0192261 210.8506012,141.0192261
			210.8506012,142.7006378 212.3341064,142.7006378 		"/>
		<polygon fill="#565440" points="212.3341064,185.6255341 212.8287048,185.6255341 212.8287048,187.0102234 214.5101013,187.0102234
			214.5101013,185.6255341 215.4002075,185.6255341 215.4002075,187.0102234 217.081604,187.0102234 217.081604,185.6255341
			218.2684937,185.6255341 218.2684937,174.0536346 217.081604,174.0536346 217.081604,172.5700378 215.4002075,172.5700378
			215.4002075,174.0536346 214.5101013,174.0536346 214.5101013,172.5700378 212.8287048,172.5700378 212.8287048,174.0536346
			212.3341064,174.0536346 212.3341064,175.0427246 210.8506012,175.0427246 210.8506012,176.7240295 212.3341064,176.7240295
			212.3341064,177.6142273 210.8506012,177.6142273 210.8506012,179.2956238 212.3341064,179.2956238 212.3341064,180.18573
			210.8506012,180.18573 210.8506012,181.8671265 212.3341064,181.8671265 212.3341064,182.7573242 210.8506012,182.7573242
			210.8506012,184.438736 212.3341064,184.438736 		"/>
		<polygon fill="#565440" points="212.3341064,248.0349274 212.8287048,248.0349274 212.8287048,249.5185242 214.5101013,249.5185242
			214.5101013,248.0349274 215.4002075,248.0349274 215.4002075,249.5185242 217.081604,249.5185242 217.081604,248.0349274
			218.2684937,248.0349274 218.2684937,236.4629364 217.081604,236.4629364 217.081604,234.9794312 215.4002075,234.9794312
			215.4002075,236.4629364 214.5101013,236.4629364 214.5101013,234.9794312 212.8287048,234.9794312 212.8287048,236.4629364
			212.3341064,236.4629364 212.3341064,237.4520264 210.8506012,237.4520264 210.8506012,239.1334381 212.3341064,239.1334381
			212.3341064,240.0235291 210.8506012,240.0235291 210.8506012,241.7049255 212.3341064,241.7049255 212.3341064,242.5951233
			210.8506012,242.5951233 210.8506012,244.276535 212.3341064,244.276535 212.3341064,245.2655334 210.8506012,245.2655334
			210.8506012,246.9469299 212.3341064,246.9469299 		"/>
		<polygon fill="#565440" points="212.8287048,278.9922485 212.8287048,280.475769 214.5101013,280.475769 214.5101013,278.9922485
			215.4002075,278.9922485 215.4002075,280.475769 217.081604,280.475769 217.081604,278.9922485 218.2684937,278.9922485
			218.2684937,267.4202576 217.081604,267.4202576 217.081604,265.9368591 215.4002075,265.9368591 215.4002075,267.4202576
			214.5101013,267.4202576 214.5101013,265.9368591 212.8287048,265.9368591 212.8287048,267.4202576 212.3341064,267.4202576
			212.3341064,268.4093628 210.8506012,268.4093628 210.8506012,270.0907593 212.3341064,270.0907593 212.3341064,271.0797729
			210.8506012,271.0797729 210.8506012,272.7611694 212.3341064,272.7611694 212.3341064,273.6514587 210.8506012,273.6514587
			210.8506012,275.3328552 212.3341064,275.3328552 212.3341064,276.2228699 210.8506012,276.2228699 210.8506012,277.9043579
			212.3341064,277.9043579 212.3341064,278.9922485 		"/>
		<polygon fill="#565440" points="233.2032013,125.7877274 244.7751007,125.7877274 244.7751007,124.6009293 246.2586975,124.6009293
			246.2586975,122.9195328 244.7751007,122.9195328 244.7751007,122.0293274 246.2586975,122.0293274 246.2586975,120.3479309
			244.7751007,120.3479309 244.7751007,119.8534317 243.7861023,119.8534317 243.7861023,118.3698273 242.1047058,118.3698273
			242.1047058,119.8534317 241.2144928,119.8534317 241.2144928,118.3698273 239.5330963,118.3698273 239.5330963,119.8534317
			238.6430054,119.8534317 238.6430054,118.3698273 236.9615936,118.3698273 236.9615936,119.8534317 235.9725037,119.8534317
			235.9725037,118.3698273 234.2911987,118.3698273 234.2911987,119.8534317 233.2032013,119.8534317 233.2032013,120.3479309
			231.7196045,120.3479309 231.7196045,122.0293274 233.2032013,122.0293274 233.2032013,122.9195328 231.7196045,122.9195328
			231.7196045,124.6009293 233.2032013,124.6009293 		"/>
		<polygon fill="#565440" points="274.7434998,125.7877274 286.3153992,125.7877274 286.3153992,124.6009293 287.7990112,124.6009293
			287.7990112,122.9195328 286.3153992,122.9195328 286.3153992,122.0293274 287.7990112,122.0293274 287.7990112,120.3479309
			286.3153992,120.3479309 286.3153992,119.8534317 285.3263855,119.8534317 285.3263855,118.3698273 283.644989,118.3698273
			283.644989,119.8534317 282.7547913,119.8534317 282.7547913,118.3698273 281.0733948,118.3698273 281.0733948,119.8534317
			280.1832886,119.8534317 280.1832886,118.3698273 278.5018921,118.3698273 278.5018921,119.8534317 277.6116943,119.8534317
			277.6116943,118.3698273 275.9303894,118.3698273 275.9303894,119.8534317 274.7434998,119.8534317 274.7434998,120.3479309
			273.3587952,120.3479309 273.3587952,122.0293274 274.7434998,122.0293274 274.7434998,122.9195328 273.3587952,122.9195328
			273.3587952,124.6009293 274.7434998,124.6009293 		"/>
		<polygon fill="#565440" points="327.8557129,122.7216339 327.8557129,121.040329 326.3721008,121.040329 326.3721008,119.8534317
			325.9765015,119.8534317 325.9765015,118.4687271 324.1961975,118.4687271 324.1961975,119.8534317 323.3060913,119.8534317
			323.3060913,118.4687271 321.6246948,118.4687271 321.6246948,119.8534317 320.4378052,119.8534317 320.4378052,121.040329
			318.9541931,121.040329 318.9541931,122.7216339 320.4378052,122.7216339 320.4378052,123.6118317 318.9541931,123.6118317
			318.9541931,125.2932281 320.4378052,125.2932281 320.4378052,126.1833267 318.9541931,126.1833267 318.9541931,127.8647308
			320.4378052,127.8647308 320.4378052,128.8538361 318.9541931,128.8538361 318.9541931,130.5352325 320.4378052,130.5352325
			320.4378052,131.4253235 318.9541931,131.4253235 318.9541931,133.1067352 320.4378052,133.1067352 320.4378052,133.996933
			318.9541931,133.996933 318.9541931,135.6783295 320.4378052,135.6783295 320.4378052,136.5684357 318.9541931,136.5684357
			318.9541931,138.2498322 320.4378052,138.2498322 320.4378052,155.2616272 320.4378052,182.2627258 304.8106995,182.2627258
			304.8106995,183.2518311 320.4378052,183.2518311 320.4378052,201.7471313 291.0628967,201.7471313 291.0628967,183.2518311
			297.1950073,183.2518311 297.1950073,182.2627258 291.0628967,182.2627258 290.0737915,182.2627258 290.0737915,183.2518311
			290.0737915,187.405838 281.0733948,187.405838 281.0733948,188.394928 290.0737915,188.394928 290.0737915,201.7471313
			282.4580994,201.7471313 282.4580994,204.714325 295.7114868,204.714325 295.7114868,243.4852295 298.6785889,243.4852295
			298.6785889,204.714325 325.3830872,204.714325 325.3830872,201.7471313 325.3830872,155.2616272 326.3721008,155.2616272
			326.3721008,153.8769379 327.8557129,153.8769379 327.8557129,152.1955261 326.3721008,152.1955261 326.3721008,151.2064362
			327.8557129,151.2064362 327.8557129,149.5251312 326.3721008,149.5251312 326.3721008,148.6349335 327.8557129,148.6349335
			327.8557129,146.953537 326.3721008,146.953537 326.3721008,146.0634308 327.8557129,146.0634308 327.8557129,144.3820343
			326.3721008,144.3820343 326.3721008,143.4918365 327.8557129,143.4918365 327.8557129,141.8104248 326.3721008,141.8104248
			326.3721008,140.8214264 327.8557129,140.8214264 327.8557129,139.1400299 326.3721008,139.1400299 326.3721008,138.2498322
			327.8557129,138.2498322 327.8557129,136.5684357 326.3721008,136.5684357 326.3721008,135.6783295 327.8557129,135.6783295
			327.8557129,133.996933 326.3721008,133.996933 326.3721008,133.1067352 327.8557129,133.1067352 327.8557129,131.4253235
			326.3721008,131.4253235 326.3721008,130.5352325 327.8557129,130.5352325 327.8557129,128.8538361 326.3721008,128.8538361
			326.3721008,127.8647308 327.8557129,127.8647308 327.8557129,126.1833267 326.3721008,126.1833267 326.3721008,125.2932281
			327.8557129,125.2932281 327.8557129,123.6118317 326.3721008,123.6118317 326.3721008,122.7216339 		"/>
		<polygon fill="#565440" points="273.5566101,276.8163757 274.5456848,276.8163757 274.5456848,274.7392578 277.9085083,274.7392578
			277.9085083,271.7721558 272.072998,271.7721558 272.072998,213.7147369 272.072998,213.7147369 272.072998,212.7256317
			272.072998,212.7256317 271.0840149,212.7256317 268.4135132,212.7256317 268.4135132,213.7147369 271.0840149,213.7147369
			271.0840149,271.7721558 230.1371002,271.7721558 230.1371002,274.7392578 273.5566101,274.7392578 		"/>
		<polygon fill="#565440" points="295.7114868,271.7721558 288.0957031,271.7721558 288.0957031,274.7392578 295.7114868,274.7392578
			295.7114868,284.5310669 288.0957031,284.5310669 288.0957031,285.52005 295.7114868,285.52005 295.7114868,305.5978699
			274.5456848,305.5978699 274.5456848,285.52005 280.8756104,285.52005 280.8756104,284.5310669 274.5456848,284.5310669
			274.5456848,284.234375 273.5566101,284.234375 273.5566101,305.5978699 212.6309052,305.5978699 212.6309052,308.5650635
			295.7114868,308.5650635 298.6785889,308.5650635 298.6785889,305.5978699 298.6785889,253.2769318 295.7114868,253.2769318 		"/>
	</g>
	<g>
		<polygon fill="none" stroke="#565440" points="325.1853027,120.1501312 214.1143951,120.1501312 213.1253967,120.1501312
			213.1253967,307.0814514 214.6089935,307.0814514 214.6089935,121.633728 325.1853027,121.633728 		"/>
		<polygon fill="none" stroke="#565440" points="321.8225098,139.0411377 232.1152039,139.0411377 230.6316071,139.0411377 230.6316071,139.0411377
			230.6316071,307.0814514 232.1152039,307.0814514 232.1152039,140.5246277 321.8225098,140.5246277 		"/>
	</g>
	<g>
		<path fill="none" stroke="#565440" d="M296.8982849,182.4606323c0-1.0879974,0.1978149-1.9781036,0.5934143-2.9671936
			c0.3955994-0.9891052,0.9891052-1.8791962,1.6813965-2.5715027c0.6924133-0.7911987,1.582489-1.3847046,2.5715027-1.780304
			s1.9780884-0.593399,3.0661011-0.593399v7.9123993"/>
		<path fill="none" stroke="#565440" d="M281.3700867,187.6037292c0-1.0879974-0.1978149-1.9781036-0.5934143-2.9671936
			c-0.3955994-0.9891052-0.9891052-1.8791962-1.6813965-2.5715027c-0.6924133-0.7911987-1.582489-1.3847046-2.5715027-1.780304
			s-1.9780884-0.593399-3.0661011-0.593399v7.9123993"/>
		<path fill="none" stroke="#565440" d="M271.6773987,196.8019257c-1.0880127,0-1.9780884-0.1977997-2.9671936-0.593399
			c-0.9890137-0.3955994-1.8792114-0.9889984-2.5715027-1.6813965c-0.7911987-0.6923065-1.3847046-1.5825043-1.780304-2.5715027
			c-0.3955994-0.9891052-0.5934143-1.9781036-0.5934143-3.0661011h7.9124146"/>
		<path fill="none" stroke="#565440" d="M273.853302,284.4320679c-1.0880127,0-1.9780884-0.1978149-2.9671936-0.5934143
			c-0.9890137-0.3955994-1.8792114-0.9890137-2.5715027-1.6813965c-0.7911987-0.6924133-1.3847046-1.582489-1.780304-2.5715942
			c-0.3955994-0.9890137-0.5934143-1.9780884-0.5934143-3.0661011h7.9124146"/>
		<path fill="none" stroke="#565440" d="M280.6777954,284.9265747c0-1.0880127,0.1978149-1.9780884,0.5934143-2.9671936
			c0.3955994-0.9890137,0.9891052-1.8792114,1.6813965-2.5715027c0.6924133-0.7911987,1.582489-1.3847046,2.5715027-1.780304
			s1.9780884-0.5934143,3.0661011-0.5934143v7.9124146"/>
		<path fill="none" stroke="#565440" d="M298.5797119,243.4852295c1.2857971,0,2.4725952,0.2967072,3.6594849,0.7913055
			c1.1868896,0.4945068,2.3736877,1.1869049,3.2638855,2.1759033c0.8901062,0.8901978,1.6813965,1.9781036,2.1759033,3.1649933
			s0.7911987,2.4725952,0.7911987,3.7583923h-9.8905029"/>
	</g>
</g>
<g>
	<g>
		<polygon fill="#565440" points="372.3619995,384.0369873 372.3619995,382.3560181 370.8779907,382.3560181 370.8779907,379.7850342
			364.9450073,379.7850342 364.9450073,386.7070313 365.934021,386.7070313 365.934021,404.9870605 335.0179443,404.9870605
			335.0179443,386.6898804 334.0331421,386.6898804 334.0331421,387.7943115 332.0443115,387.7943115 332.0443115,388.7791138
			334.0331421,388.7791138 334.0331421,405.9718628 346.9460449,405.9718628 346.9460449,419.6896973 351.8909912,419.6896973
			351.8909912,409.947998 370.8779907,409.947998 370.8779907,407.3760376 372.3619995,407.3760376 372.3619995,405.6950073
			370.8779907,405.6950073 370.8779907,404.7059937 372.3619995,404.7059937 372.3619995,403.0250244 370.8779907,403.0250244
			370.8779907,402.1350098 372.3619995,402.1350098 372.3619995,400.4540405 370.8779907,400.4540405 370.8779907,399.5640259
			372.3619995,399.5640259 372.3619995,397.8829956 370.8779907,397.8829956 370.8779907,396.993042 372.3619995,396.993042
			372.3619995,395.3110352 370.8779907,395.3110352 370.8779907,394.4210205 372.3619995,394.4210205 372.3619995,392.7399902
			370.8779907,392.7399902 370.8779907,391.7510376 372.3619995,391.7510376 372.3619995,390.0700073 370.8779907,390.0700073
			370.8779907,389.1799927 372.3619995,389.1799927 372.3619995,387.4990234 370.8779907,387.4990234 370.8779907,386.6090088
			372.3619995,386.6090088 372.3619995,384.927002 370.8779907,384.927002 370.8779907,384.0369873 		"/>
		<polygon fill="#565440" points="370.8779907,362.973053 365.934021,362.973053 365.934021,364.8365173 333.5026855,364.8365173
			333.5026855,365.8213196 334.0331421,365.8213196 334.0331421,377.9602966 335.0179443,377.9602966 335.0179443,365.8213196
			365.934021,365.8213196 365.934021,369.89505 370.8779907,369.89505 370.8779907,369.7970276 372.3619995,369.7970276
			372.3619995,368.1150208 370.8779907,368.1150208 370.8779907,367.2250671 372.3619995,367.2250671 372.3619995,365.5440369
			370.8779907,365.5440369 		"/>
		<polygon fill="#565440" points="273.0720215,340.0290222 230.1519775,340.0290222 230.1519775,342.9960632 260.710022,342.9960632
			273.0720215,342.9960632 275.3460083,342.9960632 275.3460083,342.0070496 273.0720215,342.0070496 		"/>
		<polygon fill="#565440" points="288.4000244,340.0290222 288.4000244,342.0070496 282.6640015,342.0070496 282.6640015,342.9960632
			288.4000244,342.9960632 297.3010254,342.9960632 301.3550415,342.9960632 301.3550415,340.0290222 298.6849976,340.0290222
			298.6849976,308.4820251 298.6849976,307.1960754 298.6849976,305.5150452 212.6470337,305.5150452 212.6470337,308.4820251
			272.0830078,308.4820251 272.0830078,313.822052 273.0720215,313.822052 273.0720215,308.4820251 295.7189941,308.4820251
			295.7189941,327.9640198 273.0720215,327.9640198 273.0720215,321.4370422 272.0830078,321.4370422 272.0830078,328.9530334
			273.0720215,328.9530334 295.7189941,328.9530334 295.7189941,340.0290222 		"/>
		<polygon fill="#565440" points="217.0969849,331.1290588 215.4160156,331.1290588 215.4160156,332.61203 214.526001,332.61203
			214.526001,331.1290588 212.8450317,331.1290588 212.8450317,332.61203 212.3500366,332.61203 212.3500366,333.6010437
			210.8670044,333.6010437 210.8670044,335.282074 212.3500366,335.282074 212.3500366,336.1720276 210.8670044,336.1720276
			210.8670044,337.8540344 212.3500366,337.8540344 212.3500366,338.7440491 210.8670044,338.7440491 210.8670044,340.4250183
			212.3500366,340.4250183 212.3500366,341.414032 210.8670044,341.414032 210.8670044,343.0950623 212.3500366,343.0950623
			212.3500366,344.183075 212.8450317,344.183075 212.8450317,345.5670471 214.526001,345.5670471 214.526001,344.183075
			215.4160156,344.183075 215.4160156,345.5670471 217.0969849,345.5670471 217.0969849,344.183075 218.2839966,344.183075
			218.2839966,332.61203 217.0969849,332.61203 		"/>
		<polygon fill="#565440" points="217.0969849,391.1580505 215.4160156,391.1580505 215.4160156,392.6410217 214.526001,392.6410217
			214.526001,391.1580505 212.8450317,391.1580505 212.8450317,392.6410217 212.3500366,392.6410217 212.3500366,393.6300354
			210.8670044,393.6300354 210.8670044,395.3110657 212.3500366,395.3110657 212.3500366,396.2010193 210.8670044,396.2010193
			210.8670044,397.8830261 212.3500366,397.8830261 212.3500366,398.7730408 210.8670044,398.7730408 210.8670044,400.454071
			212.3500366,400.454071 212.3500366,401.3440247 210.8670044,401.3440247 210.8670044,403.0250549 212.3500366,403.0250549
			212.3500366,404.2120667 212.8450317,404.2120667 212.8450317,405.5960388 214.526001,405.5960388 214.526001,404.2120667
			215.4160156,404.2120667 215.4160156,405.5960388 217.0969849,405.5960388 217.0969849,404.2120667 218.2839966,404.2120667
			218.2839966,392.6410217 217.0969849,392.6410217 		"/>
		<polygon fill="#565440" points="217.0969849,423.4960632 215.4160156,423.4960632 215.4160156,424.980072 214.526001,424.980072
			214.526001,423.4960632 212.8450317,423.4960632 212.8450317,424.980072 212.3500366,424.980072 212.3500366,425.9690247
			210.8670044,425.9690247 210.8670044,427.6500549 212.3500366,427.6500549 212.3500366,428.5400696 210.8670044,428.5400696
			210.8670044,430.2210388 212.3500366,430.2210388 212.3500366,431.2100525 210.8670044,431.2100525 210.8670044,432.8910217
			212.3500366,432.8910217 212.3500366,433.7810364 210.8670044,433.7810364 210.8670044,435.4620667 212.3500366,435.4620667
			212.3500366,436.5500183 212.8450317,436.5500183 212.8450317,438.0340271 214.526001,438.0340271 214.526001,436.5500183
			215.4160156,436.5500183 215.4160156,438.0340271 217.0969849,438.0340271 217.0969849,436.5500183 218.2839966,436.5500183
			218.2839966,424.980072 217.0969849,424.980072 		"/>
		<polygon fill="#565440" points="370.8779907,425.079071 370.3840332,425.079071 370.3840332,423.5950623 368.7030029,423.5950623
			368.7030029,425.079071 367.8129883,425.079071 367.8129883,423.5950623 366.1310425,423.5950623 366.1310425,425.079071
			364.9450073,425.079071 364.9450073,436.6490173 366.1310425,436.6490173 366.1310425,438.1330261 367.8129883,438.1330261
			367.8129883,436.6490173 368.7030029,436.6490173 368.7030029,438.1330261 370.3840332,438.1330261 370.3840332,436.6490173
			370.8779907,436.6490173 370.8779907,435.5610657 372.3619995,435.5610657 372.3619995,433.8800354 370.8779907,433.8800354
			370.8779907,432.9900208 372.3619995,432.9900208 372.3619995,431.3090515 370.8779907,431.3090515 370.8779907,430.4190369
			372.3619995,430.4190369 372.3619995,428.7380676 370.8779907,428.7380676 370.8779907,427.749054 372.3619995,427.749054
			372.3619995,426.0680237 370.8779907,426.0680237 		"/>
		<polygon fill="#565440" points="372.3619995,328.3600159 372.3619995,326.6790466 370.8779907,326.6790466 370.8779907,307.1960754
			321.4310303,307.1960754 321.4310303,340.0290222 311.6409912,340.0290222 311.6409912,342.9960632 318.0369263,342.9960632
			318.0369263,358.4064026 318.4356079,358.4064026 318.4356079,358.4064636 323.8388062,358.4064636 323.8388062,365.8201599
			325.8508301,365.8201599 325.8508301,364.8353577 324.8236084,364.8353577 324.8236084,357.4263 324.822998,357.4263
			324.822998,357.4216614 319.0217285,357.4216614 319.0217285,342.9960632 324.3980103,342.9960632 324.3980103,330.1042786
			327.7214355,330.1042786 327.7214355,329.1194763 324.3980103,329.1194763 324.3980103,312.1410217 348.7573853,312.1410217
			348.7573853,329.118988 335.0732422,329.118988 335.0732422,330.1037903 354.9113159,330.1037903 354.9113159,329.118988
			349.7421265,329.118988 349.7421265,312.1410217 365.934021,312.1410217 365.934021,329.1191101 362.4268188,329.1191101
			362.4268188,330.1039124 365.934021,330.1039124 365.934021,349.1280212 372.3619995,349.1280212 372.3619995,347.4460754
			370.8779907,347.4460754 370.8779907,346.5560608 372.3619995,346.5560608 372.3619995,344.8750305 370.8779907,344.8750305
			370.8779907,343.9850159 372.3619995,343.9850159 372.3619995,342.3040466 370.8779907,342.3040466 370.8779907,341.315033
			372.3619995,341.315033 372.3619995,339.6340637 370.8779907,339.6340637 370.8779907,338.7440491 372.3619995,338.7440491
			372.3619995,337.0630188 370.8779907,337.0630188 370.8779907,336.1720276 372.3619995,336.1720276 372.3619995,334.4910583
			370.8779907,334.4910583 370.8779907,333.6010437 372.3619995,333.6010437 372.3619995,331.9200745 370.8779907,331.9200745
			370.8779907,330.9310608 372.3619995,330.9310608 372.3619995,329.2500305 370.8779907,329.2500305 370.8779907,328.3600159 		"/>
		<polygon fill="#565440" points="243.9970093,442.4840393 232.4260254,442.4840393 232.4260254,443.77005 230.9429932,443.77005
			230.9429932,445.4510193 232.4260254,445.4510193 232.4260254,446.3410339 230.9429932,446.3410339 230.9429932,448.0220642
			232.4260254,448.0220642 232.4260254,448.4180603 233.414978,448.4180603 233.414978,450.0000305 235.0960083,450.0000305
			235.0960083,448.4180603 235.9860229,448.4180603 235.9860229,450.0000305 237.6669922,450.0000305 237.6669922,448.4180603
			238.5570068,448.4180603 238.5570068,450.0000305 240.2390137,450.0000305 240.2390137,448.4180603 241.1290283,448.4180603
			241.1290283,450.0000305 242.9089966,450.0000305 242.9089966,448.4180603 243.9970093,448.4180603 243.9970093,448.0220642
			245.3809814,448.0220642 245.3809814,446.3410339 243.9970093,446.3410339 243.9970093,445.4510193 245.3809814,445.4510193
			245.3809814,443.77005 243.9970093,443.77005 		"/>
		<polygon fill="#565440" points="298.8829956,442.4840393 287.3129883,442.4840393 287.3129883,443.77005 285.8290405,443.77005
			285.8290405,445.4510193 287.3129883,445.4510193 287.3129883,446.3410339 285.8290405,446.3410339 285.8290405,448.0220642
			287.3129883,448.0220642 287.3129883,448.4180603 288.302002,448.4180603 288.302002,450.0000305 289.9830322,450.0000305
			289.9830322,448.4180603 290.8729858,448.4180603 290.8729858,450.0000305 292.5540161,450.0000305 292.5540161,448.4180603
			293.4440308,448.4180603 293.4440308,450.0000305 295.125,450.0000305 295.125,448.4180603 296.0150146,448.4180603
			296.0150146,450.0000305 297.6960449,450.0000305 297.6960449,448.4180603 298.8829956,448.4180603 298.8829956,448.0220642
			300.2680054,448.0220642 300.2680054,446.3410339 298.8829956,446.3410339 298.8829956,445.4510193 300.2680054,445.4510193
			300.2680054,443.77005 298.8829956,443.77005 		"/>
		<polygon fill="#565440" points="348.7260132,442.4840393 337.1550293,442.4840393 337.1550293,443.77005 335.6719971,443.77005
			335.6719971,445.4510193 337.1550293,445.4510193 337.1550293,446.3410339 335.6719971,446.3410339 335.6719971,448.0220642
			337.1550293,448.0220642 337.1550293,448.4180603 338.0450439,448.4180603 338.0450439,450.0000305 339.8259888,450.0000305
			339.8259888,448.4180603 340.7160034,448.4180603 340.7160034,450.0000305 342.3970337,450.0000305 342.3970337,448.4180603
			343.2869873,448.4180603 343.2869873,450.0000305 344.9680176,450.0000305 344.9680176,448.4180603 345.8580322,448.4180603
			345.8580322,450.0000305 347.5390015,450.0000305 347.5390015,448.4180603 348.7260132,448.4180603 348.7260132,448.0220642
			350.1110229,448.0220642 350.1110229,446.3410339 348.7260132,446.3410339 348.7260132,445.4510193 350.1110229,445.4510193
			350.1110229,443.77005 348.7260132,443.77005 		"/>
		<polygon fill="#565440" points="317.9292603,378.0050354 296.7070313,378.0050354 296.3120117,378.0050354 293.7410278,378.0050354
			293.7410278,378.9898376 293.7410278,404.9870911 293.7410278,405.9718933 293.7410278,430.4190369 296.7070313,430.4190369
			296.7070313,405.9718933 317.9293213,405.9718933 317.9292603,397.7695007 316.944458,397.7695007 316.944458,404.9870911
			296.7070313,404.9870911 296.7070313,378.9940491 296.7070313,378.9898376 316.944458,378.9898376 316.944458,389.8908997
			317.9292603,389.8908997 317.9292603,388.7790833 324.5460205,388.7790833 324.5460205,387.794281 317.9292603,387.794281 		"/>
	</g>
	<g>
		<polygon fill="none" stroke="#565440" points="368.901001,348.6330566 368.901001,446.0440674 336.3640137,446.0440674 297.3009949,446.0440674
			214.625,446.0440674 214.625,307.4930725 213.1419983,307.4930725 213.1419983,447.5280762 297.3009949,447.5280762
			336.3640137,447.5280762 370.3840027,447.5280762 370.3840027,348.6330566 		"/>
		<polygon fill="none" stroke="#565440" points="349.9119263,419.1651611 349.9119263,428.44104 232.0310059,428.44104 232.0310059,306.9990234
			230.5469971,306.9990234 230.5469971,429.9240723 351.3959351,429.9240723 351.3959351,419.1651611 		"/>
	</g>
	<g>
		<path fill="none" stroke="#565440" d="M275.3460083,342.1060486c0-1.0880127,0.197998-1.9779968,0.5929871-2.9670105
			c0.3959961-0.9890137,0.9890137-1.8789978,1.6809998-2.5710144c0.6919861-0.7909851,1.5820007-1.3840027,2.5710144-1.7799988
			s1.9779968-0.5929871,3.0660095-0.5929871v7.9119873"/>
		<path fill="none" stroke="#565440" d="M272.2799988,321.7340698c-0.9890137,0-1.9779968-0.197998-2.9670105-0.5929871
			s-1.8789978-0.9890137-2.5710144-1.7799988c-0.6919861-0.6919861-1.3840027-1.5820007-1.7799988-2.5710144
			s-0.5929871-1.9779968-0.5929871-2.9670105h7.9119873"/>
		<path fill="none" stroke="#565440" d="M317.4750061,430.0230713c0,1.0880127-0.197998,1.9779968-0.5929871,2.9670105
			s-0.9890137,1.8789978-1.6809998,2.5710144c-0.6919861,0.7909851-1.5820007,1.3840027-2.5710144,1.7799988
			s-1.9779968,0.5929871-3.0660095,0.5929871v-7.9119873"/>
		<path fill="none" stroke="#565440" d="M275.4450073,430.0230713c0,1.0880127,0.197998,1.9779968,0.5929871,2.9670105
			s0.9890137,1.8789978,1.6809998,2.5710144c0.6919861,0.7909851,1.5820007,1.3840027,2.5710144,1.7799988
			s1.9779968,0.5929871,3.0660095,0.5929871v-7.9119873"/>
		<path fill="none" stroke="#565440" d="M311.9369507,340.5240479c0-1.4830017-0.2969971-2.7690125-0.7909851-4.1539917
			c-0.5929871-1.3840027-1.3840027-2.6700134-2.3729858-3.5599976c-0.9890137-1.0880127-2.1759949-1.9779968-3.5599976-2.4719849
			c-1.3840027-0.5929871-2.7690125-0.7909851-4.2529907-0.7909851v10.9769897"/>
		<path fill="none" stroke="#565440" d="M317.9292908,389.8908691c1.083313,0,1.969635,0.1969299,2.9544983,0.5909119
			c0.9848022,0.3939514,1.8710938,0.9847717,2.5605469,1.6742554c0.7878418,0.6893311,1.3787842,1.5757141,1.7726746,2.5605164
			s0.5909119,1.969635,0.5909119,3.052948h-7.87854 M335.0179749,386.8734131c1.0547791,0,1.9177246-0.2278748,2.8766479-0.6837463
			c0.9588623-0.45578,1.8217773-1.1395264,2.4930725-1.9371643c0.7670898-0.7976685,1.3424683-1.8233337,1.7259521-2.9628601
			c0.3835144-1.1395264,0.5753479-2.2790833,0.5753479-3.5325928h-7.670929 M333.6196289,364.8364868
			c0-0.9076538-0.196106-1.6502686-0.5884094-2.4754944c-0.3922119-0.8251343-0.9806213-1.5677185-1.6670227-2.1453857
			c-0.6864319-0.6601257-1.5690613-1.1552734-2.5496826-1.4852905s-1.9612732-0.4951172-3.039978-0.4951172v6.6012268
			 M324.3205566,388.7790833c0,0.9076538,0.196106,1.6502686,0.5884094,2.4754944
			c0.3922119,0.8251343,0.9806213,1.5677185,1.6670227,2.1453857c0.6864319,0.6601257,1.5690613,1.1552734,2.5496826,1.4852905
			s1.9612732,0.4951172,3.039978,0.4951172v-6.6012268 M354.7077942,330.1038208c0,1.083313,0.1969299,1.969635,0.5909119,2.9544067
			c0.3939514,0.9848022,0.9848022,1.8710938,1.6742554,2.5605469c0.6893311,0.7878418,1.5757446,1.3787842,2.5605164,1.7726746
			c0.9848022,0.3939819,1.969635,0.5909119,3.052948,0.5909119v-7.87854 M335.344696,330.1038208
			c0,1.083313-0.1969299,1.969635-0.5909119,2.9544067c-0.3939514,0.9848022-0.9847717,1.8710938-1.6742554,2.5605469
			c-0.6893311,0.7878418-1.5757141,1.3787842-2.5605164,1.7726746c-0.9848022,0.3939819-1.969635,0.5909119-3.0529175,0.5909119
			v-7.87854"/>
	</g>
</g>
<g>
	<g>
		<path fill="none" stroke="#565440" d="M413.4032898,355.6402588l15.4292908,3.5606079l-0.2966919,1.4836121l-15.4292908-3.5606079
			L413.4032898,355.6402588z"/>
		<path fill="none" stroke="#565440" d="M444.6574097,354.4533691l25.0231018,5.7365112l-0.2966919,1.4836121l-25.0231018-5.7365112
			L444.6574097,354.4533691z"/>
		<polygon fill="none" stroke="#565440" points="507.8580017,341.5956726 506.3743896,341.2989502 502.3193054,359.3986511 478.4830933,354.6512756
			478.2851868,356.1347656 503.5061035,361.1789551 503.605011,360.4866638 		"/>

			<rect x="496.434967" y="251.4685059" transform="matrix(0.2514896 -0.96786 0.96786 0.2514896 134.1491699 677.8798218)" fill="none" stroke="#565440" stroke-width="1.0000414" stroke-miterlimit="4.0001655" width="17.8104858" height="1.4814606"/>

			<rect x="496.4377441" y="316.4029236" transform="matrix(0.2514896 -0.96786 0.96786 0.2514896 71.3038559 726.4866333)" fill="none" stroke="#565440" stroke-width="1.0000414" stroke-miterlimit="4.0001655" width="17.8105774" height="1.4814758"/>

			<rect x="496.4362488" y="285.7495422" transform="matrix(0.2514896 -0.96786 0.96786 0.2514896 100.9709167 703.5407715)" fill="none" stroke="#565440" stroke-width="1.0000414" stroke-miterlimit="4.0001655" width="17.8105774" height="1.4814758"/>
	</g>
	<path fill="none" stroke="#565440" d="M464.8341064,316.3747559c0,1.0880127-0.1978149,1.9780884-0.5934143,2.9671936
		c-0.3955994,0.9890137-0.9890137,1.8792114-1.6813965,2.5715027c-0.6924133,0.7911987-1.582489,1.3847046-2.5715027,1.780304
		c-0.9891052,0.3955994-1.9780884,0.5934143-3.0661011,0.5934143v-7.9124146 M455.7348022,297.3849487
		c-1.0880127,0-1.9780884-0.1978149-2.9671936-0.5934143s-1.8792114-0.9890137-2.5715942-1.6813965
		c-0.7911987-0.6924133-1.3847046-1.582489-1.780304-2.5715942c-0.3955994-0.9890137-0.5934143-1.9780884-0.5934143-3.0661011
		h7.9124146 M450.3938904,262.9658508c-1.0880127,0-1.9780884-0.1978149-2.9671936-0.5934143
		s-1.8792114-0.9891052-2.5715942-1.6813965c-0.7911987-0.6924133-1.3847046-1.582489-1.780304-2.5715027
		s-0.5934143-1.9780884-0.5934143-3.0661316h7.9124146 M466.317688,277.9005737
		c0-1.0880127-0.1978149-1.9780884-0.5934143-2.9671936s-0.9890137-1.8792114-1.6813965-2.5715942
		c-0.6924133-0.7911987-1.582489-1.3847046-2.5715027-1.780304c-0.9891052-0.3955994-1.9780884-0.5934143-3.0661011-0.5934143
		v7.9124146 M422.9971008,289.8681641c-1.0880127,0-1.9780884,0.1978149-2.9671936,0.5934143
		c-0.9890137,0.3955994-1.8792114,0.9890137-2.5715027,1.6813965c-0.7911987,0.6924133-1.3847046,1.582489-1.780304,2.5715027
		c-0.3955994,0.9891052-0.5934143,1.9780884-0.5934143,3.0661011h7.9124146 M467.999115,300.6487732
		c1.1868896,0,2.1759033,0.1978149,3.2638855,0.5934143c1.0880127,0.3955994,1.9780884,1.0880127,2.6704102,1.780304
		c0.7912903,0.6924133,1.4836121,1.6813965,1.8792114,2.6704102c0.3955994,0.9891052,0.5934143,2.0769958,0.5934143,3.2638855
		h-8.4070129 M421.0190125,275.8235474c0-1.2857971-0.2966919-2.4726868-0.7911987-3.6594849
		c-0.4945068-1.1868896-1.1868896-2.3736877-2.1759033-3.2638855c-0.8901062-0.8901062-1.9780884-1.6813965-3.1650085-2.1759033
		c-1.1868896-0.4945068-2.4725952-0.7911987-3.7583923-0.7911987v9.8905945"/>
	<g>
		<polygon fill="#565440" points="405.5549011,352.9698486 405.5549011,278.7907715 411.3902893,278.7907715 411.3902893,275.8235474
			405.5549011,275.8235474 405.3570862,275.8235474 400.6095886,275.8235474 400.6095886,357.9150696 405.5549011,357.9150696
			410.8109131,357.9150696 413.2695007,358.508667 414.3575134,353.6621704 411.4891968,352.9698486 		"/>
		<polygon fill="#565440" points="429.2922058,355.9369507 428.2043152,360.7833557 431.0725098,361.475769 431.8940125,357.8162537
			445.1170959,357.8162537 445.1170959,351.8818665 429.2922058,351.8818665 		"/>
		<polygon fill="#565440" points="469.8434143,357.807373 468.953186,361.7724609 471.8215027,362.4648743 472.8651123,357.8162537
			484.6792908,357.8162537 484.6792908,351.8818665 469.8434143,351.8818665 		"/>
		<polygon fill="#565440" points="455.0075989,315.3857727 455.0075989,354.2556763 454.4142151,356.9260559 455.4032898,357.1238708
			455.9967041,354.4533691 455.9967041,316.3747559 456.9856873,316.3747559 456.9856873,315.3857727 455.9967041,315.3857727 		"/>
		<polygon fill="#565440" points="504.6582031,316.9683533 504.8559875,315.979248 502.4822083,315.3857727 468.0631104,315.3857727
			468.0631104,308.9568481 467.0740967,308.9568481 467.0740967,315.3857727 464.8981934,315.3857727 464.8981934,316.3747559
			502.2843933,316.3747559 		"/>
		<polygon fill="#565440" points="451.348114,262.9658508 450.3590088,262.9658508 450.3590088,277.8016663 431.2062988,277.8016663
			431.2062988,275.8235474 431.2062988,245.4596252 450.3590088,245.4596252 450.3590088,255.0534363 451.348114,255.0534363
			451.348114,245.4596252 508.5154114,245.4596252 508.5154114,242.4924316 428.2391052,242.4924316 428.2391052,275.8235474
			421.0830994,275.8235474 421.0830994,278.7907715 423.0611877,278.7907715 423.0611877,289.8681641 424.0502014,289.8681641
			423.9862061,278.7907715 435.3602905,278.7907715 435.4242859,303.5170593 424.0502014,303.5170593 424.0502014,297.7805481
			423.0611877,297.7805481 423.0611877,303.5170593 423.0611877,304.5061646 424.0502014,304.5061646 455.4032898,304.5061646
			455.8977966,304.5061646 456.3923035,304.5061646 456.3923035,297.3849487 455.4032898,297.3849487 455.4032898,303.5170593
			436.4133911,303.5170593 436.4133911,278.7907715 455.4032898,278.7907715 455.4032898,289.4724731 456.3923035,289.4724731
			456.3923035,278.7907715 458.5100098,278.7907715 458.5100098,277.8016663 451.348114,277.8016663 		"/>
		<polygon fill="#565440" points="504.8711853,278.7919617 505.8425903,278.7893677 508.2974854,279.3838501 508.2979126,279.3820496
			508.3012085,279.3828735 508.9935913,276.5145569 506.1253052,275.8221741 504.4613037,275.8221741 504.4613037,259.9998474
			504.4375,259.9998474 504.4375,259.9984741 498.512207,259.9984741 498.5114136,275.8235474 467.0740051,275.8235474
			467.0740051,277.8016663 466.3817139,277.8016663 466.3817139,278.7907715 467.0740051,278.7907715 467.0740967,278.7907715
			467.0740967,300.6494751 468.0631104,300.6494751 468.0631104,278.7907715 498.5114136,278.7907715 498.5114136,278.7919617 		"/>
		<polygon fill="#565440" points="504.4375,324.6088562 498.5031128,324.6088562 498.5031128,341.2599487 503.8891907,341.2599487
			508.2947998,342.2489624 508.9872131,339.3806763 504.4375,338.359375 		"/>
		<polygon fill="#565440" points="504.4375,295.2936707 505.0309143,292.8350525 500.1845093,291.7470703 499.5152893,294.6153564
			499.4921875,294.6153564 499.4921875,308.9973755 503.8891907,308.9973755 508.2947998,309.9863586 508.9872131,307.1180725
			504.4375,306.0967712 		"/>
	</g>
</g>
<g>
	<path fill="none" stroke="#565440" d="M428.2828979,224.8873291c-1.3429871,0-2.5447083,0.2120972-3.7463074,0.7068939
		c-1.2016907,0.4947968-2.3326111,1.2017059-3.1809082,2.1206055c-0.9895935,0.8482056-1.6965027,1.9792023-2.1913147,3.1808929
		s-0.7067871,2.473999-0.7067871,3.8170013h9.8252869 M488.868103,206.688736c0-1.0879974,0.1978149-2.0769958,0.5934143-3.0661011
		s0.9890137-1.9781036,1.6813965-2.6703949c0.6924133-0.7913055,1.582489-1.3847046,2.6704102-1.8791962
		c0.9891052-0.3955994,2.0769958-0.593399,3.1650085-0.593399v8.110199 M439.7120972,222.9092255
		c0-1.0879974-0.1978149-1.9781036-0.5934143-2.9671936c-0.3955994-0.9891052-0.9890137-1.8791962-1.6813965-2.5715027
		c-0.6924133-0.7911987-1.582489-1.3847046-2.5715027-1.780304c-0.9891052-0.3955994-1.9780884-0.593399-3.0661011-0.593399
		v7.8135071 M451.0862122,192.0507355c-0.9891052,0-1.9780884-0.1977997-2.8682861-0.593399
		s-1.8792114-0.8901978-2.5715942-1.6813965c-0.6924133-0.6923065-1.2857971-1.5825043-1.6813965-2.4725952
		c-0.3955994-0.8901978-0.5934143-1.9781036-0.5934143-2.9671936h7.8135071"/>
	<g>
		<polygon fill="#565440" points="503.3843994,212.0105286 508.2307129,213.0984344 508.9230957,210.2302246 504.3734131,209.2088318
			504.3734131,206.5894318 504.372406,206.5894318 504.3664856,195.7058258 498.4543152,195.7058258 498.4502869,206.5856323
			496.9783936,206.5897369 496.9783936,209.5569305 498.4490967,209.5582275 498.4482117,212.0105286 		"/>
		<polygon fill="#565440" points="504.3778992,241.584137 504.3778992,231.4399261 505.1691895,228.0111237 500.3486023,226.9231262
			499.4584045,230.6815338 499.4584045,242.4945374 472.6211853,242.4945374 472.6211853,242.4924316 431.2099915,242.4924316
			431.2099915,234.7045288 431.2062988,234.7045288 431.2062988,234.7025299 428.2391052,234.7025299 428.2391052,245.4596252
			428.2427979,245.4596252 428.2427979,245.4616241 508.4549866,245.4616241 508.4552917,245.461731 509.1476135,242.5934296 		"/>
		<polygon fill="#565440" points="504.3664856,176.8658295 504.372406,171.8740234 504.3664856,171.8740234 499.446991,171.8740234
			428.2391052,171.8740234 428.2391052,224.9863281 431.2062988,224.9863281 431.2062988,223.7004242 432.096405,223.7004242
			432.096405,222.7113342 431.2062988,222.7113342 431.2062988,209.5569305 450.9873047,209.5569305 450.9873047,222.7113342
			439.2175903,222.7113342 439.2175903,223.7004242 450.9873047,223.7004242 450.9873047,228.2501373 451.9764099,228.2501373
			451.9764099,209.5569305 488.868103,209.5569305 488.868103,206.5897369 451.9764099,206.5897369 451.9764099,191.7539368
			450.9873047,191.7539368 450.9873047,206.5897369 431.2062988,206.5897369 431.2062988,174.8412323 450.9873047,174.8412323
			450.9873047,184.6327362 451.9764099,184.6327362 451.9764099,174.8412323 493.4513855,174.8418274 493.4513855,174.8462372
			499.446991,174.8463287 499.446991,179.8975372 504.3664856,179.8975372 504.3664856,179.8894348 507.9271851,180.6888275
			508.6195068,177.8205261 		"/>
	</g>
	<g>

			<rect x="496.4318848" y="186.8219147" transform="matrix(0.2514896 -0.96786 0.96786 0.2514896 196.7156982 629.4881592)" fill="none" stroke="#565440" stroke-width="1.0000414" stroke-miterlimit="4.0001655" width="17.8104858" height="1.4814606"/>

			<rect x="497.4332886" y="219.6768646" transform="matrix(0.2514896 -0.96786 0.96786 0.2514896 165.0739594 654.2837524)" fill="none" stroke="#565440" stroke-width="1.0000414" stroke-miterlimit="4.0001655" width="16.2278442" height="1.4814606"/>
	</g>
</g>
<g>
	<g>
		<polygon fill="none" stroke="#565440" points="506.9762878,36.9702301 483.2390137,31.4315338 482.9422913,32.9151306 505.2950134,38.0581322
			502.7233887,49.2344322 502.7233887,67.8287277 504.2070007,67.8287277 504.2070007,49.2344322 		"/>
		<polygon fill="none" stroke="#565440" points="506.5806885,113.7208328 508.0643005,114.0175323 504.1080933,131.3260345 502.6245117,131.0293274
					"/>
		<polygon fill="none" stroke="#565440" points="506.5806885,83.0601273 508.0643005,83.3568268 504.1080933,100.665329 502.6245117,100.3686295
			"/>
		<polygon fill="none" stroke="#565440" points="433.588501,31.6293335 452.1827087,35.8822289 451.8859863,37.3658295 433.291687,33.1129303 		"/>
		<polygon fill="none" stroke="#565440" points="504.0559082,164.6789246 502.6221008,164.3063354 506.8725891,147.8587341 508.3063965,148.2314301
					"/>
	</g>
	<path fill="none" stroke="#565440" d="M441.1052856,118.6661301c0-1.0879974,0.1978149-1.9781036,0.5934143-2.9672012
		s0.9890137-1.8791962,1.6813965-2.5715027c0.6924133-0.7911987,1.582489-1.384697,2.5715027-1.7802963
		c0.9891052-0.3955994,1.9780884-0.593399,3.0661011-0.593399v7.9123993 M450.9957886,82.0711288
		c-1.0880127,0-1.9780884-0.1977997-2.9671936-0.593399c-0.9890137-0.3955994-1.8792114-0.9890976-2.5715027-1.6813965
		c-0.7911987-0.6922989-1.3847046-1.5824966-1.780304-2.5715027c-0.3955994-0.9890976-0.5934143-1.9781036-0.5934143-3.0661011
		h7.9124146 M452.973999,72.1805267c0-1.0879974,0.1978149-1.9781036,0.5934143-2.9672012
		c0.3955994-0.9889984,0.9890137-1.8792038,1.6813965-2.5715027c0.6924133-0.7911987,1.582489-1.384697,2.5715942-1.7802963
		c0.9890137-0.3955994,1.9780884-0.593399,3.0661011-0.593399v7.9123993 M470.7101135,74.1586304
		c1.0880127,0,1.9780884,0.1977997,2.9671936,0.593399s1.8792114,0.9890976,2.5715942,1.6813965
		c0.7911987,0.6922989,1.3847046,1.5824966,1.780304,2.5715027c0.3955994,0.9890976,0.5934143,1.9781036,0.5934143,3.0661011
		h-7.9124146 M431.2148132,126.5785294c1.2857971,0,2.4726868,0.2966995,3.6594849,0.7912979
		c1.1868896,0.4944992,2.3736877,1.1869049,3.2638855,2.1759033c0.8901062,0.8901978,1.6813965,1.9781036,2.1759033,3.1649933
		c0.4945068,1.1869049,0.7911987,2.4725952,0.7911987,3.7583923h-9.8905945 M451.490387,155.3600311
		c0.9890137,0,1.8792114,0.1977997,2.7692871,0.593399c0.8901062,0.3955994,1.780304,0.8901978,2.4725952,1.6813965
		c0.6924133,0.6923065,1.2857971,1.4835968,1.6813965,2.373703c0.3955994,0.8901978,0.5934143,1.8791962,0.5934143,2.8683014
		h-7.5167847 M489.0744934,140.2275238c0,1.0879974,0.1978149,1.9781036,0.5934143,2.9671936
		c0.3955994,0.9889984,0.9890137,1.8791962,1.6813965,2.5715027c0.6924133,0.7911987,1.582489,1.3847046,2.5715027,1.780304
		c0.9891052,0.3955994,1.9780884,0.593399,3.0661011,0.593399v-7.9123993"/>
	<g>
		<polygon fill="#565440" points="431.2091064,119.5541306 441.0996094,119.5541306 441.0996094,118.5651321 431.2091064,118.5651321
			431.2091064,100.8609314 450.9902039,100.8609314 450.9902039,118.5651321 449.012085,118.5651321 449.012085,119.5541306
			450.9902039,119.5541306 451.979187,119.5541306 451.979187,118.5651321 451.979187,82.0689316 450.9902039,82.0689316
			450.9902039,99.871933 431.2091064,99.871933 431.2091064,73.1674271 450.9902039,73.1674271 450.9902039,74.1564331
			451.979187,74.1564331 451.979187,73.1674271 452.9682922,73.1674271 452.9682922,72.1783295 431.2091064,72.1783295
			431.2091064,38.5505295 434.1763,38.5505295 435.7586975,31.824934 432.8905029,31.1326351 431.8432922,35.5833321
			431.2091064,35.5833321 428.2419128,35.5833321 428.2419128,126.5763321 431.2091064,126.5763321 		"/>
		<polygon fill="#565440" points="469.782196,72.1783295 460.8807068,72.1783295 460.8807068,73.1674271 469.782196,73.1674271
			469.782196,74.1852341 470.7713013,74.1852341 470.7713013,40.5286293 483.6289978,40.5286293 483.6289978,40.5064316
			483.7279053,40.5286293 485.7059937,31.824934 480.8595886,30.7369347 479.7582092,35.5833321 470.7713013,35.5833321
			449.012085,35.5833321 449.012085,38.5505295 469.782196,38.5505295 		"/>
		<polygon fill="#565440" points="505.167511,99.505127 500.3468933,98.4171295 499.4566956,102.1756287 499.4566956,115.0915298
			504.3763123,115.0915298 504.3763123,115.0835342 507.9368896,115.8828278 508.6292114,113.014534 504.3763123,112.0598297
			504.3763123,102.9339294 		"/>
		<polygon fill="#565440" points="470.7484131,82.0710297 469.7593079,82.0710297 469.7593079,83.5298309 462.8359985,83.5298309
			462.8359985,84.5188293 504.3763123,84.5107269 507.9368896,85.3100281 508.6292114,82.4418335 504.3763123,81.4871292
			504.3763123,66.8427277 498.4601135,66.8427277 498.4601135,83.5298309 470.7484131,83.5298309 		"/>
		<polygon fill="#565440" points="504.3724976,144.8334351 504.3728943,143.8898315 504.3729858,143.8898315 504.3729858,143.6712341
			504.3742981,140.4228363 504.3763123,140.4228363 504.3763123,131.0553284 498.4509888,131.0553284 498.4509888,137.4556274
			498.4509888,137.4556274 498.4509888,137.4559326 496.9812927,137.4559326 496.9812927,140.4228363 498.4509888,140.4228363
			498.4509888,140.4254303 498.4509888,140.4254303 498.4509888,147.7339325 503.819397,147.7339325 508.2265015,148.7232361
			508.2268066,148.7223358 508.2297974,148.7230377 508.9220886,145.8548279 		"/>
		<polygon fill="#565440" points="505.1599121,164.2475281 500.3392944,163.1595306 499.4490967,166.917923 499.4490967,171.8750305
			492.0260925,171.8750305 451.979187,171.8750305 451.979187,162.5780334 450.9902039,162.5780334 450.9902039,171.8750305
			431.2091064,171.8750305 431.2091064,145.8629303 450.9902039,145.8629303 450.9902039,155.5556335 451.979187,155.5556335
			451.979187,140.4231262 489.0687866,140.4231262 489.0687866,137.4559326 447.1328125,137.4559326 447.1328125,140.4231262
			450.9902039,140.4231262 450.9902039,144.8739319 431.2091064,144.8739319 431.2091064,136.4669342 428.2419128,136.4669342
			428.2419128,174.8422241 504.3760071,174.8421326 504.3738098,171.3872375 504.3709106,171.3872375 504.3687134,167.6763306 		"/>
	</g>
</g>
<g>
	<g>
		<path fill="none" stroke="#565440" d="M407.5734863,31.5308342l19.2865906,4.450695l-0.2966919,1.4836006l-19.2865906-4.5495987
			L407.5734863,31.5308342z"/>
		<path fill="none" stroke="#565440" d="M356.0437927,98.8854294h1.4836121v28.6826019h-1.4836121V98.8854294z"/>
		<polygon fill="none" stroke="#565440" points="356.0437927,30.6407337 356.0437927,59.7189293 357.5274048,59.7189293 357.5274048,32.6188316
			374.9346924,37.1684303 375.3304138,35.6849289 		"/>
	</g>
	<g>
		<polygon fill="#565440" points="428.8381958,35.5859299 428.244812,35.5859299 424.2885132,35.5859299 424.2885132,41.5203323
			428.244812,41.5203323 428.244812,76.1372299 405.4964905,76.1372299 405.4964905,77.1262283 408.4637146,77.1262283
			408.4637146,86.0277328 409.4526978,86.0277328 409.4526978,77.1262283 428.244812,77.1262283 428.244812,102.8417282
			409.4526978,102.8417282 409.4526978,93.8413315 408.4637146,93.8413315 408.4637146,103.8307343 409.4526978,103.8307343
			428.244812,103.8307343 428.244812,122.6227341 426.2666931,122.6227341 426.2666931,125.5899277 428.244812,125.5899277
			431.2119141,125.5899277 431.2119141,35.5859299 		"/>
		<polygon fill="#565440" points="359.8021851,99.874527 360.9890137,99.874527 395.6059875,99.874527 395.6059875,98.8854294
			395.6059875,88.0058289 394.6169128,88.0058289 394.6169128,98.8854294 382.3526001,98.8854294 382.3526001,77.1262283
			382.3526001,77.1262283 382.3526001,76.1372299 380.3745117,76.1372299 380.3745117,77.1262283 381.3635864,77.1262283
			381.3635864,98.8854294 360.9890137,98.8854294 360.9890137,77.1262283 372.8576965,77.1262283 372.8576965,76.1372299
			360.9890137,76.1372299 360.9890137,50.4218292 355.0546875,50.4218292 355.0546875,51.4108315 352.0875854,51.4108315
			352.0875854,54.3780289 355.0546875,54.3780289 355.0546875,66.2466278 352.0875854,66.2466278 352.0875854,69.213829
			355.0546875,69.213829 355.0546875,81.0825272 352.0875854,81.0825272 352.0875854,84.0496292 355.0546875,84.0496292
			355.0546875,96.9073334 352.0875854,96.9073334 352.0875854,99.874527 355.0546875,99.874527 		"/>
		<rect x="352.0875854" y="111.7431335" fill="#565440" width="6.9234009" height="2.9672012"/>
		<polygon fill="#565440" points="374.8357849,39.5422287 376.8139038,39.5422287 376.8139038,41.5203323 383.7373047,41.5203323
			383.7373047,39.5422287 394.6169128,39.5422287 394.6169128,80.0934296 395.6059875,80.0934296 395.6059875,77.1262283
			397.5841064,77.1262283 397.5841064,76.1372299 395.6059875,76.1372299 395.6059875,39.5422287 408.0538025,39.5422287
			408.4637146,39.6411324 410.243988,31.9264336 407.3757019,31.2341347 406.1431885,36.5750313 383.7373047,36.5750313
			378.9898071,36.5750313 375.0335999,34.9925308 373.9455872,37.7619324 374.8357849,38.1179314 		"/>
		<polygon fill="#565440" points="401.5403137,122.6227341 401.5403137,123.6118317 408.4637146,123.6118317 408.4637146,125.5899277
			408.4637146,138.4476318 405.4964905,138.4476318 402.5293884,138.4476318 402.5293884,152.2944336 372.8576965,152.2944336
			372.8576965,146.3601379 371.8687134,146.3601379 371.8687134,152.2944336 371.8687134,153.2835236 384.7264099,153.2835236
			384.7264099,154.2725372 385.7153931,154.2725372 385.7153931,153.2835236 402.5293884,153.2835236 402.5293884,168.1193237
			385.7153931,168.1193237 385.7153931,162.1850281 384.7264099,162.1850281 384.7264099,168.1193237 360.9890137,168.1193237
			360.9890137,147.3491364 363.9562073,147.3491364 363.9562073,146.3601379 360.9890137,146.3601379 360.9890137,126.5790329
			355.0546875,126.5790329 352.0875854,126.5790329 352.0875854,129.5461273 355.0546875,129.5461273 355.0546875,142.4039307
			352.0875854,142.4039307 352.0875854,145.3710327 355.0546875,145.3710327 355.0546875,171.0864258 357.0328064,171.0864258
			360.9890137,171.0864258 402.5293884,171.0864258 403.3205872,171.0864258 405.4964905,171.0864258 405.4964905,141.4148254
			408.4637146,141.4148254 411.4307861,141.4148254 411.4307861,125.5899277 416.3760986,125.5899277 416.3760986,122.6227341
			408.4637146,122.6227341 		"/>
	</g>
	<path fill="none" stroke="#565440" d="M405.4964905,76.1372299c0-1.0879974-0.1978149-1.9781036-0.5934143-2.9672012
		s-0.9890137-1.8791962-1.6813965-2.5715027c-0.6924133-0.7912979-1.582489-1.384697-2.5715942-1.7802963
		s-1.9780884-0.593399-3.0661011-0.593399v7.9123993 M394.6169128,80.0934296c-1.0880127,0-1.9780884,0.1977997-2.9671936,0.593399
		c-0.9890137,0.3955994-1.8792114,0.9890976-2.5715942,1.6813965c-0.7911987,0.6922989-1.384613,1.5824966-1.780304,2.5715027
		c-0.3955994,0.9890976-0.5934143,1.9781036-0.5934143,3.0661011h7.9124146 M408.4637146,93.8413315
		c-1.0880127,0-1.9780884-0.1977997-2.9671936-0.593399s-1.8792114-0.9890976-2.5715942-1.6813965
		c-0.7911987-0.6922989-1.3847046-1.5824966-1.780304-2.5715027c-0.3955994-0.9890976-0.5934143-1.9781036-0.5934143-3.0661011
		h7.9124146 M372.7587891,77.1262283c0,0.9890976,0.1978149,1.8792038,0.5934143,2.7694016s0.8901062,1.7802963,1.6813965,2.4726028
		c0.6924133,0.6922989,1.582489,1.2857971,2.4726868,1.6813965s1.8792114,0.593399,2.8682861,0.593399v-7.5167999
		 M371.8687134,146.3601379c0-1.0879974-0.1978149-1.9781036-0.5934143-2.9671936
		c-0.3955994-0.9891052-0.9890137-1.8791962-1.6813965-2.5715027c-0.6924133-0.7911987-1.582489-1.3847046-2.5715027-1.780304
		c-0.9891052-0.3955994-1.9780884-0.593399-3.0661011-0.593399v7.9123993 M384.7264099,162.1850281
		c-1.0880127,0-1.9780884-0.1977997-2.9671936-0.593399c-0.9890137-0.3955994-1.8792114-0.9889984-2.5715027-1.6813965
		c-0.7911987-0.6923065-1.3847046-1.5825043-1.780304-2.5715027c-0.3955994-0.9891052-0.5934143-1.9781036-0.5934143-3.0661011
		h7.9124146 M416.3760986,122.6227341c0-1.2857971,0.2966919-2.4726028,0.7911987-3.6595001s1.1868896-2.373703,2.1759033-3.2639008
		c0.8901978-0.8901978,1.9780884-1.6813965,3.1650085-2.1759033c1.1868896-0.4944992,2.4725952-0.7911987,3.7583923-0.7911987
		v9.8905029"/>
</g>
<g >
	<path data-nr="2" class="plan__svg__hoverable" fill="none" d="M327.8557129,122.7216339v-1.6813965h-1.4836121v-1.1868973h-0.3955994v-1.384697
		h-1.780304v1.1869965h-0.8901062v-1.1869965h-1.6813965v1.1869965h-36.2983093v-1.2858963h-1.6813965v1.2858963h-0.8901978
		v-1.2858963h-1.6813965v1.2858963h-0.8901062v-1.2858963h-1.6813965v1.2858963h-0.8901978v-1.2858963h-1.6813965v1.2858963
		h-32.1443024v-1.2858963h-1.6813965v1.2858963h-0.8901062v-1.2858963h-1.6813965v1.2858963h-0.8901978v-1.2858963h-1.6813965
		v1.2858963h-0.9891052v-1.2858963h-1.6813965v1.2858963h-21.6600952v12.6598053h-0.2969055v0.9891052h-1.4835968v1.6813965
		h1.4835968v0.8901978h-1.4835968v1.6813965h1.4835968v0.8901978h-1.4835968v1.6813965h1.4835968v0.8901978h-1.4835968v1.6813965
		h1.4835968v1.1869049h0.2969055v30.1661987h-0.2969055v0.9891052h-1.4835968v1.6813965h1.4835968v0.8901978h-1.4835968v1.6813965
		h1.4835968v0.8901978h-1.4835968v1.6813965h1.4835968v0.8901978h-1.4835968v1.6813965h1.4835968v1.1869049h0.2969055v50.8374023
		h-0.2969055v0.9891052h-1.4835968v1.6813965h1.4835968v0.8901062h-1.4835968v1.6813965h1.4835968v0.8901062h-1.4835968v1.6813965
		h1.4835968v0.9889984h-1.4835968v1.6813965h1.4835968v1.0879974h0.2969055v19.3854218h-0.2969055v0.9890137h-1.4835968v1.6813965
		h1.4835968v0.9891052h-1.4835968v1.6813965h1.4835968v0.8901062h-1.4835968v1.6813965h1.4835968v0.8901978h-1.4835968v1.6813965
		h1.4835968v1.0880127h0.2969055v26.6055908h-0.0001984v2.9671936h83.0805969h2.9671936v-1.582489v-1.3847046v-51.7283325
		h10.2862854v-0.4945068c0-1.2807007-0.2868042-2.6454926-0.8297119-3.9485016
		c-0.4862976-1.1678009-1.2755127-2.3171997-2.2645874-3.3052063c-0.8291931-0.921402-1.9867859-1.6959991-3.4414063-2.302597
		c-1.3215942-0.550293-2.5167847-0.8099976-3.7507019-0.8235016v-8.0164032v-30.2651062h26.7044983v-2.9671936v-46.4855957
		h0.9890137v-1.3847046h1.4836121v-1.6813965h-1.4836121v-0.9891052h1.4836121v-1.6813965h-1.4836121v-0.8901978h1.4836121
		v-1.6813965h-1.4836121v-0.8901978h1.4836121v-1.6813965h-1.4836121v-0.8901978h1.4836121v-1.6813965h-1.4836121v-0.9891052
		h1.4836121v-1.6813965h-1.4836121v-0.8901978h1.4836121v-1.6813965h-1.4836121v-0.8901978h1.4836121v-1.6813965h-1.4836121
		v-0.8901978h1.4836121v-1.6813965h-1.4836121v-0.8901978h1.4836121v-1.6813965h-1.4836121v-0.9890976h1.4836121v-1.6813965
		h-1.4836121v-0.8901978h1.4836121v-1.6813965h-1.4836121v-0.8901978L327.8557129,122.7216339L327.8557129,122.7216339z
		 M305.153595,246.8018341c0.9161987,0.9167023,1.6312866,1.9559021,2.0689087,3.0057983
		c0.4230042,1.0151978,0.6745911,2.0679016,0.737915,3.0733948h-9.2817993v-8.8961029
		c1.0992126,0.0135956,2.1736145,0.2492065,3.3700867,0.7480011
		C303.3666077,245.2816315,304.4053955,245.9712372,305.153595,246.8018341z"/>
	<path data-nr="1" class="plan__svg__hoverable" fill="none" d="M372.3631897,328.3461609v-1.6813965h-1.4836121v-14.539093v-4.9453125h-4.9453125
		h-44.5073853v4.3518066v0.5934143v27.8913879h-9.0233154c-0.0538025-1.2244873-0.2986145-2.4292908-0.8085938-3.8543091
		c-0.6867065-1.6033936-1.5270081-2.8599854-2.4620056-3.6983948c-1.1290894-1.2412109-2.3938904-2.1181946-3.7320862-2.5953064
		c-1.3237915-0.5668945-2.7367859-0.8305969-4.4473877-0.8305969h-0.4945068v10.9786987h-0.7615967h-1.0187073v-31.5508118
		v-0.9890137v-0.2966919v-1.6813965h-86.047699v2.9671936h0.0001984v24.1329041h-0.2969055v0.9890137h-1.4835968v1.6813965
		h1.4835968v0.8901062h-1.4835968v1.6813965h1.4835968v0.8901062h-1.4835968v1.6813965h1.4835968v0.9890137h-1.4835968v1.6813965
		h1.4835968v1.0880127h0.2969055v48.4636841h-0.2969055v0.9891052h-1.4835968v1.6813965h1.4835968v0.8901062h-1.4835968v1.6813965
		h1.4835968v0.8901978h-1.4835968v1.6813965h1.4835968v0.8901062h-1.4835968v1.6813965h1.4835968v1.1868896h0.2969055v20.7701111
		h-0.2969055v0.9890137h-1.4835968v1.6813965h1.4835968v0.8901062h-1.4835968v1.6813965h1.4835968v0.9891052h-1.4835968v1.6813965
		h1.4835968v0.8901062h-1.4835968v1.6813965h1.4835968v1.0880127h0.2969055v11.4725952h18.2973022v0.0003967h1.4835968v0.3955994
		h0.9891052v1.5826721h1.6813965v-1.582489h0.8901978v1.582489h1.6813965v-1.582489h0.8901978v1.582489h1.6813965v-1.582489
		h0.8901978v1.582489h1.780304v-1.582489h1.0879974v-0.3955994h1.3847046v-0.0003967h40.4523163v0.0003967h1.4836121v0.3955994
		h0.9891052v1.582489h1.6813965v-1.582489h0.8901062v1.582489h1.6813965v-1.582489h0.8901062v1.582489h1.6813965v-1.582489
		h0.8901062v1.582489h1.6813965v-1.582489h1.1868896v-0.3955994h1.3847046v-0.0003967h35.4081116v0.0003967h1.4836121v0.3955994
		h0.8901062v1.582489h1.780304v-1.582489h0.8901062v1.582489h1.6813965v-1.582489h0.8901062v1.582489h1.6813965v-1.582489h0.8901062
		v1.582489h1.6813965v-1.582489h1.1868896v-0.3955994h1.3847046v-0.0003967h20.7703857v-12.4617004h1.4833984v-1.6813965h-1.4833984
		v-0.8901062h1.4833984v-1.6813965h-1.4833984v-0.8901978h1.4833984v-1.6813965h-1.4833984v-0.9890137h1.4833984v-1.6813965
		h-1.4833984v-18.6930847h1.4833984v-1.6813965h-1.4833984v-0.9890137h1.4833984v-1.6813965h-1.4833984v-0.8901062h1.4833984
		v-1.6813965h-1.4833984v-0.8901062h1.4833984v-1.6813965h-1.4833984v-0.8901062h1.4833984v-1.6813965h-1.4833984v-0.8901062
		h1.4833984v-1.6813965h-1.4833984v-0.9890137h1.4833984v-1.6813965h-1.4833984v-0.8901062h1.4833984v-1.6813965h-1.4833984
		v-0.8901062h1.4833984v-1.6813965h-1.4833984v-0.8905945h1.4833984v-1.6813965h-1.4833984v-12.5610046h1.4833984v-1.6813965
		h-1.4833984v-0.8901062h1.4833984v-1.6813965h-1.4833984v-16.4183044h1.4833984v-1.6813965h-1.4836121v-0.8901062h1.4836121
		v-1.6813965h-1.4836121v-0.8901978h1.4836121v-1.6813965h-1.4836121v-0.9890137h1.4836121v-1.6813965h-1.4836121v-0.8901062
		h1.4836121v-1.6813965h-1.4836121v-0.8901062h1.4836121v-1.6813965h-1.4836121v-0.8901978h1.4836121v-1.6813965h-1.4836121
		v-0.9890137h1.4836121v-1.6813965h-1.4836121v-0.8901062h1.4832764V328.3461609z M305.0400085,330.7893677
		c1.2117004,0.4327087,2.342804,1.2199097,3.3959961,2.374115c0.8510132,0.7669067,1.6289978,1.9385071,2.2388916,3.3602905
		c0.4656982,1.3034973,0.6877136,2.379303,0.7398987,3.493103h-9.9668884v-9.9809875
		C302.8002014,330.0814514,303.9461975,330.3218689,305.0400085,330.7893677z"/>
	<path data-nr="6" class="plan__svg__hoverable" fill="none" d="M504.4374084,306.0967712v-10.8031006l0.5935059-2.4585876l-0.0498962-0.0112
		l3.9223022-15.0950012l-0.1908875-0.0495911l0.2810974-1.1647949l-2.8681946-0.6922913h-1.6640015v-15.2806091
		l3.9189148-15.0820313h0.1351929V244.93927l0.3879089-1.4927063l-0.3879089-0.1006012v-0.8535004h-80.2763977v33.3311462
		h-6.7204895c0-1.2715149-0.2637024-2.4950867-0.8291016-3.8515015c-0.6054993-1.4541016-1.3799133-2.6133118-2.2842102-3.4258118
		c-1.0058899-1.0058899-2.155304-1.7948914-3.3262024-2.2842102c-1.3027039-0.5419922-2.6689148-0.8291016-3.9501953-0.8291016h-0.5
		v10.3905945h-5.0740051h-0.1978149h-1.8969116h-2.8504944v82.0915833h4.9453125h5.256012l2.4585876,0.5935059l0.1781006-0.7933044
		l15.4782104,3.5722046l0.0629883-0.3146973l2.0837097,0.5029907l0.8215027-3.6594849h13.2229919v-1.1925964l24.6564026,5.6521912
		l0.0582886-0.2912903l1.9898071,0.4802856l1.0436096-4.6485901h11.2762146l19.7844849,3.956604l0.1669922-1.1767883
		l4.1347961-18.3622131l0.0671997,0.0151062l0.6922913-2.8682861l-4.5497131-1.0213013v-12.7904358l4.4659119-17.1859131
		l-0.2084961-0.0541992l0.2922974-1.210907L504.4374084,306.0967712z M414.6943054,267.1859741
		c1.0508118,0.4385071,2.0898132,1.1532898,3.0224915,2.085907c0.8125,0.7304993,1.5010071,1.7685852,2.0487976,3.0849915
		c0.5137024,1.2304993,0.7528992,2.3320007,0.7528992,3.4667053h-8.8895874v-9.3749084
		C412.6318054,266.5120544,413.6816101,266.7640686,414.6943054,267.1859741z"/>
	<path data-nr="5" class="plan__svg__hoverable" fill="none" d="M504.3778992,241.5840302v-10.1441956l0.7912903-3.4288025l-0.2905884-0.0655975
		l4.0343933-15.5247955l-0.4880981-0.1268005l0.4981079-2.0637054l-4.5497131-1.0213928v-2.6192932h-0.0010071
		l-0.0057068-10.3309937l4.5365906-17.4593048l-0.4892883-0.1271057l0.2055054-0.8515015l-4.2529907-0.9546967l0.0058899-4.991806
		h-0.0058899h-4.9195862h-71.2079163v52.5153961c-1.4327087,0.0048981-2.6719055,0.2397003-3.8934021,0.7422028
		c-1.3583984,0.5601044-2.5185852,1.3354034-3.3153992,2.203598c-0.9638977,0.8262024-1.7479858,1.9604034-2.3291016,3.3706055
		c-0.5,1.2167969-0.7431946,2.527298-0.7431946,4.0068054v0.5h10.2810974v10.2469025h0.0038147v0.0019989h80.2120972
		l0.0003052,0.0001068l0.6922913-2.8683014L504.3778992,241.5840302z M419.6260071,231.0862274
		c0.5205078-1.2626953,1.2119141-2.2689972,2.0967102-3.032196c0.7412109-0.8022003,1.7792969-1.4931946,3.0039063-1.9976044
		c1.1094055-0.4564972,2.2392883-0.6688995,3.5566101-0.6688995v8.8251953h-9.3145142
		C419.0166016,233.0696259,419.2333984,232.0423279,419.6260071,231.0862274z"/>
	<polygon data-nr="4" class="plan__svg__hoverable" fill="none" points="508.4634094,147.7552338 508.9220886,145.8547363 504.3724976,144.8334351
		504.3728943,143.8898315 504.3729858,143.8898315 504.3729858,143.6712341 504.3742981,140.4228363 504.3763123,140.4228363
		504.3763123,131.8897247 504.4873047,131.9119263 508.6659851,113.6277313 508.4896851,113.5925293 508.6292114,113.014534
		504.3763123,112.0598297 504.3763123,102.9339294 505.167511,99.505127 504.9000854,99.4448318 508.6659851,82.9671326
		508.5098877,82.9359283 508.6292114,82.4418335 504.3763123,81.4871292 504.3763123,68.3289337 504.7070007,68.3289337
		504.7070007,49.290329 507.5732117,36.5960312 482.8505859,30.8275337 482.782196,31.1685352 480.8595886,30.7369347
		479.7582092,35.5833321 470.7713013,35.5833321 452.7525024,35.5833321 452.7685852,35.503231 433.1991882,31.027235
		433.1648865,31.1988335 432.8905029,31.1326351 431.8432922,35.5833321 431.2091064,35.5833321 428.2419128,35.5833321
		428.2419128,121.7804337 428.2419128,126.5764313 428.2419128,136.4669342 428.2419128,141.9890289 428.2419128,173.7374268
		428.2419128,174.8422241 504.3760071,174.8422241 504.3738098,171.3872375 504.3707886,171.3872375 504.3687134,167.6763306
		505.1599121,164.2475281 504.7095032,164.1459351 508.9159851,147.8729248 	"/>
	<polygon data-nr="3" class="plan__svg__hoverable" fill="none" points="428.244812,35.5859299 428.244812,35.5859299 427.3546143,35.5859299
		407.177887,30.9374352 406.6832886,33.3111305 406.8811951,33.3111305 406.1888123,36.5750313 383.7373047,36.5750313
		383.7373047,36.5750313 378.9898071,36.5750313 375.9237976,35.3881302 375.9237976,35.2892303 375.8248901,35.2892303
		375.0335999,34.9925308 375.0335999,35.0914307 355.5492859,30.0472336 355.5492859,50.4218292 355.0546875,50.4218292
		355.0546875,51.4108315 352.0875854,51.4108315 352.0875854,54.3780289 355.0546875,54.3780289 355.0546875,66.2466278
		352.0875854,66.2466278 352.0875854,69.213829 355.0546875,69.213829 355.0546875,81.0825272 352.0875854,81.0825272
		352.0875854,84.0496292 355.0546875,84.0496292 355.0546875,96.9073334 352.0875854,96.9073334 352.0875854,99.874527
		355.0546875,99.874527 355.0546875,99.874527 355.5492859,99.874527 355.5492859,111.7431335 352.0875854,111.7431335
		352.0875854,114.7103271 355.5492859,114.7103271 355.5492859,126.5790329 355.0546875,126.5790329 355.0546875,126.5790329
		352.0875854,126.5790329 352.0875854,129.5461273 355.0546875,129.5461273 355.0546875,142.4039307 352.0875854,142.4039307
		352.0875854,145.3710327 355.0546875,145.3710327 355.0546875,171.0864258 357.0328064,171.0864258 357.0328064,171.0864258
		403.3205872,171.0864258 403.3205872,171.0864258 405.4964905,171.0864258 405.4964905,141.4148254 408.4637146,141.4148254
		411.4307861,141.4148254 411.4307861,125.5899277 416.3760986,125.5899277 426.2666931,125.5899277 426.7612,125.5899277
		428.244812,125.5899277 431.2119141,125.5899277 431.2119141,35.5859299 	"/>
</g>
<g >
	<rect x="355" y="-0.0001664" fill="none" width="10" height="10"/>
	<rect x="180.8506012" y="235.0000305" fill="none" width="10" height="10"/>
	<rect x="355" y="469.9997559" fill="none" width="10" height="10"/>
	<rect x="529.147583" y="235.0000305" fill="none" width="10" height="10"/>
</g>
</svg>
