<!-- DO NOT EDIT THIS, THIS FILE IS GENERATED FROM "1_38.original.svg" using transform-svgs.js script -->



<svg version="1.1" 
	 xmlns="http://www.w3.org/2000/svg" xmlns:xlink="http://www.w3.org/1999/xlink" x="0px" y="0px" viewBox="0 0 720 480"
	 style="enable-background:new 0 0 720 480;" xml:space="preserve">


<g>
	<polygon fill="#DBD4CA" points="357.8999939,31.699955 358,151.4999695 325.7999878,151.4999695 325.7000122,115.0999451
		211.8000031,115.0999451 211.8000031,449.499939 372.2000122,449.499939 372.2000122,325.8999329 371.3999939,323.2999268
		403.5,323.2999268 403.5,323.499939 405.1000061,323.499939 405.1000061,356.0999451 506,356.0999451 506,31.699955 	"/>
	<path fill="#565440" d="M506.4000244,29.9999561h-2.5H362.6000366H356.5v2.9999981v12.0999756h-2.9909058v3H356.5
		V60.299942h-2.9909058v3H356.5v12.0999756h-2.9909058v3H356.5v13.2000122h-2.9909058v3H356.5v12.1000366h-2.9909058v3H356.5
		v12.1999512h-2.9909058v3H356.5v13.1000366h-2.9909058v3H356.5v10.2000122h-31.7000122v1H356.5v12.0999756h-33.3999634v3H356.5h2h2
		h2.1000366h68.5999756v106.9999542h-23.2999878h-1.6000366h-3.3999634v47.5h-30.7000122v3h30.7000122v33.2999878h4.2000122
		v0.000061h96.7999878h2.5h2.5V29.9999561H506.4000244z M407.9000244,353.0999451v-75.8000488h23.2999878h3v-3V167.299942v-3
		h-71.5999756V32.9999542h141.2999878v320.0999756H407.9000244z"/>
</g>
<g>
	<g>
		<polygon fill="#565440" points="262,198.5999756 261.7000122,198.5999756 261.7000122,197.3999634 260.7000122,197.3999634
			260.7000122,198.5999756 217.2000122,198.5999756 217.2000122,193.5999756 211.1000366,193.5999756 211.1000366,198.5999756
			211.1000366,201.5999756 262,201.5999756 		"/>
		<polygon fill="#565440" points="217.2000122,172.2999268 216.1000366,172.2999268 216.1000366,163.8999634 260.7000122,163.8999634
			260.7000122,189.499939 261.7000122,189.499939 261.7000122,163.8999634 263.7000122,163.8999634 263.7000122,162.8999634
			216.1000366,162.8999634 216.1000366,151.0999756 211.1000366,151.0999756 211.1000366,172.2999268 211.1000366,178.1999512
			211.1000366,179.3999634 217.2000122,179.3999634 		"/>
		<polygon fill="#565440" points="217.2000122,129.999939 211.1000366,129.999939 211.1000366,136.999939 211.1000366,137.0999756
			217.2000122,137.0999756 		"/>
		<polygon fill="#565440" points="241.4000244,119.8999557 262.5,119.8999557 262.5,114.8999557 241.4000244,114.8999557
			241.4000244,114.7999802 234.2999878,114.7999802 234.2999878,120.8999557 241.4000244,120.8999557 		"/>
		<polygon fill="#565440" points="321.2000122,129.999939 321.2000122,175.499939 297.2999878,175.499939 296.2999878,175.499939
			293.5,175.499939 293.5,176.499939 296.2999878,176.499939 296.2999878,179.3999634 297.2999878,179.3999634
			297.2999878,176.499939 321.2000122,176.499939 321.2000122,198.5999756 298.9000244,198.5999756 297.2999878,198.5999756
			297.2999878,188.2999878 296.2999878,188.2999878 296.2999878,198.5999756 295.9000244,198.5999756 295.9000244,201.5999756
			295.9000244,202.999939 275.7000122,202.999939 275.7000122,176.499939 276.7000122,176.499939 277.7000122,176.499939
			285.9000244,176.499939 285.9000244,175.499939 277.7000122,175.499939 277.7000122,174.3999634 276.7000122,174.3999634
			276.7000122,175.499939 275.7000122,175.499939 275.7000122,175.3999634 274.7000122,175.3999634 274.7000122,175.499939
			274.7000122,176.499939 274.7000122,212.6999512 275.7000122,212.6999512 275.7000122,203.999939 295.9000244,203.999939
			295.9000244,224.0999756 275.7000122,224.0999756 275.7000122,220.5999756 274.7000122,220.5999756 274.7000122,237.999939
			274.7000122,238.999939 275.7000122,238.999939 276.5,238.999939 276.5,237.999939 275.7000122,237.999939
			275.7000122,225.0999756 295.9000244,225.0999756 295.9000244,237.999939 283.5,237.999939 283.5,238.999939
			295.9000244,238.999939 295.9000244,239.8999634 298.9000244,239.8999634 298.9000244,201.5999756 326.2000122,201.5999756
			326.2000122,198.6999512 326.2000122,198.5999756 326.2000122,129.999939 		"/>
		<polygon fill="#565440" points="276.7000122,166.3999634 277.7000122,166.3999634 277.7000122,120.8999557 283.8000488,120.8999557
			283.8000488,119.8999557 303.6000366,119.8999557 303.6000366,114.8999557 283.8000488,114.8999557 283.8000488,114.7999802
			276.7000122,114.7999802 276.7000122,119.8999557 276.7000122,120.8999557 276.7000122,162.8999634 271.2000122,162.8999634
			271.2000122,163.8999634 276.7000122,163.8999634 		"/>
		<rect x="211.1000366" y="214.7999878" fill="#565440" width="5" height="7.0999756"/>
		<rect x="211.1000366" y="235.999939" fill="#565440" width="6.0999756" height="7.1000366"/>
		<polygon fill="#565440" points="295.9000244,257.6999512 282.4000244,257.6999512 282.4000244,258.6999512 295.9000244,258.6999512
			295.9000244,269.2999268 274.2999878,269.2999268 274.2999878,258.6999512 274.9000244,258.6999512 274.9000244,257.6999512
			274.2999878,257.6999512 273.2999878,257.6999512 273.2999878,258.6999512 273.2999878,269.2999268 217.2000122,269.2999268
			217.2000122,265.7999268 216.1000366,265.7999268 216.1000366,256.8999634 211.1000366,256.8999634 211.1000366,265.7999268
			211.1000366,266.5999756 211.1000366,272.2999268 216.4000244,272.2999268 217.2000122,272.2999268 298.9000244,272.2999268
			298.9000244,269.2999268 298.9000244,249.8999634 295.9000244,249.8999634 		"/>
	</g>
	<g>
		<polygon fill="none" stroke="#565440" points="324.2000122,115.2999496 211.6000061,115.2999496 211.6000061,194.0999756
			213.1000061,194.0999756 213.1000061,116.7999496 324.2000122,116.7999496 324.2000122,130.4999695 325.7000122,130.4999695
			325.7000122,115.2999496 		"/>
		<path fill="none" stroke="#565440" d="M211.6000061,201.0999756h1.5v56.4999695h-1.5V201.0999756z"/>
	</g>
	<g>
		<path fill="none" stroke="#565440" d="M274.7999878,220.7999725c-1.1000061,0-2-0.1999969-3-0.6000061
			c-1-0.3999939-1.8999939-1-2.6000061-1.6999969c-0.7999878-0.6999969-1.3999939-1.6000061-1.7999878-2.6000061
			s-0.6000061-2-0.6000061-3.1000061h8.1000061"/>
		<path fill="none" stroke="#565440" d="M283.8999939,238.5999756c0,1.1000061-0.2000122,2-0.6000061,3s-1,1.8999939-1.7000122,2.6000061
			c-0.7000122,0.8000031-1.6000061,1.3999939-2.6000061,1.8000031c-1,0.3999939-2,0.6000061-3.1000061,0.6000061v-8.1000061"/>
		<path fill="none" stroke="#565440" d="M283,257.7999268c0-1.1000061-0.2000122-1.9999695-0.6000061-2.9999695s-1-1.8999939-1.7000122-2.6000061
			c-0.7000122-0.8000031-1.6000061-1.3999939-2.6000061-1.8000031c-1-0.3999939-2-0.6000061-3.1000061-0.6000061v8.0999603"/>
		<path fill="none" stroke="#565440" d="M298.7999878,249.8999634c1.2999878,0,2.5-0.3000031,3.7000122-0.8000031
			s2.3999939-1.1999969,3.2999878-2.1999969c0.8999939-0.8999939,1.7000122-2,2.2000122-3.1999969
			s0.7999878-2.5,0.7999878-3.8000031h-10.1000061"/>
		<path fill="none" stroke="#565440" d="M263.2999878,163.1999664c0-1.1000061,0.2000122-2,0.6000061-3s1-1.8999939,1.7000122-2.6000061
			c0.7000122-0.8000031,1.6000061-1.3999939,2.6000061-1.8000031c1-0.3999939,2-0.6000061,3.1000061-0.6000061v8.1000061"/>
		<path fill="none" stroke="#565440" d="M276.7000122,174.3999634c-1.1000061,0-2-0.1999969-3-0.6000061
			c-1-0.3999939-1.8999939-1-2.6000061-1.6999969c-0.7999878-0.6999969-1.3999939-1.6000061-1.7999878-2.6000061
			s-0.6000061-2-0.6000061-3.1000061h8.1000061"/>
		<path fill="none" stroke="#565440" d="M260.7999878,197.4999695c-1.1000061,0-2-0.1999969-3-0.6000061
			c-1-0.3999939-1.8999939-1-2.6000061-1.6999969c-0.8000031-0.6999969-1.3999939-1.6000061-1.8000031-2.6000061
			c-0.3999939-1-0.6000061-2-0.6000061-3.1000061h8.0999908"/>
		<path fill="none" stroke="#565440" d="M285.7999878,175.8999634c0-1.1000061,0.2000122-2,0.6000061-3s1-1.8999939,1.7000122-2.6000061
			c0.7000122-0.8000031,1.6000061-1.3999939,2.6000061-1.8000031s2-0.6000061,3.1000061-0.6000061v8.1000061"/>
	</g>
</g>
<g>
	<path fill="none" stroke="#565440" d="M211.6000061,270.2999268h1.5v51h-1.5V270.2999268z"/>
	<g>
		<polygon fill="#565440" points="211.1000366,299.5999756 211.1000366,306.999939 216.1000366,306.999939 216.1000366,305.5999756
			256.6000366,305.5999756 256.6000366,304.5999756 216.1000366,304.5999756 216.1000366,299.5999756 		"/>
		<polygon fill="#565440" points="295.9000244,338.8999634 274.9000244,338.8999634 274.9000244,320.499939 273.9000244,320.499939
			273.9000244,338.8999634 217.2000122,338.8999634 217.2000122,331.0999756 216.1000366,331.0999756 216.1000366,320.499939
			211.1000366,320.499939 211.1000366,331.0999756 211.1000366,333.2999268 211.1000366,341.999939 217.2000122,341.999939
			217.2000122,341.8999634 298.9000244,341.8999634 298.9000244,338.999939 298.9000244,338.8999634 298.9000244,319.5999756
			295.9000244,319.5999756 		"/>
		<polygon fill="#565440" points="211.0999756,269.2999268 211.0999756,272.2999268 211.1000366,272.2999268 211.1000366,273.8999634
			211.1000366,275.499939 211.1000366,284.8999634 216.1000366,284.8999634 216.1000366,275.499939 217.2000122,275.499939
			217.2000122,272.2999268 272.4000244,272.2999268 272.4000244,304.5999756 264.7000122,304.5999756 264.7000122,305.5999756
			272.4000244,305.5999756 273.4000244,305.5999756 274.6000366,305.5999756 274.6000366,304.5999756 273.4000244,304.5999756
			273.4000244,272.2999268 295.9000244,272.2999268 295.9000244,304.5999756 282.6000366,304.5999756 282.6000366,305.5999756
			295.9000244,305.5999756 295.9000244,309.499939 298.9000244,309.499939 298.9000244,272.2999268 298.9000244,269.2999268 		"/>
	</g>
	<path fill="none" stroke="#565440" d="M256.6000061,304.5999451c0-1.1000061,0.2000122-2,0.6000061-3s1-1.8999939,1.7000122-2.6000061
		c0.7000122-0.7999878,1.6000061-1.3999939,2.6000061-1.7999878s2-0.6000061,3.1000061-0.6000061v8.1000061
		 M282.7000122,304.5999451c0-1.1000061-0.2000122-2-0.6000061-3s-1-1.8999939-1.7000122-2.6000061
		c-0.7000122-0.7999878-1.6000061-1.3999939-2.6000061-1.7999878s-2-0.6000061-3.1000061-0.6000061v8.1000061
		 M298.8999939,309.499939c1.2999878,0,2.5,0.2999878,3.7000122,0.7999878S305,311.499939,305.8999939,312.499939
		c0.8999939,0.8999939,1.7000122,2,2.2000122,3.2000122s0.7999878,2.5,0.7999878,3.7999878h-10.1000061"/>
</g>
<g>
	<g>
		<path fill="none" stroke="#565440" d="M213.1188812,340.5241089h-1.5140228v108.9114685h84.7874451v-1.5140076H213.118988
			L213.1188812,340.5241089L213.1188812,340.5241089z"/>
		<path fill="none" stroke="#565440" d="M370.5812073,447.9215698h-73.0786438v1.5140076h74.5926819V348.49823h-1.5140076v99.4233398
			H370.5812073z"/>
	</g>
	<g>
		<polygon fill="#565440" points="217.1563873,341.9373474 273.0757141,341.9373474 273.0757141,358.0873413 273.0757141,359.0966187
			273.0757141,359.0966797 281.4535522,359.0966797 281.4535522,358.0873413 274.0850525,358.0873413 274.0850525,341.9373474
			297.7043762,341.9373474 297.7043762,358.0873413 288.9228821,358.0873413 288.9228821,359.0966797 298.7137146,359.0966797
			298.7137146,359.0966187 298.7137146,341.9373474 301.1363525,341.9373474 301.1363525,338.9092102 211.1000977,338.9092102
			211.1000977,349.0029297 217.1563873,349.0029297 		"/>
		<rect x="211.1000977" y="364.1435852" fill="#565440" width="5.0468245" height="7.065629"/>
		<polygon fill="#565440" points="216.147049,404.5185547 243.1095581,404.5185547 243.1095581,403.5092163 216.147049,403.5092163
			216.147049,403.0043945 217.1563873,403.0043945 217.1563873,394.2229004 216.147049,394.2229004 216.147049,385.4413452
			211.1000977,385.4413452 211.1000977,394.2229004 211.1000977,403.0043945 211.1000977,414.0065613 216.147049,414.0065613 		"/>
		<polygon fill="#565440" points="253.493866,404.5185547 255.1087952,404.5185547 255.1087952,403.5092163 251.1845245,403.5092163
			251.1845245,404.5185547 252.4844055,404.5185547 252.4844055,444.8935242 241.3813629,444.8935242 241.3813629,443.8840637
			234.3157196,443.8840637 234.3157196,449.9403381 262.5782471,449.9403381 262.5782471,444.8935242 253.493866,444.8935242 		"/>
		<rect x="211.1000977" y="427.7341919" fill="#565440" width="6.0562267" height="7.065629"/>
		<polygon fill="#565440" points="341.3093872,443.8841248 341.299408,443.8841248 341.299408,444.893219 333.8090515,444.893219
			333.8090515,413.7295227 333.8090515,413.6029358 333.8091736,413.6029358 333.8091736,412.5935669 333.8090515,412.5935669
			333.8090515,411.9619141 332.7997131,411.9619141 332.7997131,412.5935669 331.6150818,412.5935669 331.6150818,413.6029358
			332.7997131,413.6029358 332.7997131,413.7295227 332.7997131,444.893219 320.1027527,444.893219 320.1027527,449.940033
			320.1125488,449.940033 320.1125488,449.9403381 348.375,449.9403381 348.375,443.8840637 341.3093872,443.8840637 		"/>
		<polygon fill="#565440" points="322.1312256,305.5999451 322.1312256,305.6010437 322.1215515,305.6010437 322.1215515,338.9092102
			311.230072,338.9092102 311.230072,341.9373474 315.6762085,341.9373474 315.6762085,341.9381104 317.0740051,341.9381104
			317.0740051,357.0785217 317.0740051,357.9650269 317.0740051,358.0878601 324.1409302,358.0878601 324.1409302,365.6863403
			326.5295715,365.6863403 326.5295715,364.677002 325.1502686,364.677002 325.1502686,357.0832214 325.1496277,357.0832214
			325.1496277,357.0785217 318.0833435,357.0785217 318.0833435,341.9381104 325.1496277,341.9381104 325.1496277,341.9373474
			325.1593628,341.9373474 325.1593628,329.0802612 328.1203003,329.0802612 328.1203003,328.0709229 325.1593628,328.0709229
			325.1593628,310.6477356 349.680542,310.6477356 349.680542,328.0704041 335.655365,328.0704041 335.655365,329.0797424
			355.987854,329.0797424 355.987854,328.0704041 350.6898804,328.0704041 350.6898804,310.6477356 367.5531006,310.6477356
			367.5531006,328.0705261 363.6907043,328.0705261 363.6907043,329.0798645 367.5531006,329.0798645 367.5531006,349.0029297
			367.5531006,349.0036621 372.5897522,349.0036621 372.5897522,349.0029297 372.6000366,349.0029297 372.6000366,305.5999451 		"/>
		<polygon fill="#565440" points="366.5436707,380.2938232 366.4337463,380.2938232 366.4337463,387.3595276 367.5429077,387.3595276
			367.5429077,403.5092773 336.3799133,403.5092773 335.5986938,403.5092773 335.5986938,386.2388306 334.5893555,386.2388306
			334.5893555,403.5092773 333.8090515,403.5092773 332.7997131,403.5092773 332.7987671,403.5092773 332.7987671,404.5186157
			332.7997131,404.5186157 332.7997131,405.2769165 333.8090515,405.2769165 333.8090515,404.5186157 334.5893555,404.5186157
			335.5986938,404.5186157 336.3799133,404.5186157 367.5429077,404.5186157 367.5429077,408.5561523 372.5897522,408.5561523
			372.5897522,408.5560303 372.6000366,408.5560303 372.6000366,380.2935791 366.5436707,380.2935791 		"/>
		<polygon fill="#565440" points="372.5897522,427.7340698 366.4248962,427.7340698 366.4248962,434.7996216 366.6446838,434.7996216
			366.6446838,434.7998047 372.5999756,434.7998047 372.5999756,427.7341919 372.5897522,427.7341919 		"/>
		<polygon fill="#565440" points="372.5897522,370.2002563 372.5897522,370.1998596 372.5999146,370.1998596 372.5999146,363.1342468
			367.5531006,363.1342468 367.5531006,363.1347351 367.5429077,363.1347351 367.5429077,364.6768799 333.9053955,364.6768799
			333.9053955,365.6862183 334.5893555,365.6862183 334.5893555,377.2915955 335.5986938,377.2915955 335.5986938,365.6862183
			367.5429077,365.6862183 367.5429077,370.2002563 		"/>
		<polygon fill="#565440" points="298.915741,444.8935242 298.915741,404.5186157 322.5744934,404.5186157 322.5744934,412.5935669
			322.5744934,413.3513184 322.5744934,413.6029358 324.2392578,413.6029358 324.2392578,412.5935669 323.5838318,412.5935669
			323.5838318,404.5186157 323.5848694,404.5186157 323.5848694,403.5092773 323.5838318,403.5092773 322.5744934,403.5092773
			318.0840759,403.5092773 318.0840759,397.3960571 317.0747375,397.3960571 317.0747375,403.5092773 298.915741,403.5092773
			298.915741,378.2751465 317.0747375,378.2751465 317.0747375,390.151123 318.0840759,390.151123 318.0840759,377.2658081
			298.915741,377.2658081 298.915741,377.2654419 273.0757141,377.2654419 273.0757141,403.5092163 263.1837463,403.5092163
			263.1837463,404.5185547 281.3525696,404.5185547 281.3525696,403.5092163 274.0850525,403.5092163 274.0850525,378.2748413
			295.8779602,378.2748413 295.8779602,403.5092163 288.7210083,403.5092163 288.7210083,404.5185547 295.8779602,404.5185547
			295.8779602,443.8840637 289.629425,443.8840637 289.629425,444.8935242 277.315094,444.8935242 277.315094,449.9403381
			305.2747192,449.9403381 305.2747192,444.8935242 304.9623413,444.8935242 		"/>
	</g>
	<g>
		<path fill="none" stroke="#565440" d="M263.1837463,404.417572c0,1.1102905-0.2018433,2.0187073-0.6056213,3.0281372
			c-0.4038086,1.0093384-1.0093384,1.9178467-1.7160034,2.6243591c-0.706604,0.8074951-1.6149902,1.413147-2.6243286,1.816864
			c-1.0093384,0.4036865-2.0188293,0.6056213-3.1290283,0.6056213v-8.0749817"/>
		<path fill="none" stroke="#565440" d="M251.1845398,404.417572c0,1.1102905-0.2018585,2.0187073-0.6056519,3.0281372
			c-0.4038086,1.0094299-1.0093689,1.9178467-1.7159729,2.6243591c-0.7065277,0.8074951-1.6150055,1.413147-2.6243591,1.816864
			c-1.0093536,0.4036865-2.0187988,0.6056213-3.1290131,0.6056213v-8.0749817"/>
		<path fill="none" stroke="#565440" d="M280.9487305,404.417572c0,1.1102905,0.2019653,2.0187073,0.6056519,3.0281372
			s1.0093384,1.9178467,1.7159729,2.6243591c0.7066345,0.8074951,1.6150208,1.413147,2.6243591,1.816864
			c1.0093384,0.4036865,2.0187073,0.6056213,3.1290283,0.6056213v-8.0749817"/>
		<path fill="none" stroke="#565440" d="M289.4275208,358.7938843c0,1.110321-0.2018433,2.0187073-0.6056213,3.0281372
			c-0.4038086,1.0093689-1.0093384,1.9178467-1.7160034,2.6243591c-0.706604,0.8074951-1.6149902,1.4131775-2.6243286,1.816864
			c-1.0093384,0.403717-2.0187378,0.6056519-3.1290283,0.6056519v-8.0750122"/>
		<path fill="none" stroke="#565440" d="M311.2300415,339.3129272c0-1.3121643-0.3028259-2.523468-0.8074951-3.7346802
			c-0.5046692-1.2113037-1.2113342-2.4224854-2.2206726-3.3309631c-0.9084473-0.9084473-2.0187073-1.7158508-3.2299805-2.2206421
			c-1.2113037-0.5046692-2.523468-0.8074951-3.8356323-0.8074951v10.093689"/>
		<path fill="none" stroke="#565440" d="M318.0841064,389.6763306c1.1102905,0,2.0187073,0.2018433,3.0281372,0.6056213
			c1.0093384,0.4038086,1.9176941,1.0093384,2.6243591,1.7160034c0.8074646,0.7065125,1.413147,1.6149902,1.8168335,2.6243286
			c0.403717,1.0093384,0.6056519,2.0187378,0.6056519,3.1290283h-8.0748901"/>
		<path fill="none" stroke="#565440" d="M333.8091736,405.0232544c0.9898071,0,1.7996216,0.1799316,2.6994934,0.539917
			c0.8998108,0.3599548,1.7095947,0.8997803,2.3395386,1.5297546c0.7198486,0.6298218,1.2597961,1.4397278,1.6196899,2.3395386
			c0.3598938,0.8997803,0.539917,1.7996216,0.539917,2.7894287h-7.1985779"/>
		<path fill="none" stroke="#565440" d="M324.1358337,413.6029358c0,1.0428772,0.1895752,1.8961182,0.5688477,2.8442383
			c0.3792725,0.9480591,0.9480591,1.801239,1.6117859,2.4649963c0.6636047,0.7584534,1.5169373,1.3273315,2.4649658,1.7065125
			c0.9480591,0.3791809,1.8961182,0.5688782,2.9390259,0.5688782v-7.5845642"/>
		<path fill="none" stroke="#565440" d="M333.9927063,364.6860046c0-1.0428772-0.1896057-1.8961182-0.5688782-2.8442688
			c-0.3792725-0.9480286-0.9480286-1.801239-1.6117554-2.4649658c-0.6636353-0.7584534-1.5169373-1.3273621-2.4649963-1.706543
			s-1.8961182-0.5688477-2.9389954-0.5688477v7.5845337"/>
		<path fill="none" stroke="#565440" d="M335.5986938,386.3977356c1.0810547,0,1.9655151-0.2335815,2.9483643-0.7008057
			c0.9827271-0.4671326,1.8671875-1.1679077,2.5552063-1.9854431c0.7861938-0.8175354,1.3759155-1.8687744,1.7689819-3.0366821
			c0.3930664-1.1679382,0.5896606-2.335907,0.5896606-3.6206665h-7.8621216"/>
		<path fill="none" stroke="#565440" d="M355.7792664,329.0797729c0,1.110321,0.2018433,2.0187073,0.6056519,3.0280457
			c0.4037781,1.0093384,1.0093384,1.9177246,1.7159729,2.6243591c0.7065125,0.8074951,1.6150208,1.4131775,2.6243591,1.816864
			c1.0093384,0.4037781,2.0187073,0.6056519,3.1290283,0.6056519v-8.0749207"/>
		<path fill="none" stroke="#565440" d="M335.9335938,329.0797729c0,1.110321-0.2018738,2.0187073-0.6056519,3.0280457
			c-0.4038086,1.0093384-1.0093384,1.9177246-1.7159729,2.6243591c-0.706543,0.8074951-1.6150208,1.4131775-2.6243591,1.816864
			c-1.0093384,0.4037781-2.0187073,0.6056519-3.1290283,0.6056519v-8.0749207"/>
	</g>
</g>
<g >
	<rect x="355" y="-0.0000489" fill="none" width="10" height="10"/>
	<rect x="181.1000061" y="235.0000153" fill="none" width="10" height="10"/>
	<rect x="355" y="469.999939" fill="none" width="10" height="10"/>
	<rect x="528.9000244" y="235.0000153" fill="none" width="10" height="10"/>
</g>
<g>
	<path data-nr="1" class="plan__svg__hoverable" fill="none" d="M372.6000366,408.5999451v-21.2000122h0.0999756v-7.0999756h-0.0999756h-0.0004272
		v-10h0.0004272v-7.0999756h-0.0004272v-14.2000122h0.0004272v-43.4000244H372.5h-4.8999634h-45.5v3.3399048v1.6600952v28.2999878
		h-10.4210205c-0.050354-1.1412964-0.3052979-2.262207-0.817688-3.4924316
		c-0.612793-1.4707031-1.3955078-2.6416016-2.3076172-3.4609375c-1.0180664-1.0175781-2.1801758-1.8164063-3.3613281-2.3085938
		c-1.3164063-0.5478516-2.6967773-0.8378906-3.9921875-0.8378906h-0.5v10.0998535H299.5h-88.3999634v3h0.000061v0.1000366h-0.000061
		v7.0999756h0.000061v15.1000366h-0.000061v7.0999756h0.000061v14.2000122h-0.000061v8.7999878v8.7999878v11h0.000061v13.7000122
		h-0.000061v7.0999756h0.000061v15.1003418h85.7998047v-0.0003052H297v0.0003052h75.5996094v-15.1003418h0.1004028v-7.0999756
		h-0.1004028v-19.2000122H372.6000366z M304.8076172,330.5617981c1.0615234,0.4423828,2.112793,1.1650391,3.0581055,2.1103516
		c0.8198242,0.7373047,1.5170898,1.7871094,2.0727539,3.1201172c0.4588013,1.1013184,0.6897583,2.1003418,0.7402344,3.107666
		h-8.9785156v-9.0842285C302.7172852,329.8791809,303.7817383,330.1340637,304.8076172,330.5617981z"/>
	<path data-nr="2" class="plan__svg__hoverable" fill="none" d="M309.3999023,319.5002747c0-1.2958984-0.2900391-2.6767578-0.8383789-3.9921875
		c-0.4921875-1.1816406-1.2905273-2.3447266-2.2900391-3.3417969c-0.8378906-0.9316406-2.0087891-1.7148438-3.4790039-2.328125
		c-1.3729858-0.5712891-2.6098022-0.8378906-3.8924561-0.8378906v-36.7003174v-1.5v-1.5h-87.8000488v3h0.000061v1.5999756v1.6000366
		v9.3999634h0.000061v14.7000122h-0.000061v7.4000244h0.000061v13.5h-0.000061v10.5999756v2.2000122v8.7000122h6.0999756v-0.1000366
		h81.7000122v-0.7999878v-2.0999756v-0.1000366v-18.8996582h10.4998779V319.5002747z M298.9000244,319.0002747v-9
		c1.1464233,0,2.2611694,0.2421875,3.5076904,0.7617188c1.3325195,0.5546875,2.3823242,1.2519531,3.1386719,2.0917969
		c0.9262695,0.9257813,1.6494141,1.9765625,2.0922852,3.0390625c0.4272461,1.0253906,0.6821289,2.0898438,0.7456055,3.1074219
		H298.9000244z"/>
	<path data-nr="3" class="plan__svg__hoverable" fill="none" d="M298.9 201.601V272.301H211.1L211.1 114.801L326.2 114.801V201.601H298.9Z"/>
</g>
</svg>
