<!-- DO NOT EDIT THIS, THIS FILE IS GENERATED FROM "2_37.original.svg" using transform-svgs.js script -->



<svg version="1.1" 
	 xmlns="http://www.w3.org/2000/svg" xmlns:xlink="http://www.w3.org/1999/xlink" x="0px" y="0px" viewBox="0 0 720 480"
	 style="enable-background:new 0 0 720 480;" xml:space="preserve">


<g>
	<polygon fill="#DBD4CA" points="263.8267212,449.2934265 265.2285156,442.9850159 281.2193298,442.6882629
		304.9200134,449.5199585 307.2841492,444.3869934 307.2841492,442.9851685 327.611145,442.9851685 353.5454102,449.293396
		356.3490601,442.9849854 371.7695313,442.9849854 399.8065796,449.2933655 402.610321,442.9849548 419.3597717,442.9849548
		442.8797913,448.5214539 448.0305176,442.9849548 465.2233582,442.9849548 488.8800659,448.7768555 493.7310181,442.9849243
		500.7402954,442.9849243 500.7402954,442.9851074 512.6560059,442.9851074 537.8895264,448.5924683 539.2913208,442.9850769
		554.711792,442.9850769 580.6461792,448.5924377 582.0479736,442.9850769 629.2905273,442.9850464 646.5333862,447.1905212
		654.944458,410.7422791 647.9351807,409.3404541 647.9351807,370.0884705 654.2435913,342.7522888 647.9351807,341.3504639
		647.9351807,336.4439697 647.9351807,333.6403198 653.5426025,308.4068298 646.5333252,304.201355 646.5333252,266.2926331
		655.5030518,233.2674408 478.21521,233.4151001 478.21521,189.109024 528.7793579,189.1090088 528.5782471,30.6992741
		380.8814697,30.6993217 380.8814697,30.8395119 312.8914795,30.8395348 64.7629547,30.8396168 64.7627792,30.839529
		64.7629547,30.8397884 64.7630234,253.734726 64.7630234,253.7348175 236.3503571,253.7347565 236.350174,253.7344971
		236.350174,253.7344208 236.3503571,253.7346802 237.0511322,252.759201 237.0511322,254.192276 238.7935333,254.192276
		238.7935486,296.5317383 237.0511475,296.5317383 237.0511475,297.1921082 192.3319855,297.1921387 193.0329437,314.71521
		187.4254913,339.2477722 192.3320923,340.6495667 194.0142059,359.4345398 186.3041534,395.1689148 192.332016,398.8267212
		192.3320313,412.7051086 186.5844727,442.5646362 217.5655365,449.2934265 218.9673462,442.9850159 236.4905243,442.9850159 	"/>
	<g>
		<rect x="237.8924103" y="253.7346802" fill="#565440" width="4.2055054" height="42.7566528"/>
		<rect x="456.5820007" y="188.6809845" fill="#565440" width="4.2052307" height="44.9355927"/>
		<rect x="477.6094971" y="188.6809845" fill="#565440" width="1.4021301" height="44.9355927"/>
	</g>
</g>
<g>
	<path fill="none" stroke="#565440" d="M127.1458588,102.7036209c-1.510994,0-2.7472153-0.2746964-4.1209183-0.8241959
		c-1.3737183-0.5495071-2.6097717-1.3735886-3.5714188-2.3350677c-1.0988998-0.9616165-1.9231415-2.1978302-2.4725189-3.5714188
		c-0.5495224-1.3735886-0.8242111-2.7472153-0.8242111-4.2582092l10.9889374-0.0000076 M127.1458588,87.1318512
		c-1.510994,0-2.7472153-0.2746964-4.1209183-0.8242035c-1.3737183-0.5495071-2.6097717-1.3735809-3.5714188-2.3350677
		c-1.0988998-0.9616165-1.9231415-2.1978302-2.4725189-3.5714188c-0.5495224-1.3735886-0.8242111-2.7472153-0.8242111-4.2582016
		l10.9889374-0.0000076 M127.1455917,127.0367508c-1.5420609,0-2.803688,0.2803421-4.205513,0.8411484
		c-1.4018173,0.5606842-2.6635818,1.401825-3.6448288,2.3830719c-1.1214828,0.9813843-1.9626694,2.2430115-2.5233459,3.6448364
		c-0.5606842,1.401825-0.8411484,2.8036804-0.8411484,4.3457489l11.2148361-0.0000153 M127.1455917,192.1289063
		c-1.5420609,0-2.803688-0.2803497-4.205513-0.841156c-1.4018173-0.5606689-2.6635818-1.401825-3.6448288-2.3830719
		c-1.1214828-0.981369-1.9626694-2.2430115-2.5233459-3.6448364c-0.5606842-1.401825-0.8411484-2.8036804-0.8411484-4.3457489
		l11.2148361,0.0000153 M160.7902222,225.7956238c1.5420532,0,2.8036804,0.2803345,4.2055054,0.8411407
		c1.401825,0.5606842,2.6635895,1.401825,3.6448364,2.3830719c1.1214905,0.9813843,1.962677,2.2430115,2.5233459,3.6448364
		c0.5606842,1.401825,0.841156,2.8036804,0.841156,4.3457489l-11.2148438-0.0000153 M229.0797577,231.2485352
		c1.5420532,0,2.8036804-0.2803497,4.2055054-0.841156c1.401825-0.5606689,2.6635895-1.401825,3.6448364-2.3830719
		c1.1214752-0.981369,1.9626617-2.2430115,2.5233459-3.6448364s0.8411407-2.8036804,0.8411407-4.3457489l-11.2148285,0.0000153
		 M147.2163239,178.5952148c0,1.5420532-0.2803345,2.8036804-0.8411407,4.2055054
		c-0.5606842,1.401825-1.401825,2.6635895-2.3830719,3.6448364c-0.9813843,1.1214905-2.2430115,1.962677-3.6448364,2.5233459
		c-1.401825,0.5606842-2.8036804,0.841156-4.3457489,0.841156l0.0000153-11.2148438 M135.8496857,196.8251953
		c0,1.5420532,0.2803497,2.8036804,0.841156,4.2055054c0.5606689,1.401825,1.401825,2.6635895,2.3830719,3.6448364
		c0.981369,1.1214905,2.2430115,1.962677,3.6448364,2.5233459c1.401825,0.5606842,2.8036804,0.841156,4.3457489,0.841156
		l-0.0000153-11.2148438 M178.3304596,196.8251953c0,1.5420532-0.2803345,2.8036804-0.8411407,4.2055054
		c-0.5606842,1.401825-1.401825,2.6635895-2.3830719,3.6448364c-0.9813843,1.1214905-2.2430115,1.962677-3.6448364,2.5233459
		c-1.401825,0.5606842-2.8036804,0.841156-4.3457489,0.841156l0.0000153-11.2148438 M190.2292633,138.3605804
		c-1.4554749,0-2.6462555-0.2645874-3.9693604-0.7939148c-1.3231201-0.5293121-2.5140076-1.3231049-3.4401703-2.2494202
		c-1.0585022-0.9261475-1.8524475-2.1170502-2.3816528-3.440155s-0.7939148-2.6462555-0.7939148-4.1017075l10.585083-0.0000076
		 M217.8521881,168.7807007c1.951004,0,3.5472107-0.3546753,5.3207855-1.064209s3.3699188-1.7735748,4.6114044-3.0152588
		c1.4188843-1.2414703,2.483139-2.8378296,3.1925201-4.6114044c0.7093658-1.7735748,1.064209-3.5471954,1.064209-5.4981995
		h-14.1889038"/>
	<polygon fill="none" stroke="#565440" points="64.7629395,30.6994019 64.7629395,164.460144 64.7629395,164.460144
		64.7630005,253.5945435 204.9486084,253.5944824 204.9486084,251.4917603 66.8657227,251.4918213 66.8657227,251.4917603
		66.8656616,149.9974365 66.8656616,32.8021851 216.3251343,32.802124 216.3251343,32.802063 216.3251343,30.6993408 	"/>
	<g>
		<rect x="174.2883301" y="29.9984131" fill="#565440" width="9.1891479" height="7.0093384"/>
		<polygon fill="#565440" points="71.0713501,90.3741455 127.1455078,90.3740845 127.1455078,91.7147217 128.5473633,91.7147217
			128.5476685,87.1318359 127.145874,87.1318359 127.145874,88.972229 71.0713501,88.97229 71.0713501,72.0540771
			72.4661255,72.0540771 72.4661255,62.2410889 64.0620117,62.2410889 64.0620117,101.4931641 71.0713501,101.4931641 		"/>
		<polygon fill="#565440" points="127.1455078,76.1429443 128.5473633,76.1429443 128.5473633,37.0077515 130.3005981,37.0077515
			130.3005981,38.4025269 142.565979,38.4025269 142.565979,37.0077515 154.4294434,37.0077515 154.4294434,29.9984131
			114.8792725,29.9984131 114.8792725,37.0077515 127.1455078,37.0077515 		"/>
		<rect x="85.0898438" y="29.9984131" fill="#565440" width="9.8129272" height="8.4041138"/>
		<polygon fill="#565440" points="213.6464844,154.5916138 217.8521729,154.5916138 217.8521729,29.9984131 203.3884888,29.9984131
			203.3884888,37.0077515 213.6464844,37.0077515 213.6464844,37.0245361 213.6464844,115.6633301 190.6119385,115.6633301
			190.6119385,115.6633911 190.229248,115.6633911 190.229248,127.7753906 191.6311035,127.7753906 191.6311035,117.0651855
			213.6464844,117.0651855 213.6464844,149.6625977 191.6311035,149.6625977 191.6311035,138.2515259 190.229248,138.2515259
			190.229248,149.6625977 190.229248,151.0644531 213.6464844,151.0644531 		"/>
		<polygon fill="#565440" points="71.0714111,196.8251953 135.8496704,196.8251343 135.8496704,195.4233398 128.5474243,195.4233398
			128.5474243,192.1289063 127.1456299,192.1289063 127.1456299,195.4233398 71.0714111,195.4233398 71.0713501,181.3988647
			64.0620728,181.3988647 64.0620728,220.6508179 72.4661255,220.6508179 72.4661255,210.8378296 71.0714111,210.8378296 		"/>
		<polygon fill="#565440" points="71.0713501,151.9599609 127.1456299,151.9598999 127.1456299,180.9140625 128.5474243,180.9140625
			128.5474243,178.5952148 136.0015259,178.5952148 136.0015259,177.1933594 128.5474243,177.1933594 128.5474243,151.9598999
			162.4141846,151.9598999 162.4141846,177.1932983 147.2163086,177.1932983 147.2163086,178.5952148 163.815979,178.5952148
			163.815979,151.9598999 163.815979,151.4110107 163.815979,149.6625366 163.815979,147.7542114 163.815979,115.6633911
			128.5474243,115.6633911 128.5474243,102.2147217 127.1455688,102.2147217 127.1455688,127.0367432 128.5474243,127.0367432
			128.5474243,117.0652466 162.4141235,117.0652466 162.4141235,147.7542114 128.5474243,147.7542725 128.5474243,138.2515259
			127.1455688,138.2515259 127.1456299,147.7542725 72.4661255,147.7542725 72.4661255,138.7300415 71.0713501,138.7300415
			71.0713501,121.9724121 64.0620117,121.9724121 64.0620117,160.3926392 71.0713501,160.3926392 		"/>
		<rect x="85.0899048" y="245.8913574" fill="#565440" width="9.8129272" height="8.4041138"/>
		<rect x="174.8087158" y="247.2860718" fill="#565440" width="9.8129883" height="7.0093384"/>
		<polygon fill="#565440" points="147.1135254,195.4233398 147.1135254,196.8251343 159.3882446,196.8251953 159.3882446,215.7669067
			125.7437744,215.7669067 125.7437744,247.2860718 121.538147,247.2860718 121.538147,254.2954102 160.7902222,254.2953491
			160.7902222,237.010437 159.3882446,237.010437 159.3882446,245.8913574 150.9771118,245.8913574 150.9771118,247.2860718
			127.1456299,247.2860718 127.1456299,217.1687622 159.3882446,217.1687622 159.3882446,225.7956543 160.7902222,225.7956543
			160.7902222,196.8251953 167.1156616,196.8251953 167.1156616,195.4233398 		"/>
		<polygon fill="#565440" points="264.5273438,184.2026367 217.8521729,184.2026367 217.8521729,168.7807007 213.6464844,168.7807007
			213.6464844,187.0061035 178.9506226,187.0061035 178.9506226,195.4233398 178.3304443,195.4233398 178.3304443,196.8251953
			180.3527832,196.8251953 180.3527832,195.4233398 180.352478,195.4233398 180.352478,188.407959 227.6896973,188.4081421
			227.6896973,220.0336914 229.0916748,220.0336914 229.0916748,188.4081421 257.5182495,188.4081421 257.5182495,245.8913574
			229.0797729,245.8913574 229.0797729,231.2485352 227.6777954,231.2485352 227.6777954,245.8913574 204.2476196,245.8913574
			204.2476196,254.2953491 264.5274048,254.2953491 264.5274048,244.4823608 		"/>
	</g>
</g>
<g>
	<g>
		<path fill="none" stroke="#565440" d="M194.8552551,314.5752869l-5.0466461,21.8689575l-2.1027374-0.4205627l5.0466461-21.8689575
			L194.8552551,314.5752869z"/>
		<path fill="none" stroke="#565440" d="M196.5374756,358.8738708l-8.1306763,35.4668579l-2.1027222-0.4205627l8.130661-35.46698
			L196.5374756,358.8738708z"/>
		<polygon fill="none" stroke="#565440" points="214.621521,448.4524536 215.1822052,446.3497009 189.5283051,440.6019592 196.1170502,406.8172913
			194.1543732,406.3967285 187.0049896,442.2843323 187.9862518,442.4244385 		"/>

			<rect x="248.370575" y="432.2976074" transform="matrix(0.2514893 -0.9678601 0.9678601 0.2514893 -243.9259644 574.4312134)" fill="none" stroke="#565440" stroke-width="1.0000414" stroke-miterlimit="4.0001655" width="2.0998993" height="25.243927"/>

			<rect x="293.1773987" y="433.7122192" transform="matrix(0.2514893 -0.9678601 0.9678601 0.2514893 -210.6713257 618.017395)" fill="none" stroke="#565440" stroke-width="1.0000414" stroke-miterlimit="4.0001655" width="2.099884" height="23.0010376"/>

			<rect x="340.4065857" y="432.2937317" transform="matrix(0.2514893 -0.9678601 0.9678601 0.2514893 -175.0323181 663.5062256)" fill="none" stroke="#565440" stroke-width="1.0000414" stroke-miterlimit="4.0001655" width="2.0997314" height="25.243927"/>

			<rect x="385.4672546" y="433.7082825" transform="matrix(0.2514893 -0.9678601 0.9678601 0.2514893 -141.5876312 707.3380127)" fill="none" stroke="#565440" stroke-width="1.0000414" stroke-miterlimit="4.0001655" width="2.0997314" height="23.0010376"/>
	</g>
	<g>
		<polygon fill="#565440" points="198.6403198,311.7714233 198.6403198,303.3602905 268.7392578,303.3602905 268.7392578,315.836853
			270.1411133,315.836853 270.1411133,303.3602905 303.779541,303.3602905 303.779541,332.3465576 270.1411133,332.3466187
			270.1411133,326.184021 268.7392578,326.184021 268.7392578,355.8602905 265.0309448,355.8602905 265.0309448,357.262146
			268.7392578,357.262146 268.7392578,369.1226807 275.6533813,369.1226807 275.6533813,367.7208252 270.1411133,367.7208252
			270.1411133,333.7484741 303.779541,333.7484741 303.779541,367.7208252 286.8683472,367.7208252 286.8683472,369.1226807
			303.779541,369.1226807 303.779541,378.8405151 305.1813965,378.8405151 305.1813965,369.1226807 314.1656494,369.1226807
			314.1656494,367.7208252 305.1813965,367.7208252 305.1813965,339.8085938 326.9807129,339.8085327 326.9807129,367.7208252
			325.3806152,367.7208252 325.3806152,369.1226807 361.3792725,369.1226807 361.3793335,365.1655884 359.977478,365.1655884
			359.977478,367.7208252 328.3825684,367.7208252 328.3825684,339.8085327 359.977417,339.8084717 359.977417,353.9505615
			361.3792725,353.9505615 361.3792725,339.8084717 369.9141235,339.8084717 369.9141235,335.6029663 307.9850464,335.6030273
			307.9850464,296.3510742 191.6310425,296.3510742 191.6310425,310.8104858 190.789856,314.2947388 197.6589355,315.836853 		"/>
		<polygon fill="#565440" points="192.4081421,394.480957 186.1638184,393.0791626 185.1825562,397.1445313 191.6311035,398.5922241
			191.6311035,415.5087891 200.0222778,415.5087891 200.0222168,394.480957 		"/>
		<polygon fill="#565440" points="215.2372437,442.7687988 213.8352661,449.0132446 217.9006348,449.9945679 219.3483887,443.5460205
			238.8378906,443.5460205 238.8378906,435.1317139 215.2372437,435.1317139 		"/>
		<polygon fill="#565440" points="281.3499146,436.5366211 260.9651489,436.5366211 260.9651489,442.7687378 259.5633545,449.0131836
			263.6287231,449.9945068 265.076416,443.5460205 280.3884277,443.5460205 283.8731079,444.3869629 285.4153442,437.5179443
			281.3499146,436.5692749 		"/>
		<polygon fill="#565440" points="250.5996704,370.6871338 250.5996704,357.262146 253.815979,357.262146 253.815979,355.8602905
			200.0222778,355.862854 200.0222168,337.0048828 194.4346924,337.0048828 187.5656738,335.4629517 186.5843506,339.5281982
			191.6310425,340.6611328 191.6310425,359.4345093 200.0222778,359.4345093 200.0222778,357.2647095 249.1978149,357.2647095
			249.1978149,370.6871338 		"/>
		<polygon fill="#565440" points="262.9263916,385.6603394 262.9263916,384.2584839 250.6447144,384.2584839 250.6447144,381.8641968
			249.2428589,381.8641968 249.2428589,444.1416626 250.6447144,444.1416626 250.6447144,385.6603394 		"/>
		<polygon fill="#565440" points="307.9850464,384.2584839 274.1412964,384.2584839 274.1412964,385.6603394 303.779541,385.6603394
			303.779541,435.1419678 303.779541,445.5325928 302.9383545,449.0170898 302.9383545,449.0170898 302.9383545,449.0171509
			307.0037842,449.9983521 307.9850464,445.9329224 307.9850464,445.9328613 307.9850464,443.5460815 330.414856,443.5460815
			330.414856,435.1419678 307.9850464,435.1419678 		"/>
		<polygon fill="#565440" points="406.1149902,335.6029663 384.0122681,335.6029663 384.0122681,339.8084717 401.9093628,339.8084717
			401.9093628,435.1419067 398.4313354,435.1419067 398.4313354,442.1439819 396.8894043,449.0131836 400.9546509,449.9945068
			402.4023438,443.5459595 406.1150513,443.5459595 		"/>
		<polygon fill="#565440" points="352.8444824,436.5366211 352.8444824,436.5366821 352.8444824,442.1439819 351.3025513,449.0131836
			351.3025513,449.0131836 351.3025513,449.0132446 355.3677979,449.9945679 356.8154907,443.5460205 357.0497437,443.5460205
			357.0497437,443.5459595 370.8115234,443.546936 375.6713867,444.6686401 377.213501,437.7994995 371.8863525,436.5378418 		"/>
	</g>
	<path fill="none" stroke="#565440" d="M249.2428894,370.6494446c-1.5420532,0-2.8036957,0.2803345-4.2055054,0.8411255
		c-1.401825,0.5608215-2.6634216,1.401825-3.6448364,2.3830872c-1.1214905,0.9813843-1.962677,2.2430115-2.5233459,3.6448364
		c-0.5608215,1.401825-0.841156,2.8036804-0.841156,4.3457336h11.2148438 M274.1413269,385.5499268
		c0,1.5420532-0.2803345,2.8036804-0.8411255,4.2055054c-0.5608215,1.401825-1.401825,2.6636047-2.3832397,3.6448364
		c-0.9812622,1.1214905-2.2430115,1.962677-3.6448364,2.5233459c-1.401825,0.5606995-2.8036804,0.841156-4.3457336,0.841156
		v-11.2148438 M286.8683472,367.7208557c0-1.5420532-0.2803345-2.8036804-0.8411255-4.2055054
		c-0.5608215-1.401825-1.401825-2.6636047-2.3832397-3.6448364c-0.9812622-1.1214905-2.2430115-1.962677-3.6448364-2.5233459
		c-1.401825-0.5606995-2.8037109-0.841156-4.3457642-0.841156v11.2148438 M253.8159485,355.86026
		c0-1.5420532,0.2803345-2.8036804,0.8411255-4.2055054c0.5608215-1.401825,1.401825-2.6636047,2.3832397-3.6448364
		c0.9812622-1.1214905,2.2430115-1.962677,3.6448364-2.5233459c1.401825-0.5606995,2.8037109-0.841156,4.3457642-0.841156V355.86026
		 M325.3806152,367.7208557c0-1.5420532-0.2803345-2.8036804-0.8411255-4.2055054
		c-0.5608215-1.401825-1.401825-2.6636047-2.3832397-3.6448364c-0.9812622-1.1214905-2.2430115-1.962677-3.6448364-2.5233459
		c-1.401825-0.5606995-2.8037109-0.841156-4.3457642-0.8411865v11.2148438 M360,353.950592
		c-1.5420532,0-2.8036804,0.2803345-4.2055054,0.8411255c-1.401825,0.5608215-2.6636047,1.401825-3.6448364,2.3832397
		c-1.1214905,0.9812622-1.962677,2.2430115-2.5233459,3.6448364c-0.5606995,1.401825-0.841156,2.8037109-0.8411865,4.3457642
		h11.2148438 M270.1410828,326.1840515c1.432373,0,2.6042786-0.2604065,3.9064026-0.781311
		c1.302124-0.5209351,2.4741516-1.302124,3.3855896-2.2137146c1.0417175-0.9114685,1.8230896-2.0834961,2.3438721-3.3856201
		c0.520813-1.302124,0.7813416-2.6042786,0.7813416-4.0366516h-10.4172058 M383.9077148,335.6030579
		c0-1.9241333-0.3497925-3.4983215-1.04953-5.247467c-0.6997681-1.7491455-1.7491455-3.3235474-2.9737244-4.5479126
		c-1.2243958-1.399353-2.7987366-2.4489441-4.5478821-3.1485291c-1.7491455-0.6996155-3.4983521-1.0495605-5.4224854-1.0495605
		v13.9934692"/>
</g>
<g>
	<path fill="none" stroke="#565440" d="M451.2440796,355.3865051c-1.5420837,0-2.8036804,0.2803345-4.205658,0.8411255
		c-1.401825,0.5608215-2.6635437,1.401825-3.6448364,2.3832703c-1.1214905,0.9812317-1.9626465,2.2430115-2.5233154,3.6448364
		c-0.5606689,1.4017944-0.841156,2.8036804-0.841156,4.3457336h11.2148132 M451.2440796,390.7367249
		c-1.5420837,0-2.8036804-0.2803345-4.2056274-0.841156c-1.4018555-0.560791-2.6635742-1.401825-3.6448364-2.3832397
		c-1.121521-0.9812622-1.9626465-2.2430115-2.5233459-3.6448364c-0.5606689-1.401825-0.841156-2.8036804-0.841156-4.3457336
		h11.2148132 M456.5820313,335.7235413c0-1.8223877,0.4205627-3.625061,1.1214905-5.3072205
		c0.7009277-1.6823425,1.6821899-3.364502,3.0841675-4.6260986c1.2615967-1.2617188,2.8036499-2.3830566,4.4859619-3.084137
		c1.6821899-0.7009277,3.5045776-1.1214905,5.3269958-1.1214905l0.0000305,14.1390076"/>
	<g>
		<g>
			<polygon fill="#565440" points="451.2423706,355.3865356 452.644165,355.3865356 452.644165,339.8087158 456.5820313,339.8087158
				456.5820313,335.6032104 401.9093018,335.6032104 401.9093628,443.5462646 421.5411377,443.5361938 421.5411377,435.1506958
				406.1148682,435.1422119 406.1148071,369.0029297 451.2441406,369.0029297 451.2441406,379.5217285 452.6459351,379.5217285
				452.6459351,366.6015015 451.2441406,366.6015015 451.2441406,367.6010742 406.1148071,367.6011353 406.1148071,339.8087158
				451.2423096,339.8087158 			"/>
			<polygon fill="#565440" points="504.244873,335.6031494 470.600708,335.6032104 470.600708,339.8087158 500.0391846,339.8087158
				500.0391846,367.6010132 472.90802,367.6010742 472.90802,369.0028687 500.0391846,369.0028687 500.0392456,435.1421509
				489.6768799,435.1421509 489.6768799,442.7568359 488.2745972,449.003418 488.2758789,449.0037231 488.2749023,449.0079956
				492.340271,449.9893188 493.7879639,443.5408936 504.244873,443.5462646 504.244873,443.5408936 504.2498169,443.5408936 			"/>
		</g>
		<polygon fill="#565440" points="452.6459351,436.5315247 452.6459351,390.7367249 451.2441101,390.7367249 451.2441101,436.5315247
			443.9477844,436.5315247 443.9477844,443.5408936 443.959198,443.5408936 442.8262634,448.5877075 446.8916931,449.5689697
			448.2448425,443.5408936 461.6397705,443.5408936 466.4996338,444.6623535 468.041687,437.7932739 462.7146606,436.5315247 		"/>
	</g>
	<g>

			<rect x="432.034668" y="432.2894897" transform="matrix(0.2514893 -0.9678601 0.9678601 0.2514893 -106.443634 752.1862183)" fill="none" stroke="#565440" stroke-width="1.0000414" stroke-miterlimit="4.0001655" width="2.0997326" height="25.2439404"/>
		<polygon fill="none" stroke="#565440" points="465.6594238,443.0921936 466.1875305,441.0598755 489.4997864,447.0844421 488.9717102,449.1166077
					"/>
	</g>
</g>
<g>
	<path fill="none" stroke="#565440" d="M646.6713257,447.1906433l7.8503418-33.6446533l-2.2507935-0.6472168l-7.2896729,31.6819763
		l-15.6928711-3.4180603l-26.3549194,0.0000305v2.1027527h26.3549194L646.6713257,447.1906433z M537.8873291,446.6300049
		l-0.4205933,2.1027832l-26.0746155-5.9608765l0.4205627-2.1028442L537.8873291,446.6300049z M581.3449097,446.6299744
		l-0.4205933,2.1027832l-24.5325317-5.6074524l0.4205933-2.1027832L581.3449097,446.6299744z M654.241394,343.1729126
		L648.213501,369.52771l-2.1027222-0.4205627l6.0278931-26.3548279L654.241394,343.1729126z"/>
	<path fill="none" stroke="#565440" d="M536.4854736,353.8271179c1.5420532,0,2.8036499,0.2803345,4.2055054,0.8411255
		c1.4018555,0.5606689,2.6635742,1.401825,3.6448364,2.3830872c1.12146,0.9813538,1.9626465,2.2430115,2.5233154,3.6448364
		c0.5606689,1.4017944,0.8411255,2.8036804,0.8411255,4.3457336h-11.2147827 M582.7467041,367.8455811
		c0-1.5420532,0.2803345-2.8037109,0.8411865-4.2055054c0.5606689-1.401825,1.4017944-2.6634216,2.3830566-3.6448364
		c0.9812622-1.1214905,2.243042-1.962677,3.6448364-2.5233765c1.4018555-0.560791,2.8036499-0.8411255,4.3457642-0.8411255
		v11.2148438 M596.7651978,370.6493835c1.5421143,0,2.8036499,0.2803345,4.2055054,0.841156
		c1.4018555,0.5606689,2.6635742,1.401825,3.6448364,2.3830566c1.12146,0.9812622,1.9626465,2.2430115,2.5233154,3.6448364
		c0.5608521,1.401825,0.8411865,2.8036804,0.8411865,4.3457336h-11.2148438 M593.4759521,395.8826599
		c0,1.5420532-0.2803345,2.8036804-0.8411865,4.2055054c-0.5606689,1.401825-1.4017944,2.6636047-2.3830566,3.6448364
		c-0.9812622,1.1214905-2.242981,1.962677-3.6448364,2.5233459c-1.4018555,0.5606995-2.8036499,0.841156-4.3457642,0.841156
		v-11.2148438 M519.663147,339.8084412c0,1.8224182-0.4205322,3.5046082-1.12146,5.1868896
		c-0.7009277,1.6823425-1.6821899,3.364502-3.0841675,4.6260986c-1.2617188,1.2617188-2.8037109,2.3832397-4.4859924,3.0841675
		c-1.682312,0.7008972-3.5045776,1.12146-5.3269958,1.1214905v-14.0186157"/>
	<g>
		<polygon fill="#565440" points="648.6339111,340.7402344 648.6339111,335.6029053 519.663147,335.6029053 519.663147,339.8084106
			535.0835571,339.8084106 535.0835571,353.8270874 536.4854126,353.8270874 536.4854126,339.8084106 556.1113892,339.8084106
			556.1114502,367.8455811 536.4854126,367.8455811 536.4854126,365.0418701 535.0835571,365.0418701 535.0835571,369.2474365
			582.7467041,369.2474365 582.7467041,367.8455811 557.5133057,367.8455811 557.5132446,344.644043 557.5132446,339.8084106
			595.3633423,339.8084106 595.3634033,367.8455811 593.9615479,367.8455811 593.9615479,369.2474365 595.3634033,369.2474365
			595.3634033,370.649353 596.7651978,370.649353 596.7651978,339.8084106 644.4282837,339.8084106 644.4267578,344.0466309
			653.8208618,346.2570801 654.802124,342.1916504 		"/>
		<polygon fill="#565440" points="535.9408569,436.5365906 535.9408569,443.5459595 535.9523926,443.5459595 534.8195801,448.5925903
			538.8849487,449.5737915 540.2380981,443.5459595 553.1727905,443.5459595 558.0326538,444.6673889 559.5748291,437.7984009
			554.2477417,436.5365906 		"/>
		<polygon fill="#565440" points="504.2426758,339.8084717 505.6444702,339.8084717 505.6444702,335.6029053 500.0371704,335.6029663
			500.0371704,443.5459595 513.3143311,443.5459595 513.3143311,435.1419067 504.2426758,435.1419067 		"/>
		<polygon fill="#565440" points="580.6755981,395.8826599 582.2611084,395.8826599 582.2611084,394.480835 580.6755981,394.480835
			580.6755981,384.6678772 579.2737427,384.6678772 579.2852173,443.5459595 578.1522827,448.5925598 582.2176514,449.5737915
			583.5709839,443.5459595 604.3274536,443.5459595 604.3274536,435.1418762 580.6755981,435.1418762 		"/>
		<polygon fill="#565440" points="648.6339722,408.6205139 648.6339722,365.0418701 644.4282837,365.0418701 644.4282837,394.480835
			596.7651978,394.480835 596.7651978,381.8641663 595.3634033,381.8641968 595.3634033,394.480835 593.4759521,394.480835
			593.4759521,395.8826599 641.6246338,395.8826599 641.6246338,414.106842 641.6561279,414.106842 641.6246338,414.2470398
			653.9611206,417.0508728 655.5030518,410.1816711 		"/>
	</g>
</g>
<g>
	<g>
		<path fill="none" stroke="#565440" d="M654.364563,306.3862305l-6.2894897,27.2542419l-2.1027832-0.4205627l6.2894897-27.2542419
			L654.364563,306.3862305z"/>
		<path fill="none" stroke="#565440" d="M558.9170532,233.2677765v2.1027374l-40.6536865,0.0000153v-2.1027374L558.9170532,233.2677765z"/>
		<polygon fill="none" stroke="#565440" points="655.6452026,233.267746 614.4306641,233.2677612 614.4306641,235.3705444 652.8413696,235.3705292
			646.3928223,260.0431824 648.3555298,260.6039429 		"/>
	</g>
	<path fill="none" stroke="#565440" d="M591.1598511,303.3604736c1.5421143,0,2.8037109-0.280365,4.2056885-0.841156
		c1.4017944-0.5606689,2.6635742-1.401825,3.6447754-2.3830872c1.121521-0.9813843,1.9627075-2.2430115,2.5233765-3.6448364
		s0.8411255-2.8036804,0.8411255-4.3457336h-11.2147827 M585.5523682,287.9401245
		c0-1.5420532-0.2803345-2.8037109-0.8411255-4.2055359c-0.5608521-1.4017944-1.4018555-2.6635742-2.3831177-3.6448059
		c-0.9812622-1.1214905-2.242981-1.962677-3.6448364-2.5233459c-1.4017944-0.5606995-2.8036499-0.841156-4.3457031-0.841156
		v11.2148438 M564.5245972,307.5661011c0-1.5420532,0.2803345-2.8036804,0.8411255-4.2055054
		c0.5606689-1.401825,1.4018555-2.6635742,2.3831177-3.6448364c0.9812622-1.1214905,2.242981-1.962677,3.6448364-2.5233459
		c1.4017944-0.5606689,2.8036499-0.841156,4.3457031-0.841156v11.2148438 M589.7579956,257.0992432
		c-1.5420532,0-2.8036499,0.2803345-4.2054443,0.8411255c-1.4018555,0.5608215-2.6635742,1.401825-3.6448364,2.3832397
		c-1.121521,0.9812622-1.9626465,2.2430115-2.5233154,3.6448364c-0.56073,1.401825-0.8411865,2.8036804-0.8411865,4.3457336
		h11.2147827 M491.6280823,255.6974182c1.5420837,0,2.8036804-0.2803345,4.2055359-0.8411407
		c1.401825-0.560791,2.6635437-1.4018097,3.6448364-2.3832245c1.1214905-0.9812622,1.9626465-2.2430115,2.5233154-3.6448364
		s0.841156-2.8036957,0.841156-4.3457489h-11.2148132 M469.1984863,273.9215393c0-1.5420532,0.280365-2.8036804,0.8411865-4.2055054
		c0.5606689-1.401825,1.401825-2.6634216,2.3830872-3.6448059c0.9812317-1.1214905,2.2429504-1.962677,3.6448059-2.5233459
		c1.401825-0.5608215,2.8036499-0.841156,4.3457336-0.841156v11.2148132 M525.2727051,318.7808838
		c1.8224487,0,3.5045776,0.4205627,5.1868896,1.1214905c1.6821899,0.7008972,3.364502,1.682312,4.6260986,3.084137
		c1.2617188,1.2615967,2.3831177,2.8037109,3.0841675,4.4859924c0.7009277,1.6823425,1.12146,3.5046082,1.12146,5.3269958
		h-14.0184937"/>
	<g>
		<polygon fill="#565440" points="640.2317505,329.9957275 640.2317505,335.6031494 591.1598511,335.6032104 591.1598511,303.3604736
			589.7578735,303.3604736 589.7578735,307.5661011 575.7393799,307.5661011 575.7393799,308.9678955 589.7578735,308.9678955
			589.7579346,335.6032104 553.3096313,335.6032104 553.3096313,308.9678955 564.5245972,308.9678955 564.5245972,307.5661011
			551.9077759,307.5661011 551.9077759,335.6032104 525.2727051,335.6032104 525.2727051,332.7994385 521.0670776,332.7994385
			521.0670776,339.8086548 648.6358643,339.8086548 648.6358643,329.9957275 		"/>
		<polygon fill="#565440" points="626.2061157,231.8659058 626.2061157,227.6602783 622.0006104,227.6602783 622.0006104,231.8659058
			605.1783447,231.8659058 605.1783447,227.6602783 600.9728394,227.6602783 600.9728394,231.8659058 584.1505127,231.8659058
			584.1505127,227.6602783 579.9448853,227.6602783 579.9448853,231.8659058 561.7207642,231.8659058 561.7207642,227.6602783
			557.5152588,227.6602783 557.5152588,289.34198 574.3375854,289.34198 574.3375854,287.9401245 558.9171143,287.9401245
			558.9171143,272.5197144 591.1598511,272.5197144 591.1598511,268.3140259 589.7578735,268.3140259 589.7578735,271.1177979
			558.9171143,271.1178589 558.9170532,240.2663574 589.7578735,240.2663574 589.7578735,257.0992432 591.1598511,257.0992432
			591.1598511,240.2663574 627.6080933,240.2662964 627.6080933,231.8659058 		"/>
		<rect x="536.4874878" y="227.6602783" fill="#565440" width="4.2054892" height="9.8129702"/>
		<polygon fill="#565440" points="647.2340698,304.2770691 647.2340088,265.7908325 649.4770508,260.1833801 645.5519409,258.6412354
			645.0471802,259.9030151 643.0283813,259.9030151 643.0283813,262.7066345 640.2317505,262.7066345 640.2317505,272.5196533
			643.0283813,272.5196533 643.0283813,287.940094 585.5523682,287.9401245 585.5523682,289.34198 589.7578735,289.34198
			589.7578735,292.1456299 591.1598511,292.1456299 591.1598511,289.34198 643.0283813,289.3419495 643.0283813,306.9853821
			642.8883667,307.5660706 653.8227539,310.0893555 654.8040161,306.0239563 		"/>
		<polygon fill="#565440" points="525.272522,297.7531128 523.8708496,297.7531128 523.8708496,307.5661011 502.8430786,307.5661011
			502.8430786,299.1549683 483.2171021,299.1549683 483.2171021,257.0993652 491.6282349,257.0993652 491.6282349,255.6975708
			481.8152466,255.6975708 481.8152466,273.9216919 480.4133911,273.9216919 480.4133911,275.3235474 481.8152466,275.3235474
			481.8152466,299.1549072 460.7874146,299.1549072 460.7874146,275.3235474 469.1985474,275.3235474 469.1985474,273.9216919
			460.7874146,273.9216919 460.7874146,240.0003052 490.2263794,240.0003052 490.2263794,244.4827881 491.6282349,244.4827881
			491.6282349,240.0003052 519.6653442,240.0003052 519.6653442,227.6605835 515.4598389,227.6605835 515.4598389,231.8660889
			497.2357178,231.8660889 497.2357178,227.6605835 493.0300903,227.6605835 493.0300903,231.8660889 456.5820313,231.8658447
			456.5820313,303.3607178 498.6373901,303.3607178 498.6374512,311.7717285 521.0670776,311.7717285 521.0670776,318.7810669
			525.272583,318.7810669 525.272583,307.5662231 		"/>
	</g>
</g>
<g>
	<polygon fill="none" stroke="#565440" points="507.7495117,187.0062256 507.7495117,189.1090088 528.7793579,189.1090088
		528.7772827,30.6992798 411.0214233,30.6992798 411.0214233,30.6993408 319.8856201,30.6993408 319.8856201,32.802124
		412.1904907,32.802063 526.6745605,32.802063 526.6745605,187.0062256 	"/>
	<g>
		<rect x="380.4130249" y="29.9983521" fill="#565440" width="9.7280884" height="7.0093384"/>
		<polygon fill="#565440" points="461.991272,103.0061035 463.3930664,103.0061035 463.3930664,37.0076904 479.0114136,37.0076904
			479.0114136,29.9983521 439.7593384,29.9983521 439.7593384,38.4024048 449.5723267,38.4024048 449.5723267,37.0076904
			461.991272,37.0076904 461.991272,99.0366211 426.6810303,99.0366211 426.6810303,100.4384766 461.991272,100.4384766 		"/>
		<polygon fill="#565440" points="445.9539795,182.8005981 445.9539795,144.2148438 444.5521851,144.2148438 444.5521851,148.7393188
			440.184021,148.7393188 440.184021,150.1411743 444.5521851,150.1411743 444.5521851,182.8005981 413.1241455,182.8005981
			413.1242676,150.1409912 428.3220825,150.1409912 428.3220825,148.7391968 413.1242676,148.7391968 413.1242676,147.7543335
			407.1561279,147.7543335 407.1561279,118.6442871 444.5521851,118.6442871 444.5521851,133.723938 445.9539795,133.723938
			445.9539795,124.15271 448.1373901,124.15271 448.1373901,122.7509155 445.9539795,122.7509155 445.9541016,117.2423096
			445.9539795,117.2424316 394.4892578,117.2424316 394.4892578,118.6442871 405.7541504,118.6442871 405.7541504,147.7543335
			378.1131592,147.7543945 378.1131592,118.6442871 383.2744141,118.6442871 383.2744141,117.2424316 357.3308105,117.2423096
			357.3308105,117.2424316 357.3307495,117.2424316 357.3308105,120.0214844 358.7327881,120.0214844 358.7327881,118.6444092
			376.7111816,118.6442871 376.7111816,147.7543945 358.7327881,147.7542725 358.7327881,130.572998 357.3308105,130.572998
			357.3308105,147.7542725 355.3006592,147.7543945 355.3006592,151.9598999 408.9186401,151.9598389 408.9186401,189.8098755
			508.4504395,189.8098755 508.4504395,182.8005981 		"/>
		<rect x="498.6373901" y="29.9983521" fill="#565440" width="9.8129883" height="8.4040527"/>
		<polygon fill="#565440" points="463.3930664,122.7507935 463.3930664,114.2209473 461.991272,114.2209473 461.991272,122.7507935
			459.3522339,122.7507935 459.3522339,124.1525879 521.0740967,124.1525879 521.0740967,131.1380005 522.4689331,131.1380005
			522.4689331,161.7727661 529.4782715,161.7727661 529.4782715,122.7507935 529.4782104,122.7507935 		"/>
		<polygon fill="#565440" points="529.4782104,62.2409668 521.0740967,62.2409668 521.0740967,72.0539551 522.4689331,72.0539551
			522.4689331,101.7362061 529.4782715,101.7362061 		"/>
		<polygon fill="#565440" points="415.4661865,100.4387207 415.4661865,99.0369263 413.1242065,99.0369263 413.1241455,37.0076904
			419.8190308,37.0076904 419.8190308,29.9983521 408.9186401,29.9983521 408.9187012,100.4386597 		"/>
		<polygon fill="#565440" points="331.539917,147.7542114 331.539917,128.833313 330.1379395,128.833313 330.1379395,147.7542114
			314.5949097,147.7542114 314.5949097,117.2423096 330.1379395,117.2423096 330.1379395,118.2817993 331.539917,118.2817993
			331.539917,115.840332 314.5949097,115.840332 314.5949097,38.4025269 318.6380615,38.4025269 318.6380615,37.0077515
			332,37.0077515 332,29.9984131 318.6380615,29.9984131 310.3892822,29.9984131 310.3892822,151.9598389 340.6134644,151.9598999
			340.6134644,147.7543945 		"/>
		<rect x="350.8650513" y="29.9984131" fill="#565440" width="9.9938354" height="8.4041138"/>
	</g>
	<path fill="none" stroke="#565440" d="M357.3306274,130.5730286c-1.3717041,0-2.6378174-0.3165588-3.9040833-0.8441315
		c-1.2661743-0.5275421-2.5324097-1.2662506-3.4819946-2.3213806c-0.9495544-0.9496689-1.7937012-2.1102753-2.3212585-3.3765106
		c-0.5275879-1.2662582-0.8441467-2.6378403-0.8441467-4.0095367h10.5515747 M445.954071,133.7239227
		c1.3717041,0,2.6378174,0.3165588,3.9040833,0.8441315c1.2661743,0.5275574,2.5324097,1.2662506,3.4819946,2.3213806
		c0.9495544,0.9496765,1.7937012,2.1102753,2.3212585,3.3765106c0.5275879,1.2662659,0.8441467,2.6378479,0.8441467,4.0095367
		h-10.5515747 M331.539978,128.8333282c1.3717041,0,2.6378174-0.3165588,3.9040833-0.8441238
		c1.2661743-0.5275497,2.5324097-1.2662506,3.4819946-2.3213806c0.9495544-0.9496765,1.7937012-2.1102829,2.3212585-3.3765182
		c0.5275574-1.2662506,0.8441467-2.6378403,0.8441467-4.0095291h-10.5515747 M383.2744141,117.2424469
		c0-1.5420532,0.2803345-2.803688,0.841156-4.2055054c0.5608215-1.401825,1.4018555-2.663414,2.3830872-3.6448364
		c0.9812622-1.1214828,2.2430115-1.962677,3.6448364-2.5233536c1.4018555-0.5608063,2.8036804-0.8411407,4.3457642-0.8411407
		v11.2148361 M355.3006287,151.9598389c0,2.0195007-0.3671265,3.6717682-1.101593,5.5076141
		c-0.7344666,1.8358612-1.835907,3.4880524-3.1209412,4.7733459c-1.2850952,1.4687195-2.9375,2.5703583-4.7733459,3.3046417
		c-1.835907,0.734436-3.6717529,1.1015778-5.6913147,1.1015778v-14.6871796 M415.466156,99.0369186
		c0-1.5420685,0.2803345-2.8036957,0.841156-4.2056427s1.4018555-2.6634064,2.3830872-3.6448364
		c0.9812622-1.1214905,2.2430115-1.962677,3.6448364-2.5233459c1.4018555-0.5608063,2.8036804-0.841156,4.3457642-0.841156
		v11.2148438 M448.1373596,122.7507858c0-1.5420685,0.2803345-2.8036957,0.841156-4.2056427
		s1.4018555-2.6634064,2.3830872-3.6448364c0.9812622-1.1214905,2.2430115-1.962677,3.6448364-2.5233459
		c1.4018555-0.5608063,2.8036804-0.841156,4.3457642-0.841156v11.2148438 M463.3930664,103.006134
		c1.5420837,0,2.8037109,0.2803345,4.205658,0.841156s2.6633911,1.4018478,3.6448364,2.3830795
		c1.1214905,0.9812622,1.962677,2.2430115,2.5233459,3.6448364c0.560791,1.4018555,0.841156,2.8036804,0.841156,4.3457642
		l-11.2148438,0.0000076"/>
</g>
<g>
	<g>
		<path fill="none" stroke="#565440" d="M313.1717834,30.699316v2.1027584l-83.0387115,0.0000229v-2.1027584
			L313.1717834,30.699316z"/>
	</g>
	<g>
		<path fill="none" stroke="#565440" d="M260.9892578,151.9598389c0,1.9758453-0.3593445,3.592392-1.0777588,5.3885651
			c-0.7183838,1.7961731-1.7961731,3.4129028-3.0534668,4.670166c-1.2574158,1.4369812-2.8739777,2.514801-4.6701355,3.2331848
			c-1.7961731,0.7184296-3.5924072,1.0777893-5.5682526,1.0777893v-14.3697052"/>
	</g>
	<g>
		<polygon fill="#565440" points="314.5949097,29.9984131 292.1719971,29.9984131 292.1719971,37.0077515 306.3987427,37.0077515
			306.3987427,38.4025269 310.3892822,38.4025269 310.3892822,43.2666016 310.3887329,43.2666016 310.3887939,114.8804932
			265.5228271,114.8804932 265.5228271,103.8566895 264.1206055,103.8566895 264.1206055,117.9802246 265.5228271,117.9802246
			265.5228271,116.2825928 310.3887939,116.2825317 310.3887939,147.7542114 265.5228271,147.7542114 265.5228271,129.1966553
			264.1207886,129.1966553 264.1207886,147.7542114 260.5337524,147.7542114 260.5337524,151.9598999 263.5199585,151.9598999
			263.5199585,151.9777222 314.5949097,151.9776611 314.5948486,50.949646 314.5949097,50.949646 		"/>
		<polygon fill="#565440" points="264.120636,92.6401978 265.5227966,92.6401978 265.5227966,37.00774 272.2576904,37.00774
			272.2576904,29.9984131 262.4322815,29.9984131 262.4322815,37.00774 264.120636,37.00774 		"/>
		<polygon fill="#565440" points="217.8527222,147.7542114 217.8527222,118.6812744 243.9647217,118.6812744 243.9647217,117.2791748
			217.8527222,117.2791748 217.8527222,43.2666016 217.8521729,43.2666016 217.8521729,38.4025269 225.9877319,38.4025269
			225.9877319,37.0077515 242.828186,37.0077515 242.828186,29.9984131 213.6464844,29.9984131 213.6464844,151.9777222
			246.6196289,151.9598999 246.6196289,147.7542114 		"/>
	</g>
</g>
<g>
	<rect x="355" y="-0.0001" fill="none" width="10" height="10"/>
	<rect x="34.0490799" y="235" fill="none" width="10" height="10"/>
	<rect x="355" y="469.9999084" fill="none" width="10" height="10"/>
	<rect x="676.3088989" y="235" fill="none" width="10" height="10"/>
</g>
<g>
	<path data-nr="1" class="plan__svg__hoverable" fill="none" d="M264.5273438,184.2026367h-46.6751709v-6.8222656v-8.0996094
		c1.9320679,0,3.5785522-0.3291016,5.5062256-1.1000977c1.8037109-0.7211914,3.4560547-1.8022461,4.7548828-3.1030273
		c1.4360352-1.2563477,2.5556641-2.8720703,3.328125-4.8022461c0.7397461-1.8510742,1.0996094-3.7099609,1.0996094-5.6835938v-0.5
		h-14.6888428v-1.116333V39.6564331v-2.631897v-0.0167847v-1.013916v-5.9954224h-14.4636841v0.2008057H183.477478v-0.2008057
		h-9.1891479v0.2008057h-19.8588867v-0.2008057H142.565979h-12.2653809h-15.4213257v0.2008057H94.902771v-0.2008057h-9.8129272
		v0.2008057H64.2626953l0.0001221,32.0418701h-0.2008057v39.2520752h0.2009888l0.000061,20.479248h-0.2010498v23.5544434h0.000061
		v5.4608765h-0.000061v9.4049072h0.2011719v21.0062256h-0.2011108v29.4389648v9.8129883h0.2011108v33.4439087h20.8267212v0.2007446
		h9.8129272v-0.2007446h26.6353149v0.2006836l39.2520752-0.000061v-0.2006226h14.0184937v0.2006836h9.8129883v-0.2006836h19.6259155
		v0.2006226h60.2797852v-9.8129883L264.5273438,184.2026367z M230.5126953,159.9042969
		c-0.7128906,1.7817383-1.7416992,3.2695313-3.0820313,4.4433594c-1.2285156,1.2285156-2.7646484,2.2329102-4.4433594,2.9042969
		c-1.8026733,0.7211914-3.3383179,1.0288086-5.1351318,1.0288086v-13.1889648h13.6810303
		C231.4790039,156.765625,231.1513672,158.3071289,230.5126953,159.9042969z"/>
	<path data-nr="7" class="plan__svg__hoverable" fill="none" d="M406.1151123,433.3204956h-0.000061l-0.000061-97.7175293h-2.1027832h-19.6040039
		c-0.0001221-1.9050903-0.3242798-3.5299072-1.0859375-5.4330444c-0.7119141-1.7802734-1.7783203-3.4101563-3.0615234-4.6914063
		c-1.2402344-1.4179688-2.8349609-2.5224609-4.7382813-3.2832031c-1.8271484-0.7304688-3.6621094-1.0859375-5.6083984-1.0859375
		h-0.5v14.4935913h-7.5980835h-8.9714966v0.000061h-44.859436v-8.4251099v-30.8268433H191.6310425v14.4594116l-0.8411865,3.4842529
		l1.347229,0.3024292l-5.0340576,21.815918l0.2225342,0.0445557l-0.7412109,3.0705566l5.0466919,1.1329346v18.7733765h2.0653687
		l-7.9942627,34.875061l0.1571045,0.0314331l-0.6766968,2.8035278l6.4485474,1.4476929v16.9165649h0.197998l-5.4179688,27.1953125
		l1.4648438,0.2080078l26.0076904,5.8855591l-0.0484009,0.2155762l4.0653687,0.9813232l1.4477539-6.4485474h18.6209106
		l23.7611694,6.1737061l0.0448608-0.1726074l1.8533936,0.4473877l1.4476929-6.4484863h15.3120117l3.4846802,0.8409424
		l0.0557861-0.2483521l21.5237427,5.5918579l0.026001-0.1002197l1.5251465,0.368103l0.9812622-4.0654297v-0.000061v-2.3867798
		h22.0356445l23.7463989,6.1697388l0.0263062-0.1013184l1.5744019,0.3800659l1.4476929-6.4485474h0.2342529v-0.000061
		l13.7617798,0.0009766l4.8598633,1.1217041l0.1434326-0.638916l21.9273682,5.6968384l0.1240845-0.4776001l3.0883789,0.7455444
		l1.4476929-6.4485474h3.7127075v-2.3113403h0.000061V433.3204956z M375.1513672,323.1230469
		c1.7558594,0.7021484,3.2216797,1.7158203,4.3798828,3.0380859c1.2099609,1.2099609,2.2001953,2.7246094,2.8632813,4.3798828
		c0.7098999,1.7781372,1.0135498,3.291626,1.0136719,5.0619507h-12.9941406v-13.4857788
		C372.0605469,322.1708984,373.5791016,322.4951172,375.1513672,323.1230469z"/>
	<path data-nr="6" class="plan__svg__hoverable" fill="none" d="M504.244873,433.7216187v-93.913147v-1.3977661v-2.8078003h-23.8297119
		l-0.00177-0.0003662h-10.0315552V321.109375h-0.5c-1.9492188,0-3.7841797,0.3554688-5.6083984,1.0859375
		c-1.9033203,0.7607422-3.4980469,1.8652344-4.7158203,3.2587891c-1.3056641,1.3056641-2.3720703,2.9355469-3.0839844,4.7158203
		c-0.7617188,1.9033203-1.0859375,3.5283203-1.0859375,5.4326172h-52.2159424v0.0004272h-1.2623901v103.2375488h0.000061v2.394104
		v2.3113403h4.2056274v-0.0014038l12.0283203-0.0039063v-0.0047607h3.3977661v-0.0228882l23.8543701,6.197937l0.1229248-0.4737549
		l1.373291,0.3314819l1.3531494-6.0280762h5.5404053h1.3435669h6.5109253l4.8598633,1.12146l0.1775513-0.7910156
		l22.6528931,5.8545532l0.1133423-0.4358521l2.8968506,0.6992798l1.4476929-6.4484253l10.4569092,0.0053711v-0.0053711h0.0049438
		L504.244873,433.7216187z M457.4013672,330.5410156c0.6630859-1.6552734,1.6533203-3.1699219,2.8857422-4.4042969
		c1.1357422-1.2978516,2.6015625-2.3115234,4.3574219-3.0136719c1.5712891-0.6289063,3.0888672-0.9521484,4.7373047-1.0058594
		v13.4853516h-12.9941406C456.3876953,333.8330078,456.6914063,332.3193359,457.4013672,330.5410156z"/>
	<polygon data-nr="5" class="plan__svg__hoverable" fill="none" points="655.505188,410.1816406 648.6361084,408.6204834 648.6361084,395.8826294
		648.6361084,369.932312 654.8447266,342.7832031 654.6699219,342.74823 654.8042603,342.1916504 648.6360474,340.7402344
		648.6360474,335.6029053 519.6652832,335.6029053 519.6652832,335.6030273 504.244873,335.6030273 504.244873,335.6029663
		500.0393677,335.6029663 500.0393677,433.7216187 500.0392456,433.7216187 500.0392456,443.5418091 500.0414429,443.5418091
		500.0393677,443.5459595 512.5390015,443.5459595 537.8583984,449.3339844 537.8600464,449.3258667 538.887085,449.5737915
		540.2402344,443.5458984 553.1749268,443.5458984 558.03479,444.6673584 558.1745605,444.0448608 579.6192017,448.946106
		582.2197876,449.5737915 583.5731201,443.5458984 602.4355469,443.5458984 602.4355469,443.765625 629.234375,443.765625
		647.0478516,447.7871094 655.1181641,413.1972656 654.8458862,413.1188965 	"/>
	<polygon data-nr="4" class="plan__svg__hoverable" fill="none" points="652.8765869,305.5788574 647.2342529,304.2767944 647.2341919,265.7905273
		649.4771729,260.1830444 649.03125,260.0078735 656.2958984,232.7675781 627.6082153,232.7675781 627.6082153,231.8656006
		626.2062378,231.8656006 626.2062378,227.6599731 622.0007324,227.6599731 622.0007324,231.8656006 605.1784668,231.8656006
		605.1784668,227.6599731 600.9729614,227.6599731 600.9729614,231.8656006 584.1506348,231.8656006 584.1506348,227.6599731
		579.9450073,227.6599731 579.9450073,231.8656006 561.7208862,231.8656006 561.7208862,227.6599731 557.5153809,227.6599731
		557.5153809,231.8656006 557.5153809,232.7675781 540.6930542,232.7675781 540.6930542,227.6599731 536.4875488,227.6599731
		536.4875488,232.7675781 519.6654053,232.7675781 519.6654053,227.6602783 515.4598999,227.6602783 515.4598999,231.8657837
		497.2357788,231.8657837 497.2357788,227.6602783 493.0301514,227.6602783 493.0301514,231.8657837 456.5820313,231.8655396
		456.5820313,303.3604736 498.6374512,303.3604736 498.6374512,307.565979 498.6375122,311.7714844 521.0671387,311.7714844
		521.0671387,318.7808228 521.0671387,332.7991333 521.0671387,333.6380615 521.0671387,335.6029053 521.0671387,339.8084106
		648.6360474,339.8084106 648.6360474,333.434021 654.96875,305.9960938 	"/>
	<path data-nr="3" class="plan__svg__hoverable" fill="none" d="M529.4782715,101.7362061V67.0223389h-0.000061v-4.7813721H529.27771
		l-0.0003662-32.041748h-20.8269653v-0.2008667h-9.8129883v0.2008667h-19.6259766v-0.2008667h-29.4390869h-2.9281616h-6.8848267
		v0.2008667h-19.9403076v-0.2008667h-6.6948853h-1.5700073h-2.635498v0.2008667h-18.7775269v-0.2008667h-9.7280884v0.2008667
		h-19.5541382v-0.2008057h-9.9938354v0.2008057H332v-0.2008057h-13.3619385h-8.2487793v5.3328857v1.3251343v0.3513184v1.3947754
		v1.2539063v108.0977783v1.5662842v2.6393433h2.0784912v0.0001221h27.6455078v15.1870117h0.5
		c2.0415039,0,3.9638672-0.3720703,5.8769531-1.137207c1.9951172-0.7983398,3.6655273-1.9555664,4.9414063-3.4155273
		c1.3676758-1.3676758,2.4853516-3.0766602,3.2319336-4.9414063c0.796875-1.9921875,1.137207-3.6948242,1.137207-5.6928711
		h53.1178589v37.8499146h4.2055054h95.3262939v-0.2009888h20.8288574l-0.0003662-27.8361206h0.1993408v-39.0219727h-0.000061
		h-0.199707l-0.0003052-21.0145874H529.4782715z M353.7348633,157.28125
		c-0.6962891,1.7402344-1.7373047,3.3330078-3.0332031,4.6303711c-1.1938477,1.3642578-2.7353516,2.4306641-4.5825195,3.1694336
		c-1.6606445,0.6640625-3.2636719,1.0043945-5.0058594,1.0581055v-14.1791992h13.6875
		C354.8007813,153.8227539,354.4819336,155.4145508,353.7348633,157.28125z"/>
	<g data-nr="2" class="plan__svg__hoverable">
		<polygon fill="none" points="292.1719971,29.9984131 292.1719971,30.1992188 272.2576904,30.1992188 272.2576904,29.9984131
			266.6378784,29.9984131 265.6137085,29.9984131 262.432251,29.9984131 262.432251,30.1992188 242.828186,30.1992188
			242.828186,29.9984131 213.6464844,29.9984131 213.6464844,35.184021 213.6464844,39.6564331 213.6464844,151.9598999
			246.6196289,151.9598999 246.6196289,151.9598389 260.5337524,151.9598389 260.5337524,151.9598999 314.5949097,151.9598389
			314.5949097,29.9984131 		"/>
		<path fill="none" d="M259.4472656,157.1630859c-0.6796875,1.699707-1.6972656,3.2563477-2.9658203,4.5263672
			c-1.1665039,1.3330078-2.6733398,2.3754883-4.4790039,3.0981445c-1.6201172,0.6479492-3.184082,0.9804688-4.8828125,1.0341797
			v-13.8618164h-1v14.8696289h0.5c1.9980469,0,3.8803711-0.3642578,5.7539063-1.1132813
			c1.9541016-0.7822266,3.5893555-1.9155273,4.8378906-3.3442383c1.340332-1.340332,2.4345703-3.0131836,3.1645508-4.8378906
			c0.7802734-1.9516602,1.1132813-3.6186523,1.1132813-5.5742188h-1
			C260.4892578,153.7802734,260.1777344,155.3364258,259.4472656,157.1630859z"/>
	</g>
</g>
</svg>
