<?xml version="1.0" encoding="utf-8"?>
<!-- Generator: Adobe Illustrator 24.2.0, SVG Export Plug-In . SVG Version: 6.00 Build 0)  -->
<!DOCTYPE svg PUBLIC "-//W3C//DTD SVG 1.1//EN" "http://www.w3.org/Graphics/SVG/1.1/DTD/svg11.dtd" [
	<!ENTITY ns_extend "http://ns.adobe.com/Extensibility/1.0/">
	<!ENTITY ns_ai "http://ns.adobe.com/AdobeIllustrator/10.0/">
	<!ENTITY ns_graphs "http://ns.adobe.com/Graphs/1.0/">
	<!ENTITY ns_vars "http://ns.adobe.com/Variables/1.0/">
	<!ENTITY ns_imrep "http://ns.adobe.com/ImageReplacement/1.0/">
	<!ENTITY ns_sfw "http://ns.adobe.com/SaveForWeb/1.0/">
	<!ENTITY ns_custom "http://ns.adobe.com/GenericCustomNamespace/1.0/">
	<!ENTITY ns_adobe_xpath "http://ns.adobe.com/XPath/1.0/">
]>
<svg version="1.1" id="_x31__x5F_2" xmlns:x="&ns_extend;" xmlns:i="&ns_ai;" xmlns:graph="&ns_graphs;"
	 xmlns="http://www.w3.org/2000/svg" xmlns:xlink="http://www.w3.org/1999/xlink" x="0px" y="0px" viewBox="0 0 720 480"
	 style="enable-background:new 0 0 720 480;" xml:space="preserve">
<style type="text/css">
	.st0{fill:#DBD4CA;}
	.st1{clip-path:url(#SVGID_2_);}
	.st2{fill:none;stroke:#C49F8A;stroke-miterlimit:10;}
	.st3{opacity:0.3;clip-path:url(#SVGID_4_);}
	.st4{opacity:0.7;fill:#C49F8A;enable-background:new    ;}
	.st5{fill:none;stroke:#565440;}
	.st6{fill:none;stroke:#565440;stroke-width:1.0000414;stroke-miterlimit:4.0001655;}
	.st7{fill:#565440;}
	.st8{fill:#E9E4DC;}
	.st9{fill:#C49F8A;}
	.st10{fill:#E9E4DC;stroke:#C49F8A;}
	.st11{fill:#E9E4DC;stroke:#C49F8A;stroke-width:0.9999701;stroke-miterlimit:3.9997807;}
	.st12{fill:none;stroke:#C49F8A;}
	.st13{fill:#E9E4DC;stroke:#C49F8A;stroke-linejoin:round;}
	.st14{fill:#E9E4DC;stroke:#C49F8A;stroke-width:0.9999997;stroke-miterlimit:3.9999988;}
	.st15{fill:#E9E4DC;stroke:#C49F8A;stroke-width:0.9999999;stroke-miterlimit:3.9999995;}
	.st16{opacity:0.76;}
	.st17{fill:#3F3F3F;fill-opacity:0;}
</style>
<metadata>
	<sfw  xmlns="&ns_sfw;">
		<slices></slices>
		<sliceSourceBounds  bottomLeftOrigin="true" height="667.6734619" width="667.6734619" x="129.0621185" y="-0.1681591">
			</sliceSourceBounds>
	</sfw>
</metadata>
<polygon id="Floor_1_" class="st0" points="503.8222046,406.1957703 503.8222046,60 231.2013092,60 231.2013092,94.8895721 
	229.5333405,100.7877121 238.5582886,103.429451 225.0667267,162.0892487 242.6972351,163.7013245 242.6972351,206.4927368 
	221.9202423,296.5337524 234.7484741,298.6871033 237.8220825,338.3497009 226.8100281,397.5286255 291.8588867,412.7055359 
	294.7116699,399.0858765 341.0736084,398.9386597 400.3006287,414.0306702 402.9877319,402.6820679 448.6428223,400.2840271 
	502.3742371,413.993866 "/>
<g id="Wet_Floor_1_">
	<g>
		<g>
			<defs>
				<rect id="SVGID_1_" x="408.5092163" y="142.1144867" width="87.4969482" height="133.4376373"/>
			</defs>
			<clipPath id="SVGID_2_">
				<use xlink:href="#SVGID_1_"  style="overflow:visible;"/>
			</clipPath>
			<g class="st1">
				<g>
					<line class="st2" x1="139.8370209" y1="156.7527924" x2="473.3202209" y2="-176.7304077"/>
					<line class="st2" x1="129.4156647" y1="146.3314514" x2="462.8988647" y2="-187.1517487"/>
					<line class="st2" x1="150.2583618" y1="167.1741486" x2="483.7415771" y2="-166.3090515"/>
					<line class="st2" x1="160.679718" y1="177.5954895" x2="494.1629028" y2="-155.8877106"/>
					<line class="st2" x1="171.101059" y1="188.0168457" x2="504.584259" y2="-145.4663544"/>
					<line class="st2" x1="181.5224152" y1="198.4381866" x2="515.0056152" y2="-135.0450134"/>
					<line class="st2" x1="191.9437561" y1="208.8595428" x2="525.4269409" y2="-124.6236649"/>
					<line class="st2" x1="202.3651123" y1="219.2808838" x2="535.8483276" y2="-114.2023163"/>
					<line class="st2" x1="212.7864532" y1="229.70224" x2="546.2696533" y2="-103.7809677"/>
					<line class="st2" x1="223.2078094" y1="240.1235809" x2="556.690979" y2="-93.3596191"/>
					<line class="st2" x1="212.7864532" y1="229.70224" x2="546.2696533" y2="-103.7809677"/>
					<line class="st2" x1="233.6291504" y1="250.5449371" x2="567.1123657" y2="-82.9382706"/>
					<line class="st2" x1="244.0505066" y1="260.9662781" x2="577.5336914" y2="-72.516922"/>
					<line class="st2" x1="254.4718475" y1="271.3876343" x2="587.9550781" y2="-62.0955696"/>
					<line class="st2" x1="264.8931885" y1="281.80896" x2="598.3764038" y2="-51.6742249"/>
					<line class="st2" x1="275.3145447" y1="292.2303162" x2="608.7977295" y2="-41.2528763"/>
					<line class="st2" x1="285.7359009" y1="302.6516724" x2="619.2191162" y2="-30.8315258"/>
					<line class="st2" x1="296.1572571" y1="313.0730286" x2="629.6404419" y2="-20.4101772"/>
					<line class="st2" x1="306.5785828" y1="323.4943542" x2="640.0617676" y2="-9.9888296"/>
					<line class="st2" x1="296.1572571" y1="313.0730286" x2="629.6404419" y2="-20.4101772"/>
					<line class="st2" x1="316.999939" y1="333.9157104" x2="650.4831543" y2="0.4325188"/>
					<line class="st2" x1="327.4212952" y1="344.3370667" x2="660.90448" y2="10.8538675"/>
					<line class="st2" x1="337.8426514" y1="354.7584229" x2="671.3258667" y2="21.2752151"/>
					<line class="st2" x1="348.2639771" y1="365.1797485" x2="681.7471924" y2="31.6965637"/>
					<line class="st2" x1="358.6853333" y1="375.6011047" x2="692.1685181" y2="42.1179123"/>
					<line class="st2" x1="369.1066895" y1="386.0224609" x2="702.5899048" y2="52.5392609"/>
					<line class="st2" x1="379.5280457" y1="396.4438171" x2="713.0112305" y2="62.9606094"/>
					<line class="st2" x1="389.9493713" y1="406.8651428" x2="723.4325562" y2="73.381958"/>
					<line class="st2" x1="379.5280457" y1="396.4438171" x2="713.0112305" y2="62.9606094"/>
					<line class="st2" x1="400.3707275" y1="417.286499" x2="733.8539429" y2="83.8033066"/>
					<line class="st2" x1="410.7920837" y1="427.7078552" x2="744.2752686" y2="94.2246552"/>
					<line class="st2" x1="421.2134399" y1="438.1292114" x2="754.6965942" y2="104.6460037"/>
					<line class="st2" x1="431.6347656" y1="448.5505371" x2="765.117981" y2="115.0673523"/>
					<line class="st2" x1="442.0561218" y1="458.9718933" x2="775.5393066" y2="125.4887009"/>
					<line class="st2" x1="452.477478" y1="469.3932495" x2="785.9606934" y2="135.9100494"/>
					<line class="st2" x1="462.8988342" y1="479.8146057" x2="796.382019" y2="146.3313904"/>
				</g>
				<g>
					<line class="st2" x1="473.3201294" y1="469.3930969" x2="139.8370667" y2="135.9100342"/>
					<line class="st2" x1="462.8987732" y1="479.8144531" x2="129.4157104" y2="146.3313904"/>
					<line class="st2" x1="483.7414551" y1="458.9717407" x2="150.2584076" y2="125.4886932"/>
					<line class="st2" x1="494.1628113" y1="448.5503845" x2="160.6797638" y2="115.0673447"/>
					<line class="st2" x1="504.5841675" y1="438.1290588" x2="171.1011047" y2="104.6459961"/>
					<line class="st2" x1="515.0054932" y1="427.7077026" x2="181.5224609" y2="94.2246475"/>
					<line class="st2" x1="525.4268188" y1="417.2863464" x2="191.9438019" y2="83.803299"/>
					<line class="st2" x1="535.8482056" y1="406.8649902" x2="202.3651581" y2="73.3819504"/>
					<line class="st2" x1="546.2695313" y1="396.4436646" x2="212.786499" y2="62.9606018"/>
					<line class="st2" x1="556.690918" y1="386.0223083" x2="223.2078552" y2="52.5392532"/>
					<line class="st2" x1="546.2695313" y1="396.4436646" x2="212.786499" y2="62.9606018"/>
					<line class="st2" x1="567.1122437" y1="375.6009521" x2="233.6291962" y2="42.1179047"/>
					<line class="st2" x1="577.5335693" y1="365.1795959" x2="244.0505524" y2="31.6965561"/>
					<line class="st2" x1="587.9549561" y1="354.7582703" x2="254.4718933" y2="21.2752075"/>
					<line class="st2" x1="598.3762817" y1="344.3369141" x2="264.8932495" y2="10.8538599"/>
					<line class="st2" x1="608.7976685" y1="333.9155579" x2="275.3146057" y2="0.4325115"/>
					<line class="st2" x1="619.2189941" y1="323.4942017" x2="285.7359314" y2="-9.9888372"/>
					<line class="st2" x1="629.6403198" y1="313.072876" x2="296.1572876" y2="-20.4101849"/>
					<line class="st2" x1="640.0617065" y1="302.6515198" x2="306.5786438" y2="-30.8315334"/>
					<line class="st2" x1="629.6403198" y1="313.072876" x2="296.1572876" y2="-20.4101849"/>
					<line class="st2" x1="650.4830322" y1="292.2301636" x2="317" y2="-41.2528801"/>
					<line class="st2" x1="660.9043579" y1="281.8088074" x2="327.4213257" y2="-51.6742287"/>
					<line class="st2" x1="671.3257446" y1="271.3874817" x2="337.8426819" y2="-62.0955772"/>
					<line class="st2" x1="681.7470703" y1="260.9661255" x2="348.2640381" y2="-72.5169296"/>
					<line class="st2" x1="692.168457" y1="250.5447693" x2="358.6853638" y2="-82.9382782"/>
					<line class="st2" x1="702.5897827" y1="240.1234283" x2="369.10672" y2="-93.3596268"/>
					<line class="st2" x1="713.0111084" y1="229.7020721" x2="379.5280762" y2="-103.7809753"/>
					<line class="st2" x1="723.4324951" y1="219.2807312" x2="389.9494324" y2="-114.2023239"/>
					<line class="st2" x1="713.0111084" y1="229.7020721" x2="379.5280762" y2="-103.7809753"/>
					<line class="st2" x1="733.8538208" y1="208.8593903" x2="400.3707581" y2="-124.6236725"/>
					<line class="st2" x1="744.2751465" y1="198.4380341" x2="410.7921143" y2="-135.0450134"/>
					<line class="st2" x1="754.6965332" y1="188.0166931" x2="421.2134705" y2="-145.4663696"/>
					<line class="st2" x1="765.1178589" y1="177.5953369" x2="431.6348267" y2="-155.8877106"/>
					<line class="st2" x1="775.5392456" y1="167.173996" x2="442.0561523" y2="-166.3090668"/>
					<line class="st2" x1="785.9605713" y1="156.7526398" x2="452.4775085" y2="-176.7304077"/>
					<line class="st2" x1="796.381897" y1="146.3312988" x2="462.8988647" y2="-187.1517639"/>
				</g>
			</g>
		</g>
	</g>
	<g>
		<g>
			<defs>
				<rect id="SVGID_3_" x="408.5092163" y="142.1144867" width="87.4969482" height="133.4376373"/>
			</defs>
			<clipPath id="SVGID_4_">
				<use xlink:href="#SVGID_3_"  style="overflow:visible;"/>
			</clipPath>
			<g class="st3">
				<rect x="301.8193665" y="-25.1694698" class="st4" width="322.158905" height="322.1589355"/>
			</g>
		</g>
	</g>
</g>
<g id="Windows">
	<path class="st5" d="M238.7603607,102.6998672l-11.8244324,51.2396011l-4.9267731-0.9853821l11.8244324-51.2396164
		L238.7603607,102.6998672z"/>
	<path class="st5" d="M242.7018585,206.4927368l-19.050415,83.099884l-4.9267426-0.9853821l19.0503845-83.100174
		L242.7018585,206.4927368z"/>
	<polygon class="st5" points="285.0733032,416.3779907 286.3869934,411.4511719 226.2791748,397.9840393 241.7167969,318.825592 
		237.1181793,317.8401794 220.3669586,401.9259033 222.6660919,402.2541809 	"/>
	
		<rect x="364.1482544" y="378.526825" transform="matrix(0.2514893 -0.9678601 0.9678601 0.2514893 -120.5738831 660.2930908)" class="st6" width="4.9201255" height="59.1472626"/>
	
		<rect x="469.131897" y="381.8414612" transform="matrix(0.2514893 -0.9678601 0.9678601 0.2514893 -42.6575089 762.4168091)" class="st6" width="4.9200897" height="53.8921051"/>
</g>
<path id="Doors" class="st5" d="M369.1585999,273.4981079c-3.6130981,0-6.5691528-0.6568298-9.8536377-1.9707947
	c-3.2845154-1.3140259-6.2404785-3.2845154-8.5399475-5.5836487c-2.6276855-2.299408-4.5986328-5.2554321-5.9122925-8.5399475
	c-1.3140259-3.2845154-1.9708557-6.5691071-1.9708557-10.1821747h26.2767334 M411.8583069,240.652359
	c3.6130676,0,6.5691833,0.6569061,9.8536072,1.9708557c3.2845459,1.3140259,6.2404785,3.2845154,8.539978,5.5836487
	c2.6276855,2.2993317,4.5986023,5.2553711,5.9123535,8.5398712c1.3139343,3.2845154,1.9707642,6.5691833,1.9707642,10.182251
	h-26.2767029 M441.0533752,145.3991547c0,3.6130829,0.6568298,6.5691071,1.9707642,9.8536224
	c1.3140259,3.2845154,3.2845154,6.2408295,5.5840149,8.5399628c2.2991028,2.6276855,5.2554321,4.5986023,8.5399475,5.9122772
	c3.2845154,1.3136597,6.5690918,1.9708405,10.182251,1.9708405v-26.2767029 M402.0046692,296.4902954
	c0,3.6130676-0.6568298,6.5690918-1.9707642,9.8536072c-1.3140259,3.2845459-3.2845154,6.2409058-5.5840149,8.539978
	c-2.2991028,2.6276855-5.2554321,4.5986023-8.5399475,5.912262c-3.2845154,1.3137512-6.5691528,1.9708557-10.1822205,1.9708557
	v-26.2767029 M503.510376,101.5269928c4.2698975,0,8.5280151,0.985321,12.4696655,2.6276093
	c3.9417725,1.6422958,7.8831177,3.9417114,10.8390503,7.2262955c2.9562378,2.9562454,5.5836182,6.5690384,7.2263184,10.5107422
	c1.6422119,3.9412766,2.6276245,8.2113266,2.6276245,12.4812393h-33.162384"/>
<g id="Walls">
	<path class="st7" d="M247.6289063,96.1303711V76.4228516l166.0704956-0.000061v9.430603h12.7362061v-9.430603h67.5374756
		v25.1071167h9.8536377V60l-272.6207886,0.000061v33.8787842l-1.9708862,8.1637573l16.0944824,3.6132202L247.6289063,96.1303711z
		 M423.151001,82.5688477h-6.1669922v-6.1460571h6.1669922V82.5688477z"/>
	<polygon class="st7" points="231.2059937,207.8063965 254.1980591,207.8063965 254.197998,155.2531128 237.7749634,155.2531128 
		221.680603,151.6403198 219.3814087,161.1653442 231.2059326,163.8198242 	"/>
	<polygon class="st7" points="233.0267334,289.9212646 218.3959961,286.6367188 216.0969238,296.1621094 231.2059937,299.5540161 
		231.2059937,339.1900024 254.1981201,339.1900024 254.1980591,289.9212036 	"/>
	<polygon class="st7" points="286.5159302,403.0610352 283.2310181,417.6919556 292.7563477,419.9912109 296.1484375,404.8821411 
		341.8129883,404.8821411 341.8129883,381.8897095 286.5158691,381.8897095 	"/>
	<polygon class="st7" points="441.4198608,388.4589233 393.6577759,388.4589233 393.6577759,403.0609741 390.373291,417.6918945 
		399.8986206,419.9911499 403.2905884,404.8820801 439.1670532,404.8820801 447.3317871,406.852478 450.9452515,390.7581787 
		441.4198608,388.5353394 	"/>
	<polygon class="st7" points="372.4431763,247.2215576 372.4431763,240.6524048 243.3590088,240.6524048 234.4904785,238.6816406 
		233.833313,241.9664307 242.7018433,243.9369507 369.1585693,243.9369507 369.1585693,247.2215576 	"/>
	<path class="st7" d="M503.8267212,134.3728638h-9.8536377v7.7416382h-26.7860718v3.284668h16.0645142v10.7695313h10.7215576
		v54.9224243l-82.1148071,0.000061v-65.6920166h29.1950684v-3.284668l-32.4796143,0.000061v98.5377808h3.2845459v-26.2765503
		h82.1148071l0.000061,59.1223145h-82.1148682v-6.5690308h-3.2845459v26.2766113h-6.569397v3.2846069h9.8540649
		l-0.0001221-19.7075806h82.1148682v132.7540283l-1.9708862,8.1641846L501.5276489,420l2.2991333-9.5255127L503.8267212,134.3728638
		z M486.5361328,152.8840942v-7.4849243h7.4369507v7.4849243H486.5361328z"/>
	<polygon class="st7" points="372.4432373,273.4981079 369.1585693,273.4981079 369.1586304,397.6557007 367.1881104,405.5388184 
		370.4727173,406.1958008 372.4432373,398.3126831 372.4432373,296.4902954 375.7277222,296.4902954 375.7277222,293.2056885 
		372.4432373,293.2056885 	"/>
</g>
<g id="Furniture">
	<g>
		<g>
			<rect x="430.874939" y="317.2319031" class="st8" width="62.6435547" height="51.7958984"/>
			<path class="st9" d="M493.0184021,317.7315369v50.796051h-61.6430054l-0.0000305-50.7960205L493.0184021,317.7315369
				 M494.0184021,316.7315369l-63.6430359,0.0000305l0.0000305,52.7960205h63.6430054V316.7315369L494.0184021,316.7315369z"/>
		</g>
		<rect x="473.7492981" y="321.2381287" class="st10" width="15.7382813" height="20.6064148"/>
		<rect x="473.7493286" y="344.4146118" class="st10" width="15.7382813" height="20.6064148"/>
		<polygon class="st11" points="480.1505127,323.7703857 484.2235718,338.6649475 469.0219727,342.6557617 464.9489136,327.7612 		
			"/>
		<polygon class="st11" points="469.015686,343.7227783 484.2172852,347.7135925 480.1442261,362.6081543 464.942627,358.6173401 		
			"/>
		<g>
			<polygon class="st8" points="430.2489624,369.0278015 430.2479858,317.2504578 476.906189,317.2504578 481.5233765,348.4291687 
				480.2167358,369.0278015 			"/>
			<path class="st9" d="M476.4752808,317.7502136l4.5454102,30.6990967l-1.2731018,20.0782776h-0.0658264l-48.9332886,0.0000305
				v-50.7774048H476.4752808 M477.3381348,316.7502136h-0.3348083h-47.2548523v52.7774048l49.9332886-0.0000305h1.004425
				l1.3391724-21.1203613L477.3381348,316.7502136L477.3381348,316.7502136z"/>
		</g>
		<polyline class="st12" points="479.0669556,368.8240662 479.0669861,348.2176514 476.4439697,317.3309326 		"/>
	</g>
	<g>
		<g>
			<rect x="306.0064087" y="301.5002747" class="st8" width="62.6425781" height="51.7958984"/>
			<path class="st9" d="M368.1493225,302.0003967v50.7960205h-61.6430054l-0.0000305-50.7960205H368.1493225
				 M369.1493225,301.0003967h-63.6430359l0.0000305,52.7960205h63.6430054V301.0003967L369.1493225,301.0003967z"/>
		</g>
		<rect x="348.880249" y="305.506958" class="st10" width="15.7382813" height="20.6064148"/>
		<rect x="348.880249" y="328.6834412" class="st10" width="15.7382813" height="20.6064148"/>
		<polygon class="st11" points="355.2814331,308.0392151 359.3544922,322.9337769 344.1529236,326.9245911 340.079834,312.0300293 
					"/>
		<polygon class="st11" points="344.146637,327.9916077 359.3482361,331.9824219 355.275177,346.8769836 340.0735779,342.8861694 		
			"/>
		<g>
			<polygon class="st8" points="305.3794556,353.2961731 305.3794556,301.5188293 352.0376587,301.5188293 356.6538696,332.6975403 
				355.347229,353.2961731 			"/>
			<path class="st9" d="M351.6062012,302.019043l4.5454102,30.6990662l-1.2731323,20.0783081h-0.0657959l-48.9332886,0.0000305
				V302.019043H351.6062012 M352.4690552,301.019043h-0.3348083h-47.2548523v52.7774048l49.9332886-0.0000305h1.0043945
				l1.3392029-21.1203613L352.4690552,301.019043L352.4690552,301.019043z"/>
		</g>
		<polyline class="st12" points="354.1979065,353.0928955 354.1979065,332.4864807 351.5748901,301.5997925 		"/>
	</g>
	<g>
		<g>
			<rect x="412.1254883" y="294.1552734" class="st8" width="81.3427734" height="1.8349609"/>
			<path class="st9" d="M412.6253967,294.6556702l80.3431091,0.0000305v0.8345947l-80.3431091-0.0000305V294.6556702
				 M411.6253967,293.6556702v2.8345947l82.3431091,0.0000305v-2.8345947L411.6253967,293.6556702L411.6253967,293.6556702z"/>
		</g>
		<g>
			<rect x="412.1254883" y="277.2832031" class="st8" width="81.3427734" height="16.8798828"/>
			<path class="st9" d="M412.6251221,277.7828369h80.3431091l-0.0000305,15.8803101h-80.3430786V277.7828369
				 M411.6251221,276.7828369v17.8803101h82.3430786l0.0000305-17.8803101H411.6251221L411.6251221,276.7828369z"/>
		</g>
		<path class="st10" d="M493.5891724,277.3662109l-81.8134766,16.7149048"/>
	</g>
	<g>
		<g>
			<rect x="265.4609375" y="261.2480469" class="st8" width="63.7177734" height="1.8339844"/>
			<path class="st9" d="M265.960907,261.7477112l62.7179565,0.0000305v0.8345947l-62.7179565-0.0000305V261.7477112
				 M264.960907,260.7477112v2.8345947l64.7179565,0.0000305v-2.8345947L264.960907,260.7477112L264.960907,260.7477112z"/>
		</g>
		<g>
			<rect x="265.4606934" y="244.375" class="st8" width="63.7180176" height="16.8798828"/>
			<path class="st9" d="M265.9606934,244.8748627l62.7179565,0.0000305v15.8802948h-62.7179871L265.9606934,244.8748627
				 M264.9606934,243.8748627l-0.0000305,17.8803253h64.7179871v-17.8802948L264.9606934,243.8748627L264.9606934,243.8748627z"/>
		</g>
		<path class="st10" d="M329.3807373,244.4582672L265.07901,261.1731567"/>
	</g>
	<g>
		<g>
			<rect x="409.0809937" y="128.8334961" class="st8" width="18.2119141" height="1.8344727"/>
			<path class="st9" d="M426.7929077,129.3335571v0.8346252l-17.2120361-0.0000305v-0.8345947H426.7929077 M427.7929077,128.3335571
				h-19.2120361v2.8345947l19.2120361,0.0000305V128.3335571L427.7929077,128.3335571z"/>
		</g>
		<g>
			<rect x="409.0809937" y="130.6606445" class="st8" width="18.2119141" height="10.9536133"/>
			<path class="st9" d="M426.7929382,131.1607361v9.9537659h-17.2120667l0.0000305-9.9537659H426.7929382 M427.7929382,130.1607361
				h-19.2120361l-0.0000305,11.9537659h19.2120667V130.1607361L427.7929382,130.1607361z"/>
		</g>
		<path class="st10" d="M409.1495361,141.5511169l18.1280823-10.8279114"/>
	</g>
	<g>
		<g>
			<rect x="438.0551758" y="90.03125" class="st8" width="55.4130859" height="1.8344727"/>
			<path class="st9" d="M438.5551453,90.5311279l54.4135437,0.0000305v0.8345947h-54.4135437V90.5311279 M437.5551453,89.5311279
				v2.8346252h56.4135437v-2.8345947L437.5551453,89.5311279L437.5551453,89.5311279z"/>
		</g>
		<g>
			<rect x="438.0551758" y="76.9223633" class="st8" width="55.4130859" height="13.1162109"/>
			<path class="st9" d="M492.9685364,77.4225464v12.1160583l-54.4135437-0.0000305l0.0000305-12.1160278H492.9685364
				 M493.9685364,76.4225464h-56.4135132l-0.0000305,14.1160278l56.4135437,0.0000305V76.4225464L493.9685364,76.4225464z"/>
		</g>
		<path class="st10" d="M493.3742371,77.0878372l-55.3815002,12.7865295"/>
	</g>
	<g>
		<g>
			<rect x="469.8696289" y="214.8756409" class="st8" width="23.5986328" height="58.1269531"/>
			<path class="st9" d="M470.3700562,272.5028076l22.598175-0.0000305l-0.000061-57.1270142l-22.598175,0.000061
				L470.3700562,272.5028076 M469.3700562,273.5028076l-0.000061-59.1269836l24.598175-0.000061l0.000061,59.1270142
				L469.3700562,273.5028076L469.3700562,273.5028076z"/>
		</g>
		<g>
			<g>
				<path class="st13" d="M481.6689148,219.839386c4.5327759,0,8.0333252,3.9044495,7.629425,8.3474426
					c-0.4487915,4.936676-0.8526917,11.1299438-0.8526917,15.7524719c0,4.577652,0.4487915,10.7709198,0.8527222,15.7524719
					c0.4039001,4.487854-3.14151,8.3474426-7.6293945,8.3474426s-8.0333252-3.9044495-7.629425-8.3474426
					c0.4487915-4.936676,0.8526917-11.1299438,0.8526917-15.7524719c0-4.5776367-0.4487915-10.7709198-0.8527222-15.7524719
					C473.6356201,223.7438354,477.1810303,219.839386,481.6689148,219.839386z"/>
				<ellipse class="st13" cx="481.6691284" cy="227.6931763" rx="0.8945618" ry="0.8945618"/>
			</g>
		</g>
	</g>
	<g>
		<g>
			<rect x="412.3568115" y="151.9311523" class="st8" width="13.3808594" height="20.0302734"/>
			<path class="st9" d="M425.2377319,152.4313354v19.0299377h-12.3805847V152.431366L425.2377319,152.4313354
				 M426.2377319,151.4313354l-14.3805847,0.0000305v21.0299072h14.3805847V151.4313354L426.2377319,151.4313354z"/>
		</g>
		<g>
			<path class="st8" d="M419.0472412,166.1293945c-2.3066406,0-4.1826172-1.8764648-4.1826172-4.1831055
				s1.8759766-4.1831055,4.1826172-4.1831055s4.1835938,1.8764648,4.1835938,4.1831055
				S421.3538818,166.1293945,419.0472412,166.1293945z"/>
			<path class="st9" d="M419.0474243,158.263031c2.0309753,0,3.6832886,1.6523132,3.6832886,3.6832886
				c0,2.0309448-1.6523132,3.6832581-3.6832581,3.6832581c-2.0309753,0-3.6832886-1.6523132-3.6832886-3.6832581
				C415.3641663,159.9153442,417.0164795,158.263031,419.0474243,158.263031 M419.0474243,157.263031
				c-2.5864868,0-4.6832581,2.0967712-4.6832581,4.6832886c0,2.5864868,2.0967712,4.6832581,4.6832886,4.6832581
				c2.5864868,0,4.6832581-2.0967712,4.6832581-4.6832581C423.7307129,159.3598022,421.6339417,157.263031,419.0474243,157.263031
				L419.0474243,157.263031z"/>
		</g>
	</g>
	<g>
		<path class="st10" d="M269.960907,162.9607697v-44.3824234h32.2781372v44.3824234H269.960907z"/>
		<path class="st10" d="M278.0304565,115.8885117v-0.6716537c0-4.4570007,3.6133423-8.0703506,8.0695496-8.0703506
			c4.4569702,0,8.070343,3.6133499,8.070343,8.0703506v0.6716537H278.0304565z"/>
		<path class="st10" d="M279.3753967,118.5783463v-3.3623047c0-3.7136154,3.0109863-6.724617,6.7246094-6.724617
			c3.7135925,0,6.7246094,3.0110016,6.7246094,6.724617v3.3623047H279.3753967z"/>
		<path class="st10" d="M278.0304565,165.6506195v0.6724548c0,4.4570007,3.6133423,8.0695496,8.0695496,8.0695496
			c4.4569702,0,8.070343-3.6125488,8.070343-8.0695496v-0.6724548H278.0304565z"/>
		<path class="st10" d="M279.3753967,162.9607697v3.3623047c0,3.713623,3.0109863,6.7246094,6.7246094,6.7246094
			c3.7135925,0,6.7246094-3.0109863,6.7246094-6.7246094v-3.3623047H279.3753967z"/>
		<path class="st10" d="M267.2710571,132.7000427h-0.6724548c-4.4561768,0-8.069519,3.6133423-8.069519,8.069519
			c0,4.4569855,3.6133423,8.0695343,8.069519,8.0695343h0.6724548V132.7000427z"/>
		<path class="st10" d="M269.960907,134.0449524h-3.3623047c-3.713623,0-6.7246094,3.0110016-6.7246094,6.7246094
			c0,3.7144318,3.0109863,6.7246094,6.7246094,6.7246094h3.3623047V134.0449524z"/>
		<path class="st10" d="M304.9281006,132.7000427h0.6724243c4.4570007,0,8.0695496,3.6133423,8.0695496,8.069519
			c0,4.4569855-3.6125488,8.0695343-8.0695496,8.0695343h-0.6724243V132.7000427z"/>
		<path class="st10" d="M302.2390442,134.0449524h3.3623047c3.713623,0,6.7246094,3.0110016,6.7246094,6.7246094
			c0,3.7144318-3.0109863,6.7246094-6.7246094,6.7246094h-3.3623047V134.0449524z"/>
	</g>
	<g>
		<path class="st10" d="M266.8293762,372.825531l-2.8588562,14.5614319l-13.628006-0.6133728l3.6389313-18.5328979
			L266.8293762,372.825531z"/>
		<g>
			
				<rect x="214.8605957" y="359.9820557" transform="matrix(0.1909908 -0.9815918 0.9815918 0.1909908 -166.9954376 539.2854004)" class="st8" width="57.6123047" height="21.9411621"/>
			<path class="st9" d="M238.7949982,341.1677246l20.5561066,3.9996033l-10.8123932,55.570343l-20.5561066-3.9996338
				L238.7949982,341.1677246 M238.0044098,339.9951172l-11.1943817,57.5335083l22.5192719,4.3816223l11.1943817-57.5335388
				L238.0044098,339.9951172L238.0044098,339.9951172z"/>
		</g>
		<path class="st12" d="M248.3725433,370.9274597l-2.2094727,11.25177 M251.2150421,370.454071l-2.5991211,13.2384033
			l-3.9715118-0.7800903l2.5991058-13.2375488L251.2150421,370.454071z"/>
		<path class="st14" d="M252.3374939,365.8114624L252.3374939,365.8114624
			c-0.1076508,0.5483398-0.6394501,0.9055786-1.1877747,0.7979431l-1.3237457-0.2599182
			c-0.5483398-0.107666-0.9055786-0.6394348-0.7979279-1.1877747l0,0c0.1076508-0.5483398,0.6394501-0.9055786,1.1877747-0.7979431
			l1.3237457,0.2599182C252.0879059,364.7313538,252.4451447,365.2631226,252.3374939,365.8114624z"/>
		<path class="st10" d="M240.1730499,371.7419128c1.8276215,0.3585205,3.0187225,2.1313782,2.6594086,3.9589844
			c-0.3585052,1.8276367-2.1313324,3.0179138-3.9589691,2.6593933l-3.3095856-0.650177l1.2995605-6.6183777L240.1730499,371.7419128
			z"/>
		<g>
			
				<rect x="217.9319916" y="373.302124" transform="matrix(0.1909899 -0.981592 0.981592 0.1909899 -176.8896942 533.8562622)" class="st8" width="34.9873352" height="1.8766785"/>
			<path class="st9" d="M238.2407837,357.4758911l0.8609314,0.1674805l-6.4912415,33.3616638l-0.8609314-0.167511
				L238.2407837,357.4758911 M237.4501801,356.3032837l-6.8732147,35.3248596l2.8241119,0.549469l6.8732147-35.3248291
				L237.4501801,356.3032837L237.4501801,356.3032837z"/>
		</g>
		<g>
			
				<rect x="252.633194" y="372.9694214" transform="matrix(0.1910067 -0.9815887 0.9815887 0.1910067 -161.8475342 561.6038818)" class="st8" width="14.3058472" height="12.0420532"/>
			<path class="st9" d="M255.6374664,371.4056091l10.8386688,2.1089172l-2.5413208,13.0610352l-10.8386536-2.1088867
				L255.6374664,371.4056091 M254.8468628,370.2330322l-2.9232788,15.024231l12.8018188,2.4908752l2.9233093-15.024231
				L254.8468628,370.2330322L254.8468628,370.2330322z"/>
		</g>
		<g>
			
				<rect x="259.1976013" y="379.4979858" transform="matrix(0.1909833 -0.9815933 0.9815933 0.1909833 -157.69487 569.3536987)" class="st8" width="14.7161865" height="1.6915283"/>
			<path class="st9" d="M267.526001,373.5458679l0.6790161,0.1321106l-2.6196594,13.4637146l-0.6790161-0.1321106
				L267.526001,373.5458679 M266.7353821,372.373291l-3.0016174,15.4269104l2.6421814,0.5140686l3.0016479-15.4269104
				L266.7353821,372.373291L266.7353821,372.373291z"/>
		</g>
	</g>
	<g id="Sink_2">
		<g id="Rectangle_16_x5F_11">
			<rect x="412.342041" y="217.5898743" class="st8" width="25.0693359" height="13.2773438"/>
			<path class="st9" d="M436.9112549,218.0900269v12.2769928l-24.0696716,0.0000153v-12.2769775L436.9112549,218.0900269
				 M437.9112549,217.0900269l-26.0696716,0.0000305v14.2769775l26.0696716-0.0000153V217.0900269L437.9112549,217.0900269z"/>
		</g>
		<path id="Rectangle_19_x5F_5" class="st10" d="M417.3838501,224.2284393L417.3838501,224.2284393
			c0,2.4138489,1.9568176,4.3706665,4.3706665,4.3706665h6.2438049c2.4138489,0,4.3706665-1.9568176,4.3706665-4.3706665l0,0
			c0-2.4138641-1.9568176-4.3706665-4.3706665-4.3706665h-6.2438049
			C419.3406677,219.8577728,417.3838501,221.8145905,417.3838501,224.2284393z"/>
		<circle id="Ellipse_7_x5F_2" class="st10" cx="424.8764343" cy="222.2866974" r="0.8945313"/>
	</g>
	<g id="Sink_2_2_">
		<g id="Rectangle_16_x5F_11_2_">
			<rect x="480.1917725" y="156.6891632" class="st8" width="13.2763672" height="19.7792969"/>
			<path class="st9" d="M492.9685059,157.1889801v18.7794189h-12.2769775v-18.7794189H492.9685059 M493.9685059,156.1889801
				h-14.2769775v20.7794189h14.2769775V156.1889801L493.9685059,156.1889801z"/>
		</g>
		<path id="Rectangle_19_x5F_5_2_" class="st10" d="M486.8301086,159.0860901L486.8301086,159.0860901
			c-2.4138489,0-4.3706665,1.9568176-4.3706665,4.3706665l0.0000305,6.2438049c0,2.4138641,1.9568176,4.3706665,4.3706665,4.3706665
			l0,0c2.4138489,0,4.3706665-1.9568176,4.3706665-4.3706665l-0.0000305-6.2438049
			C491.2007751,161.0429077,489.2439575,159.0860901,486.8301086,159.0860901z"/>
		<circle id="Ellipse_7_x5F_2_2_" class="st10" cx="488.7718506" cy="166.5786591" r="0.8945313"/>
	</g>
	<g id="Toilet_2_">
		<g id="Rectangle_21_2_">
			<rect x="448.0093994" y="217.5968018" class="st8" width="11.7363281" height="3.7128906"/>
			<path class="st9" d="M459.2455444,218.0969543v2.712677l-10.736145,0.0000305v-2.712677L459.2455444,218.0969543
				 M460.2455444,217.0969543l-12.736145,0.0000305v4.712677l12.736145-0.0000305V217.0969543L460.2455444,217.0969543z"/>
		</g>
		<path id="Rectangle_19_x5F_2_2_" class="st10" d="M449.3392944,229.8722229
			c-0.1746216,2.625412,1.907074,4.8506622,4.5383606,4.8506622l0,0c2.6307678,0,4.7128296-2.2252502,4.5378113-4.8506622
			l-0.5603333-8.4076385l-7.9549561,0.0000153L449.3392944,229.8722229z"/>
		<path id="Rectangle_18_x5F_13_2_" class="st10" d="M450.794342,229.6510468
			c-0.1648254,1.8130798,1.2629089,3.3764343,3.083313,3.3764343l0,0c1.8204041,0,3.2481384-1.5633545,3.083313-3.3764343
			l-0.4465332-4.9105682l-5.2735596,0.0000153L450.794342,229.6510468z"/>
		<ellipse id="Ellipse_6_x5F_2_2_" class="st10" cx="453.877655" cy="227.1165771" rx="0.8945618" ry="0.8945465"/>
	</g>
	<g id="Toilet_3_">
		<g id="Rectangle_21_3_">
			<rect x="484.1697998" y="189.1310272" class="st8" width="3.7119141" height="11.7363281"/>
			<path class="st9" d="M487.3821411,189.6309967l0.0000305,10.7361755h-2.712677l-0.0000305-10.7361755H487.3821411
				 M488.3821411,188.6309967h-4.712677l0.0000305,12.7361755h4.712677L488.3821411,188.6309967L488.3821411,188.6309967z"/>
		</g>
		<path id="Rectangle_19_x5F_2_3_" class="st10" d="M475.6069031,190.4609375
			c-2.6254272-0.1746368-4.8506775,1.9070587-4.8506775,4.5383453l0,0c0,2.6307678,2.2252502,4.7128296,4.8506775,4.5378265
			l8.4076233-0.5603333v-7.9549866L475.6069031,190.4609375z"/>
		<path id="Rectangle_18_x5F_13_3_" class="st10" d="M475.828064,191.9159698
			c-1.8130798-0.1648254-3.3764343,1.2629242-3.3764343,3.083313l0,0c0,1.8204041,1.5633545,3.2481384,3.3764343,3.083313
			l4.9105835-0.4465485l-0.0000305-5.2735291L475.828064,191.9159698z"/>
		<ellipse id="Ellipse_6_x5F_2_3_" class="st10" cx="478.7106628" cy="194.9992828" rx="0.8945618" ry="0.8945618"/>
	</g>
	<g>
		<path class="st10" d="M282.6835327,197.6636353c0-0.9045563-0.732666-1.6372223-1.6372375-1.6372223h-16.5147705v37.6716766
			h18.1520081V197.6636353z"/>
		<path class="st10" d="M311.9104309,217.1520996c0-0.9045563-0.7635498-1.6372375-1.7062073-1.6372375h-25.800293
			c-0.942688,0-1.7062073,0.7326813-1.7062073,1.6372375v16.54599h29.2127075V217.1520996z"/>
		<path class="st10" d="M340.0464478,217.1520996c0-0.9045563-0.7398376-1.6372375-1.6513672-1.6372375h-24.8332825
			c-0.912384,0-1.6513672,0.7326813-1.6513672,1.6372223v16.5460052h28.1360168V217.1520996z"/>
		<path class="st10" d="M340.0464478,214.1641541h6.1207275v25.993454h-88.2876282v-50.6181183h26.1546936v6.459549h-19.5027161
			v37.6990509h75.5149231V214.1641541z"/>
	</g>
	<g id="Shower">
		<path id="Rectangle_22" class="st10" d="M412.3443604,182.4694366v28.1368713h28.1368713v-19.391922
			c0-4.829834-3.9151001-8.7449493-8.7449646-8.7449493H412.3443604z"/>
		<path id="Rectangle_22_1_" class="st10" d="M414.1755371,184.3006134v24.4745178h24.4745178v-16.8678284
			c0-4.2011719-3.4055176-7.6066895-7.6066895-7.6066895H414.1755371z"/>
		<ellipse id="Ellipse_6_x5F_4" class="st10" cx="419.5598145" cy="203.3917236" rx="0.8945618" ry="0.8945618"/>
	</g>
	<g>
		<path class="st10" d="M404.6640015,354.970459l-0.023468,13.8535461l-12.5978088,1.8678284l0.0301819-17.632019
			L404.6640015,354.970459z"/>
		<g>
			<rect x="372.8955078" y="338.0954285" class="st8" width="20.4174805" height="48.9970703"/>
			<path class="st9" d="M392.8130798,338.5950623l0.0000305,47.9975586h-19.4174805v-47.9975586H392.8130798
				 M393.8130798,337.5950623h-21.41745v49.9975586h21.4174805L393.8130798,337.5950623L393.8130798,337.5950623z"/>
		</g>
		<path class="st12" d="M387.4120789,357.2476501l-0.0184937,10.7048645 M389.9324951,356.3070068l-0.0213623,12.5948486
			l-3.7785034-0.0067139l0.0215149-12.5940552L389.9324951,356.3070068z"/>
		<path class="st14" d="M390.1333008,351.1094055L390.1333008,351.1094055
			c-0.000885,0.5216675-0.4244995,0.9438477-0.9461975,0.9429626l-1.2593689-0.0021362
			c-0.521698-0.000885-0.9438782-0.4244995-0.9429932-0.9461975l0,0c0.000885-0.5216675,0.4244995-0.9438782,0.9461975-0.9429932
			l1.2593689,0.0021667C389.7120056,350.164093,390.1341858,350.5877075,390.1333008,351.1094055z"/>
		<path class="st10" d="M380.043457,359.4559937c1.7387085,0.002655,3.1463318,1.414917,3.1429443,3.1537476
			c-0.0026855,1.738739-1.4150391,3.1455688-3.1537476,3.1429138l-3.1487732-0.0057373l0.0108032-6.2966309L380.043457,359.4559937z
			"/>
		<polygon class="st15" points="378.1766357,346.2284546 378.1210938,378.9733582 376.3153687,379.1405334 376.5401917,346.2263184 
					"/>
		<g>
			<rect x="393.7210388" y="355.2142334" class="st8" width="11.1757813" height="13.2890625"/>
			<path class="st9" d="M404.3967285,355.7138062v12.2891235h-10.1755066v-12.2891235H404.3967285 M405.3967285,354.7138062
				h-12.1755066v14.2891235h12.1755066V354.7138062L405.3967285,354.7138062z"/>
		</g>
		<g>
			<rect x="404.9032593" y="355.0368347" class="st8" width="1.8349609" height="13.7089844"/>
			<path class="st9" d="M406.2378235,355.5368042v12.7091675h-0.8346252v-12.7091675H406.2378235 M407.2378235,354.5368042
				h-2.8346252v14.7091675h2.8346252V354.5368042L407.2378235,354.5368042z"/>
		</g>
	</g>
	<g>
		<rect x="487.4145508" y="176.4685516" class="st8" width="6.0537109" height="34.122757"/>
		<path class="st9" d="M492.9685059,176.968399v33.1227264h-5.0543823V176.968399H492.9685059 M493.9685059,175.968399h-7.0543823
			v35.1227264h7.0543823V175.968399L493.9685059,175.968399z"/>
	</g>
	<g id="Kitchen_1_">
		<g id="Rectangle_24_1_">
			<rect x="354.2542419" y="76.9226151" class="st8" width="58.9213867" height="18.3051758"/>
			<path class="st9" d="M412.6756897,77.4227982v17.3050537h-57.9213562V77.4227982H412.6756897 M413.6756897,76.4227982
				h-59.9213562v19.3050537h59.9213562V76.4227982L413.6756897,76.4227982z"/>
		</g>
		<g id="Rectangle_26_1_">
			<rect x="278.3370361" y="76.9232407" class="st8" width="134.7387695" height="18.3046875"/>
			<path class="st9" d="M412.5761414,77.4230576l0.0000305,17.3050537H278.8369446l-0.0000305-17.3050537H412.5761414
				 M413.5761414,76.4230576H277.8369141l0.0000305,19.3050537h135.7392273L413.5761414,76.4230576L413.5761414,76.4230576z"/>
		</g>
		<g id="Rectangle_27_1_">
			<rect x="394.7711487" y="76.9226151" class="st8" width="18.3051758" height="18.3051758"/>
			<path class="st9" d="M412.5761719,77.4228287v17.3050537h-17.3050537V77.4228287H412.5761719 M413.5761719,76.4228287
				h-19.3050537v19.3050537h19.3050537V76.4228287L413.5761719,76.4228287z"/>
		</g>
		<g id="Sink_3_1_">
			<rect id="Rectangle_28_x5F_2_1_" x="358.2669373" y="78.8359375" class="st10" width="22.9248352" height="14.4788437"/>
			<path id="Rectangle_29_x5F_2_1_" class="st10" d="M372.2055359,86.0753403v0.0000229
				c0,2.9986649-2.4309082,5.4295578-5.4295654,5.4295578h-1.2065735c-2.9986877,0.0000076-5.4295654-2.4308929-5.4295654-5.4295502
				v-0.0000229c0-2.9986649,2.4308777-5.4295578,5.4295349-5.4295578h1.206604
				C369.7746277,80.6457901,372.2055359,83.076683,372.2055359,86.0753403z"/>
			<ellipse id="Ellipse_7_x5F_3_1_" class="st10" cx="366.1726685" cy="83.6622162" rx="0.8945618" ry="0.8945313"/>
			<path id="Vector_2_1_" class="st12" d="M379.985199,80.6457825l-6.0328369,0.0000076 M379.985199,82.4556427
				l-6.0328369,0.0000076 M379.985199,84.2655029h-6.0328369 M379.985199,86.0753555h-6.0328369 M379.985199,87.8852081
				l-6.0328369,0.0000076 M379.985199,89.6950607h-6.0328369 M379.985199,91.504921h-6.0328369"/>
		</g>
		<g id="Stove_1_">
			<g id="Rectangle_25_1_">
				<rect x="301.1397095" y="76.9226151" class="st8" width="17.7983398" height="18.3051758"/>
				<path class="st9" d="M318.4379272,77.4227982l0.0000305,17.3050537h-16.7984009V77.4228287L318.4379272,77.4227982
					 M319.4379272,76.4227982l-18.7983704,0.0000305v19.3050232h18.7984009L319.4379272,76.4227982L319.4379272,76.4227982z"/>
			</g>
			<g id="Rectangle_28_x5F_3">
				<rect x="301.1396484" y="76.9231491" class="st8" width="17.7983398" height="1.8344727"/>
				<path class="st9" d="M318.4379272,77.4230576v0.8346252h-16.7983704v-0.8346252H318.4379272 M319.4379272,76.4230576
					h-18.7983704v2.8346252h18.7983704V76.4230576L319.4379272,76.4230576z"/>
			</g>
			<g id="Ellipse_7_x5F_4_1_">
				<path class="st8" d="M314.159668,85.3219299c-0.9125977,0-1.6547852-0.7421875-1.6547852-1.6547852
					s0.7421875-1.6547852,1.6547852-1.6547852s1.6552734,0.7421875,1.6552734,1.6547852
					S315.0722656,85.3219299,314.159668,85.3219299z"/>
				<path class="st9" d="M314.1597595,82.512146c0.6368408,0,1.1549377,0.5180969,1.1549377,1.1549377
					s-0.5180969,1.1549683-1.1549377,1.1549683c-0.6368103,0-1.1549072-0.5181274-1.1549072-1.1549683
					S313.5229492,82.512146,314.1597595,82.512146 M314.1597595,81.512146c-1.1901245,0-2.1549072,0.9648132-2.1549072,2.1549377
					c0,1.190155,0.9647827,2.1549683,2.1549072,2.1549683c1.190155,0,2.1549377-0.9648132,2.1549377-2.1549683
					C316.3146973,82.4769592,315.3499146,81.512146,314.1597595,81.512146L314.1597595,81.512146z"/>
			</g>
			<g id="Ellipse_9_1_">
				<path class="st8" d="M314.1591797,92.3258362c-1.2094727,0-2.1938477-0.984375-2.1938477-2.1938477
					s0.984375-2.1938477,2.1938477-2.1938477s2.1933594,0.984375,2.1933594,2.1938477
					S315.3686523,92.3258362,314.1591797,92.3258362z"/>
				<path class="st9" d="M314.1591187,88.4382629c0.9338684,0,1.693634,0.7597656,1.693634,1.6936646
					s-0.7597656,1.6936951-1.693634,1.6936951s-1.693634-0.7597961-1.693634-1.6936951
					S313.2252502,88.4382629,314.1591187,88.4382629 M314.1591187,87.4382629c-1.4876404,0-2.693634,1.2059937-2.693634,2.6936646
					s1.2059937,2.6936951,2.693634,2.6936951c1.4876709,0,2.693634-1.2060242,2.693634-2.6936951
					S315.6467896,87.4382629,314.1591187,87.4382629L314.1591187,87.4382629z"/>
			</g>
			<g id="Ellipse_10_1_">
				<path class="st8" d="M306.6176758,85.8609924c-1.2094727,0-2.1938477-0.984375-2.1938477-2.1938477
					s0.984375-2.1938477,2.1938477-2.1938477s2.1933594,0.984375,2.1933594,2.1938477
					S307.8271484,85.8609924,306.6176758,85.8609924z"/>
				<path class="st9" d="M306.6174622,81.9734192c0.9338989,0,1.6936951,0.7597656,1.6936951,1.6936646
					s-0.7597961,1.6936951-1.6936951,1.6936951s-1.6936951-0.7597961-1.6936951-1.6936951
					S305.6835632,81.9734192,306.6174622,81.9734192 M306.6174622,80.9734192c-1.4876709,0-2.6936951,1.2059937-2.6936951,2.6936646
					c0,1.4877014,1.2060242,2.6936951,2.6936951,2.6936951s2.6936951-1.2060242,2.6936951-2.6936951
					S308.1051331,80.9734192,306.6174622,80.9734192L306.6174622,80.9734192z"/>
			</g>
			<g id="Ellipse_8_1_">
				<path class="st8" d="M306.6166992,92.3258362c-0.9125977,0-1.6547852-0.7426758-1.6547852-1.6552734
					s0.7421875-1.6547852,1.6547852-1.6547852s1.6547852,0.7421875,1.6547852,1.6547852
					S307.5292969,92.3258362,306.6166992,92.3258362z"/>
				<path class="st9" d="M306.6168213,89.5157166c0.6368103,0,1.1549072,0.5180969,1.1549072,1.1549377
					s-0.5180969,1.1549683-1.1549072,1.1549683c-0.6368408,0-1.1549377-0.5180969-1.1549377-1.1549377
					S305.9799805,89.5157166,306.6168213,89.5157166 M306.6168213,88.5157166c-1.1901245,0-2.1549377,0.9648132-2.1549377,2.1549683
					c0,1.1901245,0.9648132,2.1549377,2.1549377,2.1549377s2.1549072-0.9648132,2.1549072-2.1549683
					C308.7717285,89.4805298,307.8069153,88.5157166,306.6168213,88.5157166L306.6168213,88.5157166z"/>
			</g>
		</g>
		<path id="Vector_3_1_" class="st12" d="M406.3367615,86.0749817h-4.8262634 M405.1302185,88.1868439l-2.413147-4.2229843
			 M405.1302185,83.9638596l-2.413147,4.2222672"/>
	</g>
	<g>
		<rect x="412.3583984" y="214.8759766" class="st8" width="57.5117188" height="2.7124023"/>
		<path class="st9" d="M469.3699951,215.3757935v1.7125549h-56.5116882v-1.7125549H469.3699951 M470.3699951,214.3757935
			h-58.5116882v3.7125549h58.5116882V214.3757935L470.3699951,214.3757935z"/>
	</g>
</g>
<g id="Numbers_1_">
	<g>
		<path class="st7" d="M371.9384766,138.0244141l-1.6376953,1.7910156h2.7451172v0.9541016h-4.2119141v-0.8642578l2.1152344-2.25
			l0.5039063-0.5576172c0.1259766-0.1445313,0.2382813-0.3212891,0.3369141-0.53125
			c0.0996094-0.2099609,0.1484375-0.3984375,0.1484375-0.5664063c0-0.3007813-0.1064453-0.5478516-0.3193359-0.7431641
			c-0.2128906-0.1943359-0.4785156-0.2919922-0.7958984-0.2919922c-0.5166016,0-1.0410156,0.2490234-1.5751953,0.7470703
			l-0.5673828-0.7382813c0.6601563-0.6484375,1.3886719-0.9716797,2.1875-0.9716797
			c0.6113281,0,1.1123047,0.1855469,1.5029297,0.5576172c0.3955078,0.3720703,0.59375,0.8544922,0.59375,1.4492188
			C372.9648438,136.6142578,372.6230469,137.2861328,371.9384766,138.0244141z"/>
		<path class="st7" d="M375.7363281,140.8779297c-0.7314453,0-1.4277344-0.2197266-2.0878906-0.6572266l0.4589844-0.8369141
			c0.5703125,0.359375,1.1015625,0.5400391,1.5927734,0.5400391c0.390625,0,0.6992188-0.0947266,0.9277344-0.2841797
			c0.2275391-0.1884766,0.3417969-0.4394531,0.3417969-0.7509766c0-0.3125-0.1171875-0.5654297-0.3515625-0.7607422
			c-0.2333984-0.1943359-0.5371094-0.2919922-0.9082031-0.2919922h-0.828125v-0.9365234h0.7919922
			c0.3476563,0,0.6298828-0.0898438,0.8457031-0.2695313c0.2158203-0.1806641,0.3242188-0.4169922,0.3242188-0.7109375
			c0-0.2880859-0.1054688-0.5195313-0.3154297-0.6933594s-0.4736328-0.2607422-0.7919922-0.2607422
			c-0.4443359,0-0.9150391,0.1855469-1.4130859,0.5576172l-0.5214844-0.7285156
			c0.2460938-0.2460938,0.5498047-0.4394531,0.9130859-0.5810547c0.3632813-0.140625,0.7363281-0.2109375,1.1210938-0.2109375
			c0.59375,0,1.0859375,0.1679688,1.4755859,0.5039063s0.5849609,0.75,0.5849609,1.2412109
			c0,0.3544922-0.1044922,0.6679688-0.3144531,0.9414063c-0.2109375,0.2724609-0.4863281,0.4628906-0.828125,0.5712891v0.0361328
			c0.4072266,0.0957031,0.7255859,0.2890625,0.9541016,0.5800781c0.2275391,0.2910156,0.3417969,0.6435547,0.3417969,1.0576172
			c0,0.5644531-0.2158203,1.0322266-0.6484375,1.4042969C376.9755859,140.6972656,376.4208984,140.8779297,375.7363281,140.8779297z
			"/>
	</g>
	<g>
		<path class="st7" d="M274.7734375,305.9667969l1.9350586-1.6025391h0.8007813v6.6513672h-1.0258789v-5.2558594
			l-1.1518555,0.9355469L274.7734375,305.9667969z"/>
		<path class="st7" d="M281.4243164,306.7226563c0.6000977,0,1.1040039,0.2041016,1.512207,0.6123047
			c0.4018555,0.4013672,0.6030273,0.9121094,0.6030273,1.5292969c0,0.6484375-0.2192383,1.1826172-0.6572266,1.6025391
			c-0.4262695,0.4199219-0.9780273,0.6298828-1.6557617,0.6298828c-0.7861328,0-1.3969727-0.3046875-1.831543-0.9130859
			c-0.4350586-0.609375-0.6435547-1.3730469-0.6254883-2.2910156c0-0.6357422,0.0957031-1.2236328,0.2875977-1.7636719
			c0.1923828-0.5400391,0.5043945-0.9873047,0.9360352-1.3408203c0.4443359-0.3603516,0.9692383-0.5400391,1.5751953-0.5400391
			c0.6777344,0,1.2568359,0.1884766,1.7368164,0.5664063l-0.440918,0.7744141
			c-0.3837891-0.2880859-0.7949219-0.4326172-1.2329102-0.4326172c-0.3959961,0-0.7441406,0.1357422-1.0439453,0.4052734
			c-0.5341797,0.4921875-0.8071289,1.1855469-0.8188477,2.0791016c0.1499023-0.2880859,0.3701172-0.5126953,0.6611328-0.6748047
			S281.0522461,306.7226563,281.4243164,306.7226563z M281.2353516,310.1875c0.3598633,0,0.6630859-0.1259766,0.9091797-0.3779297
			c0.2456055-0.2578125,0.3686523-0.5703125,0.3686523-0.9355469c0-0.3603516-0.1230469-0.6630859-0.3686523-0.9091797
			c-0.2402344-0.2402344-0.5400391-0.3603516-0.9003906-0.3603516c-0.3720703,0-0.6777344,0.1201172-0.9179688,0.3603516
			c-0.2460938,0.2460938-0.3686523,0.5517578-0.3686523,0.9179688c0,0.359375,0.1225586,0.6689453,0.3686523,0.9267578
			C280.5722656,310.0615234,280.8754883,310.1875,281.2353516,310.1875z"/>
		<path class="st7" d="M284.9790039,311.1591797c-0.1796875,0-0.331543-0.0595703-0.4541016-0.1796875
			c-0.1230469-0.1201172-0.1845703-0.2695313-0.1845703-0.4501953c0-0.1738281,0.0615234-0.3203125,0.1845703-0.4404297
			c0.1225586-0.1201172,0.2744141-0.1806641,0.4541016-0.1806641c0.1743164,0,0.3212891,0.0605469,0.4414063,0.1806641
			c0.1196289,0.1201172,0.1796875,0.2666016,0.1796875,0.4404297c0,0.1806641-0.0600586,0.3300781-0.1796875,0.4501953
			C285.300293,311.0996094,285.1533203,311.1591797,284.9790039,311.1591797z"/>
		<path class="st7" d="M288.9570313,306.7226563c0.6000977,0,1.1040039,0.2041016,1.512207,0.6123047
			c0.4018555,0.4013672,0.6030273,0.9121094,0.6030273,1.5292969c0,0.6484375-0.2192383,1.1826172-0.6572266,1.6025391
			c-0.4262695,0.4199219-0.9780273,0.6298828-1.6557617,0.6298828c-0.7861328,0-1.3969727-0.3046875-1.831543-0.9130859
			c-0.4350586-0.609375-0.6435547-1.3730469-0.6254883-2.2910156c0-0.6357422,0.0957031-1.2236328,0.2875977-1.7636719
			c0.1923828-0.5400391,0.5043945-0.9873047,0.9360352-1.3408203c0.4443359-0.3603516,0.9692383-0.5400391,1.5751953-0.5400391
			c0.6777344,0,1.2568359,0.1884766,1.7368164,0.5664063l-0.440918,0.7744141
			c-0.3837891-0.2880859-0.7949219-0.4326172-1.2329102-0.4326172c-0.3959961,0-0.7441406,0.1357422-1.0439453,0.4052734
			c-0.5341797,0.4921875-0.8071289,1.1855469-0.8188477,2.0791016c0.1499023-0.2880859,0.3701172-0.5126953,0.6611328-0.6748047
			S288.5849609,306.7226563,288.9570313,306.7226563z M288.7680664,310.1875c0.3598633,0,0.6630859-0.1259766,0.9091797-0.3779297
			c0.2456055-0.2578125,0.3686523-0.5703125,0.3686523-0.9355469c0-0.3603516-0.1230469-0.6630859-0.3686523-0.9091797
			c-0.2402344-0.2402344-0.5400391-0.3603516-0.9003906-0.3603516c-0.3720703,0-0.6777344,0.1201172-0.9179688,0.3603516
			c-0.2460938,0.2460938-0.3686523,0.5517578-0.3686523,0.9179688c0,0.359375,0.1225586,0.6689453,0.3686523,0.9267578
			C288.1049805,310.0615234,288.4082031,310.1875,288.7680664,310.1875z"/>
	</g>
	<g>
		<path class="st7" d="M450.8076172,180.6401367h0.7373047v0.890625h-0.7373047v1.6289063h-0.9902344v-1.6289063h-3.0419922
			l-0.2070313-0.6484375l3.5820313-4.3740234h0.6572266V180.6401367z M449.8173828,178.2368164l-1.9619141,2.4033203h1.9619141
			V178.2368164z"/>
		<path class="st7" d="M452.9765625,183.3032227c-0.1796875,0-0.3320313-0.0595703-0.4541016-0.1796875
			c-0.1230469-0.1201172-0.1845703-0.2695313-0.1845703-0.4501953c0-0.1738281,0.0615234-0.3203125,0.1845703-0.4404297
			c0.1220703-0.1201172,0.2744141-0.1806641,0.4541016-0.1806641c0.1738281,0,0.3212891,0.0605469,0.4414063,0.1806641
			c0.1191406,0.1201172,0.1796875,0.2666016,0.1796875,0.4404297c0,0.1806641-0.0605469,0.3300781-0.1796875,0.4501953
			C453.2978516,183.2436523,453.1503906,183.3032227,452.9765625,183.3032227z"/>
		<path class="st7" d="M457.5839844,180.4145508l-1.6376953,1.7910156h2.7451172v0.9541016h-4.2119141v-0.8642578l2.1152344-2.25
			l0.5039063-0.5576172c0.1259766-0.1445313,0.2382813-0.3212891,0.3369141-0.53125
			c0.0996094-0.2099609,0.1484375-0.3984375,0.1484375-0.5664063c0-0.3007813-0.1064453-0.5478516-0.3193359-0.7431641
			c-0.2128906-0.1943359-0.4785156-0.2919922-0.7958984-0.2919922c-0.5166016,0-1.0410156,0.2490234-1.5751953,0.7470703
			l-0.5673828-0.7382813c0.6601563-0.6484375,1.3886719-0.9716797,2.1875-0.9716797
			c0.6113281,0,1.1123047,0.1855469,1.5029297,0.5576172c0.3955078,0.3720703,0.59375,0.8544922,0.59375,1.4492188
			C458.6103516,179.0043945,458.2685547,179.6762695,457.5839844,180.4145508z"/>
	</g>
	<g>
		<path class="st7" d="M384.0981445,258.5332031l1.9355469-1.6025391h0.8007813v6.6513672h-1.0263672v-5.2558594
			l-1.1513672,0.9355469L384.0981445,258.5332031z"/>
		<path class="st7" d="M388.715332,263.7255859c-0.1796875,0-0.3320313-0.0595703-0.4541016-0.1796875
			c-0.1230469-0.1201172-0.1845703-0.2695313-0.1845703-0.4501953c0-0.1738281,0.0615234-0.3203125,0.1845703-0.4404297
			c0.1220703-0.1201172,0.2744141-0.1806641,0.4541016-0.1806641c0.1738281,0,0.3212891,0.0605469,0.4414063,0.1806641
			c0.1191406,0.1201172,0.1796875,0.2666016,0.1796875,0.4404297c0,0.1806641-0.0605469,0.3300781-0.1796875,0.4501953
			C389.0366211,263.6660156,388.8891602,263.7255859,388.715332,263.7255859z"/>
		<path class="st7" d="M389.7954102,257.8671875v-0.9365234h4.2294922v0.6572266l-2.5195313,5.9941406h-1.0986328
			l2.4570313-5.7148438H389.7954102z"/>
	</g>
	<g>
		<path class="st7" d="M448.659668,244.7021484h0.7373047v0.890625h-0.7373047v1.6289063h-0.9902344v-1.6289063h-3.0429688
			l-0.2070313-0.6484375l3.5820313-4.3745117h0.6582031V244.7021484z M447.6694336,242.2988281l-1.9628906,2.4033203h1.9628906
			V242.2988281z"/>
	</g>
	<g>
		<path class="st7" d="M398.371582,330.34375l1.9345703-1.6025391h0.8007813v6.6513672h-1.0253906v-5.2558594l-1.1523438,0.9355469
			L398.371582,330.34375z"/>
		<path class="st7" d="M401.9350586,330.34375l1.9355469-1.6025391h0.8007813v6.6513672h-1.0263672v-5.2558594l-1.1513672,0.9355469
			L401.9350586,330.34375z"/>
		<path class="st7" d="M406.5522461,335.5361328c-0.1796875,0-0.3320313-0.0595703-0.4541016-0.1796875
			c-0.1230469-0.1201172-0.1845703-0.2695313-0.1845703-0.4501953c0-0.1738281,0.0615234-0.3203125,0.1845703-0.4404297
			c0.1220703-0.1201172,0.2744141-0.1806641,0.4541016-0.1806641c0.1738281,0,0.3212891,0.0605469,0.4414063,0.1806641
			c0.1191406,0.1201172,0.1796875,0.2666016,0.1796875,0.4404297c0,0.1806641-0.0605469,0.3300781-0.1796875,0.4501953
			C406.8735352,335.4765625,406.7260742,335.5361328,406.5522461,335.5361328z"/>
		<path class="st7" d="M410.2329102,331.0722656c0.6357422,0,1.1669922,0.2041016,1.5927734,0.6123047
			c0.4267578,0.4082031,0.6396484,0.9296875,0.6396484,1.5664063c0,0.6601563-0.2255859,1.1992188-0.6757813,1.6191406
			c-0.4375,0.4208984-1.0136719,0.6308594-1.7275391,0.6308594c-0.7919922,0-1.5117188-0.2617188-2.1601563-0.7832031
			l0.4589844-0.8105469c0.5644531,0.4267578,1.1191406,0.6396484,1.6650391,0.6396484
			c0.4082031,0,0.7441406-0.1230469,1.0078125-0.3691406c0.2578125-0.2402344,0.3876953-0.5458984,0.3876953-0.9179688
			c0-0.3544922-0.1259766-0.6542969-0.3779297-0.9003906C410.7973633,332.1201172,410.4790039,332,410.0893555,332
			c-0.46875,0-0.8642578,0.1650391-1.1884766,0.4941406L408.253418,332.0625l0.3681641-3.3212891h3.3935547v0.9365234h-2.6015625
			l-0.1972656,1.6201172C409.5219727,331.1474609,409.8608398,331.0722656,410.2329102,331.0722656z"/>
	</g>
	<g>
		<path class="st7" d="M452.9536133,112.5610352h0.7382813v0.890625h-0.7382813v1.6289063h-0.9902344v-1.6289063h-3.0419922
			l-0.2070313-0.6484375l3.5820313-4.3740234h0.6572266V112.5610352z M451.9633789,110.1577148l-1.9619141,2.4033203h1.9619141
			V110.1577148z"/>
		<path class="st7" d="M455.1225586,115.2241211c-0.1796875,0-0.3310547-0.0595703-0.4541016-0.1796875
			s-0.1845703-0.2695313-0.1845703-0.4501953c0-0.1738281,0.0615234-0.3203125,0.1845703-0.4404297
			s0.2744141-0.1806641,0.4541016-0.1806641c0.1748047,0,0.3212891,0.0605469,0.4414063,0.1806641
			s0.1796875,0.2666016,0.1796875,0.4404297c0,0.1806641-0.0595703,0.3300781-0.1796875,0.4501953
			S455.2973633,115.2241211,455.1225586,115.2241211z"/>
		<path class="st7" d="M458.6323242,115.1889648c-0.7314453,0-1.4277344-0.2197266-2.0878906-0.6572266l0.4589844-0.8369141
			c0.5703125,0.359375,1.1015625,0.5400391,1.5927734,0.5400391c0.390625,0,0.6992188-0.0947266,0.9277344-0.2841797
			c0.2275391-0.1884766,0.3417969-0.4394531,0.3417969-0.7509766c0-0.3125-0.1171875-0.5654297-0.3515625-0.7607422
			c-0.2333984-0.1943359-0.5371094-0.2919922-0.9082031-0.2919922h-0.828125v-0.9365234h0.7919922
			c0.3476563,0,0.6298828-0.0898438,0.8457031-0.2695313c0.2158203-0.1806641,0.3242188-0.4169922,0.3242188-0.7109375
			c0-0.2880859-0.1054688-0.5195313-0.3154297-0.6933594s-0.4736328-0.2607422-0.7919922-0.2607422
			c-0.4443359,0-0.9150391,0.1855469-1.4130859,0.5576172l-0.5214844-0.7285156
			c0.2460938-0.2460938,0.5498047-0.4394531,0.9130859-0.5810547c0.3632813-0.140625,0.7363281-0.2109375,1.1210938-0.2109375
			c0.59375,0,1.0859375,0.1679688,1.4755859,0.5039063s0.5849609,0.75,0.5849609,1.2412109
			c0,0.3544922-0.1044922,0.6679688-0.3144531,0.9414063c-0.2109375,0.2724609-0.4863281,0.4628906-0.828125,0.5712891v0.0361328
			c0.4072266,0.0957031,0.7255859,0.2890625,0.9541016,0.5800781c0.2275391,0.2910156,0.3417969,0.6435547,0.3417969,1.0576172
			c0,0.5644531-0.2158203,1.0322266-0.6484375,1.4042969C459.871582,115.0083008,459.3168945,115.1889648,458.6323242,115.1889648z"
			/>
	</g>
</g>
<g id="street_anchors" class="st16">
	<rect id="street_x5F_anchor_x5F_02" x="355" y="450" class="st17" width="10" height="10"/>
	<rect id="street_x5F_anchor_x5F_01_1_" x="176.0969238" y="235" class="st17" width="10" height="10"/>
</g>
</svg>
