<?xml version="1.0" encoding="utf-8"?>
<!-- Generator: Adobe Illustrator 24.2.0, SVG Export Plug-In . SVG Version: 6.00 Build 0)  -->
<!DOCTYPE svg PUBLIC "-//W3C//DTD SVG 1.1//EN" "http://www.w3.org/Graphics/SVG/1.1/DTD/svg11.dtd" [
	<!ENTITY ns_extend "http://ns.adobe.com/Extensibility/1.0/">
	<!ENTITY ns_ai "http://ns.adobe.com/AdobeIllustrator/10.0/">
	<!ENTITY ns_graphs "http://ns.adobe.com/Graphs/1.0/">
	<!ENTITY ns_vars "http://ns.adobe.com/Variables/1.0/">
	<!ENTITY ns_imrep "http://ns.adobe.com/ImageReplacement/1.0/">
	<!ENTITY ns_sfw "http://ns.adobe.com/SaveForWeb/1.0/">
	<!ENTITY ns_custom "http://ns.adobe.com/GenericCustomNamespace/1.0/">
	<!ENTITY ns_adobe_xpath "http://ns.adobe.com/XPath/1.0/">
]>
<svg version="1.1" id="_x31__x5F_2" xmlns:x="&ns_extend;" xmlns:i="&ns_ai;" xmlns:graph="&ns_graphs;"
	 xmlns="http://www.w3.org/2000/svg" xmlns:xlink="http://www.w3.org/1999/xlink" x="0px" y="0px" viewBox="0 0 720 480"
	 style="enable-background:new 0 0 720 480;" xml:space="preserve">
<style type="text/css">
	.st0{fill:#DBD4CA;}
	.st1{clip-path:url(#SVGID_2_);}
	.st2{fill:none;stroke:#C49F8A;stroke-miterlimit:10;}
	.st3{opacity:0.3;clip-path:url(#SVGID_4_);}
	.st4{opacity:0.7;fill:#C49F8A;enable-background:new    ;}
	.st5{fill:none;stroke:#565440;}
	.st6{fill:#565440;}
	.st7{fill:#E9E4DC;}
	.st8{fill:#C49F8A;}
	.st9{fill:#E9E4DC;stroke:#C49F8A;}
	.st10{fill:#E9E4DC;stroke:#C49F8A;stroke-width:1;stroke-miterlimit:3.9998;}
	.st11{fill:none;stroke:#C49F8A;}
	.st12{fill:#E9E4DC;stroke:#C49F8A;stroke-linejoin:round;}
	.st13{opacity:0.72;}
	.st14{fill:#3F3F3F;fill-opacity:0;}
</style>
<metadata>
	<sfw  xmlns="&ns_sfw;">
		<slices></slices>
		<sliceSourceBounds  bottomLeftOrigin="true" height="667.7" width="667.7" x="71.1" y="-141.1"></sliceSourceBounds>
	</sfw>
</metadata>
<rect id="Floor" x="216.4" y="68.3" class="st0" width="287.1" height="351.7"/>
<g id="Wet_Floor_2_">
	<g>
		<defs>
			<rect id="SVGID_1_" x="360" y="311.3" width="143.2" height="104.5"/>
		</defs>
		<clipPath id="SVGID_2_">
			<use xlink:href="#SVGID_1_"  style="overflow:visible;"/>
		</clipPath>
		<g class="st1">
			<g>
				<line class="st2" x1="81.9" y1="297.6" x2="415.4" y2="-35.8"/>
				<line class="st2" x1="71.4" y1="287.2" x2="404.9" y2="-46.3"/>
				<line class="st2" x1="92.3" y1="308.1" x2="425.8" y2="-25.4"/>
				<line class="st2" x1="102.7" y1="318.5" x2="436.2" y2="-15"/>
				<line class="st2" x1="113.1" y1="328.9" x2="446.6" y2="-4.6"/>
				<line class="st2" x1="123.6" y1="339.3" x2="457" y2="5.9"/>
				<line class="st2" x1="134" y1="349.8" x2="467.5" y2="16.3"/>
				<line class="st2" x1="144.4" y1="360.2" x2="477.9" y2="26.7"/>
				<line class="st2" x1="154.8" y1="370.6" x2="488.3" y2="37.1"/>
				<line class="st2" x1="165.2" y1="381" x2="498.7" y2="47.5"/>
				<line class="st2" x1="154.8" y1="370.6" x2="488.3" y2="37.1"/>
				<line class="st2" x1="175.7" y1="391.4" x2="509.1" y2="58"/>
				<line class="st2" x1="186.1" y1="401.9" x2="519.6" y2="68.4"/>
				<line class="st2" x1="196.5" y1="412.3" x2="530" y2="78.8"/>
				<line class="st2" x1="206.9" y1="422.7" x2="540.4" y2="89.2"/>
				<line class="st2" x1="217.3" y1="433.1" x2="550.8" y2="99.6"/>
				<line class="st2" x1="227.8" y1="443.5" x2="561.3" y2="110.1"/>
				<line class="st2" x1="238.2" y1="454" x2="571.7" y2="120.5"/>
				<line class="st2" x1="248.6" y1="464.4" x2="582.1" y2="130.9"/>
				<line class="st2" x1="238.2" y1="454" x2="571.7" y2="120.5"/>
				<line class="st2" x1="259" y1="474.8" x2="592.5" y2="141.3"/>
				<line class="st2" x1="269.5" y1="485.2" x2="602.9" y2="151.7"/>
				<line class="st2" x1="279.9" y1="495.7" x2="613.4" y2="162.2"/>
				<line class="st2" x1="290.3" y1="506.1" x2="623.8" y2="172.6"/>
				<line class="st2" x1="300.7" y1="516.5" x2="634.2" y2="183"/>
				<line class="st2" x1="311.1" y1="526.9" x2="644.6" y2="193.4"/>
				<line class="st2" x1="321.6" y1="537.3" x2="655" y2="203.9"/>
				<line class="st2" x1="332" y1="547.8" x2="665.5" y2="214.3"/>
				<line class="st2" x1="321.6" y1="537.3" x2="655" y2="203.9"/>
				<line class="st2" x1="342.4" y1="558.2" x2="675.9" y2="224.7"/>
				<line class="st2" x1="352.8" y1="568.6" x2="686.3" y2="235.1"/>
				<line class="st2" x1="363.2" y1="579" x2="696.7" y2="245.5"/>
				<line class="st2" x1="373.7" y1="589.4" x2="707.2" y2="256"/>
				<line class="st2" x1="384.1" y1="599.9" x2="717.6" y2="266.4"/>
				<line class="st2" x1="394.5" y1="610.3" x2="728" y2="276.8"/>
				<line class="st2" x1="404.9" y1="620.7" x2="738.4" y2="287.2"/>
			</g>
			<g>
				<line class="st2" x1="415.4" y1="610.3" x2="81.9" y2="276.8"/>
				<line class="st2" x1="404.9" y1="620.7" x2="71.4" y2="287.2"/>
				<line class="st2" x1="425.8" y1="599.9" x2="92.3" y2="266.4"/>
				<line class="st2" x1="436.2" y1="589.4" x2="102.7" y2="256"/>
				<line class="st2" x1="446.6" y1="579" x2="113.1" y2="245.5"/>
				<line class="st2" x1="457" y1="568.6" x2="123.6" y2="235.1"/>
				<line class="st2" x1="467.5" y1="558.2" x2="134" y2="224.7"/>
				<line class="st2" x1="477.9" y1="547.8" x2="144.4" y2="214.3"/>
				<line class="st2" x1="488.3" y1="537.3" x2="154.8" y2="203.9"/>
				<line class="st2" x1="498.7" y1="526.9" x2="165.2" y2="193.4"/>
				<line class="st2" x1="488.3" y1="537.3" x2="154.8" y2="203.9"/>
				<line class="st2" x1="509.1" y1="516.5" x2="175.7" y2="183"/>
				<line class="st2" x1="519.6" y1="506.1" x2="186.1" y2="172.6"/>
				<line class="st2" x1="530" y1="495.7" x2="196.5" y2="162.2"/>
				<line class="st2" x1="540.4" y1="485.2" x2="206.9" y2="151.7"/>
				<line class="st2" x1="550.8" y1="474.8" x2="217.3" y2="141.3"/>
				<line class="st2" x1="561.3" y1="464.4" x2="227.8" y2="130.9"/>
				<line class="st2" x1="571.7" y1="454" x2="238.2" y2="120.5"/>
				<line class="st2" x1="582.1" y1="443.5" x2="248.6" y2="110.1"/>
				<line class="st2" x1="571.7" y1="454" x2="238.2" y2="120.5"/>
				<line class="st2" x1="592.5" y1="433.1" x2="259" y2="99.6"/>
				<line class="st2" x1="602.9" y1="422.7" x2="269.5" y2="89.2"/>
				<line class="st2" x1="613.4" y1="412.3" x2="279.9" y2="78.8"/>
				<line class="st2" x1="623.8" y1="401.9" x2="290.3" y2="68.4"/>
				<line class="st2" x1="634.2" y1="391.4" x2="300.7" y2="58"/>
				<line class="st2" x1="644.6" y1="381" x2="311.1" y2="47.5"/>
				<line class="st2" x1="655" y1="370.6" x2="321.6" y2="37.1"/>
				<line class="st2" x1="665.5" y1="360.2" x2="332" y2="26.7"/>
				<line class="st2" x1="655" y1="370.6" x2="321.6" y2="37.1"/>
				<line class="st2" x1="675.9" y1="349.8" x2="342.4" y2="16.3"/>
				<line class="st2" x1="686.3" y1="339.3" x2="352.8" y2="5.9"/>
				<line class="st2" x1="696.7" y1="328.9" x2="363.2" y2="-4.6"/>
				<line class="st2" x1="707.2" y1="318.5" x2="373.7" y2="-15"/>
				<line class="st2" x1="717.6" y1="308.1" x2="384.1" y2="-25.4"/>
				<line class="st2" x1="728" y1="297.6" x2="394.5" y2="-35.8"/>
				<line class="st2" x1="738.4" y1="287.2" x2="404.9" y2="-46.3"/>
			</g>
		</g>
	</g>
	<g>
		<defs>
			<rect id="SVGID_3_" x="360" y="311.3" width="143.2" height="104.5"/>
		</defs>
		<clipPath id="SVGID_4_">
			<use xlink:href="#SVGID_3_"  style="overflow:visible;"/>
		</clipPath>
		<g class="st3">
			<rect x="243" y="115.7" class="st4" width="322.2" height="322.2"/>
		</g>
	</g>
</g>
<path id="Windows" class="st5" d="M504.8,62.1v6.2l-209,0v-6.2L504.8,62.1z"/>
<g id="Walls">
	<polygon class="st6" points="360,244.9 364.1,244.9 364.1,80.7 384.8,80.7 384.8,60 355.9,60 355.9,80.7 360,80.7 	"/>
	<polygon class="st6" points="223.4,321.7 300.5,321.7 300.5,317.6 223.4,317.6 223.4,84.8 297.9,84.8 297.9,60 211,60 211,420 
		303.5,420 303.5,407.6 223.4,407.6 	"/>
	<polygon class="st6" points="509,60 496.6,60 442.8,60 442.8,84.8 496.6,84.8 496.6,310.5 364.1,310.5 364.1,278 360,278 
		360,319.7 364.1,319.7 364.1,314.7 496.6,314.7 496.6,407.6 364.1,407.6 364.1,352.8 360,352.8 360,407.6 344.8,407.6 344.8,420 
		509,420 	"/>
	<rect x="234.6" y="387.9" class="st6" width="4.1" height="23.1"/>
	<rect x="221.1" y="387.9" class="st6" width="17.6" height="4.1"/>
	<rect x="481.7" y="392.3" class="st6" width="4.1" height="23.1"/>
	<rect x="481.7" y="392.3" class="st6" width="17.6" height="4.1"/>
</g>
<path id="Doors" class="st5" d="M364.1,244.9c4.6,0,8.3,0.8,12.4,2.5c4.1,1.7,7.9,4.1,10.8,7c3.3,2.9,5.8,6.6,7.4,10.8
	c1.7,4.1,2.5,8.3,2.5,12.8h-33.1 M364.1,352.8c4.6,0,8.3-0.8,12.4-2.5c4.1-1.7,7.9-4.1,10.8-7c3.3-2.9,5.8-6.6,7.4-10.8
	c1.7-4.1,2.5-8.3,2.5-12.8l-33.1,0 M344.8,420c0,5.4-1.2,10.3-3.3,15.3c-2.1,5-5,9.9-9.1,13.7c-3.7,3.7-8.3,7-13.2,9.1
	c-5,2.1-10.3,3.3-15.7,3.3V420"/>
<g id="Furniture_1_">
	<g>
		<rect x="223.9" y="249.1" class="st7" width="24.3" height="68"/>
		<path class="st8" d="M247.8,249.6v67h-23.3v-67H247.8 M248.8,248.6h-25.3v69h25.3V248.6L248.8,248.6z"/>
	</g>
	<g>
		<rect x="223.9" y="292.8" class="st7" width="75.6" height="24.3"/>
		<path class="st8" d="M299,293.3v23.3h-74.6v-23.3H299 M300,292.3h-76.6v25.3H300V292.3L300,292.3z"/>
	</g>
	<g>
		<g>
			<rect x="414.1" y="130.9" class="st7" width="82" height="67.2"/>
			<path class="st8" d="M414.6,131.4l81,0l0,66.2l-81,0L414.6,131.4 M413.6,130.4l0,68.2l83,0l0-68.2L413.6,130.4L413.6,130.4z"/>
		</g>
		<rect x="470.1" y="166.1" class="st9" width="20.5" height="26.6"/>
		<rect x="470.1" y="136.2" class="st9" width="20.5" height="26.6"/>
		<polygon class="st10" points="478.5,189.5 483.8,170.2 464,165.1 458.7,184.3 		"/>
		<polygon class="st10" points="464,163.7 483.8,158.6 478.5,139.3 458.6,144.5 		"/>
		<g>
			<polygon class="st7" points="413.3,198 413.3,130.9 478.7,130.9 480.4,157.6 474.4,198 			"/>
			<path class="st8" d="M478.2,131.4l1.7,26.2l-6,39.9h-60.2l0-66.1h64.1H478.2 M479.2,130.4h-1.3h-65.1l0,68.1h61.6h0.4l6.1-40.9
				L479.2,130.4L479.2,130.4z"/>
		</g>
		<polyline class="st11" points="477.1,131.3 477.1,157.9 473.6,197.8 		"/>
	</g>
	<g>
		<g>
			<rect x="364.6" y="286.2" class="st7" width="131.4" height="1.8"/>
			<path class="st8" d="M365.1,286.7h130.4l0,0.8l-130.4,0V286.7 M364.1,285.7v2.8l132.4,0l0-2.8H364.1L364.1,285.7z"/>
		</g>
		<g>
			<rect x="364.6" y="288" class="st7" width="131.4" height="22"/>
			<path class="st8" d="M495.5,288.5l0,21l-130.4,0l0-21H495.5 M496.5,287.5H364.1l0,23l132.4,0L496.5,287.5L496.5,287.5z"/>
		</g>
		<path class="st9" d="M364.7,309.8l131.6-21.5"/>
	</g>
	<g>
		<g>
			<rect x="245.9" y="322.2" class="st7" width="1.8" height="65.2"/>
			<path class="st8" d="M247.3,322.7l0,64.2h-0.8l0-64.2H247.3 M248.3,321.7h-2.8l0,66.2h2.8L248.3,321.7L248.3,321.7z"/>
		</g>
		<g>
			<rect x="223.9" y="322.2" class="st7" width="22" height="65.2"/>
			<path class="st8" d="M245.4,322.7l0,64.2h-21l0-64.2H245.4 M246.4,321.7h-23l0,66.2h23L246.4,321.7L246.4,321.7z"/>
		</g>
		<path class="st9" d="M224.2,387.6l21.5-65.8"/>
	</g>
	<g>
		<g>
			<rect x="277.9" y="392" class="st7" width="22.1" height="1.8"/>
			<path class="st8" d="M278.4,392.5l21.1,0v0.8l-21.1,0V392.5 M277.4,391.5v2.8l23.1,0v-2.8L277.4,391.5L277.4,391.5z"/>
		</g>
		<g>
			<rect x="277.9" y="393.9" class="st7" width="22.1" height="13.2"/>
			<path class="st8" d="M278.4,394.4l21.1,0v12.2l-21.1,0V394.4 M277.4,393.4v14.2l23.1,0v-14.2L277.4,393.4L277.4,393.4z"/>
		</g>
		<path class="st9" d="M277.8,407.1l22.5-13.3"/>
	</g>
	<g>
		<g>
			<rect x="469.5" y="315.1" class="st7" width="26.6" height="76.7"/>
			<path class="st8" d="M470,315.6l25.6,0l0,75.7l-25.6,0L470,315.6 M469,314.6l0,77.7l27.6,0l0-77.7L469,314.6L469,314.6z"/>
		</g>
		<g>
			<g>
				<path class="st12" d="M482.8,382.8c5.5,0,9.8-4.8,9.3-10.2c-0.5-6-1-13.6-1-19.2c0-5.6,0.5-13.1,1-19.2
					c0.5-5.5-3.8-10.2-9.3-10.2s-9.8,4.8-9.3,10.2c0.5,6,1,13.6,1,19.2c0,5.6-0.5,13.1-1,19.2C473,378.1,477.3,382.8,482.8,382.8z"
					/>
				<ellipse class="st12" cx="482.8" cy="373.3" rx="1.2" ry="1.2"/>
			</g>
		</g>
	</g>
	<g>
		<g id="Rectangle_16_x5F_11_1_">
			<rect x="443.6" y="389.3" class="st7" width="23.4" height="17.8"/>
			<path class="st8" d="M466.4,389.8v16.8h-22.4v-16.8H466.4 M467.4,388.8h-24.4v18.8h24.4V388.8L467.4,388.8z"/>
		</g>
		<path id="Rectangle_19_x5F_5_1_" class="st9" d="M465.1,398.2L465.1,398.2c0-3.2-2.6-5.8-5.8-5.8h-8.2c-3.2,0-5.8,2.6-5.8,5.8l0,0
			c0,3.2,2.6,5.8,5.8,5.8h8.2C462.6,404,465.1,401.4,465.1,398.2z"/>
		<circle id="Ellipse_7_x5F_2_1_" class="st9" cx="455.3" cy="400.8" r="1.2"/>
	</g>
	<g id="Sink_3_1_">
		<rect id="Rectangle_28_x5F_2_1_" x="227" y="294.9" class="st9" width="31.3" height="19.8"/>
		<path id="Rectangle_29_x5F_2_1_" class="st9" d="M239.3,304.8L239.3,304.8c0-4.1,3.3-7.4,7.4-7.4h1.6c4.1,0,7.4,3.3,7.4,7.4v0
			c0,4.1-3.3,7.4-7.4,7.4h-1.6C242.6,312.2,239.3,308.9,239.3,304.8z"/>
		<ellipse id="Ellipse_7_x5F_3_1_" class="st9" cx="247.5" cy="308.1" rx="1.2" ry="1.2"/>
		<path id="Vector_2_1_" class="st11" d="M228.7,312.2h8.2 M228.7,309.7h8.2 M228.7,307.3h8.2 M228.7,304.8h8.2 M228.7,302.3h8.2
			 M228.7,299.9h8.2 M228.7,297.4h8.2"/>
	</g>
	<g id="Stove_1_">
		<g id="Rectangle_25_1_">
			<rect x="223.9" y="249.1" class="st7" width="24.3" height="23.7"/>
			<path class="st8" d="M247.8,249.6v22.7h-23.3v-22.7H247.8 M248.8,248.6h-25.3v24.7h25.3V248.6L248.8,248.6z"/>
		</g>
		<g id="Rectangle_28_x5F_3_2_">
			<rect x="223.9" y="249.1" class="st7" width="1.8" height="23.7"/>
			<path class="st8" d="M225.3,249.6v22.7h-0.8v-22.7H225.3 M226.3,248.6h-2.8v24.7h2.8V248.6L226.3,248.6z"/>
		</g>
		<g id="Ellipse_7_x5F_4_1_">
			<path class="st7" d="M232.4,259.1c-1.3,0-2.4-1.1-2.4-2.4s1.1-2.4,2.4-2.4s2.4,1.1,2.4,2.4S233.7,259.1,232.4,259.1z"/>
			<path class="st8" d="M232.4,254.8c1.1,0,1.9,0.9,1.9,1.9c0,1.1-0.9,1.9-1.9,1.9s-1.9-0.9-1.9-1.9
				C230.4,255.6,231.3,254.8,232.4,254.8 M232.4,253.8c-1.6,0-2.9,1.3-2.9,2.9c0,1.6,1.3,2.9,2.9,2.9s2.9-1.3,2.9-2.9
				C235.3,255.1,234,253.8,232.4,253.8L232.4,253.8z"/>
		</g>
		<g id="Ellipse_9_1_">
			<path class="st7" d="M241.2,259.9c-1.7,0-3.2-1.4-3.2-3.2c0-1.7,1.4-3.2,3.2-3.2s3.2,1.4,3.2,3.2
				C244.3,258.4,242.9,259.9,241.2,259.9z"/>
			<path class="st8" d="M241.2,254c1.5,0,2.7,1.2,2.7,2.7c0,1.5-1.2,2.7-2.7,2.7c-1.5,0-2.7-1.2-2.7-2.7
				C238.5,255.2,239.7,254,241.2,254 M241.2,253c-2,0-3.7,1.6-3.7,3.7c0,2,1.6,3.7,3.7,3.7s3.7-1.6,3.7-3.7
				C244.8,254.7,243.2,253,241.2,253L241.2,253z"/>
		</g>
		<g id="Ellipse_10_1_">
			<path class="st7" d="M232.4,270.1c-1.7,0-3.2-1.4-3.2-3.2c0-1.7,1.4-3.2,3.2-3.2s3.2,1.4,3.2,3.2
				C235.5,268.7,234.1,270.1,232.4,270.1z"/>
			<path class="st8" d="M232.4,264.3c1.5,0,2.7,1.2,2.7,2.7c0,1.5-1.2,2.7-2.7,2.7c-1.5,0-2.7-1.2-2.7-2.7
				C229.7,265.5,230.9,264.3,232.4,264.3 M232.4,263.3c-2,0-3.7,1.6-3.7,3.7s1.6,3.7,3.7,3.7s3.7-1.6,3.7-3.7
				S234.4,263.3,232.4,263.3L232.4,263.3z"/>
		</g>
		<g id="Ellipse_8_1_">
			<path class="st7" d="M241.9,269.4c-1.3,0-2.4-1.1-2.4-2.4s1.1-2.4,2.4-2.4s2.4,1.1,2.4,2.4S243.2,269.4,241.9,269.4z"/>
			<path class="st8" d="M241.9,265c1.1,0,1.9,0.9,1.9,1.9c0,1.1-0.9,1.9-1.9,1.9S240,268,240,267C240,265.9,240.8,265,241.9,265
				 M241.9,264c-1.6,0-2.9,1.3-2.9,2.9c0,1.6,1.3,2.9,2.9,2.9s2.9-1.3,2.9-2.9C244.8,265.4,243.5,264,241.9,264L241.9,264z"/>
		</g>
	</g>
	<g id="Toilet_2_">
		<g id="Rectangle_21_2_">
			<rect x="409.9" y="392.7" class="st7" width="16.8" height="5.6"/>
			<path class="st8" d="M426.2,393.2v4.6h-15.8v-4.6H426.2 M427.2,392.2h-17.8v6.6h17.8V392.2L427.2,392.2z"/>
		</g>
		<path id="Rectangle_19_x5F_2_2_" class="st9" d="M424.7,380.9c0.2-3.7-2.7-6.8-6.3-6.8l0,0c-3.7,0-6.6,3.1-6.3,6.8l0.8,11.8h11.1
			L424.7,380.9z"/>
		<path id="Rectangle_18_x5F_13_2_" class="st9" d="M422.7,381.2c0.2-2.5-1.8-4.7-4.3-4.7l0,0c-2.5,0-4.5,2.2-4.3,4.7l0.6,6.9h7.4
			L422.7,381.2z"/>
		<ellipse id="Ellipse_6_x5F_2_2_" class="st9" cx="418.3" cy="385.2" rx="1.2" ry="1.2"/>
	</g>
	<g>
		<g>
			<rect x="264" y="293.6" class="st7" width="23.5" height="23.5"/>
			<path class="st8" d="M287,294.1v22.5h-22.5v-22.5H287 M288,293.1h-24.5v24.5H288V293.1L288,293.1z"/>
		</g>
		<g id="Rectangle_27_1_">
			<rect x="264" y="292.8" class="st7" width="23.5" height="1.8"/>
			<path class="st8" d="M287,293.3v0.8l-22.5,0v-0.8H287 M288,292.3h-24.5v2.8l24.5,0V292.3L288,292.3z"/>
		</g>
		<path id="Vector_3_1_" class="st11" d="M271.8,305.5l7.9,0 M273.8,302.1l3.9,7 M273.8,309l3.9-7"/>
	</g>
	<g>
		<g>
			<path class="st7" d="M330.3,167.3c-1,0-1.8-0.8-1.8-1.8v-36c0-1,0.8-1.8,1.8-1.8h23.6v39.6H330.3z"/>
			<path class="st8" d="M330.3,127.2v1l23.1,0l0,38.6h-23.1c-0.7,0-1.3-0.6-1.3-1.3v-36c0-0.7,0.6-1.3,1.3-1.3V127.2 M330.3,127.2
				c-1.3,0-2.3,1-2.3,2.3v36c0,1.3,1,2.3,2.3,2.3h24.1l0-40.6L330.3,127.2L330.3,127.2z"/>
		</g>
		<g>
			<path class="st7" d="M330.3,128.4c-1,0-1.8-0.8-1.8-1.8v-36c0-1,0.8-1.8,1.8-1.8h23.6v39.6H330.3z"/>
			<path class="st8" d="M353.4,89.3l0,38.6h-23.1c-0.7,0-1.3-0.6-1.3-1.3l0-36c0-0.7,0.6-1.3,1.3-1.3H353.4 M354.4,88.3h-24.1
				c-1.3,0-2.3,1-2.3,2.3l0,36c0,1.3,1,2.3,2.3,2.3h24.1L354.4,88.3L354.4,88.3z"/>
		</g>
		<g>
			<polygon class="st7" points="326.6,172.8 326.6,166.6 353.3,166.6 353.3,89.5 326.6,89.5 326.6,83.3 359.5,83.3 359.5,172.8 			
				"/>
			<path class="st8" d="M359,83.8l0,88.5l-31.9,0v-5.2h25.7h1v-1V128V90v-1h-1h-25.7v-5.2H359 M360,82.8h-33.9V90h26.7V128v38.1
				h-26.7v7.2l33.9,0L360,82.8L360,82.8z"/>
		</g>
	</g>
	<g>
		<rect x="223.9" y="211.9" class="st7" width="55.4" height="37.1"/>
		<path class="st8" d="M278.8,212.4v36.1h-54.4v-36.1H278.8 M279.8,211.4h-56.4v38.1h56.4V211.4L279.8,211.4z"/>
	</g>
	<g>
		<rect x="223.9" y="223.8" class="st7" width="55.4" height="3.3"/>
		<path class="st8" d="M278.8,224.3v2.3h-54.4v-2.3H278.8 M279.8,223.3h-56.4v4.3h56.4V223.3L279.8,223.3z"/>
	</g>
	<g>
		<path class="st7" d="M248.9,206c-4.5,0-8.2-3.7-8.2-8.2c0-4.5,3.7-8.2,8.2-8.2c4.5,0,8.2,3.7,8.2,8.2
			C257.1,202.3,253.4,206,248.9,206z"/>
		<path class="st8" d="M248.9,190.1c4.2,0,7.7,3.4,7.7,7.7c0,4.2-3.4,7.7-7.7,7.7s-7.7-3.4-7.7-7.7
			C241.2,193.6,244.7,190.1,248.9,190.1 M248.9,189.1c-4.8,0-8.7,3.9-8.7,8.7s3.9,8.7,8.7,8.7s8.7-3.9,8.7-8.7
			S253.7,189.1,248.9,189.1L248.9,189.1z"/>
	</g>
	<g>
		<path class="st7" d="M272.1,206c-4.5,0-8.2-3.7-8.2-8.2c0-4.5,3.7-8.2,8.2-8.2c4.5,0,8.2,3.7,8.2,8.2
			C280.3,202.3,276.6,206,272.1,206z"/>
		<path class="st8" d="M272.1,190.1c4.2,0,7.7,3.4,7.7,7.7c0,4.2-3.4,7.7-7.7,7.7c-4.2,0-7.7-3.4-7.7-7.7
			C264.4,193.6,267.8,190.1,272.1,190.1 M272.1,189.1c-4.8,0-8.7,3.9-8.7,8.7s3.9,8.7,8.7,8.7s8.7-3.9,8.7-8.7
			S276.9,189.1,272.1,189.1L272.1,189.1z"/>
	</g>
	<g>
		<path class="st7" d="M293,237.7c-4.5,0-8.2-3.7-8.2-8.2c0-4.5,3.7-8.2,8.2-8.2c4.5,0,8.2,3.7,8.2,8.2
			C301.2,234,297.5,237.7,293,237.7z"/>
		<path class="st8" d="M293,221.8c4.2,0,7.7,3.4,7.7,7.7c0,4.2-3.4,7.7-7.7,7.7c-4.2,0-7.7-3.4-7.7-7.7
			C285.3,225.2,288.8,221.8,293,221.8 M293,220.8c-4.8,0-8.7,3.9-8.7,8.7s3.9,8.7,8.7,8.7s8.7-3.9,8.7-8.7S297.8,220.8,293,220.8
			L293,220.8z"/>
	</g>
	<g id="TV_3_">
		<g id="Rectangle_16_5_">
			<rect x="234.5" y="94.7" class="st7" width="1.8" height="63.6"/>
			<path class="st8" d="M235.9,95.2v62.6H235V95.2H235.9 M236.9,94.2H234v64.6h2.8V94.2L236.9,94.2z"/>
		</g>
		<g id="Rectangle_15_5_">
			<rect x="223.9" y="94.7" class="st7" width="10.6" height="63.6"/>
			<path class="st8" d="M234,95.2v62.6h-9.6V95.2H234 M235,94.2h-11.6v64.6H235V94.2L235,94.2z"/>
		</g>
		<g id="Rectangle_17_5_">
			<rect x="225.6" y="105.5" class="st7" width="1.8" height="41.9"/>
			<path class="st8" d="M226.9,106v40.9h-0.8V106H226.9 M227.9,105h-2.8v42.9h2.8V105L227.9,105z"/>
		</g>
		<path id="Rectangle_18_x5F_2_3_" class="st9" d="M225.6,135.6v-18.2l-1.6,1.6v14.9L225.6,135.6z"/>
	</g>
	<g id="TV_2_">
		<g id="Rectangle_16_2_">
			<rect x="375.2" y="132.7" class="st7" width="1.8" height="63.6"/>
			<path class="st8" d="M376.6,133.2v62.6h-0.8v-62.6H376.6 M377.6,132.2h-2.8v64.6h2.8V132.2L377.6,132.2z"/>
		</g>
		<g id="Rectangle_15_2_">
			<rect x="364.6" y="132.7" class="st7" width="10.6" height="63.6"/>
			<path class="st8" d="M374.7,133.2l0,62.6h-9.6l0-62.6H374.7 M375.7,132.2h-11.6l0,64.6h11.6L375.7,132.2L375.7,132.2z"/>
		</g>
		<g id="Rectangle_17_2_">
			<rect x="366.3" y="143.5" class="st7" width="1.8" height="41.9"/>
			<path class="st8" d="M367.6,144l0,40.9h-0.8l0-40.9H367.6 M368.6,143h-2.8l0,42.9h2.8L368.6,143L368.6,143z"/>
		</g>
		<path id="Rectangle_18_x5F_2_2_" class="st9" d="M366.3,155.4v18.1l-1.6-1.6v-14.9L366.3,155.4z"/>
	</g>
	<g>
		<rect x="396.3" y="398.3" class="st7" width="47.2" height="8.9"/>
		<path class="st8" d="M443,398.8v7.9h-46.2v-7.9H443 M444,397.8h-48.2v9.9H444V397.8L444,397.8z"/>
	</g>
	<g>
		<rect x="223.9" y="249.1" class="st7" width="24.3" height="1.8"/>
		<path class="st8" d="M247.8,249.6v0.8h-23.3v-0.8H247.8 M248.8,248.6h-25.3v2.8h25.3V248.6L248.8,248.6z"/>
	</g>
	<g>
		<g>
			<rect x="364.6" y="382.6" class="st7" width="16.4" height="24.5"/>
			<path class="st8" d="M380.6,383.1l0,23.5h-15.4v-23.5H380.6 M381.6,382.1h-17.4v25.5h17.4L381.6,382.1L381.6,382.1z"/>
		</g>
		<g>
			<path class="st7" d="M372.9,400c-2.9,0-5.2-2.3-5.2-5.2s2.3-5.2,5.2-5.2c2.9,0,5.2,2.3,5.2,5.2S375.7,400,372.9,400z"/>
			<path class="st8" d="M372.9,390.2c2.6,0,4.7,2.1,4.7,4.7s-2.1,4.7-4.7,4.7s-4.7-2.1-4.7-4.7S370.3,390.2,372.9,390.2
				 M372.9,389.2c-3.1,0-5.7,2.5-5.7,5.7c0,3.1,2.5,5.7,5.7,5.7c3.1,0,5.7-2.5,5.7-5.7S376,389.2,372.9,389.2L372.9,389.2z"/>
		</g>
	</g>
</g>
<g id="Numbers_1_">
	<g>
		<path class="st6" d="M297.8,209.9l1.9-1.6h0.8v6.7h-1v-5.3l-1.2,0.9L297.8,209.9z"/>
		<path class="st6" d="M301.5,209.3v-0.9h4.2v0.7l-2.5,6h-1.1l2.5-5.7H301.5z"/>
		<path class="st6" d="M306.4,215.1c-0.2,0-0.3-0.1-0.5-0.2c-0.1-0.1-0.2-0.3-0.2-0.5c0-0.2,0.1-0.3,0.2-0.4
			c0.1-0.1,0.3-0.2,0.5-0.2c0.2,0,0.3,0.1,0.4,0.2c0.1,0.1,0.2,0.3,0.2,0.4c0,0.2-0.1,0.3-0.2,0.5
			C306.7,215.1,306.5,215.1,306.4,215.1z"/>
		<path class="st6" d="M310.3,210.7c0.6,0,1.1,0.2,1.5,0.6c0.4,0.4,0.6,0.9,0.6,1.5c0,0.6-0.2,1.2-0.7,1.6c-0.4,0.4-1,0.6-1.7,0.6
			c-0.8,0-1.4-0.3-1.8-0.9c-0.4-0.6-0.6-1.4-0.6-2.3c0-0.6,0.1-1.2,0.3-1.8c0.2-0.5,0.5-1,0.9-1.3c0.4-0.4,1-0.5,1.6-0.5
			c0.7,0,1.3,0.2,1.7,0.6l-0.4,0.8c-0.4-0.3-0.8-0.4-1.2-0.4c-0.4,0-0.7,0.1-1,0.4c-0.5,0.5-0.8,1.2-0.8,2.1
			c0.1-0.3,0.4-0.5,0.7-0.7S310,210.7,310.3,210.7z M310.2,214.2c0.4,0,0.7-0.1,0.9-0.4c0.2-0.3,0.4-0.6,0.4-0.9
			c0-0.4-0.1-0.7-0.4-0.9c-0.2-0.2-0.5-0.4-0.9-0.4c-0.4,0-0.7,0.1-0.9,0.4c-0.2,0.2-0.4,0.6-0.4,0.9c0,0.4,0.1,0.7,0.4,0.9
			C309.5,214,309.8,214.2,310.2,214.2z"/>
	</g>
	<g>
		<path class="st6" d="M423,209.9l1.9-1.6h0.8v6.7h-1v-5.3l-1.2,0.9L423,209.9z"/>
		<path class="st6" d="M429.6,210.7c0.6,0,1.1,0.2,1.5,0.6c0.4,0.4,0.6,0.9,0.6,1.5c0,0.6-0.2,1.2-0.7,1.6c-0.4,0.4-1,0.6-1.7,0.6
			c-0.8,0-1.4-0.3-1.8-0.9c-0.4-0.6-0.6-1.4-0.6-2.3c0-0.6,0.1-1.2,0.3-1.8c0.2-0.5,0.5-1,0.9-1.3c0.4-0.4,1-0.5,1.6-0.5
			c0.7,0,1.3,0.2,1.7,0.6l-0.4,0.8c-0.4-0.3-0.8-0.4-1.2-0.4c-0.4,0-0.7,0.1-1,0.4c-0.5,0.5-0.8,1.2-0.8,2.1
			c0.2-0.3,0.4-0.5,0.7-0.7S429.2,210.7,429.6,210.7z M429.4,214.2c0.4,0,0.7-0.1,0.9-0.4c0.2-0.3,0.4-0.6,0.4-0.9
			c0-0.4-0.1-0.7-0.4-0.9c-0.2-0.2-0.5-0.4-0.9-0.4c-0.4,0-0.7,0.1-0.9,0.4c-0.2,0.2-0.4,0.6-0.4,0.9c0,0.4,0.1,0.7,0.4,0.9
			C428.8,214,429.1,214.2,429.4,214.2z"/>
		<path class="st6" d="M433.2,215.1c-0.2,0-0.3-0.1-0.5-0.2s-0.2-0.3-0.2-0.5c0-0.2,0.1-0.3,0.2-0.4s0.3-0.2,0.5-0.2
			c0.2,0,0.3,0.1,0.4,0.2c0.1,0.1,0.2,0.3,0.2,0.4c0,0.2-0.1,0.3-0.2,0.5C433.5,215.1,433.3,215.1,433.2,215.1z"/>
		<path class="st6" d="M433.8,209.9l1.9-1.6h0.8v6.7h-1v-5.3l-1.2,0.9L433.8,209.9z"/>
	</g>
	<g>
		<path class="st6" d="M426.3,349.2c0.6,0,1.2,0.2,1.6,0.6c0.4,0.4,0.6,0.9,0.6,1.6c0,0.7-0.2,1.2-0.7,1.6c-0.4,0.4-1,0.6-1.7,0.6
			c-0.8,0-1.5-0.3-2.2-0.8l0.5-0.8c0.6,0.4,1.1,0.6,1.7,0.6c0.4,0,0.7-0.1,1-0.4c0.3-0.2,0.4-0.5,0.4-0.9c0-0.4-0.1-0.7-0.4-0.9
			c-0.2-0.2-0.6-0.4-1-0.4c-0.5,0-0.9,0.2-1.2,0.5l-0.6-0.4l0.4-3.3h3.4v0.9h-2.6l-0.2,1.6C425.6,349.2,426,349.2,426.3,349.2z"/>
		<path class="st6" d="M430,353.6c-0.2,0-0.3-0.1-0.5-0.2c-0.1-0.1-0.2-0.3-0.2-0.5c0-0.2,0.1-0.3,0.2-0.4c0.1-0.1,0.3-0.2,0.5-0.2
			c0.2,0,0.3,0.1,0.4,0.2c0.1,0.1,0.2,0.3,0.2,0.4c0,0.2-0.1,0.3-0.2,0.5C430.3,353.6,430.2,353.6,430,353.6z"/>
		<path class="st6" d="M433.7,346.7c0.8,0,1.4,0.3,1.8,0.9c0.4,0.6,0.6,1.4,0.6,2.3c0,0.5-0.1,1-0.2,1.4s-0.3,0.8-0.5,1.2
			c-0.2,0.3-0.5,0.6-0.9,0.8c-0.4,0.2-0.8,0.3-1.2,0.3c-0.7,0-1.3-0.2-1.8-0.6l0.4-0.8c0.4,0.3,0.9,0.5,1.3,0.5c0.6,0,1-0.2,1.3-0.7
			c0.3-0.5,0.5-1,0.5-1.7c-0.2,0.3-0.4,0.5-0.7,0.6s-0.6,0.2-1,0.2c-0.6,0-1.1-0.2-1.5-0.6c-0.4-0.4-0.6-0.9-0.6-1.5
			c0-0.6,0.2-1.2,0.6-1.6C432.5,346.9,433.1,346.7,433.7,346.7z M435,348.9c0-0.4-0.1-0.7-0.4-0.9c-0.2-0.3-0.5-0.4-0.9-0.4
			c-0.4,0-0.7,0.1-0.9,0.4c-0.2,0.3-0.4,0.6-0.4,0.9c0,0.4,0.1,0.7,0.4,0.9c0.2,0.2,0.5,0.4,0.9,0.4c0.4,0,0.7-0.1,0.9-0.4
			C434.8,349.6,435,349.3,435,348.9z"/>
	</g>
	<g>
		<path class="st6" d="M301.9,349.2c0.6,0,1.1,0.2,1.5,0.6c0.4,0.4,0.6,0.9,0.6,1.5c0,0.6-0.2,1.2-0.7,1.6c-0.4,0.4-1,0.6-1.7,0.6
			c-0.8,0-1.4-0.3-1.8-0.9c-0.4-0.6-0.6-1.4-0.6-2.3c0-0.6,0.1-1.2,0.3-1.8c0.2-0.5,0.5-1,0.9-1.3c0.4-0.4,1-0.5,1.6-0.5
			c0.7,0,1.3,0.2,1.7,0.6l-0.4,0.8c-0.4-0.3-0.8-0.4-1.2-0.4c-0.4,0-0.7,0.1-1,0.4c-0.5,0.5-0.8,1.2-0.8,2.1
			c0.1-0.3,0.4-0.5,0.7-0.7S301.6,349.2,301.9,349.2z M301.8,352.7c0.4,0,0.7-0.1,0.9-0.4c0.2-0.3,0.4-0.6,0.4-0.9
			c0-0.4-0.1-0.7-0.4-0.9c-0.2-0.2-0.5-0.4-0.9-0.4c-0.4,0-0.7,0.1-0.9,0.4c-0.2,0.2-0.4,0.6-0.4,0.9c0,0.4,0.1,0.7,0.4,0.9
			C301.1,352.5,301.4,352.7,301.8,352.7z"/>
		<path class="st6" d="M305.5,353.6c-0.2,0-0.3-0.1-0.5-0.2c-0.1-0.1-0.2-0.3-0.2-0.5c0-0.2,0.1-0.3,0.2-0.4
			c0.1-0.1,0.3-0.2,0.5-0.2c0.2,0,0.3,0.1,0.4,0.2c0.1,0.1,0.2,0.3,0.2,0.4c0,0.2-0.1,0.3-0.2,0.5
			C305.8,353.6,305.7,353.6,305.5,353.6z"/>
		<path class="st6" d="M309,353.6c-0.7,0-1.4-0.2-2.1-0.7l0.5-0.8c0.6,0.4,1.1,0.5,1.6,0.5c0.4,0,0.7-0.1,0.9-0.3
			c0.2-0.2,0.3-0.4,0.3-0.8c0-0.3-0.1-0.6-0.4-0.8c-0.2-0.2-0.5-0.3-0.9-0.3h-0.8v-0.9h0.8c0.3,0,0.6-0.1,0.8-0.3
			c0.2-0.2,0.3-0.4,0.3-0.7c0-0.3-0.1-0.5-0.3-0.7s-0.5-0.3-0.8-0.3c-0.4,0-0.9,0.2-1.4,0.6l-0.5-0.7c0.2-0.2,0.6-0.4,0.9-0.6
			c0.4-0.1,0.7-0.2,1.1-0.2c0.6,0,1.1,0.2,1.5,0.5c0.4,0.3,0.6,0.8,0.6,1.2c0,0.4-0.1,0.7-0.3,0.9c-0.2,0.3-0.5,0.5-0.8,0.6v0
			c0.4,0.1,0.7,0.3,1,0.6c0.2,0.3,0.3,0.6,0.3,1.1c0,0.6-0.2,1-0.6,1.4C310.3,353.4,309.7,353.6,309,353.6z"/>
	</g>
</g>
<g id="street_anchors" class="st13">
	<rect id="street_x5F_anchor_x5F_01_1_" x="355" y="20" class="st14" width="10" height="10"/>
</g>
</svg>
