<?xml version="1.0" encoding="utf-8"?>
<!-- Generator: Adobe Illustrator 24.2.0, SVG Export Plug-In . SVG Version: 6.00 Build 0)  -->
<!DOCTYPE svg PUBLIC "-//W3C//DTD SVG 1.1//EN" "http://www.w3.org/Graphics/SVG/1.1/DTD/svg11.dtd" [
	<!ENTITY ns_extend "http://ns.adobe.com/Extensibility/1.0/">
	<!ENTITY ns_ai "http://ns.adobe.com/AdobeIllustrator/10.0/">
	<!ENTITY ns_graphs "http://ns.adobe.com/Graphs/1.0/">
	<!ENTITY ns_vars "http://ns.adobe.com/Variables/1.0/">
	<!ENTITY ns_imrep "http://ns.adobe.com/ImageReplacement/1.0/">
	<!ENTITY ns_sfw "http://ns.adobe.com/SaveForWeb/1.0/">
	<!ENTITY ns_custom "http://ns.adobe.com/GenericCustomNamespace/1.0/">
	<!ENTITY ns_adobe_xpath "http://ns.adobe.com/XPath/1.0/">
]>
<svg version="1.1" id="_x31__x5F_2" xmlns:x="&ns_extend;" xmlns:i="&ns_ai;" xmlns:graph="&ns_graphs;"
	 xmlns="http://www.w3.org/2000/svg" xmlns:xlink="http://www.w3.org/1999/xlink" x="0px" y="0px" viewBox="0 0 720 480"
	 style="enable-background:new 0 0 720 480;" xml:space="preserve">
<style type="text/css">
	.st0{fill:#DBD4CA;}
	.st1{clip-path:url(#SVGID_2_);}
	.st2{fill:none;stroke:#C49F8A;stroke-miterlimit:10;}
	.st3{opacity:0.3;clip-path:url(#SVGID_4_);}
	.st4{opacity:0.7;fill:#C49F8A;enable-background:new    ;}
	.st5{opacity:0.3;clip-path:url(#SVGID_6_);}
	.st6{clip-path:url(#SVGID_8_);}
	.st7{fill:none;stroke:#565440;}
	.st8{fill:#565440;}
	.st9{fill:#E9E4DC;}
	.st10{fill:#C49F8A;}
	.st11{fill:#E9E4DC;stroke:#C49F8A;}
	.st12{fill:#E9E4DC;stroke:#C49F8A;stroke-width:1;stroke-miterlimit:3.9998;}
	.st13{fill:none;stroke:#C49F8A;}
	.st14{fill:#E9E4DC;stroke:#C49F8A;stroke-linejoin:round;}
	.st15{fill:#E9E4DC;stroke:#C49F8A;stroke-width:1;stroke-miterlimit:4;}
	.st16{opacity:0;}
	.st17{fill:#3F3F3F;fill-opacity:0;}
</style>
<metadata>
	<sfw  xmlns="&ns_sfw;">
		<slices></slices>
		<sliceSourceBounds  bottomLeftOrigin="true" height="667.7" width="737.1" x="-23.9" y="17.3"></sliceSourceBounds>
	</sfw>
</metadata>
<polygon id="Floor_1_" class="st0" points="64.9,71.8 637.6,71.8 637.6,94.7 649,98.2 634.5,160.3 634.5,298.1 649,304.2 
	629.2,391.9 582.9,382.2 444,382.2 439.5,397.7 360,379.7 311.8,379.7 311.8,390.8 310,397.5 238.4,380.8 177.5,380.8 170.8,399.4 
	93.6,379.5 65.8,379.5 "/>
<g id="Wet_Floor">
	<g id="Wet_Floor_2_">
		<g>
			<defs>
				<rect id="SVGID_1_" x="290.3" y="73.7" width="196.3" height="97.1"/>
			</defs>
			<clipPath id="SVGID_2_">
				<use xlink:href="#SVGID_1_"  style="overflow:visible;"/>
			</clipPath>
			<g class="st1">
				<g>
					<line class="st2" x1="56.4" y1="139.3" x2="389.9" y2="-194.2"/>
					<line class="st2" x1="46" y1="128.9" x2="379.4" y2="-204.6"/>
					<line class="st2" x1="66.8" y1="149.7" x2="400.3" y2="-183.7"/>
					<line class="st2" x1="77.2" y1="160.2" x2="410.7" y2="-173.3"/>
					<line class="st2" x1="87.6" y1="170.6" x2="421.1" y2="-162.9"/>
					<line class="st2" x1="98.1" y1="181" x2="431.5" y2="-152.5"/>
					<line class="st2" x1="108.5" y1="191.4" x2="442" y2="-142.1"/>
					<line class="st2" x1="118.9" y1="201.8" x2="452.4" y2="-131.6"/>
					<line class="st2" x1="129.3" y1="212.3" x2="462.8" y2="-121.2"/>
					<line class="st2" x1="139.7" y1="222.7" x2="473.2" y2="-110.8"/>
					<line class="st2" x1="129.3" y1="212.3" x2="462.8" y2="-121.2"/>
					<line class="st2" x1="150.2" y1="233.1" x2="483.7" y2="-100.4"/>
					<line class="st2" x1="160.6" y1="243.5" x2="494.1" y2="-90"/>
					<line class="st2" x1="171" y1="254" x2="504.5" y2="-79.5"/>
					<line class="st2" x1="181.4" y1="264.4" x2="514.9" y2="-69.1"/>
					<line class="st2" x1="191.9" y1="274.8" x2="525.3" y2="-58.7"/>
					<line class="st2" x1="202.3" y1="285.2" x2="535.8" y2="-48.3"/>
					<line class="st2" x1="212.7" y1="295.6" x2="546.2" y2="-37.8"/>
					<line class="st2" x1="223.1" y1="306.1" x2="556.6" y2="-27.4"/>
					<line class="st2" x1="212.7" y1="295.6" x2="546.2" y2="-37.8"/>
					<line class="st2" x1="233.5" y1="316.5" x2="567" y2="-17"/>
					<line class="st2" x1="244" y1="326.9" x2="577.4" y2="-6.6"/>
					<line class="st2" x1="254.4" y1="337.3" x2="587.9" y2="3.8"/>
					<line class="st2" x1="264.8" y1="347.7" x2="598.3" y2="14.3"/>
					<line class="st2" x1="275.2" y1="358.2" x2="608.7" y2="24.7"/>
					<line class="st2" x1="285.6" y1="368.6" x2="619.1" y2="35.1"/>
					<line class="st2" x1="296.1" y1="379" x2="629.6" y2="45.5"/>
					<line class="st2" x1="306.5" y1="389.4" x2="640" y2="55.9"/>
					<line class="st2" x1="296.1" y1="379" x2="629.6" y2="45.5"/>
					<line class="st2" x1="316.9" y1="399.8" x2="650.4" y2="66.4"/>
					<line class="st2" x1="327.3" y1="410.3" x2="660.8" y2="76.8"/>
					<line class="st2" x1="337.8" y1="420.7" x2="671.2" y2="87.2"/>
					<line class="st2" x1="348.2" y1="431.1" x2="681.7" y2="97.6"/>
					<line class="st2" x1="358.6" y1="441.5" x2="692.1" y2="108.1"/>
					<line class="st2" x1="369" y1="452" x2="702.5" y2="118.5"/>
					<line class="st2" x1="379.4" y1="462.4" x2="712.9" y2="128.9"/>
				</g>
				<g>
					<line class="st2" x1="389.9" y1="452" x2="56.4" y2="118.5"/>
					<line class="st2" x1="379.4" y1="462.4" x2="46" y2="128.9"/>
					<line class="st2" x1="400.3" y1="441.5" x2="66.8" y2="108.1"/>
					<line class="st2" x1="410.7" y1="431.1" x2="77.2" y2="97.6"/>
					<line class="st2" x1="421.1" y1="420.7" x2="87.6" y2="87.2"/>
					<line class="st2" x1="431.5" y1="410.3" x2="98.1" y2="76.8"/>
					<line class="st2" x1="442" y1="399.8" x2="108.5" y2="66.4"/>
					<line class="st2" x1="452.4" y1="389.4" x2="118.9" y2="55.9"/>
					<line class="st2" x1="462.8" y1="379" x2="129.3" y2="45.5"/>
					<line class="st2" x1="473.2" y1="368.6" x2="139.7" y2="35.1"/>
					<line class="st2" x1="462.8" y1="379" x2="129.3" y2="45.5"/>
					<line class="st2" x1="483.7" y1="358.2" x2="150.2" y2="24.7"/>
					<line class="st2" x1="494.1" y1="347.7" x2="160.6" y2="14.3"/>
					<line class="st2" x1="504.5" y1="337.3" x2="171" y2="3.8"/>
					<line class="st2" x1="514.9" y1="326.9" x2="181.4" y2="-6.6"/>
					<line class="st2" x1="525.3" y1="316.5" x2="191.9" y2="-17"/>
					<line class="st2" x1="535.8" y1="306.1" x2="202.3" y2="-27.4"/>
					<line class="st2" x1="546.2" y1="295.6" x2="212.7" y2="-37.8"/>
					<line class="st2" x1="556.6" y1="285.2" x2="223.1" y2="-48.3"/>
					<line class="st2" x1="546.2" y1="295.6" x2="212.7" y2="-37.8"/>
					<line class="st2" x1="567" y1="274.8" x2="233.5" y2="-58.7"/>
					<line class="st2" x1="577.4" y1="264.4" x2="244" y2="-69.1"/>
					<line class="st2" x1="587.9" y1="254" x2="254.4" y2="-79.5"/>
					<line class="st2" x1="598.3" y1="243.5" x2="264.8" y2="-90"/>
					<line class="st2" x1="608.7" y1="233.1" x2="275.2" y2="-100.4"/>
					<line class="st2" x1="619.1" y1="222.7" x2="285.6" y2="-110.8"/>
					<line class="st2" x1="629.6" y1="212.3" x2="296.1" y2="-121.2"/>
					<line class="st2" x1="640" y1="201.8" x2="306.5" y2="-131.6"/>
					<line class="st2" x1="629.6" y1="212.3" x2="296.1" y2="-121.2"/>
					<line class="st2" x1="650.4" y1="191.4" x2="316.9" y2="-142.1"/>
					<line class="st2" x1="660.8" y1="181" x2="327.3" y2="-152.5"/>
					<line class="st2" x1="671.2" y1="170.6" x2="337.8" y2="-162.9"/>
					<line class="st2" x1="681.7" y1="160.2" x2="348.2" y2="-173.3"/>
					<line class="st2" x1="692.1" y1="149.7" x2="358.6" y2="-183.7"/>
					<line class="st2" x1="702.5" y1="139.3" x2="369" y2="-194.2"/>
					<line class="st2" x1="712.9" y1="128.9" x2="379.4" y2="-204.6"/>
				</g>
			</g>
		</g>
		<g>
			<defs>
				<rect id="SVGID_3_" x="290.3" y="73.7" width="196.3" height="97.1"/>
			</defs>
			<clipPath id="SVGID_4_">
				<use xlink:href="#SVGID_3_"  style="overflow:visible;"/>
			</clipPath>
			<g class="st3">
				<rect x="218.4" y="-42.6" class="st4" width="322.2" height="322.2"/>
			</g>
		</g>
	</g>
	<g id="Wet_Floor_1_">
		<g>
			<defs>
				<rect id="SVGID_5_" x="70.1" y="84.1" width="111.8" height="85.8"/>
			</defs>
			<clipPath id="SVGID_6_">
				<use xlink:href="#SVGID_5_"  style="overflow:visible;"/>
			</clipPath>
			<g class="st5">
				<rect x="-23.9" y="-30.9" class="st4" width="322.2" height="322.2"/>
			</g>
		</g>
		<g>
			<defs>
				<rect id="SVGID_7_" x="70.1" y="84.1" width="111.8" height="85.8"/>
			</defs>
			<clipPath id="SVGID_8_">
				<use xlink:href="#SVGID_7_"  style="overflow:visible;"/>
			</clipPath>
			<g class="st6">
				<line class="st2" x1="152.9" y1="229.2" x2="38.2" y2="114.6"/>
				<line class="st2" x1="142.4" y1="239.7" x2="27.8" y2="125"/>
				<line class="st2" x1="163.3" y1="218.8" x2="48.6" y2="104.2"/>
				<line class="st2" x1="173.7" y1="208.4" x2="59.1" y2="93.8"/>
				<line class="st2" x1="184.1" y1="198" x2="69.5" y2="83.3"/>
				<line class="st2" x1="194.5" y1="187.5" x2="79.9" y2="72.9"/>
				<line class="st2" x1="205" y1="177.1" x2="90.3" y2="62.5"/>
				<line class="st2" x1="215.4" y1="166.7" x2="100.7" y2="52.1"/>
				<line class="st2" x1="225.8" y1="156.3" x2="111.2" y2="41.6"/>
				<line class="st2" x1="236.2" y1="145.9" x2="121.6" y2="31.2"/>
				<line class="st2" x1="225.8" y1="156.3" x2="111.2" y2="41.6"/>
				<line class="st2" x1="246.6" y1="135.4" x2="132" y2="20.8"/>
				<line class="st2" x1="236.2" y1="125" x2="132" y2="229.2"/>
				<line class="st2" x1="246.6" y1="135.4" x2="142.4" y2="239.7"/>
				<line class="st2" x1="225.8" y1="114.6" x2="121.6" y2="218.8"/>
				<line class="st2" x1="215.4" y1="104.2" x2="111.2" y2="208.4"/>
				<line class="st2" x1="205" y1="93.8" x2="100.7" y2="198"/>
				<line class="st2" x1="194.5" y1="83.3" x2="90.3" y2="187.5"/>
				<line class="st2" x1="184.1" y1="72.9" x2="79.9" y2="177.1"/>
				<line class="st2" x1="173.7" y1="62.5" x2="69.5" y2="166.7"/>
				<line class="st2" x1="163.3" y1="52.1" x2="59.1" y2="156.3"/>
				<line class="st2" x1="152.9" y1="41.6" x2="48.6" y2="145.9"/>
				<line class="st2" x1="163.3" y1="52.1" x2="59.1" y2="156.3"/>
				<line class="st2" x1="142.4" y1="31.2" x2="38.2" y2="135.4"/>
				<line class="st2" x1="132" y1="20.8" x2="27.8" y2="125"/>
			</g>
		</g>
	</g>
</g>
<g id="Windows">
	<polygon class="st7" points="634,400 657.1,301 650.5,299.1 629.1,392.3 582.9,382.2 505.4,382.2 505.4,388.4 582.9,388.4 	"/>
	<polygon class="st7" points="314.1,398.3 312.9,404.5 236.2,387 237.4,380.8 	"/>
	<polygon class="st7" points="441.9,398.3 440.7,404.5 368.5,388 369.7,381.8 	"/>
	<polygon class="st7" points="656.3,94.1 638.6,171.6 632.4,170.3 650.1,92.8 	"/>
	<polygon class="st7" points="101.7,387.9 103.2,381.9 171.8,399.7 170.2,405.6 	"/>
</g>
<path id="Doors" class="st7" d="M294.3,125.4c4.5,0,8.2,0.8,12.4,2.5c4.1,1.6,7.8,4.1,10.7,7c3.3,2.9,5.8,6.6,7.4,10.7
	c1.6,4.1,2.5,8.2,2.5,12.8h-33 M446,166.6c0-4.5,0.8-8.2,2.5-12.4c1.6-4.1,4.1-7.8,7-10.7c2.9-3.3,6.6-5.8,10.7-7.4
	c4.1-1.6,8.2-2.5,12.8-2.5v33 M143.7,170c0,4.4-0.8,8.1-2.4,12.1c-1.6,4-4,7.7-6.8,10.5c-2.8,3.2-6.4,5.6-10.5,7.3
	c-4,1.6-8.1,2.4-12.5,2.4V170 M202.9,324c-4.9,0-8.9,0.9-13.4,2.7c-4.5,1.8-8.5,4.5-11.6,7.6c-3.6,3.1-6.2,7.1-8,11.6
	c-1.8,4.5-2.7,8.9-2.7,13.8h35.6 M487.3,178c4.5,0,8.2,0.8,12.4,2.5c4.1,1.6,7.8,4.1,10.7,7c3.3,2.9,5.8,6.6,7.4,10.7
	c1.6,4.1,2.5,8.2,2.5,12.8h-33 M477.6,249.1c0,4.5-0.8,8.2-2.5,12.4c-1.6,4.1-4.1,7.8-7,10.7c-2.9,3.3-6.6,5.8-10.7,7.4
	c-4.1,1.6-8.2,2.5-12.8,2.5v-33 M260.5,84.2c0,5.4-1.2,10.3-3.3,15.3c-2.1,4.9-4.9,9.9-9.1,13.6c-3.7,3.7-8.2,7-13.2,9.1
	c-4.9,2.1-10.3,3.3-15.7,3.3V84.2"/>
<g id="Walls">
	<path class="st8" d="M290.3,158.4v12.4H446v-4.1h-74.2l0-67.2l0,0l0-6.3v-9h111.3l0,82.5H479v4.1h4.1v7.3h4.1V84.2h140.2l0,12.5
		l27.6,6.5l2.9-12l-18.1-4.3V71.8H260.5v12.4h29.8v41.2h4.1V84.2h57.2v15.3h16.1v67.2h-73.3v-8.2H290.3z M355.7,95.3V84.2h12v11.1
		H355.7z"/>
	<polygon class="st8" points="308.4,368.6 308.4,389.3 308.4,389.3 305.1,404.1 317,407 321,389.3 359,389.3 373.3,392.6 
		377.9,372.4 362.2,368.6 	"/>
	<polygon class="st8" points="439.9,249.1 444.6,249.1 444.6,245 439.9,245 439.9,211 435.8,211 435.8,389.3 432.5,404.1 444.5,407 
		448.4,389.3 509.5,389.3 509.5,364.5 439.9,364.5 	"/>
	<polygon class="st8" points="639.8,286.5 639.8,158.4 627.4,158.4 627.4,245 487.3,245 487.3,211 483.1,211 483.1,245 477.6,245 
		477.6,249.1 619.2,249.1 619.2,302.7 619.3,302.7 619.2,303.1 655.5,311.3 660,291.1 	"/>
	<polygon class="st8" points="215.2,360.4 215.1,360.4 215.1,359.6 202.8,359.6 202.8,364.5 172.3,364.5 172.3,386.9 168.2,405.3 
		168.2,405.3 168.2,405.3 180.1,408.2 184.4,389.2 241.8,389.3 241.8,364.5 215.2,364.5 	"/>
	<path class="st8" d="M181,165.9l-37.3,0v4.1H181h21.7l0,154h12.4V169.8h15.9v-16.7h-15.9h-5.3h-3.8h-3.3h-17.6v-69h34.1V71.8
		L60,71.8l0,317.5l29.8,0l14.3,3.3l4.5-20.2L93,368.6H72.4V170h39.2v-4.1H72.4V84.2H181v46.7V165.9z M227,157.3v8.5h-11.8v-8.5H227z
		 M202.8,157.3v8.6h-17.6v-8.6H202.8z"/>
</g>
<g id="Furniture">
	<g>
		<rect x="101.9" y="84.7" class="st9" width="44.9" height="19.9"/>
		<path class="st10" d="M146.3,85.2V104h-43.9V85.2H146.3 M147.3,84.2h-45.9V105h45.9V84.2L147.3,84.2z"/>
	</g>
	<g>
		<rect x="444.6" y="84.7" class="st9" width="38" height="21.2"/>
		<path class="st10" d="M482.1,85.2v20.2h-37V85.2H482.1 M483.1,84.2h-39v22.2h39V84.2L483.1,84.2z"/>
	</g>
	<g>
		<rect x="215.7" y="170.3" class="st9" width="21" height="153.2"/>
		<path class="st10" d="M236.1,170.8V323h-20V170.8H236.1 M237.1,169.8h-22V324h22V169.8L237.1,169.8z"/>
	</g>
	<g>
		<g>
			<rect x="539.6" y="84.6" class="st9" width="70.4" height="81.4"/>
			<path class="st10" d="M540.1,85.1l69.4,0l0,80.4l-69.4,0L540.1,85.1 M539.1,84.1l0,82.4l71.4,0l0-82.4L539.1,84.1L539.1,84.1z"/>
		</g>
		<rect x="576.5" y="90" class="st11" width="27.9" height="20.4"/>
		<rect x="545.2" y="90" class="st11" width="27.9" height="20.4"/>
		<polygon class="st12" points="600.9,102.1 580.8,96.8 575.4,116.5 595.5,121.8 		"/>
		<polygon class="st12" points="574,116.5 568.6,96.8 548.4,102.1 553.8,121.8 		"/>
		<g>
			<polygon class="st9" points="539.6,166.9 539.6,101.9 567.6,100.2 609.9,106.2 609.9,166.9 			"/>
			<path class="st10" d="M567.6,100.7l41.8,5.9v59.8h-69.4v-63.7v-0.4L567.6,100.7 M567.6,99.7l-28.6,1.7v1.3v64.7h71.4v-61.2v-0.4
				L567.6,99.7L567.6,99.7z"/>
		</g>
		<polyline class="st13" points="540,103.5 567.9,103.5 609.6,106.9 		"/>
	</g>
	<g>
		<g>
			<rect x="72.9" y="228.8" class="st9" width="78.5" height="66.1"/>
			<path class="st10" d="M73.4,229.3l77.5,0l0,65.1l-77.5,0L73.4,229.3 M72.4,228.3l0,67.1l79.5,0l0-67.1L72.4,228.3L72.4,228.3z"/>
		</g>
		<rect x="78" y="234" class="st11" width="19.7" height="26.2"/>
		<rect x="78" y="263.5" class="st11" width="19.7" height="26.2"/>
		<polygon class="st12" points="89.7,237.2 84.6,256.2 103.6,261.2 108.7,242.3 		"/>
		<polygon class="st12" points="103.6,262.6 84.6,267.7 89.7,286.6 108.7,281.5 		"/>
		<g>
			<polygon class="st9" points="89.5,294.9 87.9,268.6 93.6,228.8 152.2,228.8 152.2,294.9 			"/>
			<path class="st10" d="M94.1,229.3l57.6,0l0,65.1H90.3H90l-1.6-25.8L94.1,229.3 M93.6,228.3h-0.4l-5.9,40.2l1.7,26.8h1.3h62.4
				l0-67.1L93.6,228.3L93.6,228.3z"/>
		</g>
		<polyline class="st13" points="91.1,294.5 91.1,268.3 94.3,229 		"/>
	</g>
	<g>
		<g>
			<rect x="535" y="249.6" class="st9" width="83.7" height="58.2"/>
			<path class="st10" d="M618.2,250.1v57.2l-82.7,0v-57.2L618.2,250.1 M619.2,249.1l-84.7,0v59.2l84.7,0V249.1L619.2,249.1z"/>
		</g>
		<rect x="592.2" y="254.1" class="st11" width="20.9" height="23.1"/>
		<rect x="592.2" y="280.1" class="st11" width="20.9" height="23.1"/>
		<polygon class="st12" points="600.7,257 606.2,273.7 585.9,278.1 580.5,261.4 		"/>
		<polygon class="st12" points="585.9,279.3 606.1,283.8 600.7,300.5 580.5,296 		"/>
		<g>
			<polygon class="st9" points="534.2,307.7 534.2,249.6 596.6,249.6 602.7,284.6 601,307.7 			"/>
			<path class="st10" d="M596.2,250.1l6.1,34.5l-1.7,22.6h-0.4h-65.4v-57.1H596.2 M597,249.1h-0.4h-62.9v59.1h66.4h1.3l1.8-23.7
				L597,249.1L597,249.1z"/>
		</g>
		<polyline class="st13" points="599.3,307.5 599.3,284.4 595.8,249.8 		"/>
	</g>
	<g>
		<g>
			<rect x="464" y="299.2" class="st9" width="1.8" height="65"/>
			<path class="st10" d="M465.3,299.7l0,64h-0.8v-64H465.3 M466.3,298.7h-2.8v66l2.8,0L466.3,298.7L466.3,298.7z"/>
		</g>
		<g>
			<rect x="440.4" y="299.2" class="st9" width="23.6" height="65"/>
			<path class="st10" d="M440.9,299.7l22.6,0v64l-22.6,0V299.7 M439.9,298.7v66l24.6,0v-66L439.9,298.7L439.9,298.7z"/>
		</g>
		<path class="st11" d="M440.7,299l23,65.5"/>
	</g>
	<g>
		<g>
			<rect x="72.9" y="194.9" class="st9" width="36.3" height="1.8"/>
			<path class="st10" d="M73.4,195.4l35.3,0v0.8H73.4V195.4 M72.4,194.4v2.8h37.3l0-2.8L72.4,194.4L72.4,194.4z"/>
		</g>
		<g>
			<rect x="72.9" y="170.5" class="st9" width="36.3" height="24.4"/>
			<path class="st10" d="M108.7,171l0,23.4H73.4l0-23.4H108.7 M109.7,170H72.4l0,25.4h37.3L109.7,170L109.7,170z"/>
		</g>
		<path class="st11" d="M108.8,170.8l-35.7,23.8"/>
	</g>
	<g>
		<g>
			<rect x="145.4" y="194.9" class="st9" width="56.9" height="1.8"/>
			<path class="st10" d="M145.9,195.4l55.9,0v0.8h-55.9L145.9,195.4 M144.9,194.4l0,2.8h57.9v-2.8L144.9,194.4L144.9,194.4z"/>
		</g>
		<g>
			<rect x="145.4" y="170.5" class="st9" width="56.9" height="24.4"/>
			<path class="st10" d="M201.8,171l0,23.4h-55.9l0-23.4H201.8 M202.8,170h-57.9l0,25.4h57.9L202.8,170L202.8,170z"/>
		</g>
		<path class="st11" d="M202.1,170.5l-56.4,24.3"/>
	</g>
	<g>
		<g>
			<rect x="268.1" y="98.3" class="st9" width="21.7" height="1.8"/>
			<path class="st10" d="M268.6,98.8l20.7,0v0.8h-20.7V98.8 M267.6,97.8v2.8h22.7v-2.8L267.6,97.8L267.6,97.8z"/>
		</g>
		<g>
			<rect x="268.1" y="84.7" class="st9" width="21.7" height="13.7"/>
			<path class="st10" d="M268.6,85.2l20.7,0v12.7h-20.7V85.2 M267.6,84.2v14.7h22.7V84.2L267.6,84.2L267.6,84.2z"/>
		</g>
		<path class="st11" d="M290,84.8l-22.1,13.5"/>
	</g>
	<g>
		<g>
			<rect x="186.9" y="84.7" class="st9" width="15.3" height="68"/>
			<path class="st10" d="M187.4,85.2l14.3,0l0,67l-14.3,0L187.4,85.2 M186.4,84.2l0,69l16.3,0l0-69L186.4,84.2L186.4,84.2z"/>
		</g>
		<path class="st11" d="M202.1,152.1l-15-67.1"/>
		<g>
			<rect x="185.7" y="84.7" class="st9" width="1.8" height="68"/>
			<path class="st10" d="M187,85.2l0,67h-0.8l0-67H187 M188,84.2h-2.8l0,69h2.8L188,84.2L188,84.2z"/>
		</g>
	</g>
	<g>
		<g>
			<rect x="487.8" y="219.7" class="st9" width="47.3" height="1.8"/>
			<path class="st10" d="M534.5,220.2v0.8h-46.3v-0.8H534.5 M535.5,219.2h-48.3v2.8h48.3V219.2L535.5,219.2z"/>
		</g>
		<g>
			<rect x="487.8" y="221.5" class="st9" width="47.3" height="23"/>
			<path class="st10" d="M534.5,222v22l-46.3,0v-22H534.5 M535.5,221h-48.3v24l48.3,0V221L535.5,221z"/>
		</g>
		<path class="st11" d="M488,243.9l46.9-21.9"/>
	</g>
	<g>
		<g>
			<rect x="372.3" y="94.7" class="st9" width="29.1" height="71.5"/>
			<path class="st10" d="M372.8,95.2l28.1,0l0,70.5l-28.1,0L372.8,95.2 M371.8,94.2l0,72.5l30.1,0l0-72.5L371.8,94.2L371.8,94.2z"/>
		</g>
		<g>
			<g>
				<path class="st14" d="M386.8,100.7c-5.6,0-9.9,4.8-9.4,10.3c0.6,6.1,1.1,13.7,1.1,19.4c0,5.6-0.6,13.3-1.1,19.4
					c-0.5,5.5,3.9,10.3,9.4,10.3s9.9-4.8,9.4-10.3c-0.6-6.1-1.1-13.7-1.1-19.4c0-5.6,0.6-13.3,1.1-19.4
					C396.7,105.5,392.4,100.7,386.8,100.7z"/>
				<ellipse class="st14" cx="386.8" cy="110.3" rx="1.3" ry="1.3"/>
			</g>
		</g>
	</g>
	<g>
		<g>
			<rect x="72.9" y="84.7" class="st9" width="29.1" height="74.2"/>
			<path class="st10" d="M73.4,85.2l28.1,0l0,73.2l-28.1,0L73.4,85.2 M72.4,84.2l0,75.2l30.1,0l0-75.2L72.4,84.2L72.4,84.2z"/>
		</g>
		<g>
			<g>
				<path class="st14" d="M87.4,92c-5.6,0-9.9,4.8-9.4,10.3c0.6,6.1,1.1,13.7,1.1,19.4c0,5.6-0.6,13.3-1.1,19.4
					c-0.5,5.5,3.9,10.3,9.4,10.3c5.5,0,9.9-4.8,9.4-10.3c-0.6-6.1-1.1-13.7-1.1-19.4c0-5.6,0.6-13.3,1.1-19.4
					C97.3,96.8,92.9,92,87.4,92z"/>
				<ellipse class="st14" cx="87.4" cy="101.7" rx="1.3" ry="1.3"/>
			</g>
		</g>
	</g>
	<g id="Sink_2">
		<g id="Rectangle_16_x5F_11">
			<rect x="456.9" y="86.6" class="st9" width="23.9" height="17.3"/>
			<path class="st10" d="M480.2,87.1v16.3l-22.9,0V87.1H480.2 M481.2,86.1h-24.9v18.3l24.9,0V86.1L481.2,86.1z"/>
		</g>
		<path id="Rectangle_19_x5F_5" class="st11" d="M459.2,95.3L459.2,95.3c0,3.1,2.5,5.6,5.6,5.6l8,0c3.1,0,5.6-2.5,5.6-5.6l0,0
			c0-3.1-2.5-5.6-5.6-5.6l-8,0C461.7,89.7,459.2,92.2,459.2,95.3z"/>
		<circle id="Ellipse_7_x5F_2" class="st11" cx="468.8" cy="92.8" r="1.3"/>
	</g>
	<g id="Toilet_2_">
		<g id="Rectangle_21_2_">
			<rect x="165.8" y="141.3" class="st9" width="5.2" height="15.8"/>
			<path class="st10" d="M170.6,141.8l0,14.8h-4.2v-14.8H170.6 M171.6,140.8h-6.2v16.8h6.2L171.6,140.8L171.6,140.8z"/>
		</g>
		<path id="Rectangle_19_x5F_2_2_" class="st11" d="M154.7,143.2c-3.5-0.2-6.4,2.5-6.4,6l0,0c0,3.5,2.9,6.2,6.4,6l11.1-0.7V144
			L154.7,143.2z"/>
		<path id="Rectangle_18_x5F_13_2_" class="st11" d="M155,145.1c-2.4-0.2-4.4,1.7-4.4,4.1l0,0c0,2.4,2.1,4.3,4.4,4.1l6.5-0.6v-6.9
			L155,145.1z"/>
		<ellipse id="Ellipse_6_x5F_2_2_" class="st11" cx="158.8" cy="149.2" rx="1.3" ry="1.3"/>
	</g>
	<g id="TV_1_">
		<g id="Rectangle_16_1_">
			<rect x="191.1" y="231.6" class="st9" width="1.8" height="60.5"/>
			<path class="st10" d="M192.4,232.1v59.5h-0.8v-59.5H192.4 M193.4,231.1h-2.8v61.5h2.8V231.1L193.4,231.1z"/>
		</g>
		<g id="Rectangle_15_1_">
			<rect x="192.9" y="231.6" class="st9" width="9.4" height="60.5"/>
			<path class="st10" d="M201.8,232.1v59.5h-8.4v-59.5H201.8 M202.8,231.1h-10.4v61.5h10.4V231.1L202.8,231.1z"/>
		</g>
		<g id="Rectangle_17_1_">
			<rect x="198.9" y="241.9" class="st9" width="1.8" height="39.9"/>
			<path class="st10" d="M200.2,242.4v38.9h-0.8v-38.9H200.2 M201.2,241.4h-2.8v40.9h2.8V241.4L201.2,241.4z"/>
		</g>
		<path id="Rectangle_18_x5F_2_1_" class="st11" d="M200.9,253.2v17.3l1.4-1.6v-14.1L200.9,253.2z"/>
	</g>
	<g id="TV_2_">
		<g id="Rectangle_16_2_">
			<rect x="544.5" y="233.2" class="st9" width="60.5" height="1.8"/>
			<path class="st10" d="M545,233.7l59.5,0l0,0.8l-59.5,0V233.7 M544,232.7v2.8l61.5,0l0-2.8L544,232.7L544,232.7z"/>
		</g>
		<g id="Rectangle_15_2_">
			<rect x="544.5" y="235.1" class="st9" width="60.5" height="9.4"/>
			<path class="st10" d="M545,235.6l59.5,0v8.4l-59.5,0V235.6 M544,234.6V245l61.5,0v-10.4L544,234.6L544,234.6z"/>
		</g>
		<g id="Rectangle_17_2_">
			<rect x="554.8" y="241.1" class="st9" width="39.9" height="1.8"/>
			<path class="st10" d="M594.2,241.6v0.8l-38.9,0v-0.8H594.2 M595.2,240.6h-40.9v2.8l40.9,0V240.6L595.2,240.6z"/>
		</g>
		<path id="Rectangle_18_x5F_2_2_" class="st11" d="M583.4,243h-17.3l1.6,1.4h14.1L583.4,243z"/>
	</g>
	<g id="Sink_3_1_">
		<rect id="Rectangle_28_x5F_2_1_" x="218.1" y="178.3" class="st11" width="16.2" height="25.6"/>
		<path id="Rectangle_29_x5F_2_1_" class="st11" d="M226.2,188.3L226.2,188.3c3.3,0,6.1,2.7,6.1,6.1v1.3c0,3.3-2.7,6.1-6.1,6.1h0
			c-3.3,0-6.1-2.7-6.1-6.1v-1.3C220.1,191,222.8,188.3,226.2,188.3z"/>
		<ellipse id="Ellipse_7_x5F_3_1_" class="st11" cx="223.5" cy="195.1" rx="1.3" ry="1.3"/>
		<path id="Vector_2" class="st13" d="M220.1,179.6v6.7 M222.1,179.6v6.7 M224.1,179.6v6.7 M226.2,179.6v6.7 M228.2,179.6v6.7
			 M230.2,179.6v6.7 M232.2,179.6v6.7"/>
	</g>
	<g id="Stove_1_">
		<g id="Rectangle_25_1_">
			<rect x="215.7" y="243.9" class="st9" width="21" height="20.4"/>
			<path class="st10" d="M236.2,244.4v19.4h-20v-19.4H236.2 M237.2,243.4h-22v21.4h22V243.4L237.2,243.4z"/>
		</g>
		<g id="Ellipse_7_x5F_4_1_">
			<path class="st9" d="M222,251.1c-1.2,0-2.3-1-2.3-2.3s1-2.3,2.3-2.3c1.2,0,2.3,1,2.3,2.3S223.3,251.1,222,251.1z"/>
			<path class="st10" d="M222,247.1c1,0,1.8,0.8,1.8,1.8c0,1-0.8,1.8-1.8,1.8s-1.8-0.8-1.8-1.8S221.1,247.1,222,247.1 M222,246.1
				c-1.5,0-2.8,1.2-2.8,2.8c0,1.5,1.2,2.8,2.8,2.8c1.5,0,2.8-1.2,2.8-2.8C224.8,247.4,223.5,246.1,222,246.1L222,246.1z"/>
		</g>
		<g id="Ellipse_9_1_">
			<path class="st9" d="M230.3,251.8c-1.6,0-2.9-1.3-2.9-2.9c0-1.6,1.3-2.9,2.9-2.9s2.9,1.3,2.9,2.9
				C233.2,250.5,231.9,251.8,230.3,251.8z"/>
			<path class="st10" d="M230.3,246.4c1.3,0,2.4,1.1,2.4,2.4s-1.1,2.4-2.4,2.4s-2.4-1.1-2.4-2.4c0-0.7,0.3-1.3,0.7-1.7
				C229,246.7,229.6,246.4,230.3,246.4L230.3,246.4 M230.3,245.4c-1.9,0-3.4,1.5-3.4,3.4c0,1.9,1.5,3.4,3.4,3.4s3.4-1.5,3.4-3.4
				S232.2,245.4,230.3,245.4L230.3,245.4z"/>
		</g>
		<g id="Ellipse_10_1_">
			<path class="st9" d="M222,261.5c-1.6,0-2.9-1.3-2.9-2.9c0-1.6,1.3-2.9,2.9-2.9s2.9,1.3,2.9,2.9C225,260.1,223.6,261.5,222,261.5z
				"/>
			<path class="st10" d="M222,256.1c1.3,0,2.4,1.1,2.4,2.4s-1.1,2.4-2.4,2.4s-2.4-1.1-2.4-2.4S220.7,256.1,222,256.1 M222,255.1
				c-1.9,0-3.4,1.5-3.4,3.4c0,1.9,1.5,3.4,3.4,3.4s3.4-1.5,3.4-3.4C225.5,256.6,223.9,255.1,222,255.1L222,255.1z"/>
		</g>
		<g id="Ellipse_8_1_">
			<path class="st9" d="M231,260.8c-1.2,0-2.3-1-2.3-2.3s1-2.3,2.3-2.3c1.2,0,2.3,1,2.3,2.3S232.2,260.8,231,260.8z"/>
			<path class="st10" d="M231,256.8c1,0,1.8,0.8,1.8,1.8c0,1-0.8,1.8-1.8,1.8s-1.8-0.8-1.8-1.8S230,256.8,231,256.8 M231,255.8
				c-1.5,0-2.8,1.2-2.8,2.8c0,1.5,1.2,2.8,2.8,2.8s2.8-1.2,2.8-2.8C233.7,257,232.5,255.8,231,255.8L231,255.8z"/>
		</g>
	</g>
	<g>
		<g id="Rectangle_27">
			<rect x="215.7" y="302.5" class="st9" width="21" height="21"/>
			<path class="st10" d="M236.2,303l0,20h-20l0-20L236.2,303 M237.2,302l-22,0l0,22h22L237.2,302L237.2,302z"/>
		</g>
		<g id="Rectangle_27_4_">
			<rect x="236.6" y="302.5" class="st9" width="1.8" height="21"/>
			<path class="st10" d="M237.9,303v20l-0.8,0v-20H237.9 M238.9,302h-2.8v22l2.8,0V302L238.9,302z"/>
		</g>
		<path id="Vector_3" class="st13" d="M225.9,310.3v5.5 M228.3,311.7l-4.8,2.7 M223.5,311.7l4.8,2.7"/>
	</g>
	<g>
		<g id="Rectangle_27_1_">
			<rect x="236.6" y="266.5" class="st9" width="1.8" height="35.8"/>
			<path class="st10" d="M237.9,267v34.8l-0.8,0V267H237.9 M238.9,266h-2.8v36.8l2.8,0V266L238.9,266z"/>
		</g>
	</g>
	<g>
		<path class="st11" d="M381,335.4c-1.2,0-2.1,0.9-2.1,2.1v21.1h48.2v-23.2L381,335.4z"/>
		<path class="st11" d="M405.9,298c-1.2,0-2.1,1-2.1,2.2v33c0,1.2,0.9,2.2,2.1,2.2h21.2l0-37.4H405.9z"/>
		<path class="st11" d="M405.9,262c-1.2,0-2.1,0.9-2.1,2.1l0,31.8c0,1.2,0.9,2.1,2.1,2.1h21.2v-36H405.9z"/>
		<path class="st11" d="M402.1,262v-7.8h33.2l0,112.9l-64.7,0v-33.5h8.3v24.9h48.2l0-96.6L402.1,262z"/>
	</g>
	<g>
		<rect x="171.1" y="103.9" class="st9" width="9.5" height="61.5"/>
		<path class="st10" d="M180,104.4l0,60.5h-8.5l0-60.5H180 M181,103.4h-10.5l0,62.5H181L181,103.4L181,103.4z"/>
	</g>
	<g id="Toilet_1_">
		<g id="Rectangle_21_1_">
			<rect x="418.5" y="94.6" class="st9" width="16.5" height="5.5"/>
			<path class="st10" d="M434.5,95.1v4.5H419v-4.5H434.5 M435.5,94.1H418v6.5h17.5V94.1L435.5,94.1z"/>
		</g>
		<path id="Rectangle_19_x5F_2_1_" class="st11" d="M420.5,111.7c-0.2,3.6,2.6,6.7,6.2,6.7l0,0c3.6,0,6.5-3.1,6.2-6.7l-0.8-11.6
			l-10.9,0L420.5,111.7z"/>
		<path id="Rectangle_18_x5F_13_1_" class="st11" d="M422.5,111.4c-0.2,2.5,1.7,4.6,4.2,4.6l0,0c2.5,0,4.5-2.1,4.2-4.6l-0.6-6.8
			l-7.3,0L422.5,111.4z"/>
		<ellipse id="Ellipse_6_x5F_2_1_" class="st11" cx="426.8" cy="107.4" rx="1.3" ry="1.3"/>
	</g>
	<g>
		<rect x="372.3" y="84.7" class="st9" width="72.2" height="9.9"/>
		<path class="st10" d="M444,85.2v8.9h-71.2l0-3.8v-5.1h33.4h36.2H444 M445,84.2h-2.6h-36.2h-34.4v6.1l0,4.8H445V84.2L445,84.2z"/>
	</g>
	<g id="Toilet_5_">
		<g id="Rectangle_21_6_">
			<rect x="320.8" y="94.6" class="st9" width="16.5" height="5.5"/>
			<path class="st10" d="M336.8,95.1v4.5h-15.5v-4.5H336.8 M337.8,94.1h-17.5v6.5h17.5V94.1L337.8,94.1z"/>
		</g>
		<path id="Rectangle_19_x5F_2_5_" class="st11" d="M322.9,111.7c-0.2,3.6,2.6,6.7,6.2,6.7l0,0c3.6,0,6.5-3.1,6.2-6.7l-0.8-11.6
			l-10.9,0L322.9,111.7z"/>
		<path id="Rectangle_18_x5F_13_5_" class="st11" d="M324.9,111.4c-0.2,2.5,1.7,4.6,4.2,4.6l0,0c2.5,0,4.5-2.1,4.2-4.6l-0.6-6.8
			l-7.3,0L324.9,111.4z"/>
		<ellipse id="Ellipse_6_x5F_2_5_" class="st11" cx="329.1" cy="107.4" rx="1.3" ry="1.3"/>
	</g>
	<g>
		<rect x="294.9" y="84.7" class="st9" width="56.2" height="9.9"/>
		<path class="st10" d="M350.6,85.2v8.9h-55.2l0-3.8v-5.1h25.9h28.3H350.6 M351.6,84.2h-2h-28.3h-26.9v6.1l0,4.8h57.2V84.2
			L351.6,84.2z"/>
	</g>
	<g>
		<path class="st11" d="M300,334.5v-58.3h42.4v58.3H300z"/>
		<path class="st11" d="M310.6,272.7v-0.9c0-5.9,4.7-10.6,10.6-10.6c5.9,0,10.6,4.7,10.6,10.6v0.9H310.6z"/>
		<path class="st11" d="M312.3,276.2v-4.4c0-4.9,4-8.8,8.8-8.8c4.9,0,8.8,4,8.8,8.8v4.4H312.3z"/>
		<path class="st11" d="M310.6,338.1v0.9c0,5.9,4.7,10.6,10.6,10.6c5.9,0,10.6-4.7,10.6-10.6v-0.9H310.6z"/>
		<path class="st11" d="M312.3,334.5v4.4c0,4.9,4,8.8,8.8,8.8c4.9,0,8.8-4,8.8-8.8v-4.4H312.3z"/>
		<path class="st11" d="M296.4,294.8h-0.9c-5.9,0-10.6,4.7-10.6,10.6c0,5.9,4.7,10.6,10.6,10.6h0.9V294.8z"/>
		<path class="st11" d="M300,296.6h-4.4c-4.9,0-8.8,4-8.8,8.8c0,4.9,4,8.8,8.8,8.8h4.4V296.6z"/>
		<path class="st11" d="M345.9,294.8h0.9c5.9,0,10.6,4.7,10.6,10.6c0,5.9-4.7,10.6-10.6,10.6h-0.9V294.8z"/>
		<path class="st11" d="M342.4,296.6h4.4c4.9,0,8.8,4,8.8,8.8c0,4.9-4,8.8-8.8,8.8h-4.4V296.6z"/>
	</g>
	<g>
		<path class="st11" d="M534.7,334.3l20.4,0l2.8,18.6l-26,0L534.7,334.3z"/>
		<g>
			<rect x="510" y="350.8" class="st9" width="69.7" height="30.6"/>
			<path class="st10" d="M579.2,351.3v29.6h-68.7l0-29.6H579.2 M580.2,350.3h-70.7l0,31.6h70.7V350.3L580.2,350.3z"/>
		</g>
		<path class="st13" d="M537,359.7l15.8,0 M535.6,356l18.6,0l0,5.6l-18.6,0L535.6,356z"/>
		<path class="st15" d="M528.6,355.7L528.6,355.7c0.8,0,1.4,0.6,1.4,1.4l0,1.9c0,0.8-0.6,1.4-1.4,1.4l0,0c-0.8,0-1.4-0.6-1.4-1.4
			l0-1.9C527.2,356.3,527.8,355.7,528.6,355.7z"/>
		<path class="st11" d="M540.2,370.6c0-2.6,2.1-4.6,4.6-4.6c2.6,0,4.6,2.1,4.6,4.6l0,4.6l-9.3,0L540.2,370.6z"/>
		<g>
			<rect x="534.8" y="333.7" class="st9" width="20.1" height="16.9"/>
			<path class="st10" d="M554.4,334.2v15.9h-19.1v-15.9H554.4 M555.4,333.2h-21.1v17.9h21.1V333.2L555.4,333.2z"/>
		</g>
		<g>
			<rect x="534.7" y="331.9" class="st9" width="20.3" height="1.8"/>
			<path class="st10" d="M554.5,332.4v0.8h-19.3v-0.8H554.5 M555.5,331.4h-21.3v2.8h21.3V331.4L555.5,331.4z"/>
		</g>
		<g>
			<rect x="521.4" y="373.3" class="st9" width="46.9" height="2"/>
			<path class="st10" d="M567.8,373.8v1h-45.9v-1H567.8 M568.8,372.8h-47.9v3h47.9V372.8L568.8,372.8z"/>
		</g>
	</g>
	<g>
		<g>
			<rect x="349.3" y="139.5" class="st9" width="17.9" height="26.6"/>
			<path class="st10" d="M366.7,140v25.6l-16.9,0V140H366.7 M367.7,139h-18.9v27.6l18.9,0V139L367.7,139z"/>
		</g>
		<g>
			<circle class="st9" cx="358.2" cy="152.8" r="5.7"/>
			<path class="st10" d="M358.2,147.7c2.8,0,5.2,2.3,5.2,5.2c0,2.8-2.3,5.2-5.2,5.2s-5.2-2.3-5.2-5.2
				C353.1,150,355.4,147.7,358.2,147.7 M358.2,146.7c-3.4,0-6.2,2.8-6.2,6.2c0,3.4,2.8,6.2,6.2,6.2c3.4,0,6.2-2.8,6.2-6.2
				C364.4,149.4,361.6,146.7,358.2,146.7L358.2,146.7z"/>
		</g>
	</g>
	<g id="Sink_2_1_">
		<g id="Rectangle_16_x5F_11_1_">
			<rect x="348.4" y="109" class="st9" width="18.8" height="30.4"/>
			<path class="st10" d="M366.7,109.5V139h-17.8v-29.4H366.7 M367.7,108.5h-19.8V140h19.8V108.5L367.7,108.5z"/>
		</g>
		<path id="Rectangle_19_x5F_5_1_" class="st11" d="M357.8,113.9L357.8,113.9c-3.3,0-6.1,2.7-6.1,6.1v8.7c0,3.3,2.7,6.1,6.1,6.1l0,0
			c3.3,0,6.1-2.7,6.1-6.1v-8.7C363.9,116.6,361.1,113.9,357.8,113.9z"/>
		<circle id="Ellipse_7_x5F_2_1_" class="st11" cx="360.9" cy="124.3" r="1.3"/>
	</g>
	<g id="Sink_2_4_">
		<g id="Rectangle_16_x5F_11_5_">
			<rect x="108.3" y="84.7" class="st9" width="32.1" height="19.9"/>
			<path class="st10" d="M139.9,85.2l0,18.9h-31.1V85.2L139.9,85.2 M140.9,84.2l-33.1,0V105h33.1L140.9,84.2L140.9,84.2z"/>
		</g>
		<path id="Rectangle_19_x5F_5_4_" class="st11" d="M113.4,94.6L113.4,94.6c0,3.5,2.9,6.4,6.4,6.4h9.1c3.5,0,6.4-2.9,6.4-6.4l0,0
			c0-3.5-2.9-6.4-6.4-6.4h-9.1C116.3,88.2,113.4,91.1,113.4,94.6z"/>
		<circle id="Ellipse_7_x5F_2_4_" class="st11" cx="124.4" cy="91.4" r="1.3"/>
	</g>
</g>
<g id="Numbers_1_">
	<g>
		<path class="st8" d="M125.7,133.1h0.7v0.9h-0.7v1.6h-1V134h-3l-0.2-0.6l3.6-4.4h0.7V133.1z M124.7,130.7l-2,2.4h2V130.7z"/>
		<path class="st8" d="M127.9,135.8c-0.2,0-0.3-0.1-0.5-0.2c-0.1-0.1-0.2-0.3-0.2-0.5c0-0.2,0.1-0.3,0.2-0.4
			c0.1-0.1,0.3-0.2,0.5-0.2c0.2,0,0.3,0.1,0.4,0.2c0.1,0.1,0.2,0.3,0.2,0.4c0,0.2-0.1,0.3-0.2,0.5
			C128.2,135.7,128.1,135.8,127.9,135.8z"/>
		<path class="st8" d="M129,129.9V129h4.2v0.7l-2.5,6h-1.1l2.5-5.7H129z"/>
	</g>
	<g>
		<path class="st8" d="M121.4,323.7l1.9-1.6h0.8v6.7h-1v-5.3l-1.2,0.9L121.4,323.7z"/>
		<path class="st8" d="M129.3,326.2h0.7v0.9h-0.7v1.6h-1v-1.6h-3l-0.2-0.6l3.6-4.4h0.7V326.2z M128.3,323.8l-2,2.4h2V323.8z"/>
		<path class="st8" d="M131.5,328.9c-0.2,0-0.3-0.1-0.5-0.2c-0.1-0.1-0.2-0.3-0.2-0.5c0-0.2,0.1-0.3,0.2-0.4
			c0.1-0.1,0.3-0.2,0.5-0.2c0.2,0,0.3,0.1,0.4,0.2c0.1,0.1,0.2,0.3,0.2,0.4c0,0.2-0.1,0.3-0.2,0.5
			C131.8,328.8,131.6,328.9,131.5,328.9z"/>
		<path class="st8" d="M135,328.8c-0.7,0-1.4-0.2-2.1-0.7l0.5-0.8c0.6,0.4,1.1,0.5,1.6,0.5c0.4,0,0.7-0.1,0.9-0.3
			c0.2-0.2,0.3-0.4,0.3-0.8c0-0.3-0.1-0.6-0.4-0.8c-0.2-0.2-0.5-0.3-0.9-0.3h-0.8v-0.9h0.8c0.3,0,0.6-0.1,0.8-0.3
			c0.2-0.2,0.3-0.4,0.3-0.7c0-0.3-0.1-0.5-0.3-0.7s-0.5-0.3-0.8-0.3c-0.4,0-0.9,0.2-1.4,0.6l-0.5-0.7c0.2-0.2,0.6-0.4,0.9-0.6
			c0.4-0.1,0.7-0.2,1.1-0.2c0.6,0,1.1,0.2,1.5,0.5c0.4,0.3,0.6,0.8,0.6,1.2c0,0.4-0.1,0.7-0.3,0.9c-0.2,0.3-0.5,0.5-0.8,0.6v0
			c0.4,0.1,0.7,0.3,1,0.6c0.2,0.3,0.3,0.6,0.3,1.1c0,0.6-0.2,1-0.6,1.4C136.2,328.6,135.7,328.8,135,328.8z"/>
	</g>
	<g>
		<path class="st8" d="M355.7,246.5l-1.6,1.8h2.7v1h-4.2v-0.9l2.1-2.3l0.5-0.6c0.1-0.1,0.2-0.3,0.3-0.5s0.1-0.4,0.1-0.6
			c0-0.3-0.1-0.5-0.3-0.7c-0.2-0.2-0.5-0.3-0.8-0.3c-0.5,0-1,0.2-1.6,0.7l-0.6-0.7c0.7-0.6,1.4-1,2.2-1c0.6,0,1.1,0.2,1.5,0.6
			c0.4,0.4,0.6,0.9,0.6,1.4C356.8,245.1,356.4,245.7,355.7,246.5z"/>
		<path class="st8" d="M361.5,246.7h0.7v0.9h-0.7v1.6h-1v-1.6h-3l-0.2-0.6l3.6-4.4h0.7V246.7z M360.5,244.3l-2,2.4h2V244.3z"/>
		<path class="st8" d="M363.6,249.4c-0.2,0-0.3-0.1-0.5-0.2c-0.1-0.1-0.2-0.3-0.2-0.5c0-0.2,0.1-0.3,0.2-0.4
			c0.1-0.1,0.3-0.2,0.5-0.2c0.2,0,0.3,0.1,0.4,0.2c0.1,0.1,0.2,0.3,0.2,0.4c0,0.2-0.1,0.3-0.2,0.5
			C364,249.3,363.8,249.4,363.6,249.4z"/>
		<path class="st8" d="M367.4,242.5c0.8,0,1.4,0.3,1.8,0.9c0.4,0.6,0.6,1.4,0.6,2.3c0,0.5-0.1,1-0.2,1.4c-0.1,0.4-0.3,0.8-0.5,1.2
			c-0.2,0.3-0.5,0.6-0.9,0.8c-0.4,0.2-0.8,0.3-1.2,0.3c-0.7,0-1.3-0.2-1.8-0.6l0.4-0.8c0.4,0.3,0.9,0.5,1.3,0.5c0.6,0,1-0.2,1.3-0.7
			c0.3-0.5,0.5-1,0.5-1.7c-0.2,0.3-0.4,0.5-0.7,0.6s-0.6,0.2-1,0.2c-0.6,0-1.1-0.2-1.5-0.6c-0.4-0.4-0.6-0.9-0.6-1.5
			c0-0.6,0.2-1.2,0.6-1.6C366.2,242.7,366.7,242.5,367.4,242.5z M368.6,244.7c0-0.4-0.1-0.7-0.4-0.9c-0.2-0.3-0.5-0.4-0.9-0.4
			c-0.4,0-0.7,0.1-0.9,0.4c-0.2,0.3-0.4,0.6-0.4,0.9c0,0.4,0.1,0.7,0.4,0.9c0.2,0.2,0.5,0.4,0.9,0.4c0.4,0,0.7-0.1,0.9-0.4
			C368.5,245.3,368.6,245,368.6,244.7z"/>
	</g>
	<g>
		<path class="st8" d="M259.5,135.8h0.7v0.9h-0.7v1.6h-1v-1.6h-3l-0.2-0.6l3.6-4.4h0.7V135.8z M258.5,133.4l-2,2.4h2V133.4z"/>
		<path class="st8" d="M261.6,138.5c-0.2,0-0.3-0.1-0.5-0.2c-0.1-0.1-0.2-0.3-0.2-0.5c0-0.2,0.1-0.3,0.2-0.4
			c0.1-0.1,0.3-0.2,0.5-0.2c0.2,0,0.3,0.1,0.4,0.2c0.1,0.1,0.2,0.3,0.2,0.4c0,0.2-0.1,0.3-0.2,0.5
			C262,138.4,261.8,138.5,261.6,138.5z"/>
		<path class="st8" d="M265.1,138.5c-0.7,0-1.4-0.2-2.1-0.7l0.5-0.8c0.6,0.4,1.1,0.5,1.6,0.5c0.4,0,0.7-0.1,0.9-0.3
			c0.2-0.2,0.3-0.4,0.3-0.8c0-0.3-0.1-0.6-0.4-0.8c-0.2-0.2-0.5-0.3-0.9-0.3h-0.8v-0.9h0.8c0.3,0,0.6-0.1,0.8-0.3
			c0.2-0.2,0.3-0.4,0.3-0.7c0-0.3-0.1-0.5-0.3-0.7s-0.5-0.3-0.8-0.3c-0.4,0-0.9,0.2-1.4,0.6l-0.5-0.7c0.2-0.2,0.6-0.4,0.9-0.6
			c0.4-0.1,0.7-0.2,1.1-0.2c0.6,0,1.1,0.2,1.5,0.5c0.4,0.3,0.6,0.8,0.6,1.2c0,0.4-0.1,0.7-0.3,0.9c-0.2,0.3-0.5,0.5-0.8,0.6v0
			c0.4,0.1,0.7,0.3,1,0.6c0.2,0.3,0.3,0.6,0.3,1.1c0,0.6-0.2,1-0.6,1.4C266.4,138.3,265.8,138.5,265.1,138.5z"/>
	</g>
	<g>
		<path class="st8" d="M335.1,138.5c-0.7,0-1.4-0.2-2.1-0.7l0.5-0.8c0.6,0.4,1.1,0.5,1.6,0.5c0.4,0,0.7-0.1,0.9-0.3
			c0.2-0.2,0.3-0.4,0.3-0.8c0-0.3-0.1-0.6-0.4-0.8c-0.2-0.2-0.5-0.3-0.9-0.3h-0.8v-0.9h0.8c0.3,0,0.6-0.1,0.8-0.3
			c0.2-0.2,0.3-0.4,0.3-0.7c0-0.3-0.1-0.5-0.3-0.7s-0.5-0.3-0.8-0.3c-0.4,0-0.9,0.2-1.4,0.6l-0.5-0.7c0.2-0.2,0.6-0.4,0.9-0.6
			c0.4-0.1,0.7-0.2,1.1-0.2c0.6,0,1.1,0.2,1.5,0.5c0.4,0.3,0.6,0.8,0.6,1.2c0,0.4-0.1,0.7-0.3,0.9c-0.2,0.3-0.5,0.5-0.8,0.6v0
			c0.4,0.1,0.7,0.3,1,0.6c0.2,0.3,0.3,0.6,0.3,1.1c0,0.6-0.2,1-0.6,1.4C336.3,138.3,335.8,138.5,335.1,138.5z"/>
	</g>
	<g>
		<path class="st8" d="M426.8,135.8h0.7v0.9h-0.7v1.6h-1v-1.6h-3l-0.2-0.6l3.6-4.4h0.7V135.8z M425.8,133.4l-2,2.4h2V133.4z"/>
		<path class="st8" d="M429,138.5c-0.2,0-0.3-0.1-0.5-0.2s-0.2-0.3-0.2-0.5c0-0.2,0.1-0.3,0.2-0.4s0.3-0.2,0.5-0.2
			c0.2,0,0.3,0.1,0.4,0.2s0.2,0.3,0.2,0.4c0,0.2-0.1,0.3-0.2,0.5S429.2,138.5,429,138.5z"/>
		<path class="st8" d="M432.8,131.6c0.8,0,1.4,0.3,1.8,0.9c0.4,0.6,0.6,1.4,0.6,2.3c0,0.5-0.1,1-0.2,1.4c-0.1,0.4-0.3,0.8-0.5,1.2
			c-0.2,0.3-0.5,0.6-0.9,0.8c-0.4,0.2-0.8,0.3-1.2,0.3c-0.7,0-1.3-0.2-1.8-0.6l0.4-0.8c0.4,0.3,0.9,0.5,1.3,0.5c0.6,0,1-0.2,1.3-0.7
			c0.3-0.5,0.5-1,0.5-1.7c-0.2,0.3-0.4,0.5-0.7,0.6s-0.6,0.2-1,0.2c-0.6,0-1.1-0.2-1.5-0.6c-0.4-0.4-0.6-0.9-0.6-1.5
			c0-0.6,0.2-1.2,0.6-1.6C431.5,131.8,432.1,131.6,432.8,131.6z M434,133.8c0-0.4-0.1-0.7-0.4-0.9c-0.2-0.3-0.5-0.4-0.9-0.4
			c-0.4,0-0.7,0.1-0.9,0.4c-0.2,0.3-0.4,0.6-0.4,0.9c0,0.4,0.1,0.7,0.4,0.9c0.2,0.2,0.5,0.4,0.9,0.4s0.7-0.1,0.9-0.4
			C433.9,134.5,434,134.2,434,133.8z"/>
	</g>
	<g>
		<path class="st8" d="M453.9,184.1l1.9-1.6h0.8v6.7h-1v-5.3l-1.2,0.9L453.9,184.1z"/>
		<path class="st8" d="M458.5,189.3c-0.2,0-0.3-0.1-0.5-0.2s-0.2-0.3-0.2-0.5c0-0.2,0.1-0.3,0.2-0.4s0.3-0.2,0.5-0.2
			c0.2,0,0.3,0.1,0.4,0.2s0.2,0.3,0.2,0.4c0,0.2-0.1,0.3-0.2,0.5S458.7,189.3,458.5,189.3z"/>
		<path class="st8" d="M462.4,189.3c-0.7,0-1.3-0.2-1.7-0.5c-0.5-0.4-0.7-0.8-0.7-1.4c0-0.4,0.1-0.7,0.4-1c0.2-0.3,0.5-0.5,0.9-0.7
			v0c-0.3-0.1-0.6-0.4-0.7-0.6c-0.2-0.3-0.3-0.5-0.3-0.9c0-0.5,0.2-0.9,0.6-1.3c0.4-0.3,0.9-0.5,1.5-0.5c0.6,0,1.1,0.2,1.5,0.5
			c0.4,0.3,0.6,0.8,0.6,1.3c0,0.3-0.1,0.6-0.3,0.9c-0.2,0.3-0.4,0.5-0.7,0.6v0c0.4,0.1,0.7,0.4,0.9,0.7s0.4,0.7,0.4,1
			c0,0.6-0.2,1-0.7,1.4C463.7,189.1,463.1,189.3,462.4,189.3z M462.4,188.3c0.4,0,0.7-0.1,1-0.3c0.3-0.2,0.4-0.5,0.4-0.8
			c0-0.3-0.1-0.6-0.4-0.8c-0.3-0.2-0.6-0.3-1-0.3s-0.7,0.1-1,0.3c-0.3,0.2-0.4,0.5-0.4,0.8c0,0.3,0.1,0.6,0.4,0.8
			C461.7,188.2,462,188.3,462.4,188.3z M463.3,184.9c0.2-0.2,0.3-0.4,0.3-0.7s-0.1-0.5-0.3-0.7c-0.2-0.2-0.5-0.3-0.8-0.3
			c-0.3,0-0.6,0.1-0.8,0.3c-0.2,0.2-0.3,0.4-0.3,0.7s0.1,0.5,0.3,0.7c0.2,0.2,0.5,0.3,0.8,0.3C462.8,185.2,463,185.1,463.3,184.9z"
			/>
	</g>
	<g>
		<path class="st8" d="M557.8,184.1l1.9-1.6h0.8v6.7h-1v-5.3l-1.2,0.9L557.8,184.1z"/>
		<path class="st8" d="M561.4,184.1l1.9-1.6h0.8v6.7h-1v-5.3l-1.2,0.9L561.4,184.1z"/>
		<path class="st8" d="M566,189.3c-0.2,0-0.3-0.1-0.5-0.2c-0.1-0.1-0.2-0.3-0.2-0.5c0-0.2,0.1-0.3,0.2-0.4c0.1-0.1,0.3-0.2,0.5-0.2
			c0.2,0,0.3,0.1,0.4,0.2c0.1,0.1,0.2,0.3,0.2,0.4c0,0.2-0.1,0.3-0.2,0.5C566.3,189.2,566.2,189.3,566,189.3z"/>
		<path class="st8" d="M569.9,189.3c-0.7,0-1.3-0.2-1.7-0.5c-0.4-0.4-0.7-0.8-0.7-1.4c0-0.4,0.1-0.7,0.4-1c0.2-0.3,0.5-0.5,0.9-0.7
			v0c-0.3-0.1-0.6-0.4-0.7-0.6c-0.2-0.3-0.3-0.5-0.3-0.9c0-0.5,0.2-0.9,0.6-1.3c0.4-0.3,0.9-0.5,1.5-0.5c0.6,0,1.1,0.2,1.5,0.5
			c0.4,0.3,0.6,0.8,0.6,1.3c0,0.3-0.1,0.6-0.3,0.9c-0.2,0.3-0.4,0.5-0.7,0.6v0c0.4,0.1,0.7,0.4,0.9,0.7c0.2,0.3,0.4,0.7,0.4,1
			c0,0.6-0.2,1-0.7,1.4C571.2,189.1,570.6,189.3,569.9,189.3z M569.9,188.3c0.4,0,0.7-0.1,1-0.3s0.4-0.5,0.4-0.8
			c0-0.3-0.1-0.6-0.4-0.8c-0.3-0.2-0.6-0.3-1-0.3s-0.7,0.1-1,0.3c-0.3,0.2-0.4,0.5-0.4,0.8c0,0.3,0.1,0.6,0.4,0.8
			S569.5,188.3,569.9,188.3z M570.8,184.9c0.2-0.2,0.3-0.4,0.3-0.7s-0.1-0.5-0.3-0.7c-0.2-0.2-0.5-0.3-0.8-0.3
			c-0.3,0-0.6,0.1-0.8,0.3c-0.2,0.2-0.3,0.4-0.3,0.7s0.1,0.5,0.3,0.7c0.2,0.2,0.5,0.3,0.8,0.3S570.5,185.1,570.8,184.9z"/>
	</g>
	<g>
		<path class="st8" d="M491.3,312.3l1.9-1.6h0.8v6.7h-1v-5.3l-1.2,0.9L491.3,312.3z"/>
		<path class="st8" d="M498.4,314.6l-1.6,1.8h2.7v1h-4.2v-0.9l2.1-2.3l0.5-0.6c0.1-0.1,0.2-0.3,0.3-0.5c0.1-0.2,0.1-0.4,0.1-0.6
			c0-0.3-0.1-0.5-0.3-0.7c-0.2-0.2-0.5-0.3-0.8-0.3c-0.5,0-1,0.2-1.6,0.7l-0.6-0.7c0.7-0.6,1.4-1,2.2-1c0.6,0,1.1,0.2,1.5,0.6
			c0.4,0.4,0.6,0.9,0.6,1.4C499.4,313.2,499.1,313.9,498.4,314.6z"/>
		<path class="st8" d="M501,317.5c-0.2,0-0.3-0.1-0.5-0.2c-0.1-0.1-0.2-0.3-0.2-0.5c0-0.2,0.1-0.3,0.2-0.4c0.1-0.1,0.3-0.2,0.5-0.2
			c0.2,0,0.3,0.1,0.4,0.2c0.1,0.1,0.2,0.3,0.2,0.4c0,0.2-0.1,0.3-0.2,0.5C501.3,317.5,501.2,317.5,501,317.5z"/>
		<path class="st8" d="M504.8,310.6c0.8,0,1.4,0.3,1.8,0.9c0.4,0.6,0.6,1.4,0.6,2.3c0,0.5-0.1,1-0.2,1.4c-0.1,0.4-0.3,0.8-0.5,1.2
			c-0.2,0.3-0.5,0.6-0.9,0.8c-0.4,0.2-0.8,0.3-1.2,0.3c-0.7,0-1.3-0.2-1.8-0.6l0.4-0.8c0.4,0.3,0.9,0.5,1.3,0.5c0.6,0,1-0.2,1.3-0.7
			c0.3-0.5,0.5-1,0.5-1.7c-0.2,0.3-0.4,0.5-0.7,0.6s-0.6,0.2-1,0.2c-0.6,0-1.1-0.2-1.5-0.6c-0.4-0.4-0.6-0.9-0.6-1.5
			c0-0.6,0.2-1.2,0.6-1.6C503.5,310.8,504.1,310.6,504.8,310.6z M506,312.8c0-0.4-0.1-0.7-0.4-0.9c-0.2-0.3-0.5-0.4-0.9-0.4
			c-0.4,0-0.7,0.1-0.9,0.4c-0.2,0.3-0.4,0.6-0.4,0.9c0,0.4,0.1,0.7,0.4,0.9c0.2,0.2,0.5,0.4,0.9,0.4c0.4,0,0.7-0.1,0.9-0.4
			C505.9,313.5,506,313.2,506,312.8z"/>
	</g>
</g>
<g id="street_anchors_1_" class="st16">
	<rect id="street_x5F_anchor_x5F_02_1_" x="690" y="235" class="st17" width="10" height="10"/>
	<rect id="street_x5F_anchor_x5F_01" x="355" y="438.2" class="st17" width="10" height="10"/>
</g>
</svg>
