<?xml version="1.0" encoding="utf-8"?>
<!-- Generator: Adobe Illustrator 24.2.0, SVG Export Plug-In . SVG Version: 6.00 Build 0)  -->
<!DOCTYPE svg PUBLIC "-//W3C//DTD SVG 1.1//EN" "http://www.w3.org/Graphics/SVG/1.1/DTD/svg11.dtd" [
	<!ENTITY ns_extend "http://ns.adobe.com/Extensibility/1.0/">
	<!ENTITY ns_ai "http://ns.adobe.com/AdobeIllustrator/10.0/">
	<!ENTITY ns_graphs "http://ns.adobe.com/Graphs/1.0/">
	<!ENTITY ns_vars "http://ns.adobe.com/Variables/1.0/">
	<!ENTITY ns_imrep "http://ns.adobe.com/ImageReplacement/1.0/">
	<!ENTITY ns_sfw "http://ns.adobe.com/SaveForWeb/1.0/">
	<!ENTITY ns_custom "http://ns.adobe.com/GenericCustomNamespace/1.0/">
	<!ENTITY ns_adobe_xpath "http://ns.adobe.com/XPath/1.0/">
]>
<svg version="1.1" id="_x31__x5F_2" xmlns:x="&ns_extend;" xmlns:i="&ns_ai;" xmlns:graph="&ns_graphs;"
	 xmlns="http://www.w3.org/2000/svg" xmlns:xlink="http://www.w3.org/1999/xlink" x="0px" y="0px" viewBox="0 0 720 480"
	 style="enable-background:new 0 0 720 480;" xml:space="preserve">
<style type="text/css">
	.st0{fill:#DBD4CA;}
	.st1{clip-path:url(#SVGID_2_);}
	.st2{fill:none;stroke:#C49F8A;stroke-miterlimit:10;}
	.st3{opacity:0.3;clip-path:url(#SVGID_4_);}
	.st4{opacity:0.7;fill:#C49F8A;enable-background:new    ;}
	.st5{fill:none;stroke:#565440;}
	.st6{fill:#565440;}
	.st7{fill:#E9E4DC;}
	.st8{fill:#C49F8A;}
	.st9{fill:#E9E4DC;stroke:#C49F8A;}
	.st10{fill:#E9E4DC;stroke:#C49F8A;stroke-width:1;stroke-miterlimit:3.9998;}
	.st11{fill:none;stroke:#C49F8A;}
	.st12{fill:#E9E4DC;stroke:#C49F8A;stroke-linejoin:round;}
	.st13{fill:#E9E4DC;stroke:#C49F8A;stroke-width:1;stroke-miterlimit:4;}
	.st14{fill:#3F3F3F;fill-opacity:0;}
</style>
<metadata>
	<sfw  xmlns="&ns_sfw;">
		<slices></slices>
		<sliceSourceBounds  bottomLeftOrigin="true" height="667.7" width="667.7" x="-3.3" y="-139.4"></sliceSourceBounds>
	</sfw>
</metadata>
<rect id="Floor" x="69.1" y="68.3" class="st0" width="577.5" height="351.7"/>
<g id="Wet_Floor_1_">
	<g>
		<defs>
			<rect id="SVGID_1_" x="247.2" y="281.4" width="169.7" height="129.6"/>
		</defs>
		<clipPath id="SVGID_2_">
			<use xlink:href="#SVGID_1_"  style="overflow:visible;"/>
		</clipPath>
		<g class="st1">
			<g>
				<line class="st2" x1="7.5" y1="296" x2="341" y2="-37.5"/>
				<line class="st2" x1="-2.9" y1="285.6" x2="330.6" y2="-47.9"/>
				<line class="st2" x1="17.9" y1="306.4" x2="351.4" y2="-27"/>
				<line class="st2" x1="28.3" y1="316.9" x2="361.8" y2="-16.6"/>
				<line class="st2" x1="38.8" y1="327.3" x2="372.2" y2="-6.2"/>
				<line class="st2" x1="49.2" y1="337.7" x2="382.7" y2="4.2"/>
				<line class="st2" x1="59.6" y1="348.1" x2="393.1" y2="14.6"/>
				<line class="st2" x1="70" y1="358.5" x2="403.5" y2="25.1"/>
				<line class="st2" x1="80.4" y1="369" x2="413.9" y2="35.5"/>
				<line class="st2" x1="90.9" y1="379.4" x2="424.3" y2="45.9"/>
				<line class="st2" x1="80.4" y1="369" x2="413.9" y2="35.5"/>
				<line class="st2" x1="101.3" y1="389.8" x2="434.8" y2="56.3"/>
				<line class="st2" x1="111.7" y1="400.2" x2="445.2" y2="66.7"/>
				<line class="st2" x1="122.1" y1="410.7" x2="455.6" y2="77.2"/>
				<line class="st2" x1="132.5" y1="421.1" x2="466" y2="87.6"/>
				<line class="st2" x1="143" y1="431.5" x2="476.5" y2="98"/>
				<line class="st2" x1="153.4" y1="441.9" x2="486.9" y2="108.4"/>
				<line class="st2" x1="163.8" y1="452.3" x2="497.3" y2="118.9"/>
				<line class="st2" x1="174.2" y1="462.8" x2="507.7" y2="129.3"/>
				<line class="st2" x1="163.8" y1="452.3" x2="497.3" y2="118.9"/>
				<line class="st2" x1="184.7" y1="473.2" x2="518.1" y2="139.7"/>
				<line class="st2" x1="195.1" y1="483.6" x2="528.6" y2="150.1"/>
				<line class="st2" x1="205.5" y1="494" x2="539" y2="160.5"/>
				<line class="st2" x1="215.9" y1="504.4" x2="549.4" y2="171"/>
				<line class="st2" x1="226.3" y1="514.9" x2="559.8" y2="181.4"/>
				<line class="st2" x1="236.8" y1="525.3" x2="570.2" y2="191.8"/>
				<line class="st2" x1="247.2" y1="535.7" x2="580.7" y2="202.2"/>
				<line class="st2" x1="257.6" y1="546.1" x2="591.1" y2="212.6"/>
				<line class="st2" x1="247.2" y1="535.7" x2="580.7" y2="202.2"/>
				<line class="st2" x1="268" y1="556.5" x2="601.5" y2="223.1"/>
				<line class="st2" x1="278.4" y1="567" x2="611.9" y2="233.5"/>
				<line class="st2" x1="288.9" y1="577.4" x2="622.3" y2="243.9"/>
				<line class="st2" x1="299.3" y1="587.8" x2="632.8" y2="254.3"/>
				<line class="st2" x1="309.7" y1="598.2" x2="643.2" y2="264.8"/>
				<line class="st2" x1="320.1" y1="608.7" x2="653.6" y2="275.2"/>
				<line class="st2" x1="330.6" y1="619.1" x2="664" y2="285.6"/>
			</g>
			<g>
				<line class="st2" x1="341" y1="608.7" x2="7.5" y2="275.2"/>
				<line class="st2" x1="330.6" y1="619.1" x2="-2.9" y2="285.6"/>
				<line class="st2" x1="351.4" y1="598.2" x2="17.9" y2="264.8"/>
				<line class="st2" x1="361.8" y1="587.8" x2="28.3" y2="254.3"/>
				<line class="st2" x1="372.2" y1="577.4" x2="38.8" y2="243.9"/>
				<line class="st2" x1="382.7" y1="567" x2="49.2" y2="233.5"/>
				<line class="st2" x1="393.1" y1="556.5" x2="59.6" y2="223.1"/>
				<line class="st2" x1="403.5" y1="546.1" x2="70" y2="212.6"/>
				<line class="st2" x1="413.9" y1="535.7" x2="80.4" y2="202.2"/>
				<line class="st2" x1="424.3" y1="525.3" x2="90.9" y2="191.8"/>
				<line class="st2" x1="413.9" y1="535.7" x2="80.4" y2="202.2"/>
				<line class="st2" x1="434.8" y1="514.9" x2="101.3" y2="181.4"/>
				<line class="st2" x1="445.2" y1="504.4" x2="111.7" y2="171"/>
				<line class="st2" x1="455.6" y1="494" x2="122.1" y2="160.5"/>
				<line class="st2" x1="466" y1="483.6" x2="132.5" y2="150.1"/>
				<line class="st2" x1="476.5" y1="473.2" x2="143" y2="139.7"/>
				<line class="st2" x1="486.9" y1="462.8" x2="153.4" y2="129.3"/>
				<line class="st2" x1="497.3" y1="452.3" x2="163.8" y2="118.9"/>
				<line class="st2" x1="507.7" y1="441.9" x2="174.2" y2="108.4"/>
				<line class="st2" x1="497.3" y1="452.3" x2="163.8" y2="118.9"/>
				<line class="st2" x1="518.1" y1="431.5" x2="184.7" y2="98"/>
				<line class="st2" x1="528.6" y1="421.1" x2="195.1" y2="87.6"/>
				<line class="st2" x1="539" y1="410.6" x2="205.5" y2="77.2"/>
				<line class="st2" x1="549.4" y1="400.2" x2="215.9" y2="66.7"/>
				<line class="st2" x1="559.8" y1="389.8" x2="226.3" y2="56.3"/>
				<line class="st2" x1="570.2" y1="379.4" x2="236.8" y2="45.9"/>
				<line class="st2" x1="580.7" y1="369" x2="247.2" y2="35.5"/>
				<line class="st2" x1="591.1" y1="358.5" x2="257.6" y2="25.1"/>
				<line class="st2" x1="580.7" y1="369" x2="247.2" y2="35.5"/>
				<line class="st2" x1="601.5" y1="348.1" x2="268" y2="14.6"/>
				<line class="st2" x1="611.9" y1="337.7" x2="278.4" y2="4.2"/>
				<line class="st2" x1="622.3" y1="327.3" x2="288.9" y2="-6.2"/>
				<line class="st2" x1="632.8" y1="316.9" x2="299.3" y2="-16.6"/>
				<line class="st2" x1="643.2" y1="306.4" x2="309.7" y2="-27"/>
				<line class="st2" x1="653.6" y1="296" x2="320.1" y2="-37.5"/>
				<line class="st2" x1="664" y1="285.6" x2="330.6" y2="-47.9"/>
			</g>
		</g>
	</g>
	<g>
		<defs>
			<rect id="SVGID_3_" x="247.2" y="281.4" width="169.7" height="129.6"/>
		</defs>
		<clipPath id="SVGID_4_">
			<use xlink:href="#SVGID_3_"  style="overflow:visible;"/>
		</clipPath>
		<g class="st3">
			<rect x="169.5" y="114.1" class="st4" width="322.2" height="322.2"/>
		</g>
	</g>
</g>
<path id="Windows" class="st5" d="M650.5,68.3v-6.2l-587.4,0l0,347.6h6.2l0-341.4L650.5,68.3L650.5,68.3z"/>
<path id="Doors_2_" class="st5" d="M234.8,229.7c0-4.6,0.8-8.3,2.5-12.4c1.7-4.1,4.1-7.9,7-10.8c2.9-3.3,6.6-5.8,10.8-7.4
	c4.1-1.7,8.3-2.5,12.8-2.5v33.1 M218.3,275.2c-4.6,0-8.3-0.8-12.4-2.5c-4.1-1.7-7.9-4.1-10.8-7c-3.3-2.9-5.8-6.6-7.4-10.8
	c-1.7-4.1-2.5-8.3-2.5-12.8l33.1,0 M247.2,333.1c-4.6,0-8.3,0.8-12.4,2.5c-4.1,1.7-7.9,4.1-10.8,7c-3.3,2.9-5.8,6.6-7.4,10.8
	c-1.7,4.1-2.5,8.3-2.5,12.8l33.1,0 M412.8,344.8c-4.6,0-8.3-0.8-12.4-2.5s-7.9-4.1-10.8-7c-3.3-2.9-5.8-6.6-7.4-10.8
	s-2.5-8.3-2.5-12.8l33.1,0 M506.7,353.5c4.2,0,7.7-0.8,11.6-2.3c3.9-1.5,7.3-3.9,10-6.6c3.1-2.7,5.4-6.2,6.9-10
	c1.5-3.9,2.3-7.7,2.3-11.9l-30.8,0 M515,123.6c4.8,0,8.8-0.9,13.2-2.6c4.4-1.8,8.3-4.4,11.4-7.5c3.5-3.1,6.1-7,7.9-11.4
	c1.8-4.4,2.6-8.8,2.6-13.6l-35.1,0 M612.3,317.8c0,4.1,0.7,7.5,2.2,11.2c1.5,3.7,3.7,7.1,6.4,9.7c2.6,3,6,5.2,9.7,6.7
	c3.7,1.5,7.5,2.2,11.6,2.2v-29.9 M454.1,407.6c0-5.4,1.2-10.3,3.3-15.3c2.1-5,5-9.9,9.1-13.7c3.7-3.7,8.3-7,13.2-9.1
	c5-2.1,10.3-3.3,15.7-3.3v41.4"/>
<g id="Walls">
	<path class="st6" d="M502.6,353.5v26.9h0v27.2h-7.1V420H659l0-360h-12.4v253.7h-4.3v4.1h4.3v89.8h-76.5v-89.8h42.3v-4.1H515V123.5
		h-12.4l0,178.5h-13.9v16.6h13.9v4.2h4.1v-4.2h1.7v-0.8l57.6,0v89.8h-36.7v-15.1h-0.4h-3.7H515v-12.1h-8.3v-26.9H502.6z
		 M492.8,314.5v-8.3h9.8l0,8.3H492.8z M525.1,396.7v10.9H515v-10.9H525.1z"/>
	<rect x="383.8" y="60" class="st6" width="29" height="20.7"/>
	<polygon class="st6" points="81.7,233.8 218.3,233.8 218.3,242.1 222.4,242.1 222.4,233.8 234.8,233.8 234.8,229.7 81.7,229.7 
		81.7,184.1 85.8,184.1 85.8,155.2 61,155.2 61,271 81.7,271 	"/>
	<rect x="123.1" y="60" class="st6" width="29" height="24.8"/>
	<path class="st6" d="M416.9,344.8h-4.1v62.8H330V283.4h82.8v28.2h4.1v-32.4H222.4v-4.1h-4.1v8.3h29v49.7h4.1v-49.7h74.5v124.1
		l-60.5,0v-14.1h-13.9v-27.3h-4.1l0,27.3h0l0,14.1H85.8v-26.6h-4.1v-49.5H61l0,88.5l393.1,0v-12.4h-37.2V344.8z M251.4,397.7h9.8
		v9.9h-9.8V397.7z"/>
	<polygon class="st6" points="502.6,88.5 515,88.5 515,84.8 539,84.8 539,80.7 588.7,80.7 588.7,60 472.3,60 472.3,80.7 502.6,80.7 
			"/>
	<polygon class="st6" points="256.5,84.8 288.6,84.8 288.6,229.7 267.9,229.7 267.9,233.8 292.8,233.8 292.8,80.7 327.8,80.7 
		327.8,60 211,60 211,80.7 256.5,80.7 	"/>
</g>
<g id="Furniture">
	<g>
		<g>
			<rect x="101.5" y="323.9" class="st7" width="70.3" height="83.2"/>
			<path class="st8" d="M171.4,324.4l0,82.2l-69.3,0l0-82.2L171.4,324.4 M172.4,323.4l-71.3,0l0,84.2l71.3,0L172.4,323.4
				L172.4,323.4z"/>
		</g>
		<rect x="138.4" y="380.8" class="st9" width="27.8" height="20.8"/>
		<rect x="107.1" y="380.8" class="st9" width="27.8" height="20.8"/>
		
			<rect x="139.7" y="371.5" transform="matrix(0.9659 -0.2588 0.2588 0.9659 -93.7286 51.8615)" class="st10" width="20.8" height="20.8"/>
		
			<rect x="112.7" y="371.5" transform="matrix(0.2588 -0.9659 0.9659 0.2588 -277.6152 402.0249)" class="st10" width="20.8" height="20.8"/>
		<g>
			<polygon class="st7" points="101.5,389.5 101.5,323.1 171.8,323.1 171.8,385.1 129.6,391.3 			"/>
			<path class="st8" d="M171.3,323.6l0,61.1l-41.8,6.1l-27.5-1.7v-0.4l0-65.1L171.3,323.6 M172.3,322.6l-71.3,0l0,66.1v1.3l28.5,1.8
				l42.8-6.2v-0.4L172.3,322.6L172.3,322.6z"/>
		</g>
		<polyline class="st11" points="102,387.8 129.8,387.8 171.6,384.4 		"/>
	</g>
	<g>
		<g>
			<rect x="156.9" y="141.9" class="st7" width="53.5" height="87.3"/>
			<path class="st8" d="M210,142.4v86.3l-52.5,0l0-86.3H210 M211,141.4h-54.5l0,88.3l54.5,0V141.4L211,141.4z"/>
		</g>
		<rect x="185" y="201.5" class="st9" width="21.3" height="21.8"/>
		<rect x="161.1" y="201.5" class="st9" width="21.3" height="21.8"/>
		<polygon class="st10" points="203.7,210.4 188.3,216.1 184.2,195 199.6,189.3 		"/>
		<polygon class="st10" points="183.1,195 179,216.1 163.6,210.4 167.7,189.3 		"/>
		<g>
			<polygon class="st7" points="156.9,210.7 156.9,141 210.5,141 210.5,206.1 178.2,212.5 			"/>
			<path class="st8" d="M210,141.5l0,64.2l-31.8,6.3l-20.8-1.8v-0.5l0-68.2L210,141.5 M211,140.5l-54.5,0l0,69.2v1.4l21.8,1.9
				l32.7-6.5v-0.5L211,140.5L211,140.5z"/>
		</g>
		<polyline class="st11" points="157.2,208.9 178.5,208.9 210.4,205.3 		"/>
	</g>
	<g>
		<g>
			<rect x="515.5" y="170.4" class="st7" width="81.3" height="64.8"/>
			<path class="st8" d="M596.2,170.9v63.8l-80.3,0v-63.8L596.2,170.9 M597.2,169.9l-82.3,0v65.8l82.3,0V169.9L597.2,169.9z"/>
		</g>
		<rect x="520.8" y="204.4" class="st9" width="20.3" height="25.7"/>
		<rect x="520.8" y="175.5" class="st9" width="20.3" height="25.7"/>
		<polygon class="st10" points="532.9,226.9 527.6,208.4 547.3,203.4 552.5,222 		"/>
		<polygon class="st10" points="547.3,202.1 527.6,197.1 532.9,178.5 552.5,183.5 		"/>
		<g>
			<polygon class="st7" points="536.9,235.2 531,196.2 532.7,170.4 597.5,170.4 597.5,235.2 			"/>
			<path class="st8" d="M597,170.9v63.8l-59.6,0l-5.9-38.5l1.7-25.3h0.4H597 M598,169.9h-64.5h-1.3l-1.7,26.3l6.1,39.5h0.4l61.1,0
				V169.9L598,169.9z"/>
		</g>
		<polyline class="st11" points="534.3,170.8 534.3,196.5 537.7,235 		"/>
	</g>
	<g>
		<g>
			<rect x="544.6" y="318.3" class="st7" width="1.8" height="74.7"/>
			<path class="st8" d="M545.1,318.8h0.8l0,73.7h-0.8V318.8 M544.1,317.8v75.7h2.8l0-75.7H544.1L544.1,317.8z"/>
		</g>
		<g>
			<rect x="546.4" y="318.3" class="st7" width="19" height="74.7"/>
			<path class="st8" d="M564.9,318.8l0,73.7h-18v-73.7H564.9 M565.9,317.8h-20v75.7h20L565.9,317.8L565.9,317.8z"/>
		</g>
		<path class="st9" d="M565.2,392.7l-18.8-74.3"/>
	</g>
	<g>
		<g>
			<rect x="515.5" y="292.4" class="st7" width="94.7" height="1.8"/>
			<path class="st8" d="M516,292.9h93.7v0.8H516V292.9 M515,291.9v2.8h95.7v-2.8H515L515,291.9z"/>
		</g>
		<g>
			<rect x="515.5" y="294.2" class="st7" width="94.7" height="19"/>
			<path class="st8" d="M609.7,294.7v18H516v-18H609.7 M610.7,293.7H515v20h95.7V293.7L610.7,293.7z"/>
		</g>
		<path class="st9" d="M516,313l93.9-18.8"/>
	</g>
	<g>
		<g>
			<rect x="439.9" y="362.4" class="st7" width="1.8" height="44.7"/>
			<path class="st8" d="M441.3,362.9v43.7h-0.8l0-43.7H441.3 M442.3,361.9h-2.8l0,45.7h2.8V361.9L442.3,361.9z"/>
		</g>
		<g>
			<rect x="417.4" y="362.4" class="st7" width="22.5" height="44.7"/>
			<path class="st8" d="M439.4,362.9l0,43.7h-21.5l0-43.7H439.4 M440.4,361.9h-23.5l0,45.7h23.5L440.4,361.9L440.4,361.9z"/>
		</g>
		<path class="st9" d="M417.7,363l22,43.6"/>
	</g>
	<g>
		<g>
			<rect x="263.7" y="85.3" class="st7" width="1.8" height="79.9"/>
			<path class="st8" d="M265.1,85.8l0,78.9h-0.8l0-78.9H265.1 M266.1,84.8h-2.8l0,80.9h2.8L266.1,84.8L266.1,84.8z"/>
		</g>
		<g>
			<rect x="265.6" y="85.3" class="st7" width="22.5" height="79.9"/>
			<path class="st8" d="M266.1,85.8l21.5,0l0,78.9l-21.5,0L266.1,85.8 M265.1,84.8l0,80.9l23.5,0l0-80.9L265.1,84.8L265.1,84.8z"/>
		</g>
		<path class="st9" d="M287.8,165.3l-22-80.4"/>
	</g>
	<g>
		<g>
			<rect x="222.4" y="370.3" class="st7" width="1.8" height="36.9"/>
			<path class="st8" d="M223.7,370.8l0,35.9h-0.8l0-35.9H223.7 M224.7,369.8h-2.8l0,37.9h2.8L224.7,369.8L224.7,369.8z"/>
		</g>
		<g>
			<rect x="224.2" y="370.3" class="st7" width="22.5" height="36.9"/>
			<path class="st8" d="M224.7,370.8l21.5,0l0,35.9h-21.5L224.7,370.8 M223.7,369.8l0,37.9h23.5l0-37.9L223.7,369.8L223.7,369.8z"/>
		</g>
		<path class="st9" d="M246.5,406.7l-22-36.1"/>
	</g>
	<g>
		<g>
			<rect x="222.3" y="284" class="st7" width="1.8" height="47.7"/>
			<path class="st8" d="M223.7,284.5l0,46.7h-0.8l0-46.7H223.7 M224.7,283.5h-2.8l0,48.7h2.8L224.7,283.5L224.7,283.5z"/>
		</g>
		<g>
			<rect x="224.2" y="284" class="st7" width="22.5" height="47.7"/>
			<path class="st8" d="M224.7,284.5h21.5l0,46.7l-21.5,0L224.7,284.5 M223.7,283.5l0,48.7l23.5,0l0-48.7H223.7L223.7,283.5z"/>
		</g>
		<path class="st9" d="M246.5,331l-22-46.5"/>
	</g>
	<g>
		<g>
			<rect x="251.8" y="283.8" class="st7" width="73.6" height="30"/>
			<path class="st8" d="M252.3,284.3l72.6,0l0,29l-72.6,0L252.3,284.3 M251.3,283.3l0,31l74.6,0l0-31L251.3,283.3L251.3,283.3z"/>
		</g>
		<g>
			<g>
				<path class="st12" d="M319,298.8c0-5.7-4.9-10.1-10.5-9.6c-6.2,0.6-14,1.1-19.9,1.1c-5.8,0-13.6-0.6-19.9-1.1
					c-5.7-0.5-10.5,4-10.5,9.6c0,5.7,4.9,10.1,10.5,9.6c6.2-0.6,14-1.1,19.9-1.1c5.8,0,13.6,0.6,19.9,1.1
					C314,308.9,319,304.4,319,298.8z"/>
				<ellipse class="st12" cx="309.1" cy="298.8" rx="1.3" ry="1.3"/>
			</g>
		</g>
	</g>
	<g>
		<g>
			<rect x="330.5" y="326.8" class="st7" width="17.4" height="25.9"/>
			<path class="st8" d="M347.4,327.3l0,24.9H331v-24.9H347.4 M348.4,326.3H330v26.9h18.4L348.4,326.3L348.4,326.3z"/>
		</g>
		<g>
			<path class="st7" d="M339.2,345.3c-3,0-5.5-2.5-5.5-5.5c0-3,2.5-5.5,5.5-5.5c3,0,5.5,2.5,5.5,5.5
				C344.7,342.8,342.2,345.3,339.2,345.3z"/>
			<path class="st8" d="M339.2,334.8c2.8,0,5,2.2,5,5s-2.2,5-5,5c-2.8,0-5-2.2-5-5S336.4,334.8,339.2,334.8 M339.2,333.8
				c-3.3,0-6,2.7-6,6s2.7,6,6,6s6-2.7,6-6S342.5,333.8,339.2,333.8L339.2,333.8z"/>
		</g>
	</g>
	<g>
		<path class="st9" d="M370.5,197.5v-55.1h40.1v55.1H370.5z"/>
		<path class="st9" d="M380.5,139v-0.8c0-5.5,4.5-10,10-10c5.5,0,10,4.5,10,10v0.8H380.5z"/>
		<path class="st9" d="M382.2,142.3v-4.2c0-4.6,3.7-8.4,8.4-8.4c4.6,0,8.4,3.7,8.4,8.4v4.2H382.2z"/>
		<path class="st9" d="M380.5,200.8v0.8c0,5.5,4.5,10,10,10c5.5,0,10-4.5,10-10v-0.8H380.5z"/>
		<path class="st9" d="M382.2,197.5v4.2c0,4.6,3.7,8.4,8.4,8.4c4.6,0,8.4-3.7,8.4-8.4v-4.2H382.2z"/>
		<path class="st9" d="M367.1,159.9h-0.8c-5.5,0-10,4.5-10,10c0,5.5,4.5,10,10,10h0.8V159.9z"/>
		<path class="st9" d="M370.5,161.6h-4.2c-4.6,0-8.4,3.7-8.4,8.4c0,4.6,3.7,8.4,8.4,8.4h4.2V161.6z"/>
		<path class="st9" d="M413.9,159.9h0.8c5.5,0,10,4.5,10,10c0,5.5-4.5,10-10,10h-0.8V159.9z"/>
		<path class="st9" d="M410.6,161.6h4.2c4.6,0,8.4,3.7,8.4,8.4c0,4.6-3.7,8.4-8.4,8.4h-4.2V161.6z"/>
	</g>
	<g>
		<path class="st9" d="M117.2,112.3l0,20.4l-18.5,2.7l0-25.9L117.2,112.3z"/>
		<g>
			<rect x="70.3" y="69.3" class="st7" width="30.5" height="85.6"/>
			<path class="st8" d="M100.2,69.8l0,84.6l-29.5,0l0-84.6L100.2,69.8 M101.2,68.8l-31.5,0l0,86.6l31.5,0L101.2,68.8L101.2,68.8z"/>
		</g>
		<path class="st11" d="M91.8,114.6l0,15.7 M95.5,113.2l0,18.5l-5.6,0l0-18.5L95.5,113.2z"/>
		<path class="st13" d="M95.8,106.7L95.8,106.7c0,0.8-0.6,1.4-1.4,1.4l-1.9,0c-0.8,0-1.4-0.6-1.4-1.4l0,0c0-0.8,0.6-1.4,1.4-1.4
			l1.9,0C95.2,105.3,95.8,105.9,95.8,106.7z"/>
		<path class="st9" d="M81,117.9c2.6,0,4.6,2.1,4.6,4.6c0,2.6-2.1,4.6-4.6,4.6l-4.6,0l0-9.3L81,117.9z"/>
		<g>
			<rect x="74.2" y="98.3" class="st7" width="2.2" height="48.4"/>
			<path class="st8" d="M75.9,98.8v47.4h-1.2V98.8H75.9 M76.9,97.8h-3.2v49.4h3.2V97.8L76.9,97.8z"/>
		</g>
		<g>
			<rect x="100.9" y="112.5" class="st7" width="16.9" height="20"/>
			<path class="st8" d="M117.3,113v19h-15.9v-19H117.3 M118.3,112h-17.9v21h17.9V112L118.3,112z"/>
		</g>
		<g>
			<rect x="117.8" y="112.3" class="st7" width="1.8" height="20.4"/>
			<path class="st8" d="M119.1,112.8v19.4h-0.8v-19.4H119.1 M120.1,111.8h-2.8v21.4h2.8V111.8L120.1,111.8z"/>
		</g>
	</g>
	<g>
		<path class="st9" d="M626.9,112l-18.6,0l-2.5-16.9l23.6,0L626.9,112z"/>
		<g>
			<rect x="589.2" y="69.3" class="st7" width="56.9" height="27.7"/>
			<path class="st8" d="M645.6,69.8v26.7l-55.9,0V69.8L645.6,69.8 M646.6,68.8l-57.9,0v28.7l57.9,0V68.8L646.6,68.8z"/>
		</g>
		<path class="st11" d="M624.8,88.9l-14.3,0 M626.1,92.3l-16.9,0l0-5.1l16.9,0L626.1,92.3z"/>
		<path class="st13" d="M633.2,92.3L633.2,92.3c-0.7,0-1.3-0.6-1.3-1.3l0-1.7c0-0.7,0.6-1.3,1.3-1.3l0,0c0.7,0,1.3,0.6,1.3,1.3
			l0,1.7C634.4,91.7,633.9,92.3,633.2,92.3z"/>
		<path class="st9" d="M621.8,79c0,2.3-1.9,4.2-4.2,4.2c-2.3,0-4.2-1.9-4.2-4.2l0-4.2l8.4,0L621.8,79z"/>
		<g>
			<rect x="595.6" y="72.9" class="st7" width="44" height="1.8"/>
			<path class="st8" d="M639.1,73.4v0.8h-43v-0.8H639.1 M640.1,72.4h-45v2.8h45V72.4L640.1,72.4z"/>
		</g>
		<g>
			<rect x="608.6" y="97.2" class="st7" width="18.2" height="15.3"/>
			<path class="st8" d="M626.2,97.7V112h-17.2V97.7H626.2 M627.2,96.7h-19.2V113h19.2V96.7L627.2,96.7z"/>
		</g>
		<g>
			<rect x="608.4" y="112.5" class="st7" width="18.5" height="1.8"/>
			<path class="st8" d="M626.4,113v0.8h-17.5V113H626.4 M627.4,112h-19.5v2.8h19.5V112L627.4,112z"/>
		</g>
	</g>
	<g id="Sink_2">
		<g id="Rectangle_16_x5F_11">
			<rect x="330.5" y="283.9" class="st7" width="19" height="43"/>
			<path class="st8" d="M349,284.4v42h-18v-42H349 M350,283.4h-20v44h20V283.4L350,283.4z"/>
		</g>
		<path id="Rectangle_19_x5F_5" class="st9" d="M340,316L340,316c3.4,0,6.1-2.7,6.1-6.1v-8.8c0-3.4-2.7-6.1-6.1-6.1l0,0
			c-3.4,0-6.1,2.7-6.1,6.1v8.8C333.9,313.2,336.6,316,340,316z"/>
		<circle id="Ellipse_7_x5F_2" class="st9" cx="337.3" cy="305.4" r="1.3"/>
	</g>
	<g id="Sink_2_2_">
		<g id="Rectangle_16_x5F_11_2_">
			<rect x="581.5" y="388" class="st7" width="32.3" height="19"/>
			<path class="st8" d="M582,388.5l31.3,0v18l-31.3,0L582,388.5 M581,387.5l0,20l33.3,0v-20L581,387.5L581,387.5z"/>
		</g>
		<path id="Rectangle_19_x5F_5_2_" class="st9" d="M587.1,397.6L587.1,397.6c0-3.4,2.7-6.1,6.1-6.1h8.8c3.4,0,6.1,2.7,6.1,6.1l0,0
			c0,3.4-2.7,6.1-6.1,6.1h-8.8C589.8,403.7,587.1,401,587.1,397.6z"/>
		<circle id="Ellipse_7_x5F_2_2_" class="st9" cx="597.6" cy="400.3" r="1.3"/>
	</g>
	<g id="Rectangle_16_x5F_11_1_">
		<rect x="306.3" y="313.7" class="st7" width="19" height="83.2"/>
		<path class="st8" d="M324.9,314.2l0,82.2l-18,0l0-82.2L324.9,314.2 M325.9,313.2l-20,0l0,84.2l20,0L325.9,313.2L325.9,313.2z"/>
	</g>
	<g>
		<rect x="306.3" y="325.2" class="st7" width="19" height="29.2"/>
		<path class="st8" d="M324.9,325.7v28.2h-18v-28.2H324.9 M325.9,324.7h-20v30.2h20V324.7L325.9,324.7z"/>
	</g>
	<path id="Rectangle_19_x5F_5_1_" class="st9" d="M315.8,329.3L315.8,329.3c-3.4,0-6.1,2.7-6.1,6.1v8.8c0,3.4,2.7,6.1,6.1,6.1l0,0
		c3.4,0,6.1-2.7,6.1-6.1v-8.8C322,332,319.2,329.3,315.8,329.3z"/>
	<circle id="Ellipse_7_x5F_2_1_" class="st9" cx="318.6" cy="339.8" r="1.3"/>
	<g id="Toilet_1_">
		<g id="Rectangle_21_1_">
			<rect x="388.6" y="391.5" class="st7" width="16.1" height="5.3"/>
			<path class="st8" d="M404.2,392v4.3h-15.1V392H404.2 M405.2,391h-17.1v6.3h17.1V391L405.2,391z"/>
		</g>
		<path id="Rectangle_19_x5F_2_1_" class="st9" d="M402.7,380.2c0.2-3.5-2.6-6.5-6.1-6.5l0,0c-3.5,0-6.3,3-6.1,6.5l0.8,11.3H402
			L402.7,380.2z"/>
		<path id="Rectangle_18_x5F_13_1_" class="st9" d="M401.1,380.4c0.2-2.6-1.8-4.9-4.5-4.9l0,0c-2.6,0-4.7,2.3-4.5,4.9l0.6,7.1l7.7,0
			L401.1,380.4z"/>
		<ellipse id="Ellipse_6_x5F_2_1_" class="st9" cx="396.6" cy="384.4" rx="1.3" ry="1.3"/>
	</g>
	<g id="Toilet_3_">
		<g id="Rectangle_21_3_">
			<rect x="581.4" y="330.8" class="st7" width="7" height="16.1"/>
			<path class="st8" d="M588,331.3l0,15.1h-6v-15.1L588,331.3 M589,330.3l-8,0v17.1h8L589,330.3L589,330.3z"/>
		</g>
		<path id="Rectangle_19_x5F_2_3_" class="st9" d="M599.8,345c3.5,0.2,6.5-2.6,6.5-6.1l0,0c0-3.5-3-6.3-6.5-6.1l-11.3,0.8v10.7
			L599.8,345z"/>
		<path id="Rectangle_18_x5F_13_3_" class="st9" d="M599.6,343.4c2.6,0.2,4.9-1.8,4.9-4.5l0,0c0-2.6-2.3-4.7-4.9-4.5l-7.1,0.6l0,7.7
			L599.6,343.4z"/>
		<ellipse id="Ellipse_6_x5F_2_3_" class="st9" cx="595.6" cy="338.9" rx="1.3" ry="1.3"/>
	</g>
	<g id="Toilet_2_">
		<g id="Rectangle_21_2_">
			<rect x="280.5" y="391.5" class="st7" width="16.1" height="5.3"/>
			<path class="st8" d="M296.1,392v4.3H281V392H296.1 M297.1,391H280v6.3h17.1V391L297.1,391z"/>
		</g>
		<path id="Rectangle_19_x5F_2_2_" class="st9" d="M294.7,380.2c0.2-3.5-2.6-6.5-6.1-6.5l0,0c-3.5,0-6.3,3-6.1,6.5l0.8,11.3h10.7
			L294.7,380.2z"/>
		<path id="Rectangle_18_x5F_13_2_" class="st9" d="M293.1,380.4c0.2-2.6-1.8-4.9-4.5-4.9l0,0c-2.6,0-4.7,2.3-4.5,4.9l0.6,7.1l7.7,0
			L293.1,380.4z"/>
		<ellipse id="Ellipse_6_x5F_2_2_" class="st9" cx="288.6" cy="384.4" rx="1.3" ry="1.3"/>
	</g>
	<g id="TV">
		<g id="Rectangle_16">
			<rect x="317.2" y="265.1" class="st7" width="62.7" height="2.2"/>
			<path class="st8" d="M379.5,265.6v1.2h-61.7v-1.2H379.5 M380.5,264.6h-63.7v3.2h63.7V264.6L380.5,264.6z"/>
		</g>
		<g id="Rectangle_15">
			<rect x="317.2" y="267.2" class="st7" width="62.7" height="11.7"/>
			<path class="st8" d="M379.5,267.7v10.7h-61.7v-10.7H379.5 M380.5,266.7h-63.7v12.7h63.7V266.7L380.5,266.7z"/>
		</g>
		<g id="Rectangle_17">
			<rect x="327.9" y="274.4" class="st7" width="41.4" height="2.2"/>
			<path class="st8" d="M368.8,274.9v1.2h-40.4v-1.2H368.8 M369.8,273.9h-42.4v3.2h42.4V273.9L369.8,273.9z"/>
		</g>
		<path id="Rectangle_18_x5F_2" class="st9" d="M339.7,277.1h17.9l-1.6,1.8h-14.7L339.7,277.1z"/>
	</g>
	<g id="TV_2_">
		<g id="Rectangle_16_2_">
			<rect x="632.2" y="170.7" class="st7" width="2.2" height="62.7"/>
			<path class="st8" d="M633.9,171.2v61.7h-1.2v-61.7H633.9 M634.9,170.2h-3.2v63.7h3.2V170.2L634.9,170.2z"/>
		</g>
		<g id="Rectangle_15_2_">
			<rect x="634.3" y="170.7" class="st7" width="11.7" height="62.7"/>
			<path class="st8" d="M645.6,171.2v61.7h-10.7v-61.7H645.6 M646.6,170.2h-12.7v63.7h12.7V170.2L646.6,170.2z"/>
		</g>
		<g id="Rectangle_17_2_">
			<rect x="641.5" y="181.4" class="st7" width="2.2" height="41.4"/>
			<path class="st8" d="M643.2,181.9v40.4H642v-40.4H643.2 M644.2,180.9H641v42.4h3.2V180.9L644.2,180.9z"/>
		</g>
		<path id="Rectangle_18_x5F_2_2_" class="st9" d="M644.2,211v-17.9l1.8,1.6v14.7L644.2,211z"/>
	</g>
	<g id="TV_1_">
		<g id="Rectangle_16_1_">
			<rect x="102.9" y="246" class="st7" width="62.7" height="1.8"/>
			<path class="st8" d="M165.1,246.5v0.8h-61.7v-0.8H165.1 M166.1,245.5h-63.7v2.8h63.7V245.5L166.1,245.5z"/>
		</g>
		<g id="Rectangle_15_1_">
			<rect x="102.9" y="234.3" class="st7" width="62.7" height="11.7"/>
			<path class="st8" d="M165.1,234.8v10.7h-61.7v-10.7H165.1 M166.1,233.8h-63.7v12.7h63.7V233.8L166.1,233.8z"/>
		</g>
		<g id="Rectangle_17_1_">
			<rect x="113.6" y="236.7" class="st7" width="41.4" height="1.8"/>
			<path class="st8" d="M154.4,237.2v0.8h-40.4v-0.8H154.4 M155.4,236.2h-42.4v2.8h42.4V236.2L155.4,236.2z"/>
		</g>
		<path id="Rectangle_18_x5F_2_1_" class="st9" d="M143.2,236.1h-17.9l1.6-1.8h14.7L143.2,236.1z"/>
	</g>
	<g id="Kitchen">
		<g id="Rectangle_24">
			<rect x="476.9" y="226" class="st7" width="25.2" height="75.6"/>
			<path class="st8" d="M501.6,226.5V301h-24.2v-74.6H501.6 M502.6,225.5h-26.2V302h26.2V225.5L502.6,225.5z"/>
		</g>
		<g id="Rectangle_26">
			<rect x="476.9" y="135.7" class="st7" width="25.2" height="165.8"/>
			<path class="st8" d="M501.6,136.2l0,164.8l-24.2,0l0-164.8H501.6 M502.6,135.2h-26.2l0,166.8l26.2,0L502.6,135.2L502.6,135.2z"/>
		</g>
		<g id="Sink_3">
			<rect id="Rectangle_28_x5F_2" x="479.6" y="267.9" class="st9" width="19.6" height="29.3"/>
			<path id="Rectangle_29_x5F_2" class="st9" d="M489.5,285.7L489.5,285.7c4.1,0,7.4-3.1,7.4-6.9v-1.5c0-3.8-3.3-6.9-7.4-6.9h0
				c-4.1,0-7.4,3.1-7.4,6.9v1.5C482.1,282.6,485.4,285.7,489.5,285.7z"/>
			<ellipse id="Ellipse_7_x5F_3" class="st9" cx="493.5" cy="278" rx="1.3" ry="1.2"/>
			<path id="Vector_2" class="st11" d="M482.1,295.7V288 M484.5,295.7V288 M487,295.7V288 M489.5,295.7V288 M491.9,295.7V288
				 M494.4,295.7V288 M496.8,295.7V288"/>
		</g>
		<g id="Stove">
			<g id="Rectangle_25">
				<rect x="476.9" y="203.9" class="st7" width="25.2" height="23"/>
				<path class="st8" d="M501.6,204.4v22h-24.2v-22L501.6,204.4 M502.6,203.4l-26.2,0v24h26.2V203.4L502.6,203.4z"/>
			</g>
			<g id="Ellipse_7_x5F_4">
				<path class="st7" d="M484.5,223.8c-1.5,0-2.8-1.2-2.8-2.6s1.2-2.6,2.8-2.6s2.8,1.2,2.8,2.6S486.1,223.8,484.5,223.8z"/>
				<path class="st8" d="M484.5,219.2c1.3,0,2.3,0.9,2.3,2.1s-1,2.1-2.3,2.1c-1.3,0-2.3-0.9-2.3-2.1S483.3,219.2,484.5,219.2
					 M484.5,218.2c-1.8,0-3.3,1.4-3.3,3.1c0,1.7,1.5,3.1,3.3,3.1c1.8,0,3.3-1.4,3.3-3.1C487.8,219.5,486.4,218.2,484.5,218.2
					L484.5,218.2z"/>
			</g>
			<g id="Ellipse_9">
				<path class="st7" d="M494.4,224.6c-2,0-3.6-1.5-3.6-3.4c0-1.8,1.6-3.4,3.6-3.4s3.6,1.5,3.6,3.4
					C498,223.1,496.4,224.6,494.4,224.6z"/>
				<path class="st8" d="M494.4,218.4c1.7,0,3.1,1.3,3.1,2.9s-1.4,2.9-3.1,2.9s-3.1-1.3-3.1-2.9S492.7,218.4,494.4,218.4
					 M494.4,217.4c-2.3,0-4.1,1.7-4.1,3.9s1.8,3.9,4.1,3.9c2.3,0,4.1-1.7,4.1-3.9S496.6,217.4,494.4,217.4L494.4,217.4z"/>
			</g>
			<g id="Ellipse_10">
				<path class="st7" d="M484.5,213.8c-2,0-3.6-1.5-3.6-3.4c0-1.8,1.6-3.4,3.6-3.4s3.6,1.5,3.6,3.4
					C488.1,212.3,486.5,213.8,484.5,213.8z"/>
				<path class="st8" d="M484.5,207.6c1.7,0,3.1,1.3,3.1,2.9s-1.4,2.9-3.1,2.9c-1.7,0-3.1-1.3-3.1-2.9S482.8,207.6,484.5,207.6
					 M484.5,206.6c-2.3,0-4.1,1.7-4.1,3.9c0,2.1,1.8,3.9,4.1,3.9c2.3,0,4.1-1.7,4.1-3.9C488.6,208.3,486.8,206.6,484.5,206.6
					L484.5,206.6z"/>
			</g>
			<g id="Ellipse_8">
				<path class="st7" d="M495.2,213c-1.5,0-2.8-1.2-2.8-2.6s1.2-2.6,2.8-2.6s2.8,1.2,2.8,2.6S496.7,213,495.2,213z"/>
				<path class="st8" d="M495.2,208.4c1.3,0,2.3,0.9,2.3,2.1c0,1.1-1,2.1-2.3,2.1s-2.3-0.9-2.3-2.1
					C492.9,209.3,493.9,208.4,495.2,208.4 M495.2,207.4c-1.8,0-3.3,1.4-3.3,3.1c0,1.7,1.5,3.1,3.3,3.1c1.8,0,3.3-1.4,3.3-3.1
					C498.5,208.7,497,207.4,495.2,207.4L495.2,207.4z"/>
			</g>
		</g>
	</g>
	<g>
		<g id="Oven">
			<g id="Rectangle_28">
				<rect x="475.1" y="160.9" class="st7" width="1.8" height="36.8"/>
				<path class="st8" d="M476.4,161.4v35.8l-0.8,0v-35.8H476.4 M477.4,160.4h-2.8v37.8l2.8,0V160.4L477.4,160.4z"/>
			</g>
			<g id="Rectangle_29">
				<rect x="476.9" y="160.9" class="st7" width="25.1" height="36.8"/>
				<path class="st8" d="M501.6,161.4v35.8l-24.1,0l0-35.8H501.6 M502.6,160.4h-26.1l0,37.8l26.1,0V160.4L502.6,160.4z"/>
			</g>
		</g>
		<g id="Rectangle_27">
			<rect x="476.9" y="135.7" class="st7" width="25.1" height="25.1"/>
			<path class="st8" d="M501.6,136.2v24.1h-24.1v-24.1H501.6 M502.6,135.2h-26.1v26.1h26.1V135.2L502.6,135.2z"/>
		</g>
		<path id="Vector_3" class="st11" d="M490.3,145v6.5 M493.2,146.6l-5.7,3.3 M487.5,146.6l5.7,3.3"/>
		<g id="Rectangle_28_1_">
			<rect x="476.9" y="135.7" class="st7" width="1.8" height="25.1"/>
			<path class="st8" d="M477.4,136.2l0.8,0v24.1h-0.8V136.2 M476.4,135.2v26.1h2.8v-26.1L476.4,135.2L476.4,135.2z"/>
		</g>
	</g>
	<g>
		<path class="st9" d="M347.9,120.6c1.2,0,2.1-0.9,2.1-2.1V97.3h-48.5v23.3H347.9z"/>
		<path class="st9" d="M322.8,158.2c1.2,0,2.1-1,2.1-2.2v-33.2c0-1.2-0.9-2.2-2.1-2.2h-21.3v37.6H322.8z"/>
		<path class="st9" d="M322.8,194.4c1.2,0,2.1-1,2.1-2.1v-31.9c0-1.2-0.9-2.1-2.1-2.1h-21.3v36.2H322.8z"/>
		<path class="st9" d="M326.7,194.4v7.9h-33.4V88.7h65.1v33.6H350V97.3h-48.5v97.1H326.7z"/>
	</g>
	<g id="Shower">
		<path id="Rectangle_22" class="st9" d="M330.6,361.8v34.9h34.9v-24c0-6-4.9-10.8-10.8-10.8H330.6z"/>
		<path id="Rectangle_22_1_" class="st9" d="M332.3,363.6v31.4h31.4v-21.6c0-5.4-4.4-9.8-9.8-9.8H332.3z"/>
		<ellipse id="Ellipse_6_x5F_4" class="st9" cx="339.5" cy="387.7" rx="1.3" ry="1.3"/>
	</g>
	<g id="Shower_1_">
		<path id="Rectangle_22_3_" class="st9" d="M646.1,374.8v32.3h-32.3v-22.3c0-5.5,4.5-10,10-10H646.1z"/>
		<path id="Rectangle_22_2_" class="st9" d="M644.4,376.4v29.1h-29.1v-20c0-5,4-9,9-9H644.4z"/>
		<ellipse id="Ellipse_6_x5F_4_1_" class="st9" cx="637.8" cy="398.8" rx="1.2" ry="1.2"/>
	</g>
	<g>
		<rect x="265.8" y="396.8" class="st7" width="59.5" height="10.3"/>
		<path class="st8" d="M324.9,397.3v9.3h-58.5v-9.3H324.9 M325.9,396.3h-60.5v11.3h60.5V396.3L325.9,396.3z"/>
	</g>
	<g>
		<rect x="330.5" y="396.8" class="st7" width="81.8" height="10.3"/>
		<path class="st8" d="M411.7,397.3v9.3H331v-9.3H411.7 M412.7,396.3H330v11.3h82.8V396.3L412.7,396.3z"/>
	</g>
	<g>
		<rect x="529.7" y="393" class="st7" width="35.7" height="14.1"/>
		<path class="st8" d="M564.9,393.5v13.1h-34.7v-13.1H564.9 M565.9,392.5h-36.7v15.1h36.7V392.5L565.9,392.5z"/>
	</g>
	<g>
		<rect x="570.6" y="318.3" class="st7" width="10.9" height="88.8"/>
		<path class="st8" d="M581,318.8v87.8h-9.9v-87.8H581 M582,317.8h-11.9v89.8H582V317.8L582,317.8z"/>
	</g>
</g>
<g id="Numbers_1_">
	<g>
		<path class="st6" d="M126.1,287.1l1.9-1.6h0.8v6.7h-1v-5.3l-1.2,0.9L126.1,287.1z"/>
		<path class="st6" d="M133.9,289.6h0.7v0.9h-0.7v1.6h-1v-1.6h-3l-0.2-0.6l3.6-4.4h0.7V289.6z M133,287.2l-2,2.4h2V287.2z"/>
		<path class="st6" d="M136.1,292.3c-0.2,0-0.3-0.1-0.5-0.2c-0.1-0.1-0.2-0.3-0.2-0.5c0-0.2,0.1-0.3,0.2-0.4
			c0.1-0.1,0.3-0.2,0.5-0.2c0.2,0,0.3,0.1,0.4,0.2c0.1,0.1,0.2,0.3,0.2,0.4c0,0.2-0.1,0.3-0.2,0.5
			C136.4,292.2,136.3,292.3,136.1,292.3z"/>
		<path class="st6" d="M136.8,287.1l1.9-1.6h0.8v6.7h-1v-5.3l-1.2,0.9L136.8,287.1z"/>
	</g>
	<g>
		<path class="st6" d="M174,116.2l1.9-1.6h0.8v6.7h-1V116l-1.2,0.9L174,116.2z"/>
		<path class="st6" d="M177.8,115.5v-0.9h4.2v0.7l-2.5,6h-1.1l2.5-5.7H177.8z"/>
		<path class="st6" d="M182.6,121.4c-0.2,0-0.3-0.1-0.5-0.2c-0.1-0.1-0.2-0.3-0.2-0.5c0-0.2,0.1-0.3,0.2-0.4
			c0.1-0.1,0.3-0.2,0.5-0.2c0.2,0,0.3,0.1,0.4,0.2c0.1,0.1,0.2,0.3,0.2,0.4c0,0.2-0.1,0.3-0.2,0.5
			C182.9,121.3,182.8,121.4,182.6,121.4z"/>
		<path class="st6" d="M183.2,116.2l1.9-1.6h0.8v6.7h-1V116l-1.2,0.9L183.2,116.2z"/>
	</g>
	<g>
		<path class="st6" d="M573.2,148.2l1.9-1.6h0.8v6.7h-1V148l-1.2,0.9L573.2,148.2z"/>
		<path class="st6" d="M579.8,149c0.6,0,1.1,0.2,1.5,0.6c0.4,0.4,0.6,0.9,0.6,1.5c0,0.6-0.2,1.2-0.7,1.6c-0.4,0.4-1,0.6-1.7,0.6
			c-0.8,0-1.4-0.3-1.8-0.9c-0.4-0.6-0.6-1.4-0.6-2.3c0-0.6,0.1-1.2,0.3-1.8s0.5-1,0.9-1.3c0.4-0.4,1-0.5,1.6-0.5
			c0.7,0,1.3,0.2,1.7,0.6l-0.4,0.8c-0.4-0.3-0.8-0.4-1.2-0.4c-0.4,0-0.7,0.1-1,0.4c-0.5,0.5-0.8,1.2-0.8,2.1
			c0.2-0.3,0.4-0.5,0.7-0.7S579.4,149,579.8,149z M579.6,152.4c0.4,0,0.7-0.1,0.9-0.4c0.2-0.3,0.4-0.6,0.4-0.9
			c0-0.4-0.1-0.7-0.4-0.9c-0.2-0.2-0.5-0.4-0.9-0.4c-0.4,0-0.7,0.1-0.9,0.4c-0.2,0.2-0.4,0.6-0.4,0.9c0,0.4,0.1,0.7,0.4,0.9
			C579,152.3,579.3,152.4,579.6,152.4z"/>
		<path class="st6" d="M583.4,153.4c-0.2,0-0.3-0.1-0.5-0.2c-0.1-0.1-0.2-0.3-0.2-0.5c0-0.2,0.1-0.3,0.2-0.4
			c0.1-0.1,0.3-0.2,0.5-0.2c0.2,0,0.3,0.1,0.4,0.2c0.1,0.1,0.2,0.3,0.2,0.4c0,0.2-0.1,0.3-0.2,0.5
			C583.7,153.4,583.5,153.4,583.4,153.4z"/>
		<path class="st6" d="M584.4,147.6v-0.9h4.2v0.7l-2.5,6h-1.1l2.5-5.7H584.4z"/>
	</g>
	<g>
		<path class="st6" d="M409.5,237.3l-1.6,1.8h2.7v1h-4.2v-0.9l2.1-2.3l0.5-0.6c0.1-0.1,0.2-0.3,0.3-0.5c0.1-0.2,0.1-0.4,0.1-0.6
			c0-0.3-0.1-0.5-0.3-0.7c-0.2-0.2-0.5-0.3-0.8-0.3c-0.5,0-1,0.2-1.6,0.7l-0.6-0.7c0.7-0.6,1.4-1,2.2-1c0.6,0,1.1,0.2,1.5,0.6
			c0.4,0.4,0.6,0.9,0.6,1.4C410.6,235.8,410.2,236.5,409.5,237.3z"/>
		<path class="st6" d="M413.3,240.1c-0.7,0-1.4-0.2-2.1-0.7l0.5-0.8c0.6,0.4,1.1,0.5,1.6,0.5c0.4,0,0.7-0.1,0.9-0.3
			c0.2-0.2,0.3-0.4,0.3-0.8c0-0.3-0.1-0.6-0.4-0.8c-0.2-0.2-0.5-0.3-0.9-0.3h-0.8v-0.9h0.8c0.3,0,0.6-0.1,0.8-0.3
			c0.2-0.2,0.3-0.4,0.3-0.7c0-0.3-0.1-0.5-0.3-0.7s-0.5-0.3-0.8-0.3c-0.4,0-0.9,0.2-1.4,0.6l-0.5-0.7c0.2-0.2,0.6-0.4,0.9-0.6
			c0.4-0.1,0.7-0.2,1.1-0.2c0.6,0,1.1,0.2,1.5,0.5c0.4,0.3,0.6,0.8,0.6,1.2c0,0.4-0.1,0.7-0.3,0.9c-0.2,0.3-0.5,0.5-0.8,0.6v0
			c0.4,0.1,0.7,0.3,1,0.6c0.2,0.3,0.3,0.6,0.3,1.1c0,0.6-0.2,1-0.6,1.4C414.6,239.9,414,240.1,413.3,240.1z"/>
		<path class="st6" d="M417.2,240.1c-0.2,0-0.3-0.1-0.5-0.2c-0.1-0.1-0.2-0.3-0.2-0.5c0-0.2,0.1-0.3,0.2-0.4
			c0.1-0.1,0.3-0.2,0.5-0.2c0.2,0,0.3,0.1,0.4,0.2c0.1,0.1,0.2,0.3,0.2,0.4c0,0.2-0.1,0.3-0.2,0.5
			C417.5,240.1,417.3,240.1,417.2,240.1z"/>
		<path class="st6" d="M420.7,240.1c-0.7,0-1.4-0.2-2.1-0.7l0.5-0.8c0.6,0.4,1.1,0.5,1.6,0.5c0.4,0,0.7-0.1,0.9-0.3
			c0.2-0.2,0.3-0.4,0.3-0.8c0-0.3-0.1-0.6-0.4-0.8c-0.2-0.2-0.5-0.3-0.9-0.3h-0.8v-0.9h0.8c0.3,0,0.6-0.1,0.8-0.3
			c0.2-0.2,0.3-0.4,0.3-0.7c0-0.3-0.1-0.5-0.3-0.7s-0.5-0.3-0.8-0.3c-0.4,0-0.9,0.2-1.4,0.6l-0.5-0.7c0.2-0.2,0.5-0.4,0.9-0.6
			c0.4-0.1,0.7-0.2,1.1-0.2c0.6,0,1.1,0.2,1.5,0.5s0.6,0.8,0.6,1.2c0,0.4-0.1,0.7-0.3,0.9c-0.2,0.3-0.5,0.5-0.8,0.6v0
			c0.4,0.1,0.7,0.3,1,0.6c0.2,0.3,0.3,0.6,0.3,1.1c0,0.6-0.2,1-0.6,1.4C421.9,239.9,421.4,240.1,420.7,240.1z"/>
	</g>
	<g>
		<path class="st6" d="M277.4,347.1h0.7v0.9h-0.7v1.6h-1V348h-3l-0.2-0.6l3.6-4.4h0.7V347.1z M276.4,344.7l-2,2.4h2V344.7z"/>
		<path class="st6" d="M279.6,349.8c-0.2,0-0.3-0.1-0.5-0.2c-0.1-0.1-0.2-0.3-0.2-0.5c0-0.2,0.1-0.3,0.2-0.4
			c0.1-0.1,0.3-0.2,0.5-0.2c0.2,0,0.3,0.1,0.4,0.2c0.1,0.1,0.2,0.3,0.2,0.4c0,0.2-0.1,0.3-0.2,0.5
			C279.9,349.7,279.7,349.8,279.6,349.8z"/>
		<path class="st6" d="M283.2,345.3c0.6,0,1.2,0.2,1.6,0.6c0.4,0.4,0.6,0.9,0.6,1.6c0,0.7-0.2,1.2-0.7,1.6c-0.4,0.4-1,0.6-1.7,0.6
			c-0.8,0-1.5-0.3-2.2-0.8l0.5-0.8c0.6,0.4,1.1,0.6,1.7,0.6c0.4,0,0.7-0.1,1-0.4c0.3-0.2,0.4-0.5,0.4-0.9c0-0.4-0.1-0.7-0.4-0.9
			c-0.2-0.2-0.6-0.4-1-0.4c-0.5,0-0.9,0.2-1.2,0.5l-0.6-0.4l0.4-3.3h3.4v0.9h-2.6l-0.2,1.6C282.5,345.4,282.9,345.3,283.2,345.3z"/>
	</g>
	<g>
		<path class="st6" d="M455.7,347.1h0.7v0.9h-0.7v1.6h-1V348h-3l-0.2-0.6l3.6-4.4h0.7V347.1z M454.7,344.7l-2,2.4h2V344.7z"/>
		<path class="st6" d="M457.9,349.8c-0.2,0-0.3-0.1-0.5-0.2c-0.1-0.1-0.2-0.3-0.2-0.5c0-0.2,0.1-0.3,0.2-0.4
			c0.1-0.1,0.3-0.2,0.5-0.2c0.2,0,0.3,0.1,0.4,0.2c0.1,0.1,0.2,0.3,0.2,0.4c0,0.2-0.1,0.3-0.2,0.5
			C458.2,349.7,458,349.8,457.9,349.8z"/>
		<path class="st6" d="M461.8,345.4c0.6,0,1.1,0.2,1.5,0.6c0.4,0.4,0.6,0.9,0.6,1.5c0,0.6-0.2,1.2-0.7,1.6c-0.4,0.4-1,0.6-1.7,0.6
			c-0.8,0-1.4-0.3-1.8-0.9c-0.4-0.6-0.6-1.4-0.6-2.3c0-0.6,0.1-1.2,0.3-1.8c0.2-0.5,0.5-1,0.9-1.3c0.4-0.4,1-0.5,1.6-0.5
			c0.7,0,1.3,0.2,1.7,0.6l-0.4,0.8c-0.4-0.3-0.8-0.4-1.2-0.4c-0.4,0-0.7,0.1-1,0.4c-0.5,0.5-0.8,1.2-0.8,2.1
			c0.1-0.3,0.4-0.5,0.7-0.7S461.5,345.4,461.8,345.4z M461.6,348.8c0.4,0,0.7-0.1,0.9-0.4c0.2-0.3,0.4-0.6,0.4-0.9
			c0-0.4-0.1-0.7-0.4-0.9c-0.2-0.2-0.5-0.4-0.9-0.4c-0.4,0-0.7,0.1-0.9,0.4c-0.2,0.2-0.4,0.6-0.4,0.9c0,0.4,0.1,0.7,0.4,0.9
			C461,348.7,461.3,348.8,461.6,348.8z"/>
	</g>
	<g>
		<path class="st6" d="M525,360l-1.6,1.8h2.7v1h-4.2v-0.9l2.1-2.3l0.5-0.6c0.1-0.1,0.2-0.3,0.3-0.5c0.1-0.2,0.1-0.4,0.1-0.6
			c0-0.3-0.1-0.5-0.3-0.7c-0.2-0.2-0.5-0.3-0.8-0.3c-0.5,0-1,0.2-1.6,0.7l-0.6-0.7c0.7-0.6,1.4-1,2.2-1c0.6,0,1.1,0.2,1.5,0.6
			c0.4,0.4,0.6,0.9,0.6,1.4C526.1,358.5,525.7,359.2,525,360z"/>
		<path class="st6" d="M527.7,362.8c-0.2,0-0.3-0.1-0.5-0.2c-0.1-0.1-0.2-0.3-0.2-0.5c0-0.2,0.1-0.3,0.2-0.4
			c0.1-0.1,0.3-0.2,0.5-0.2c0.2,0,0.3,0.1,0.4,0.2c0.1,0.1,0.2,0.3,0.2,0.4c0,0.2-0.1,0.3-0.2,0.5
			C528,362.8,527.8,362.8,527.7,362.8z"/>
		<path class="st6" d="M531.2,362.8c-0.7,0-1.4-0.2-2.1-0.7l0.5-0.8c0.6,0.4,1.1,0.5,1.6,0.5c0.4,0,0.7-0.1,0.9-0.3
			c0.2-0.2,0.3-0.4,0.3-0.8c0-0.3-0.1-0.6-0.4-0.8c-0.2-0.2-0.5-0.3-0.9-0.3h-0.8v-0.9h0.8c0.3,0,0.6-0.1,0.8-0.3
			c0.2-0.2,0.3-0.4,0.3-0.7c0-0.3-0.1-0.5-0.3-0.7s-0.5-0.3-0.8-0.3c-0.4,0-0.9,0.2-1.4,0.6l-0.5-0.7c0.2-0.2,0.5-0.4,0.9-0.6
			c0.4-0.1,0.7-0.2,1.1-0.2c0.6,0,1.1,0.2,1.5,0.5s0.6,0.8,0.6,1.2c0,0.4-0.1,0.7-0.3,0.9c-0.2,0.3-0.5,0.5-0.8,0.6v0
			c0.4,0.1,0.7,0.3,1,0.6c0.2,0.3,0.3,0.6,0.3,1.1c0,0.6-0.2,1-0.6,1.4C532.4,362.6,531.9,362.8,531.2,362.8z"/>
	</g>
	<g>
		<path class="st6" d="M608.6,362.8c-0.7,0-1.4-0.2-2.1-0.7l0.5-0.8c0.6,0.4,1.1,0.5,1.6,0.5c0.4,0,0.7-0.1,0.9-0.3
			c0.2-0.2,0.3-0.4,0.3-0.8c0-0.3-0.1-0.6-0.4-0.8c-0.2-0.2-0.5-0.3-0.9-0.3h-0.8v-0.9h0.8c0.3,0,0.6-0.1,0.8-0.3
			c0.2-0.2,0.3-0.4,0.3-0.7c0-0.3-0.1-0.5-0.3-0.7s-0.5-0.3-0.8-0.3c-0.4,0-0.9,0.2-1.4,0.6l-0.5-0.7c0.2-0.2,0.6-0.4,0.9-0.6
			c0.4-0.1,0.7-0.2,1.1-0.2c0.6,0,1.1,0.2,1.5,0.5c0.4,0.3,0.6,0.8,0.6,1.2c0,0.4-0.1,0.7-0.3,0.9c-0.2,0.3-0.5,0.5-0.8,0.6v0
			c0.4,0.1,0.7,0.3,1,0.6c0.2,0.3,0.3,0.6,0.3,1.1c0,0.6-0.2,1-0.6,1.4C609.8,362.6,609.3,362.8,608.6,362.8z"/>
		<path class="st6" d="M612.4,362.8c-0.2,0-0.3-0.1-0.5-0.2s-0.2-0.3-0.2-0.5c0-0.2,0.1-0.3,0.2-0.4s0.3-0.2,0.5-0.2
			c0.2,0,0.3,0.1,0.4,0.2s0.2,0.3,0.2,0.4c0,0.2-0.1,0.3-0.2,0.5S612.6,362.8,612.4,362.8z"/>
		<path class="st6" d="M617.8,360.2h0.7v0.9h-0.7v1.6h-1v-1.6h-3l-0.2-0.6l3.6-4.4h0.7V360.2z M616.8,357.8l-2,2.4h2V357.8z"/>
	</g>
	<g>
		<path class="st6" d="M243.6,255.2l1.9-1.6h0.8v6.7h-1V255l-1.2,0.9L243.6,255.2z"/>
		<path class="st6" d="M248.2,260.4c-0.2,0-0.3-0.1-0.5-0.2c-0.1-0.1-0.2-0.3-0.2-0.5c0-0.2,0.1-0.3,0.2-0.4
			c0.1-0.1,0.3-0.2,0.5-0.2c0.2,0,0.3,0.1,0.4,0.2c0.1,0.1,0.2,0.3,0.2,0.4c0,0.2-0.1,0.3-0.2,0.5
			C248.5,260.3,248.4,260.4,248.2,260.4z"/>
		<path class="st6" d="M252.2,256c0.6,0,1.1,0.2,1.5,0.6c0.4,0.4,0.6,0.9,0.6,1.5c0,0.6-0.2,1.2-0.7,1.6c-0.4,0.4-1,0.6-1.7,0.6
			c-0.8,0-1.4-0.3-1.8-0.9c-0.4-0.6-0.6-1.4-0.6-2.3c0-0.6,0.1-1.2,0.3-1.8c0.2-0.5,0.5-1,0.9-1.3c0.4-0.4,1-0.5,1.6-0.5
			c0.7,0,1.3,0.2,1.7,0.6l-0.4,0.8c-0.4-0.3-0.8-0.4-1.2-0.4c-0.4,0-0.7,0.1-1,0.4c-0.5,0.5-0.8,1.2-0.8,2.1
			c0.1-0.3,0.4-0.5,0.7-0.7S251.8,256,252.2,256z M252,259.4c0.4,0,0.7-0.1,0.9-0.4c0.2-0.3,0.4-0.6,0.4-0.9c0-0.4-0.1-0.7-0.4-0.9
			c-0.2-0.2-0.5-0.4-0.9-0.4c-0.4,0-0.7,0.1-0.9,0.4c-0.2,0.2-0.4,0.6-0.4,0.9c0,0.4,0.1,0.7,0.4,0.9
			C251.3,259.3,251.6,259.4,252,259.4z"/>
	</g>
	<g>
		<path class="st6" d="M371.2,345.3c0.6,0,1.2,0.2,1.6,0.6s0.6,0.9,0.6,1.6c0,0.7-0.2,1.2-0.7,1.6c-0.4,0.4-1,0.6-1.7,0.6
			c-0.8,0-1.5-0.3-2.2-0.8l0.5-0.8c0.6,0.4,1.1,0.6,1.7,0.6c0.4,0,0.7-0.1,1-0.4c0.3-0.2,0.4-0.5,0.4-0.9c0-0.4-0.1-0.7-0.4-0.9
			c-0.2-0.2-0.6-0.4-1-0.4c-0.5,0-0.9,0.2-1.2,0.5l-0.6-0.4l0.4-3.3h3.4v0.9h-2.6l-0.2,1.6C370.5,345.4,370.8,345.3,371.2,345.3z"/>
		<path class="st6" d="M374.8,349.8c-0.2,0-0.3-0.1-0.5-0.2s-0.2-0.3-0.2-0.5c0-0.2,0.1-0.3,0.2-0.4s0.3-0.2,0.5-0.2
			c0.2,0,0.3,0.1,0.4,0.2s0.2,0.3,0.2,0.4c0,0.2-0.1,0.3-0.2,0.5S375,349.8,374.8,349.8z"/>
		<path class="st6" d="M375.5,344.6l1.9-1.6h0.8v6.7h-1v-5.3l-1.2,0.9L375.5,344.6z"/>
	</g>
</g>
<g id="street_anchors">
	<rect id="street_x5F_anchor_x5F_01" x="355" y="20" class="st14" width="10" height="10"/>
	<rect id="street_x5F_anchor_x5F_02_1_" x="21" y="235" class="st14" width="10" height="10"/>
</g>
</svg>
