<?xml version="1.0" encoding="utf-8"?>
<!-- Generator: Adobe Illustrator 24.2.0, SVG Export Plug-In . SVG Version: 6.00 Build 0)  -->
<!DOCTYPE svg PUBLIC "-//W3C//DTD SVG 1.1//EN" "http://www.w3.org/Graphics/SVG/1.1/DTD/svg11.dtd" [
	<!ENTITY ns_extend "http://ns.adobe.com/Extensibility/1.0/">
	<!ENTITY ns_ai "http://ns.adobe.com/AdobeIllustrator/10.0/">
	<!ENTITY ns_graphs "http://ns.adobe.com/Graphs/1.0/">
	<!ENTITY ns_vars "http://ns.adobe.com/Variables/1.0/">
	<!ENTITY ns_imrep "http://ns.adobe.com/ImageReplacement/1.0/">
	<!ENTITY ns_sfw "http://ns.adobe.com/SaveForWeb/1.0/">
	<!ENTITY ns_custom "http://ns.adobe.com/GenericCustomNamespace/1.0/">
	<!ENTITY ns_adobe_xpath "http://ns.adobe.com/XPath/1.0/">
]>
<svg version="1.1" id="_x31__x5F_2" xmlns:x="&ns_extend;" xmlns:i="&ns_ai;" xmlns:graph="&ns_graphs;"
	 xmlns="http://www.w3.org/2000/svg" xmlns:xlink="http://www.w3.org/1999/xlink" x="0px" y="0px" viewBox="0 0 720 480"
	 style="enable-background:new 0 0 720 480;" xml:space="preserve">
<style type="text/css">
	.st0{fill:#DBD4CA;}
	.st1{clip-path:url(#SVGID_2_);}
	.st2{fill:none;stroke:#C49F8A;stroke-miterlimit:10;}
	.st3{opacity:0.3;clip-path:url(#SVGID_4_);}
	.st4{opacity:0.7;fill:#C49F8A;enable-background:new    ;}
	.st5{fill:none;stroke:#565440;}
	.st6{fill:#565440;}
	.st7{fill:#E9E4DC;}
	.st8{fill:#C49F8A;}
	.st9{fill:#E9E4DC;stroke:#C49F8A;}
	.st10{fill:#E9E4DC;stroke:#C49F8A;stroke-width:1;stroke-miterlimit:3.9998;}
	.st11{fill:none;stroke:#C49F8A;}
	.st12{fill:#E9E4DC;stroke:#C49F8A;stroke-linejoin:round;}
	.st13{fill:#E9E4DC;stroke:#C49F8A;stroke-width:1;stroke-miterlimit:4;}
	.st14{opacity:0;}
	.st15{fill:#3F3F3F;fill-opacity:0;}
</style>
<metadata>
	<sfw  xmlns="&ns_sfw;">
		<slices></slices>
		<sliceSourceBounds  bottomLeftOrigin="true" height="667.7" width="667.7" x="-41.1" y="-137.1"></sliceSourceBounds>
	</sfw>
</metadata>
<rect id="Floor_1_" x="211" y="68.3" class="st0" width="295.1" height="351.7"/>
<g id="Wet_Floor_2_">
	<g>
		<defs>
			<polygon id="SVGID_1_" points="419.1,419.2 216.2,419.2 216.2,315.2 352.7,315.2 355,320 419.1,320 			"/>
		</defs>
		<clipPath id="SVGID_2_">
			<use xlink:href="#SVGID_1_"  style="overflow:visible;"/>
		</clipPath>
		<g class="st1">
			<g>
				<line class="st2" x1="-30.3" y1="293.7" x2="303.1" y2="-39.8"/>
				<line class="st2" x1="-40.8" y1="283.2" x2="292.7" y2="-50.3"/>
				<line class="st2" x1="-19.9" y1="304.1" x2="313.6" y2="-29.4"/>
				<line class="st2" x1="-9.5" y1="314.5" x2="324" y2="-19"/>
				<line class="st2" x1="0.9" y1="324.9" x2="334.4" y2="-8.6"/>
				<line class="st2" x1="11.3" y1="335.3" x2="344.8" y2="1.9"/>
				<line class="st2" x1="21.8" y1="345.8" x2="355.2" y2="12.3"/>
				<line class="st2" x1="32.2" y1="356.2" x2="365.7" y2="22.7"/>
				<line class="st2" x1="42.6" y1="366.6" x2="376.1" y2="33.1"/>
				<line class="st2" x1="53" y1="377" x2="386.5" y2="43.5"/>
				<line class="st2" x1="42.6" y1="366.6" x2="376.1" y2="33.1"/>
				<line class="st2" x1="63.4" y1="387.4" x2="396.9" y2="54"/>
				<line class="st2" x1="73.9" y1="397.9" x2="407.3" y2="64.4"/>
				<line class="st2" x1="84.3" y1="408.3" x2="417.8" y2="74.8"/>
				<line class="st2" x1="94.7" y1="418.7" x2="428.2" y2="85.2"/>
				<line class="st2" x1="105.1" y1="429.1" x2="438.6" y2="95.6"/>
				<line class="st2" x1="115.5" y1="439.6" x2="449" y2="106.1"/>
				<line class="st2" x1="126" y1="450" x2="459.5" y2="116.5"/>
				<line class="st2" x1="136.4" y1="460.4" x2="469.9" y2="126.9"/>
				<line class="st2" x1="126" y1="450" x2="459.5" y2="116.5"/>
				<line class="st2" x1="146.8" y1="470.8" x2="480.3" y2="137.3"/>
				<line class="st2" x1="157.2" y1="481.2" x2="490.7" y2="147.8"/>
				<line class="st2" x1="167.7" y1="491.7" x2="501.1" y2="158.2"/>
				<line class="st2" x1="178.1" y1="502.1" x2="511.6" y2="168.6"/>
				<line class="st2" x1="188.5" y1="512.5" x2="522" y2="179"/>
				<line class="st2" x1="198.9" y1="522.9" x2="532.4" y2="189.4"/>
				<line class="st2" x1="209.3" y1="533.3" x2="542.8" y2="199.9"/>
				<line class="st2" x1="219.8" y1="543.8" x2="553.2" y2="210.3"/>
				<line class="st2" x1="209.3" y1="533.3" x2="542.8" y2="199.9"/>
				<line class="st2" x1="230.2" y1="554.2" x2="563.7" y2="220.7"/>
				<line class="st2" x1="240.6" y1="564.6" x2="574.1" y2="231.1"/>
				<line class="st2" x1="251" y1="575" x2="584.5" y2="241.5"/>
				<line class="st2" x1="261.4" y1="585.5" x2="594.9" y2="252"/>
				<line class="st2" x1="271.9" y1="595.9" x2="605.4" y2="262.4"/>
				<line class="st2" x1="282.3" y1="606.3" x2="615.8" y2="272.8"/>
				<line class="st2" x1="292.7" y1="616.7" x2="626.2" y2="283.2"/>
			</g>
			<g>
				<line class="st2" x1="303.1" y1="606.3" x2="-30.3" y2="272.8"/>
				<line class="st2" x1="292.7" y1="616.7" x2="-40.8" y2="283.2"/>
				<line class="st2" x1="313.6" y1="595.9" x2="-19.9" y2="262.4"/>
				<line class="st2" x1="324" y1="585.5" x2="-9.5" y2="252"/>
				<line class="st2" x1="334.4" y1="575" x2="0.9" y2="241.5"/>
				<line class="st2" x1="344.8" y1="564.6" x2="11.3" y2="231.1"/>
				<line class="st2" x1="355.2" y1="554.2" x2="21.8" y2="220.7"/>
				<line class="st2" x1="365.7" y1="543.8" x2="32.2" y2="210.3"/>
				<line class="st2" x1="376.1" y1="533.3" x2="42.6" y2="199.9"/>
				<line class="st2" x1="386.5" y1="522.9" x2="53" y2="189.4"/>
				<line class="st2" x1="376.1" y1="533.3" x2="42.6" y2="199.9"/>
				<line class="st2" x1="396.9" y1="512.5" x2="63.4" y2="179"/>
				<line class="st2" x1="407.3" y1="502.1" x2="73.9" y2="168.6"/>
				<line class="st2" x1="417.8" y1="491.7" x2="84.3" y2="158.2"/>
				<line class="st2" x1="428.2" y1="481.2" x2="94.7" y2="147.8"/>
				<line class="st2" x1="438.6" y1="470.8" x2="105.1" y2="137.3"/>
				<line class="st2" x1="449" y1="460.4" x2="115.5" y2="126.9"/>
				<line class="st2" x1="459.5" y1="450" x2="126" y2="116.5"/>
				<line class="st2" x1="469.9" y1="439.6" x2="136.4" y2="106.1"/>
				<line class="st2" x1="459.5" y1="450" x2="126" y2="116.5"/>
				<line class="st2" x1="480.3" y1="429.1" x2="146.8" y2="95.6"/>
				<line class="st2" x1="490.7" y1="418.7" x2="157.2" y2="85.2"/>
				<line class="st2" x1="501.1" y1="408.3" x2="167.7" y2="74.8"/>
				<line class="st2" x1="511.6" y1="397.9" x2="178.1" y2="64.4"/>
				<line class="st2" x1="522" y1="387.4" x2="188.5" y2="54"/>
				<line class="st2" x1="532.4" y1="377" x2="198.9" y2="43.5"/>
				<line class="st2" x1="542.8" y1="366.6" x2="209.3" y2="33.1"/>
				<line class="st2" x1="553.2" y1="356.2" x2="219.8" y2="22.7"/>
				<line class="st2" x1="542.8" y1="366.6" x2="209.3" y2="33.1"/>
				<line class="st2" x1="563.7" y1="345.8" x2="230.2" y2="12.3"/>
				<line class="st2" x1="574.1" y1="335.3" x2="240.6" y2="1.9"/>
				<line class="st2" x1="584.5" y1="324.9" x2="251" y2="-8.6"/>
				<line class="st2" x1="594.9" y1="314.5" x2="261.4" y2="-19"/>
				<line class="st2" x1="605.4" y1="304.1" x2="271.9" y2="-29.4"/>
				<line class="st2" x1="615.8" y1="293.7" x2="282.3" y2="-39.8"/>
				<line class="st2" x1="626.2" y1="283.2" x2="292.7" y2="-50.3"/>
			</g>
		</g>
	</g>
	<g>
		<defs>
			<polygon id="SVGID_3_" points="419.1,419.2 216.2,419.2 216.2,315.2 352.7,315.2 355,320 419.1,320 			"/>
		</defs>
		<clipPath id="SVGID_4_">
			<use xlink:href="#SVGID_3_"  style="overflow:visible;"/>
		</clipPath>
		<g class="st3">
			<rect x="130.7" y="111.7" class="st4" width="322.2" height="322.2"/>
		</g>
	</g>
</g>
<path id="Windows_1_" class="st5" d="M504.4,62.1v6.2l-272.5,0v-6.2L504.4,62.1z"/>
<g id="Doors_1_">
	<path id="Doors_10" class="st5" d="M359.1,121.8c4.6,0,8.3-0.8,12.4-2.5c4.1-1.7,7.9-4.1,10.8-7c3.3-2.9,5.8-6.6,7.4-10.8
		c1.7-4.1,2.5-8.3,2.5-12.8h-33.1"/>
	<path id="Doors_10_1_" class="st5" d="M291.5,317c0,4.6-0.8,8.3-2.5,12.4c-1.7,4.1-4.1,7.9-7,10.8c-2.9,3.3-6.6,5.8-10.8,7.4
		c-4.1,1.7-8.3,2.5-12.8,2.5V317"/>
	<path id="Doors_10_3_" class="st5" d="M468.4,420c0,5.8-1.1,10.6-3.2,15.9c-2.1,5.3-5.3,10.1-9,13.8c-3.7,4.2-8.5,7.4-13.8,9.5
		c-5.3,2.1-10.6,3.2-16.4,3.2V420"/>
	<path id="Doors_10_2_" class="st5" d="M415,366.1c-4.6,0-8.3,0.8-12.4,2.5c-4.1,1.7-7.9,4.1-10.8,7c-3.3,2.9-5.8,6.6-7.4,10.8
		c-1.7,4.1-2.5,8.3-2.5,12.8H415"/>
</g>
<g id="Walls">
	<path class="st6" d="M360.6,121.8h-12.4V314h-56.7v4.1h56.7V392h-12.4h-0.2h-4v15.6H219v-89.5h39.3V314H219V80.7h16.6V60h-29v360
		l219.4,0v-12.4h-6.9v-8.4H415v8.4h-54.4v-69.4l11.7,0v0h4.1v-15.9H415v43.9h4.1v-43.9h20v-4.1h-78.5V121.8z M348.2,407.6h-12.4
		v-11.5h12.4V407.6z M372.3,322.2V334l-11.7,0v-11.8H372.3z"/>
	<polygon class="st6" points="468.4,420 513.4,420 513.4,60 466.8,60 466.8,84.8 501,84.8 501,407.6 468.4,407.6 	"/>
	<polygon class="st6" points="336.4,84.8 348.2,84.8 348.2,88.5 360.6,88.5 360.6,84.8 372.5,84.8 372.5,80.7 412,80.7 412,60 
		294.4,60 294.4,80.7 336.4,80.7 	"/>
</g>
<g id="Furniture">
	<g>
		<rect x="290.9" y="389.3" class="st7" width="40.3" height="17.8"/>
		<path class="st8" d="M330.7,389.8v16.8h-39.3v-16.8H330.7 M331.7,388.8h-41.3v18.8h41.3V388.8L331.7,388.8z"/>
	</g>
	<g>
		<rect x="361.1" y="249.6" class="st7" width="24.3" height="68"/>
		<path class="st8" d="M384.9,250.1v67h-23.3v-67H384.9 M385.9,249.1h-25.3v69h25.3V249.1L385.9,249.1z"/>
	</g>
	<g>
		<rect x="361.1" y="293.3" class="st7" width="75.6" height="24.3"/>
		<path class="st8" d="M436.2,293.8v23.3h-74.6v-23.3H436.2 M437.2,292.8h-76.6v25.3h76.6V292.8L437.2,292.8z"/>
	</g>
	<g>
		<g>
			<rect x="219.5" y="169.9" class="st7" width="82" height="67.2"/>
			<path class="st8" d="M301,170.4l0,66.2l-81,0l0-66.2H301 M302,169.4h-83l0,68.2l83,0L302,169.4L302,169.4z"/>
		</g>
		<rect x="225" y="175.2" class="st9" width="20.5" height="26.6"/>
		<rect x="225" y="205.1" class="st9" width="20.5" height="26.6"/>
		<polygon class="st10" points="237.1,178.5 231.8,197.7 251.6,202.8 256.9,183.6 		"/>
		<polygon class="st10" points="251.6,204.2 231.8,209.4 237.1,228.6 257,223.5 		"/>
		<g>
			<polygon class="st7" points="236.9,237 235.2,210.3 241.2,169.9 302.3,169.9 302.3,237 			"/>
			<path class="st8" d="M241.7,170.4l60.2,0v66.1l-64.1,0h-0.4l-1.7-26.2L241.7,170.4 M241.2,169.4h-0.4l-6.1,40.9l1.7,27.3h1.3
				l65.1,0v-68.1L241.2,169.4L241.2,169.4z"/>
		</g>
		<polyline class="st11" points="238.5,236.6 238.5,210 242,170.1 		"/>
	</g>
	<g>
		<g>
			<rect x="219.6" y="289.7" class="st7" width="37.8" height="1.8"/>
			<path class="st8" d="M256.8,290.2v0.8h-36.8v-0.8H256.8 M257.8,289.2h-38.8v2.8h38.8V289.2L257.8,289.2z"/>
		</g>
		<g>
			<rect x="219.6" y="291.5" class="st7" width="37.8" height="22"/>
			<path class="st8" d="M220.1,292l36.8,0l0,21h-36.8V292 M219.1,291v23h38.8l0-23L219.1,291L219.1,291z"/>
		</g>
		<path class="st9" d="M219.6,313.2l37.6-21.6"/>
	</g>
	<g>
		<g>
			<rect x="293.8" y="289.7" class="st7" width="53.9" height="1.8"/>
			<path class="st8" d="M294.3,290.2l52.9,0v0.8h-52.9V290.2 M293.3,289.2v2.8h54.9v-2.8L293.3,289.2L293.3,289.2z"/>
		</g>
		<g>
			<rect x="293.8" y="291.5" class="st7" width="53.9" height="22"/>
			<path class="st8" d="M347.2,292v21h-52.9v-21H347.2 M348.2,291h-54.9v23h54.9V291L348.2,291z"/>
		</g>
		<path class="st9" d="M294,313.2l53.3-21.6"/>
	</g>
	<g>
		<g>
			<rect x="480.1" y="336.7" class="st7" width="1.8" height="70.4"/>
			<path class="st8" d="M481.4,337.2l0,69.4h-0.8l0-69.4H481.4 M482.4,336.2h-2.8l0,71.4h2.8L482.4,336.2L482.4,336.2z"/>
		</g>
		<g>
			<rect x="481.9" y="336.7" class="st7" width="18.5" height="70.4"/>
			<path class="st8" d="M482.4,337.2l17.5,0l0,69.4h-17.5L482.4,337.2 M481.4,336.2l0,71.4l19.5,0l0-71.4L481.4,336.2L481.4,336.2z"
				/>
		</g>
		<path class="st9" d="M500.3,407l-18.4-70.3"/>
	</g>
	<g>
		<g>
			<rect x="435.2" y="322.7" class="st7" width="1.8" height="21.2"/>
			<path class="st8" d="M436.6,323.2l0,20.2h-0.8l0-20.2H436.6 M437.6,322.2h-2.8l0,22.2h2.8L437.6,322.2L437.6,322.2z"/>
		</g>
		<g>
			<rect x="419.6" y="322.7" class="st7" width="15.6" height="21.2"/>
			<path class="st8" d="M420.1,323.2l14.6,0v20.2h-14.6L420.1,323.2 M419.1,322.2l0,22.2h16.6v-22.2L419.1,322.2L419.1,322.2z"/>
		</g>
		<path class="st9" d="M419.7,322.8l15.3,21.1"/>
	</g>
	<g>
		<g>
			<rect x="219.5" y="378.4" class="st7" width="71.5" height="28.7"/>
			<path class="st8" d="M220,378.9l70.5,0l0,27.7l-70.5,0L220,378.9 M219,377.9l0,29.7l72.5,0l0-29.7L219,377.9L219,377.9z"/>
		</g>
		<g>
			<g>
				<path class="st12" d="M225.9,392.8c0,5.5,4.8,9.8,10.2,9.3c6-0.5,13.6-1,19.2-1c5.6,0,13.1,0.5,19.2,1
					c5.5,0.5,10.2-3.8,10.2-9.3s-4.8-9.8-10.2-9.3c-6,0.5-13.6,1-19.2,1c-5.6,0-13.1-0.5-19.2-1C230.7,383,225.9,387.3,225.9,392.8z
					"/>
				<ellipse class="st12" cx="235.5" cy="392.8" rx="1.2" ry="1.2"/>
			</g>
		</g>
	</g>
	<g>
		<g id="Rectangle_16_x5F_11_2_">
			<rect x="301.7" y="389.3" class="st7" width="23.4" height="17.8"/>
			<path class="st8" d="M324.6,389.8v16.8h-22.4v-16.8H324.6 M325.6,388.8h-24.4v18.8h24.4V388.8L325.6,388.8z"/>
		</g>
		<path id="Rectangle_19_x5F_5_2_" class="st9" d="M323.3,398.2L323.3,398.2c0-3.2-2.6-5.8-5.8-5.8h-8.2c-3.2,0-5.8,2.6-5.8,5.8l0,0
			c0,3.2,2.6,5.8,5.8,5.8h8.2C320.7,403.9,323.3,401.4,323.3,398.2z"/>
		<circle id="Ellipse_7_x5F_2_2_" class="st9" cx="313.4" cy="400.7" r="1.2"/>
	</g>
	<g>
		<rect x="361.1" y="338.7" class="st7" width="17.8" height="44"/>
		<path class="st8" d="M361.6,339.2l16.8,0v43h-16.8L361.6,339.2 M360.6,338.2l0,45h18.8v-45L360.6,338.2L360.6,338.2z"/>
	</g>
	<g>
		<g id="Rectangle_16_x5F_11_1_">
			<rect x="361.1" y="353.6" class="st7" width="17.8" height="23.4"/>
			<path class="st8" d="M378.4,354.1v22.4h-16.8v-22.4H378.4 M379.4,353.1h-18.8v24.4h18.8V353.1L379.4,353.1z"/>
		</g>
		<path id="Rectangle_19_x5F_5_1_" class="st9" d="M370,375.2L370,375.2c3.2,0,5.8-2.6,5.8-5.8v-8.2c0-3.2-2.6-5.8-5.8-5.8l0,0
			c-3.2,0-5.8,2.6-5.8,5.8v8.2C364.2,372.6,366.8,375.2,370,375.2z"/>
		<circle id="Ellipse_7_x5F_2_1_" class="st9" cx="367.4" cy="365.3" r="1.2"/>
	</g>
	<g id="Sink_3">
		<rect id="Rectangle_28_x5F_2" x="364.2" y="295.4" class="st9" width="31.3" height="19.8"/>
		<path id="Rectangle_29_x5F_2" class="st9" d="M376.5,305.3L376.5,305.3c0-4.1,3.3-7.4,7.4-7.4h1.6c4.1,0,7.4,3.3,7.4,7.4v0
			c0,4.1-3.3,7.4-7.4,7.4h-1.6C379.8,312.7,376.5,309.4,376.5,305.3z"/>
		<ellipse id="Ellipse_7_x5F_3" class="st9" cx="384.7" cy="308.6" rx="1.2" ry="1.2"/>
		<path id="Vector_2" class="st11" d="M365.8,312.7h8.2 M365.8,310.2h8.2 M365.8,307.8h8.2 M365.8,305.3h8.2 M365.8,302.8h8.2
			 M365.8,300.4h8.2 M365.8,297.9h8.2"/>
	</g>
	<g id="Stove">
		<g id="Rectangle_25">
			<rect x="361.1" y="248.4" class="st7" width="24.3" height="23.7"/>
			<path class="st8" d="M384.9,248.9v22.7h-23.3v-22.7H384.9 M385.9,247.9h-25.3v24.7h25.3V247.9L385.9,247.9z"/>
		</g>
		<g id="Rectangle_28_x5F_3_1_">
			<rect x="361.1" y="248.4" class="st7" width="1.8" height="23.7"/>
			<path class="st8" d="M362.4,248.9v22.7h-0.8v-22.7H362.4 M363.4,247.9h-2.8v24.7h2.8V247.9L363.4,247.9z"/>
		</g>
		<g id="Ellipse_7_x5F_4">
			<circle class="st7" cx="369.5" cy="256" r="2.4"/>
			<path class="st8" d="M369.5,254.1c1.1,0,1.9,0.9,1.9,1.9c0,1.1-0.9,1.9-1.9,1.9c-1.1,0-1.9-0.9-1.9-1.9
				C367.6,255,368.5,254.1,369.5,254.1 M369.5,253.1c-1.6,0-2.9,1.3-2.9,2.9c0,1.6,1.3,2.9,2.9,2.9c1.6,0,2.9-1.3,2.9-2.9
				C372.5,254.4,371.1,253.1,369.5,253.1L369.5,253.1z"/>
		</g>
		<g id="Ellipse_9">
			<path class="st7" d="M378.3,259.2c-1.7,0-3.2-1.4-3.2-3.2c0-1.7,1.4-3.2,3.2-3.2c1.7,0,3.2,1.4,3.2,3.2
				C381.5,257.8,380.1,259.2,378.3,259.2z"/>
			<path class="st8" d="M378.3,253.4c1.5,0,2.7,1.2,2.7,2.7s-1.2,2.7-2.7,2.7c-1.5,0-2.7-1.2-2.7-2.7S376.9,253.4,378.3,253.4
				 M378.3,252.4c-2,0-3.7,1.6-3.7,3.7c0,2,1.6,3.7,3.7,3.7c2,0,3.7-1.6,3.7-3.7C382,254,380.4,252.4,378.3,252.4L378.3,252.4z"/>
		</g>
		<g id="Ellipse_10">
			<path class="st7" d="M369.5,269.5c-1.7,0-3.2-1.4-3.2-3.2c0-1.7,1.4-3.2,3.2-3.2s3.2,1.4,3.2,3.2
				C372.7,268,371.3,269.5,369.5,269.5z"/>
			<path class="st8" d="M369.5,263.6c1.5,0,2.7,1.2,2.7,2.7c0,1.5-1.2,2.7-2.7,2.7c-1.5,0-2.7-1.2-2.7-2.7
				C366.9,264.8,368,263.6,369.5,263.6 M369.5,262.6c-2,0-3.7,1.6-3.7,3.7c0,2,1.6,3.7,3.7,3.7c2,0,3.7-1.6,3.7-3.7
				C373.2,264.3,371.5,262.6,369.5,262.6L369.5,262.6z"/>
		</g>
		<g id="Ellipse_8">
			<circle class="st7" cx="379.1" cy="266.3" r="2.4"/>
			<path class="st8" d="M379.1,264.4c1.1,0,1.9,0.9,1.9,1.9s-0.9,1.9-1.9,1.9c-1.1,0-1.9-0.9-1.9-1.9S378,264.4,379.1,264.4
				 M379.1,263.4c-1.6,0-2.9,1.3-2.9,2.9s1.3,2.9,2.9,2.9c1.6,0,2.9-1.3,2.9-2.9S380.7,263.4,379.1,263.4L379.1,263.4z"/>
		</g>
	</g>
	<g id="Toilet_1_">
		<g id="Rectangle_21_1_">
			<rect x="390.7" y="331.6" class="st7" width="16.8" height="5.6"/>
			<path class="st8" d="M407,332.1v4.6h-15.8v-4.6H407 M408,331.1h-17.8v6.6H408V331.1L408,331.1z"/>
		</g>
		<path id="Rectangle_19_x5F_2_1_" class="st9" d="M405.5,349c0.2,3.7-2.7,6.8-6.3,6.8l0,0c-3.7,0-6.6-3.1-6.3-6.8l0.8-11.8h11.1
			L405.5,349z"/>
		<path id="Rectangle_18_x5F_13_1_" class="st9" d="M403.4,348.7c0.2,2.5-1.8,4.7-4.3,4.7l0,0c-2.5,0-4.5-2.2-4.3-4.7l0.6-6.9h7.4
			L403.4,348.7z"/>
		<ellipse id="Ellipse_6_x5F_2_1_" class="st9" cx="399.1" cy="344.6" rx="1.2" ry="1.2"/>
	</g>
	<g id="Toilet_2_">
		<g id="Rectangle_21_2_">
			<rect x="333.7" y="340.5" class="st7" width="7.9" height="16.8"/>
			<path class="st8" d="M341.1,341v15.8h-6.9V341H341.1 M342.1,340h-8.9v17.8h8.9V340L342.1,340z"/>
		</g>
		<path id="Rectangle_19_x5F_2_2_" class="st9" d="M321.9,342.6c-3.7-0.2-6.8,2.7-6.8,6.3l0,0c0,3.7,3.1,6.6,6.8,6.3l11.8-0.8v-11.1
			L321.9,342.6z"/>
		<path id="Rectangle_18_x5F_13_2_" class="st9" d="M322.2,344.6c-2.5-0.2-4.7,1.8-4.7,4.3l0,0c0,2.5,2.2,4.5,4.7,4.3l6.9-0.6l0-7.4
			L322.2,344.6z"/>
		<ellipse id="Ellipse_6_x5F_2_2_" class="st9" cx="326.2" cy="348.9" rx="1.2" ry="1.2"/>
	</g>
	<g>
		<g>
			<rect x="401.2" y="294.1" class="st7" width="23.5" height="23.5"/>
			<path class="st8" d="M424.2,294.6v22.5h-22.5v-22.5H424.2 M425.2,293.6h-24.5v24.5h24.5V293.6L425.2,293.6z"/>
		</g>
		<g id="Rectangle_27_2_">
			<rect x="401.2" y="293.3" class="st7" width="23.5" height="1.8"/>
			<path class="st8" d="M424.2,293.8l0,0.8l-22.5,0v-0.8H424.2 M425.2,292.8h-24.5v2.8l24.5,0L425.2,292.8L425.2,292.8z"/>
		</g>
		<path id="Vector_3" class="st11" d="M409,306l7.9,0 M411,302.6l3.9,7 M411,309.5l3.9-7"/>
	</g>
	<g>
		<path class="st9" d="M273.7,109.2l-17.4,0L254,93.4l22.1,0L273.7,109.2z"/>
		<g>
			<rect x="236.1" y="69.3" class="st7" width="57.8" height="25.8"/>
			<path class="st8" d="M293.4,69.8l0,24.8l-56.8,0l0-24.8L293.4,69.8 M294.4,68.8l-58.8,0l0,26.8l58.8,0L294.4,68.8L294.4,68.8z"/>
		</g>
		<path class="st11" d="M271.7,87.6l-13.4,0 M272.9,90.7l-15.8,0l0-4.7l15.8,0L272.9,90.7z"/>
		<path class="st13" d="M278.5,91L278.5,91c-0.7,0-1.2-0.5-1.2-1.2l0-1.6c0-0.7,0.5-1.2,1.2-1.2l0,0c0.7,0,1.2,0.5,1.2,1.2l0,1.6
			C279.7,90.5,279.2,91,278.5,91z"/>
		<path class="st9" d="M269,78.4c0,2.2-1.8,3.9-4,3.9c-2.2,0-3.9-1.8-3.9-4l0-3.9l7.9,0L269,78.4z"/>
		<g>
			<rect x="256.6" y="95.4" class="st7" width="16.9" height="14.3"/>
			<path class="st8" d="M273,95.9v13.3h-15.9V95.9H273 M274,94.9h-17.9v15.3H274V94.9L274,94.9z"/>
		</g>
		<g>
			<rect x="256.3" y="109.6" class="st7" width="17.4" height="1.8"/>
			<path class="st8" d="M273.2,110.1v0.8h-16.4v-0.8H273.2 M274.2,109.1h-18.4v2.8h18.4V109.1L274.2,109.1z"/>
		</g>
		<g>
			<rect x="245.9" y="73.1" class="st7" width="38.3" height="1.9"/>
			<path class="st8" d="M283.7,73.6v0.9h-37.3v-0.9H283.7 M284.7,72.6h-39.3v2.9h39.3V72.6L284.7,72.6z"/>
		</g>
	</g>
	<g>
		<g>
			<path class="st7" d="M471.3,201.9c-1,0-1.8-0.8-1.8-1.8v-36c0-1,0.8-1.8,1.8-1.8h23.6v39.6H471.3z"/>
			<path class="st8" d="M471.3,161.8v1l23.1,0v38.6h-23.1c-0.7,0-1.3-0.6-1.3-1.3v-36c0-0.7,0.6-1.3,1.3-1.3V161.8 M471.3,161.8
				c-1.3,0-2.3,1-2.3,2.3v36c0,1.3,1,2.3,2.3,2.3h24.1v-40.6L471.3,161.8L471.3,161.8z"/>
		</g>
		<g>
			<path class="st7" d="M471.3,163c-1,0-1.8-0.8-1.8-1.8v-36c0-1,0.8-1.8,1.8-1.8h23.6V163H471.3z"/>
			<path class="st8" d="M494.4,123.9v38.6h-23.1c-0.7,0-1.3-0.6-1.3-1.3v-36c0-0.7,0.6-1.3,1.3-1.3H494.4 M495.4,122.9h-24.1
				c-1.3,0-2.3,1-2.3,2.3v36c0,1.3,1,2.3,2.3,2.3h24.1V122.9L495.4,122.9z"/>
		</g>
		<g>
			<polygon class="st7" points="467.6,207.4 467.6,201.3 494.3,201.3 494.3,124.1 467.6,124.1 467.6,117.9 500.5,117.9 500.5,207.4 
							"/>
			<path class="st8" d="M500,118.4l0,88.5l-31.9,0v-5.2h25.7h1v-1l0-38.1v-38.1v-1h-1h-25.7v-5.2H500 M501,117.4h-33.9v7.2h26.7
				v38.1l0,38.1h-26.7v7.2l33.9,0L501,117.4L501,117.4z"/>
		</g>
	</g>
	<g>
		<rect x="361.1" y="211.3" class="st7" width="55.4" height="37.1"/>
		<path class="st8" d="M416,211.8v36.1h-54.4v-36.1H416 M417,210.8h-56.4v38.1H417V210.8L417,210.8z"/>
	</g>
	<g>
		<rect x="361.1" y="223.1" class="st7" width="55.4" height="3.3"/>
		<path class="st8" d="M415.9,223.6v2.3h-54.4v-2.3H415.9 M416.9,222.6h-56.4v4.3h56.4V222.6L416.9,222.6z"/>
	</g>
	<g>
		<path class="st7" d="M386,205.3c-4.5,0-8.2-3.7-8.2-8.2c0-4.5,3.7-8.2,8.2-8.2c4.5,0,8.2,3.7,8.2,8.2
			C394.2,201.6,390.5,205.3,386,205.3z"/>
		<path class="st8" d="M386,189.4c4.2,0,7.7,3.4,7.7,7.7s-3.4,7.7-7.7,7.7c-4.2,0-7.7-3.4-7.7-7.7S381.8,189.4,386,189.4 M386,188.4
			c-4.8,0-8.7,3.9-8.7,8.7s3.9,8.7,8.7,8.7s8.7-3.9,8.7-8.7S390.8,188.4,386,188.4L386,188.4z"/>
	</g>
	<g>
		<path class="st7" d="M409.2,205.3c-4.5,0-8.2-3.7-8.2-8.2c0-4.5,3.7-8.2,8.2-8.2c4.5,0,8.2,3.7,8.2,8.2
			C417.4,201.6,413.7,205.3,409.2,205.3z"/>
		<path class="st8" d="M409.2,189.4c4.2,0,7.7,3.4,7.7,7.7s-3.4,7.7-7.7,7.7s-7.7-3.4-7.7-7.7S404.9,189.4,409.2,189.4 M409.2,188.4
			c-4.8,0-8.7,3.9-8.7,8.7s3.9,8.7,8.7,8.7c4.8,0,8.7-3.9,8.7-8.7S414,188.4,409.2,188.4L409.2,188.4z"/>
	</g>
	<g>
		<path class="st7" d="M430.1,237c-4.5,0-8.2-3.7-8.2-8.2s3.7-8.2,8.2-8.2c4.5,0,8.2,3.7,8.2,8.2S434.6,237,430.1,237z"/>
		<path class="st8" d="M430.1,221.1c4.2,0,7.7,3.4,7.7,7.7s-3.4,7.7-7.7,7.7c-4.2,0-7.7-3.4-7.7-7.7S425.9,221.1,430.1,221.1
			 M430.1,220.1c-4.8,0-8.7,3.9-8.7,8.7c0,4.8,3.9,8.7,8.7,8.7c4.8,0,8.7-3.9,8.7-8.7C438.8,224,434.9,220.1,430.1,220.1
			L430.1,220.1z"/>
	</g>
	<g id="TV_1_">
		<g id="Rectangle_16_1_">
			<rect x="371.6" y="125.5" class="st7" width="1.8" height="63.6"/>
			<path class="st8" d="M372.9,126l0,62.6h-0.8V126H372.9 M373.9,125h-2.8v64.6h2.8L373.9,125L373.9,125z"/>
		</g>
		<g id="Rectangle_15_1_">
			<rect x="361" y="125.5" class="st7" width="10.6" height="63.6"/>
			<path class="st8" d="M371.1,126l0,62.6h-9.6l0-62.6H371.1 M372.1,125h-11.6l0,64.6h11.6L372.1,125L372.1,125z"/>
		</g>
		<g id="Rectangle_17_1_">
			<rect x="362.6" y="136.3" class="st7" width="1.8" height="41.9"/>
			<path class="st8" d="M363.9,136.8v40.9h-0.8v-40.9H363.9 M364.9,135.8h-2.8v42.9h2.8V135.8L364.9,135.8z"/>
		</g>
		<path id="Rectangle_18_x5F_2_1_" class="st9" d="M362.6,148.2v18.1l-1.6-1.6v-14.9L362.6,148.2z"/>
	</g>
	<g id="TV_2_">
		<g id="Rectangle_16_2_">
			<rect x="335.3" y="172.4" class="st7" width="1.8" height="63.6"/>
			<path class="st8" d="M336.6,172.9v62.6h-0.8v-62.6H336.6 M337.6,171.9h-2.8v64.6h2.8V171.9L337.6,171.9z"/>
		</g>
		<g id="Rectangle_15_2_">
			<rect x="337.1" y="172.4" class="st7" width="10.6" height="63.6"/>
			<path class="st8" d="M347.2,172.9l0,62.6h-9.6l0-62.6H347.2 M348.2,171.9h-11.6l0,64.6h11.6L348.2,171.9L348.2,171.9z"/>
		</g>
		<g id="Rectangle_17_2_">
			<rect x="344.2" y="183.3" class="st7" width="1.8" height="41.9"/>
			<path class="st8" d="M345.6,183.8l0,40.9h-0.8l0-40.9H345.6 M346.6,182.8h-2.8l0,42.9h2.8L346.6,182.8L346.6,182.8z"/>
		</g>
		<path id="Rectangle_18_x5F_2_2_" class="st9" d="M346.1,195.1v18.1l1.6-1.6v-14.9L346.1,195.1z"/>
	</g>
	<g>
		<rect x="377" y="322.7" class="st7" width="37.5" height="8.9"/>
		<path class="st8" d="M414,323.2v7.9h-36.5v-7.9H414 M415,322.2h-38.5v9.9H415V322.2L415,322.2z"/>
	</g>
	<g>
		<g>
			<rect x="361.1" y="382.6" class="st7" width="16.4" height="24.5"/>
			<path class="st8" d="M377,383.1v23.5h-15.4l0-23.5H377 M378,382.1h-17.4l0,25.5H378V382.1L378,382.1z"/>
		</g>
		<g>
			<path class="st7" d="M369.3,400c-2.9,0-5.2-2.3-5.2-5.2s2.3-5.2,5.2-5.2c2.9,0,5.2,2.3,5.2,5.2S372.1,400,369.3,400z"/>
			<path class="st8" d="M369.3,390.2c2.6,0,4.7,2.1,4.7,4.7c0,2.6-2.1,4.7-4.7,4.7c-2.6,0-4.7-2.1-4.7-4.7
				C364.6,392.3,366.7,390.2,369.3,390.2 M369.3,389.2c-3.1,0-5.7,2.5-5.7,5.7c0,3.1,2.5,5.7,5.7,5.7c3.1,0,5.7-2.5,5.7-5.7
				C375,391.7,372.4,389.2,369.3,389.2L369.3,389.2z"/>
		</g>
	</g>
	<g>
		<rect x="341.6" y="318.6" class="st7" width="6.1" height="72.8"/>
		<path class="st8" d="M347.2,319.1V391h-5.1v-71.8H347.2 M348.2,318.1h-7.1V392h7.1V318.1L348.2,318.1z"/>
	</g>
</g>
<g id="Numbers_1_">
	<g>
		<path class="st6" d="M290.4,134.3l1.9-1.6h0.8v6.7h-1v-5.3L291,135L290.4,134.3z"/>
		<path class="st6" d="M297.1,135c0.6,0,1.1,0.2,1.5,0.6c0.4,0.4,0.6,0.9,0.6,1.5c0,0.6-0.2,1.2-0.7,1.6c-0.4,0.4-1,0.6-1.7,0.6
			c-0.8,0-1.4-0.3-1.8-0.9c-0.4-0.6-0.6-1.4-0.6-2.3c0-0.6,0.1-1.2,0.3-1.8c0.2-0.5,0.5-1,0.9-1.3c0.4-0.4,1-0.5,1.6-0.5
			c0.7,0,1.3,0.2,1.7,0.6l-0.4,0.8c-0.4-0.3-0.8-0.4-1.2-0.4c-0.4,0-0.7,0.1-1,0.4c-0.5,0.5-0.8,1.2-0.8,2.1
			c0.1-0.3,0.4-0.5,0.7-0.7S296.7,135,297.1,135z M296.9,138.5c0.4,0,0.7-0.1,0.9-0.4c0.2-0.3,0.4-0.6,0.4-0.9
			c0-0.4-0.1-0.7-0.4-0.9c-0.2-0.2-0.5-0.4-0.9-0.4c-0.4,0-0.7,0.1-0.9,0.4c-0.2,0.2-0.4,0.6-0.4,0.9c0,0.4,0.1,0.7,0.4,0.9
			C296.2,138.4,296.5,138.5,296.9,138.5z"/>
		<path class="st6" d="M300.6,139.5c-0.2,0-0.3-0.1-0.5-0.2c-0.1-0.1-0.2-0.3-0.2-0.5c0-0.2,0.1-0.3,0.2-0.4
			c0.1-0.1,0.3-0.2,0.5-0.2c0.2,0,0.3,0.1,0.4,0.2c0.1,0.1,0.2,0.3,0.2,0.4c0,0.2-0.1,0.3-0.2,0.5
			C301,139.4,300.8,139.5,300.6,139.5z"/>
		<path class="st6" d="M304.3,135c0.6,0,1.2,0.2,1.6,0.6c0.4,0.4,0.6,0.9,0.6,1.6c0,0.7-0.2,1.2-0.7,1.6c-0.4,0.4-1,0.6-1.7,0.6
			c-0.8,0-1.5-0.3-2.2-0.8l0.5-0.8c0.6,0.4,1.1,0.6,1.7,0.6c0.4,0,0.7-0.1,1-0.4c0.3-0.2,0.4-0.5,0.4-0.9c0-0.4-0.1-0.7-0.4-0.9
			c-0.2-0.2-0.6-0.4-1-0.4c-0.5,0-0.9,0.2-1.2,0.5l-0.6-0.4l0.4-3.3h3.4v0.9h-2.6l-0.2,1.6C303.6,135.1,304,135,304.3,135z"/>
	</g>
	<g>
		<path class="st6" d="M417.9,147.2l1.9-1.6h0.8v6.7h-1V147l-1.2,0.9L417.9,147.2z"/>
		<path class="st6" d="M421.6,146.5v-0.9h4.2v0.7l-2.5,6h-1.1l2.5-5.7H421.6z"/>
		<path class="st6" d="M426.4,152.4c-0.2,0-0.3-0.1-0.5-0.2s-0.2-0.3-0.2-0.5c0-0.2,0.1-0.3,0.2-0.4s0.3-0.2,0.5-0.2
			c0.2,0,0.3,0.1,0.4,0.2s0.2,0.3,0.2,0.4c0,0.2-0.1,0.3-0.2,0.5S426.6,152.4,426.4,152.4z"/>
		<path class="st6" d="M430.2,145.5c0.8,0,1.4,0.3,1.8,0.9c0.4,0.6,0.6,1.4,0.6,2.3c0,0.5-0.1,1-0.2,1.4c-0.1,0.4-0.3,0.8-0.5,1.2
			c-0.2,0.3-0.5,0.6-0.9,0.8c-0.4,0.2-0.8,0.3-1.2,0.3c-0.7,0-1.3-0.2-1.8-0.6l0.4-0.8c0.4,0.3,0.9,0.5,1.3,0.5c0.6,0,1-0.2,1.3-0.7
			c0.3-0.5,0.5-1,0.5-1.7c-0.2,0.3-0.4,0.5-0.7,0.6s-0.6,0.2-1,0.2c-0.6,0-1.1-0.2-1.5-0.6c-0.4-0.4-0.6-0.9-0.6-1.5
			c0-0.6,0.2-1.2,0.6-1.6C429,145.7,429.5,145.5,430.2,145.5z M431.4,147.7c0-0.4-0.1-0.7-0.4-0.9c-0.2-0.3-0.5-0.4-0.9-0.4
			c-0.4,0-0.7,0.1-0.9,0.4c-0.2,0.3-0.4,0.6-0.4,0.9c0,0.4,0.1,0.7,0.4,0.9c0.2,0.2,0.5,0.4,0.9,0.4s0.7-0.1,0.9-0.4
			C431.3,148.4,431.4,148.1,431.4,147.7z"/>
	</g>
	<g>
		<path class="st6" d="M449.5,368.6c-0.7,0-1.4-0.2-2.1-0.7l0.5-0.8c0.6,0.4,1.1,0.5,1.6,0.5c0.4,0,0.7-0.1,0.9-0.3
			c0.2-0.2,0.3-0.4,0.3-0.8c0-0.3-0.1-0.6-0.4-0.8c-0.2-0.2-0.5-0.3-0.9-0.3h-0.8v-0.9h0.8c0.3,0,0.6-0.1,0.8-0.3
			c0.2-0.2,0.3-0.4,0.3-0.7c0-0.3-0.1-0.5-0.3-0.7s-0.5-0.3-0.8-0.3c-0.4,0-0.9,0.2-1.4,0.6l-0.5-0.7c0.2-0.2,0.6-0.4,0.9-0.6
			c0.4-0.1,0.7-0.2,1.1-0.2c0.6,0,1.1,0.2,1.5,0.5c0.4,0.3,0.6,0.8,0.6,1.2c0,0.4-0.1,0.7-0.3,0.9c-0.2,0.3-0.5,0.5-0.8,0.6v0
			c0.4,0.1,0.7,0.3,1,0.6c0.2,0.3,0.3,0.6,0.3,1.1c0,0.6-0.2,1-0.6,1.4C450.7,368.5,450.1,368.6,449.5,368.6z"/>
		<path class="st6" d="M453.3,368.7c-0.2,0-0.3-0.1-0.5-0.2s-0.2-0.3-0.2-0.5c0-0.2,0.1-0.3,0.2-0.4s0.3-0.2,0.5-0.2
			c0.2,0,0.3,0.1,0.4,0.2s0.2,0.3,0.2,0.4c0,0.2-0.1,0.3-0.2,0.5S453.5,368.7,453.3,368.7z"/>
		<path class="st6" d="M454.4,362.8v-0.9h4.2v0.7l-2.5,6H455l2.5-5.7H454.4z"/>
	</g>
	<g>
		<path class="st6" d="M389.5,363.4l-1.6,1.8h2.7v1h-4.2v-0.9l2.1-2.3l0.5-0.6c0.1-0.1,0.2-0.3,0.3-0.5c0.1-0.2,0.1-0.4,0.1-0.6
			c0-0.3-0.1-0.5-0.3-0.7c-0.2-0.2-0.5-0.3-0.8-0.3c-0.5,0-1,0.2-1.6,0.7l-0.6-0.7c0.7-0.6,1.4-1,2.2-1c0.6,0,1.1,0.2,1.5,0.6
			c0.4,0.4,0.6,0.9,0.6,1.4C390.5,361.9,390.1,362.6,389.5,363.4z"/>
		<path class="st6" d="M392.1,366.2c-0.2,0-0.3-0.1-0.5-0.2s-0.2-0.3-0.2-0.5c0-0.2,0.1-0.3,0.2-0.4s0.3-0.2,0.5-0.2
			c0.2,0,0.3,0.1,0.4,0.2s0.2,0.3,0.2,0.4c0,0.2-0.1,0.3-0.2,0.5S392.3,366.2,392.1,366.2z"/>
		<path class="st6" d="M396.7,363.4l-1.6,1.8h2.7v1h-4.2v-0.9l2.1-2.3l0.5-0.6c0.1-0.1,0.2-0.3,0.3-0.5c0.1-0.2,0.1-0.4,0.1-0.6
			c0-0.3-0.1-0.5-0.3-0.7c-0.2-0.2-0.5-0.3-0.8-0.3c-0.5,0-1,0.2-1.6,0.7l-0.6-0.7c0.7-0.6,1.4-1,2.2-1c0.6,0,1.1,0.2,1.5,0.6
			c0.4,0.4,0.6,0.9,0.6,1.4C397.7,361.9,397.4,362.6,396.7,363.4z"/>
	</g>
	<g>
		<path class="st6" d="M290.4,353.5c0.6,0,1.2,0.2,1.6,0.6c0.4,0.4,0.6,0.9,0.6,1.6c0,0.7-0.2,1.2-0.7,1.6c-0.4,0.4-1,0.6-1.7,0.6
			c-0.8,0-1.5-0.3-2.2-0.8l0.5-0.8c0.6,0.4,1.1,0.6,1.7,0.6c0.4,0,0.7-0.1,1-0.4c0.3-0.2,0.4-0.5,0.4-0.9c0-0.4-0.1-0.7-0.4-0.9
			c-0.2-0.2-0.6-0.4-1-0.4c-0.5,0-0.9,0.2-1.2,0.5l-0.6-0.4l0.4-3.3h3.4v0.9h-2.6l-0.2,1.6C289.7,353.6,290.1,353.5,290.4,353.5z"/>
		<path class="st6" d="M294.1,358c-0.2,0-0.3-0.1-0.5-0.2c-0.1-0.1-0.2-0.3-0.2-0.5c0-0.2,0.1-0.3,0.2-0.4c0.1-0.1,0.3-0.2,0.5-0.2
			c0.2,0,0.3,0.1,0.4,0.2c0.1,0.1,0.2,0.3,0.2,0.4c0,0.2-0.1,0.3-0.2,0.5C294.4,357.9,294.3,358,294.1,358z"/>
		<path class="st6" d="M295.2,352.1v-0.9h4.2v0.7l-2.5,6h-1.1l2.5-5.7H295.2z"/>
	</g>
</g>
<g id="street_anchors" class="st14">
	<rect id="street_x5F_anchor_x5F_01_1_" x="355" y="20" class="st15" width="10" height="10"/>
</g>
</svg>
