<?xml version="1.0" encoding="utf-8"?>
<!-- Generator: Adobe Illustrator 24.2.0, SVG Export Plug-In . SVG Version: 6.00 Build 0)  -->
<!DOCTYPE svg PUBLIC "-//W3C//DTD SVG 1.1//EN" "http://www.w3.org/Graphics/SVG/1.1/DTD/svg11.dtd" [
	<!ENTITY ns_extend "http://ns.adobe.com/Extensibility/1.0/">
	<!ENTITY ns_ai "http://ns.adobe.com/AdobeIllustrator/10.0/">
	<!ENTITY ns_graphs "http://ns.adobe.com/Graphs/1.0/">
	<!ENTITY ns_vars "http://ns.adobe.com/Variables/1.0/">
	<!ENTITY ns_imrep "http://ns.adobe.com/ImageReplacement/1.0/">
	<!ENTITY ns_sfw "http://ns.adobe.com/SaveForWeb/1.0/">
	<!ENTITY ns_custom "http://ns.adobe.com/GenericCustomNamespace/1.0/">
	<!ENTITY ns_adobe_xpath "http://ns.adobe.com/XPath/1.0/">
]>
<svg version="1.1" id="_x31__x5F_2" xmlns:x="&ns_extend;" xmlns:i="&ns_ai;" xmlns:graph="&ns_graphs;"
	 xmlns="http://www.w3.org/2000/svg" xmlns:xlink="http://www.w3.org/1999/xlink" x="0px" y="0px" viewBox="0 0 720 480"
	 style="enable-background:new 0 0 720 480;" xml:space="preserve">
<style type="text/css">
	.st0{fill:#DBD4CA;}
	.st1{clip-path:url(#SVGID_2_);}
	.st2{fill:none;stroke:#C49F8A;stroke-miterlimit:10;}
	.st3{opacity:0.3;clip-path:url(#SVGID_4_);}
	.st4{opacity:0.7;fill:#C49F8A;enable-background:new    ;}
	.st5{fill:none;stroke:#565440;}
	.st6{fill:#565440;}
	.st7{fill:#E9E4DC;}
	.st8{fill:#C49F8A;}
	.st9{fill:#E9E4DC;stroke:#C49F8A;}
	.st10{fill:#E9E4DC;stroke:#C49F8A;stroke-width:1;stroke-miterlimit:3.9998;}
	.st11{fill:none;stroke:#C49F8A;}
	.st12{fill:#E9E4DC;stroke:#C49F8A;stroke-linejoin:round;}
	.st13{enable-background:new    ;}
	.st14{opacity:0;}
	.st15{fill:#3F3F3F;fill-opacity:0;}
</style>
<metadata>
	<sfw  xmlns="&ns_sfw;">
		<slices></slices>
		<sliceSourceBounds  bottomLeftOrigin="true" height="667.7" width="667.7" x="100.1" y="-130.3"></sliceSourceBounds>
	</sfw>
</metadata>
<rect id="Floor" x="217.7" y="68.3" class="st0" width="287.1" height="351.7"/>
<g id="Wet_Floor_2_">
	<g>
		<defs>
			<rect id="SVGID_1_" x="389" y="300.5" width="109.1" height="111.9"/>
		</defs>
		<clipPath id="SVGID_2_">
			<use xlink:href="#SVGID_1_"  style="overflow:visible;"/>
		</clipPath>
		<g class="st1">
			<g>
				<line class="st2" x1="110.9" y1="286.9" x2="444.3" y2="-46.6"/>
				<line class="st2" x1="100.4" y1="276.5" x2="433.9" y2="-57"/>
				<line class="st2" x1="121.3" y1="297.3" x2="454.8" y2="-36.2"/>
				<line class="st2" x1="131.7" y1="307.7" x2="465.2" y2="-25.8"/>
				<line class="st2" x1="142.1" y1="318.1" x2="475.6" y2="-15.3"/>
				<line class="st2" x1="152.5" y1="328.6" x2="486" y2="-4.9"/>
				<line class="st2" x1="163" y1="339" x2="496.4" y2="5.5"/>
				<line class="st2" x1="173.4" y1="349.4" x2="506.9" y2="15.9"/>
				<line class="st2" x1="183.8" y1="359.8" x2="517.3" y2="26.3"/>
				<line class="st2" x1="194.2" y1="370.3" x2="527.7" y2="36.8"/>
				<line class="st2" x1="183.8" y1="359.8" x2="517.3" y2="26.3"/>
				<line class="st2" x1="204.6" y1="380.7" x2="538.1" y2="47.2"/>
				<line class="st2" x1="215.1" y1="391.1" x2="548.6" y2="57.6"/>
				<line class="st2" x1="225.5" y1="401.5" x2="559" y2="68"/>
				<line class="st2" x1="235.9" y1="411.9" x2="569.4" y2="78.5"/>
				<line class="st2" x1="246.3" y1="422.4" x2="579.8" y2="88.9"/>
				<line class="st2" x1="256.8" y1="432.8" x2="590.2" y2="99.3"/>
				<line class="st2" x1="267.2" y1="443.2" x2="600.7" y2="109.7"/>
				<line class="st2" x1="277.6" y1="453.6" x2="611.1" y2="120.1"/>
				<line class="st2" x1="267.2" y1="443.2" x2="600.7" y2="109.7"/>
				<line class="st2" x1="288" y1="464" x2="621.5" y2="130.6"/>
				<line class="st2" x1="298.4" y1="474.5" x2="631.9" y2="141"/>
				<line class="st2" x1="308.9" y1="484.9" x2="642.3" y2="151.4"/>
				<line class="st2" x1="319.3" y1="495.3" x2="652.8" y2="161.8"/>
				<line class="st2" x1="329.7" y1="505.7" x2="663.2" y2="172.2"/>
				<line class="st2" x1="340.1" y1="516.2" x2="673.6" y2="182.7"/>
				<line class="st2" x1="350.5" y1="526.6" x2="684" y2="193.1"/>
				<line class="st2" x1="361" y1="537" x2="694.5" y2="203.5"/>
				<line class="st2" x1="350.5" y1="526.6" x2="684" y2="193.1"/>
				<line class="st2" x1="371.4" y1="547.4" x2="704.9" y2="213.9"/>
				<line class="st2" x1="381.8" y1="557.8" x2="715.3" y2="224.4"/>
				<line class="st2" x1="392.2" y1="568.3" x2="725.7" y2="234.8"/>
				<line class="st2" x1="402.7" y1="578.7" x2="736.1" y2="245.2"/>
				<line class="st2" x1="413.1" y1="589.1" x2="746.6" y2="255.6"/>
				<line class="st2" x1="423.5" y1="599.5" x2="757" y2="266"/>
				<line class="st2" x1="433.9" y1="609.9" x2="767.4" y2="276.5"/>
			</g>
			<g>
				<line class="st2" x1="444.3" y1="599.5" x2="110.9" y2="266"/>
				<line class="st2" x1="433.9" y1="609.9" x2="100.4" y2="276.5"/>
				<line class="st2" x1="454.8" y1="589.1" x2="121.3" y2="255.6"/>
				<line class="st2" x1="465.2" y1="578.7" x2="131.7" y2="245.2"/>
				<line class="st2" x1="475.6" y1="568.3" x2="142.1" y2="234.8"/>
				<line class="st2" x1="486" y1="557.8" x2="152.5" y2="224.4"/>
				<line class="st2" x1="496.4" y1="547.4" x2="163" y2="213.9"/>
				<line class="st2" x1="506.9" y1="537" x2="173.4" y2="203.5"/>
				<line class="st2" x1="517.3" y1="526.6" x2="183.8" y2="193.1"/>
				<line class="st2" x1="527.7" y1="516.2" x2="194.2" y2="182.7"/>
				<line class="st2" x1="517.3" y1="526.6" x2="183.8" y2="193.1"/>
				<line class="st2" x1="538.1" y1="505.7" x2="204.6" y2="172.2"/>
				<line class="st2" x1="548.6" y1="495.3" x2="215.1" y2="161.8"/>
				<line class="st2" x1="559" y1="484.9" x2="225.5" y2="151.4"/>
				<line class="st2" x1="569.4" y1="474.5" x2="235.9" y2="141"/>
				<line class="st2" x1="579.8" y1="464" x2="246.3" y2="130.6"/>
				<line class="st2" x1="590.2" y1="453.6" x2="256.8" y2="120.1"/>
				<line class="st2" x1="600.7" y1="443.2" x2="267.2" y2="109.7"/>
				<line class="st2" x1="611.1" y1="432.8" x2="277.6" y2="99.3"/>
				<line class="st2" x1="600.7" y1="443.2" x2="267.2" y2="109.7"/>
				<line class="st2" x1="621.5" y1="422.4" x2="288" y2="88.9"/>
				<line class="st2" x1="631.9" y1="411.9" x2="298.4" y2="78.5"/>
				<line class="st2" x1="642.3" y1="401.5" x2="308.9" y2="68"/>
				<line class="st2" x1="652.8" y1="391.1" x2="319.3" y2="57.6"/>
				<line class="st2" x1="663.2" y1="380.7" x2="329.7" y2="47.2"/>
				<line class="st2" x1="673.6" y1="370.3" x2="340.1" y2="36.8"/>
				<line class="st2" x1="684" y1="359.8" x2="350.5" y2="26.3"/>
				<line class="st2" x1="694.5" y1="349.4" x2="361" y2="15.9"/>
				<line class="st2" x1="684" y1="359.8" x2="350.5" y2="26.3"/>
				<line class="st2" x1="704.9" y1="339" x2="371.4" y2="5.5"/>
				<line class="st2" x1="715.3" y1="328.6" x2="381.8" y2="-4.9"/>
				<line class="st2" x1="725.7" y1="318.1" x2="392.2" y2="-15.3"/>
				<line class="st2" x1="736.1" y1="307.7" x2="402.7" y2="-25.8"/>
				<line class="st2" x1="746.6" y1="297.3" x2="413.1" y2="-36.2"/>
				<line class="st2" x1="757" y1="286.9" x2="423.5" y2="-46.6"/>
				<line class="st2" x1="767.4" y1="276.5" x2="433.9" y2="-57"/>
			</g>
		</g>
	</g>
	<g>
		<defs>
			<rect id="SVGID_3_" x="389" y="300.5" width="109.1" height="111.9"/>
		</defs>
		<clipPath id="SVGID_4_">
			<use xlink:href="#SVGID_3_"  style="overflow:visible;"/>
		</clipPath>
		<g class="st3">
			<rect x="272" y="104.9" class="st4" width="322.2" height="322.2"/>
		</g>
	</g>
</g>
<path id="Windows" class="st5" d="M504.8,62.1v6.2l-209,0v-6.2L504.8,62.1z"/>
<path id="Doors" class="st5" d="M364.1,237.9c4.6,0,8.3,0.8,12.4,2.5s7.9,4.1,10.8,7c3.3,2.9,5.8,6.6,7.4,10.8
	c1.7,4.1,2.5,8.3,2.5,12.8h-33.1 M393.1,345.5c4.6,0,8.3-0.8,12.4-2.5c4.1-1.7,7.9-4.1,10.8-7c3.3-2.9,5.8-6.6,7.4-10.8
	c1.7-4.1,2.5-8.3,2.5-12.8l-33.1,0 M360,420c0,5.4-1.2,10.3-3.3,15.3c-2.1,5-5,9.9-9.1,13.7c-3.7,3.7-8.3,7-13.2,9.1
	c-5,2.1-10.3,3.3-15.7,3.3V420"/>
<g id="Walls">
	<polygon class="st6" points="364.1,237.9 364.1,80.7 384.8,80.7 384.8,60 355.9,60 355.9,80.7 360,80.7 360,237.9 	"/>
	<path class="st6" d="M509,60h-66.2v29h53.8l0,211l-103.4,0v-24.8l-29,0V271H360v33.1h4.1v-24.8H389v33.1h4.1v-8.3l103.4,0v79.9
		h-31.1v4.1h6.5v19.4h-78.8v-62.1H389v62.1h-29V420l136.6,0H509L509,60z M496.6,407.6h-20.5v-19.4h20.5V407.6z"/>
	<path class="st6" d="M302.1,379.5h-4.1v28.1h-49.4v-23.4v-0.1h-25l0-295.1l74.5,0V60L211,60l0,360h107.6v-12.4h-16.6V379.5z
		 M244.3,407.6h-20.9v-19.4h20.9V407.6z"/>
</g>
<g id="Furniture">
	<g>
		<rect x="223.9" y="301.7" class="st7" width="26" height="81.9"/>
		<path class="st8" d="M249.5,302.2v80.9h-25v-80.9H249.5 M250.5,301.2h-27v82.9h27V301.2L250.5,301.2z"/>
	</g>
	<g>
		<rect x="249" y="384.6" class="st7" width="48.4" height="22.5"/>
		<path class="st8" d="M296.9,385.1v21.5h-47.4v-21.5H296.9 M297.9,384.1h-49.4v23.5h49.4V384.1L297.9,384.1z"/>
	</g>
	<g>
		<g>
			<rect x="415.5" y="132.3" class="st7" width="80.6" height="67.2"/>
			<path class="st8" d="M416,132.8l79.6,0V199l-79.6,0V132.8 M415,131.8V200l81.6,0v-68.2L415,131.8L415,131.8z"/>
		</g>
		<rect x="470.6" y="167.5" class="st9" width="20.2" height="26.6"/>
		<rect x="470.6" y="137.6" class="st9" width="20.2" height="26.6"/>
		<polygon class="st10" points="478.8,190.9 484,171.7 464.5,166.5 459.3,185.7 		"/>
		<polygon class="st10" points="464.5,165.1 484,160 478.8,140.7 459.3,145.9 		"/>
		<g>
			<polygon class="st7" points="414.7,199.4 414.7,132.3 479,132.3 480.7,159.1 474.7,199.4 			"/>
			<path class="st8" d="M478.5,132.8l1.7,26.2l-5.9,39.9h-59.1l0-66.1h63H478.5 M479.5,131.8h-1.3h-64l0,68.1h60.6h0.4l6-40.9
				L479.5,131.8L479.5,131.8z"/>
		</g>
		<polyline class="st11" points="477.4,132.7 477.4,159.3 474,199.2 		"/>
	</g>
	<g>
		<g>
			<rect x="393.6" y="275.7" class="st7" width="102.6" height="1.8"/>
			<path class="st8" d="M495.7,276.2v0.8l-101.6,0v-0.8H495.7 M496.7,275.2H393.1v2.8l103.6,0L496.7,275.2L496.7,275.2z"/>
		</g>
		<g>
			<rect x="393.6" y="277.5" class="st7" width="102.6" height="22"/>
			<path class="st8" d="M394.1,278h101.6l0,21l-101.6,0L394.1,278 M393.1,277l0,23l103.6,0l0-23H393.1L393.1,277z"/>
		</g>
		<path class="st9" d="M393.6,299.3l102.9-21.5"/>
	</g>
	<g>
		<g>
			<rect x="364.7" y="348.3" class="st7" width="1.8" height="58.7"/>
			<path class="st8" d="M366,348.8l0,57.7h-0.8l0-57.7H366 M367,347.8h-2.8l0,59.7l2.8,0L367,347.8L367,347.8z"/>
		</g>
		<g>
			<rect x="366.5" y="348.3" class="st7" width="22" height="58.7"/>
			<path class="st8" d="M367,348.8h21l0,57.7l-21,0L367,348.8 M366,347.8l0,59.7l23,0l0-59.7H366L366,347.8z"/>
		</g>
		<path class="st9" d="M388.2,407.3L366.8,348"/>
	</g>
	<g>
		<g>
			<rect x="315.8" y="389.3" class="st7" width="1.8" height="17.9"/>
			<path class="st8" d="M317.1,389.8l0,16.9h-0.8l0-16.9H317.1 M318.1,388.8h-2.8l0,18.9h2.8L318.1,388.8L318.1,388.8z"/>
		</g>
		<g>
			<rect x="302.6" y="389.3" class="st7" width="13.2" height="17.9"/>
			<path class="st8" d="M303.1,389.8l12.2,0l0,16.9h-12.2L303.1,389.8 M302.1,388.8l0,18.9h14.2l0-18.9L302.1,388.8L302.1,388.8z"/>
		</g>
		<path class="st9" d="M302.8,389.3l12.8,17.8"/>
	</g>
	<g>
		<g>
			<rect x="467.4" y="304.7" class="st7" width="28.7" height="78.9"/>
			<path class="st8" d="M467.9,305.2l27.7,0l0,77.9l-27.7,0L467.9,305.2 M466.9,304.2l0,79.9l29.7,0l0-79.9L466.9,304.2L466.9,304.2
				z"/>
		</g>
		<g>
			<g>
				<path class="st12" d="M481.7,373.5c5.5,0,9.8-4.8,9.3-10.2c-0.5-6-1-13.6-1-19.2c0-5.6,0.5-13.1,1-19.2
					c0.5-5.5-3.8-10.2-9.3-10.2c-5.5,0-9.8,4.8-9.3,10.2c0.5,6,1,13.6,1,19.2c0,5.6-0.5,13.1-1,19.2
					C471.9,368.7,476.2,373.5,481.7,373.5z"/>
				<ellipse class="st12" cx="481.7" cy="363.9" rx="1.2" ry="1.2"/>
			</g>
		</g>
	</g>
	<g>
		<g id="Rectangle_16_x5F_11_2_">
			<rect x="441.6" y="389.3" class="st7" width="23.4" height="17.8"/>
			<path class="st8" d="M464.5,389.8v16.8h-22.4v-16.8H464.5 M465.5,388.8h-24.4v18.8h24.4V388.8L465.5,388.8z"/>
		</g>
		<path id="Rectangle_19_x5F_5_2_" class="st9" d="M463.2,398.2L463.2,398.2c0-3.2-2.6-5.8-5.8-5.8h-8.2c-3.2,0-5.8,2.6-5.8,5.8l0,0
			c0,3.2,2.6,5.8,5.8,5.8h8.2C460.6,403.9,463.2,401.4,463.2,398.2z"/>
		<circle id="Ellipse_7_x5F_2_2_" class="st9" cx="453.3" cy="400.7" r="1.2"/>
	</g>
	<g id="Sink_3">
		<rect id="Rectangle_28_x5F_2" x="258.3" y="386.8" class="st9" width="27.9" height="17.6"/>
		<path id="Rectangle_29_x5F_2" class="st9" d="M269.2,395.7L269.2,395.7c0-3.7,3-6.6,6.6-6.6h1.5c3.7,0,6.6,3,6.6,6.6v0
			c0,3.7-3,6.6-6.6,6.6h-1.5C272.2,402.3,269.2,399.3,269.2,395.7z"/>
		<ellipse id="Ellipse_7_x5F_3" class="st9" cx="276.6" cy="398.6" rx="1.2" ry="1.2"/>
		<path id="Vector_2" class="st11" d="M259.7,402.3h7.4 M259.7,400.1h7.4 M259.7,397.9h7.4 M259.7,395.7h7.4 M259.7,393.5h7.4
			 M259.7,391.3h7.4 M259.7,389h7.4"/>
	</g>
	<g id="Stove">
		<g id="Rectangle_25">
			<rect x="223.9" y="304.1" class="st7" width="26" height="25.3"/>
			<path class="st8" d="M249.5,304.6v24.3h-25v-24.3H249.5 M250.5,303.6h-27v26.3h27V303.6L250.5,303.6z"/>
		</g>
		<g id="Rectangle_28_x5F_3_1_">
			<rect x="223.9" y="304.1" class="st7" width="1.8" height="25.3"/>
			<path class="st8" d="M225.3,304.6v24.3h-0.8v-24.3H225.3 M226.3,303.6h-2.8v26.3h2.8V303.6L226.3,303.6z"/>
		</g>
		<g id="Ellipse_7_x5F_4">
			<path class="st7" d="M232.7,313.3c-1.6,0-2.9-1.3-2.9-2.9s1.3-2.9,2.9-2.9c1.6,0,2.9,1.3,2.9,2.9S234.3,313.3,232.7,313.3z"/>
			<path class="st8" d="M232.7,308c1.3,0,2.4,1.1,2.4,2.4c0,1.3-1.1,2.4-2.4,2.4s-2.4-1.1-2.4-2.4C230.4,309.1,231.4,308,232.7,308
				 M232.7,307c-1.9,0-3.4,1.5-3.4,3.4c0,1.9,1.5,3.4,3.4,3.4c1.9,0,3.4-1.5,3.4-3.4C236.1,308.5,234.6,307,232.7,307L232.7,307z"/>
		</g>
		<g id="Ellipse_9">
			<path class="st7" d="M242.9,314.1c-2.1,0-3.7-1.7-3.7-3.7s1.7-3.7,3.7-3.7c2.1,0,3.7,1.7,3.7,3.7S244.9,314.1,242.9,314.1z"/>
			<path class="st8" d="M242.9,307.2c1.8,0,3.2,1.4,3.2,3.2c0,1.8-1.4,3.2-3.2,3.2s-3.2-1.4-3.2-3.2
				C239.6,308.6,241.1,307.2,242.9,307.2 M242.9,306.2c-2.3,0-4.2,1.9-4.2,4.2s1.9,4.2,4.2,4.2s4.2-1.9,4.2-4.2
				S245.2,306.2,242.9,306.2L242.9,306.2z"/>
		</g>
		<g id="Ellipse_10">
			<path class="st7" d="M232.7,325.9c-2.1,0-3.7-1.7-3.7-3.7s1.7-3.7,3.7-3.7c2.1,0,3.7,1.7,3.7,3.7S234.8,325.9,232.7,325.9z"/>
			<path class="st8" d="M232.7,319c1.8,0,3.2,1.4,3.2,3.2c0,1.8-1.4,3.2-3.2,3.2s-3.2-1.4-3.2-3.2C229.5,320.4,231,319,232.7,319
				 M232.7,318c-2.3,0-4.2,1.9-4.2,4.2c0,2.3,1.9,4.2,4.2,4.2s4.2-1.9,4.2-4.2C237,319.9,235.1,318,232.7,318L232.7,318z"/>
		</g>
		<g id="Ellipse_8">
			<path class="st7" d="M243.7,325.1c-1.6,0-2.9-1.3-2.9-2.9s1.3-2.9,2.9-2.9c1.6,0,2.9,1.3,2.9,2.9S245.3,325.1,243.7,325.1z"/>
			<path class="st8" d="M243.7,319.8c1.3,0,2.4,1.1,2.4,2.4c0,1.3-1.1,2.4-2.4,2.4s-2.4-1.1-2.4-2.4
				C241.3,320.9,242.4,319.8,243.7,319.8 M243.7,318.8c-1.9,0-3.4,1.5-3.4,3.4c0,1.9,1.5,3.4,3.4,3.4c1.9,0,3.4-1.5,3.4-3.4
				C247.1,320.3,245.6,318.8,243.7,318.8L243.7,318.8z"/>
		</g>
	</g>
	<g id="Toilet_1_">
		<g id="Rectangle_21_1_">
			<rect x="408.9" y="392.6" class="st7" width="16.8" height="5.6"/>
			<path class="st8" d="M425.2,393.1v4.6h-15.8v-4.6H425.2 M426.2,392.1h-17.8v6.6h17.8V392.1L426.2,392.1z"/>
		</g>
		<path id="Rectangle_19_x5F_2_1_" class="st9" d="M423.6,380.9c0.2-3.7-2.7-6.8-6.3-6.8l0,0c-3.7,0-6.6,3.1-6.3,6.8l0.8,11.8h11.1
			L423.6,380.9z"/>
		<path id="Rectangle_18_x5F_13_1_" class="st9" d="M421.6,381.2c0.2-2.5-1.8-4.7-4.3-4.7l0,0c-2.5,0-4.5,2.2-4.3,4.7l0.6,6.9h7.4
			L421.6,381.2z"/>
		<ellipse id="Ellipse_6_x5F_2_1_" class="st9" cx="417.3" cy="385.2" rx="1.2" ry="1.2"/>
	</g>
	<g>
		<g>
			<rect x="223.9" y="356.9" class="st7" width="26" height="26.6"/>
			<path class="st8" d="M249.4,357.4l0,25.6l-25,0l0-25.6H249.4 M250.4,356.4h-27l0,27.6l27,0L250.4,356.4L250.4,356.4z"/>
		</g>
		<g id="Rectangle_27_2_">
			<rect x="248.1" y="356.9" class="st7" width="1.8" height="26.6"/>
			<path class="st8" d="M249.4,357.4l0,25.6h-0.8l0-25.6H249.4 M250.4,356.4h-2.8l0,27.6l2.8,0L250.4,356.4L250.4,356.4z"/>
		</g>
		<path id="Vector_3" class="st11" d="M237,365.8v8.9 M240.9,368l-7.8,4.4 M233.1,368l7.8,4.4"/>
	</g>
	<g>
		<g>
			<path class="st7" d="M229.5,204.7v-39.6h23.6c1,0,1.8,0.8,1.8,1.8v36c0,1-0.8,1.8-1.8,1.8H229.5z"/>
			<path class="st8" d="M253.2,164.6v1c0.7,0,1.3,0.6,1.3,1.3v36c0,0.7-0.6,1.3-1.3,1.3H230v-38.6l23.1,0V164.6 M253.2,164.6
				l-24.1,0v40.6h24.1c1.3,0,2.3-1,2.3-2.3v-36C255.5,165.6,254.4,164.6,253.2,164.6L253.2,164.6z"/>
		</g>
		<g>
			<path class="st7" d="M229.5,165.8v-39.6h23.6c1,0,1.8,0.8,1.8,1.8v36c0,1-0.8,1.8-1.8,1.8H229.5z"/>
			<path class="st8" d="M253.2,125.7v1c0.7,0,1.3,0.6,1.3,1.3v36c0,0.7-0.6,1.3-1.3,1.3H230l0-38.6l23.1,0V125.7 M253.2,125.7
				l-24.1,0l0,40.6h24.1c1.3,0,2.3-1,2.3-2.3v-36C255.5,126.7,254.4,125.7,253.2,125.7L253.2,125.7z"/>
		</g>
		<g>
			<polygon class="st7" points="223.9,210.2 223.9,120.7 256.8,120.7 256.8,126.8 230.1,126.8 230.1,204 256.8,204 256.8,210.2 			
				"/>
			<path class="st8" d="M256.3,121.2v5.2h-25.7h-1v1l0,38.1l0,38.1v1h1h25.7v5.2l-31.9,0l0-88.5L256.3,121.2 M257.3,120.2l-33.9,0
				l0,90.5l33.9,0v-7.2h-26.7l0-38.1l0-38.1h26.7V120.2L257.3,120.2z"/>
		</g>
	</g>
	<g>
		<rect x="223.9" y="265" class="st7" width="78.6" height="36.7"/>
		<path class="st8" d="M302,265.5v35.7h-77.6v-35.7H302 M303,264.5h-79.6v37.7H303V264.5L303,264.5z"/>
	</g>
	<g>
		<rect x="223.9" y="275.4" class="st7" width="78.6" height="3.5"/>
		<path class="st8" d="M302,275.9v2.5h-77.6v-2.5H302 M303,274.9h-79.6v4.5H303V274.9L303,274.9z"/>
	</g>
	<g>
		<circle class="st7" cx="235.2" cy="248.5" r="8.5"/>
		<path class="st8" d="M235.2,240.5c4.4,0,8,3.6,8,8s-3.6,8-8,8s-8-3.6-8-8S230.8,240.5,235.2,240.5 M235.2,239.5c-5,0-9,4-9,9
			s4,9,9,9s9-4,9-9S240.1,239.5,235.2,239.5L235.2,239.5z"/>
	</g>
	<g>
		<circle class="st7" cx="262.5" cy="248.5" r="8.5"/>
		<path class="st8" d="M262.5,240.5c4.4,0,8,3.6,8,8s-3.6,8-8,8s-8-3.6-8-8S258.1,240.5,262.5,240.5 M262.5,239.5c-5,0-9,4-9,9
			s4,9,9,9c5,0,9-4,9-9S267.5,239.5,262.5,239.5L262.5,239.5z"/>
	</g>
	<g>
		<path class="st7" d="M292.3,257c-4.7,0-8.5-3.8-8.5-8.5s3.8-8.5,8.5-8.5c4.7,0,8.5,3.8,8.5,8.5S297,257,292.3,257z"/>
		<path class="st8" d="M292.3,240.5c4.4,0,8,3.6,8,8s-3.6,8-8,8s-8-3.6-8-8S287.9,240.5,292.3,240.5 M292.3,239.5c-5,0-9,4-9,9
			s4,9,9,9s9-4,9-9S297.3,239.5,292.3,239.5L292.3,239.5z"/>
	</g>
	<g>
		<g>
			<rect x="364.6" y="279.8" class="st7" width="23.8" height="20.6"/>
			<path class="st8" d="M388,280.3v19.6h-22.8v-19.6H388 M389,279.3h-24.8v21.6H389V279.3L389,279.3z"/>
		</g>
		<g>
			<line class="st11" x1="364.7" y1="280.1" x2="372.6" y2="286.8"/>
		</g>
		<g>
			<line class="st11" x1="388.4" y1="280.1" x2="380.4" y2="286.8"/>
		</g>
		<g>
			<line class="st11" x1="364.7" y1="300.2" x2="372.6" y2="293.5"/>
		</g>
		<g>
			<line class="st11" x1="388.4" y1="300.2" x2="380.4" y2="293.5"/>
		</g>
	</g>
	<g id="TV">
		<g id="Rectangle_16">
			<rect x="347.1" y="133.3" class="st7" width="1.8" height="63.6"/>
			<path class="st8" d="M348.4,133.8v62.6h-0.8v-62.6H348.4 M349.4,132.8h-2.8v64.6h2.8V132.8L349.4,132.8z"/>
		</g>
		<g id="Rectangle_15">
			<rect x="348.9" y="133.3" class="st7" width="10.6" height="63.6"/>
			<path class="st8" d="M359,133.8v62.6h-9.6v-62.6H359 M360,132.8h-11.6v64.6H360V132.8L360,132.8z"/>
		</g>
		<g id="Rectangle_17">
			<rect x="356" y="144.2" class="st7" width="1.8" height="41.9"/>
			<path class="st8" d="M357.4,144.7v40.9h-0.8v-40.9H357.4 M358.4,143.7h-2.8v42.9h2.8V143.7L358.4,143.7z"/>
		</g>
		<path id="Rectangle_18_x5F_2" class="st9" d="M357.9,174.2V156l1.6,1.6v14.9L357.9,174.2z"/>
	</g>
	<g id="TV_1_">
		<g id="Rectangle_16_1_">
			<rect x="375.2" y="133.3" class="st7" width="1.8" height="63.6"/>
			<path class="st8" d="M376.6,133.8l0,62.6h-0.8v-62.6H376.6 M377.6,132.8h-2.8v64.6h2.8L377.6,132.8L377.6,132.8z"/>
		</g>
		<g id="Rectangle_15_1_">
			<rect x="364.6" y="133.3" class="st7" width="10.6" height="63.6"/>
			<path class="st8" d="M374.7,133.8l0,62.6h-9.6l0-62.6H374.7 M375.7,132.8h-11.6l0,64.6h11.6L375.7,132.8L375.7,132.8z"/>
		</g>
		<g id="Rectangle_17_1_">
			<rect x="366.3" y="144.2" class="st7" width="1.8" height="41.9"/>
			<path class="st8" d="M367.6,144.7v40.9h-0.8l0-40.9H367.6 M368.6,143.7h-2.8l0,42.9h2.8V143.7L368.6,143.7z"/>
		</g>
		<path id="Rectangle_18_x5F_2_1_" class="st9" d="M366.3,156v18.1l-1.6-1.6v-14.9L366.3,156z"/>
	</g>
	<g>
		<rect x="393.6" y="398.2" class="st7" width="48" height="8.9"/>
		<path class="st8" d="M441.1,398.7v7.9h-47v-7.9H441.1 M442.1,397.7h-49v9.9h49V397.7L442.1,397.7z"/>
	</g>
</g>
<g id="Numbers_1_">
	<g class="st13">
		<path class="st6" d="M295.6,165.7l-1.6,1.8h2.7v1h-4.2v-0.9l2.1-2.3l0.5-0.6c0.1-0.1,0.2-0.3,0.3-0.5s0.1-0.4,0.1-0.6
			c0-0.3-0.1-0.5-0.3-0.7c-0.2-0.2-0.5-0.3-0.8-0.3c-0.5,0-1,0.2-1.6,0.7l-0.6-0.7c0.7-0.6,1.4-1,2.2-1c0.6,0,1.1,0.2,1.5,0.6
			c0.4,0.4,0.6,0.9,0.6,1.4C296.6,164.3,296.3,165,295.6,165.7z"/>
		<path class="st6" d="M297.1,163.4l1.9-1.6h0.8v6.7h-1v-5.3l-1.2,0.9L297.1,163.4z"/>
		<path class="st6" d="M301.8,168.6c-0.2,0-0.3-0.1-0.5-0.2c-0.1-0.1-0.2-0.3-0.2-0.5c0-0.2,0.1-0.3,0.2-0.4
			c0.1-0.1,0.3-0.2,0.5-0.2c0.2,0,0.3,0.1,0.4,0.2c0.1,0.1,0.2,0.3,0.2,0.4c0,0.2-0.1,0.3-0.2,0.5
			C302.1,168.5,301.9,168.6,301.8,168.6z"/>
		<path class="st6" d="M305.7,164.1c0.6,0,1.1,0.2,1.5,0.6c0.4,0.4,0.6,0.9,0.6,1.5c0,0.6-0.2,1.2-0.7,1.6c-0.4,0.4-1,0.6-1.7,0.6
			c-0.8,0-1.4-0.3-1.8-0.9c-0.4-0.6-0.6-1.4-0.6-2.3c0-0.6,0.1-1.2,0.3-1.8c0.2-0.5,0.5-1,0.9-1.3c0.4-0.4,1-0.5,1.6-0.5
			c0.7,0,1.3,0.2,1.7,0.6l-0.4,0.8c-0.4-0.3-0.8-0.4-1.2-0.4c-0.4,0-0.7,0.1-1,0.4c-0.5,0.5-0.8,1.2-0.8,2.1
			c0.1-0.3,0.4-0.5,0.7-0.7S305.4,164.1,305.7,164.1z M305.5,167.6c0.4,0,0.7-0.1,0.9-0.4c0.2-0.3,0.4-0.6,0.4-0.9
			c0-0.4-0.1-0.7-0.4-0.9c-0.2-0.2-0.5-0.4-0.9-0.4c-0.4,0-0.7,0.1-0.9,0.4c-0.2,0.2-0.4,0.6-0.4,0.9c0,0.4,0.1,0.7,0.4,0.9
			C304.9,167.5,305.2,167.6,305.5,167.6z"/>
	</g>
	<g class="st13">
		<path class="st6" d="M432.3,224l1.9-1.6h0.8v6.7h-1v-5.3l-1.2,0.9L432.3,224z"/>
		<path class="st6" d="M438.4,224.7c0.6,0,1.2,0.2,1.6,0.6c0.4,0.4,0.6,0.9,0.6,1.6c0,0.7-0.2,1.2-0.7,1.6c-0.4,0.4-1,0.6-1.7,0.6
			c-0.8,0-1.5-0.3-2.2-0.8l0.5-0.8c0.6,0.4,1.1,0.6,1.7,0.6c0.4,0,0.7-0.1,1-0.4c0.3-0.2,0.4-0.5,0.4-0.9c0-0.4-0.1-0.7-0.4-0.9
			c-0.2-0.2-0.6-0.4-1-0.4c-0.5,0-0.9,0.2-1.2,0.5l-0.6-0.4l0.4-3.3h3.4v0.9h-2.6l-0.2,1.6C437.7,224.8,438.1,224.7,438.4,224.7z"/>
		<path class="st6" d="M442.1,229.2c-0.2,0-0.3-0.1-0.5-0.2s-0.2-0.3-0.2-0.5c0-0.2,0.1-0.3,0.2-0.4s0.3-0.2,0.5-0.2
			c0.2,0,0.3,0.1,0.4,0.2s0.2,0.3,0.2,0.4c0,0.2-0.1,0.3-0.2,0.5S442.3,229.2,442.1,229.2z"/>
		<path class="st6" d="M446.7,226.3l-1.6,1.8h2.7v1h-4.2v-0.9l2.1-2.3l0.5-0.6c0.1-0.1,0.2-0.3,0.3-0.5s0.1-0.4,0.1-0.6
			c0-0.3-0.1-0.5-0.3-0.7c-0.2-0.2-0.5-0.3-0.8-0.3c-0.5,0-1,0.2-1.6,0.7l-0.6-0.7c0.7-0.6,1.4-1,2.2-1c0.6,0,1.1,0.2,1.5,0.6
			c0.4,0.4,0.6,0.9,0.6,1.4C447.7,224.9,447.4,225.5,446.7,226.3z"/>
	</g>
	<g class="st13">
		<path class="st6" d="M436.6,353.5h0.7v0.9h-0.7v1.6h-1v-1.6h-3l-0.2-0.6l3.6-4.4h0.7V353.5z M435.6,351.1l-2,2.4h2V351.1z"/>
		<path class="st6" d="M438.7,356.2c-0.2,0-0.3-0.1-0.5-0.2c-0.1-0.1-0.2-0.3-0.2-0.5c0-0.2,0.1-0.3,0.2-0.4
			c0.1-0.1,0.3-0.2,0.5-0.2c0.2,0,0.3,0.1,0.4,0.2c0.1,0.1,0.2,0.3,0.2,0.4c0,0.2-0.1,0.3-0.2,0.5
			C439.1,356.1,438.9,356.2,438.7,356.2z"/>
		<path class="st6" d="M442.6,356.1c-0.7,0-1.3-0.2-1.7-0.5c-0.5-0.4-0.7-0.8-0.7-1.4c0-0.4,0.1-0.7,0.4-1c0.2-0.3,0.5-0.5,0.9-0.7
			v0c-0.3-0.1-0.6-0.4-0.7-0.6c-0.2-0.3-0.3-0.5-0.3-0.9c0-0.5,0.2-0.9,0.6-1.3c0.4-0.3,0.9-0.5,1.5-0.5c0.6,0,1.1,0.2,1.5,0.5
			c0.4,0.3,0.6,0.8,0.6,1.3c0,0.3-0.1,0.6-0.3,0.9c-0.2,0.3-0.4,0.5-0.7,0.6v0c0.4,0.1,0.7,0.4,0.9,0.7s0.4,0.7,0.4,1
			c0,0.6-0.2,1-0.7,1.4C443.9,356,443.3,356.1,442.6,356.1z M442.6,355.2c0.4,0,0.7-0.1,1-0.3c0.3-0.2,0.4-0.5,0.4-0.8
			c0-0.3-0.1-0.6-0.4-0.8c-0.3-0.2-0.6-0.3-1-0.3s-0.7,0.1-1,0.3c-0.3,0.2-0.4,0.5-0.4,0.8c0,0.3,0.1,0.6,0.4,0.8
			C441.9,355.1,442.2,355.2,442.6,355.2z M443.5,351.8c0.2-0.2,0.3-0.4,0.3-0.7s-0.1-0.5-0.3-0.7c-0.2-0.2-0.5-0.3-0.8-0.3
			c-0.3,0-0.6,0.1-0.8,0.3c-0.2,0.2-0.3,0.4-0.3,0.7s0.1,0.5,0.3,0.7c0.2,0.2,0.5,0.3,0.8,0.3S443.2,352,443.5,351.8z"/>
	</g>
	<g>
		<path class="st6" d="M370.4,321.6l1.9-1.6h0.8v6.7h-1v-5.3l-1.2,0.9L370.4,321.6z"/>
		<path class="st6" d="M375,326.8c-0.2,0-0.3-0.1-0.5-0.2s-0.2-0.3-0.2-0.5c0-0.2,0.1-0.3,0.2-0.4s0.3-0.2,0.5-0.2
			c0.2,0,0.3,0.1,0.4,0.2s0.2,0.3,0.2,0.4c0,0.2-0.1,0.3-0.2,0.5S375.2,326.8,375,326.8z"/>
		<path class="st6" d="M375.6,321.6l1.9-1.6h0.8v6.7h-1v-5.3l-1.2,0.9L375.6,321.6z"/>
	</g>
	<g>
		<path class="st6" d="M337.7,364.8l-1.6,1.8h2.7v1h-4.2v-0.9l2.1-2.3l0.5-0.6c0.1-0.1,0.2-0.3,0.3-0.5s0.1-0.4,0.1-0.6
			c0-0.3-0.1-0.5-0.3-0.7c-0.2-0.2-0.5-0.3-0.8-0.3c-0.5,0-1,0.2-1.6,0.7l-0.6-0.7c0.7-0.6,1.4-1,2.2-1c0.6,0,1.1,0.2,1.5,0.6
			c0.4,0.4,0.6,0.9,0.6,1.4C338.7,363.4,338.4,364,337.7,364.8z"/>
		<path class="st6" d="M340.3,367.7c-0.2,0-0.3-0.1-0.5-0.2c-0.1-0.1-0.2-0.3-0.2-0.5c0-0.2,0.1-0.3,0.2-0.4
			c0.1-0.1,0.3-0.2,0.5-0.2c0.2,0,0.3,0.1,0.4,0.2c0.1,0.1,0.2,0.3,0.2,0.4c0,0.2-0.1,0.3-0.2,0.5
			C340.6,367.6,340.5,367.7,340.3,367.7z"/>
		<path class="st6" d="M345.7,365h0.7v0.9h-0.7v1.6h-1v-1.6h-3l-0.2-0.6l3.6-4.4h0.7V365z M344.7,362.6l-2,2.4h2V362.6z"/>
	</g>
</g>
<g id="street_anchors" class="st14">
	<rect id="street_x5F_anchor_x5F_01_1_" x="355" y="20" class="st15" width="10" height="10"/>
</g>
</svg>
