<?xml version="1.0" encoding="utf-8"?>
<!-- Generator: Adobe Illustrator 24.2.0, SVG Export Plug-In . SVG Version: 6.00 Build 0)  -->
<!DOCTYPE svg PUBLIC "-//W3C//DTD SVG 1.1//EN" "http://www.w3.org/Graphics/SVG/1.1/DTD/svg11.dtd" [
	<!ENTITY ns_extend "http://ns.adobe.com/Extensibility/1.0/">
	<!ENTITY ns_ai "http://ns.adobe.com/AdobeIllustrator/10.0/">
	<!ENTITY ns_graphs "http://ns.adobe.com/Graphs/1.0/">
	<!ENTITY ns_vars "http://ns.adobe.com/Variables/1.0/">
	<!ENTITY ns_imrep "http://ns.adobe.com/ImageReplacement/1.0/">
	<!ENTITY ns_sfw "http://ns.adobe.com/SaveForWeb/1.0/">
	<!ENTITY ns_custom "http://ns.adobe.com/GenericCustomNamespace/1.0/">
	<!ENTITY ns_adobe_xpath "http://ns.adobe.com/XPath/1.0/">
]>
<svg version="1.1" id="_x31__x5F_2" xmlns:x="&ns_extend;" xmlns:i="&ns_ai;" xmlns:graph="&ns_graphs;"
	 xmlns="http://www.w3.org/2000/svg" xmlns:xlink="http://www.w3.org/1999/xlink" x="0px" y="0px" viewBox="0 0 720 480"
	 style="enable-background:new 0 0 720 480;" xml:space="preserve">
<style type="text/css">
	.st0{fill:#DBD4CA;}
	.st1{clip-path:url(#SVGID_2_);}
	.st2{fill:none;stroke:#C49F8A;stroke-miterlimit:10;}
	.st3{opacity:0.3;clip-path:url(#SVGID_4_);}
	.st4{opacity:0.7;fill:#C49F8A;enable-background:new    ;}
	.st5{fill:none;stroke:#565440;}
	.st6{fill:#565440;}
	.st7{fill:#E9E4DC;}
	.st8{fill:#C49F8A;}
	.st9{fill:#E9E4DC;stroke:#C49F8A;}
	.st10{fill:#E9E4DC;stroke:#C49F8A;stroke-width:1;stroke-miterlimit:3.9998;}
	.st11{fill:none;stroke:#C49F8A;}
	.st12{fill:#E9E4DC;stroke:#C49F8A;stroke-linejoin:round;}
	.st13{fill:#E9E4DC;stroke:#C49F8A;stroke-width:1;stroke-miterlimit:4;}
	.st14{fill:#3F3F3F;fill-opacity:0;}
</style>
<metadata>
	<sfw  xmlns="&ns_sfw;">
		<slices></slices>
		<sliceSourceBounds  bottomLeftOrigin="true" height="667.7" width="667.7" x="-59.4" y="-32.5"></sliceSourceBounds>
	</sfw>
</metadata>
<rect id="Floor" x="224.2" y="66.3" class="st0" width="265.3" height="347.4"/>
<g id="Wet_Floor_2_">
	<g>
		<defs>
			<rect id="SVGID_1_" x="230.3" y="195.8" width="87" height="129.5"/>
		</defs>
		<clipPath id="SVGID_2_">
			<use xlink:href="#SVGID_1_"  style="overflow:visible;"/>
		</clipPath>
		<g class="st1">
			<g>
				<line class="st2" x1="-48.7" y1="189" x2="284.8" y2="-144.4"/>
				<line class="st2" x1="-59.1" y1="178.6" x2="274.4" y2="-154.9"/>
				<line class="st2" x1="-38.2" y1="199.5" x2="295.2" y2="-134"/>
				<line class="st2" x1="-27.8" y1="209.9" x2="305.7" y2="-123.6"/>
				<line class="st2" x1="-17.4" y1="220.3" x2="316.1" y2="-113.2"/>
				<line class="st2" x1="-7" y1="230.7" x2="326.5" y2="-102.8"/>
				<line class="st2" x1="3.4" y1="241.2" x2="336.9" y2="-92.3"/>
				<line class="st2" x1="13.9" y1="251.6" x2="347.3" y2="-81.9"/>
				<line class="st2" x1="24.3" y1="262" x2="357.8" y2="-71.5"/>
				<line class="st2" x1="34.7" y1="272.4" x2="368.2" y2="-61.1"/>
				<line class="st2" x1="24.3" y1="262" x2="357.8" y2="-71.5"/>
				<line class="st2" x1="45.1" y1="282.8" x2="378.6" y2="-50.6"/>
				<line class="st2" x1="55.6" y1="293.3" x2="389" y2="-40.2"/>
				<line class="st2" x1="66" y1="303.7" x2="399.5" y2="-29.8"/>
				<line class="st2" x1="76.4" y1="314.1" x2="409.9" y2="-19.4"/>
				<line class="st2" x1="86.8" y1="324.5" x2="420.3" y2="-9"/>
				<line class="st2" x1="97.2" y1="334.9" x2="430.7" y2="1.5"/>
				<line class="st2" x1="107.7" y1="345.4" x2="441.1" y2="11.9"/>
				<line class="st2" x1="118.1" y1="355.8" x2="451.6" y2="22.3"/>
				<line class="st2" x1="107.7" y1="345.4" x2="441.1" y2="11.9"/>
				<line class="st2" x1="128.5" y1="366.2" x2="462" y2="32.7"/>
				<line class="st2" x1="138.9" y1="376.6" x2="472.4" y2="43.1"/>
				<line class="st2" x1="149.3" y1="387" x2="482.8" y2="53.6"/>
				<line class="st2" x1="159.8" y1="397.5" x2="493.2" y2="64"/>
				<line class="st2" x1="170.2" y1="407.9" x2="503.7" y2="74.4"/>
				<line class="st2" x1="180.6" y1="418.3" x2="514.1" y2="84.8"/>
				<line class="st2" x1="191" y1="428.7" x2="524.5" y2="95.3"/>
				<line class="st2" x1="201.4" y1="439.2" x2="534.9" y2="105.7"/>
				<line class="st2" x1="191" y1="428.7" x2="524.5" y2="95.3"/>
				<line class="st2" x1="211.9" y1="449.6" x2="545.4" y2="116.1"/>
				<line class="st2" x1="222.3" y1="460" x2="555.8" y2="126.5"/>
				<line class="st2" x1="232.7" y1="470.4" x2="566.2" y2="136.9"/>
				<line class="st2" x1="243.1" y1="480.8" x2="576.6" y2="147.4"/>
				<line class="st2" x1="253.6" y1="491.3" x2="587" y2="157.8"/>
				<line class="st2" x1="264" y1="501.7" x2="597.5" y2="168.2"/>
				<line class="st2" x1="274.4" y1="512.1" x2="607.9" y2="178.6"/>
			</g>
			<g>
				<line class="st2" x1="284.8" y1="501.7" x2="-48.7" y2="168.2"/>
				<line class="st2" x1="274.4" y1="512.1" x2="-59.1" y2="178.6"/>
				<line class="st2" x1="295.2" y1="491.3" x2="-38.2" y2="157.8"/>
				<line class="st2" x1="305.7" y1="480.8" x2="-27.8" y2="147.4"/>
				<line class="st2" x1="316.1" y1="470.4" x2="-17.4" y2="136.9"/>
				<line class="st2" x1="326.5" y1="460" x2="-7" y2="126.5"/>
				<line class="st2" x1="336.9" y1="449.6" x2="3.4" y2="116.1"/>
				<line class="st2" x1="347.3" y1="439.2" x2="13.9" y2="105.7"/>
				<line class="st2" x1="357.8" y1="428.7" x2="24.3" y2="95.3"/>
				<line class="st2" x1="368.2" y1="418.3" x2="34.7" y2="84.8"/>
				<line class="st2" x1="357.8" y1="428.7" x2="24.3" y2="95.3"/>
				<line class="st2" x1="378.6" y1="407.9" x2="45.1" y2="74.4"/>
				<line class="st2" x1="389" y1="397.5" x2="55.6" y2="64"/>
				<line class="st2" x1="399.5" y1="387" x2="66" y2="53.6"/>
				<line class="st2" x1="409.9" y1="376.6" x2="76.4" y2="43.1"/>
				<line class="st2" x1="420.3" y1="366.2" x2="86.8" y2="32.7"/>
				<line class="st2" x1="430.7" y1="355.8" x2="97.2" y2="22.3"/>
				<line class="st2" x1="441.1" y1="345.4" x2="107.7" y2="11.9"/>
				<line class="st2" x1="451.6" y1="334.9" x2="118.1" y2="1.5"/>
				<line class="st2" x1="441.1" y1="345.4" x2="107.7" y2="11.9"/>
				<line class="st2" x1="462" y1="324.5" x2="128.5" y2="-9"/>
				<line class="st2" x1="472.4" y1="314.1" x2="138.9" y2="-19.4"/>
				<line class="st2" x1="482.8" y1="303.7" x2="149.3" y2="-29.8"/>
				<line class="st2" x1="493.2" y1="293.3" x2="159.8" y2="-40.2"/>
				<line class="st2" x1="503.7" y1="282.8" x2="170.2" y2="-50.6"/>
				<line class="st2" x1="514.1" y1="272.4" x2="180.6" y2="-61.1"/>
				<line class="st2" x1="524.5" y1="262" x2="191" y2="-71.5"/>
				<line class="st2" x1="534.9" y1="251.6" x2="201.4" y2="-81.9"/>
				<line class="st2" x1="524.5" y1="262" x2="191" y2="-71.5"/>
				<line class="st2" x1="545.4" y1="241.2" x2="211.9" y2="-92.3"/>
				<line class="st2" x1="555.8" y1="230.7" x2="222.3" y2="-102.8"/>
				<line class="st2" x1="566.2" y1="220.3" x2="232.7" y2="-113.2"/>
				<line class="st2" x1="576.6" y1="209.9" x2="243.1" y2="-123.6"/>
				<line class="st2" x1="587" y1="199.5" x2="253.6" y2="-134"/>
				<line class="st2" x1="597.5" y1="189" x2="264" y2="-144.4"/>
				<line class="st2" x1="607.9" y1="178.6" x2="274.4" y2="-154.9"/>
			</g>
		</g>
	</g>
	<g>
		<defs>
			<rect id="SVGID_3_" x="230.3" y="195.8" width="87" height="129.5"/>
		</defs>
		<clipPath id="SVGID_4_">
			<use xlink:href="#SVGID_3_"  style="overflow:visible;"/>
		</clipPath>
		<g class="st3">
			<rect x="113.3" y="7.1" class="st4" width="322.2" height="322.2"/>
		</g>
	</g>
</g>
<polygon id="Windows" class="st5" points="494.2,61.6 247.9,61.6 247.9,66.3 489.5,66.3 489.5,413.7 446.8,413.7 446.8,418.4 
	494.2,418.4 "/>
<path id="Doors" class="st5" d="M224.2,380c-4.1,0-7.9-0.9-11.7-2.5c-3.8-1.6-7.6-3.8-10.4-6.9c-2.8-2.8-5.4-6.3-6.9-10.1
	c-1.6-3.8-2.5-7.9-2.5-12h31.6 M375.8,205.3c3.5,0,6.3,0.6,9.5,1.9c3.2,1.3,6,3.2,8.2,5.4c2.5,2.2,4.4,5.1,5.7,8.2
	c1.3,3.2,1.9,6.3,1.9,9.8l-25.3,0 M341.1,195.8c0-3.5,0.6-6.3,1.9-9.5c1.3-3.2,3.2-6,5.4-8.2c2.2-2.5,5.1-4.4,8.2-5.7
	c3.2-1.3,6.3-1.9,9.8-1.9v25.3 M287.4,195.8c0-3.5-0.6-6.3-1.9-9.5c-1.3-3.2-3.2-6-5.4-8.2c-2.2-2.5-5.1-4.4-8.2-5.7
	c-3.2-1.3-6.3-1.9-9.8-1.9v25.3 M284.2,322.1c0-3.5,0.6-6.3,1.9-9.5c1.3-3.2,3.2-6,5.4-8.2c2.2-2.5,5.1-4.4,8.2-5.7
	c3.2-1.3,6.3-1.9,9.8-1.9v25.3"/>
<g id="Walls">
	<rect x="293.7" y="60" class="st6" width="22.1" height="22.1"/>
	<polygon class="st6" points="372.6,195.8 366.3,195.8 366.3,198.9 372.6,198.9 372.6,205.3 375.8,205.3 375.8,75.8 382.1,75.8 
		382.1,60 360,60 360,75.8 372.6,75.8 	"/>
	<rect x="426.3" y="60" class="st6" width="22.1" height="22.1"/>
	<rect x="473.7" y="132.6" class="st6" width="22.1" height="22.1"/>
	<rect x="480" y="334.7" class="st6" width="15.8" height="22.1"/>
	<path class="st6" d="M318.9,366.3l18.9,0v-3.2h-22.1v27.4h-21.9v13.6h-60.2V380h-9.5v40l224.2,0v-15.8l-129.5,0V366.3z
		 M297.1,404.2v-10.4h18.7v10.4H297.1z"/>
	<polygon class="st6" points="495.8,198.9 480,198.9 480,233.7 375.8,233.7 375.8,230.5 372.6,230.5 372.6,236.8 480,236.8 
		480,265.3 473.7,265.3 473.7,287.4 495.8,287.4 	"/>
	<path class="st6" d="M233.7,348.4v-23.1h50.5v-3.2h-39v-10.6h-11.6l0-49.4l82.1,0v60h-6.3v3.2h28.4v-3.2h-18.9V198.9h22.1v-3.2
		h-53.7v3.2h28.4v60h-82.1v-60l28.4,0v-3.2h-28.4l0-113.7h15.8V60h-25.3l0,288.4H233.7z M242.1,314.7v7.4h-8.4v-7.4H242.1z"/>
</g>
<g id="Furniture">
	<g>
		<rect x="234.2" y="244.8" class="st7" width="81.2" height="13.7"/>
		<path class="st8" d="M314.8,245.3v12.7h-80.2v-12.7H314.8 M315.8,244.3h-82.2v14.7h82.2V244.3L315.8,244.3z"/>
	</g>
	<g>
		<rect x="319.4" y="384.2" class="st7" width="100.3" height="19.5"/>
		<path class="st8" d="M419.2,384.7v18.5h-99.3v-18.5H419.2 M420.2,383.7H318.9v20.5h101.3V383.7L420.2,383.7z"/>
	</g>
	<g>
		<g>
			<rect x="234.2" y="97.5" class="st7" width="61.4" height="52.3"/>
			<path class="st8" d="M295.2,98l0,51.3h-60.4V98H295.2 M296.2,97h-62.4v53.3h62.4L296.2,97L296.2,97z"/>
		</g>
		<rect x="238.2" y="101.6" class="st9" width="15.4" height="20.8"/>
		<rect x="238.2" y="125" class="st9" width="15.4" height="20.8"/>
		<polygon class="st10" points="247.3,104.2 243.3,119.2 258.2,123.2 262.2,108.2 		"/>
		<polygon class="st10" points="258.3,124.3 243.3,128.3 247.3,143.3 262.2,139.3 		"/>
		<g>
			<polygon class="st7" points="247.3,149.8 246,129 250.5,97.6 296.3,97.6 296.3,149.8 			"/>
			<path class="st8" d="M295.8,98.1v51.3l-48,0h0l-1.2-20.3l4.5-31H295.8 M296.8,97.1h-46.4h-0.3l-4.6,31.9l1.3,21.3h1l49,0V97.1
				L296.8,97.1z"/>
		</g>
		<polyline class="st11" points="248.4,149.6 248.4,128.8 251,97.7 		"/>
	</g>
	<g>
		<g>
			<rect x="376.3" y="118.8" class="st7" width="62.2" height="45.3"/>
			<path class="st8" d="M438,119.3l0,44.3h-61.2v-44.3H438 M439,118.3h-63.2v46.3H439L439,118.3L439,118.3z"/>
		</g>
		<rect x="380.3" y="122.2" class="st9" width="15.6" height="18.1"/>
		<rect x="380.3" y="142.5" class="st9" width="15.6" height="18.1"/>
		<polygon class="st10" points="389.6,124.4 385.5,137.5 400.6,141 404.7,127.9 		"/>
		<polygon class="st10" points="400.6,141.9 385.5,145.4 389.6,158.5 404.7,155 		"/>
		<g>
			<polygon class="st7" points="389.5,164 388.2,146 392.8,118.8 439.1,118.8 439.1,164 			"/>
			<path class="st8" d="M438.6,119.3v44.3H390H390l-1.3-17.5l4.5-26.8H438.6 M439.6,118.3h-46.9h-0.3l-4.7,27.8l1.3,18.5h1h49.6
				V118.3L439.6,118.3z"/>
		</g>
		<polyline class="st11" points="390.6,163.9 390.6,145.9 393.2,118.8 		"/>
	</g>
	<g>
		<g>
			<rect x="336.6" y="199.4" class="st7" width="1.8" height="122.2"/>
			<path class="st8" d="M337.9,199.9v121.2h-0.8V199.9H337.9 M338.9,198.9h-2.8v123.2h2.8V198.9L338.9,198.9z"/>
		</g>
		<g>
			<rect x="319.4" y="199.4" class="st7" width="17.2" height="122.2"/>
			<path class="st8" d="M319.9,199.9l16.2,0v121.2l-16.2,0V199.9 M318.9,198.9v123.2l18.2,0V198.9L318.9,198.9L318.9,198.9z"/>
		</g>
		<path class="st9" d="M319.5,199.5l17,122.4"/>
	</g>
	<g>
		<g>
			<rect x="414.5" y="214.2" class="st7" width="65" height="1.8"/>
			<path class="st8" d="M479,214.7v0.8h-64v-0.8H479 M480,213.7h-66v2.8h66V213.7L480,213.7z"/>
		</g>
		<g>
			<rect x="414.5" y="216" class="st7" width="65" height="17.2"/>
			<path class="st8" d="M479,216.5l0,16.2h-64l0-16.2H479 M480,215.5h-66l0,18.2h66L480,215.5L480,215.5z"/>
		</g>
		<path class="st9" d="M414.3,233.1l65.6-17"/>
	</g>
	<g>
		<g>
			<rect x="234.1" y="386.9" class="st7" width="52.3" height="1.8"/>
			<path class="st8" d="M285.9,387.4v0.8h-51.3v-0.8H285.9 M286.9,386.4h-53.3v2.8h53.3V386.4L286.9,386.4z"/>
		</g>
		<g>
			<rect x="234.1" y="388.7" class="st7" width="52.3" height="15"/>
			<path class="st8" d="M285.9,389.2v14h-51.3l0-14H285.9 M286.9,388.2h-53.3l0,16h53.3V388.2L286.9,388.2z"/>
		</g>
		<path class="st9" d="M233.9,403.7l52.9-14.9"/>
	</g>
	<g>
		<g>
			<rect x="298.2" y="378.9" class="st7" width="17.1" height="1.8"/>
			<path class="st8" d="M298.7,379.4h16.1v0.8l-16.1,0V379.4 M297.7,378.4v2.8l18.1,0v-2.8H297.7L297.7,378.4z"/>
		</g>
		<g>
			<rect x="298.2" y="380.7" class="st7" width="17.1" height="9.4"/>
			<path class="st8" d="M314.8,381.2v8.4h-16.1l0-8.4H314.8 M315.8,380.2h-18.1l0,10.4h18.1V380.2L315.8,380.2z"/>
		</g>
		<path class="st9" d="M298.2,390l17.1-9.2"/>
	</g>
	<g>
		<g>
			<rect x="292.6" y="176.3" class="st7" width="43.8" height="1.8"/>
			<path class="st8" d="M336,176.8v0.8l-42.8,0v-0.8H336 M337,175.8h-44.8v2.8l44.8,0V175.8L337,175.8z"/>
		</g>
		<g>
			<rect x="292.6" y="178.1" class="st7" width="43.8" height="17.2"/>
			<path class="st8" d="M336,178.6l0,16.2h-42.8v-16.2H336 M337,177.6h-44.8v18.2H337L337,177.6L337,177.6z"/>
		</g>
		<path class="st9" d="M292.3,195.2l44.5-17"/>
	</g>
	<g>
		<g>
			<rect x="293.3" y="199.4" class="st7" width="22" height="59.1"/>
			<path class="st8" d="M293.8,199.9l21,0l0,58.1h-21L293.8,199.9 M292.8,198.9l0,60.1h23l0-60.1L292.8,198.9L292.8,198.9z"/>
		</g>
		<g>
			<g>
				<path class="st12" d="M304.3,251.8c4.3,0,7.6-3.7,7.2-7.9c-0.4-4.7-0.8-10.5-0.8-14.9c0-4.3,0.4-10.2,0.8-14.9
					c0.4-4.2-3-7.9-7.2-7.9c-4.2,0-7.6,3.7-7.2,7.9c0.4,4.7,0.8,10.5,0.8,14.9c0,4.3-0.4,10.2-0.8,14.9
					C296.7,248.1,300.1,251.8,304.3,251.8z"/>
				<ellipse class="st12" cx="304.3" cy="244.4" rx="0.9" ry="0.9"/>
			</g>
		</g>
	</g>
	<g>
		<g id="Rectangle_16_x5F_11_1_">
			<rect x="269.6" y="262.6" class="st7" width="24.8" height="13.7"/>
			<path class="st8" d="M293.8,263.1v12.7h-23.8v-12.7L293.8,263.1 M294.8,262.1l-25.8,0v14.7h25.8V262.1L294.8,262.1z"/>
		</g>
		<path id="Rectangle_19_x5F_5_1_" class="st9" d="M274.2,269.4L274.2,269.4c0,2.5,2,4.5,4.5,4.5h6.4c2.5,0,4.5-2,4.5-4.5l0,0
			c0-2.5-2-4.5-4.5-4.5h-6.4C276.2,264.9,274.2,267,274.2,269.4z"/>
		<circle id="Ellipse_7_x5F_2_1_" class="st9" cx="281.9" cy="267.4" r="0.9"/>
	</g>
	<g>
		<g id="Rectangle_16_x5F_11_2_">
			<rect x="263.2" y="244.8" class="st7" width="21" height="13.7"/>
			<path class="st8" d="M283.7,245.3v12.7h-20v-12.7H283.7 M284.7,244.3h-22v14.7h22V244.3L284.7,244.3z"/>
		</g>
		<path id="Rectangle_19_x5F_5_2_" class="st9" d="M281.4,251.6L281.4,251.6c0-2.5-2-4.5-4.5-4.5h-6.4c-2.5,0-4.5,2-4.5,4.5l0,0
			c0,2.5,2,4.5,4.5,4.5h6.4C279.4,256.1,281.4,254.1,281.4,251.6z"/>
		<circle id="Ellipse_7_x5F_2_2_" class="st9" cx="273.7" cy="253.6" r="0.9"/>
	</g>
	<g id="Sink_3">
		<rect id="Rectangle_28_x5F_2" x="331.4" y="386.1" class="st9" width="23.5" height="14.9"/>
		<path id="Rectangle_29_x5F_2" class="st9" d="M340.6,393.5L340.6,393.5c0-3.1,2.5-5.6,5.6-5.6h1.2c3.1,0,5.6,2.5,5.6,5.6v0
			c0,3.1-2.5,5.6-5.6,5.6h-1.2C343.1,399.1,340.6,396.6,340.6,393.5z"/>
		<ellipse id="Ellipse_7_x5F_3" class="st9" cx="346.8" cy="396" rx="0.9" ry="0.9"/>
		<path id="Vector_2" class="st11" d="M332.6,399.1h6.2 M332.6,397.2h6.2 M332.6,395.4h6.2 M332.6,393.5h6.2 M332.6,391.7h6.2
			 M332.6,389.8h6.2 M332.6,387.9h6.2"/>
	</g>
	<g id="Stove">
		<g id="Rectangle_25">
			<rect x="378.5" y="384.2" class="st7" width="19" height="19.5"/>
			<path class="st8" d="M379,384.7h18v18.5h-18V384.7 M378,383.7v20.5h20v-20.5H378L378,383.7z"/>
		</g>
		<g id="Rectangle_28_x5F_3_1_">
			<rect x="378.5" y="401.9" class="st7" width="19" height="1.8"/>
			<path class="st8" d="M379,402.4l18,0v0.8h-18V402.4 M378,401.4v2.8h20v-2.8L378,401.4L378,401.4z"/>
		</g>
		<g id="Ellipse_7_x5F_4">
			<path class="st7" d="M383.2,399.2c-1.1,0-2.1-0.9-2.1-2.1c0-1.1,0.9-2.1,2.1-2.1c1.1,0,2.1,0.9,2.1,2.1
				C385.2,398.3,384.3,399.2,383.2,399.2z"/>
			<path class="st8" d="M383.2,395.6c0.9,0,1.6,0.7,1.6,1.6s-0.7,1.6-1.6,1.6s-1.6-0.7-1.6-1.6S382.3,395.6,383.2,395.6
				 M383.2,394.6c-1.4,0-2.6,1.1-2.6,2.6s1.1,2.6,2.6,2.6s2.6-1.1,2.6-2.6S384.6,394.6,383.2,394.6L383.2,394.6z"/>
		</g>
		<g id="Ellipse_9">
			<path class="st7" d="M383.2,392.2c-1.5,0-2.7-1.2-2.7-2.7s1.2-2.7,2.7-2.7s2.7,1.2,2.7,2.7S384.7,392.2,383.2,392.2z"/>
			<path class="st8" d="M383.2,387.3c1.2,0,2.2,1,2.2,2.2s-1,2.2-2.2,2.2c-1.2,0-2.2-1-2.2-2.2S381.9,387.3,383.2,387.3
				 M383.2,386.3c-1.8,0-3.2,1.4-3.2,3.2s1.4,3.2,3.2,3.2c1.8,0,3.2-1.4,3.2-3.2S384.9,386.3,383.2,386.3L383.2,386.3z"/>
		</g>
		<g id="Ellipse_10">
			<path class="st7" d="M392.1,399.9c-1.5,0-2.7-1.2-2.7-2.7s1.2-2.7,2.7-2.7s2.7,1.2,2.7,2.7S393.6,399.9,392.1,399.9z"/>
			<path class="st8" d="M392.1,394.9c1.2,0,2.2,1,2.2,2.2s-1,2.2-2.2,2.2s-2.2-1-2.2-2.2S390.9,394.9,392.1,394.9 M392.1,393.9
				c-1.8,0-3.2,1.4-3.2,3.2s1.4,3.2,3.2,3.2s3.2-1.4,3.2-3.2S393.9,393.9,392.1,393.9L392.1,393.9z"/>
		</g>
		<g id="Ellipse_8">
			<path class="st7" d="M392.1,390.9c-1.1,0-2.1-0.9-2.1-2.1c0-1.1,0.9-2.1,2.1-2.1c1.1,0,2.1,0.9,2.1,2.1
				C394.2,390,393.3,390.9,392.1,390.9z"/>
			<path class="st8" d="M392.1,387.3L392.1,387.3c0.9,0,1.6,0.7,1.6,1.6c0,0.9-0.7,1.6-1.6,1.6s-1.6-0.7-1.6-1.6
				C390.6,388,391.3,387.3,392.1,387.3 M392.1,386.3c-1.4,0-2.6,1.1-2.6,2.6c0,1.4,1.1,2.6,2.6,2.6c1.4,0,2.6-1.1,2.6-2.6
				C394.7,387.4,393.6,386.3,392.1,386.3L392.1,386.3z"/>
		</g>
	</g>
	<g>
		<path class="st9" d="M445.5,277.3c0,0.9,0.7,1.5,1.5,1.5h15.5l0-35.4l-17.1,0V277.3z"/>
		<path class="st9" d="M418,259c0,0.9,0.7,1.5,1.6,1.5h24.3c0.9,0,1.6-0.7,1.6-1.5v-15.6H418L418,259z"/>
		<path class="st9" d="M391.5,259c0,0.9,0.7,1.5,1.6,1.5h23.4c0.9,0,1.6-0.7,1.6-1.5l0-15.6l-26.5,0V259z"/>
		<path class="st9" d="M391.5,261.8h-5.8l0-24.5l83.1,0l0,47.6h-24.6l0-6.1l18.3,0l0-35.5l-71,0V261.8z"/>
	</g>
	<g>
		<path class="st9" d="M396.1,342.2V302h29.3v40.2H396.1z"/>
		<path class="st9" d="M402.9,299.6V299c0-4.3,3.5-7.9,7.9-7.9c4.3,0,7.9,3.5,7.9,7.9v0.7H402.9z"/>
		<path class="st9" d="M404.7,302v-3c0-3.4,2.7-6.1,6.1-6.1s6.1,2.7,6.1,6.1v3H404.7z"/>
		<path class="st9" d="M402.9,344.5v0.7c0,4.3,3.5,7.9,7.9,7.9c4.3,0,7.9-3.5,7.9-7.9v-0.7H402.9z"/>
		<path class="st9" d="M404.7,342.2v3c0,3.4,2.7,6.1,6.1,6.1s6.1-2.7,6.1-6.1v-3H404.7z"/>
		<path class="st9" d="M427.7,330h0.7c4.3,0,7.9-3.5,7.9-7.9c0-4.3-3.5-7.9-7.9-7.9h-0.7V330z"/>
		<path class="st9" d="M425.4,328.2h3c3.4,0,6.1-2.7,6.1-6.1s-2.7-6.1-6.1-6.1h-3V328.2z"/>
		<path class="st9" d="M393.8,330h-0.7c-4.3,0-7.9-3.5-7.9-7.9c0-4.3,3.5-7.9,7.9-7.9h0.7V330z"/>
		<path class="st9" d="M396.1,328.2h-3c-3.4,0-6.1-2.7-6.1-6.1s2.7-6.1,6.1-6.1h3V328.2z"/>
	</g>
	<g>
		<g>
			<rect x="294.3" y="262.6" class="st7" width="21" height="11.8"/>
			<path class="st8" d="M314.8,263.1V274h-20v-10.8H314.8 M315.8,262.1h-22V275h22V262.1L315.8,262.1z"/>
		</g>
		<g>
			<circle class="st7" cx="304.8" cy="268.5" r="3.7"/>
			<path class="st8" d="M304.8,265.3c1.8,0,3.2,1.4,3.2,3.2s-1.4,3.2-3.2,3.2s-3.2-1.4-3.2-3.2S303.1,265.3,304.8,265.3
				 M304.8,264.3c-2.3,0-4.2,1.9-4.2,4.2s1.9,4.2,4.2,4.2c2.3,0,4.2-1.9,4.2-4.2C309,266.2,307.1,264.3,304.8,264.3L304.8,264.3z"/>
		</g>
	</g>
	<g id="Toilet_2_">
		<g id="Rectangle_21_2_">
			<rect x="245.7" y="300.6" class="st7" width="4.1" height="12.9"/>
			<path class="st8" d="M249.4,301.1V313h-3.1v-11.9H249.4 M250.4,300.1h-5.1V314h5.1V300.1L250.4,300.1z"/>
		</g>
		<path id="Rectangle_19_x5F_2_2_" class="st9" d="M259.2,312c2.9,0.2,5.3-2.1,5.3-4.9l0,0c0-2.9-2.4-5.1-5.3-4.9l-9.2,0.6v8.7
			L259.2,312z"/>
		<path id="Rectangle_18_x5F_13_2_" class="st9" d="M258.9,310.5c2,0.2,3.7-1.4,3.7-3.4l0,0c0-2-1.7-3.5-3.7-3.4l-5.4,0.5v5.7
			L258.9,310.5z"/>
		<ellipse id="Ellipse_6_x5F_2_2_" class="st9" cx="256.1" cy="307.1" rx="0.9" ry="0.9"/>
	</g>
	<g id="Toilet_1_">
		<g id="Rectangle_21_1_">
			<rect x="242.5" y="209.4" class="st7" width="4.1" height="12.9"/>
			<path class="st8" d="M246.2,209.9v11.9H243v-11.9H246.2 M247.2,208.9H242v13.9h5.1V208.9L247.2,208.9z"/>
		</g>
		<path id="Rectangle_19_x5F_2_1_" class="st9" d="M256,220.8c2.9,0.2,5.3-2.1,5.3-4.9l0,0c0-2.9-2.4-5.1-5.3-4.9l-9.2,0.6v8.7
			L256,220.8z"/>
		<path id="Rectangle_18_x5F_13_1_" class="st9" d="M255.7,219.2c2,0.2,3.7-1.4,3.7-3.4l0,0c0-2-1.7-3.5-3.7-3.4l-5.4,0.5v5.7
			L255.7,219.2z"/>
		<ellipse id="Ellipse_6_x5F_2_1_" class="st9" cx="252.6" cy="215.8" rx="0.9" ry="0.9"/>
	</g>
	<g>
		<rect x="319.4" y="366.8" class="st7" width="17.3" height="17.3"/>
		<path class="st8" d="M336.3,367.3v16.3h-16.3l0-16.3L336.3,367.3 M337.3,366.3l-18.3,0l0,18.3h18.3V366.3L337.3,366.3z"/>
	</g>
	<g>
		<g>
			<rect x="402.5" y="384.2" class="st7" width="24.4" height="19.5"/>
			<path class="st8" d="M426.4,384.7v18.5H403v-18.5H426.4 M427.4,383.7H402v20.5h25.4V383.7L427.4,383.7z"/>
		</g>
		<g>
			<rect x="403.7" y="382.4" class="st7" width="21.9" height="1.8"/>
			<path class="st8" d="M425.1,382.9v0.8h-20.9v-0.8H425.1 M426.1,381.9h-22.9v2.8h22.9V381.9L426.1,381.9z"/>
		</g>
	</g>
	<g id="Rectangle_27_2_">
		<rect x="335.5" y="366.8" class="st7" width="1.8" height="17.3"/>
		<path class="st8" d="M336.9,367.3v16.3H336l0-16.3H336.9 M337.9,366.3l-2.8,0l0,18.3h2.8V366.3L337.9,366.3z"/>
	</g>
	<path id="Vector_3" class="st11" d="M328,372.5v5.9 M330.6,374l-5.2,2.9 M325.3,374l5.2,2.9"/>
	<g>
		<g>
			<path class="st7" d="M242.4,289.8v-27.2h27.2v18.9c0,4.6-3.7,8.3-8.3,8.3H242.4z"/>
			<path class="st8" d="M242.9,263.1h26.2l0,18.4c0,4.3-3.5,7.8-7.8,7.8h-18.4V263.1 M241.9,262.1v28.2h19.4c4.8,0,8.8-3.9,8.8-8.8
				l0-19.4H241.9L241.9,262.1z"/>
		</g>
		<g>
			<path class="st7" d="M244.2,288v-23.5h23.5v17.2c0,3.5-2.8,6.3-6.3,6.3H244.2z"/>
			<path class="st8" d="M244.7,264.9h22.5v16.7c0,3.2-2.6,5.8-5.8,5.8h-16.7V264.9 M243.7,263.9v24.5h17.7c3.8,0,6.8-3,6.8-6.8
				v-17.7H243.7L243.7,263.9z"/>
		</g>
		<ellipse class="st9" cx="249.1" cy="269.3" rx="0.9" ry="0.9"/>
	</g>
	<g>
		<path class="st9" d="M340,113.1l0-14l12.7-1.9l0,17.8L340,113.1z"/>
		<g>
			<rect x="351.5" y="84.2" class="st7" width="20.7" height="42.4"/>
			<path class="st8" d="M371.7,84.7v41.4H352V84.7L371.7,84.7 M372.7,83.7l-21.7,0v43.4h21.7V83.7L372.7,83.7z"/>
		</g>
		<path class="st11" d="M357.5,111.5l0-10.8 M354.9,112.5l0-12.7l3.8,0l0,12.7L354.9,112.5z"/>
		<path class="st13" d="M354.7,117L354.7,117c0-0.5,0.4-1,1-1l1.3,0c0.5,0,1,0.4,1,1l0,0c0,0.5-0.4,1-1,1l-1.3,0
			C355.1,118,354.7,117.5,354.7,117z"/>
		<path class="st9" d="M364.9,109.3c-1.8,0-3.2-1.4-3.2-3.2c0-1.8,1.4-3.2,3.2-3.2l3.2,0l0,6.4L364.9,109.3z"/>
		<g>
			<rect x="339.8" y="99.4" class="st7" width="11.3" height="13.5"/>
			<path class="st8" d="M350.6,99.9v12.5h-10.3V99.9H350.6 M351.6,98.9h-12.3v14.5h12.3V98.9L351.6,98.9z"/>
		</g>
		<g>
			<rect x="338.2" y="99.2" class="st7" width="1.8" height="13.9"/>
			<path class="st8" d="M339.5,99.7v12.9h-0.8V99.7H339.5 M340.5,98.7h-2.8v14.9h2.8V98.7L340.5,98.7z"/>
		</g>
		<g>
			<rect x="367.2" y="90.8" class="st7" width="1.8" height="30.7"/>
			<path class="st8" d="M368.5,91.3V121h-0.8V91.3H368.5 M369.5,90.3h-2.8V122h2.8V90.3L369.5,90.3z"/>
		</g>
	</g>
	<g>
		<path class="st9" d="M456.4,99.7l0-14l12.7-1.9l0,17.8L456.4,99.7z"/>
		<g>
			<rect x="467.9" y="67.3" class="st7" width="20.7" height="64.8"/>
			<path class="st8" d="M488,67.8l0,63.8l-19.7,0V67.8L488,67.8 M489,66.8l-21.7,0v65.8l21.7,0L489,66.8L489,66.8z"/>
		</g>
		<path class="st11" d="M473.8,98.1l0-10.8 M471.3,99.1l0-12.7l3.8,0l0,12.7L471.3,99.1z"/>
		<path class="st13" d="M471.1,103.6L471.1,103.6c0-0.5,0.4-1,1-1l1.3,0c0.5,0,1,0.4,1,1l0,0c0,0.5-0.4,1-1,1l-1.3,0
			C471.5,104.6,471.1,104.2,471.1,103.6z"/>
		<path class="st9" d="M481.3,95.9c-1.8,0-3.2-1.4-3.2-3.2c0-1.8,1.4-3.2,3.2-3.2l3.2,0l0,6.4L481.3,95.9z"/>
		<g>
			<rect x="456.1" y="86" class="st7" width="11.3" height="13.5"/>
			<path class="st8" d="M467,86.5v12.5h-10.3V86.5H467 M468,85.5h-12.3v14.5H468V85.5L468,85.5z"/>
		</g>
		<g>
			<rect x="454.6" y="85.8" class="st7" width="1.8" height="13.9"/>
			<path class="st8" d="M455.9,86.3v12.9h-0.8V86.3H455.9 M456.9,85.3h-2.8v14.9h2.8V85.3L456.9,85.3z"/>
		</g>
		<g>
			<rect x="483.6" y="77.4" class="st7" width="1.8" height="30.7"/>
			<path class="st8" d="M484.9,77.9v29.7h-0.8V77.9H484.9 M485.9,76.9h-2.8v31.7h2.8V76.9L485.9,76.9z"/>
		</g>
	</g>
	<g>
		<polygon class="st7" points="234.2,311 234.2,262.6 242.4,262.6 242.4,294.8 245.7,294.8 245.7,311 		"/>
		<path class="st8" d="M241.9,263.1v31.2v1h1h2.3v15.2h-10.5v-47.4H241.9 M242.9,262.1h-9.2v49.4h12.5v-17.2h-3.3V262.1L242.9,262.1
			z"/>
	</g>
	<g>
		<rect x="234.2" y="199.4" class="st7" width="8.2" height="59"/>
		<path class="st8" d="M241.9,199.9v58h-7.2v-58H241.9 M242.9,198.9h-9.2v60h9.2V198.9L242.9,198.9z"/>
	</g>
</g>
<g id="Numbers_1_">
	<g>
		<path class="st6" d="M447.3,353l-1.6,1.8h2.7v1h-4.2v-0.9l2.1-2.3l0.5-0.6c0.1-0.1,0.2-0.3,0.3-0.5c0.1-0.2,0.1-0.4,0.1-0.6
			c0-0.3-0.1-0.5-0.3-0.7c-0.2-0.2-0.5-0.3-0.8-0.3c-0.5,0-1,0.2-1.6,0.7l-0.6-0.7c0.7-0.6,1.4-1,2.2-1c0.6,0,1.1,0.2,1.5,0.6
			c0.4,0.4,0.6,0.9,0.6,1.4C448.3,351.6,447.9,352.2,447.3,353z"/>
		<path class="st6" d="M449,350v-0.9h4.2v0.7l-2.5,6h-1.1l2.5-5.7H449z"/>
		<path class="st6" d="M453.8,355.9c-0.2,0-0.3-0.1-0.5-0.2s-0.2-0.3-0.2-0.5c0-0.2,0.1-0.3,0.2-0.4s0.3-0.2,0.5-0.2
			c0.2,0,0.3,0.1,0.4,0.2s0.2,0.3,0.2,0.4c0,0.2-0.1,0.3-0.2,0.5S454,355.9,453.8,355.9z"/>
		<path class="st6" d="M459.2,353.2h0.7v0.9h-0.7v1.6h-1v-1.6h-3l-0.2-0.6l3.6-4.4h0.7V353.2z M458.2,350.8l-2,2.4h2V350.8z"/>
	</g>
	<g>
		<path class="st6" d="M270.5,351.4c0.6,0,1.2,0.2,1.6,0.6c0.4,0.4,0.6,0.9,0.6,1.6c0,0.7-0.2,1.2-0.7,1.6c-0.4,0.4-1,0.6-1.7,0.6
			c-0.8,0-1.5-0.3-2.2-0.8l0.5-0.8c0.6,0.4,1.1,0.6,1.7,0.6c0.4,0,0.7-0.1,1-0.4c0.3-0.2,0.4-0.5,0.4-0.9c0-0.4-0.1-0.7-0.4-0.9
			c-0.2-0.2-0.6-0.4-1-0.4c-0.5,0-0.9,0.2-1.2,0.5l-0.6-0.4l0.4-3.3h3.4v0.9h-2.6l-0.2,1.6C269.8,351.5,270.1,351.4,270.5,351.4z"/>
		<path class="st6" d="M274.2,355.9c-0.2,0-0.3-0.1-0.5-0.2c-0.1-0.1-0.2-0.3-0.2-0.5c0-0.2,0.1-0.3,0.2-0.4
			c0.1-0.1,0.3-0.2,0.5-0.2c0.2,0,0.3,0.1,0.4,0.2c0.1,0.1,0.2,0.3,0.2,0.4c0,0.2-0.1,0.3-0.2,0.5
			C274.5,355.8,274.3,355.9,274.2,355.9z"/>
		<path class="st6" d="M277.8,351.4c0.6,0,1.2,0.2,1.6,0.6c0.4,0.4,0.6,0.9,0.6,1.6c0,0.7-0.2,1.2-0.7,1.6c-0.4,0.4-1,0.6-1.7,0.6
			c-0.8,0-1.5-0.3-2.2-0.8l0.5-0.8c0.6,0.4,1.1,0.6,1.7,0.6c0.4,0,0.7-0.1,1-0.4c0.3-0.2,0.4-0.5,0.4-0.9c0-0.4-0.1-0.7-0.4-0.9
			c-0.2-0.2-0.6-0.4-1-0.4c-0.5,0-0.9,0.2-1.2,0.5l-0.6-0.4l0.4-3.3h3.4v0.9H277l-0.2,1.6C277.1,351.5,277.5,351.4,277.8,351.4z"/>
	</g>
	<g>
		<path class="st6" d="M275.4,292.8h0.7v0.9h-0.7v1.6h-1v-1.6h-3l-0.2-0.6l3.6-4.4h0.7V292.8z M274.5,290.4l-2,2.4h2V290.4z"/>
		<path class="st6" d="M277.6,295.5c-0.2,0-0.3-0.1-0.5-0.2c-0.1-0.1-0.2-0.3-0.2-0.5c0-0.2,0.1-0.3,0.2-0.4
			c0.1-0.1,0.3-0.2,0.5-0.2c0.2,0,0.3,0.1,0.4,0.2c0.1,0.1,0.2,0.3,0.2,0.4c0,0.2-0.1,0.3-0.2,0.5
			C277.9,295.4,277.8,295.5,277.6,295.5z"/>
		<path class="st6" d="M281.1,295.5c-0.7,0-1.4-0.2-2.1-0.7l0.5-0.8c0.6,0.4,1.1,0.5,1.6,0.5c0.4,0,0.7-0.1,0.9-0.3
			c0.2-0.2,0.3-0.4,0.3-0.8c0-0.3-0.1-0.6-0.4-0.8c-0.2-0.2-0.5-0.3-0.9-0.3h-0.8v-0.9h0.8c0.3,0,0.6-0.1,0.8-0.3
			c0.2-0.2,0.3-0.4,0.3-0.7c0-0.3-0.1-0.5-0.3-0.7s-0.5-0.3-0.8-0.3c-0.4,0-0.9,0.2-1.4,0.6l-0.5-0.7c0.2-0.2,0.6-0.4,0.9-0.6
			c0.4-0.1,0.7-0.2,1.1-0.2c0.6,0,1.1,0.2,1.5,0.5c0.4,0.3,0.6,0.8,0.6,1.2c0,0.4-0.1,0.7-0.3,0.9c-0.2,0.3-0.5,0.5-0.8,0.6v0
			c0.4,0.1,0.7,0.3,1,0.6c0.2,0.3,0.3,0.6,0.3,1.1c0,0.6-0.2,1-0.6,1.4C282.4,295.3,281.8,295.5,281.1,295.5z"/>
	</g>
	<g>
		<path class="st6" d="M275.4,221.2h0.7v0.9h-0.7v1.6h-1v-1.6h-3l-0.2-0.6l3.6-4.4h0.7V221.2z M274.5,218.8l-2,2.4h2V218.8z"/>
		<path class="st6" d="M277.6,223.9c-0.2,0-0.3-0.1-0.5-0.2c-0.1-0.1-0.2-0.3-0.2-0.5c0-0.2,0.1-0.3,0.2-0.4
			c0.1-0.1,0.3-0.2,0.5-0.2c0.2,0,0.3,0.1,0.4,0.2c0.1,0.1,0.2,0.3,0.2,0.4c0,0.2-0.1,0.3-0.2,0.5
			C277.9,223.8,277.8,223.9,277.6,223.9z"/>
		<path class="st6" d="M278.3,218.7l1.9-1.6h0.8v6.7h-1v-5.3l-1.2,0.9L278.3,218.7z"/>
	</g>
	<g>
		<path class="st6" d="M319,139.7l1.9-1.6h0.8v6.7h-1v-5.3l-1.2,0.9L319,139.7z"/>
		<path class="st6" d="M325.1,140.4c0.6,0,1.2,0.2,1.6,0.6c0.4,0.4,0.6,0.9,0.6,1.6c0,0.7-0.2,1.2-0.7,1.6c-0.4,0.4-1,0.6-1.7,0.6
			c-0.8,0-1.5-0.3-2.2-0.8l0.5-0.8c0.6,0.4,1.1,0.6,1.7,0.6c0.4,0,0.7-0.1,1-0.4c0.3-0.2,0.4-0.5,0.4-0.9c0-0.4-0.1-0.7-0.4-0.9
			c-0.2-0.2-0.6-0.4-1-0.4c-0.5,0-0.9,0.2-1.2,0.5l-0.6-0.4l0.4-3.3h3.4v0.9h-2.6l-0.2,1.6C324.4,140.5,324.8,140.4,325.1,140.4z"/>
		<path class="st6" d="M328.8,144.9c-0.2,0-0.3-0.1-0.5-0.2c-0.1-0.1-0.2-0.3-0.2-0.5c0-0.2,0.1-0.3,0.2-0.4
			c0.1-0.1,0.3-0.2,0.5-0.2c0.2,0,0.3,0.1,0.4,0.2c0.1,0.1,0.2,0.3,0.2,0.4c0,0.2-0.1,0.3-0.2,0.5
			C329.1,144.8,329,144.9,328.8,144.9z"/>
		<path class="st6" d="M332.3,144.9c-0.7,0-1.4-0.2-2.1-0.7l0.5-0.8c0.6,0.4,1.1,0.5,1.6,0.5c0.4,0,0.7-0.1,0.9-0.3
			c0.2-0.2,0.3-0.4,0.3-0.8c0-0.3-0.1-0.6-0.4-0.8c-0.2-0.2-0.5-0.3-0.9-0.3h-0.8v-0.9h0.8c0.3,0,0.6-0.1,0.8-0.3
			c0.2-0.2,0.3-0.4,0.3-0.7c0-0.3-0.1-0.5-0.3-0.7s-0.5-0.3-0.8-0.3c-0.4,0-0.9,0.2-1.4,0.6l-0.5-0.7c0.2-0.2,0.6-0.4,0.9-0.6
			c0.4-0.1,0.7-0.2,1.1-0.2c0.6,0,1.1,0.2,1.5,0.5c0.4,0.3,0.6,0.8,0.6,1.2c0,0.4-0.1,0.7-0.3,0.9c-0.2,0.3-0.5,0.5-0.8,0.6v0
			c0.4,0.1,0.7,0.3,1,0.6c0.2,0.3,0.3,0.6,0.3,1.1c0,0.6-0.2,1-0.6,1.4C333.5,144.7,333,144.9,332.3,144.9z"/>
	</g>
	<g>
		<path class="st6" d="M420.2,183.7l1.9-1.6h0.8v6.7h-1v-5.3l-1.2,0.9L420.2,183.7z"/>
		<path class="st6" d="M426.9,184.4c0.6,0,1.1,0.2,1.5,0.6c0.4,0.4,0.6,0.9,0.6,1.5c0,0.6-0.2,1.2-0.7,1.6c-0.4,0.4-1,0.6-1.7,0.6
			c-0.8,0-1.4-0.3-1.8-0.9c-0.4-0.6-0.6-1.4-0.6-2.3c0-0.6,0.1-1.2,0.3-1.8c0.2-0.5,0.5-1,0.9-1.3c0.4-0.4,1-0.5,1.6-0.5
			c0.7,0,1.3,0.2,1.7,0.6l-0.4,0.8c-0.4-0.3-0.8-0.4-1.2-0.4c-0.4,0-0.7,0.1-1,0.4c-0.5,0.5-0.8,1.2-0.8,2.1
			c0.1-0.3,0.4-0.5,0.7-0.7S426.5,184.4,426.9,184.4z M426.7,187.9c0.4,0,0.7-0.1,0.9-0.4c0.2-0.3,0.4-0.6,0.4-0.9
			c0-0.4-0.1-0.7-0.4-0.9c-0.2-0.2-0.5-0.4-0.9-0.4c-0.4,0-0.7,0.1-0.9,0.4c-0.2,0.2-0.4,0.6-0.4,0.9c0,0.4,0.1,0.7,0.4,0.9
			C426,187.8,426.3,187.9,426.7,187.9z"/>
		<path class="st6" d="M430.4,188.9c-0.2,0-0.3-0.1-0.5-0.2s-0.2-0.3-0.2-0.5c0-0.2,0.1-0.3,0.2-0.4s0.3-0.2,0.5-0.2
			c0.2,0,0.3,0.1,0.4,0.2s0.2,0.3,0.2,0.4c0,0.2-0.1,0.3-0.2,0.5S430.6,188.9,430.4,188.9z"/>
		<path class="st6" d="M433.9,188.8c-0.7,0-1.4-0.2-2.1-0.7l0.5-0.8c0.6,0.4,1.1,0.5,1.6,0.5c0.4,0,0.7-0.1,0.9-0.3
			c0.2-0.2,0.3-0.4,0.3-0.8c0-0.3-0.1-0.6-0.4-0.8c-0.2-0.2-0.5-0.3-0.9-0.3h-0.8v-0.9h0.8c0.3,0,0.6-0.1,0.8-0.3
			c0.2-0.2,0.3-0.4,0.3-0.7c0-0.3-0.1-0.5-0.3-0.7s-0.5-0.3-0.8-0.3c-0.4,0-0.9,0.2-1.4,0.6l-0.5-0.7c0.2-0.2,0.5-0.4,0.9-0.6
			c0.4-0.1,0.7-0.2,1.1-0.2c0.6,0,1.1,0.2,1.5,0.5s0.6,0.8,0.6,1.2c0,0.4-0.1,0.7-0.3,0.9c-0.2,0.3-0.5,0.5-0.8,0.6v0
			c0.4,0.1,0.7,0.3,1,0.6c0.2,0.3,0.3,0.6,0.3,1.1c0,0.6-0.2,1-0.6,1.4C435.2,188.6,434.6,188.8,433.9,188.8z"/>
	</g>
</g>
<g id="street_anchors">
	<rect id="street_x5F_anchor_x5F_01_1_" x="355" y="20" class="st14" width="10" height="10"/>
	<rect id="street_x5F_anchor_x5F_02_1_" x="355" y="450" class="st14" width="10" height="10"/>
	<rect id="street_x5F_anchor_x5F_03" x="525.8" y="235" class="st14" width="10" height="10"/>
</g>
</svg>
