<?xml version="1.0" encoding="utf-8"?>
<!-- Generator: Adobe Illustrator 24.2.0, SVG Export Plug-In . SVG Version: 6.00 Build 0)  -->
<!DOCTYPE svg PUBLIC "-//W3C//DTD SVG 1.1//EN" "http://www.w3.org/Graphics/SVG/1.1/DTD/svg11.dtd" [
	<!ENTITY ns_extend "http://ns.adobe.com/Extensibility/1.0/">
	<!ENTITY ns_ai "http://ns.adobe.com/AdobeIllustrator/10.0/">
	<!ENTITY ns_graphs "http://ns.adobe.com/Graphs/1.0/">
	<!ENTITY ns_vars "http://ns.adobe.com/Variables/1.0/">
	<!ENTITY ns_imrep "http://ns.adobe.com/ImageReplacement/1.0/">
	<!ENTITY ns_sfw "http://ns.adobe.com/SaveForWeb/1.0/">
	<!ENTITY ns_custom "http://ns.adobe.com/GenericCustomNamespace/1.0/">
	<!ENTITY ns_adobe_xpath "http://ns.adobe.com/XPath/1.0/">
]>
<svg version="1.1" id="_x31__x5F_2" xmlns:x="&ns_extend;" xmlns:i="&ns_ai;" xmlns:graph="&ns_graphs;"
	 xmlns="http://www.w3.org/2000/svg" xmlns:xlink="http://www.w3.org/1999/xlink" x="0px" y="0px" viewBox="0 0 720 480"
	 style="enable-background:new 0 0 720 480;" xml:space="preserve">
<style type="text/css">
	.st0{fill:#DBD4CA;}
	.st1{clip-path:url(#SVGID_2_);}
	.st2{fill:none;stroke:#C49F8A;stroke-miterlimit:10;}
	.st3{opacity:0.3;clip-path:url(#SVGID_4_);}
	.st4{opacity:0.7;fill:#C49F8A;enable-background:new    ;}
	.st5{fill:#565440;}
	.st6{fill:none;stroke:#565440;}
	.st7{fill:none;stroke:#565440;stroke-width:1;stroke-miterlimit:4.0002;}
	.st8{fill:#E9E4DC;}
	.st9{fill:#C49F8A;}
	.st10{fill:#E9E4DC;stroke:#C49F8A;}
	.st11{fill:#E9E4DC;stroke:#C49F8A;stroke-width:1;stroke-miterlimit:3.9998;}
	.st12{fill:none;stroke:#C49F8A;}
	.st13{fill:#E9E4DC;stroke:#C49F8A;stroke-linejoin:round;}
	.st14{opacity:0.76;}
	.st15{fill:#3F3F3F;fill-opacity:0;}
</style>
<metadata>
	<sfw  xmlns="&ns_sfw;">
		<slices></slices>
		<sliceSourceBounds  bottomLeftOrigin="true" height="727.9" width="667.7" x="-55" y="20"></sliceSourceBounds>
	</sfw>
</metadata>
<polygon id="Floor" class="st0" points="282.2,390.8 358.1,410.8 364.1,394.6 427.3,392.9 495.9,410.7 500.5,396.1 512.2,396.1 
	512.2,60.3 205.7,60.3 205.7,390.8 "/>
<g id="Wet_Floor_1_">
	<g>
		<defs>
			<rect id="SVGID_1_" x="209.5" y="71" width="114.3" height="110.9"/>
		</defs>
		<clipPath id="SVGID_2_">
			<use xlink:href="#SVGID_1_"  style="overflow:visible;"/>
		</clipPath>
		<g class="st1">
			<g>
				<line class="st2" x1="-44.2" y1="76.3" x2="289.3" y2="-257.1"/>
				<line class="st2" x1="-54.6" y1="65.9" x2="278.9" y2="-267.6"/>
				<line class="st2" x1="-33.8" y1="86.8" x2="299.7" y2="-246.7"/>
				<line class="st2" x1="-23.3" y1="97.2" x2="310.1" y2="-236.3"/>
				<line class="st2" x1="-12.9" y1="107.6" x2="320.6" y2="-225.9"/>
				<line class="st2" x1="-2.5" y1="118" x2="331" y2="-215.5"/>
				<line class="st2" x1="7.9" y1="128.4" x2="341.4" y2="-205"/>
				<line class="st2" x1="18.3" y1="138.9" x2="351.8" y2="-194.6"/>
				<line class="st2" x1="28.8" y1="149.3" x2="362.2" y2="-184.2"/>
				<line class="st2" x1="39.2" y1="159.7" x2="372.7" y2="-173.8"/>
				<line class="st2" x1="28.8" y1="149.3" x2="362.2" y2="-184.2"/>
				<line class="st2" x1="49.6" y1="170.1" x2="383.1" y2="-163.4"/>
				<line class="st2" x1="60" y1="180.6" x2="393.5" y2="-152.9"/>
				<line class="st2" x1="70.4" y1="191" x2="403.9" y2="-142.5"/>
				<line class="st2" x1="80.9" y1="201.4" x2="414.3" y2="-132.1"/>
				<line class="st2" x1="91.3" y1="211.8" x2="424.8" y2="-121.7"/>
				<line class="st2" x1="101.7" y1="222.2" x2="435.2" y2="-111.2"/>
				<line class="st2" x1="112.1" y1="232.7" x2="445.6" y2="-100.8"/>
				<line class="st2" x1="122.5" y1="243.1" x2="456" y2="-90.4"/>
				<line class="st2" x1="112.1" y1="232.7" x2="445.6" y2="-100.8"/>
				<line class="st2" x1="133" y1="253.5" x2="466.5" y2="-80"/>
				<line class="st2" x1="143.4" y1="263.9" x2="476.9" y2="-69.6"/>
				<line class="st2" x1="153.8" y1="274.3" x2="487.3" y2="-59.1"/>
				<line class="st2" x1="164.2" y1="284.8" x2="497.7" y2="-48.7"/>
				<line class="st2" x1="174.7" y1="295.2" x2="508.1" y2="-38.3"/>
				<line class="st2" x1="185.1" y1="305.6" x2="518.6" y2="-27.9"/>
				<line class="st2" x1="195.5" y1="316" x2="529" y2="-17.5"/>
				<line class="st2" x1="205.9" y1="326.5" x2="539.4" y2="-7"/>
				<line class="st2" x1="195.5" y1="316" x2="529" y2="-17.5"/>
				<line class="st2" x1="216.3" y1="336.9" x2="549.8" y2="3.4"/>
				<line class="st2" x1="226.8" y1="347.3" x2="560.2" y2="13.8"/>
				<line class="st2" x1="237.2" y1="357.7" x2="570.7" y2="24.2"/>
				<line class="st2" x1="247.6" y1="368.1" x2="581.1" y2="34.7"/>
				<line class="st2" x1="258" y1="378.6" x2="591.5" y2="45.1"/>
				<line class="st2" x1="268.4" y1="389" x2="601.9" y2="55.5"/>
				<line class="st2" x1="278.9" y1="399.4" x2="612.4" y2="65.9"/>
			</g>
			<g>
				<line class="st2" x1="289.3" y1="389" x2="-44.2" y2="55.5"/>
				<line class="st2" x1="278.9" y1="399.4" x2="-54.6" y2="65.9"/>
				<line class="st2" x1="299.7" y1="378.6" x2="-33.8" y2="45.1"/>
				<line class="st2" x1="310.1" y1="368.1" x2="-23.3" y2="34.7"/>
				<line class="st2" x1="320.6" y1="357.7" x2="-12.9" y2="24.2"/>
				<line class="st2" x1="331" y1="347.3" x2="-2.5" y2="13.8"/>
				<line class="st2" x1="341.4" y1="336.9" x2="7.9" y2="3.4"/>
				<line class="st2" x1="351.8" y1="326.5" x2="18.3" y2="-7"/>
				<line class="st2" x1="362.2" y1="316" x2="28.8" y2="-17.5"/>
				<line class="st2" x1="372.7" y1="305.6" x2="39.2" y2="-27.9"/>
				<line class="st2" x1="362.2" y1="316" x2="28.8" y2="-17.5"/>
				<line class="st2" x1="383.1" y1="295.2" x2="49.6" y2="-38.3"/>
				<line class="st2" x1="393.5" y1="284.8" x2="60" y2="-48.7"/>
				<line class="st2" x1="403.9" y1="274.3" x2="70.4" y2="-59.1"/>
				<line class="st2" x1="414.3" y1="263.9" x2="80.9" y2="-69.6"/>
				<line class="st2" x1="424.8" y1="253.5" x2="91.3" y2="-80"/>
				<line class="st2" x1="435.2" y1="243.1" x2="101.7" y2="-90.4"/>
				<line class="st2" x1="445.6" y1="232.7" x2="112.1" y2="-100.8"/>
				<line class="st2" x1="456" y1="222.2" x2="122.5" y2="-111.2"/>
				<line class="st2" x1="445.6" y1="232.7" x2="112.1" y2="-100.8"/>
				<line class="st2" x1="466.5" y1="211.8" x2="133" y2="-121.7"/>
				<line class="st2" x1="476.9" y1="201.4" x2="143.4" y2="-132.1"/>
				<line class="st2" x1="487.3" y1="191" x2="153.8" y2="-142.5"/>
				<line class="st2" x1="497.7" y1="180.6" x2="164.2" y2="-152.9"/>
				<line class="st2" x1="508.1" y1="170.1" x2="174.7" y2="-163.4"/>
				<line class="st2" x1="518.6" y1="159.7" x2="185.1" y2="-173.8"/>
				<line class="st2" x1="529" y1="149.3" x2="195.5" y2="-184.2"/>
				<line class="st2" x1="539.4" y1="138.9" x2="205.9" y2="-194.6"/>
				<line class="st2" x1="529" y1="149.3" x2="195.5" y2="-184.2"/>
				<line class="st2" x1="549.8" y1="128.4" x2="216.3" y2="-205"/>
				<line class="st2" x1="560.2" y1="118" x2="226.8" y2="-215.5"/>
				<line class="st2" x1="570.7" y1="107.6" x2="237.2" y2="-225.9"/>
				<line class="st2" x1="581.1" y1="97.2" x2="247.6" y2="-236.3"/>
				<line class="st2" x1="591.5" y1="86.8" x2="258" y2="-246.7"/>
				<line class="st2" x1="601.9" y1="76.3" x2="268.4" y2="-257.1"/>
				<line class="st2" x1="612.4" y1="65.9" x2="278.9" y2="-267.6"/>
			</g>
		</g>
	</g>
	<g>
		<defs>
			<rect id="SVGID_3_" x="209.5" y="71" width="114.3" height="110.9"/>
		</defs>
		<clipPath id="SVGID_4_">
			<use xlink:href="#SVGID_3_"  style="overflow:visible;"/>
		</clipPath>
		<g class="st3">
			<rect x="117.8" y="-105.6" class="st4" width="322.2" height="322.2"/>
		</g>
	</g>
</g>
<g id="Walls">
	<path class="st5" d="M354.7,210l0,4.4h4.4v-30.9h-4.4v22.1h-30.9v-35.3h-4.4v8.8H213.6l0-90.6h14.9V73.3l91,0V135h4.4V73.3h35.3
		V60.1l-158.8,0l0,345.9l-2.6,11l12.8,3.1l3.1-12.8v-7.5h70.6v-26.4h-70.6V183.6h105.9V210H354.7z M224,73.3v10.8h-10.4V73.3H224z"
		/>
	<path class="st5" d="M522.3,60.1H403.2v13.2h20.8v25.3h4.4V73.3h80.6V148h-14v17.7h14l0,207.5h-10.9v22l-4.9,21.6l12.8,3.1
		l4.6-20.3h11.7L522.3,60.1z M499.5,161.3v-8.9h9.5v8.9H499.5z"/>
	<polygon class="st5" points="359.1,377.6 359.1,249.7 354.7,249.7 354.7,395.3 349.9,416.9 362.6,420 367.2,399.7 411.2,399.7 
		426.5,403.2 431.4,381.6 414.6,377.6 	"/>
</g>
<path id="Doors" class="st6" d="M319.4,135c-4.9,0-8.8,0.9-13.2,2.6c-4.4,1.8-8.4,4.4-11.5,7.5c-3.5,3.1-6.2,7.1-7.9,11.5
	c-1.8,4.4-2.6,8.8-2.6,13.7h35.3 M354.7,249.7c-4.9,0-8.8-0.9-13.2-2.6c-4.4-1.8-8.4-4.4-11.5-7.5c-3.5-3.1-6.2-7.1-7.9-11.5
	s-2.6-8.8-2.6-13.7h35.3 M403.2,60.3c0-5.7-1.3-11.2-3.5-16.5c-2.2-5.3-5.3-10.6-9.7-14.6c-4-4-8.8-7.5-14.1-9.7
	c-5.3-2.2-11-3.5-16.8-3.5l0,44.3"/>
<g id="Windows">
	
		<rect x="315.6" y="364.3" transform="matrix(0.2515 -0.9679 0.9679 0.2515 -152.3254 611.0211)" class="st7" width="6.6" height="79.4"/>
	
		<rect x="457.3" y="368.7" transform="matrix(0.2515 -0.9679 0.9679 0.2515 -47.0987 748.9294)" class="st7" width="6.6" height="72.4"/>
</g>
<g id="Furniture">
	<g>
		<g>
			<rect x="214" y="255.3" class="st8" width="85.1" height="73.5"/>
			<path class="st9" d="M214.5,255.8l84.1,0l0,72.5l-84.1,0L214.5,255.8 M213.5,254.8l0,74.5l86.1,0l0-74.5L213.5,254.8L213.5,254.8
				z"/>
		</g>
		<rect x="219.6" y="261.1" class="st10" width="21.3" height="29.1"/>
		<rect x="219.6" y="293.8" class="st10" width="21.3" height="29.1"/>
		<polygon class="st11" points="232.2,264.7 226.7,285.7 247.3,291.4 252.8,270.3 		"/>
		<polygon class="st11" points="247.3,292.9 226.7,298.5 232.3,319.5 252.8,313.9 		"/>
		<g>
			<polygon class="st8" points="232,328.8 230.2,299.5 236.5,255.3 299.9,255.3 299.9,328.8 			"/>
			<path class="st9" d="M236.9,255.8l62.5,0l0,72.5h-66.5h-0.4l-1.7-28.8L236.9,255.8 M236.5,254.8H236l-6.3,44.7l1.8,29.8h1.4h67.5
				l0-74.5L236.5,254.8L236.5,254.8z"/>
		</g>
		<polyline class="st12" points="233.7,328.3 233.7,299.2 237.3,255.6 		"/>
	</g>
	<g>
		<g>
			<rect x="214.1" y="207.7" class="st8" width="104.9" height="1.8"/>
			<path class="st9" d="M214.6,208.2l103.9,0l0,0.8l-103.9,0V208.2 M213.6,207.2l0,2.8l105.9,0l0-2.8L213.6,207.2L213.6,207.2z"/>
		</g>
		<g>
			<rect x="214.1" y="184.1" class="st8" width="104.9" height="23.6"/>
			<path class="st9" d="M214.6,184.6l103.9,0l0,22.6l-103.9,0L214.6,184.6 M213.6,183.6l0,24.6l105.9,0l0-24.6L213.6,183.6
				L213.6,183.6z"/>
		</g>
		<path class="st10" d="M318.9,184.4l-105.2,23"/>
	</g>
	<g>
		<g>
			<rect x="347.9" y="73.8" class="st8" width="1.8" height="56.5"/>
			<path class="st9" d="M348.4,74.3l0.8,0l0,55.5h-0.8V74.3 M347.4,73.3v57.5h2.8l0-57.5L347.4,73.3L347.4,73.3z"/>
		</g>
		<g>
			<rect x="324.3" y="73.8" class="st8" width="23.6" height="56.5"/>
			<path class="st9" d="M324.8,74.3l22.6,0l0,55.5h-22.6V74.3 M323.8,73.3v57.5h24.6l0-57.5L323.8,73.3L323.8,73.3z"/>
		</g>
		<path class="st10" d="M324.6,73.6l23,57.1"/>
	</g>
	<g>
		<g>
			<rect x="410.2" y="73.8" class="st8" width="1.8" height="19.9"/>
			<path class="st9" d="M411.5,74.3l0,18.9h-0.8l0-18.9H411.5 M412.5,73.3h-2.8l0,20.9h2.8L412.5,73.3L412.5,73.3z"/>
		</g>
		<g>
			<rect x="412" y="73.8" class="st8" width="11.5" height="19.9"/>
			<path class="st9" d="M423.1,74.3l0,18.9l-10.5,0V74.3H423.1 M424.1,73.3h-12.5v20.9l12.5,0L424.1,73.3L424.1,73.3z"/>
		</g>
		<path class="st10" d="M423.4,93.7l-11.3-19.9"/>
	</g>
	<g>
		<g>
			<rect x="214.1" y="95.9" class="st8" width="31.3" height="82.8"/>
			<path class="st9" d="M244.8,96.4l0,81.8l-30.3,0l0-81.8L244.8,96.4 M245.8,95.4l-32.3,0l0,83.8l32.3,0L245.8,95.4L245.8,95.4z"/>
		</g>
		<g>
			<g>
				<path class="st13" d="M229.7,105.3c6,0,10.6,5.2,10.1,11.1c-0.6,6.5-1.1,14.8-1.1,20.9c0,6.1,0.6,14.3,1.1,20.9
					c0.5,5.9-4.2,11.1-10.1,11.1s-10.6-5.2-10.1-11.1c0.6-6.5,1.1-14.8,1.1-20.9c0-6.1-0.6-14.3-1.1-20.9
					C219.1,110.5,223.8,105.3,229.7,105.3z"/>
				<ellipse class="st13" cx="229.7" cy="115.7" rx="1.3" ry="1.3"/>
			</g>
		</g>
	</g>
	<g id="Sink_2">
		<g id="Rectangle_16_x5F_11">
			<rect x="245.4" y="73.8" class="st8" width="32.9" height="22.1"/>
			<path class="st9" d="M277.7,74.3l0,21.1l-31.9,0l0-21.1L277.7,74.3 M278.7,73.3l-33.9,0l0,23.1l33.9,0L278.7,73.3L278.7,73.3z"/>
		</g>
		<path id="Rectangle_19_x5F_5" class="st10" d="M249.6,84.8L249.6,84.8c0,3.9,3.2,7.1,7.1,7.1h10.1c3.9,0,7.1-3.2,7.1-7.1l0,0
			c0-3.9-3.2-7.1-7.1-7.1h-10.1C252.8,77.7,249.6,80.9,249.6,84.8z"/>
		<circle id="Ellipse_7_x5F_2" class="st10" cx="261.8" cy="81.6" r="1.3"/>
	</g>
	<g id="Toilet_3_">
		<g id="Rectangle_21_3_">
			<rect x="288" y="83.6" class="st8" width="17.8" height="6"/>
			<path class="st9" d="M305.3,84.1v5l-16.8,0v-5L305.3,84.1 M306.3,83.1l-18.8,0v7l18.8,0V83.1L306.3,83.1z"/>
		</g>
		<path id="Rectangle_19_x5F_2_3_" class="st10" d="M290.2,102c-0.3,3.9,2.8,7.2,6.7,7.2l0,0c3.9,0,7-3.3,6.7-7.2l-0.8-12.4l-11.7,0
			L290.2,102z"/>
		<path id="Rectangle_18_x5F_13_3_" class="st10" d="M292.4,101.7c-0.2,2.7,1.9,5,4.6,5l0,0c2.7,0,4.8-2.3,4.6-5l-0.7-7.3H293
			L292.4,101.7z"/>
		<ellipse id="Ellipse_6_x5F_2_3_" class="st10" cx="296.9" cy="97.4" rx="1.3" ry="1.3"/>
	</g>
	<g id="TV">
		<g id="Rectangle_16">
			<rect x="341.8" y="263.4" class="st8" width="8.8" height="63.6"/>
			<path class="st9" d="M350.1,263.9v62.6h-7.8v-62.6H350.1 M351.1,262.9h-9.8v64.6h9.8V262.9L351.1,262.9z"/>
		</g>
		<g id="Rectangle_15">
			<rect x="343.6" y="263.4" class="st8" width="10.6" height="63.6"/>
			<path class="st9" d="M353.7,263.9v62.6h-9.6v-62.6H353.7 M354.7,262.9h-11.6v64.6h11.6V262.9L354.7,262.9z"/>
		</g>
		<rect id="Rectangle_17" x="350.9" y="273.7" class="st10" width="1.7" height="42.9"/>
		<path id="Rectangle_18_x5F_2" class="st10" d="M352.6,304.2v-18.1l1.6,1.6v14.9L352.6,304.2z"/>
	</g>
	<g id="TV_1_">
		<g id="Rectangle_16_1_">
			<rect x="363.2" y="263.4" class="st8" width="8.8" height="63.6"/>
			<path class="st9" d="M371.5,263.9v62.6h-7.8v-62.6H371.5 M372.5,262.9h-9.8v64.6h9.8V262.9L372.5,262.9z"/>
		</g>
		<g id="Rectangle_15_1_">
			<rect x="359.6" y="263.4" class="st8" width="10.6" height="63.6"/>
			<path class="st9" d="M369.7,263.9v62.6h-9.6v-62.6H369.7 M370.7,262.9h-11.6v64.6h11.6V262.9L370.7,262.9z"/>
		</g>
		<rect id="Rectangle_17_1_" x="361.2" y="273.7" class="st10" width="1.7" height="42.9"/>
		<path id="Rectangle_18_x5F_2_1_" class="st10" d="M361.2,304.2v-18.1l-1.6,1.6v14.9L361.2,304.2z"/>
	</g>
	<g>
		<polygon class="st8" points="484.7,147.5 484.7,97.7 429,97.7 429,73.8 508.6,73.8 508.6,147.5 		"/>
		<path class="st9" d="M508.1,74.3l0,23.8l0,48.8h-22.8V98.2v-1h-1l-54.7,0V74.3H508.1 M509.1,73.3h-80.6v24.8l55.7,0V148h24.8
			l0-49.8h0V73.3L509.1,73.3z"/>
	</g>
	<g id="Rectangle_27">
		<rect x="437.4" y="73.8" class="st8" width="27.5" height="23.8"/>
		<path class="st9" d="M464.4,74.3v22.8l-26.5,0l0-22.8L464.4,74.3 M465.4,73.3l-28.5,0l0,24.8l28.5,0V73.3L465.4,73.3z"/>
	</g>
	<g id="Rectangle_27_2_">
		<rect x="437.4" y="95.8" class="st8" width="27.5" height="1.8"/>
		<path class="st9" d="M464.4,96.3l0,0.8h-26.5v-0.8H464.4 M465.4,95.3h-28.5v2.8h28.5L465.4,95.3L465.4,95.3z"/>
	</g>
	<g id="Sink_3">
		<rect id="Rectangle_28_x5F_2" x="473.9" y="76.3" class="st10" width="29.5" height="18.6"/>
		<path id="Rectangle_29_x5F_2" class="st10" d="M491.8,85.7L491.8,85.7c0,3.9-3.1,7-7,7h-1.6c-3.9,0-7-3.1-7-7v0c0-3.9,3.1-7,7-7
			h1.6C488.7,78.7,491.8,81.8,491.8,85.7z"/>
		<ellipse id="Ellipse_7_x5F_3" class="st10" cx="484" cy="82.6" rx="1.3" ry="1.3"/>
		<path id="Vector_2" class="st12" d="M501.8,78.7H494 M501.8,81H494 M501.8,83.3H494 M501.8,85.7H494 M501.8,88H494 M501.8,90.3
			H494 M501.8,92.6H494"/>
	</g>
	<g id="Stove">
		<g id="Rectangle_25">
			<rect x="484.8" y="117.9" class="st8" width="23.8" height="23.2"/>
			<path class="st9" d="M508.1,118.4v22.2h-22.8v-22.2H508.1 M509.1,117.4h-24.8v24.2h24.8V117.4L509.1,117.4z"/>
		</g>
		<g id="Rectangle_28_x5F_3_1_">
			<rect x="506.6" y="117.9" class="st8" width="1.8" height="23.2"/>
			<path class="st9" d="M508,118.4v22.2h-0.8v-22.2H508 M509,117.4h-2.8v24.2h2.8V117.4L509,117.4z"/>
		</g>
		<g id="Ellipse_7_x5F_4">
			<path class="st8" d="M500.5,138c-1.4,0-2.6-1.2-2.6-2.6s1.2-2.6,2.6-2.6s2.6,1.2,2.6,2.6S502,138,500.5,138z"/>
			<path class="st9" d="M500.5,133.3c1.2,0,2.1,0.9,2.1,2.1s-0.9,2.1-2.1,2.1s-2.1-0.9-2.1-2.1S499.4,133.3,500.5,133.3
				 M500.5,132.3c-1.7,0-3.1,1.4-3.1,3.1s1.4,3.1,3.1,3.1c1.7,0,3.1-1.4,3.1-3.1S502.3,132.3,500.5,132.3L500.5,132.3z"/>
		</g>
		<g id="Ellipse_9">
			<circle class="st8" cx="491.2" cy="135.4" r="3.4"/>
			<path class="st9" d="M491.2,132.5c1.6,0,2.9,1.3,2.9,2.9s-1.3,2.9-2.9,2.9s-2.9-1.3-2.9-2.9S489.7,132.5,491.2,132.5
				 M491.2,131.5c-2.1,0-3.9,1.7-3.9,3.9c0,2.1,1.7,3.9,3.9,3.9s3.9-1.7,3.9-3.9C495.1,133.3,493.4,131.5,491.2,131.5L491.2,131.5z"
				/>
		</g>
		<g id="Ellipse_10">
			<path class="st8" d="M500.5,127.9c-1.9,0-3.4-1.5-3.4-3.4s1.5-3.4,3.4-3.4s3.4,1.5,3.4,3.4S502.4,127.9,500.5,127.9z"/>
			<path class="st9" d="M500.5,121.7c1.6,0,2.9,1.3,2.9,2.9s-1.3,2.9-2.9,2.9s-2.9-1.3-2.9-2.9S499,121.7,500.5,121.7 M500.5,120.7
				c-2.1,0-3.9,1.7-3.9,3.9s1.7,3.9,3.9,3.9s3.9-1.7,3.9-3.9S502.7,120.7,500.5,120.7L500.5,120.7z"/>
		</g>
		<g id="Ellipse_8">
			<circle class="st8" cx="490.5" cy="124.5" r="2.6"/>
			<path class="st9" d="M490.5,122.4c1.2,0,2.1,0.9,2.1,2.1s-0.9,2.1-2.1,2.1c-1.2,0-2.1-0.9-2.1-2.1S489.3,122.4,490.5,122.4
				 M490.5,121.4c-1.7,0-3.1,1.4-3.1,3.1c0,1.7,1.4,3.1,3.1,3.1c1.7,0,3.1-1.4,3.1-3.1C493.6,122.8,492.2,121.4,490.5,121.4
				L490.5,121.4z"/>
		</g>
	</g>
	<path id="Vector_3" class="st12" d="M454.2,85.4l-6.2,0 M452.7,88.1l-3.1-5.4 M452.7,82.7l-3.1,5.4"/>
	<g>
		<path class="st10" d="M478.4,305.7c-1.3,0-2.3-1-2.3-2.3l0-34.9c0-1.3,1-2.3,2.3-2.3l22.9,0v39.6H478.4z"/>
		<path class="st10" d="M478.4,343.4c-1.3,0-2.3-1-2.3-2.3V308c0-1.3,1-2.3,2.3-2.3h22.9v37.8L478.4,343.4z"/>
		<polygon class="st10" points="474.2,343.4 501.3,343.4 501.3,304.8 501.3,266.1 474.2,266.1 474.2,258.8 508.6,258.8 508.6,350.7 
			474.2,350.7 		"/>
	</g>
	<g>
		<rect x="278.2" y="73.8" class="st8" width="40.7" height="9.9"/>
		<path class="st9" d="M318.4,74.3v8.9h-39.7v-8.9H318.4 M319.4,73.3h-41.7v10.9h41.7V73.3L319.4,73.3z"/>
	</g>
	<g>
		<g>
			<rect x="324.3" y="184.1" class="st8" width="29.9" height="21.1"/>
			<path class="st9" d="M353.7,184.6v20.1h-28.9v-20.1H353.7 M354.7,183.6h-30.9v22.1h30.9V183.6L354.7,183.6z"/>
		</g>
		<g>
			<line class="st12" x1="324.5" y1="184.4" x2="334.4" y2="191.2"/>
		</g>
		<g>
			<line class="st12" x1="354" y1="184.4" x2="344.1" y2="191.2"/>
		</g>
		<g>
			<line class="st12" x1="324.5" y1="204.9" x2="334.4" y2="198.1"/>
		</g>
		<g>
			<line class="st12" x1="354" y1="204.9" x2="344.1" y2="198.1"/>
		</g>
	</g>
	<g>
		<g>
			<rect x="428.4" y="166.2" class="st8" width="80.2" height="39.5"/>
			<path class="st9" d="M508.1,166.7v38.5h-79.2v-38.5H508.1 M509.1,165.7h-81.2v40.5h81.2V165.7L509.1,165.7z"/>
		</g>
		<g>
			<rect x="428.4" y="190.6" class="st8" width="80.2" height="3.1"/>
			<path class="st9" d="M508.1,191.1v2.1h-79.2v-2.1H508.1 M509.1,190.1h-81.2v4.1h81.2V190.1L509.1,190.1z"/>
		</g>
	</g>
	<g>
		<path class="st8" d="M439.8,231c-4.9,0-8.9-4-8.9-8.9s4-8.9,8.9-8.9c4.9,0,8.9,4,8.9,8.9S444.7,231,439.8,231z"/>
		<path class="st9" d="M439.8,213.7c4.6,0,8.4,3.8,8.4,8.4c0,4.6-3.8,8.4-8.4,8.4s-8.4-3.8-8.4-8.4
			C431.4,217.4,435.2,213.7,439.8,213.7 M439.8,212.7c-5.2,0-9.4,4.2-9.4,9.4c0,5.2,4.2,9.4,9.4,9.4s9.4-4.2,9.4-9.4
			C449.2,216.9,445,212.7,439.8,212.7L439.8,212.7z"/>
	</g>
	<g>
		<path class="st8" d="M469.2,231c-4.9,0-8.9-4-8.9-8.9s4-8.9,8.9-8.9c4.9,0,8.9,4,8.9,8.9S474.1,231,469.2,231z"/>
		<path class="st9" d="M469.2,213.7c4.6,0,8.4,3.8,8.4,8.4c0,4.6-3.8,8.4-8.4,8.4s-8.4-3.8-8.4-8.4
			C460.8,217.4,464.6,213.7,469.2,213.7 M469.2,212.7c-5.2,0-9.4,4.2-9.4,9.4c0,5.2,4.2,9.4,9.4,9.4c5.2,0,9.4-4.2,9.4-9.4
			C478.6,216.9,474.4,212.7,469.2,212.7L469.2,212.7z"/>
	</g>
	<g>
		<path class="st8" d="M496.7,231c-4.9,0-8.9-4-8.9-8.9s4-8.9,8.9-8.9c4.9,0,8.9,4,8.9,8.9S501.6,231,496.7,231z"/>
		<path class="st9" d="M496.7,213.7c4.6,0,8.4,3.8,8.4,8.4c0,4.6-3.8,8.4-8.4,8.4s-8.4-3.8-8.4-8.4
			C488.2,217.4,492,213.7,496.7,213.7 M496.7,212.7c-5.2,0-9.4,4.2-9.4,9.4c0,5.2,4.2,9.4,9.4,9.4c5.2,0,9.4-4.2,9.4-9.4
			C506.1,216.9,501.9,212.7,496.7,212.7L496.7,212.7z"/>
	</g>
	<g>
		<polygon class="st8" points="214.1,95.9 214.1,89.1 228.9,89.1 228.9,73.8 245.3,73.8 245.3,95.9 		"/>
		<path class="st9" d="M244.8,74.3v21.1h-11.5h-5h-13.9v-5.8h13.9h1v-1V74.3H244.8 M245.8,73.3h-17.4v15.3h-14.9v7.8h14.9h5h12.5
			V73.3L245.8,73.3z"/>
	</g>
</g>
<g id="Numbers_1_">
	<g>
		<path class="st5" d="M335.6,149.8l1.9-1.6h0.8v6.7h-1v-5.3l-1.2,0.9L335.6,149.8z"/>
		<path class="st5" d="M340.2,155c-0.2,0-0.3-0.1-0.5-0.2c-0.1-0.1-0.2-0.3-0.2-0.5c0-0.2,0.1-0.3,0.2-0.4c0.1-0.1,0.3-0.2,0.5-0.2
			c0.2,0,0.3,0.1,0.4,0.2c0.1,0.1,0.2,0.3,0.2,0.4c0,0.2-0.1,0.3-0.2,0.5C340.5,154.9,340.4,155,340.2,155z"/>
		<path class="st5" d="M340.8,149.8l1.9-1.6h0.8v6.7h-1v-5.3l-1.2,0.9L340.8,149.8z"/>
	</g>
	<g>
		<path class="st5" d="M376,96l-1.6,1.8h2.7v1h-4.2v-0.9l2.1-2.3l0.5-0.6c0.1-0.1,0.2-0.3,0.3-0.5c0.1-0.2,0.1-0.4,0.1-0.6
			c0-0.3-0.1-0.5-0.3-0.7c-0.2-0.2-0.5-0.3-0.8-0.3c-0.5,0-1,0.2-1.6,0.7l-0.6-0.7c0.7-0.6,1.4-1,2.2-1c0.6,0,1.1,0.2,1.5,0.6
			c0.4,0.4,0.6,0.9,0.6,1.4C377,94.6,376.7,95.3,376,96z"/>
		<path class="st5" d="M378.6,98.9c-0.2,0-0.3-0.1-0.5-0.2c-0.1-0.1-0.2-0.3-0.2-0.5c0-0.2,0.1-0.3,0.2-0.4c0.1-0.1,0.3-0.2,0.5-0.2
			c0.2,0,0.3,0.1,0.4,0.2c0.1,0.1,0.2,0.3,0.2,0.4c0,0.2-0.1,0.3-0.2,0.5C379,98.8,378.8,98.9,378.6,98.9z"/>
		<path class="st5" d="M379.7,93v-0.9h4.2v0.7l-2.5,6h-1.1l2.5-5.7H379.7z"/>
	</g>
	<g>
		<path class="st5" d="M269.5,129.5c0.6,0,1.2,0.2,1.6,0.6c0.4,0.4,0.6,0.9,0.6,1.6c0,0.7-0.2,1.2-0.7,1.6c-0.4,0.4-1,0.6-1.7,0.6
			c-0.8,0-1.5-0.3-2.2-0.8l0.5-0.8c0.6,0.4,1.1,0.6,1.7,0.6c0.4,0,0.7-0.1,1-0.4c0.3-0.2,0.4-0.5,0.4-0.9c0-0.4-0.1-0.7-0.4-0.9
			c-0.2-0.2-0.6-0.4-1-0.4c-0.5,0-0.9,0.2-1.2,0.5l-0.6-0.4l0.4-3.3h3.4v0.9h-2.6l-0.2,1.6C268.8,129.6,269.2,129.5,269.5,129.5z"/>
		<path class="st5" d="M273.2,134c-0.2,0-0.3-0.1-0.5-0.2c-0.1-0.1-0.2-0.3-0.2-0.5c0-0.2,0.1-0.3,0.2-0.4c0.1-0.1,0.3-0.2,0.5-0.2
			c0.2,0,0.3,0.1,0.4,0.2c0.1,0.1,0.2,0.3,0.2,0.4c0,0.2-0.1,0.3-0.2,0.5C273.5,133.9,273.4,134,273.2,134z"/>
		<path class="st5" d="M277.8,131.1l-1.6,1.8h2.7v1h-4.2V133l2.1-2.3l0.5-0.6c0.1-0.1,0.2-0.3,0.3-0.5s0.1-0.4,0.1-0.6
			c0-0.3-0.1-0.5-0.3-0.7c-0.2-0.2-0.5-0.3-0.8-0.3c-0.5,0-1,0.2-1.6,0.7l-0.6-0.7c0.7-0.6,1.4-1,2.2-1c0.6,0,1.1,0.2,1.5,0.6
			c0.4,0.4,0.6,0.9,0.6,1.4C278.8,129.7,278.5,130.3,277.8,131.1z"/>
	</g>
	<g>
		<path class="st5" d="M310.4,342.9l1.9-1.6h0.8v6.7h-1v-5.3l-1.2,0.9L310.4,342.9z"/>
		<path class="st5" d="M316.2,348.1c-0.7,0-1.4-0.2-2.1-0.7l0.5-0.8c0.6,0.4,1.1,0.5,1.6,0.5c0.4,0,0.7-0.1,0.9-0.3
			c0.2-0.2,0.3-0.4,0.3-0.8c0-0.3-0.1-0.6-0.4-0.8c-0.2-0.2-0.5-0.3-0.9-0.3h-0.8v-0.9h0.8c0.3,0,0.6-0.1,0.8-0.3
			c0.2-0.2,0.3-0.4,0.3-0.7c0-0.3-0.1-0.5-0.3-0.7s-0.5-0.3-0.8-0.3c-0.4,0-0.9,0.2-1.4,0.6l-0.5-0.7c0.2-0.2,0.6-0.4,0.9-0.6
			c0.4-0.1,0.7-0.2,1.1-0.2c0.6,0,1.1,0.2,1.5,0.5c0.4,0.3,0.6,0.8,0.6,1.2c0,0.4-0.1,0.7-0.3,0.9c-0.2,0.3-0.5,0.5-0.8,0.6v0
			c0.4,0.1,0.7,0.3,1,0.6c0.2,0.3,0.3,0.6,0.3,1.1c0,0.6-0.2,1-0.6,1.4C317.4,347.9,316.8,348.1,316.2,348.1z"/>
		<path class="st5" d="M320,348.1c-0.2,0-0.3-0.1-0.5-0.2c-0.1-0.1-0.2-0.3-0.2-0.5c0-0.2,0.1-0.3,0.2-0.4c0.1-0.1,0.3-0.2,0.5-0.2
			c0.2,0,0.3,0.1,0.4,0.2c0.1,0.1,0.2,0.3,0.2,0.4c0,0.2-0.1,0.3-0.2,0.5C320.3,348.1,320.2,348.1,320,348.1z"/>
		<path class="st5" d="M324.6,345.2L323,347h2.7v1h-4.2v-0.9l2.1-2.3l0.5-0.6c0.1-0.1,0.2-0.3,0.3-0.5s0.1-0.4,0.1-0.6
			c0-0.3-0.1-0.5-0.3-0.7c-0.2-0.2-0.5-0.3-0.8-0.3c-0.5,0-1,0.2-1.6,0.7l-0.6-0.7c0.7-0.6,1.4-1,2.2-1c0.6,0,1.1,0.2,1.5,0.6
			c0.4,0.4,0.6,0.9,0.6,1.4C325.6,343.8,325.3,344.5,324.6,345.2z"/>
	</g>
	<g>
		<path class="st5" d="M429.9,285.9l-1.6,1.8h2.7v1h-4.2v-0.9l2.1-2.3l0.5-0.6c0.1-0.1,0.2-0.3,0.3-0.5c0.1-0.2,0.1-0.4,0.1-0.6
			c0-0.3-0.1-0.5-0.3-0.7c-0.2-0.2-0.5-0.3-0.8-0.3c-0.5,0-1,0.2-1.6,0.7l-0.6-0.7c0.7-0.6,1.4-1,2.2-1c0.6,0,1.1,0.2,1.5,0.6
			c0.4,0.4,0.6,0.9,0.6,1.4C430.9,284.5,430.6,285.2,429.9,285.9z"/>
		<path class="st5" d="M435.7,288.5c-0.4,0.2-0.8,0.3-1.2,0.3s-0.9-0.1-1.2-0.3c-0.6-0.4-1-1-1.3-1.9c-0.1-0.4-0.1-0.8-0.1-1.3
			c0-0.4,0-0.8,0.1-1.2c0.1-0.4,0.2-0.8,0.5-1.1s0.5-0.6,0.8-0.8c0.3-0.2,0.8-0.3,1.2-0.3c0.5,0,0.9,0.1,1.2,0.3
			c0.6,0.3,1.1,1,1.3,1.9c0.2,0.8,0.2,1.7,0,2.5C436.8,287.5,436.4,288.1,435.7,288.5z M434.5,287.8c0.5,0,0.9-0.2,1.2-0.7
			c0.3-0.5,0.4-1.1,0.4-1.8c0-0.7-0.1-1.3-0.4-1.8c-0.3-0.5-0.7-0.7-1.2-0.7c-0.5,0-0.9,0.2-1.2,0.7c-0.3,0.5-0.4,1-0.4,1.8
			c0,0.7,0.1,1.3,0.4,1.8C433.6,287.6,434,287.8,434.5,287.8z"/>
		<path class="st5" d="M438.5,288.8c-0.2,0-0.3-0.1-0.5-0.2c-0.1-0.1-0.2-0.3-0.2-0.5c0-0.2,0.1-0.3,0.2-0.4
			c0.1-0.1,0.3-0.2,0.5-0.2c0.2,0,0.3,0.1,0.4,0.2c0.1,0.1,0.2,0.3,0.2,0.4c0,0.2-0.1,0.3-0.2,0.5
			C438.8,288.7,438.7,288.8,438.5,288.8z"/>
		<path class="st5" d="M442.2,284.3c0.6,0,1.2,0.2,1.6,0.6c0.4,0.4,0.6,0.9,0.6,1.6c0,0.7-0.2,1.2-0.7,1.6c-0.4,0.4-1,0.6-1.7,0.6
			c-0.8,0-1.5-0.3-2.2-0.8l0.5-0.8c0.6,0.4,1.1,0.6,1.7,0.6c0.4,0,0.7-0.1,1-0.4c0.3-0.2,0.4-0.5,0.4-0.9c0-0.4-0.1-0.7-0.4-0.9
			c-0.2-0.2-0.6-0.4-1-0.4c-0.5,0-0.9,0.2-1.2,0.5l-0.6-0.4l0.4-3.3h3.4v0.9h-2.6l-0.2,1.6C441.5,284.4,441.8,284.3,442.2,284.3z"/>
	</g>
</g>
<g id="street_anchors" class="st14">
	<rect id="street_x5F_anchor_x5F_01_1_" x="355.3" y="450" class="st15" width="10" height="10"/>
</g>
</svg>
