<?xml version="1.0" encoding="utf-8"?>
<!-- Generator: Adobe Illustrator 24.2.0, SVG Export Plug-In . SVG Version: 6.00 Build 0)  -->
<!DOCTYPE svg PUBLIC "-//W3C//DTD SVG 1.1//EN" "http://www.w3.org/Graphics/SVG/1.1/DTD/svg11.dtd" [
	<!ENTITY ns_extend "http://ns.adobe.com/Extensibility/1.0/">
	<!ENTITY ns_ai "http://ns.adobe.com/AdobeIllustrator/10.0/">
	<!ENTITY ns_graphs "http://ns.adobe.com/Graphs/1.0/">
	<!ENTITY ns_vars "http://ns.adobe.com/Variables/1.0/">
	<!ENTITY ns_imrep "http://ns.adobe.com/ImageReplacement/1.0/">
	<!ENTITY ns_sfw "http://ns.adobe.com/SaveForWeb/1.0/">
	<!ENTITY ns_custom "http://ns.adobe.com/GenericCustomNamespace/1.0/">
	<!ENTITY ns_adobe_xpath "http://ns.adobe.com/XPath/1.0/">
]>
<svg version="1.1" id="_x31__x5F_2" xmlns:x="&ns_extend;" xmlns:i="&ns_ai;" xmlns:graph="&ns_graphs;"
	 xmlns="http://www.w3.org/2000/svg" xmlns:xlink="http://www.w3.org/1999/xlink" x="0px" y="0px" viewBox="0 0 720 480"
	 style="enable-background:new 0 0 720 480;" xml:space="preserve">
<style type="text/css">
	.st0{fill:#DBD4CA;}
	.st1{clip-path:url(#SVGID_2_);}
	.st2{fill:none;stroke:#C49F8A;stroke-miterlimit:10;}
	.st3{opacity:0.3;clip-path:url(#SVGID_2_);}
	.st4{opacity:0.7;fill:#C49F8A;}
	.st5{fill:none;stroke:#565440;}
	.st6{fill:none;stroke:#565440;stroke-width:1.0000414;stroke-miterlimit:4.0001655;}
	.st7{fill:#565440;}
	.st8{fill:#E9E4DC;}
	.st9{fill:#C49F8A;}
	.st10{fill:#E9E4DC;stroke:#C49F8A;}
	.st11{fill:none;stroke:#C49F8A;}
	.st12{fill:#E9E4DC;stroke:#C49F8A;stroke-width:0.9999701;stroke-miterlimit:3.999681;}
	.st13{opacity:0;}
	.st14{fill:none;}
</style>
<metadata>
	<sfw  xmlns="&ns_sfw;">
		<slices></slices>
		<sliceSourceBounds  bottomLeftOrigin="true" height="667.6734619" width="667.6734619" x="-21.1289291" y="-177.9931946">
			</sliceSourceBounds>
	</sfw>
</metadata>
<polygon id="Floor" class="st0" points="536.1294556,70.1999741 536.1294556,103.3999786 550.5889282,110.3509521 
	529.7446289,193.8678894 529.1717529,260.5999756 549.7423096,270.3632202 527.9570313,354.2312927 527.9570313,419.717804 
	159.0294495,419.717804 159.0294495,70.1999741 "/>
<g id="Wet_Floor_1_">
	<defs>
		<rect id="SVGID_1_" x="165.5287476" y="240.4907837" width="108.9547653" height="166.9345245"/>
	</defs>
	<clipPath id="SVGID_2_">
		<use xlink:href="#SVGID_1_"  style="overflow:visible;"/>
	</clipPath>
	<g class="st1">
		<g>
			<line class="st2" x1="-10.3540268" y1="334.5778503" x2="323.1291809" y2="1.0946441"/>
			<line class="st2" x1="-20.7753754" y1="324.1564941" x2="312.7078247" y2="-9.326704"/>
			<line class="st2" x1="0.0673212" y1="344.999176" x2="333.5505066" y2="11.5159922"/>
			<line class="st2" x1="10.4886694" y1="355.4205322" x2="343.9718628" y2="21.9373417"/>
			<line class="st2" x1="20.910017" y1="365.8418884" x2="354.393219" y2="32.3586884"/>
			<line class="st2" x1="31.3313656" y1="376.2632446" x2="364.8145752" y2="42.7800369"/>
			<line class="st2" x1="41.7527161" y1="386.6845703" x2="375.2359009" y2="53.2013855"/>
			<line class="st2" x1="52.1740646" y1="397.1059265" x2="385.6572571" y2="63.6227341"/>
			<line class="st2" x1="62.5954132" y1="407.5272827" x2="396.0786133" y2="74.0440826"/>
			<line class="st2" x1="73.0167618" y1="417.9486389" x2="406.4999695" y2="84.4654312"/>
			<line class="st2" x1="62.5954132" y1="407.5272827" x2="396.0786133" y2="74.0440826"/>
			<line class="st2" x1="83.4381104" y1="428.3699646" x2="416.9212952" y2="94.8867798"/>
			<line class="st2" x1="93.8594589" y1="438.7913208" x2="427.3426514" y2="105.3081284"/>
			<line class="st2" x1="104.2808075" y1="449.212677" x2="437.7640076" y2="115.7294769"/>
			<line class="st2" x1="114.7021561" y1="459.6340332" x2="448.1853638" y2="126.1508255"/>
			<line class="st2" x1="125.1235046" y1="470.0553589" x2="458.6066895" y2="136.5721741"/>
			<line class="st2" x1="135.5448456" y1="480.4767151" x2="469.0280457" y2="146.993515"/>
			<line class="st2" x1="145.9662018" y1="490.8980713" x2="479.4494019" y2="157.4148712"/>
			<line class="st2" x1="156.3875427" y1="501.3194275" x2="489.8707581" y2="167.8362122"/>
			<line class="st2" x1="145.9662018" y1="490.8980713" x2="479.4494019" y2="157.4148712"/>
			<line class="st2" x1="166.8088989" y1="511.7407532" x2="500.2920837" y2="178.2575684"/>
			<line class="st2" x1="177.2302399" y1="522.1621094" x2="510.7134399" y2="188.6789093"/>
			<line class="st2" x1="187.6515961" y1="532.5834351" x2="521.1347656" y2="199.1002655"/>
			<line class="st2" x1="198.072937" y1="543.0048218" x2="531.5561523" y2="209.5216064"/>
			<line class="st2" x1="208.4942932" y1="553.4261475" x2="541.977478" y2="219.9429626"/>
			<line class="st2" x1="218.9156342" y1="563.8475342" x2="552.3988647" y2="230.3643036"/>
			<line class="st2" x1="229.3369904" y1="574.2688599" x2="562.8201904" y2="240.7856598"/>
			<line class="st2" x1="239.7583313" y1="584.6901855" x2="573.2415161" y2="251.2070007"/>
			<line class="st2" x1="229.3369904" y1="574.2688599" x2="562.8201904" y2="240.7856598"/>
			<line class="st2" x1="250.1796875" y1="595.1115723" x2="583.6629028" y2="261.6283569"/>
			<line class="st2" x1="260.6010437" y1="605.5328979" x2="594.0842285" y2="272.0497131"/>
			<line class="st2" x1="271.0223694" y1="615.9542236" x2="604.5055542" y2="282.4710388"/>
			<line class="st2" x1="281.4437256" y1="626.3756104" x2="614.9269409" y2="292.892395"/>
			<line class="st2" x1="291.8650818" y1="636.796936" x2="625.3482666" y2="303.3137512"/>
			<line class="st2" x1="302.286438" y1="647.2183228" x2="635.7695923" y2="313.7351074"/>
			<line class="st2" x1="312.7077637" y1="657.6396484" x2="646.190979" y2="324.1564331"/>
		</g>
		<g>
			<line class="st2" x1="323.1290588" y1="647.2181396" x2="-10.3539848" y2="313.7350769"/>
			<line class="st2" x1="312.7077332" y1="657.6394653" x2="-20.7753334" y2="324.1564331"/>
			<line class="st2" x1="333.550415" y1="636.796814" x2="0.0673638" y2="303.3137512"/>
			<line class="st2" x1="343.9717712" y1="626.3754272" x2="10.4887123" y2="292.892395"/>
			<line class="st2" x1="354.3931274" y1="615.9541016" x2="20.9100609" y2="282.4710388"/>
			<line class="st2" x1="364.8144531" y1="605.5327759" x2="31.3314095" y2="272.0496826"/>
			<line class="st2" x1="375.2358093" y1="595.1113892" x2="41.752758" y2="261.6283569"/>
			<line class="st2" x1="385.6571655" y1="584.6900635" x2="52.1741066" y2="251.2070007"/>
			<line class="st2" x1="396.0784912" y1="574.2686768" x2="62.5954552" y2="240.7856445"/>
			<line class="st2" x1="406.4998474" y1="563.8473511" x2="73.0167999" y2="230.3643036"/>
			<line class="st2" x1="396.0784912" y1="574.2686768" x2="62.5954552" y2="240.7856445"/>
			<line class="st2" x1="416.9212036" y1="553.4260254" x2="83.4381485" y2="219.9429474"/>
			<line class="st2" x1="427.3425598" y1="543.0046387" x2="93.8594971" y2="209.5216064"/>
			<line class="st2" x1="437.7638855" y1="532.583313" x2="104.2808456" y2="199.1002502"/>
			<line class="st2" x1="448.1852417" y1="522.1619873" x2="114.7021942" y2="188.6789093"/>
			<line class="st2" x1="458.6065979" y1="511.7406006" x2="125.1235428" y2="178.2575531"/>
			<line class="st2" x1="469.0279541" y1="501.3192749" x2="135.5448914" y2="167.8362122"/>
			<line class="st2" x1="479.4492798" y1="490.8979187" x2="145.9662476" y2="157.414856"/>
			<line class="st2" x1="489.870636" y1="480.4765625" x2="156.3875885" y2="146.993515"/>
			<line class="st2" x1="479.4492798" y1="490.8979187" x2="145.9662476" y2="157.414856"/>
			<line class="st2" x1="500.2919922" y1="470.0552063" x2="166.8089447" y2="136.5721588"/>
			<line class="st2" x1="510.7133484" y1="459.6338806" x2="177.2302856" y2="126.1508179"/>
			<line class="st2" x1="521.1347046" y1="449.2125244" x2="187.6516418" y2="115.7294693"/>
			<line class="st2" x1="531.5560303" y1="438.7911682" x2="198.0729828" y2="105.3081207"/>
			<line class="st2" x1="541.977356" y1="428.369812" x2="208.4943237" y2="94.8867722"/>
			<line class="st2" x1="552.3987427" y1="417.9484863" x2="218.9156799" y2="84.4654236"/>
			<line class="st2" x1="562.8200684" y1="407.5271301" x2="229.3370209" y2="74.044075"/>
			<line class="st2" x1="573.2414551" y1="397.1057739" x2="239.7583771" y2="63.6227264"/>
			<line class="st2" x1="562.8200684" y1="407.5271301" x2="229.3370209" y2="74.044075"/>
			<line class="st2" x1="583.6627808" y1="386.6844177" x2="250.179718" y2="53.2013779"/>
			<line class="st2" x1="594.0841064" y1="376.263092" x2="260.6010742" y2="42.7800293"/>
			<line class="st2" x1="604.5054932" y1="365.8417358" x2="271.0224304" y2="32.3586807"/>
			<line class="st2" x1="614.9268188" y1="355.4203796" x2="281.4437561" y2="21.9373341"/>
			<line class="st2" x1="625.3481445" y1="344.9990234" x2="291.8651123" y2="11.5159855"/>
			<line class="st2" x1="635.7695313" y1="334.5776978" x2="302.2864685" y2="1.0946368"/>
			<line class="st2" x1="646.1908569" y1="324.1563416" x2="312.7078247" y2="-9.3267117"/>
		</g>
	</g>
	<g class="st3">
		<rect x="146.5348816" y="233.2050629" class="st4" width="180.0736237" height="176.1343536"/>
	</g>
</g>
<path id="Doors" class="st5" d="M226.4301147,245.4248047c0,5.4248047,0.9861908,9.8628998,2.9585724,14.7943726
	c1.9728394,4.931488,4.9314117,9.3700256,8.3839111,12.8220215c3.4519043,3.945282,7.8905945,6.9042969,12.8220062,8.8766785
	c4.9313965,1.9723816,9.8629761,2.9591064,15.2876892,2.9591064V245.424881 M354.6493225,245.4248047
	c0,5.4248047-0.9861755,9.8628998-2.9590149,14.7943726c-1.9723816,4.931488-4.9313965,9.3700256-8.3839111,12.8220215
	c-3.4519043,3.945282-7.8905945,6.9042969-12.8215332,8.8766785c-4.9320374,1.9723816-9.8634338,2.9591064-15.2877197,2.9591064
	V245.424881 M158.8688354,227.6708679c-6.4109192,0-12.3286743-1.4795074-18.2467194-3.9452972
	c-5.9182129-2.4656982-11.8358154-5.9176636-16.2738953-10.8490753c-4.4380875-4.4386139-8.3833084-9.8628998-10.8491669-15.7810364
	c-2.4657059-5.9176636-3.9452133-12.328598-3.9452133-18.7395935h49.3149948"/>
<g id="Windows">
	
		<rect x="498.8939819" y="306.6332397" transform="matrix(0.2514896 -0.96786 0.96786 0.2514896 106.3104019 758.117981)" class="st6" width="88.805542" height="7.3870544"/>
	<polygon class="st5" points="536.894104,195.7260742 529.7446289,193.8678894 550.9385986,111.8581848 558.0875854,113.7159042 	
		"/>
</g>
<g id="Walls">
	<path class="st7" d="M173.6497498,74.7943115h82.8792725v17.3056641c0,0,0.0999756,0,0.2000122,0l15.5508423,0.0009766v79.8443604
		h4.9318848v-97.151001h231.722168v36.4414063h26.7671204l21.9747314,4.9324951l0.0008545-0.0044556l0.0155029,0.003479
		l3.4523926-14.3015137l-22.6853027-5.0922852l0.0019531-4.7056274h0.0004883v-1.0894165l0.0078125-18.8334351h-0.0078125V60
		H158.8554993v118.3563232h14.7942505V74.7943115z M272.2798767,87.1999512h-10.8508301V74.7943115h10.8508301V87.1999512z"/>
	<path class="st7" d="M538.4433594,362.8822632v-11.9528809h-29.4791565l-0.0302734,54.1432495l-231.722168,0.1329956V245.4248047
		h37.9720459v-4.9314575h-49.3150024v4.9314575h6.4110718v159.7808228h-81.1637573v-17.5056152h-17.3682251l-0.0981445-142.2752075
		h52.7674561v-4.9314575h-52.7674561v-12.8224487h-14.7942505V420h379.6225281v-0.0084839l-0.0187988-57.1092529H538.4433594z
		 M173.7513123,392.5999756h12.4647827v12.6056519h-12.4561157L173.7513123,392.5999756z"/>
	<polygon class="st7" points="538.3182373,210.7299194 542.2634277,193.6331177 518.2270508,188.208313 513.7885742,206.9484253 
		513.7885742,240.4927979 354.6360168,240.5111694 354.6360168,245.4431152 513.7885742,245.4248047 513.7885742,272.1437378 
		538.3182373,272.1437378 538.3182373,272.1035156 556.0716553,276.0890503 559.5240479,261.7875366 538.3182373,257.0272827 	"/>
</g>
<g id="Furniture_2_">
	<g>
		<path class="st8" d="M421.3131104,111.4107895c-5.7999878,0-10.5-4.6999969-10.5-10.5s4.7000122-10.5,10.5-10.5
			s10.5,4.6999969,10.5,10.5S427.013092,111.4107895,421.3131104,111.4107895z"/>
		<path class="st9" d="M421.3131104,90.9107895c2.7000122,0,5.2000122,1,7,2.9000015s2.8999939,4.4000015,2.8999939,7
			c0,5.5-4.5,10-10,10s-10-4.5-10-10C411.3131104,95.4107895,415.8131104,90.9107895,421.3131104,90.9107895
			 M421.3131104,89.9107895c-6.1000061,0-11,4.9000015-11,11s4.8999939,11,11,11s11-4.9000015,11-11
			C432.2131042,94.810791,427.3131104,89.9107895,421.3131104,89.9107895L421.3131104,89.9107895z"/>
	</g>
	<g>
		<circle class="st8" cx="421.8131104" cy="128.810791" r="10.5"/>
		<path class="st9" d="M421.8131104,118.9107895c2.7000122,0,5.2000122,1,7,2.9000015s2.8999939,4.4000015,2.8999939,7
			c0,5.5-4.5,10-10,10s-10-4.5-10-10C411.8131104,123.310791,416.3131104,118.9107895,421.8131104,118.9107895
			 M421.8131104,117.9107895c-6.1000061,0-11,4.9000015-11,10.9999924c0,6.1000061,4.8999939,11,11,11s11-4.8999939,11-11
			C432.7131042,122.810791,427.8131104,117.9107895,421.8131104,117.9107895L421.8131104,117.9107895z"/>
	</g>
	<g>
		<path class="st8" d="M383.513092,164.010788c-5.7999878,0-10.5-4.6999969-10.5-10.5s4.7000122-10.5,10.5-10.5
			s10.5,4.6999969,10.5,10.5S389.2131042,164.010788,383.513092,164.010788z"/>
		<path class="st9" d="M383.513092,143.6107941c2.7000122,0,5.2000122,1,7,2.8999939s2.8999939,4.3999939,2.8999939,7
			c0,5.5-4.5,10-10,10s-10-4.5-10-10C373.513092,148.1107941,378.013092,143.6107941,383.513092,143.6107941
			 M383.513092,142.6107941c-6.1000061,0-11,4.8999939-11,11s4.8999939,11,11,11s11-4.8999939,11-11
			C394.4131165,147.510788,389.513092,142.6107941,383.513092,142.6107941L383.513092,142.6107941z"/>
	</g>
	<g>
		<g>
			<rect x="359.513092" y="75.1107864" class="st8" width="44.1000061" height="62.5999985"/>
			<path class="st9" d="M403.2131042,75.510788v61.8999939h-43.1000061V75.510788H403.2131042 M404.2131042,74.810791h-45.1000061
				v63.3000031h45.1000061V74.810791L404.2131042,74.810791z"/>
		</g>
		<g>
			<rect x="386.4131165" y="75.1107864" class="st8" width="3.7000122" height="62.5999985"/>
			<path class="st9" d="M389.6130981,75.510788v61.8999939h-2.7000122V75.510788H389.6130981 M390.6130981,74.810791h-4.7000122
				v63.3000031h4.7000122V74.810791L390.6130981,74.810791z"/>
		</g>
	</g>
	<g id="Kitchen_1_">
		<g id="Rectangle_24_1_">
			<rect x="277.8131104" y="75.310791" class="st8" width="81.8000183" height="31.3000031"/>
			<path class="st9" d="M359.1130981,75.810791v30.3000031h-80.8000183V75.810791H359.1130981 M360.1130981,74.810791h-82.8000183
				v32.3000031h82.7999878V74.810791H360.1130981z"/>
		</g>
		<g id="Rectangle_24_2_">
			<rect x="277.7131042" y="75.310791" class="st8" width="30.2999878" height="55"/>
			<path class="st9" d="M307.513092,75.810791v54h-29.2999878v-54H307.513092 M308.513092,74.810791h-31.2999878v56h31.2999878
				V74.810791L308.513092,74.810791z"/>
		</g>
		<g id="Rectangle_27">
			<rect x="277.7131042" y="127.1107864" class="st8" width="30.2999878" height="30.2999954"/>
			<path class="st9" d="M307.513092,127.6107864v29.2999954h-29.2999878v-29.3000031L307.513092,127.6107864
				 M308.513092,126.6107864h-31.2999878v31.2999954h31.2999878V126.6107864L308.513092,126.6107864z"/>
		</g>
		<g id="Rectangle_27_2_">
			<rect x="306.4131165" y="127.1107864" class="st8" width="1.6000061" height="30.2999954"/>
			<path class="st9" d="M307.513092,127.6107864v29.2999954h-0.6000061v-29.3000031L307.513092,127.6107864 M308.513092,126.6107864
				h-2.6000061v31.2999954h2.6000061V126.6107864L308.513092,126.6107864z"/>
		</g>
		<g id="Sink_3_1_">
			<rect id="Rectangle_28_x5F_2_1_" x="281.4131165" y="84.1107864" class="st10" width="22" height="34.9000015"/>
			<path id="Rectangle_29_x5F_2_1_" class="st10" d="M292.4131165,97.9107895L292.4131165,97.9107895
				c4.6000061,0,8.2999878,3.6999969,8.2999878,8.3000031v1.8000031c0,4.5999985-3.7000122,8.3000031-8.2999878,8.3000031l0,0
				c-4.6000061,0-8.2999878-3.6999969-8.2999878-8.3000031v-1.8000031
				C284.2131042,101.6107864,287.8131104,97.9107895,292.4131165,97.9107895z"/>
			<ellipse id="Ellipse_7_x5F_3_1_" class="st10" cx="288.7131042" cy="107.1107864" rx="1.3999939" ry="1.4000015"/>
			<path id="Vector_2_1_" class="st11" d="M284.2131042,86.010788v9.1999969 M286.9131165,86.010788v9.1999969
				 M289.7131042,86.010788v9.1999969 M292.4131165,86.010788v9.1999969 M295.2131042,86.010788v9.1999969 M297.9131165,86.010788
				v9.1999969 M300.7131042,86.010788v9.1999969"/>
		</g>
		<g id="Stove_1_">
			<g id="Rectangle_25_1_">
				<rect x="329.1130981" y="75.310791" class="st8" width="30.5" height="31.3000031"/>
				<path class="st9" d="M359.1130981,75.810791v30.3000031h-29.5V75.810791H359.1130981 M360.1130981,74.810791h-31.5v32.3000031
					h31.5V74.810791L360.1130981,74.810791z"/>
			</g>
			<g id="Rectangle_28_x5F_3_1_">
				<rect x="329.1130981" y="75.310791" class="st8" width="30.5" height="1.8000031"/>
				<path class="st9" d="M359.1130981,75.810791v0.8000031h-29.5V75.810791H359.1130981 M360.1130981,74.810791h-31.5v2.8000031
					h31.5V74.810791L360.1130981,74.810791z"/>
			</g>
			<g id="Ellipse_7_x5F_4_1_">
				<circle class="st8" cx="351.513092" cy="85.6107864" r="3.5"/>
				<path class="st9" d="M351.513092,82.6107864c1.7000122,0,3,1.4000015,3,3s-1.3999939,3-3,3s-3-1.4000015-3-3
					S349.9131165,82.6107864,351.513092,82.6107864 M351.513092,81.6107864c-2.2000122,0-4,1.8000031-4,4s1.7999878,4,4,4
					s4-1.8000031,4-4C355.6130981,83.4107895,353.8131104,81.6107864,351.513092,81.6107864L351.513092,81.6107864z"/>
			</g>
			<g id="Ellipse_9_1_">
				<path class="st8" d="M351.513092,102.310791c-2.5,0-4.6000061-2-4.6000061-4.5999985s2-4.5999985,4.6000061-4.5999985
					c2.5,0,4.6000061,2,4.6000061,4.5999985S354.013092,102.310791,351.513092,102.310791z"/>
				<path class="st9" d="M351.513092,93.7107849c2.2000122,0,4.1000061,1.8000031,4.1000061,4.0999985
					s-1.7999878,4.0999985-4.1000061,4.0999985c-2.2999878,0-4.1000061-1.8000031-4.1000061-4.0999985
					S349.3131104,93.7107849,351.513092,93.7107849 M351.513092,92.7107849c-2.7999878,0-5.1000061,2.3000031-5.1000061,5.0999985
					s2.2999878,5.0999985,5.1000061,5.0999985c2.7999878,0,5.1000061-2.3000031,5.1000061-5.0999985
					S354.3131104,92.7107849,351.513092,92.7107849L351.513092,92.7107849z"/>
			</g>
			<g id="Ellipse_10_1_">
				<circle class="st8" cx="337.4131165" cy="85.6107864" r="4.6000023"/>
				<path class="st9" d="M337.4131165,81.6107864c2.2000122,0,4.1000061,1.8000031,4.1000061,4.0999985
					c0,2.1999969-1.7999878,4.0999985-4.1000061,4.0999985c-2.2999878,0-4.1000061-1.8000031-4.1000061-4.0999985
					S335.2131042,81.6107864,337.4131165,81.6107864 M337.4131165,80.6107864c-2.7999878,0-5.1000061,2.3000031-5.1000061,5.0999985
					c0,2.8000031,2.2999878,5.0999985,5.1000061,5.0999985c2.7999878,0,5.1000061-2.3000031,5.1000061-5.0999985
					C342.4131165,82.810791,340.2131042,80.6107864,337.4131165,80.6107864L337.4131165,80.6107864z"/>
			</g>
			<g id="Ellipse_8_1_">
				<circle class="st8" cx="337.4131165" cy="98.810791" r="3.5"/>
				<path class="st9" d="M337.4131165,95.7107849c1.7000122,0,3,1.4000015,3,3s-1.3999939,3-3,3s-3-1.4000015-3-3
					S335.7131042,95.7107849,337.4131165,95.7107849 M337.4131165,94.7107849c-2.2000122,0-4,1.8000031-4,4s1.7999878,4,4,4
					s4-1.8000031,4-4S339.6130981,94.7107849,337.4131165,94.7107849L337.4131165,94.7107849z"/>
			</g>
		</g>
		<path id="Vector_3_1_" class="st11" d="M296.013092,142.310791h-7.7999878 M294.013092,145.7107849l-3.8999939-6.8000031
			 M294.013092,138.810791l-3.8999939,6.8000031"/>
	</g>
	<g>
		<g>
			<rect x="427.3613281" y="308.7318726" class="st8" width="81.1000061" height="95.8999939"/>
			<path class="st9" d="M427.8613281,309.2318726h80.1000061v94.8999939h-80.1000061V309.2318726 M426.8613281,308.2318726
				v96.8999939h82.1000061v-96.8999939H426.8613281L426.8613281,308.2318726z"/>
		</g>
		<rect x="433.9613342" y="374.3318787" class="st10" width="32" height="24"/>
		<rect x="469.9613342" y="374.3318787" class="st10" width="32" height="24"/>
		
			<rect x="440.4924622" y="363.5236511" transform="matrix(0.2588077 -0.9659289 0.9659289 0.2588077 -27.345129 715.4101563)" class="st12" width="23.9993" height="23.9993"/>
		
			<rect x="471.5397339" y="363.5174866" transform="matrix(0.9659289 -0.2588077 0.2588077 0.9659289 -80.7119904 137.9379883)" class="st12" width="23.9992695" height="23.9993"/>
		<g>
			<polygon class="st8" points="427.4613342,379.3318787 427.4613342,307.8318787 508.4613342,307.8318787 508.4613342,384.3318787 
				476.1613464,386.4318542 			"/>
			<path class="st9" d="M427.9613342,308.3318787h80v75v0.6000061l-31.7999878,2l-48.2000122-7V308.3318787
				 M426.9613342,307.3318787v72v0.5l49.2000122,7.1000061l32.7999878-2v-1.5v-76L426.9613342,307.3318787L426.9613342,307.3318787z
				"/>
		</g>
		<polyline class="st11" points="507.8613281,382.3318787 475.8613281,382.3318787 427.8613281,378.4318542 		"/>
	</g>
	<g>
		<g>
			<rect x="296.3039856" y="245.9136353" class="st8" width="13.6000061" height="158.7919617"/>
			<path class="st9" d="M296.8039856,246.4136353h12.6000061v157.7919312h-12.6000061V246.4136353 M295.8039856,245.4136353
				v159.7919312h14.6000061V245.4136353H295.8039856L295.8039856,245.4136353z"/>
		</g>
		<g>
			<rect x="277.7039795" y="245.9136353" class="st8" width="29.5" height="158.7919617"/>
			<path class="st9" d="M278.2039795,246.4136353h28.5v157.7919312h-28.5V246.4136353 M277.2039795,245.4136353v159.7919312h30.5
				V245.4136505L277.2039795,245.4136353L277.2039795,245.4136353z"/>
		</g>
		<path class="st10" d="M277.8039856,245.8136292l29,158.7919006"/>
	</g>
	<g>
		<g>
			<rect x="174.3294373" y="85.6999741" class="st8" width="81.6858826" height="13.5999985"/>
			<path class="st9" d="M174.8294373,86.1999741h80.6858978v12.5999985h-80.6858978V86.1999741 M173.8294373,85.1999741v14.5999985
				h82.6859131V85.1999741H173.8294373L173.8294373,85.1999741z"/>
		</g>
		<g>
			<rect x="174.3294373" y="75.2999802" class="st8" width="81.6858826" height="21.4000015"/>
			<path class="st9" d="M174.8294373,75.7999802h80.6858978v20.4000015h-80.6858978V75.7999802 M173.8294373,74.7999802v22.4000015
				h82.6859131V74.7999802H173.8294373L173.8294373,74.7999802z"/>
		</g>
		<g>
			<rect x="174.3294373" y="75.2999802" class="st8" width="81.6858826" height="21.4000015"/>
			<path class="st9" d="M174.8294373,75.7999802h80.6858978v20.4000015h-80.6858978V75.7999802 M173.8294373,74.7999802v22.4000015
				h82.6859131V74.7999802H173.8294373L173.8294373,74.7999802z"/>
		</g>
		<path class="st10" d="M255.9153442,75.4999771l-81.7858887,20.9000015"/>
	</g>
	<g>
		<g>
			<rect x="176.0294495" y="150.1999817" class="st8" width="13.6000061" height="27.8000031"/>
			<path class="st9" d="M189.0294495,150.6999817v26.8000031h-12.6000061v-26.8000031H189.0294495 M190.0294495,149.6999817
				h-14.6000061v28.8000031h14.6000061V149.6999817L190.0294495,149.6999817z"/>
		</g>
		<g>
			<rect x="178.5294495" y="150.1999817" class="st8" width="8.3999939" height="27.8000031"/>
			<path class="st9" d="M186.5294495,150.6999817v26.8000031h-7.3999939v-26.8000031H186.5294495 M187.5294495,149.6999817
				h-9.3999939v28.8000031h9.3999939V149.6999817L187.5294495,149.6999817z"/>
		</g>
		<g>
			<rect x="174.3294373" y="150.1999817" class="st8" width="12.6999969" height="27.8000031"/>
			<path class="st9" d="M186.5294495,150.6999817v26.8000031h-11.6999969v-26.8000031H186.5294495 M187.5294495,149.6999817
				h-13.6999969v28.8000031h13.6999969V149.6999817L187.5294495,149.6999817z"/>
		</g>
		<path class="st10" d="M174.4294434,150.2999878l12.5,27.8000031"/>
	</g>
	<g>
		<g>
			<rect x="174.163147" y="245.9207001" class="st8" width="20.6000061" height="30.6000214"/>
			<path class="st9" d="M194.2631531,246.4207001v29.5999908H174.663147v-29.5999908H194.2631531 M195.2631531,245.4207001
				H173.663147v31.5999908h21.6000061V245.4207001L195.2631531,245.4207001z"/>
		</g>
		<g>
			<circle class="st8" cx="184.46315" cy="261.1206665" r="6.5"/>
			<path class="st9" d="M184.46315,255.120697c3.3000031,0,6,2.6999817,6,5.9999695s-2.6999969,6-6,6s-6-2.7000122-6-6
				C178.3631592,257.8206787,181.0631561,255.120697,184.46315,255.120697 M184.46315,254.120697
				c-3.8999939,0-7,3.0999756-7,6.9999695s3.1000061,7,7,7s7-3.1000061,7-7
				C191.46315,257.3206787,188.2631531,254.120697,184.46315,254.120697L184.46315,254.120697z"/>
		</g>
	</g>
	<g>
		<g>
			<rect x="440.1294556" y="85.4999771" class="st8" width="64.2000122" height="2.8000031"/>
			<path class="st9" d="M440.6294556,85.9999771h63.2000122v1.8000031h-63.2000122V85.9999771 M439.6294556,84.9999771v3.8000031
				h65.2000122v-3.8000031H439.6294556L439.6294556,84.9999771z"/>
		</g>
		<g>
			<rect x="440.1294556" y="75.2999802" class="st8" width="64.2000122" height="10.5"/>
			<path class="st9" d="M503.8294373,75.7999802v9.5H440.629425v-9.5H503.8294373 M504.8294373,74.7999802h-65.1999817v11.5
				h65.2000122v-11.5H504.8294373z"/>
		</g>
		<rect x="449.8294373" y="77.2999802" class="st10" width="46.1000061" height="1.6999969"/>
		<path class="st10" d="M463.1294556,77.2999802h19.5l-1.7999878-1.8000031h-16L463.1294556,77.2999802z"/>
	</g>
	<g id="Sink_2">
		<g id="Rectangle_16_x5F_11_1_">
			<rect x="174.2110291" y="321.1999512" class="st8" width="22.8999939" height="36.8999939"/>
			<path class="st9" d="M196.6110382,321.6999512v35.8999939h-21.8999939v-35.8999939H196.6110382 M197.6110382,320.6999512
				h-23.8999939v37.8999939h23.8999939V320.6999512L197.6110382,320.6999512z"/>
		</g>
		<path id="Rectangle_19_x5F_5" class="st10" d="M185.6110382,352.1999512L185.6110382,352.1999512
			c4,0,7.3000031-3.2999878,7.3000031-7.2999878v-10.5c0-4-3.3000031-7.2999878-7.3000031-7.2999878l0,0
			c-4,0-7.3000031,3.2999878-7.3000031,7.2999878v10.5C178.3110352,348.8999634,181.6110382,352.1999512,185.6110382,352.1999512z"
			/>
		<circle id="Ellipse_7_x5F_2_1_" class="st10" cx="181.4110413" cy="339.5999756" r="1.3999939"/>
	</g>
	<g id="Toilet_2_">
		<g id="Rectangle_21_2_">
			<rect x="184.2110443" y="292.5999756" class="st8" width="7.3000031" height="21.5"/>
			<path class="st9" d="M191.0110474,293.0999756v20.5h-6.3000031v-20.5H191.0110474 M192.0110474,292.0999756h-8.3000031v22.5
				h8.3000031V292.0999756L192.0110474,292.0999756z"/>
		</g>
		<path id="Rectangle_19_x5F_2_2_" class="st10" d="M206.4110413,311.3999634c4.6000061,0.2999878,8.6000061-3.3999939,8.6000061-8
			l0,0c0-4.6000061-3.8999939-8.2999878-8.6000061-8l-14.8000031,1v14L206.4110413,311.3999634z"/>
		<path id="Rectangle_18_x5F_13_2_" class="st10" d="M206.4110413,309.6999817c3.8000031,0.2999878,7-2.6000061,7-6.3999939l0,0
			c0-3.7999878-3.1999969-6.7000122-7-6.3999939l-10.1999969,0.8999939v10.8999939L206.4110413,309.6999817z"/>
		<ellipse id="Ellipse_6_x5F_2_2_" class="st10" cx="200.9110413" cy="303.3999634" rx="1.3999939" ry="1.3999939"/>
	</g>
	<g id="Shower">
		<path id="Rectangle_22" class="st10" d="M272.0294495,366.6999817v38.2999878h-38.3000031v-26.3999939
			c0-6.6000061,5.3000031-11.8999939,11.8999939-11.8999939H272.0294495z"/>
		<path id="Rectangle_23" class="st10" d="M270.0294495,368.6999817v34.3999939h-34.3999939v-24.7999878
			c0-5.2999878,4.3000031-9.5,9.5-9.5h24.8999939V368.6999817z"/>
		<ellipse id="Ellipse_6_x5F_4" class="st10" cx="262.2294617" cy="395.1999817" rx="1.3999939" ry="1.3999939"/>
	</g>
	<g id="TV_2_">
		<g id="Rectangle_16_2_">
			<rect x="429.0294495" y="250.1205444" class="st8" width="76.5" height="10.7999878"/>
			<path class="st9" d="M505.0294495,250.6205444v9.7999878h-75.5v-9.7999878H505.0294495 M506.0294495,249.6205444h-77.5
				v11.7999878h77.5V249.6205444L506.0294495,249.6205444z"/>
		</g>
		<g id="Rectangle_15_2_">
			<rect x="429.0294495" y="245.9205475" class="st8" width="76.5" height="12.9000092"/>
			<path class="st9" d="M505.0294495,246.4205475v11.8999786h-75.5v-11.8999786H505.0294495 M506.0294495,245.4205475h-77.5
				v13.8999786h77.5V245.4205475L506.0294495,245.4205475z"/>
		</g>
		<rect id="Rectangle_17_2_" x="441.5294495" y="247.9205475" class="st10" width="51.5" height="2"/>
		<path id="Rectangle_18_x5F_2_2_" class="st10" d="M478.1294556,247.9205475h-21.7999878l2-2h17.7999878L478.1294556,247.9205475z"
			/>
	</g>
	<g>
		<path class="st10" d="M458.5294495,205.6451111c0-1.5-1.2000122-2.6999969-2.7000122-2.6999969h-39.8999939
			c-1.5,0-2.7000122,1.1999969-2.7000122,2.6999969v26.1999969h45.2000122v-26.1999969H458.5294495z"/>
		<path class="st10" d="M501.6294556,205.6451111c0-1.5-1.2000122-2.6999969-2.7000122-2.6999969h-37.8999939
			c-1.5,0-2.7000122,1.1999969-2.7000122,2.6999969v26.1999969h43.2000122v-26.1999969H501.6294556z"/>
		<polygon class="st10" points="501.6294556,200.7451172 501.6294556,231.7451172 457.5294495,231.7451172 413.3294373,231.7451172 
			413.3294373,200.7451172 405.0294495,200.7451172 405.0294495,240.0451202 510.0294495,240.0451202 510.0294495,200.7451172 		"/>
	</g>
	<g>
		<rect x="174.3110352" y="279.8999634" class="st8" width="9.8999939" height="41.2999878"/>
		<path class="st9" d="M183.6110382,280.3999634v40.2999878h-8.8999939v-40.2999878H183.6110382 M184.6110382,279.3999634
			h-10.8999939v42.2999878h10.8999939V279.3999634L184.6110382,279.3999634z"/>
	</g>
	<g>
		<rect x="174.2110291" y="358.124939" class="st8" width="22.8999939" height="29"/>
		<path class="st9" d="M196.6110382,358.624939v28h-21.8999939v-28H196.6110382 M197.6110382,357.624939h-23.8999939v30h23.8999939
			V357.624939L197.6110382,357.624939z"/>
	</g>
</g>
<g id="Numbers">
	<g>
		<path class="st7" d="M195.1294403,205.6999817c0.6000061,0,1.1000061,0.1999969,1.5,0.6000061
			c0.3999939,0.3999939,0.6000061,0.8999939,0.6000061,1.5s-0.1999969,1.1999969-0.6999969,1.6000061
			c-0.3999939,0.3999939-1,0.6000061-1.6999969,0.6000061c-0.8000031,0-1.3999939-0.3000031-1.8000031-0.8999939
			c-0.3999939-0.6000061-0.6000061-1.3999939-0.6000061-2.3000031c0-0.6000061,0.1000061-1.1999969,0.3000031-1.8000031
			c0.1999969-0.5,0.5-1,0.8999939-1.3000031c0.3999939-0.3999939,1-0.5,1.6000061-0.5
			c0.6999969,0,1.3000031,0.1999969,1.6999969,0.6000061l-0.3999939,0.8000031
			c-0.3999939-0.3000031-0.8000031-0.3999939-1.1999969-0.3999939s-0.6999969,0.1000061-1,0.3999939
			c-0.5,0.5-0.8000031,1.1999969-0.8000031,2.1000061c0.1000061-0.3000031,0.3999939-0.5,0.6999969-0.6999969
			S194.7294464,205.6999817,195.1294403,205.6999817z M194.9294434,209.1999817
			c0.3999939,0,0.6999969-0.1000061,0.8999939-0.3999939c0.1999969-0.3000031,0.3999939-0.6000061,0.3999939-0.8999939
			c0-0.3999939-0.1000061-0.6999969-0.3999939-0.8999939c-0.1999969-0.1999969-0.5-0.3999939-0.8999939-0.3999939
			S194.2294464,206.7000122,194.0294495,207c-0.1999969,0.1999969-0.3999939,0.6000061-0.3999939,0.8999939
			c0,0.3999939,0.1000061,0.6999969,0.3999939,0.8999939C194.2294464,208.9999847,194.5294495,209.1999817,194.9294434,209.1999817z
			"/>
		<path class="st7" d="M198.6294403,210.0999908c-0.1999969,0-0.3000031-0.1000061-0.5-0.1999969
			c-0.1000061-0.1000061-0.1999969-0.3000031-0.1999969-0.5s0.1000061-0.3000031,0.1999969-0.3999939
			c0.1000061-0.1000061,0.3000031-0.1999969,0.5-0.1999969s0.3000031,0.1000061,0.3999939,0.1999969
			c0.1000061,0.1000061,0.1999969,0.3000031,0.1999969,0.3999939c0,0.1999969-0.1000061,0.3000031-0.1999969,0.5
			C199.0294495,210.0999908,198.8294373,210.0999908,198.6294403,210.0999908z"/>
		<path class="st7" d="M203.2294464,207.1999817l-1.6000061,1.8000031h2.6999969v1h-4.1999969v-0.8999939l2.1000061-2.3000031
			l0.5-0.6000061c0.1000061-0.1000061,0.1999969-0.3000031,0.3000031-0.5s0.1000061-0.3999939,0.1000061-0.6000061
			c0-0.3000031-0.1000061-0.5-0.3000031-0.6999969s-0.5-0.3000031-0.8000031-0.3000031c-0.5,0-1,0.1999969-1.6000061,0.6999969
			l-0.6000061-0.6999969c0.6999969-0.6000061,1.3999939-1,2.1999969-1c0.6000061,0,1.1000061,0.1999969,1.5,0.6000061
			c0.3999939,0.3999939,0.6000061,0.8999939,0.6000061,1.3999939
			C204.3294373,205.7999878,203.9294434,206.4999847,203.2294464,207.1999817z"/>
	</g>
	<g>
		<path class="st7" d="M230.7294464,328.7999573c0.6000061,0,1.1999969,0.2000122,1.6000061,0.6000061
			c0.3999939,0.3999939,0.6000061,0.8999939,0.6000061,1.6000061s-0.1999969,1.2000122-0.6999969,1.6000061
			c-0.3999939,0.3999939-1,0.6000061-1.6999969,0.6000061c-0.8000031,0-1.5-0.2999878-2.1999969-0.7999878l0.5-0.7999878
			c0.6000061,0.3999939,1.1000061,0.6000061,1.6999969,0.6000061c0.3999939,0,0.6999969-0.1000061,1-0.3999939
			c0.3000031-0.2000122,0.3999939-0.5,0.3999939-0.8999939s-0.1000061-0.7000122-0.3999939-0.8999939
			c-0.1999969-0.2000122-0.6000061-0.3999939-1-0.3999939c-0.5,0-0.8999939,0.2000122-1.1999969,0.5l-0.6000061-0.3999939
			l0.3999939-3.2999878h3.3999939v0.8999939h-2.6000061l-0.1999969,1.6000061
			C230.0294495,328.8999634,230.4294434,328.7999573,230.7294464,328.7999573z"/>
		<path class="st7" d="M234.4294434,333.2999573c-0.1999969,0-0.3000031-0.1000061-0.5-0.2000122
			c-0.1000061-0.1000061-0.1999969-0.2999878-0.1999969-0.5s0.1000061-0.2999878,0.1999969-0.3999939
			c0.1000061-0.1000061,0.3000031-0.2000122,0.5-0.2000122s0.3000031,0.1000061,0.3999939,0.2000122
			c0.1000061,0.1000061,0.1999969,0.2999878,0.1999969,0.3999939c0,0.2000122-0.1000061,0.2999878-0.1999969,0.5
			C234.7294464,333.1999817,234.6294403,333.2999573,234.4294434,333.2999573z"/>
		<path class="st7" d="M238.4294434,328.8999634c0.6000061,0,1.1000061,0.2000122,1.5,0.6000061s0.6000061,0.8999939,0.6000061,1.5
			s-0.1999969,1.2000122-0.6999969,1.6000061c-0.3999939,0.3999939-1,0.6000061-1.6999969,0.6000061
			c-0.8000031,0-1.3999939-0.2999878-1.8000031-0.8999939c-0.3999939-0.6000061-0.6000061-1.3999939-0.6000061-2.2999878
			c0-0.6000061,0.1000061-1.2000122,0.3000031-1.7999878c0.1999969-0.5,0.5-1,0.8999939-1.2999878
			c0.3999939-0.3999939,1-0.5,1.6000061-0.5c0.6999969,0,1.3000031,0.2000122,1.6999969,0.6000061l-0.3999939,0.7999878
			c-0.3999939-0.2999878-0.8000031-0.3999939-1.1999969-0.3999939s-0.6999969,0.1000061-1,0.3999939
			c-0.5,0.5-0.8000031,1.2000122-0.8000031,2.1000061c0.1000061-0.2999878,0.3999939-0.5,0.6999969-0.7000122
			S238.0294495,328.8999634,238.4294434,328.8999634z M238.2294464,332.2999573
			c0.3999939,0,0.6999969-0.1000061,0.8999939-0.3999939s0.3999939-0.6000061,0.3999939-0.8999939
			c0-0.3999939-0.1000061-0.7000122-0.3999939-0.8999939c-0.1999969-0.2000122-0.5-0.3999939-0.8999939-0.3999939
			s-0.6999969,0.1000061-0.8999939,0.3999939c-0.1999969,0.2000122-0.3999939,0.6000061-0.3999939,0.8999939
			c0,0.3999939,0.1000061,0.7000122,0.3999939,0.8999939C237.5294495,332.1999817,237.8294373,332.2999573,238.2294464,332.2999573z
			"/>
	</g>
	<g>
		<path class="st7" d="M367.8294373,334.7999573l1.8999939-1.6000061h0.7999878v6.7000122h-1v-5.2999878l-1.2000122,0.8999939
			L367.8294373,334.7999573z"/>
		<path class="st7" d="M375.7294312,337.2999573h0.7000122v0.8999939h-0.7000122v1.6000061h-1v-1.6000061h-3l-0.2000122-0.6000061
			l3.6000061-4.3999939h0.7000122v4.1000061H375.7294312z M374.7294312,334.8999634l-2,2.3999939h2V334.8999634z"/>
		<path class="st7" d="M377.9294434,339.8999634c-0.2000122,0-0.2999878-0.1000061-0.5-0.2000122
			c-0.1000061-0.1000061-0.2000122-0.2999878-0.2000122-0.5s0.1000061-0.2999878,0.2000122-0.3999939
			s0.2999878-0.2000122,0.5-0.2000122s0.2999878,0.1000061,0.3999939,0.2000122s0.2000122,0.2999878,0.2000122,0.3999939
			c0,0.2000122-0.1000061,0.2999878-0.2000122,0.5S378.0294495,339.8999634,377.9294434,339.8999634z"/>
		<path class="st7" d="M381.8294373,335.4999695c0.6000061,0,1.1000061,0.2000122,1.5,0.6000061s0.6000061,0.8999939,0.6000061,1.5
			s-0.2000122,1.2000122-0.7000122,1.6000061c-0.3999939,0.3999939-1,0.6000061-1.7000122,0.6000061
			c-0.7999878,0-1.3999939-0.2999878-1.7999878-0.8999939S379.129425,337.5,379.129425,336.6000061
			c0-0.6000061,0.1000061-1.2000122,0.2999878-1.7999878c0.2000122-0.5,0.5-1,0.8999939-1.2999878
			c0.3999939-0.3999939,1-0.5,1.6000061-0.5c0.7000122,0,1.2999878,0.2000122,1.7000122,0.6000061l-0.3999939,0.7999878
			c-0.3999939-0.2999878-0.7999878-0.3999939-1.2000122-0.3999939c-0.3999939,0-0.7000122,0.1000061-1,0.3999939
			c-0.5,0.5-0.7999878,1.2000122-0.7999878,2.1000061c0.1000061-0.2999878,0.3999939-0.5,0.7000122-0.7000122
			S381.5294495,335.4999695,381.8294373,335.4999695z M381.7294312,338.9999695
			c0.3999939,0,0.7000122-0.1000061,0.8999939-0.3999939c0.2000122-0.2999878,0.3999939-0.6000061,0.3999939-0.8999939
			c0-0.3999939-0.1000061-0.7000122-0.3999939-0.8999939c-0.2000122-0.2000122-0.5-0.3999939-0.8999939-0.3999939
			s-0.7000122,0.1000061-0.8999939,0.3999939c-0.2000122,0.2000122-0.3999939,0.6000061-0.3999939,0.8999939
			c0,0.3999939,0.1000061,0.7000122,0.3999939,0.8999939C381.0294495,338.7999573,381.3294373,338.9999695,381.7294312,338.9999695z
			"/>
	</g>
	<g>
		<path class="st7" d="M418.1294556,180.8999786l1.8999939-1.6000061h0.7999878v6.6999969h-1v-5.3000031l-1.2000122,0.8999939
			L418.1294556,180.8999786z"/>
		<path class="st7" d="M424.3294373,181.5999908c0.6000061,0,1.2000122,0.1999969,1.6000061,0.6000061
			c0.3999939,0.3999939,0.6000061,0.8999939,0.6000061,1.6000061c0,0.6999969-0.2000122,1.1999969-0.7000122,1.6000061
			c-0.3999939,0.3999939-1,0.6000061-1.7000122,0.6000061c-0.7999878,0-1.5-0.3000031-2.2000122-0.8000031l0.5-0.8000031
			c0.6000061,0.3999939,1.1000061,0.6000061,1.7000122,0.6000061c0.3999939,0,0.7000122-0.1000061,1-0.3999939
			c0.2999878-0.1999969,0.3999939-0.5,0.3999939-0.8999939s-0.1000061-0.6999969-0.3999939-0.8999939
			c-0.2000122-0.1999969-0.6000061-0.3999939-1-0.3999939c-0.5,0-0.8999939,0.1999969-1.2000122,0.5l-0.6000061-0.3999939
			l0.3999939-3.3000031h3.3999939v0.8999939h-2.6000061l-0.2000122,1.6000061
			C423.6294556,181.6999817,423.9294434,181.5999908,424.3294373,181.5999908z"/>
		<path class="st7" d="M428.0294495,185.9999847c-0.2000122,0-0.2999878-0.1000061-0.5-0.1999969
			s-0.2000122-0.3000031-0.2000122-0.5s0.1000061-0.3000031,0.2000122-0.3999939s0.2999878-0.1999969,0.5-0.1999969
			s0.2999878,0.1000061,0.3999939,0.1999969s0.2000122,0.3000031,0.2000122,0.3999939
			c0,0.1999969-0.1000061,0.3000031-0.2000122,0.5S428.1294556,185.9999847,428.0294495,185.9999847z"/>
		<path class="st7" d="M428.6294556,180.8999786l1.8999939-1.6000061h0.7999878v6.6999969h-1v-5.3000031l-1.2000122,0.8999939
			L428.6294556,180.8999786z"/>
	</g>
</g>
<g id="street_anchors" class="st13">
	<rect id="street_anchor_01" x="591.1578369" y="234.9999847" class="st14" width="10" height="10"/>
</g>
</svg>
