<?xml version="1.0" encoding="utf-8"?>
<!-- Generator: Adobe Illustrator 24.2.0, SVG Export Plug-In . SVG Version: 6.00 Build 0)  -->
<!DOCTYPE svg PUBLIC "-//W3C//DTD SVG 1.1//EN" "http://www.w3.org/Graphics/SVG/1.1/DTD/svg11.dtd" [
	<!ENTITY ns_extend "http://ns.adobe.com/Extensibility/1.0/">
	<!ENTITY ns_ai "http://ns.adobe.com/AdobeIllustrator/10.0/">
	<!ENTITY ns_graphs "http://ns.adobe.com/Graphs/1.0/">
	<!ENTITY ns_vars "http://ns.adobe.com/Variables/1.0/">
	<!ENTITY ns_imrep "http://ns.adobe.com/ImageReplacement/1.0/">
	<!ENTITY ns_sfw "http://ns.adobe.com/SaveForWeb/1.0/">
	<!ENTITY ns_custom "http://ns.adobe.com/GenericCustomNamespace/1.0/">
	<!ENTITY ns_adobe_xpath "http://ns.adobe.com/XPath/1.0/">
]>
<svg version="1.1" id="_x31__x5F_2" xmlns:x="&ns_extend;" xmlns:i="&ns_ai;" xmlns:graph="&ns_graphs;"
	 xmlns="http://www.w3.org/2000/svg" xmlns:xlink="http://www.w3.org/1999/xlink" x="0px" y="0px" viewBox="0 0 720 480"
	 style="enable-background:new 0 0 720 480;" xml:space="preserve">
<style type="text/css">
	.st0{fill:#DBD4CA;}
	.st1{clip-path:url(#SVGID_2_);}
	.st2{fill:none;stroke:#C49F8A;stroke-miterlimit:10;}
	.st3{opacity:0.3;clip-path:url(#SVGID_2_);}
	.st4{opacity:0.7;fill:#C49F8A;}
	.st5{fill:none;stroke:#565440;}
	.st6{fill:none;stroke:#565440;stroke-width:1.0000414;stroke-miterlimit:4.0001655;}
	.st7{fill:#565440;}
	.st8{fill:#E9E4DC;}
	.st9{fill:#C49F8A;}
	.st10{fill:#E9E4DC;stroke:#C49F8A;}
	.st11{fill:#E9E4DC;stroke:#C49F8A;stroke-width:0.9999701;stroke-miterlimit:3.9992807;}
	.st12{fill:none;stroke:#C49F8A;}
	.st13{fill:#E9E4DC;stroke:#C49F8A;stroke-linejoin:round;}
	.st14{fill:#E9E4DC;stroke:#C49F8A;stroke-width:0.9999999;stroke-miterlimit:3.9999993;}
	.st15{fill:#E9E4DC;stroke:#C49F8A;stroke-width:1.0000015;stroke-miterlimit:4.0000062;}
	.st16{fill:none;}
</style>
<metadata>
	<sfw  xmlns="&ns_sfw;">
		<slices></slices>
		<sliceSourceBounds  bottomLeftOrigin="true" height="667.6734619" width="667.6734619" x="77.5082703" y="19.2149181">
			</sliceSourceBounds>
	</sfw>
</metadata>
<polygon id="Floor_1_" class="st0" points="134.8000031,60.0999985 569.2999878,60.0999985 577.2637939,63.1963196 
	558.5460205,136.5 557.9481201,190 576.3212891,195.9329071 557.9481201,264.2883301 557.9570313,327 574.7999878,331.7999878 
	557.9000244,407.3999939 482.3999939,392.5 431.2999878,392.5 426.2000122,411.5 319.2999878,386.8999939 259.1000061,386.8999939 
	253.6000061,406.7000122 180,389.7000122 134.8000031,389.7000122 "/>
<g id="Wet_Floor_1_">
	<defs>
		<rect id="SVGID_1_" x="237.5690155" y="72.1595078" width="165.9754639" height="106.6748428"/>
	</defs>
	<clipPath id="SVGID_2_">
		<use xlink:href="#SVGID_1_"  style="overflow:visible;"/>
	</clipPath>
	<g class="st1">
		<g>
			<line class="st2" x1="88.2831726" y1="137.3697357" x2="421.7663574" y2="-196.1134644"/>
			<line class="st2" x1="77.861824" y1="126.9483795" x2="411.3450317" y2="-206.5348206"/>
			<line class="st2" x1="98.7045212" y1="147.7910767" x2="432.1877136" y2="-185.6921234"/>
			<line class="st2" x1="109.1258698" y1="158.2124329" x2="442.6090698" y2="-175.2707672"/>
			<line class="st2" x1="119.5472183" y1="168.6337738" x2="453.030426" y2="-164.8494263"/>
			<line class="st2" x1="129.9685669" y1="179.0551147" x2="463.4517517" y2="-154.4280701"/>
			<line class="st2" x1="140.3899078" y1="189.4764709" x2="473.8731079" y2="-144.0067291"/>
			<line class="st2" x1="150.811264" y1="199.8978119" x2="484.2944641" y2="-133.5853729"/>
			<line class="st2" x1="161.232605" y1="210.3191681" x2="494.7158203" y2="-123.164032"/>
			<line class="st2" x1="171.6539612" y1="220.740509" x2="505.137146" y2="-112.7426834"/>
			<line class="st2" x1="161.232605" y1="210.3191681" x2="494.7158203" y2="-123.164032"/>
			<line class="st2" x1="182.0753021" y1="231.1618652" x2="515.5585327" y2="-102.3213348"/>
			<line class="st2" x1="192.4966583" y1="241.5832062" x2="525.9798584" y2="-91.8999863"/>
			<line class="st2" x1="202.9179993" y1="252.0045624" x2="536.4011841" y2="-81.4786377"/>
			<line class="st2" x1="213.3393555" y1="262.4259033" x2="546.8225708" y2="-71.0572891"/>
			<line class="st2" x1="223.7606964" y1="272.8472595" x2="557.2438965" y2="-60.6359406"/>
			<line class="st2" x1="234.1820526" y1="283.2686157" x2="567.6652222" y2="-50.214592"/>
			<line class="st2" x1="244.6033936" y1="293.6899414" x2="578.0866089" y2="-39.7932434"/>
			<line class="st2" x1="255.0247498" y1="304.1112976" x2="588.5079346" y2="-29.3718948"/>
			<line class="st2" x1="244.6033936" y1="293.6899414" x2="578.0866089" y2="-39.7932434"/>
			<line class="st2" x1="265.446106" y1="314.5326538" x2="598.9293213" y2="-18.9505463"/>
			<line class="st2" x1="275.8674316" y1="324.95401" x2="609.350647" y2="-8.5291986"/>
			<line class="st2" x1="286.2887878" y1="335.3753357" x2="619.7719727" y2="1.8921498"/>
			<line class="st2" x1="296.710144" y1="345.7966919" x2="630.1933594" y2="12.3134985"/>
			<line class="st2" x1="307.1315002" y1="356.2180481" x2="640.6146851" y2="22.7348461"/>
			<line class="st2" x1="317.5528259" y1="366.6394043" x2="651.0360107" y2="33.1561966"/>
			<line class="st2" x1="327.9741821" y1="377.06073" x2="661.4573975" y2="43.5775452"/>
			<line class="st2" x1="338.3955383" y1="387.4820862" x2="671.8787231" y2="53.9988899"/>
			<line class="st2" x1="327.9741821" y1="377.06073" x2="661.4573975" y2="43.5775452"/>
			<line class="st2" x1="348.8168945" y1="397.9034424" x2="682.3000488" y2="64.4202423"/>
			<line class="st2" x1="359.2382202" y1="408.3247986" x2="692.7214355" y2="74.8415909"/>
			<line class="st2" x1="369.6595764" y1="418.7461243" x2="703.1427612" y2="85.2629395"/>
			<line class="st2" x1="380.0809326" y1="429.1674805" x2="713.5641479" y2="95.684288"/>
			<line class="st2" x1="390.5022888" y1="439.5888367" x2="723.9854736" y2="106.1056366"/>
			<line class="st2" x1="400.9236145" y1="450.0101929" x2="734.4067993" y2="116.5269852"/>
			<line class="st2" x1="411.3449707" y1="460.4315186" x2="744.828186" y2="126.9483337"/>
		</g>
		<g>
			<line class="st2" x1="421.7662659" y1="450.0100403" x2="88.2832108" y2="116.5269775"/>
			<line class="st2" x1="411.3449097" y1="460.431366" x2="77.8618622" y2="126.9483261"/>
			<line class="st2" x1="432.1876221" y1="439.5886841" x2="98.7045593" y2="106.105629"/>
			<line class="st2" x1="442.6089783" y1="429.1673279" x2="109.1259079" y2="95.6842804"/>
			<line class="st2" x1="453.030304" y1="418.7459717" x2="119.5472565" y2="85.2629318"/>
			<line class="st2" x1="463.4516602" y1="408.324646" x2="129.9686127" y2="74.8415833"/>
			<line class="st2" x1="473.8730164" y1="397.9032898" x2="140.3899536" y2="64.4202347"/>
			<line class="st2" x1="484.294342" y1="387.4819336" x2="150.8113098" y2="53.9988861"/>
			<line class="st2" x1="494.7156982" y1="377.0605774" x2="161.2326508" y2="43.5775375"/>
			<line class="st2" x1="505.1370544" y1="366.6392517" x2="171.654007" y2="33.156189"/>
			<line class="st2" x1="494.7156982" y1="377.0605774" x2="161.2326508" y2="43.5775375"/>
			<line class="st2" x1="515.5584106" y1="356.2178955" x2="182.0753479" y2="22.7348385"/>
			<line class="st2" x1="525.9797363" y1="345.7965393" x2="192.4967041" y2="12.3134909"/>
			<line class="st2" x1="536.401123" y1="335.3751831" x2="202.918045" y2="1.8921425"/>
			<line class="st2" x1="546.8224487" y1="324.9538574" x2="213.3394012" y2="-8.5292063"/>
			<line class="st2" x1="557.2437744" y1="314.5325012" x2="223.7607422" y2="-18.9505539"/>
			<line class="st2" x1="567.6651611" y1="304.111145" x2="234.1820984" y2="-29.3719025"/>
			<line class="st2" x1="578.0864868" y1="293.6897888" x2="244.6034393" y2="-39.793251"/>
			<line class="st2" x1="588.5078125" y1="283.2684631" x2="255.0247955" y2="-50.2145996"/>
			<line class="st2" x1="578.0864868" y1="293.6897888" x2="244.6034393" y2="-39.793251"/>
			<line class="st2" x1="598.9291992" y1="272.8471069" x2="265.4461365" y2="-60.6359482"/>
			<line class="st2" x1="609.3505249" y1="262.4257507" x2="275.8674927" y2="-71.0572968"/>
			<line class="st2" x1="619.7719116" y1="252.0044098" x2="286.2888184" y2="-81.4786453"/>
			<line class="st2" x1="630.1932373" y1="241.5830536" x2="296.7101746" y2="-91.8999939"/>
			<line class="st2" x1="640.614563" y1="231.1617126" x2="307.1315308" y2="-102.3213425"/>
			<line class="st2" x1="651.0359497" y1="220.7403564" x2="317.552887" y2="-112.742691"/>
			<line class="st2" x1="661.4572754" y1="210.3190155" x2="327.9742126" y2="-123.1640396"/>
			<line class="st2" x1="671.8786011" y1="199.8976593" x2="338.3955688" y2="-133.5853882"/>
			<line class="st2" x1="661.4572754" y1="210.3190155" x2="327.9742126" y2="-123.1640396"/>
			<line class="st2" x1="682.2999878" y1="189.4763184" x2="348.816925" y2="-144.0067291"/>
			<line class="st2" x1="692.7213135" y1="179.0549622" x2="359.2382813" y2="-154.4280853"/>
			<line class="st2" x1="703.1427002" y1="168.6336212" x2="369.6596069" y2="-164.8494263"/>
			<line class="st2" x1="713.5640259" y1="158.212265" x2="380.0809631" y2="-175.2707825"/>
			<line class="st2" x1="723.9853516" y1="147.7909241" x2="390.5023193" y2="-185.6921234"/>
			<line class="st2" x1="734.4067383" y1="137.3695679" x2="400.9236755" y2="-196.1134796"/>
			<line class="st2" x1="744.828064" y1="126.9482269" x2="411.3450012" y2="-206.5348206"/>
		</g>
	</g>
	<g class="st3">
		<rect x="218.6457062" y="54.0901947" class="st4" width="214.0322723" height="139.5815735"/>
	</g>
</g>
<g id="Windows">
	<path class="st5" d="M188.2992401,391.5375977l64.0957489,14.7915344l-1.2326508,6.1628723L187.0665894,397.70047
		L188.2992401,391.5375977z"/>
	<path class="st5" d="M318.1345215,386.6068726l103.950531,23.8304749l-1.2326355,6.1628723l-103.950531-23.8304749
		L318.1345215,386.6068726z"/>
	<polygon class="st5" points="580.6815186,333.1936951 574.5185547,331.9610596 557.6727295,407.1507874 458.6524048,387.4290161 
		457.8307495,393.5918884 562.6029663,414.5464172 563.013916,411.670105 	"/>
	
		<rect x="533.2360229" y="228.5338593" transform="matrix(0.2514896 -0.96786 0.96786 0.2514896 202.6559753 725.2661743)" class="st6" width="73.9880371" height="6.154541"/>
	
		<rect x="537.3828735" y="97.209404" transform="matrix(0.2514896 -0.96786 0.96786 0.2514896 330.4031677 627.8005371)" class="st6" width="67.4137573" height="6.154541"/>
</g>
<path id="Doors" class="st5" d="M401.952179,228.421524c0,4.5195923-0.8216553,8.2172852-2.4653015,12.3262482
	c-1.6436768,4.1085815-4.1085815,7.8066559-6.9850159,10.6825714c-2.8763123,3.2869415-6.5740051,5.7523651-10.6825867,7.3956451
	s-8.2172852,2.4653015-12.7368774,2.4653015V228.421524 M364.1521912,175.0082245
	c0-4.519577,0.821991-8.2176514,2.4653015-12.3262329c1.64328-4.1085815,4.108551-7.8066559,6.9849854-10.6825867
	c2.8763123-3.2869415,6.5740051-5.7523651,10.6825867-7.3956451s8.2172852-2.4653015,12.7368774-2.4653015v32.8697662
	 M241.7125397,133.0992889c4.519577,0,8.2172699-0.82164,12.3262329-2.4653015
	c4.1085663-1.6436615,7.8066559-4.1085815,10.6825714-6.9850159c3.2869568-2.8763123,5.7523804-6.5740051,7.3956604-10.6825867
	c1.64328-4.1085739,2.4653015-8.2172852,2.4653015-12.7368698h-32.8697662 M430.7133484,187.3345947
	c4.5195923,0,8.2172852,0.82164,12.3262634,2.4653015c4.108551,1.6436615,7.8066406,4.1090851,10.6825562,6.9850159
	c3.2869568,2.8763123,5.7523804,6.5740051,7.3956604,10.6825867s2.4653015,8.2172852,2.4653015,12.7368622h-32.8697815
	 M191.1751709,59.9642296c0-5.3412285,1.2326508-10.2719536,3.2869415-15.2021751
	c2.0542755-4.9307213,4.9307098-9.8609428,9.0392914-13.5585117c3.6979523-3.6979485,8.2172852-6.985014,13.1478882-9.0393028
	c4.9307251-2.0542889,10.2719574-3.2869396,15.6131744-3.2869396v41.0869293"/>
<g id="Walls">
	<path class="st7" d="M155.4145508,380.4336548V173.7000122H169.5v-18.3000488h-14.0854492V72.2796021h35.7606201V59.9538574
		h-35.7606201h-20.543396v341.0233154h20.543396h21.8345337l10.2132568,2.465332l4.5200806-20.1329346l-11.9157104-2.8759155
		H155.4145508z M165.4000244,159.5v10.0999756h-9.9854736V159.5H165.4000244z"/>
	<polygon class="st7" points="254.0238647,392.7598877 249.5041504,412.892395 261.4193726,415.7687378 264.8321533,400.5665283 
		319.7633057,400.5665283 319.7633057,375.9140625 254.0238647,375.9140625 	"/>
	<polygon class="st7" points="422.4812012,400.5289307 418.7832031,417.0013428 430.6984863,419.8773193 435.0332031,400.5665283 
		484.1121216,400.5665283 484.1121216,375.9140625 422.4812012,375.9140625 	"/>
	<polygon class="st7" points="360.8503418,224.3022461 360.8503418,385.7750244 358.385437,396.8685913 362.4940186,397.6902466 
		364.9589233,386.5966187 364.9589233,228.4111938 369.0675049,228.4111938 369.0675049,224.3022461 364.9589233,224.3022461 	"/>
	<path class="st7" d="M397.0070801,174.9979858v4.1085815h29.5827026v8.2171631h4.1087036v-8.2171631v-4.1085815h-24.6520996
		V72.2796021h165.9927368l10.213623,2.4658203l2.8760986-11.9155884l-11.9152832-2.8759766H232.2625732v12.3257446H237.5v28.1204224
		h4.1000366V85.5999756L255,85.5996704V72.2796021h68.8720093v102.7183838h-82.1743774V133.499939h-4.1087036v45.6066284h4.1087036
		h122.850647v-4.1085815h-36.567688V72.2796021h73.9570923v102.7183838H397.0070801z M250.9000244,81.5h-9.3000488v-9.2203979
		h9.3000488V81.5z"/>
	<polygon class="st7" points="567.1081543,230.8764648 567.9298096,226.7678833 558.0688477,224.3022461 430.6984863,224.3022461 
		430.6984863,220.1935425 426.5897827,220.1935425 426.5897827,224.3022461 401.9376831,224.3022461 401.9376831,228.4111938 
		557.2468262,228.4111938 	"/>
	<polygon class="st7" points="566.2020874,262.6227417 541.5496216,262.6227417 541.5496216,331.7943726 563.9240723,331.7943726 
		582.2258911,335.9030762 585.1022949,323.987793 566.2020874,319.744751 	"/>
	<polygon class="st7" points="566.2020874,140.8418579 568.6673584,130.62854 548.5346069,126.1088257 545.7540894,138.0240479 
		545.6581421,138.0240479 545.6581421,197.7694702 563.9240723,197.7694702 582.2258911,201.8780518 585.1022949,189.9628296 
		566.2020874,185.7198486 	"/>
</g>
<g id="Furniture_2_">
	<g>
		<g>
			<rect x="484.5" y="72.9000015" class="st8" width="55.0999756" height="65.2000046"/>
			<path class="st9" d="M485,73.4000015h54.0999756v64.2000046H485V73.4000015 M484,72.4000015v66.2000046h56.0999756V72.4000015
				H484L484,72.4000015z"/>
		</g>
		<rect x="513.4000244" y="77.0999985" class="st10" width="21.9000244" height="16.4000015"/>
		<rect x="488.7999878" y="77.0999985" class="st10" width="21.8999939" height="16.4000015"/>
		
			<rect x="514.2911377" y="84.481041" transform="matrix(0.2588077 -0.9659289 0.9659289 0.2588077 297.7431946 573.3833618)" class="st11" width="16.3995361" height="16.3995132"/>
		
			<rect x="493.1853333" y="84.397583" transform="matrix(0.9659289 -0.2588077 0.2588077 0.9659289 -6.8821473 132.9172058)" class="st11" width="16.3995056" height="16.3995132"/>
		<g>
			<polygon class="st8" points="484.5,163.3999939 484.5,86.6999969 506.3999939,85.4000015 539.5999756,90.1999969 
				539.5999756,163.3999939 			"/>
			<path class="st9" d="M506.3999939,85.9000015l32.6999817,4.6999969v72.2999954H485V87.3000031v-0.0999985L506.3999939,85.9000015
				 M506.3999939,84.9000015L484,86.3000031v1v76.5999908h56.0999756V90.0999985v-0.3000031L506.3999939,84.9000015
				L506.3999939,84.9000015z"/>
		</g>
		<polyline class="st12" points="484.7999878,88 506.6000061,88 539.5,90.6999969 		"/>
	</g>
	<g>
		<g>
			<rect x="455.1000061" y="228.8999939" class="st8" width="67.1999817" height="79.5"/>
			<path class="st9" d="M455.6000061,229.3999939h66.1999817v78.5h-66.2000122L455.6000061,229.3999939 M454.6000061,228.3999939
				v80.5h68.1999817v-80.5H454.6000061L454.6000061,228.3999939z"/>
		</g>
		<rect x="490.3999939" y="234.1999969" class="st10" width="26.6000061" height="19.8999939"/>
		<rect x="460.3999939" y="234.1999969" class="st10" width="26.6000061" height="19.8999939"/>
		
			<rect x="491.541626" y="243.1406403" transform="matrix(0.2588077 -0.9659289 0.9659289 0.2588077 127.2342529 671.9935913)" class="st11" width="19.8993835" height="19.8993988"/>
		
			<rect x="465.792572" y="243.0919342" transform="matrix(0.9659289 -0.2588077 0.2588077 0.9659289 -49.2800446 131.7471619)" class="st11" width="19.8994141" height="19.8993988"/>
		<g>
			<polygon class="st8" points="455.1000061,312.2999878 455.1000061,245.8000031 481.8999939,244.1000061 522.2999878,250 
				522.2999878,312.2999878 			"/>
			<path class="st9" d="M481.8999939,244.6000061l39.8999939,5.8000031v61.4000092h-66.1000061v-65.1999969v-0.3000031
				L481.8999939,244.6000061 M481.8999939,243.6000061l-27.2999878,1.6999969v1.3000031v66.1999817h68.1000061v-62.8999939V249.5
				L481.8999939,243.6000061L481.8999939,243.6000061z"/>
		</g>
		<polyline class="st12" points="455.5,247.3000031 482.1000061,247.3000031 522,250.6999969 		"/>
	</g>
	<g>
		<g>
			<rect x="328.2999878" y="72.8000031" class="st8" width="72.8999939" height="29.8000031"/>
			<path class="st9" d="M400.7000122,73.3000031v28.8000031h-71.8999939V73.3000031H400.7000122 M401.7000122,72.3000031
				h-73.8999939v30.8000031h73.8999939V72.3000031L401.7000122,72.3000031z"/>
		</g>
		<g>
			<g>
				<path class="st13" d="M395,87.6999969c0-5.6999969-4.8999939-10.0999985-10.3999939-9.5
					c-6.2000122,0.5999985-13.8999939,1.0999985-19.7000122,1.0999985c-5.7000122,0-13.5-0.5999985-19.7000122-1.0999985
					c-5.6000061-0.5-10.3999939,3.9000015-10.3999939,9.5s4.8999939,10.0999985,10.3999939,9.5
					c6.2000122-0.5999985,13.8999939-1.0999985,19.7000122-1.0999985c5.7000122,0,13.5,0.5999985,19.7000122,1.0999985
					C390.1000061,97.6999969,395,93.3000031,395,87.6999969z"/>
				<ellipse class="st13" cx="385.2000122" cy="87.6999969" rx="1.2999878" ry="1.3000031"/>
			</g>
		</g>
	</g>
	<g>
		<g>
			<rect x="248.6999969" y="157.6000061" class="st8" width="25.0999908" height="16.8999939"/>
			<path class="st9" d="M273.2999878,158.1000061V174h-24.1000061v-15.8999939H273.2999878 M274.2999878,157.1000061h-26.1000061
				V175h26.1000061V157.1000061L274.2999878,157.1000061z"/>
		</g>
		<g>
			<path class="st8" d="M261.2000122,171.3999939c-2.8999939,0-5.3000031-2.3999939-5.3000031-5.3000031
				c0-2.8999939,2.4000092-5.3000031,5.3000031-5.3000031S266.5,163.1999817,266.5,166.0999908
				S264.2000122,171.3999939,261.2000122,171.3999939z"/>
			<path class="st9" d="M261.2000122,161.1999969C263.9000244,161.1999969,266,163.3999939,266,166
				s-2.2000122,4.8000031-4.7999878,4.8000031S256.4000244,168.6000061,256.4000244,166
				S258.6000061,161.1999969,261.2000122,161.1999969 M261.2000122,160.1999969
				c-3.2000122,0-5.8000031,2.6000061-5.8000031,5.8000031s2.5999908,5.8000031,5.8000031,5.8000031S267,169.1999969,267,166
				S264.3999939,160.1999969,261.2000122,160.1999969L261.2000122,160.1999969z"/>
		</g>
	</g>
	<g>
		<path class="st10" d="M229.8000031,276.7999878H284v39.3999939h-54.1999969V276.7999878z"/>
		<path class="st10" d="M287.2999878,286.7000122h0.7999878c5.3999939,0,9.8999939,4.3999939,9.8999939,9.8999939
			c0,5.3999939-4.3999939,9.8999939-9.8999939,9.8999939h-0.7999878V286.7000122z"/>
		<path class="st10" d="M284,288.2999878h4.1000061c4.5,0,8.2000122,3.7000122,8.2000122,8.2000122
			s-3.7000122,8.2000122-8.2000122,8.2000122H284V288.2999878z"/>
		<path class="st10" d="M226.5,286.7000122h-0.8000031c-5.3999939,0-9.8999939,4.3999939-9.8999939,9.8999939
			c0,5.3999939,4.3999939,9.8999939,9.8999939,9.8999939H226.5V286.7000122z"/>
		<path class="st10" d="M229.8000031,288.2999878h-4.1000061C221.1999969,288.2999878,217.5,292,217.5,296.5
			s3.6999969,8.2000122,8.1999969,8.2000122h4.1000061V288.2999878z"/>
		<path class="st10" d="M266.7999878,273.5v-0.7999878c0-5.3999939-4.3999939-9.8999939-9.8999939-9.8999939
			C251.5,262.8000183,247,267.2000122,247,272.7000122V273.5H266.7999878z"/>
		<path class="st10" d="M265.1000061,276.7999878v-4.1000061c0-4.5-3.7000122-8.2000122-8.2000122-8.2000122
			s-8.1999969,3.7000122-8.1999969,8.2000122v4.1000061H265.1000061z"/>
		<path class="st10" d="M266.7999878,319.5v0.7999878c0,5.3999939-4.3999939,9.8999939-9.8999939,9.8999939
			C251.5,330.1999817,247,325.7999878,247,320.2999878V319.5H266.7999878z"/>
		<path class="st10" d="M265.1000061,316.2000122v4.1000061c0,4.5-3.7000122,8.2000122-8.2000122,8.2000122
			s-8.1999969-3.7000122-8.1999969-8.2000122v-4.1000061H265.1000061z"/>
	</g>
	<g>
		<path class="st10" d="M519.5,355.3999939L537.7000122,359l-0.7999878,17.1000061L513.7000122,371.5L519.5,355.3999939z"/>
		<g>
			
				<rect x="510.0024109" y="349.2045288" transform="matrix(0.1918064 -0.9814328 0.9814328 0.1918064 44.7741928 825.9783325)" class="st8" width="27.7991028" height="73.1975708"/>
			<path class="st9" d="M491.1000061,365.7000122L561.9000244,379.5l-5.0999756,26.2999878L486,392L491.1000061,365.7000122
				 M490.2999878,364.5l-5.5,28.2000122l72.7999878,14.2000122l5.5-28.2000122L490.2999878,364.5L490.2999878,364.5z"/>
		</g>
		<path class="st12" d="M518,378.7000122L532.0999756,381.5 M517.5,375.1000061l16.5999756,3.2999878l-1,5L516.5,380.1000061
			L517.5,375.1000061z"/>
		<path class="st10" d="M510.7000122,373.5L510.7000122,373.5c0.7000122,0.1000061,1.1000061,0.7999878,1,1.5l-0.2999878,1.7000122
			c-0.1000061,0.7000122-0.7999878,1.1000061-1.5,1l0,0c-0.7000122-0.1000061-1.1000061-0.7999878-1-1.5L509.2000122,374.5
			C509.2999878,373.8999939,510,373.3999939,510.7000122,373.5z"/>
		<path class="st10" d="M519.0999756,389c0.5-2.2999878,2.7000122-3.7999878,5-3.2999878s3.7999878,2.7000122,3.2999878,5
			l-0.7999878,4.1000061l-8.2999878-1.6000061L519.0999756,389z"/>
		
			<rect x="521.6623535" y="371.028717" transform="matrix(0.1935 -0.9811003 0.9811003 0.1935 35.8056374 829.6146851)" class="st14" width="1.7000123" height="44.0000038"/>
		<g>
			
				<rect x="519.4030151" y="355.2626648" transform="matrix(0.1918064 -0.9814328 0.9814328 0.1918064 68.3634872 811.7421875)" class="st8" width="15.2994995" height="18.1994019"/>
			<path class="st9" d="M520.0999756,355.5L537,358.7999878l-2.7999878,14.1000061l-16.9000244-3.2999878L520.0999756,355.5
				 M519.2999878,354.3999939l-3.0999756,16L535,374.1000061l3.0999756-16L519.2999878,354.3999939L519.2999878,354.3999939z"/>
		</g>
		<g>
			
				<rect x="528.0964355" y="346.7188721" transform="matrix(0.1914986 -0.9814929 0.9814929 0.1914986 78.2498627 806.7305298)" class="st8" width="1.4000244" height="18.3001099"/>
			<path class="st9" d="M520.4000244,354.1000061l16.9000244,3.2999878l-0.0999756,0.3999939L520.3000488,354.5
				L520.4000244,354.1000061 M519.5999756,352.8999939l-0.5,2.3999939L538,359l0.5-2.3999939L519.5999756,352.8999939
				L519.5999756,352.8999939z"/>
		</g>
	</g>
	<g id="Sink_2">
		<g id="Rectangle_16_x5F_11_1_">
			<rect x="255.5" y="72.8000031" class="st8" width="29.5" height="18.9000015"/>
			<path class="st9" d="M284.5,73.3000031v17.9000015H256V73.3000031H284.5 M285.5,72.3000031H255v19.9000015h30.5V72.3000031
				L285.5,72.3000031z"/>
		</g>
		<path id="Rectangle_19_x5F_5" class="st10" d="M259.7999878,82.3000031L259.7999878,82.3000031
			c0,3.4000015,2.7000122,6.0999985,6.1000061,6.0999985h8.7000122c3.3999939,0,6.1000061-2.6999969,6.1000061-6.0999985l0,0
			c0-3.4000015-2.7000122-6.0999985-6.1000061-6.0999985h-8.7000122
			C262.5,76.1999969,259.7999878,78.9000015,259.7999878,82.3000031z"/>
		<circle id="Ellipse_7_x5F_2_1_" class="st10" cx="270.2000122" cy="79.0999985" r="1.2999916"/>
	</g>
	<g id="Sink_2_1_">
		<g id="Rectangle_16_x5F_11_3_">
			<rect x="328.2999878" y="130.6999969" class="st8" width="18.8999939" height="43.9000092"/>
			<path class="st9" d="M346.7000122,131.1999969v42.9000092h-17.8999939v-42.8999939L346.7000122,131.1999969
				 M347.7000122,130.1999969h-19.8999939v44.9000092h19.8999939V130.1999969L347.7000122,130.1999969z"/>
		</g>
		<path id="Rectangle_19_x5F_5_1_" class="st10" d="M337.7999878,166L337.7999878,166
			c3.3999939,0,6.1000061-2.6999969,6.1000061-6.1000061v-8.6999969c0-3.3999939-2.7000122-6.1000061-6.1000061-6.1000061l0,0
			c-3.3999939,0-6.1000061,2.6999969-6.1000061,6.1000061v8.6999969C331.7000122,163.3000031,334.3999939,166,337.7999878,166z"/>
		<circle id="Ellipse_7_x5F_2_2_" class="st10" cx="334.6000061" cy="155.5" r="1.2999878"/>
	</g>
	<g id="Toilet_2_">
		<g id="Rectangle_21_1_">
			<rect x="294.2000122" y="81.6999969" class="st8" width="17.7999878" height="5.9000015"/>
			<path class="st9" d="M311.3999939,82.1999969v4.9000015h-16.7999878v-4.9000015H311.3999939 M312.3999939,81.1999969h-18.7999878
				v6.9000015h18.7999878V81.1999969L312.3999939,81.1999969z"/>
		</g>
		<path id="Rectangle_19_x5F_2_2_" class="st10" d="M296.3999939,100c-0.2999878,3.9000015,2.7999878,7.0999985,6.7000122,7.0999985
			l0,0C307,107.0999985,310,103.7999954,309.8000183,100L309,87.5999985h-11.7000122L296.3999939,100z"/>
		<path id="Rectangle_18_x5F_13_2_" class="st10" d="M297.7000122,100
			c-0.2999878,3.0999985,2.2000122,5.8000031,5.2999878,5.8000031l0,0c3.1000061,0,5.6000061-2.6999969,5.2999878-5.8000031
			L307.5,91.5h-9.1000061L297.7000122,100z"/>
		<ellipse id="Ellipse_6_x5F_2_2_" class="st10" cx="303.1000061" cy="95.4000015" rx="1.2999878" ry="1.3000031"/>
	</g>
	<g id="Toilet_1_">
		<g id="Rectangle_21_4_">
			<rect x="328.2999878" y="112.9000015" class="st8" width="5.8999939" height="17.7999954"/>
			<path class="st9" d="M333.7999878,113.4000015v16.7999954h-5v-16.8000031h5 M334.7999878,112.4000015h-7v18.7999954h7
				V112.4000015L334.7999878,112.4000015z"/>
		</g>
		<path id="Rectangle_19_x5F_2_1_" class="st10" d="M346.7000122,128.5
			c3.8999939,0.3000031,7.1000061-2.8000031,7.1000061-6.6999969l0,0c0-3.9000015-3.2999878-6.9000015-7.1000061-6.6999969
			l-12.3999939,0.8000031v11.6999969L346.7000122,128.5z"/>
		<path id="Rectangle_18_x5F_13_1_" class="st10" d="M346.7000122,127.0999985
			c3.1000061,0.3000031,5.7999878-2.1999969,5.7999878-5.3000031l0,0c0-3.0999985-2.7000122-5.5999985-5.7999878-5.3000031
			l-8.5,0.8000031v9.0999985L346.7000122,127.0999985z"/>
		<ellipse id="Ellipse_6_x5F_2_1_" class="st10" cx="342.2000122" cy="121.8000031" rx="1.2999878" ry="1.3000031"/>
	</g>
	<g id="Shower">
		<path id="Rectangle_22" class="st10" d="M323.2000122,139.6999969V174.5h-34.7999878v-24
			c0-6,4.7999878-10.8000031,10.7999878-10.8000031H323.2000122z"/>
		<path id="Rectangle_23" class="st10" d="M321.3999939,141.5v31.1999969h-31.2000122v-22.6000061
			c0-4.8000031,3.8999939-8.6999969,8.7000122-8.6999969h22.5V141.5z"/>
		<ellipse id="Ellipse_6_x5F_4" class="st10" cx="314.2999878" cy="165.6000061" rx="1.2999878" ry="1.3000031"/>
	</g>
	<g id="TV_2_">
		<g id="Rectangle_16_2_">
			<rect x="422.7000122" y="362.7000122" class="st8" width="60.7999878" height="8.7999878"/>
			<path class="st9" d="M483,363.2000122V371h-59.7999878v-7.7999878H483 M484,362.2000122h-61.7999878V372H484V362.2000122
				L484,362.2000122z"/>
		</g>
		<g id="Rectangle_15_2_">
			<rect x="422.7000122" y="364.5" class="st8" width="60.7999878" height="10.6000061"/>
			<path class="st9" d="M483,365v9.6000061h-59.7999878V365H483 M484,364h-61.7999878v11.6000061H484V364L484,364z"/>
		</g>
		<rect id="Rectangle_17_2_" x="432.6000061" y="371.7999878" class="st10" width="41.1000061" height="1.7000122"/>
		<path id="Rectangle_18_x5F_2_2_" class="st10" d="M444,373.5h18.1000061L460.5,375.1000061h-14.8999939L444,373.5z"/>
	</g>
	<g id="Kitchen">
		<g id="Rectangle_24">
			<rect x="155.8999939" y="174.1999969" class="st8" width="25.6000061" height="81.5"/>
			<path class="st9" d="M180.8999939,174.6999969v80.5h-24.6000061v-80.5H180.8999939 M181.8999939,173.6999969h-26.6000061
				v82.5000153h26.6000061V173.6999969L181.8999939,173.6999969z"/>
		</g>
		<g id="Rectangle_26">
			<rect x="155.8999939" y="280.6000061" class="st8" width="25.6000061" height="36.3999939"/>
			<path class="st9" d="M180.8999939,281.1000061V316.5h-24.6000061v-35.3999939H180.8999939 M181.8999939,280.1000061h-26.6000061
				V317.5h26.6000061V280.1000061L181.8999939,280.1000061z"/>
		</g>
		<g id="Oven">
			<g id="Rectangle_28">
				<rect x="157.5" y="295.2000122" class="st8" width="25.6000061" height="18.8999939"/>
				<path class="st9" d="M182.6000061,295.7000122v17.8999939H158v-17.8999939H182.6000061 M183.6000061,294.7000122H157v19.8999939
					h26.6000061V294.7000122L183.6000061,294.7000122z"/>
			</g>
			<g id="Rectangle_29">
				<rect x="155.8999939" y="291.3999939" class="st8" width="25.6000061" height="26.5"/>
				<path class="st9" d="M180.8999939,291.8999939v25.5h-24.6000061v-25.5H180.8999939 M181.8999939,290.8999939h-26.6000061v27.5
					h26.6000061V290.8999939L181.8999939,290.8999939z"/>
			</g>
		</g>
		<g id="Rectangle_27_1_">
			<rect x="155.8999939" y="317.8999939" class="st8" width="25.6000061" height="25.6000061"/>
			<path class="st9" d="M180.8999939,318.3999939V343h-24.6000061v-24.6000061H180.8999939 M181.8999939,317.3999939h-26.6000061
				V344h26.6000061V317.3999939L181.8999939,317.3999939z"/>
		</g>
		<g id="Sink_3">
			<rect id="Rectangle_28_x5F_2" x="158.6999969" y="192.5" class="st10" width="19.8999939" height="31.6000061"/>
			<path id="Rectangle_29_x5F_2" class="st10" d="M168.6000061,204.8999939L168.6000061,204.8999939
				c4.1000061,0,7.5,3.3000031,7.5,7.5v1.6999969c0,4.1000061-3.3000031,7.5-7.5,7.5l0,0c-4.1000061,0-7.5-3.3000031-7.5-7.5
				v-1.6999969C161.1999969,208.3000031,164.5,204.8999939,168.6000061,204.8999939z"/>
			<ellipse id="Ellipse_7_x5F_3" class="st10" cx="165.3000031" cy="213.3000031" rx="1.3000031" ry="1.3000031"/>
			<path id="Vector_2" class="st12" d="M161.1999969,194.1000061v8.3000031 M163.6999969,194.1000061v8.3000031
				 M166.1999969,194.1000061v8.3000031 M168.6000061,194.1000061v8.3000031 M171.1000061,194.1000061v8.3000031
				 M173.6000061,194.1000061v8.3000031 M176.1000061,194.1000061v8.3000031"/>
		</g>
		<g id="Stove">
			<g id="Rectangle_25">
				<rect x="155.8999939" y="255.6999969" class="st8" width="25.6000061" height="24.9000092"/>
				<path class="st9" d="M180.8999939,256.2000122v23.8999939h-24.6000061v-23.8999939H180.8999939 M181.8999939,255.1999969
					h-26.6000061v25.9000092h26.6000061V255.1999969L181.8999939,255.1999969z"/>
			</g>
			<g id="Rectangle_28_x5F_3">
				<rect x="155.8999939" y="255.6999969" class="st8" width="1.8999939" height="24.9000092"/>
				<path class="st9" d="M157.1999969,256.2000122v23.8999939h-0.8999939v-23.8999939H157.1999969 M158.1999969,255.1999969
					h-2.8999939v25.9000092h2.8999939V255.1999969L158.1999969,255.1999969z"/>
			</g>
			<g id="Ellipse_7_x5F_4">
				<path class="st8" d="M164.5,264.7000122c-1.6000061,0-2.8000031-1.2999878-2.8000031-2.7999878
					c0-1.6000061,1.3000031-2.7999878,2.8000031-2.7999878s2.8000031,1.2999878,2.8000031,2.7999878
					S166,264.7000122,164.5,264.7000122z"/>
				<path class="st9" d="M164.5,259.5c1.3000031,0,2.3000031,1,2.3000031,2.2999878s-1,2.2999878-2.3000031,2.2999878
					s-2.3000031-1-2.3000031-2.2999878C162.1999969,260.6000061,163.1999969,259.5,164.5,259.5 M164.5,258.5
					c-1.8000031,0-3.3000031,1.5-3.3000031,3.2999878s1.5,3.2999878,3.3000031,3.2999878s3.3000031-1.5,3.3000031-3.2999878
					S166.3000031,258.5,164.5,258.5L164.5,258.5z"/>
			</g>
			<g id="Ellipse_9">
				<circle class="st8" cx="174.5" cy="261.8999939" r="3.7000122"/>
				<path class="st9" d="M174.5,258.7000122c1.6999969,0,3.1999969,1.3999939,3.1999969,3.2000122
					s-1.3999939,3.2000122-3.1999969,3.2000122s-3.1999969-1.3999939-3.1999969-3.2000122
					S172.6999969,258.7000122,174.5,258.7000122 M174.5,257.7000122c-2.3000031,0-4.1999969,1.8999939-4.1999969,4.2000122
					s1.8999939,4.2000122,4.1999969,4.2000122s4.1999969-1.8999939,4.1999969-4.2000122S176.8000031,257.7000122,174.5,257.7000122
					L174.5,257.7000122z"/>
			</g>
			<g id="Ellipse_10">
				<circle class="st8" cx="164.5" cy="273.5" r="3.7000122"/>
				<path class="st9" d="M164.5,270.2999878c1.6999969,0,3.1999969,1.3999939,3.1999969,3.2000122
					c0,1.7000122-1.3999939,3.2000122-3.1999969,3.2000122s-3.1999969-1.3999939-3.1999969-3.2000122
					C161.3000031,271.7999878,162.8000031,270.2999878,164.5,270.2999878 M164.5,269.2999878
					c-2.3000031,0-4.1999969,1.8999939-4.1999969,4.2000122c0,2.2999878,1.8999939,4.2000122,4.1999969,4.2000122
					s4.1999969-1.8999939,4.1999969-4.2000122C168.6000061,271.2000122,166.8000031,269.2999878,164.5,269.2999878
					L164.5,269.2999878z"/>
			</g>
			<g id="Ellipse_8">
				<path class="st8" d="M175.3000031,276.2999878C173.6999969,276.2999878,172.5,275,172.5,273.5
					s1.3000031-2.7999878,2.8000031-2.7999878S178.1000061,272,178.1000061,273.5S176.8000031,276.2999878,175.3000031,276.2999878z
					"/>
				<path class="st9" d="M175.3000031,271.2000122c1.3000031,0,2.3000031,1,2.3000031,2.2999878s-1,2.2999878-2.3000031,2.2999878
					S173,274.7999878,173,273.5S174,271.2000122,175.3000031,271.2000122 M175.3000031,270.2000122
					C173.5,270.2000122,172,271.7000122,172,273.5s1.5,3.2999878,3.3000031,3.2999878s3.3000031-1.5,3.3000031-3.2999878
					S177.1000061,270.2000122,175.3000031,270.2000122L175.3000031,270.2000122z"/>
			</g>
		</g>
		<path id="Vector_3" class="st12" d="M168.6000061,327.3999939V334 M171.5,329.1000061l-5.8000031,3.2999878
			 M165.6999969,329.1000061L171.5,332.3999939"/>
	</g>
	<g>
		<path class="st10" d="M306.7999878,331.8999939c-1.1000061,0-2.1000061,0.8999939-2.1000061,2.1000061v20.7999878h47.6000061
			v-22.8999939H306.7999878z"/>
		<path class="st10" d="M331.3999939,295c-1.1000061,0-2.1000061,1-2.1000061,2.2000122v32.6000061
			c0,1.2000122,0.8999939,2.2000122,2.1000061,2.2000122h20.8999939v-37L331.3999939,295L331.3999939,295z"/>
		<path class="st10" d="M331.3999939,259.5c-1.1000061,0-2.1000061,0.8999939-2.1000061,2.1000061v31.2999878
			c0,1.2000122,0.8999939,2.1000061,2.1000061,2.1000061h20.8999939v-35.5H331.3999939z"/>
		<path class="st10" d="M327.6000061,259.5v-7.6999969h32.7999878v111.4999847H296.5v-33h8.2000122v24.6000061h47.6000061
			v-95.3000183L327.6000061,259.5z"/>
	</g>
	<g>
		<g>
			<rect x="373.1000061" y="285" class="st8" width="13.6000061" height="66.8999939"/>
			<path class="st9" d="M386.1000061,285.5v65.8999939H373.5V285.5H386.1000061 M387.1000061,284.5H372.5v67.8999939h14.6000061
				V284.5L387.1000061,284.5z"/>
		</g>
		<g>
			<rect x="365.5" y="285" class="st8" width="19" height="66.8999939"/>
			<path class="st9" d="M384,285.5v65.8999939h-18V285.5H384 M385,284.5h-20v67.8999939h20V284.5L385,284.5z"/>
		</g>
		<path class="st10" d="M365.7000122,285l18.7000122,67.1000061"/>
	</g>
	<g>
		<g>
			<rect x="373.1000061" y="351.8999939" class="st8" width="13.6000061" height="20.6000061"/>
			<path class="st9" d="M386.1000061,352.3999939V372H373.5v-19.6000061H386.1000061 M387.1000061,351.3999939H372.5V373h14.6000061
				V351.3999939L387.1000061,351.3999939z"/>
		</g>
		<g>
			<rect x="365.5" y="351.8999939" class="st8" width="19" height="20.6000061"/>
			<path class="st9" d="M366,352.3999939h18V372h-18V352.3999939 M365,351.3999939V373h20v-21.6000061H365L365,351.3999939z"/>
		</g>
		<path class="st10" d="M365.7000122,351.5l18.7000122,21.3999939"/>
	</g>
	<g>
		<g>
			<rect x="163.3999939" y="72.9000015" class="st8" width="13.6000061" height="69.8000107"/>
			<path class="st9" d="M176.3999939,73.4000015v68.8000107h-12.6000061V73.4000015H176.3999939 M177.3999939,72.4000015
				h-14.6000061v70.8000107h14.6000061V72.4000015L177.3999939,72.4000015z"/>
		</g>
		<g>
			<rect x="155.8999939" y="72.9000015" class="st8" width="19" height="69.8000107"/>
			<path class="st9" d="M174.3000031,73.4000015v68.8000107h-18V73.4000015H174.3000031 M175.3000031,72.4000015h-20v70.8000107h20
				V72.4000015L175.3000031,72.4000015z"/>
		</g>
		<path class="st10" d="M156,72.9000015l18.6999969,69.9999924"/>
	</g>
	<g>
		<rect x="285" y="72.8000031" class="st8" width="38.2000122" height="8.9000015"/>
		<path class="st9" d="M322.7000122,73.3000031v7.9000015H285.5v-7.9000015H322.7000122 M323.7000122,72.3000031H284.5v9.9000015
			h39.2000122V72.3000031L323.7000122,72.3000031z"/>
	</g>
	<g>
		<path class="st10" d="M504.7999878,183h17.7999878L525,199.1000061h-22.6000061L504.7999878,183z"/>
		<g>
			<rect x="485.3999939" y="197.3999939" class="st8" width="58.3000183" height="26.3999939"/>
			<path class="st9" d="M543.2000122,197.8999939v25.3999939h-57.2999878v-25.3999939H543.2000122 M544.2000122,196.8999939
				h-59.2999878v27.3999939h59.2999878V196.8999939L544.2000122,196.8999939z"/>
		</g>
		<path class="st12" d="M507.7000122,205.1000061h13.7000122 M506.5,201.8000031h16.0999756v4.8000031h-16.1000061
			L506.5,201.8000031z"/>
		<path class="st10" d="M499.8999939,201.6000061L499.8999939,201.6000061c0.7000122,0,1.2000122,0.5,1.2000122,1.1999969v1.6000061
			c0,0.6999969-0.5,1.1999969-1.2000122,1.1999969l0,0c-0.7000122,0-1.2000122-0.5-1.2000122-1.1999969v-1.6000061
			C498.6000061,202.1000061,499.2000122,201.6000061,499.8999939,201.6000061z"/>
		<path class="st10" d="M510.6000061,214.5c0-2.1999969,1.8000183-4,3.9999695-4c2.2000122,0,4,1.8000031,4,4v4h-8.1000061
			L510.6000061,214.5z"/>
		
			<rect x="513.9077148" y="196.7267914" transform="matrix(0.0016959 -0.9999986 0.9999986 0.0016959 296.1083069 732.0645142)" class="st15" width="1.5999757" height="42.0000648"/>
		<g>
			<rect x="505" y="182.5" class="st8" width="17.2999878" height="14.6000061"/>
			<path class="st9" d="M521.7999878,183v13.6000061H505.5V183H521.7999878 M522.7999878,182H504.5v15.6000061h18.2999878V182
				L522.7999878,182z"/>
		</g>
		<g>
			<rect x="504.8999939" y="180.8999939" class="st8" width="17.6000061" height="1.5"/>
			<path class="st9" d="M522,181.3999939v0.5h-16.6000061v-0.5H522 M523,180.3999939h-18.6000061v2.5H523V180.3999939
				L523,180.3999939z"/>
		</g>
	</g>
	<g>
		<g>
			<rect x="413.7999878" y="72.8000031" class="st8" width="13.6000061" height="101.8000031"/>
			<path class="st9" d="M426.8999939,73.3000031v100.8000031h-12.6000061V73.3000031H426.8999939 M427.8999939,72.3000031
				h-14.6000061v102.8000031h14.6000061V72.3000031L427.8999939,72.3000031z"/>
		</g>
		<g>
			<rect x="406.2999878" y="72.8000031" class="st8" width="19" height="101.8000031"/>
			<path class="st9" d="M424.7999878,73.3000031v100.8000031h-18V73.3000031H424.7999878 M425.7999878,72.3000031h-20v102.8000031
				h20V72.3000031L425.7999878,72.3000031z"/>
		</g>
		<path class="st10" d="M406.5,174.3999939l18.7000122-101.6999969"/>
	</g>
</g>
<g id="Numbers">
	<g>
		<path class="st7" d="M207.1999969,352.7999878l-1.6000061,1.7999878h2.6999969v1h-4.1999969v-0.8999939l2.1000061-2.2999878
			l0.5-0.6000061c0.1000061-0.1000061,0.1999969-0.2999878,0.3000031-0.5s0.1000061-0.3999939,0.1000061-0.6000061
			c0-0.2999878-0.1000061-0.5-0.3000031-0.7000122s-0.5-0.2999878-0.8000031-0.2999878c-0.5,0-1,0.2000122-1.6000061,0.7000122
			l-0.6000061-0.7000122c0.6999969-0.6000061,1.3999939-1,2.1999969-1c0.6000061,0,1.1000061,0.2000122,1.5,0.6000061
			s0.6000061,0.8999939,0.6000061,1.3999939C208.1999969,351.2999878,207.8999939,352,207.1999969,352.7999878z"/>
		<path class="st7" d="M211,355.6000061c-0.6999969,0-1.3999939-0.2000122-2.1000061-0.7000122l0.5-0.7999878
			C210,354.5,210.5,354.6000061,211,354.6000061c0.3999939,0,0.6999969-0.1000061,0.8999939-0.2999878
			c0.1999969-0.2000122,0.3000031-0.3999939,0.3000031-0.7999878c0-0.2999878-0.1000061-0.6000061-0.3999939-0.7999878
			c-0.1999969-0.2000122-0.5-0.2999878-0.8999939-0.2999878h-0.8000031v-0.8999939h0.8000031
			c0.3000031,0,0.6000061-0.1000061,0.8000031-0.2999878c0.1999969-0.2000122,0.3000031-0.3999939,0.3000031-0.7000122
			c0-0.2999878-0.1000061-0.5-0.3000031-0.7000122s-0.5-0.2999878-0.8000031-0.2999878
			c-0.3999939,0-0.8999939,0.2000122-1.3999939,0.6000061l-0.5-0.7000122
			c0.1999969-0.2000122,0.6000061-0.3999939,0.8999939-0.6000061c0.3999939-0.1000061,0.6999969-0.2000122,1.1000061-0.2000122
			c0.6000061,0,1.1000061,0.2000122,1.5,0.5s0.6000061,0.7999878,0.6000061,1.2000122
			c0,0.3999939-0.1000061,0.7000122-0.3000031,0.8999939c-0.1999969,0.2999878-0.5,0.5-0.8000031,0.6000061l0,0
			c0.3999939,0.1000061,0.6999969,0.2999878,1,0.6000061c0.1999969,0.2999878,0.3000031,0.6000061,0.3000031,1.1000061
			c0,0.6000061-0.1999969,1-0.6000061,1.3999939C212.1999969,355.3999939,211.6999969,355.6000061,211,355.6000061z"/>
	</g>
	<g>
		<path class="st7" d="M409.2999878,293l1.8999939-1.6000061h0.7999878v6.7000122h-1v-5.2999878l-1.2000122,0.8999939
			L409.2999878,293z"/>
		<path class="st7" d="M416,293.7000122c0.6000061,0,1.1000061,0.2000122,1.5,0.6000061s0.6000061,0.8999939,0.6000061,1.5
			s-0.2000122,1.2000122-0.7000122,1.6000061c-0.3999939,0.3999939-1,0.6000061-1.7000122,0.6000061
			c-0.7999878,0-1.3999939-0.2999878-1.7999878-0.8999939s-0.6000061-1.3999939-0.6000061-2.2999878
			c0-0.6000061,0.1000061-1.2000122,0.2999878-1.7999878c0.2000122-0.5,0.5-1,0.8999939-1.2999878
			c0.3999939-0.3999939,1-0.5,1.6000061-0.5c0.7000122,0,1.2999878,0.2000122,1.7000122,0.6000061l-0.3999939,0.7999878
			c-0.3999939-0.2999878-0.7999878-0.3999939-1.2000122-0.3999939c-0.3999939,0-0.7000122,0.1000061-1,0.3999939
			c-0.5,0.5-0.7999878,1.2000122-0.7999878,2.1000061c0.1000061-0.2999878,0.3999939-0.5,0.7000122-0.7000122
			S415.6000061,293.7000122,416,293.7000122z M415.7999878,297.2000122c0.3999939,0,0.7000122-0.1000061,0.8999939-0.3999939
			c0.2000122-0.2999878,0.3999939-0.6000061,0.3999939-0.8999939c0-0.3999939-0.1000061-0.7000122-0.3999939-0.8999939
			c-0.2000122-0.2000122-0.5-0.3999939-0.8999939-0.3999939s-0.7000122,0.1000061-0.8999939,0.3999939
			C414.6999817,295.2000427,414.5,295.6000366,414.5,295.9000244c0,0.3999939,0.1000061,0.7000122,0.3999939,0.8999939
			C415.1000061,297,415.3999939,297.2000122,415.7999878,297.2000122z"/>
		<path class="st7" d="M419.5,298.1000061c-0.2000122,0-0.2999878-0.1000061-0.5-0.2000122s-0.2000122-0.2999878-0.2000122-0.5
			S418.8999939,297.1000061,419,297s0.2999878-0.2000122,0.5-0.2000122s0.2999878,0.1000061,0.3999939,0.2000122
			s0.2000122,0.2999878,0.2000122,0.3999939c0,0.2000122-0.1000061,0.2999878-0.2000122,0.5
			S419.7000122,298.1000061,419.5,298.1000061z"/>
		<path class="st7" d="M423.5,293.7000122c0.6000061,0,1.1000061,0.2000122,1.5,0.6000061s0.6000061,0.8999939,0.6000061,1.5
			s-0.2000122,1.2000122-0.7000122,1.6000061c-0.3999939,0.3999939-1,0.6000061-1.7000122,0.6000061
			c-0.7999878,0-1.3999939-0.2999878-1.7999878-0.8999939s-0.6000061-1.3999939-0.6000061-2.2999878
			c0-0.6000061,0.1000061-1.2000122,0.2999878-1.7999878s0.5-1,0.8999939-1.2999878c0.3999939-0.3999939,1-0.5,1.6000061-0.5
			c0.7000122,0,1.2999878,0.2000122,1.7000122,0.6000061l-0.3999939,0.7999878
			c-0.3999939-0.2999878-0.7999878-0.3999939-1.2000122-0.3999939c-0.3999939,0-0.7000122,0.1000061-1,0.3999939
			c-0.5,0.5-0.7999878,1.2000122-0.7999878,2.1000061c0.2000122-0.2999878,0.3999939-0.5,0.7000122-0.7000122
			S423.1000061,293.7000122,423.5,293.7000122z M423.2999878,297.2000122c0.3999939,0,0.7000122-0.1000061,0.8999939-0.3999939
			c0.2000122-0.2999878,0.3999939-0.6000061,0.3999939-0.8999939c0-0.3999939-0.1000061-0.7000122-0.3999939-0.8999939
			c-0.2000122-0.2000122-0.5-0.3999939-0.8999939-0.3999939s-0.7000122,0.1000061-0.8999939,0.3999939
			C422.1999817,295.2000427,422,295.6000366,422,295.9000244c0,0.3999939,0.1000061,0.7000122,0.3999939,0.8999939
			C422.6000061,297,423,297.2000122,423.2999878,297.2000122z"/>
	</g>
	<g>
		<path class="st7" d="M363,198.8999939l1.8999939-1.6000061h0.7999878v6.6999969h-1v-5.3000031l-1.2000122,0.8999939
			L363,198.8999939z"/>
		<path class="st7" d="M367.6000061,204c-0.2000122,0-0.2999878-0.1000061-0.5-0.1999969s-0.2000122-0.3000031-0.2000122-0.5
			S367,203,367.1000061,202.9000092s0.2999878-0.1999969,0.5-0.1999969s0.2999878,0.1000061,0.3999939,0.1999969
			s0.2000122,0.3000031,0.2000122,0.3999939c0,0.1999969-0.1000061,0.3000031-0.2000122,0.5S367.7999878,204,367.6000061,204z"/>
		<path class="st7" d="M368.7000122,198.1999969v-0.8999939h4.2000122V198l-2.5,6h-1.1000061l2.5-5.6999969h-3.1000061V198.1999969z
			"/>
	</g>
	<g>
		<path class="st7" d="M447.2999878,116.5999985L449.1999817,115h0.7999878v6.6999969h-1v-5.3000031l-1.2000122,0.9000015
			L447.2999878,116.5999985z"/>
		<path class="st7" d="M450.7999878,116.5999985L452.6999817,115h0.7999878v6.6999969h-1v-5.3000031l-1.2000122,0.9000015
			L450.7999878,116.5999985z"/>
		<path class="st7" d="M455.3999939,121.6999969c-0.2000122,0-0.2999878-0.0999985-0.5-0.1999969
			s-0.2000122-0.3000031-0.2000122-0.5s0.1000061-0.3000031,0.2000122-0.4000015s0.2999878-0.1999969,0.5-0.1999969
			s0.2999878,0.0999985,0.3999939,0.1999969S456,120.9000015,456,121c0,0.1999969-0.1000061,0.3000031-0.2000122,0.5
			S455.6000061,121.6999969,455.3999939,121.6999969z"/>
		<path class="st7" d="M459.1000061,117.3000031c0.6000061,0,1.2000122,0.1999969,1.6000061,0.5999985
			s0.6000061,0.9000015,0.6000061,1.5999985s-0.2000122,1.1999969-0.7000122,1.5999985
			c-0.3999939,0.4000015-1,0.5999985-1.7000122,0.5999985c-0.7999878,0-1.5-0.3000031-2.2000122-0.8000031l0.5-0.8000031
			c0.6000061,0.4000015,1.1000061,0.5999985,1.7000122,0.5999985c0.3999939,0,0.7000122-0.0999985,1-0.4000015
			c0.2999878-0.1999969,0.3999939-0.5,0.3999939-0.9000015s-0.1000061-0.6999969-0.3999939-0.9000015
			c-0.2000122-0.1999969-0.6000061-0.4000015-1-0.4000015c-0.5,0-0.8999939,0.1999969-1.2000122,0.5l-0.6000061-0.4000015
			l0.3999939-3.3000031h3.3999939v0.9000015h-2.6000061l-0.2000122,1.5999985
			C458.3999939,117.4000015,458.7999878,117.3000031,459.1000061,117.3000031z"/>
	</g>
	<g>
		<path class="st7" d="M203,120.6999969h0.6999969v0.9000015H203v1.5999985h-1v-1.5999985h-3L198.8000031,121l3.6000061-4.4000015
			h0.6999969v4.0999985H203z M202,118.3000031l-2,2.4000015h2V118.3000031z"/>
		<path class="st7" d="M205.1000061,123.3000031c-0.1999969,0-0.3000031-0.0999985-0.5-0.1999969
			c-0.1000061-0.0999985-0.1999969-0.3000031-0.1999969-0.5s0.1000061-0.3000031,0.1999969-0.4000015
			c0.1000061-0.0999985,0.3000031-0.1999969,0.5-0.1999969s0.3000031,0.0999985,0.3999939,0.1999969
			c0.1000061,0.0999985,0.1999969,0.3000031,0.1999969,0.4000015c0,0.1999969-0.1000061,0.3000031-0.1999969,0.5
			C205.5,123.3000031,205.3000031,123.3000031,205.1000061,123.3000031z"/>
		<path class="st7" d="M208.6999969,123.3000031c-0.6999969,0-1.3999939-0.1999969-2.1000061-0.6999969l0.5-0.8000031
			c0.6000061,0.4000015,1.1000061,0.5,1.6000061,0.5c0.3999939,0,0.6999969-0.0999985,0.8999939-0.3000031
			c0.1999969-0.1999969,0.3000031-0.4000015,0.3000031-0.8000031c0-0.3000031-0.1000061-0.5999985-0.3999939-0.8000031
			c-0.1999969-0.1999969-0.5-0.3000031-0.8999939-0.3000031h-0.8000031v-0.9000015h0.8000031
			c0.3000031,0,0.6000061-0.0999985,0.8000031-0.3000031c0.1999969-0.1999969,0.3000031-0.4000015,0.3000031-0.6999969
			c0-0.3000031-0.1000061-0.5-0.3000031-0.6999969s-0.5-0.3000031-0.8000031-0.3000031
			c-0.3999939,0-0.8999939,0.1999969-1.3999939,0.5999985l-0.5-0.6999969
			c0.1999969-0.1999969,0.6000061-0.4000015,0.8999939-0.5999985c0.3999939-0.0999985,0.6999969-0.1999969,1.1000061-0.1999969
			c0.6000061,0,1.1000061,0.1999969,1.5,0.5s0.6000061,0.8000031,0.6000061,1.1999969
			c0,0.4000015-0.1000061,0.6999969-0.3000031,0.9000015c-0.1999969,0.3000031-0.5,0.5-0.8000031,0.5999985l0,0
			c0.3999939,0.0999985,0.6999969,0.3000031,1,0.5999985c0.1999969,0.3000031,0.3000031,0.5999985,0.3000031,1.0999985
			c0,0.5999985-0.1999969,1-0.6000061,1.4000015C209.8999939,123.0999985,209.3000031,123.3000031,208.6999969,123.3000031z"/>
	</g>
	<g>
		<path class="st7" d="M284.7000122,120.6999969h0.7000122v0.9000015h-0.7000122v1.5999985h-1v-1.5999985h-3L280.5,121
			l3.6000061-4.4000015h0.7000122v4.0999985H284.7000122z M283.7000122,118.3000031l-2,2.4000015h2V118.3000031z"/>
		<path class="st7" d="M286.8999939,123.3000031c-0.2000122,0-0.2999878-0.0999985-0.5-0.1999969
			c-0.1000061-0.0999985-0.2000122-0.3000031-0.2000122-0.5s0.1000061-0.3000031,0.2000122-0.4000015
			s0.2999878-0.1999969,0.5-0.1999969s0.2999878,0.0999985,0.3999939,0.1999969S287.5,122.5000076,287.5,122.6000061
			c0,0.1999969-0.1000061,0.3000031-0.2000122,0.5C287.2000122,123.3000031,287,123.3000031,286.8999939,123.3000031z"/>
		<path class="st7" d="M291.5,120.5l-1.6000061,1.8000031h2.7000122v1h-4.2000122v-0.9000015L290.5,120.0999985L291,119.5
			c0.1000061-0.0999985,0.2000122-0.3000031,0.2999878-0.5s0.1000061-0.4000015,0.1000061-0.5999985
			c0-0.3000031-0.1000061-0.5-0.2999878-0.6999969c-0.2000122-0.1999969-0.5-0.3000031-0.7999878-0.3000031
			c-0.5,0-1,0.1999969-1.6000061,0.6999969l-0.6000061-0.6999969c0.7000122-0.5999985,1.3999939-1,2.2000122-1
			c0.6000061,0,1.1000061,0.1999969,1.5,0.5999985s0.6000061,0.9000015,0.6000061,1.4000015
			C292.5,119,292.2000122,119.6999969,291.5,120.5z"/>
	</g>
	<g>
		<path class="st7" d="M373.5,124.6999969h0.7000122v0.9000015H373.5v1.5999985h-1v-1.5999985h-3L369.2999878,125
			l3.6000061-4.4000015h0.7000122v4.0999985H373.5z M372.5,122.3000031l-2,2.4000015h2V122.3000031z"/>
	</g>
</g>
<g id="street_anchors">
	<rect id="street_anchor_01" x="355" y="449.8773193" class="st16" width="10" height="10"/>
	<rect id="street_anchor_02" x="615.1288452" y="235" class="st16" width="10" height="10"/>
</g>
</svg>
