<?xml version="1.0" encoding="utf-8"?>
<!-- Generator: Adobe Illustrator 24.2.0, SVG Export Plug-In . SVG Version: 6.00 Build 0)  -->
<!DOCTYPE svg PUBLIC "-//W3C//DTD SVG 1.1//EN" "http://www.w3.org/Graphics/SVG/1.1/DTD/svg11.dtd" [
	<!ENTITY ns_extend "http://ns.adobe.com/Extensibility/1.0/">
	<!ENTITY ns_ai "http://ns.adobe.com/AdobeIllustrator/10.0/">
	<!ENTITY ns_graphs "http://ns.adobe.com/Graphs/1.0/">
	<!ENTITY ns_vars "http://ns.adobe.com/Variables/1.0/">
	<!ENTITY ns_imrep "http://ns.adobe.com/ImageReplacement/1.0/">
	<!ENTITY ns_sfw "http://ns.adobe.com/SaveForWeb/1.0/">
	<!ENTITY ns_custom "http://ns.adobe.com/GenericCustomNamespace/1.0/">
	<!ENTITY ns_adobe_xpath "http://ns.adobe.com/XPath/1.0/">
]>
<svg version="1.1" id="_x31__x5F_2" xmlns:x="&ns_extend;" xmlns:i="&ns_ai;" xmlns:graph="&ns_graphs;"
	 xmlns="http://www.w3.org/2000/svg" xmlns:xlink="http://www.w3.org/1999/xlink" x="0px" y="0px" viewBox="0 0 720 480"
	 style="enable-background:new 0 0 720 480;" xml:space="preserve">
<style type="text/css">
	.st0{fill:#DBD4CA;}
	.st1{opacity:0.3;}
	.st2{opacity:0.7;fill:#C49F8A;enable-background:new    ;}
	.st3{fill:#C49F8A;}
	.st4{fill:none;stroke:#565440;}
	.st5{fill:#565440;}
	.st6{fill:#E9E4DC;}
	.st7{fill:#E9E4DC;stroke:#C49F8A;}
	.st8{fill:#E9E4DC;stroke:#C49F8A;stroke-miterlimit:3.9998;}
	.st9{fill:none;stroke:#C49F8A;}
	.st10{fill:#E9E4DC;stroke:#C49F8A;stroke-linejoin:round;}
	.st11{opacity:0;}
	.st12{fill:none;}
</style>
<metadata>
	<sfw  xmlns="&ns_sfw;">
		<slices></slices>
		<sliceSourceBounds  bottomLeftOrigin="true" height="360" width="525.4782715" x="102.5217361" y="60"></sliceSourceBounds>
	</sfw>
</metadata>
<rect id="Floor" x="152.5" y="60" class="st0" width="425" height="360"/>
<g id="Wet_Floor_1_">
	<g class="st1">
		<rect x="450.7000122" y="67.1999969" class="st2" width="117.5999756" height="172.8000031"/>
	</g>
	<path class="st3" d="M452.1000061,240H453.5l3.3999939-3.3999939L460.2999878,240h1.3999939l-4.1000061-4.1000061
		l9.7999878-9.8000031l9.7000122,9.6999969L473,240h1.3999939l3.3999939-3.3999939L481.1999817,240h1.3999939l-4.2000122-4.1999969
		l9.7000122-9.6999969l9.7999878,9.8000031L494,240h1.3999939l3.3999939-3.3999939L502.1999817,240h1.3999939l-4.1000061-4.1000061
		l9.7999878-9.8000031l9.8000183,9.8000031L515,240h1.4000244l3.4000244-3.3999939L523.2000732,240h1.4000244l-4.0999756-4.1000061
		l9.7999878-9.8000031l9.7999878,9.8000031L536,240h1.4000244l3.4000244-3.3999939L544.2000732,240h1.4000244l-4.0999756-4.1000061
		l9.7999878-9.8000031l9.7000122,9.6999969l-4.2000122,4.1999969h1.4000244l3.4000244-3.3999939l3.4000244,3.3999939h1.4000244
		l-4.2000122-4.1999969l5.9000244-5.8999939V228.5l-6.5999756,6.6000061l-9.7000122-9.6999969l9.7000122-9.6999969
		l6.5999756,6.6000061v-1.3999939l-5.9000244-5.8999939l5.9000244-5.8999939v-1.3999939l-6.5999756,6.6000061l-9.7999878-9.8000031
		l9.7999878-9.8000031l6.5999756,6.6000061v-1.3999939l-5.9000244-5.8999939l5.9000244-5.8999939v-1.3999939l-6.5999756,6.6000061
		l-9.7999878-9.8000031l10-10l6.4000244,6.3999939v-1.3999939l-5.7000122-5.6999969l5.7000122-5.6999969v-1.3999939
		l-6.4000244,6.3999939l-9.7999878-9.8000031l9.7999878-9.8000031l6.4000244,6.3999939v-1.3999939l-5.7000122-5.6999969
		l5.7000122-5.6999969v-1.3999939l-6.4000244,6.3999939l-9.7000122-9.6999969l9.7000122-9.6999969l6.4000244,6.3999939v-1.3999939
		l-5.7000122-5.6999969l5.7000122-5.6999969v-1.4000015l-6.4000244,6.4000015l-9.7999878-9.8000031l9.7999878-9.8000031
		l6.4000244,6.4000015v-1.4000015l-5.7000122-5.6999969l5.7000122-5.6999969v-1.4000015l-6.4000244,6.4000015l-10-10
		l9.7999878-9.8000031l6.5999756,6.5999985v-1.4000015l-5.9000244-5.9000015l5.9000244-5.9000015v-1.4000015l-6.5999756,6.5999985
		l-9.7999878-9.8000031l9.7000122-9.6999969l6.7000122,6.6999969v-1.4000015l-6-6l0,0l-0.7000122-0.6999969l0,0l0,0
		l-0.7000122,0.6999969l0,0l-9.7000122,9.6999969l-9.7000122-9.6999969l0,0l-0.7000122-0.6999969l0,0l0,0l-0.7000122,0.6999969l0,0
		l-9.7999878,9.8000031l-9.7999878-9.8000031l0,0l-0.7000122-0.6999969l0,0l0,0l-0.7000122,0.6999969l0,0l-9.7999878,9.8000031
		l-9.7999878-9.8000031l0,0l-0.7000122-0.6999969l0,0l0,0l-0.7000122,0.6999969l0,0l-9.7000122,9.6999969l-9.7000122-9.6999969l0,0
		l-0.7000122-0.6999969l0,0l0,0l-0.7000122,0.6999969l0,0l-9.7999878,9.8000031l-9.7999878-9.8000031l0,0l-0.7000122-0.6999969l0,0
		l0,0l-0.7000122,0.6999969l0,0l-5.6000061,5.5999985v1.4000015l6.2999878-6.3000031l9.7999878,9.8000031l-10,10
		l-6.1000061-6.0999985v1.4000015l5.3999939,5.4000015l-5.3999939,5.4000015v1.4000015l6.1000061-6.0999985l9.7000122,9.6999969
		l-9.7999878,9.8000031l-6-6v1.4000015l5.2999878,5.3000031l-5.2999878,5.3000031v1.4000015l6-6l9.7999878,9.8000031
		l-9.7000122,9.7000046l-6.1000061-6.0999985v1.4000015l5.3999939,5.3999939l-5.3999939,5.3999939v1.3999939l6.1000061-6.1000061
		l9.7999878,9.8000031l-9.7999878,9.8000031l-6.1000061-6.1000061v1.3999939l5.3999939,5.3999939l-5.3999939,5.3999939v1.3999939
		l6.1000061-6.1000061l9.7000122,9.6999969l-9.7999878,9.8000031l-6-6v1.3999939l5.2999878,5.3000031l-5.2999878,5.3000031
		v1.3999939l6-6l9.7999878,9.8000031l-9.7999878,9.8000031l-6-6v1.3999939l5.2999878,5.3000031l-5.2999878,5.3000031v1.3999939l6-6
		l10,10l-9.7000122,9.6999969l-6.2999878-6.3000031v1.3999939l5.6000061,5.6000061l-5.6000061,5.6000061v1.3999939
		l6.2999878-6.3000031l9.7999878,9.8000031l-9.7999878,9.8000031l-6.2999878-6.3000031v1.3999939l5.6000061,5.6000061
		L452.1000061,240z M477.7999878,235.1000061l-9.7000122-9.6999969l9.7000122-9.6999969L487.5,225.4000092L477.7999878,235.1000061z
		 M509.7000122,141.3999939l10-10l10,10l-10,10L509.7000122,141.3999939z M529.5,162.6000061l-9.7999878,9.8000031
		l-9.7999878-9.8000031l9.7999878-9.8000031L529.5,162.6000061z M519,152.1000061l-9.7999878,9.8000031l-10-10L509,142.1000061
		L519,152.1000061z M498.5,151.1999969l-9.7999878-9.8000031L498.5,131.5999908l9.7999878,9.8000031L498.5,151.1999969z
		 M508.5,162.6000061l-9.7000122,9.6999969l-10-10L498.5,152.6000061L508.5,162.6000061z M508.6000061,183.5l-9.7999878,9.8000031
		L489.0000305,183.5l9.7999878-9.8000031L508.6000061,183.5z M499.5,173l9.7000122-9.6999969L519,173.1000061l-9.7000122,9.6999969
		L499.5,173z M519.7000122,173.8000031L529.4000244,183.5l-9.7000122,9.6999969L510,183.5L519.7000122,173.8000031z
		 M520.4000244,173.1000061l9.7999878-9.8000031L539.9000244,173l-9.7999878,9.8000031L520.4000244,173.1000061z
		 M520.4000244,152.1000061l10-10l9.7999878,9.8000031l-10,10L520.4000244,152.1000061z M520.4000244,130.6999969
		l9.7999878-9.8000031l10,10l-9.7999878,9.8000031L520.4000244,130.6999969z M519.7000122,130l-9.7999878-9.8000031
		l9.7999878-9.8000031L529.5,120.1999969L519.7000122,130z M519,130.6999969l-10,10l-9.7999878-9.8000031l10-10L519,130.6999969z
		 M498.5,130.1999969L488.7999878,120.5l10-10L508.5,120.1999969L498.5,130.1999969z M497.7999878,130.8999939L488,140.6999969
		L478.2999878,131l9.7999878-9.8000031L497.7999878,130.8999939z M497.7999878,151.8999939l-9.7000122,9.6999969
		l-9.7999878-9.8000031L488,142.0999908L497.7999878,151.8999939z M498.1000061,173l-9.7999878,9.8000031l-10-10L488.1000061,163
		L498.1000061,173z M498.1000061,194l-9.7999878,9.8000031L478.5000305,194l9.7999878-9.8000031L498.1000061,194z
		 M498.7999878,194.6999969L508.5,204.3999939l-9.7999878,9.8000031L489,204.5L498.7999878,194.6999969z M499.5,194
		l9.7999878-9.8000031L519,193.8999939l-9.7999878,9.8000031L499.5,194z M519.7000122,194.6000061L529.5,204.4000092
		l-9.7999878,9.8000031l-9.7999878-9.8000031L519.7000122,194.6000061z M520.4000244,193.8999939l9.7000122-9.6999969
		L539.9000244,194l-9.7000122,9.6999969L520.4000244,193.8999939z M540.7000122,194.6999969L550.5,204.5l-9.7000122,9.6999969
		L531,204.3999939L540.7000122,194.6999969z M530.9000244,183.5l9.7999878-9.8000031L550.5,183.5l-9.7999878,9.8000031
		L530.9000244,183.5z M530.9000244,162.6000061l10-10l9.7000122,9.6999969l-10,10L530.9000244,162.6000061z
		 M531.0999756,141.3999939l9.7999878-9.8000031l9.7999878,9.8000031l-9.7999878,9.8000031L531.0999756,141.3999939z
		 M530.9000244,120.1999969L540.6000366,110.5l10,10l-9.7000122,9.6999969L530.9000244,120.1999969z M530.9000244,99.3000031
		L540.7000122,89.5L550.5,99.3000031l-9.7999878,9.8000031L530.9000244,99.3000031z M540,109.8000031L530.2999878,119.5
		L520.5,109.6999969L530.2000122,100L540,109.8000031z M519.7000122,109L510,99.3000031l9.7000122-9.6999969l9.7000122,9.6999969
		L519.7000122,109z M519,109.6999969L509.2000122,119.5L499.5,109.8000031L509.2999878,100L519,109.6999969z
		 M498.7999878,109.0999985L489,99.2999954l9.7999878-9.8000031l9.7999878,9.8000031L498.7999878,109.0999985z
		 M498.1000061,109.8000031l-10,10L478.3000183,110l10-10L498.1000061,109.8000031z M477.6000061,109.3000031L467.8000183,99.5
		l10-10l9.7999878,9.8000031L477.6000061,109.3000031z M487.3999939,120.5l-9.7999878,9.8000031L467.8000183,120.5
		l9.7999878-9.8000031L487.3999939,120.5z M487.2999878,141.3999939l-9.7000122,9.6999969l-9.7000122-9.6999969l9.7000122-9.6999969
		L487.2999878,141.3999939z M487.3999939,162.3000031l-9.7999878,9.8000031l-9.7999878-9.8000031L477.6000061,152.5
		L487.3999939,162.3000031z M487.6000061,183.5l-9.7999878,9.8000031l-10-10L477.6000061,173.5L487.6000061,183.5z
		 M487.6000061,204.5l-9.7999878,9.8000031L468.0000305,204.5l9.7999878-9.8000031L487.6000061,204.5z M478.5,215
		l9.7999878-9.8000031L498,214.8999939l-9.7999878,9.8000031L478.5,215z M498.7000122,235.1999969l-9.7999878-9.8000031
		l9.7999878-9.8000031L508.5,225.3999939L498.7000122,235.1999969z M499.3999939,214.8999939l9.7999878-9.8000031L519,214.8999939
		l-9.7999878,9.8000031L499.3999939,214.8999939z M519.7000122,235.1999969l-9.7999878-9.8000031l9.7999878-9.8000031
		L529.5,225.3999939L519.7000122,235.1999969z M520.4000244,214.8999939l9.7999878-9.8000031L540,214.8999939l-9.7999878,9.8000031
		L520.4000244,214.8999939z M540.7000122,235.1999969l-9.7999878-9.8000031l9.7999878-9.8000031L550.5,225.3999939
		L540.7000122,235.1999969z M561,215l-9.7000122,9.6999969L541.5,214.8999939l9.7000122-9.6999969L561,215z M561,194
		l-9.7999878,9.8000031L541.4000244,194l9.7999878-9.8000031L561,194z M561.0999756,172.8000031l-10,10L541.2999878,173l10-10
		L561.0999756,172.8000031z M561.0999756,151.8000031l-9.7999878,9.8000031l-9.7000122-9.6999969l9.7999878-9.8000031
		L561.0999756,151.8000031z M561.0999756,131l-9.7000122,9.6999969l-9.7999878-9.8000031l9.7000122-9.6999969L561.0999756,131z
		 M561.0999756,110l-9.7999878,9.8000031l-10-10L551.0999756,100L561.0999756,110z M560.9000244,88.8000031l-9.7999878,9.8000031
		l-9.7999878-9.8000031L551.1000366,79L560.9000244,88.8000031z M540.7000122,68.5999985l9.7000122,9.6999969l-9.7999878,9.8000031
		l-9.7000122-9.6999969L540.7000122,68.5999985z M540,88.8000031l-9.7999878,9.8000031L520.5,88.9000092l9.7999878-9.8000031
		L540,88.8000031z M519.7000122,68.5999985L529.5,78.4000015l-9.7999878,9.8000031l-9.7999878-9.8000031L519.7000122,68.5999985z
		 M519,88.9000015l-9.7000122,9.6999969L499.5,88.7999954l9.7000122-9.6999969L519,88.9000015z M498.7999878,68.5999985
		l9.7999878,9.8000031l-9.7000122,9.6999969l-9.7999878-9.8000031L498.7999878,68.5999985z M498.1000061,88.8000031
		l-9.7999878,9.8000031l-9.7999878-9.8000031L488.3000183,79L498.1000061,88.8000031z M477.8999939,68.5999985l9.7000122,9.6999969
		l-9.7999878,9.8000031l-9.7000122-9.6999969L477.8999939,68.5999985z M457.3999939,89.0999985l10-10l9.7000122,9.6999969l-10,10
		L457.3999939,89.0999985z M457.2999878,110l9.7999878-9.8000031L476.8999634,110l-9.7999878,9.8000031L457.2999878,110z
		 M457.3999939,130.8999939l9.7000122-9.6999969L476.8999939,131l-9.7000122,9.6999969L457.3999939,130.8999939z
		 M457.3999939,151.8999939l9.7999878-9.8000031l9.7000122,9.6999969l-9.7999878,9.8000031L457.3999939,151.8999939z
		 M457.2999878,172.8000031L467.0999756,163l9.7999878,9.8000031l-9.7999878,9.8000031L457.2999878,172.8000031z
		 M457.2999878,193.8000031L467.0999756,184l10,10l-9.7999878,9.8000031L457.2999878,193.8000031z M457.6000061,214.8999939
		l9.7000122-9.6999969L477.1000061,215l-9.7000122,9.6999969L457.6000061,214.8999939z"/>
</g>
<path id="Windows" class="st4" d="M145,65h7.5v252.5H145V65z"/>
<g id="Walls">
	<polygon class="st5" points="142.5,210 142.5,245 167.5,245 167.5,240 368.1000061,240 368.1000061,235 167.5,235 167.5,210 	"/>
	<path class="st5" d="M562.5,388h-17.7000122h-5v5v12h-81.5v-91.3999939h-5V405H172.6000061v-90H142.5v105h18.8000031H172.5h405v-15
		v-95.8999939h-15V388z M544.7999878,405v-12H562.5v12H544.7999878z"/>
	<path class="st5" d="M142.5,60v15l0,0v65h30.1000061V75h273.6000061v160h-38.1000061v5h38.1000061h5h5.8999939v-5h-5.8999939V75
		H547v15.3000031h2.2000122H552h10.5V235h-65.7999878v5H562.5v19.1000061h15V75V60H142.5z M562.5,85.3000031H552V75h10.5V85.3000031
		z"/>
</g>
<path id="Doors" class="st4" d="M368.1000061,235c0-5.5,1-10,3-15s5-9.5,8.5-13c3.5-4,8-7,13-9s10-3,15.5-3v40 M497.1000061,235
	c0-5.5-1-10-3-15s-5-9.5-8.5-13c-3.5-4-8-7-13-9s-10-3-15.5-3v40 M577.5,259.1000061c6.5,0,12.5,1.5,18.5,4s12,6,16.5,11
	c4.5,4.5,8.5,10,11,16s4,12.5,4,19h-50"/>
<g id="Furniture_2_">
	<g>
		<g>
			<rect x="192.8999939" y="388.2000122" class="st6" width="76.1000061" height="4.3999939"/>
			<path class="st3" d="M268.5,388.7000122v3.3999939h-75.1000061v-3.3999939H268.5 M269.5,387.7000122h-77.1000061v5.3999939H269.5
				V387.7000122L269.5,387.7000122z"/>
		</g>
		<g>
			<rect x="192.8999939" y="391.7999878" class="st6" width="76.1000061" height="12.7000122"/>
			<path class="st3" d="M268.5,392.2999878V404h-75.1000061v-11.7000122H268.5 M269.5,391.2999878h-77.1000061V405H269.5
				V391.2999878L269.5,391.2999878z"/>
		</g>
		<rect x="204.3999939" y="399.2999878" class="st7" width="54.5" height="2.3999939"/>
		<path class="st7" d="M220.1000061,401.7000122h23.1000061l-2.1000061,2.8999939h-18.8999939L220.1000061,401.7000122z"/>
	</g>
	<g>
		<g>
			<rect x="254.1999969" y="218.1999969" class="st6" width="76.0999908" height="4.3999939"/>
			<path class="st3" d="M329.7999878,218.6999969v3.3999939h-75.1000061v-3.3999939H329.7999878 M330.7999878,217.6999969
				h-77.1000061v5.3999939h77.1000061V217.6999969L330.7999878,217.6999969z"/>
		</g>
		<g>
			<rect x="254.1999969" y="221.8000031" class="st6" width="76.0999908" height="12.6999969"/>
			<path class="st3" d="M329.7999878,222.3000031V234h-75.1000061v-11.6999969H329.7999878 M330.7999878,221.3000031h-77.1000061
				V235h77.1000061V221.3000031L330.7999878,221.3000031z"/>
		</g>
		<rect x="265.7000122" y="229.3000031" class="st7" width="54.5" height="2.3999939"/>
		<path class="st7" d="M281.3999939,231.6999969H304.5l-2.1000061,2.8999939H283.5L281.3999939,231.6999969z"/>
	</g>
	<g>
		<g>
			<rect x="252.1000061" y="75.5" class="st6" width="81.5" height="98.1999969"/>
			<path class="st3" d="M252.6000061,76h80.5v97.1999969h-80.5V76 M251.6000061,75v99.1999969h82.5V75H251.6000061L251.6000061,75z"
				/>
		</g>
		<rect x="294.8999939" y="82.0999985" class="st7" width="32.2000122" height="24.5"/>
		<rect x="258.7000122" y="82.0999985" class="st7" width="32.2000122" height="24.5"/>
		<polygon class="st8" points="323.2000122,96.5999985 299.8999939,90.3000031 293.6000061,114 316.8999939,120.3000031 		"/>
		<polygon class="st8" points="292,114 285.7000122,90.3000031 262.3999939,96.5999985 268.7000122,120.3000031 		"/>
		<g>
			<polygon class="st6" points="252.1000061,174.6999969 252.1000061,96.1999969 284.6000061,94.1999969 333.6000061,101.4000015 
				333.6000061,174.6999969 			"/>
			<path class="st3" d="M284.6000061,94.6999969l48.5,7.1999969v72.3000031h-80.5V97.4000015v-0.5999985L284.6000061,94.6999969
				 M284.6000061,93.6999969l-33,2.0999985v1.5999985v77.8000031h82.5v-73.5999985V101L284.6000061,93.6999969
				L284.6000061,93.6999969z"/>
		</g>
		<polyline class="st9" points="252.6999969,98.3000031 284.8999939,98.3000031 333.2000122,102.4000015 		"/>
	</g>
	<g>
		<rect x="322.7999878" y="337.1000061" class="st7" width="44.8999939" height="67.5"/>
		<rect x="335.6000061" y="337.1000061" class="st7" width="5" height="67.5"/>
	</g>
	<circle class="st7" cx="306.2000122" cy="347.2999878" r="10.6000061"/>
	<circle class="st7" cx="306.2000122" cy="374.2999878" r="10.6000061"/>
	<circle class="st7" cx="344.6000061" cy="322.1000061" r="10.6000061"/>
	<g id="Toilet_2_">
		<g id="Rectangle_21_2_">
			<rect x="546.2999878" y="163.8999939" class="st6" width="7.5" height="21.8999939"/>
			<path class="st3" d="M553.2999878,164.3999939v20.8999939h-6.5v-20.8999939H553.2999878 M554.2999878,163.3999939h-8.5
				v22.8999939h8.5V163.3999939L554.2999878,163.3999939z"/>
		</g>
		<path id="Rectangle_19_x5F_2_2_" class="st7" d="M531.2999878,166.6999969
			c-4.7000122-0.3000031-8.7000122,3.3999939-8.7000122,8.1999969l0,0c0,4.6999969,4,8.5,8.7000122,8.1999969l15-1v-14.3000031
			L531.2999878,166.6999969z"/>
		<path id="Rectangle_18_x5F_13_2_" class="st7" d="M531.5999756,168.3999939
			c-3.7999878-0.3000031-7.0999756,2.6999969-7.0999756,6.5l0,0c0,3.8000031,3.2999878,6.8999939,7.0999756,6.5L542,180.5
			v-11.1000061L531.5999756,168.3999939z"/>
		<ellipse id="Ellipse_6_x5F_2_2_" class="st7" cx="537.5999756" cy="174.8999939" rx="1.5999756" ry="1.6000061"/>
	</g>
	<g>
		<path class="st7" d="M232,275.2999878c0,1.5-1.1999969,2.7000122-2.6999969,2.7000122H189
			c-1.5,0-2.6999969-1.2000122-2.6999969-2.7000122v-26.5H232V275.2999878z"/>
		<path class="st7" d="M275.6000061,275.2999878c0,1.5-1.2000122,2.7000122-2.7000122,2.7000122h-38.3000031
			c-1.5,0-2.6999969-1.2000122-2.6999969-2.7000122v-26.5h43.7000122V275.2999878z"/>
		<polygon class="st7" points="275.6000061,280.2000122 275.6000061,248.8999939 230.8999939,248.8999939 186.1999969,248.8999939 
			186.1999969,280.2000122 177.8000031,280.2000122 177.8000031,240.3999939 284,240.3999939 284,280.2000122 		"/>
	</g>
	<g>
		<rect x="367.7000122" y="373.7000122" class="st6" width="57" height="30.7999878"/>
		<path class="st3" d="M424.2999878,374.2000122V404h-56v-29.7999878H424.2999878 M425.2999878,373.2000122h-58V405h58V373.2000122
			L425.2999878,373.2000122z"/>
	</g>
	<g id="Stove">
		<g id="Rectangle_25">
			<rect x="370.8999939" y="373.7000122" class="st6" width="30" height="30.7999878"/>
			<path class="st3" d="M400.3999939,374.2000122V404h-29v-29.7999878H400.3999939 M401.3999939,373.2000122h-31V405h31V373.2000122
				L401.3999939,373.2000122z"/>
		</g>
		<g id="Rectangle_28_x5F_3">
			<rect x="370.8999939" y="402.1000061" class="st6" width="30" height="2.5"/>
			<path class="st3" d="M400.3999939,402.6000061v1.5h-29v-1.5H400.3999939 M401.3999939,401.6000061h-31v3.5h31V401.6000061
				L401.3999939,401.6000061z"/>
		</g>
		<g id="Ellipse_7_x5F_4">
			<circle class="st6" cx="378.3999939" cy="394.1000061" r="3.5"/>
			<path class="st3" d="M378.3999939,391.1000061c1.6000061,0,3,1.2999878,3,3s-1.2999878,3-3,3c-1.6000061,0-3-1.2999878-3-3
				S376.7000122,391.1000061,378.3999939,391.1000061 M378.3999939,390.1000061c-2.2000122,0-4,1.7999878-4,4s1.7999878,4,4,4
				s4-1.7999878,4-4S380.6000061,390.1000061,378.3999939,390.1000061L378.3999939,390.1000061z"/>
		</g>
		<g id="Ellipse_9">
			<path class="st6" d="M378.3999939,386.6000061c-2.5,0-4.5-2-4.5-4.5s2-4.5,4.5-4.5s4.5,2,4.5,4.5
				S380.7999878,386.6000061,378.3999939,386.6000061z"/>
			<path class="st3" d="M378.3999939,378.2000122c2.2000122,0,4,1.7999878,4,4s-1.7999878,4-4,4s-4-1.7999878-4-4
				S376.2000122,378.2000122,378.3999939,378.2000122 M378.3999939,377.2000122c-2.7000122,0-5,2.2000122-5,5s2.2000122,5,5,5
				c2.7000122,0,5-2.2000122,5-5S381.1000061,377.2000122,378.3999939,377.2000122L378.3999939,377.2000122z"/>
		</g>
		<g id="Ellipse_10">
			<path class="st6" d="M392.2999878,398.6000061c-2.5,0-4.5-2-4.5-4.5s2-4.5,4.5-4.5s4.5,2,4.5,4.5
				C396.7999878,396.5,394.7999878,398.6000061,392.2999878,398.6000061z"/>
			<path class="st3" d="M392.2999878,390.1000061c2.2000122,0,4,1.7999878,4,4s-1.7999878,4-4,4s-4-1.7999878-4-4
				S390.1000061,390.1000061,392.2999878,390.1000061 M392.2999878,389.1000061c-2.7000122,0-5,2.2000122-5,5s2.2000122,5,5,5
				c2.7000122,0,5-2.2000122,5-5S395,389.1000061,392.2999878,389.1000061L392.2999878,389.1000061z"/>
		</g>
		<g id="Ellipse_8">
			<path class="st6" d="M392.2999878,384.6000061c-1.8999939,0-3.5-1.6000061-3.5-3.5s1.6000061-3.5,3.5-3.5s3.5,1.6000061,3.5,3.5
				S394.2000122,384.6000061,392.2999878,384.6000061z"/>
			<path class="st3" d="M392.2999878,378.2000122c1.6000061,0,3,1.2999878,3,3s-1.2999878,3-3,3s-3-1.2999878-3-3
				S390.7000122,378.2000122,392.2999878,378.2000122 M392.2999878,377.2000122c-2.2000122,0-4,1.7999878-4,4s1.7999878,4,4,4
				s4-1.7999878,4-4S394.5,377.2000122,392.2999878,377.2000122L392.2999878,377.2000122z"/>
		</g>
	</g>
	<g id="Rectangle_24_1_">
		<rect x="424.7999878" y="348.7000122" class="st6" width="28.1000061" height="55.7999878"/>
		<path class="st3" d="M452.2999878,349.2000122V404h-27.1000061v-54.7999878H452.2999878 M453.2999878,348.2000122h-29.1000061V405
			h29.1000061V348.2000122L453.2999878,348.2000122z"/>
	</g>
	<g id="Rectangle_27">
		<rect x="424.7999878" y="320.7999878" class="st6" width="28.1000061" height="28.1000061"/>
		<path class="st3" d="M452.2999878,321.2999878v27.1000061h-27.1000061v-27.1000061H452.2999878 M453.2999878,320.2999878
			h-29.1000061v29.1000061h29.1000061V320.2999878L453.2999878,320.2999878z"/>
	</g>
	<g id="Sink_3_1_">
		<rect id="Rectangle_28_x5F_2_1_" x="427.8999939" y="353" class="st7" width="21.7999878" height="34.5"/>
		<path id="Rectangle_29_x5F_2_1_" class="st7" d="M438.7999878,373.7999878L438.7999878,373.7999878
			c-4.5,0-8.2000122-3.7000122-8.2000122-8.2000122v-1.7999878c0-4.5,3.7000122-8.2000122,8.2000122-8.2000122l0,0
			c4.5,0,8.2000122,3.7000122,8.2000122,8.2000122v1.7999878C447,370.2000122,443.2999878,373.7999878,438.7999878,373.7999878z"/>
		<ellipse id="Ellipse_7_x5F_3_1_" class="st7" cx="442.3999939" cy="364.7999878" rx="1.6000061" ry="1.6000061"/>
		<path id="Vector_2_1_" class="st9" d="M447,385.6000061V376.5 M444.2999878,385.6000061V376.5 M441.5,385.6000061V376.5
			 M438.7999878,385.6000061V376.5 M436.1000061,385.6000061V376.5 M433.3999939,385.6000061V376.5 M430.6000061,385.6000061V376.5"
			/>
	</g>
	<path id="Vector_3" class="st9" d="M439.5,338.5v-7.2999878 M436.2999878,336.7000122l6.3999939-3.6000061
		 M442.7000122,336.7000122l-6.3999939-3.6000061"/>
	<g id="Rectangle_28_x5F_3_1_">
		<rect x="424.7999878" y="320.7999878" class="st6" width="2.5" height="28.1000061"/>
		<path class="st3" d="M426.7000122,321.2999878v27.1000061h-1.5v-27.1000061H426.7000122 M427.7000122,320.2999878h-3.5v29.1000061
			h3.5V320.2999878L427.7000122,320.2999878z"/>
	</g>
	<g id="Rectangle_27_1_">
		<rect x="543.2000122" y="312.7000122" class="st6" width="18.9000244" height="28.1000061"/>
		<path class="st3" d="M561.5,313.2000122v27.1000061h-17.9000244v-27.1000061H561.5 M562.5,312.2000122h-19.9000244v29.1000061
			H562.5V312.2000122L562.5,312.2000122z"/>
	</g>
	<g id="Rectangle_28_x5F_3_3_">
		<rect x="543.2000122" y="312.7000122" class="st6" width="2.5" height="28.1000061"/>
		<path class="st3" d="M545.0999756,313.2000122v27.1000061h-1.5v-27.1000061H545.0999756 M546.0999756,312.2000122h-3.5v29.1000061
			h3.5V312.2000122L546.0999756,312.2000122z"/>
	</g>
	<g>
		<line class="st9" x1="545.9000244" y1="312.7999878" x2="562.0999756" y2="340.7000122"/>
	</g>
	<g id="Rectangle_27_3_">
		<rect x="458.7999878" y="376.3999939" class="st6" width="80.5" height="28.1000061"/>
		<path class="st3" d="M538.7999878,376.8999939V404h-79.5v-27.1000061H538.7999878 M539.7999878,375.8999939h-81.5V405h81.5
			V375.8999939L539.7999878,375.8999939z"/>
	</g>
	<g id="Rectangle_28_x5F_3_5_">
		<rect x="458.7999878" y="376.3999939" class="st6" width="80.5" height="2.5"/>
		<path class="st3" d="M538.7999878,376.8999939v1.5h-79.5v-1.5H538.7999878 M539.7999878,375.8999939h-81.5v3.5h81.5V375.8999939
			L539.7999878,375.8999939z"/>
	</g>
	<g>
		<line class="st9" x1="538.0999756" y1="380.7000122" x2="459.7000122" y2="404.3999939"/>
	</g>
	<g>
		<g>
			<rect x="451.7000122" y="75.5" class="st6" width="94.7999878" height="36.3000031"/>
			<path class="st3" d="M546,76v35.3000031h-93.7999878V76H546 M547,75h-95.7999878v37.3000031H547V75L547,75z"/>
		</g>
		<g>
			<g>
				<path class="st10" d="M535.5999756,93.5999985C535.5999756,86.6999969,529.6999512,81.4000015,523,82
					c-7.5,0.6999969-16.8999939,1.3000031-23.8999939,1.3000031c-6.8999939,0-16.2999878-0.6999969-23.8999939-1.3000031
					c-6.7999878-0.5999985-12.6000061,4.8000031-12.6000061,11.5999985c0,6.8000031,5.8999939,12.1999969,12.6000061,11.5999985
					c7.5-0.6999969,16.8999939-1.3000031,23.8999939-1.3000031c6.8999939,0,16.3000183,0.6999969,23.8999939,1.3000031
					C529.7000122,105.8000031,535.5999756,100.4000015,535.5999756,93.5999985z"/>
				<ellipse class="st10" cx="523.7000122" cy="93.5999985" rx="1.5999756" ry="1.5999985"/>
			</g>
		</g>
	</g>
	<g>
		<rect x="553.7999878" y="144.8000031" class="st6" width="8.2000122" height="55.5999908"/>
		<path class="st3" d="M561.5,145.3000031v54.5999908h-7.2000122v-54.6000061H561.5 M562.5,144.3000031h-9.2000122v56.5999908H562.5
			V144.3000031L562.5,144.3000031z"/>
	</g>
	<g id="Sink_2">
		<g id="Rectangle_16_x5F_11">
			<rect x="541.5999756" y="111.6999969" class="st6" width="20.5" height="33"/>
			<path class="st3" d="M561.5,112.1999969v32H542v-32H561.5 M562.5,111.1999969H541v34h21.5V111.1999969L562.5,111.1999969z"/>
		</g>
		<path id="Rectangle_19_x5F_5" class="st7" d="M551.7999878,117L551.7999878,117
			c-3.5999756,0-6.5999756,2.9000015-6.5999756,6.5999985V133c0,3.6000061,2.9000244,6.6000061,6.5999756,6.6000061l0,0
			c3.5999756,0,6.5999756-2.8999939,6.5999756-6.6000061v-9.4000015C558.4000244,119.9000015,555.4000244,117,551.7999878,117z"/>
		<circle id="Ellipse_7_x5F_2" class="st7" cx="554.7999878" cy="128.3000031" r="1.5999899"/>
	</g>
	<g>
		<g>
			<rect x="540.5999756" y="202.6999969" class="st6" width="21.4000244" height="31.8000031"/>
			<path class="st3" d="M561.5,203.1999969V234h-20.4000244v-30.8000031H561.5 M562.5,202.1999969h-22.4000244V235H562.5
				V202.1999969L562.5,202.1999969z"/>
		</g>
		<g>
			<path class="st6" d="M551.2999878,225.3999939c-3.7999878,0-6.7999878-3.1000061-6.7999878-6.8000031
				s3.0999756-6.8000031,6.7999878-6.8000031c3.7999878,0,6.7999878,3.1000061,6.7999878,6.8000031
				S555.0999756,225.3999939,551.2999878,225.3999939z"/>
			<path class="st3" d="M551.2999878,212.3000031c3.5,0,6.2999878,2.8000031,6.2999878,6.3000031
				s-2.7999878,6.3000031-6.2999878,6.3000031S545,222.1000061,545,218.6000061S547.7999878,212.3000031,551.2999878,212.3000031
				 M551.2999878,211.3000031c-4,0-7.2999878,3.3000031-7.2999878,7.3000031s3.2999878,7.3000031,7.2999878,7.3000031
				s7.2999878-3.3000031,7.2999878-7.3000031S555.2999878,211.3000031,551.2999878,211.3000031L551.2999878,211.3000031z"/>
		</g>
	</g>
	<g id="Rectangle_27_2_">
		<rect x="411" y="75.5" class="st6" width="34.7000122" height="159"/>
		<path class="st3" d="M445.2000122,76v158H411.5V76H445.2000122 M446.2000122,75H410.5v160h35.7000122V75L446.2000122,75z"/>
	</g>
	<g id="Rectangle_28_x5F_3_7_">
		<rect x="411" y="75.5" class="st6" width="2.5" height="159"/>
		<path class="st3" d="M413,76v158h-1.5V76H413 M414,75h-3.5v160h3.5V75L414,75z"/>
	</g>
	<g>
		<line class="st9" x1="413.7000122" y1="75.5999985" x2="445.2999878" y2="234.1999969"/>
	</g>
</g>
<g id="Numbers_1_">
	<g>
		<path class="st5" d="M362.2000122,149.8999939l1.8999939-1.6000061h0.7999878v6.6999969h-1v-5.3000031l-1.2000122,0.8999939
			L362.2000122,149.8999939z"/>
		<path class="st5" d="M368.8999939,150.6000061c0.6000061,0,1.1000061,0.1999969,1.5,0.6000061
			c0.3999939,0.3999939,0.6000061,0.8999939,0.6000061,1.5s-0.2000122,1.1999969-0.7000122,1.6000061
			c-0.3999939,0.3999939-1,0.6000061-1.7000122,0.6000061c-0.7999878,0-1.3999939-0.3000031-1.7999878-0.8999939
			c-0.3999939-0.6000061-0.6000061-1.3999939-0.6000061-2.3000031c0-0.6000061,0.1000061-1.1999969,0.2999878-1.8000031
			c0.2000122-0.5,0.5-1,0.8999939-1.3000031c0.3999939-0.3999939,1-0.5,1.6000061-0.5
			c0.7000122,0,1.2999878,0.1999969,1.7000122,0.6000061l-0.3999939,0.8000031
			c-0.3999939-0.3000031-0.7999878-0.3999939-1.2000122-0.3999939c-0.3999939,0-0.7000122,0.1000061-1,0.3999939
			c-0.5,0.5-0.7999878,1.1999969-0.7999878,2.1000061c0.2000122-0.3000031,0.3999939-0.5,0.7000122-0.6999969
			S368.5,150.6000061,368.8999939,150.6000061z M368.7000122,154.1000061c0.3999939,0,0.7000122-0.1000061,0.8999939-0.3999939
			C369.8000183,153.4000092,370,153.1000061,370,152.8000183c0-0.3999939-0.1000061-0.6999969-0.3999939-0.8999939
			c-0.2000122-0.1999969-0.5-0.3999939-0.8999939-0.3999939S368,151.6000366,367.8000183,151.9000244
			c-0.2000122,0.1999969-0.3999939,0.6000061-0.3999939,0.8999939c0,0.3999939,0.1000061,0.6999969,0.3999939,0.8999939
			C368,153.8999939,368.2999878,154.1000061,368.7000122,154.1000061z"/>
		<path class="st5" d="M372.3999939,155c-0.2000122,0-0.2999878-0.1000061-0.5-0.1999969
			c-0.1000061-0.1000061-0.2000122-0.3000031-0.2000122-0.5s0.1000061-0.3000031,0.2000122-0.3999939
			c0.1000061-0.1000061,0.2999878-0.1999969,0.5-0.1999969s0.2999878,0.1000061,0.3999939,0.1999969
			C372.8999939,154.0000153,373,154.2000122,373,154.3000031c0,0.1999969-0.1000061,0.3000031-0.2000122,0.5
			C372.7000122,155,372.6000061,155,372.3999939,155z"/>
		<path class="st5" d="M373.1000061,149.8999939L375,148.2999878h0.7999878v6.6999969h-1v-5.3000031l-1.2000122,0.8999939
			L373.1000061,149.8999939z"/>
	</g>
	<g>
		<path class="st5" d="M490,150.3999939c0.6000061,0,1.2000122,0.1999969,1.6000061,0.6000061
			c0.3999939,0.3999939,0.6000061,0.8999939,0.6000061,1.6000061c0,0.6999969-0.2000122,1.1999969-0.7000122,1.6000061
			c-0.3999939,0.3999939-1,0.6000061-1.7000122,0.6000061c-0.7999878,0-1.5-0.3000031-2.2000122-0.8000031l0.5-0.8000031
			c0.6000061,0.3999939,1.1000061,0.6000061,1.7000122,0.6000061c0.3999939,0,0.7000122-0.1000061,1-0.3999939
			c0.2999878-0.1999969,0.3999939-0.5,0.3999939-0.8999939s-0.1000061-0.6999969-0.3999939-0.8999939
			c-0.2000122-0.1999969-0.6000061-0.3999939-1-0.3999939c-0.5,0-0.8999939,0.1999969-1.2000122,0.5l-0.6000061-0.3999939
			l0.3999939-3.3000031h3.3999939v0.8999939h-2.6000061l-0.2000122,1.6000061
			C489.2999878,150.3999939,489.7000122,150.3999939,490,150.3999939z"/>
		<path class="st5" d="M493.7000122,154.8000031c-0.2000122,0-0.2999878-0.1000061-0.5-0.1999969S493,154.3000031,493,154.1000061
			s0.1000061-0.3000031,0.2000122-0.3999939s0.2999878-0.1999969,0.5-0.1999969s0.2999878,0.1000061,0.3999939,0.1999969
			s0.2000122,0.3000031,0.2000122,0.3999939c0,0.1999969-0.1000061,0.3000031-0.2000122,0.5
			S493.8999939,154.8000031,493.7000122,154.8000031z"/>
		<path class="st5" d="M497.3999939,147.8999939c0.7999878,0,1.3999939,0.3000031,1.7999878,0.8999939
			c0.3999939,0.6000061,0.6000061,1.3999939,0.6000061,2.3000031c0,0.5-0.1000061,1-0.2000122,1.3999939
			s-0.2999878,0.8000031-0.5,1.1999969c-0.2000122,0.3000031-0.5,0.6000061-0.8999939,0.8000031
			s-0.7999878,0.3000031-1.2000122,0.3000031c-0.7000122,0-1.2999878-0.1999969-1.7999878-0.6000061l0.3999939-0.8000031
			c0.3999939,0.3000031,0.8999939,0.5,1.2999878,0.5c0.6000061,0,1-0.1999969,1.2999878-0.6999969s0.5-1,0.5-1.6999969
			c-0.2000122,0.3000031-0.3999939,0.5-0.7000122,0.6000061s-0.6000061,0.1999969-1,0.1999969
			c-0.6000061,0-1.1000061-0.1999969-1.5-0.6000061c-0.3999939-0.3999939-0.6000061-0.8999939-0.6000061-1.5
			s0.2000122-1.1999969,0.6000061-1.6000061C496.2000122,148.1000061,496.7999878,147.8999939,497.3999939,147.8999939z
			 M498.7000122,150.1000061c0-0.3999939-0.1000061-0.6999969-0.3999939-0.8999939
			c-0.2000122-0.3000031-0.5-0.3999939-0.8999939-0.3999939s-0.7000122,0.1000061-0.8999939,0.3999939
			c-0.2000122,0.3000031-0.3999939,0.6000061-0.3999939,0.8999939c0,0.3999939,0.1000061,0.6999969,0.3999939,0.8999939
			c0.2000122,0.1999969,0.5,0.3999939,0.8999939,0.3999939s0.7000122-0.1000061,0.8999939-0.3999939
			C498.6000061,150.8000031,498.7000122,150.5,498.7000122,150.1000061z"/>
	</g>
	<g>
		<path class="st5" d="M520.2000122,262.1000061c0.5999756,0,1.0999756,0.2000122,1.5,0.6000061s0.5999756,0.8999939,0.5999756,1.5
			s-0.2000122,1.2000122-0.7000122,1.6000061c-0.4000244,0.3999939-1,0.6000061-1.7000122,0.6000061
			c-0.7999878,0-1.4000244-0.2999878-1.7999878-0.8999939C517.6999512,264.9000244,517.5,264.1000366,517.5,263.2000427
			c0-0.6000061,0.0999756-1.2000122,0.2999878-1.7999878c0.2000122-0.5,0.5-1,0.9000244-1.2999878
			c0.4000244-0.3999939,1-0.5,1.5999756-0.5c0.7000122,0,1.2999878,0.2000122,1.7000122,0.6000061l-0.4000244,0.7999878
			c-0.4000244-0.2999878-0.7999878-0.3999939-1.2000122-0.3999939s-0.7000122,0.1000061-1,0.3999939
			c-0.5,0.5-0.7999878,1.2000122-0.7999878,2.1000061c0.2000122-0.2999878,0.4000244-0.5,0.7000122-0.7000122
			S519.7999878,262.1000061,520.2000122,262.1000061z M520,265.6000061c0.4000244,0,0.7000122-0.1000061,0.9000244-0.3999939
			s0.4000244-0.6000061,0.4000244-0.8999939c0-0.3999939-0.0999756-0.7000122-0.4000244-0.8999939
			c-0.2000122-0.2000122-0.5-0.3999939-0.9000244-0.3999939s-0.7000122,0.1000061-0.9000244,0.3999939
			c-0.2000122,0.2000122-0.4000244,0.6000061-0.4000244,0.8999939c0,0.3999939,0.0999756,0.7000122,0.4000244,0.8999939
			C519.2999878,265.3999939,519.5999756,265.6000061,520,265.6000061z"/>
		<path class="st5" d="M523.7000122,266.5c-0.2000122,0-0.2999878-0.1000061-0.5-0.2000122
			C523.1000366,266.1999817,523,266,523,265.7999878s0.0999756-0.2999878,0.2000122-0.3999939
			c0.0999756-0.1000061,0.2999878-0.2000122,0.5-0.2000122s0.2999878,0.1000061,0.4000244,0.2000122
			c0.0999756,0.1000061,0.2000122,0.2999878,0.2000122,0.3999939c0,0.2000122-0.0999756,0.2999878-0.2000122,0.5
			S523.9000244,266.5,523.7000122,266.5z"/>
		<path class="st5" d="M527.2000122,266.5c-0.7000122,0-1.4000244-0.2000122-2.0999756-0.7000122l0.5-0.7999878
			c0.5999756,0.3999939,1.0999756,0.5,1.5999756,0.5c0.4000244,0,0.7000122-0.1000061,0.9000244-0.2999878
			c0.2000122-0.2000122,0.2999878-0.3999939,0.2999878-0.7999878S528.3000488,263.8000183,528,263.6000366
			c-0.2000122-0.2000122-0.5-0.2999878-0.9000244-0.2999878h-0.7999878v-0.8999939h0.7999878
			c0.2999878,0,0.5999756-0.1000061,0.7999878-0.2999878c0.2000122-0.2000122,0.2999878-0.3999939,0.2999878-0.7000122
			c0-0.2999878-0.0999756-0.5-0.2999878-0.7000122s-0.5-0.2999878-0.7999878-0.2999878
			c-0.4000244,0-0.9000244,0.2000122-1.4000244,0.6000061l-0.5-0.7000122c0.2000122-0.2000122,0.5-0.3999939,0.9000244-0.6000061
			c0.4000244-0.1000061,0.7000122-0.2000122,1.0999756-0.2000122c0.5999756,0,1.0999756,0.2000122,1.5,0.5
			s0.5999756,0.7999878,0.5999756,1.2000122c0,0.3999939-0.0999756,0.7000122-0.2999878,0.8999939
			c-0.2000122,0.2999878-0.5,0.5-0.7999878,0.6000061l0,0c0.4000244,0.1000061,0.7000122,0.2999878,1,0.6000061
			c0.2000122,0.2999878,0.2999878,0.6000061,0.2999878,1.1000061c0,0.6000061-0.2000122,1-0.5999756,1.3999939
			C528.5,266.2999878,527.9000244,266.5,527.2000122,266.5z"/>
	</g>
	<g>
		<path class="st5" d="M282.2000122,312.5l1.8999939-1.6000061h0.7999878v6.7000122h-1v-5.2999878l-1.2000122,0.8999939
			L282.2000122,312.5z"/>
		<path class="st5" d="M285.8999939,311.7999878v-0.8999939h4.2000122v0.7000122l-2.5,6H286.5l2.5-5.7000122h-3.1000061V311.7999878
			z"/>
		<path class="st5" d="M290.7000122,317.6000061c-0.2000122,0-0.2999878-0.1000061-0.5-0.2000122
			c-0.1000061-0.1000061-0.2000122-0.2999878-0.2000122-0.5s0.1000061-0.2999878,0.2000122-0.3999939
			s0.2999878-0.2000122,0.5-0.2000122S291,316.3999939,291.1000061,316.5s0.2000122,0.2999878,0.2000122,0.3999939
			c0,0.2000122-0.1000061,0.2999878-0.2000122,0.5S290.8999939,317.6000061,290.7000122,317.6000061z"/>
		<path class="st5" d="M294.7000122,313.2000122c0.6000061,0,1.1000061,0.2000122,1.5,0.6000061s0.6000061,0.8999939,0.6000061,1.5
			s-0.2000122,1.2000122-0.7000122,1.6000061c-0.3999939,0.3999939-1,0.6000061-1.7000122,0.6000061
			c-0.7999878,0-1.3999939-0.2999878-1.7999878-0.8999939S292,315.2000427,292,314.3000488
			c0-0.6000061,0.1000061-1.2000122,0.2999878-1.7999878c0.2000122-0.5,0.5-1,0.8999939-1.2999878
			c0.3999939-0.3999939,1-0.5,1.6000061-0.5c0.7000122,0,1.2999878,0.2000122,1.7000122,0.6000061l-0.3999939,0.7999878
			c-0.3999939-0.2999878-0.7999878-0.3999939-1.2000122-0.3999939c-0.3999939,0-0.7000122,0.1000061-1,0.3999939
			c-0.5,0.5-0.7999878,1.2000122-0.7999878,2.1000061c0.1000061-0.2999878,0.3999939-0.5,0.7000122-0.7000122
			S294.2999878,313.2000122,294.7000122,313.2000122z M294.5,316.7000122c0.3999939,0,0.7000122-0.1000061,0.8999939-0.3999939
			c0.2000122-0.2999878,0.3999939-0.6000061,0.3999939-0.8999939c0-0.3999939-0.1000061-0.7000122-0.3999939-0.8999939
			c-0.2000122-0.2000122-0.5-0.3999939-0.8999939-0.3999939s-0.7000122,0.1000061-0.8999939,0.3999939
			c-0.2000122,0.2000122-0.3999939,0.6000061-0.3999939,0.8999939c0,0.3999939,0.1000061,0.7000122,0.3999939,0.8999939
			C293.7999878,316.5,294.2000122,316.7000122,294.5,316.7000122z"/>
	</g>
</g>
<g id="street_anchors" class="st11">
	<rect id="street_x5F_anchor_x5F_01" x="102.5217361" y="235" class="st12" width="10" height="10"/>
</g>
</svg>
