<?xml version="1.0" encoding="utf-8"?>
<!-- Generator: Adobe Illustrator 24.2.0, SVG Export Plug-In . SVG Version: 6.00 Build 0)  -->
<!DOCTYPE svg PUBLIC "-//W3C//DTD SVG 1.1//EN" "http://www.w3.org/Graphics/SVG/1.1/DTD/svg11.dtd" [
	<!ENTITY ns_extend "http://ns.adobe.com/Extensibility/1.0/">
	<!ENTITY ns_ai "http://ns.adobe.com/AdobeIllustrator/10.0/">
	<!ENTITY ns_graphs "http://ns.adobe.com/Graphs/1.0/">
	<!ENTITY ns_vars "http://ns.adobe.com/Variables/1.0/">
	<!ENTITY ns_imrep "http://ns.adobe.com/ImageReplacement/1.0/">
	<!ENTITY ns_sfw "http://ns.adobe.com/SaveForWeb/1.0/">
	<!ENTITY ns_custom "http://ns.adobe.com/GenericCustomNamespace/1.0/">
	<!ENTITY ns_adobe_xpath "http://ns.adobe.com/XPath/1.0/">
]>
<svg version="1.1" id="_x31__x5F_2" xmlns:x="&ns_extend;" xmlns:i="&ns_ai;" xmlns:graph="&ns_graphs;"
	 xmlns="http://www.w3.org/2000/svg" xmlns:xlink="http://www.w3.org/1999/xlink" x="0px" y="0px" viewBox="0 0 720 480"
	 style="enable-background:new 0 0 720 480;" xml:space="preserve">
<style type="text/css">
	.st0{fill:#DBD4CA;}
	.st1{clip-path:url(#SVGID_2_);}
	.st2{fill:none;stroke:#C49F8A;stroke-miterlimit:10;}
	.st3{opacity:0.3;clip-path:url(#SVGID_4_);}
	.st4{opacity:0.7;fill:#C49F8A;enable-background:new    ;}
	.st5{clip-path:url(#SVGID_6_);}
	.st6{opacity:0.3;clip-path:url(#SVGID_6_);}
	.st7{opacity:0.7;fill:#C49F8A;}
	.st8{fill:none;stroke:#565440;}
	.st9{fill:#565440;}
	.st10{fill:#E9E4DC;}
	.st11{fill:#C49F8A;}
	.st12{fill:#E9E4DC;stroke:#C49F8A;}
	.st13{fill:#E9E4DC;stroke:#C49F8A;stroke-width:0.9999701;stroke-miterlimit:3.999681;}
	.st14{fill:none;stroke:#C49F8A;}
	.st15{fill:#E9E4DC;stroke:#C49F8A;stroke-linejoin:round;}
	.st16{enable-background:new    ;}
	.st17{opacity:0;}
	.st18{fill:#3F3F3F;fill-opacity:0;}
</style>
<metadata>
	<sfw  xmlns="&ns_sfw;">
		<slices></slices>
		<sliceSourceBounds  bottomLeftOrigin="true" height="673.5734863" width="678.8734741" x="84.9633255" y="-139.9581604">
			</sliceSourceBounds>
	</sfw>
</metadata>
<polygon id="Floor" class="st0" points="463.8999939,220.5999908 463.8999939,65.9999771 256.2999878,66.0999756
	256.2999878,418.6999817 415.5,418.6999817 415.5,222.1999817 "/>
<g id="Wet_Floor">
	<g id="Wet_Floor_1_">
		<g>
			<defs>
				<rect id="SVGID_1_" x="368.6000061" y="374.6625977" width="42.9276123" height="41.2453918"/>
			</defs>
			<clipPath id="SVGID_2_">
				<use xlink:href="#SVGID_1_"  style="overflow:visible;"/>
			</clipPath>
			<g class="st1">
				<g>
					<line class="st2" x1="106.9382095" y1="290.6427612" x2="440.4214172" y2="-42.8404388"/>
					<line class="st2" x1="96.516861" y1="280.221405" x2="430.000061" y2="-53.2617874"/>
					<line class="st2" x1="117.3595505" y1="301.0641174" x2="450.8427429" y2="-32.4190903"/>
					<line class="st2" x1="127.780899" y1="311.4854431" x2="461.2640991" y2="-21.9977417"/>
					<line class="st2" x1="138.2022552" y1="321.9067993" x2="471.6854553" y2="-11.5763931"/>
					<line class="st2" x1="148.6235962" y1="332.3281555" x2="482.1068115" y2="-1.1550452"/>
					<line class="st2" x1="159.0449524" y1="342.7495117" x2="492.5281372" y2="9.2663031"/>
					<line class="st2" x1="169.4662933" y1="353.1708374" x2="502.9494934" y2="19.6876507"/>
					<line class="st2" x1="179.8876495" y1="363.5921936" x2="513.3708496" y2="30.1089993"/>
					<line class="st2" x1="190.3089905" y1="374.0135498" x2="523.7921753" y2="40.5303497"/>
					<line class="st2" x1="179.8876495" y1="363.5921936" x2="513.3708496" y2="30.1089993"/>
					<line class="st2" x1="200.7303467" y1="384.434906" x2="534.213562" y2="50.9516983"/>
					<line class="st2" x1="211.1516876" y1="394.8562317" x2="544.6348877" y2="61.3730469"/>
					<line class="st2" x1="221.5730438" y1="405.2775879" x2="555.0562134" y2="71.7943954"/>
					<line class="st2" x1="231.9943848" y1="415.6989441" x2="565.4776001" y2="82.215744"/>
					<line class="st2" x1="242.415741" y1="426.1203003" x2="575.8989258" y2="92.6370926"/>
					<line class="st2" x1="252.8370819" y1="436.541626" x2="586.3202515" y2="103.0584412"/>
					<line class="st2" x1="263.2584229" y1="446.9629822" x2="596.7416382" y2="113.4797897"/>
					<line class="st2" x1="273.6797791" y1="457.3843384" x2="607.1629639" y2="123.9011383"/>
					<line class="st2" x1="263.2584229" y1="446.9629822" x2="596.7416382" y2="113.4797897"/>
					<line class="st2" x1="284.1011353" y1="467.8056946" x2="617.5843506" y2="134.3224792"/>
					<line class="st2" x1="294.5224915" y1="478.2270203" x2="628.0056763" y2="144.7438354"/>
					<line class="st2" x1="304.9438171" y1="488.6483765" x2="638.427002" y2="155.1651764"/>
					<line class="st2" x1="315.3651733" y1="499.0697327" x2="648.8483887" y2="165.5865326"/>
					<line class="st2" x1="325.7865295" y1="509.4910889" x2="659.2697144" y2="176.0078735"/>
					<line class="st2" x1="336.2078552" y1="519.9124146" x2="669.69104" y2="186.4292297"/>
					<line class="st2" x1="346.6292114" y1="530.3338013" x2="680.1124268" y2="196.8505707"/>
					<line class="st2" x1="357.0505676" y1="540.755127" x2="690.5337524" y2="207.2719269"/>
					<line class="st2" x1="346.6292114" y1="530.3338013" x2="680.1124268" y2="196.8505707"/>
					<line class="st2" x1="367.4719238" y1="551.1764526" x2="700.9551392" y2="217.6932678"/>
					<line class="st2" x1="377.8932495" y1="561.5978394" x2="711.3764648" y2="228.114624"/>
					<line class="st2" x1="388.3146057" y1="572.019165" x2="721.7977905" y2="238.535965"/>
					<line class="st2" x1="398.7359619" y1="582.4404907" x2="732.2191772" y2="248.9573212"/>
					<line class="st2" x1="409.1573181" y1="592.8618774" x2="742.6405029" y2="259.3786621"/>
					<line class="st2" x1="419.5786438" y1="603.2832031" x2="753.0618286" y2="269.8000183"/>
					<line class="st2" x1="430" y1="613.7045288" x2="763.4832153" y2="280.2213745"/>
				</g>
				<g>
					<line class="st2" x1="440.4212952" y1="603.2830811" x2="106.9382477" y2="269.8000183"/>
					<line class="st2" x1="429.999939" y1="613.7044067" x2="96.5168991" y2="280.221344"/>
					<line class="st2" x1="450.8426514" y1="592.8616943" x2="117.3595963" y2="259.3786621"/>
					<line class="st2" x1="461.2640076" y1="582.4403687" x2="127.7809448" y2="248.9573059"/>
					<line class="st2" x1="471.6853333" y1="572.0189819" x2="138.202301" y2="238.535965"/>
					<line class="st2" x1="482.1066895" y1="561.5976563" x2="148.623642" y2="228.1146088"/>
					<line class="st2" x1="492.5280457" y1="551.1763306" x2="159.0449829" y2="217.6932678"/>
					<line class="st2" x1="502.9494019" y1="540.7549438" x2="169.4663391" y2="207.2719116"/>
					<line class="st2" x1="513.3707275" y1="530.3336182" x2="179.8876801" y2="196.8505707"/>
					<line class="st2" x1="523.7921143" y1="519.9122925" x2="190.3090363" y2="186.4292145"/>
					<line class="st2" x1="513.3707275" y1="530.3336182" x2="179.8876801" y2="196.8505707"/>
					<line class="st2" x1="534.2134399" y1="509.4909363" x2="200.7303772" y2="176.0078735"/>
					<line class="st2" x1="544.6347656" y1="499.0695801" x2="211.1517334" y2="165.5865173"/>
					<line class="st2" x1="555.0561523" y1="488.6482239" x2="221.5730743" y2="155.1651764"/>
					<line class="st2" x1="565.477478" y1="478.2268677" x2="231.9944305" y2="144.7438202"/>
					<line class="st2" x1="575.8988037" y1="467.805542" x2="242.4157715" y2="134.3224792"/>
					<line class="st2" x1="586.3201904" y1="457.3841858" x2="252.8371277" y2="123.9011307"/>
					<line class="st2" x1="596.7415161" y1="446.9628296" x2="263.2584839" y2="113.4797821"/>
					<line class="st2" x1="607.1629028" y1="436.5414734" x2="273.6798096" y2="103.0584335"/>
					<line class="st2" x1="596.7415161" y1="446.9628296" x2="263.2584839" y2="113.4797821"/>
					<line class="st2" x1="617.5842285" y1="426.1201477" x2="284.1011658" y2="92.637085"/>
					<line class="st2" x1="628.0055542" y1="415.6987915" x2="294.522522" y2="82.2157364"/>
					<line class="st2" x1="638.4269409" y1="405.2774353" x2="304.9438782" y2="71.7943878"/>
					<line class="st2" x1="648.8482666" y1="394.8560791" x2="315.3652039" y2="61.3730392"/>
					<line class="st2" x1="659.2695923" y1="384.4347534" x2="325.7865601" y2="50.9516907"/>
					<line class="st2" x1="669.690979" y1="374.0133972" x2="336.2079163" y2="40.5303421"/>
					<line class="st2" x1="680.1123047" y1="363.592041" x2="346.6292725" y2="30.1089935"/>
					<line class="st2" x1="690.5336914" y1="353.1706848" x2="357.0505981" y2="19.687645"/>
					<line class="st2" x1="680.1123047" y1="363.592041" x2="346.6292725" y2="30.1089935"/>
					<line class="st2" x1="700.9550171" y1="342.7493591" x2="367.4719543" y2="9.2662964"/>
					<line class="st2" x1="711.3763428" y1="332.3280029" x2="377.8933105" y2="-1.1550524"/>
					<line class="st2" x1="721.7977295" y1="321.9066467" x2="388.3146667" y2="-11.5764008"/>
					<line class="st2" x1="732.2190552" y1="311.4852905" x2="398.7359924" y2="-21.9977493"/>
					<line class="st2" x1="742.6403809" y1="301.0639648" x2="409.1573486" y2="-32.4190979"/>
					<line class="st2" x1="753.0617676" y1="290.6426086" x2="419.5787048" y2="-42.8404465"/>
					<line class="st2" x1="763.4830933" y1="280.2212524" x2="430.000061" y2="-53.261795"/>
				</g>
			</g>
		</g>
		<g>
			<defs>
				<rect id="SVGID_3_" x="368.6000061" y="374.6625977" width="42.9276123" height="41.2453918"/>
			</defs>
			<clipPath id="SVGID_4_">
				<use xlink:href="#SVGID_3_"  style="overflow:visible;"/>
			</clipPath>
			<g class="st3">
				<rect x="268.9205322" y="108.7204971" class="st4" width="322.1589355" height="322.1589355"/>
			</g>
		</g>
	</g>
	<g id="Wet_Floor_2_">
		<defs>
			<rect id="SVGID_5_" x="399.8956909" y="180.7999573" width="58.6380386" height="41.3043365"/>
		</defs>
		<clipPath id="SVGID_6_">
			<use xlink:href="#SVGID_5_"  style="overflow:visible;"/>
		</clipPath>
		<g class="st5">
			<g>
				<line class="st2" x1="95.7382278" y1="296.5428162" x2="429.2214355" y2="-36.9403839"/>
				<line class="st2" x1="85.3168793" y1="286.12146" x2="418.8000793" y2="-47.3617325"/>
				<line class="st2" x1="106.1595688" y1="306.9641724" x2="439.6427612" y2="-26.5190353"/>
				<line class="st2" x1="116.5809174" y1="317.385498" x2="450.0641174" y2="-16.0976868"/>
				<line class="st2" x1="127.0022659" y1="327.8068542" x2="460.4854736" y2="-5.6763387"/>
				<line class="st2" x1="137.4236145" y1="338.2282104" x2="470.9068298" y2="4.7450099"/>
				<line class="st2" x1="147.8449707" y1="348.6495667" x2="481.3281555" y2="15.166358"/>
				<line class="st2" x1="158.2663116" y1="359.0708923" x2="491.7495117" y2="25.5877056"/>
				<line class="st2" x1="168.6876678" y1="369.4922485" x2="502.1708679" y2="36.0090561"/>
				<line class="st2" x1="179.1090088" y1="379.9136047" x2="512.5922241" y2="46.4304047"/>
				<line class="st2" x1="168.6876678" y1="369.4922485" x2="502.1708679" y2="36.0090561"/>
				<line class="st2" x1="189.530365" y1="390.3349609" x2="523.0135498" y2="56.8517532"/>
				<line class="st2" x1="199.9517059" y1="400.7562866" x2="533.4348755" y2="67.2731018"/>
				<line class="st2" x1="210.3730621" y1="411.1776428" x2="543.8562622" y2="77.6944504"/>
				<line class="st2" x1="220.7944031" y1="421.598999" x2="554.2775879" y2="88.115799"/>
				<line class="st2" x1="231.2157593" y1="432.0203552" x2="564.6989746" y2="98.5371475"/>
				<line class="st2" x1="241.6371002" y1="442.4416809" x2="575.1203003" y2="108.9584961"/>
				<line class="st2" x1="252.0584564" y1="452.8630371" x2="585.541626" y2="119.3798447"/>
				<line class="st2" x1="262.4797974" y1="463.2843933" x2="595.9630127" y2="129.8011932"/>
				<line class="st2" x1="252.0584564" y1="452.8630371" x2="585.541626" y2="119.3798447"/>
				<line class="st2" x1="272.9011536" y1="473.7057495" x2="606.3843384" y2="140.2225342"/>
				<line class="st2" x1="283.3225098" y1="484.1270752" x2="616.8056641" y2="150.6438904"/>
				<line class="st2" x1="293.7438354" y1="494.5484314" x2="627.2270508" y2="161.0652313"/>
				<line class="st2" x1="304.1651917" y1="504.9697876" x2="637.6483765" y2="171.4865875"/>
				<line class="st2" x1="314.5865479" y1="515.3911133" x2="648.0697632" y2="181.9079285"/>
				<line class="st2" x1="325.0078735" y1="525.8125" x2="658.4910889" y2="192.3292847"/>
				<line class="st2" x1="335.4292297" y1="536.2338257" x2="668.9124146" y2="202.7506256"/>
				<line class="st2" x1="345.8505859" y1="546.6551514" x2="679.3338013" y2="213.1719818"/>
				<line class="st2" x1="335.4292297" y1="536.2338257" x2="668.9124146" y2="202.7506256"/>
				<line class="st2" x1="356.2719421" y1="557.0765381" x2="689.755127" y2="223.5933228"/>
				<line class="st2" x1="366.6932678" y1="567.4978638" x2="700.1764526" y2="234.014679"/>
				<line class="st2" x1="377.114624" y1="577.9192505" x2="710.5978394" y2="244.4360199"/>
				<line class="st2" x1="387.5359802" y1="588.3405762" x2="721.019165" y2="254.8573761"/>
				<line class="st2" x1="397.9573364" y1="598.7619019" x2="731.4405518" y2="265.278717"/>
				<line class="st2" x1="408.3786621" y1="609.1832886" x2="741.8618774" y2="275.7000732"/>
				<line class="st2" x1="418.8000183" y1="619.6046143" x2="752.2832031" y2="286.1214294"/>
			</g>
			<g>
				<line class="st2" x1="429.2213135" y1="609.1831055" x2="95.738266" y2="275.7000732"/>
				<line class="st2" x1="418.7999573" y1="619.6044312" x2="85.3169174" y2="286.1213989"/>
				<line class="st2" x1="439.6426697" y1="598.7617798" x2="106.1596146" y2="265.278717"/>
				<line class="st2" x1="450.0640259" y1="588.3403931" x2="116.5809631" y2="254.8573608"/>
				<line class="st2" x1="460.4853516" y1="577.9190674" x2="127.0023117" y2="244.4360199"/>
				<line class="st2" x1="470.9067078" y1="567.4977417" x2="137.4236603" y2="234.0146637"/>
				<line class="st2" x1="481.328064" y1="557.076355" x2="147.8450012" y2="223.5933228"/>
				<line class="st2" x1="491.7494202" y1="546.6550293" x2="158.2663574" y2="213.1719666"/>
				<line class="st2" x1="502.1707458" y1="536.2337036" x2="168.6876984" y2="202.7506256"/>
				<line class="st2" x1="512.5921021" y1="525.8123169" x2="179.1090546" y2="192.3292694"/>
				<line class="st2" x1="502.1707458" y1="536.2337036" x2="168.6876984" y2="202.7506256"/>
				<line class="st2" x1="523.0134277" y1="515.3909912" x2="189.5303955" y2="181.9079285"/>
				<line class="st2" x1="533.4348145" y1="504.969635" x2="199.9517517" y2="171.4865723"/>
				<line class="st2" x1="543.8561401" y1="494.5482788" x2="210.3730927" y2="161.0652313"/>
				<line class="st2" x1="554.2775269" y1="484.1269226" x2="220.7944489" y2="150.6438751"/>
				<line class="st2" x1="564.6988525" y1="473.7055969" x2="231.2157898" y2="140.2225342"/>
				<line class="st2" x1="575.1201782" y1="463.2842407" x2="241.637146" y2="129.801178"/>
				<line class="st2" x1="585.5415649" y1="452.8628845" x2="252.0584869" y2="119.379837"/>
				<line class="st2" x1="595.9628906" y1="442.4415283" x2="262.4798279" y2="108.9584885"/>
				<line class="st2" x1="585.5415649" y1="452.8628845" x2="252.0584869" y2="119.379837"/>
				<line class="st2" x1="606.3842163" y1="432.0202026" x2="272.9011841" y2="98.5371399"/>
				<line class="st2" x1="616.805603" y1="421.5988464" x2="283.3225403" y2="88.1157913"/>
				<line class="st2" x1="627.2269287" y1="411.1774902" x2="293.7438965" y2="77.6944427"/>
				<line class="st2" x1="637.6483154" y1="400.756134" x2="304.1652222" y2="67.2730942"/>
				<line class="st2" x1="648.0696411" y1="390.3348083" x2="314.5865784" y2="56.8517456"/>
				<line class="st2" x1="658.4909668" y1="379.9134521" x2="325.0079346" y2="46.430397"/>
				<line class="st2" x1="668.9123535" y1="369.4920959" x2="335.4292908" y2="36.0090485"/>
				<line class="st2" x1="679.3336792" y1="359.0707397" x2="345.8506165" y2="25.5876999"/>
				<line class="st2" x1="668.9123535" y1="369.4920959" x2="335.4292908" y2="36.0090485"/>
				<line class="st2" x1="689.7550049" y1="348.6494141" x2="356.2719727" y2="15.1663513"/>
				<line class="st2" x1="700.1763916" y1="338.2280579" x2="366.6933289" y2="4.7450023"/>
				<line class="st2" x1="710.5977173" y1="327.8067017" x2="377.1146851" y2="-5.6763458"/>
				<line class="st2" x1="721.019043" y1="317.3853455" x2="387.5360107" y2="-16.0976944"/>
				<line class="st2" x1="731.4404297" y1="306.9640198" x2="397.9573669" y2="-26.519043"/>
				<line class="st2" x1="741.8617554" y1="296.5426636" x2="408.3787231" y2="-36.9403915"/>
				<line class="st2" x1="752.2831421" y1="286.1213074" x2="418.8000793" y2="-47.3617401"/>
			</g>
		</g>
		<g class="st6">
			<rect x="257.7205505" y="114.6205521" class="st7" width="322.1589355" height="322.1589355"/>
		</g>
	</g>
</g>
<g id="Windows_1_">
	<polygon id="Windows" class="st8" points="465.7999878,63.1999779 255.3000031,63.1999779 253.5,63.1999779 253.5,417.1999817
		256.2999878,417.1999817 256.2999878,66.0999756 465.7999878,66.0999756 	"/>
	<rect x="304.1000061" y="98.9999771" class="st8" width="155.3000183" height="2.8000031"/>
	<rect x="286.6000061" y="102.7999802" class="st8" width="2.7999878" height="314.4000244"/>
</g>
<g id="Walls">
	<polygon class="st9" points="365.1000061,218.3999786 365.1000061,217.7999878 365.1000061,206.8999786 363.2999878,206.8999786
		363.2999878,217.7999878 295,217.7999878 295,205.9999847 285.6000061,205.9999847 285.6000061,217.7999878
		285.6000061,222.1999817 285.6000061,223.3999786 365.1000061,223.3999786 	"/>
	<polygon class="st9" points="363.2999878,193.0999908 365.1000061,193.0999908 365.1000061,192.4999847 368.2999878,192.4999847
		368.2999878,190.5999908 365.1000061,190.5999908 365.1000061,107.4999771 366.6000061,107.4999771 366.6000061,98.0999756
		350.5,98.0999756 350.5,107.4999771 363.2999878,107.4999771 	"/>
	<polygon class="st9" points="252,108.1999741 252.8999939,108.1999741 252.8999939,110.8999786 256.1000061,110.8999786
		256.1000061,108.1999741 257.7999878,108.1999741 257.7999878,110.8999786 261,110.8999786 261,108.1999741
		263.2999878,108.1999741 263.2999878,86.1999741 261,86.1999741 261,83.4999771 257.7999878,83.4999771 257.7999878,86.1999741
		256.1000061,86.1999741 256.1000061,83.4999771 252.8999939,83.4999771 252.8999939,86.1999741 252,86.1999741 252,88.0999756
		249.3000031,88.0999756 249.3000031,91.2999802 252,91.2999802 252,92.9999771 249.3000031,92.9999771 249.3000031,96.1999741
		252,96.1999741 252,97.8999786 249.3000031,97.8999786 249.3000031,101.0999756 252,101.0999756 252,102.7999802
		249.3000031,102.7999802 249.3000031,105.9999771 252,105.9999771 	"/>
	<polygon class="st9" points="252,187.1999817 252.8999939,187.1999817 252.8999939,189.8999786 256.1000061,189.8999786
		256.1000061,187.1999817 257.7999878,187.1999817 257.7999878,189.8999786 261,189.8999786 261,187.1999817
		263.2999878,187.1999817 263.2999878,165.1999817 261,165.1999817 261,162.4999847 257.7999878,162.4999847
		257.7999878,165.1999817 256.1000061,165.1999817 256.1000061,162.4999847 252.8999939,162.4999847 252.8999939,165.1999817
		252,165.1999817 252,167.0999908 249.3000031,167.0999908 249.3000031,170.2999878 252,170.2999878 252,171.9999847
		249.3000031,171.9999847 249.3000031,175.1999817 252,175.1999817 252,176.8999786 249.3000031,176.8999786
		249.3000031,180.0999908 252,180.0999908 252,181.7999878 249.3000031,181.7999878 249.3000031,185.0999908 252,185.0999908 	"/>
	<polygon class="st9" points="252,305.3999634 252.8999939,305.3999634 252.8999939,308.1999817 256.1000061,308.1999817
		256.1000061,305.3999634 257.7999878,305.3999634 257.7999878,308.1999817 261,308.1999817 261,305.3999634
		263.2999878,305.3999634 263.2999878,283.4999695 261,283.4999695 261,280.7999573 257.7999878,280.7999573
		257.7999878,283.4999695 256.1000061,283.4999695 256.1000061,280.7999573 252.8999939,280.7999573 252.8999939,283.4999695
		252,283.4999695 252,285.2999573 249.3000031,285.2999573 249.3000031,288.5999756 252,288.5999756 252,290.1999817
		249.3000031,290.1999817 249.3000031,293.4999695 252,293.4999695 252,295.1999817 249.3000031,295.1999817
		249.3000031,298.3999634 252,298.3999634 252,300.0999756 249.3000031,300.0999756 249.3000031,303.2999573 252,303.2999573 	"/>
	<polygon class="st9" points="252.8999939,364.1999817 252.8999939,366.8999634 256.1000061,366.8999634 256.1000061,364.1999817
		257.7999878,364.1999817 257.7999878,366.8999634 261,366.8999634 261,364.1999817 263.2999878,364.1999817
		263.2999878,342.1999817 261,342.1999817 261,339.4999695 257.7999878,339.4999695 257.7999878,342.1999817
		256.1000061,342.1999817 256.1000061,339.4999695 252.8999939,339.4999695 252.8999939,342.1999817 252,342.1999817
		252,344.0999756 249.3000031,344.0999756 249.3000031,347.2999573 252,347.2999573 252,348.9999695 249.3000031,348.9999695
		249.3000031,352.1999817 252,352.1999817 252,353.8999634 249.3000031,353.8999634 249.3000031,357.0999756 252,357.0999756
		252,358.7999573 249.3000031,358.7999573 249.3000031,361.9999695 252,361.9999695 252,364.1999817 	"/>
	<polygon class="st9" points="291.5,73.9999771 313.5,73.9999771 313.5,71.6999741 316.2000122,71.6999741 316.2000122,68.4999771
		313.5,68.4999771 313.5,66.7999802 316.2000122,66.7999802 316.2000122,63.5999756 313.5,63.5999756 313.5,62.6999779
		311.6000061,62.6999779 311.6000061,59.9999771 308.3999939,59.9999771 308.3999939,62.6999779 306.7000122,62.6999779
		306.7000122,59.9999771 303.5,59.9999771 303.5,62.6999779 301.7999878,62.6999779 301.7999878,59.9999771 298.5,59.9999771
		298.5,62.6999779 296.8999939,62.6999779 296.8999939,59.9999771 293.6000061,59.9999771 293.6000061,62.6999779 291.5,62.6999779
		291.5,63.5999756 288.7999878,63.5999756 288.7999878,66.7999802 291.5,66.7999802 291.5,68.4999771 288.7999878,68.4999771
		288.7999878,71.6999741 291.5,71.6999741 	"/>
	<polygon class="st9" points="370.2000122,73.9999771 392.2000122,73.9999771 392.2000122,71.6999741 394.8999939,71.6999741
		394.8999939,68.4999771 392.2000122,68.4999771 392.2000122,66.7999802 394.8999939,66.7999802 394.8999939,63.5999756
		392.2000122,63.5999756 392.2000122,62.6999779 390.2999878,62.6999779 390.2999878,59.9999771 387.1000061,59.9999771
		387.1000061,62.6999779 385.3999939,62.6999779 385.3999939,59.9999771 382.2000122,59.9999771 382.2000122,62.6999779
		380.5,62.6999779 380.5,59.9999771 377.2999878,59.9999771 377.2999878,62.6999779 375.6000061,62.6999779 375.6000061,59.9999771
		372.3999939,59.9999771 372.3999939,62.6999779 370.2000122,62.6999779 370.2000122,63.5999756 367.5,63.5999756 367.5,66.7999802
		370.2000122,66.7999802 370.2000122,68.4999771 367.5,68.4999771 367.5,71.6999741 370.2000122,71.6999741 	"/>
	<path class="st9" d="M470.7000122,68.0999756v-3.1999969H468v-2.0999985h-0.7999878v-2.7000008H464v2.7000008h-1.7000122
		v-2.7000008H459v2.7000008h-2.2999878v2.0999985H454v3.1999969h2.7000122v1.6999969H454v3.1999969h2.7000122v1.6999969H454
		v3.3000107h2.7000122v1.6999969H454v3.1999969h2.7000122v1.6999969H454v3.1999969h2.7000122v1.6999969H454v3.1999969h2.7000122
		v1.6999969H454v3.1999969h2.7000122v32.1000137l0,0v37.8999939h-5h-1.8999939v1.8999939v11.3000031h-22.6000061v1.8999939h29.5v35
		H408v-5.5v-1.8999939h-1.8999939H401v-27.6999969h11.6000061v-1.8999939H401l0,0h-1.8999939l0,0l0,0v1.8999939l0,0v7.8000031h-17
		v1.8999939h17v25.3000031h-14.3999939v5.6000061h19v4.3999939v1.8999939h1.8999939h4.2000122v64.8000031h5.6000061v-71.0999908
		h50.6000061v-5.6000061v-88h1.8999939v-2.6000061h2.7000122v-3.1999969H468v-1.6999969h2.7000122v-3.1999969H468v-1.6999969
		h2.7000122v-3.1999893H468v-1.6999969h2.7000122v-3.1999969H468v-1.6999969h2.7000122v-3.1999969H468v-1.6999969h2.7000122
		v-3.1999969H468v-1.6999969h2.7000122v-3.1999969H468v-1.6999969h2.7000122v-3.1999969H468v-1.6999969h2.7000122v-3.1999969H468
		v-1.6999969h2.7000122v-3.1999969H468v-1.7000427h2.7000122v-3.1999969H468v-1.6999969h2.7000122v-3.1999969H468v-1.6999969
		h2.7000122V68.0999756z M401.1000061,217.7999878v-5.5h5.1000061v5.5H401.1000061z M409.8999939,227.7999878h-4.2000122v-4.3999939
		h4.2000122V227.7999878z M456.7000122,180.7999573h-5v-11.1999817h5V180.7999573z"/>
	<rect x="285.6000061" y="98.0999756" class="st9" width="19.2999878" height="9.4000015"/>
	<path class="st9" d="M367.8999939,359.8999634h1.8999939v-3.8999939h6.2999878v-3v-2.6000061v-4.3999939v-1.2000122v-0.7000122
		h-8.2000122v0.7000122v1.2000122v4.3999939h-82.2000122v5.6000061h82.2000122v3.8999939H367.8999939z M369.7000122,345.8999634
		h4.3999939v4.3999939h-4.3999939V345.8999634z"/>
	<path class="st9" d="M409.8999939,350.3999634H395.5v5.6000061h8.2999878v4v1.8999939h1.8999939h4.2000122v12.7000122H395.5
		v1.8999939h14.3999939v37.8999939h-40.2000122v-37.8999939h12.1000061v-1.8999939h-12.1000061v-0.6000061h-1.8999939v40.3999939
		H252.5v5.6000061h157.2999878h5.6000061v-5.6000061V312.9999695h-5.6000061v37.3999939H409.8999939z M409.8999939,359.9999695
		h-4.2000122v-4h4.2000122V359.9999695z"/>
</g>
<g id="Doors">
	<path class="st8" d="M412.6000061,98.4999771c0-2.0999985-0.3999939-3.6999969-1.1000061-5.5999985
		s-1.8999939-3.5999985-3.2000122-4.9000015c-1.2999878-1.5-3-2.5999985-4.8999939-3.4000015
		c-1.8999939-0.6999969-3.7000122-1.0999985-5.7999878-1.0999985v15"/>
	<path class="st8" d="M412.2000122,181.1999817c0-2.1000061,0.3999939-3.6999969,1.1000061-5.6000061
		c0.7000122-1.8999939,1.8999939-3.6000061,3.2000122-4.8999939c1.2999878-1.5,3-2.6000061,4.8999939-3.3999939
		c1.8999939-0.6999969,3.7000122-1.1000061,5.7999878-1.1000061v15"/>
	<path class="st8" d="M382.7999878,190.8999786c0-2.1000061-0.3999939-3.6999969-1.1000061-5.6000061
		c-0.7000122-1.8999939-1.8999939-3.6000061-3.2000122-4.8999939c-1.2999878-1.5-3-2.6000061-4.8999939-3.3999939
		c-1.8999939-0.6999969-3.7000122-1.1000061-5.7999878-1.1000061v15"/>
	<path class="st8" d="M364.3999939,208.3999786c-2.1000061,0-3.7000122-0.3999939-5.6000061-1.1000061
		c-1.8999939-0.6999969-3.6000061-1.8999939-4.8999939-3.1999969c-1.5-1.3000031-2.6000061-3-3.3999939-4.8999939
		s-1.1000061-3.6999969-1.1000061-5.8000031h15"/>
	<path class="st8" d="M368.6000061,374.3999634c-2.1000061,0-3.7000122-0.3999939-5.6000061-1.1000061
		s-3.6000061-1.8999939-4.8999939-3.2000122c-1.5-1.2999878-2.6000061-3-3.3999939-4.8999939
		c-0.7000122-1.8999939-1.1000061-3.7000122-1.1000061-5.7999878h15"/>
	<path class="st8" d="M286.1000061,289.4999695c-2.1000061,0-3.7000122,0.3999939-5.6000061,1.1000061
		s-3.6000061,1.8999939-4.8999939,3.2000122c-1.5,1.2999878-2.6000061,3-3.3999939,4.8999939
		c-0.7000122,1.8999939-1.1000061,3.7000122-1.1000061,5.7999878h15"/>
	<path class="st8" d="M381.3999939,375.2999573c0-2.1000061,0.3999939-3.7000122,1.1000061-5.6000061
		s1.8999939-3.6000061,3.2000122-4.8999939c1.2999878-1.5,3-2.6000061,4.8999939-3.3999939
		c1.8999939-0.7000122,3.7000122-1.1000061,5.7999878-1.1000061v15"/>
	<path class="st8" d="M415.3999939,294.3999634c2.3999939,0,4.7000122,0.6000061,6.8999939,1.5
		c2.2000122,0.8999939,4.5,2.2000122,6.2000122,4.1000061c1.7000122,1.7000122,3.2000122,3.7000122,4.1000061,6
		c0.8999939,2.2000122,1.5,4.7000122,1.5,7.1000061h-18.7000122"/>
</g>
<g id="Furniture_1_">
	<g id="Rectangle_26_1_">
		<rect x="290.3999939" y="339.0999756" class="st10" width="66.1999817" height="10.7999878"/>
		<path class="st11" d="M356.1000061,339.5999756v9.7999878h-65.1999817v-9.7999878H356.1000061 M357.1000061,338.5999756
			h-67.1999817v11.7999878h67.2000122v-11.7999878H357.1000061z"/>
	</g>
	<g>
		<g>
			<rect x="302.2999878" y="377.7999573" class="st10" width="30.3999939" height="36.1000061"/>
			<path class="st11" d="M302.7999878,378.2999573h29.3999939v35.1000061h-29.3999939V378.2999573 M301.7999878,377.2999573
				v37.1000061h31.3999939v-37.1000061H301.7999878L301.7999878,377.2999573z"/>
		</g>
		<rect x="304.5" y="402.5999756" class="st12" width="12.2999878" height="9.2000122"/>
		<rect x="318.2999878" y="402.5999756" class="st12" width="12.2999878" height="9.2000122"/>

			<rect x="307.0297546" y="398.4725952" transform="matrix(0.2588077 -0.9659289 0.9659289 0.2588077 -158.3618469 599.7662354)" class="st13" width="9.1997375" height="9.1997375"/>

			<rect x="318.899292" y="398.4811401" transform="matrix(0.9659289 -0.2588077 0.2588077 0.9659289 -93.2984848 97.457489)" class="st13" width="9.1997375" height="9.1997375"/>
		<g>
			<polygon class="st10" points="302.2999878,404.1999817 302.2999878,377.3999634 332.7000122,377.3999634
				332.7000122,406.0999756 320.7000122,406.8999634 			"/>
			<path class="st11" d="M332.2000122,377.8999634v27.7000122l-11.5,0.7000122l-17.8999939-2.6000061v-25.8999939h29.3999939
				 M333.2000122,376.8999634h-31.3999939v27.5v0.2000122l18.7999878,2.7000122L333.2000122,406.5v-0.5000305V376.8999634
				L333.2000122,376.8999634z"/>
		</g>
		<polyline class="st14" points="332.7999878,405.6999817 320.5,405.6999817 302.2000122,404.0999756 		"/>
	</g>
	<g>
		<path class="st12" d="M329.5,256.2999573h26.2000122v19.1000061H329.5V256.2999573z"/>
		<path class="st12" d="M348.1000061,276.8999634v0.5c0,3-2.5,5.5-5.5,5.5s-5.5-2.5-5.5-5.5v-0.5H348.1000061z"/>
		<path class="st12" d="M346.6000061,275.3999634v2c0,2.2000122-1.7999878,4-4,4s-4-1.7999878-4-4v-2H346.6000061z"/>
		<path class="st12" d="M348.1000061,254.6999817v-0.5c0-3-2.5-5.5-5.5-5.5s-5.5,2.5-5.5,5.5v0.5H348.1000061z"/>
		<path class="st12" d="M346.6000061,256.2999573v-1.9999847c0-2.1999969-1.7999878-4-4-4s-4,1.8000031-4,4v1.9999847H346.6000061z"
			/>
		<path class="st12" d="M327.8999939,260.2999573h-0.5c-3,0-5.5,2.5-5.5,5.5s2.5,5.5,5.5,5.5h0.5V260.2999573z"/>
		<path class="st12" d="M329.5,261.8999634h-2c-2.2000122,0-4,1.7999878-4,4s1.7999878,4,4,4h2V261.8999634z"/>
		<path class="st12" d="M357.2000122,271.3999634h0.5c3,0,5.5-2.5,5.5-5.5s-2.5-5.5-5.5-5.5h-0.5V271.3999634z"/>
		<path class="st12" d="M355.7000122,269.7999573h2c2.2000122,0,4-1.7999878,4-4s-1.7999878-4-4-4h-2V269.7999573z"/>
	</g>
	<g id="TV">
		<g id="Rectangle_17_2_">
			<rect x="302.5" y="356.4999695" class="st10" width="28.2000122" height="5.1000061"/>
			<path class="st11" d="M330.2000122,356.9999695v4.1000061H303v-4.1000061H330.2000122 M331.2000122,355.9999695H302v6.1000061
				h29.2000122V355.9999695L331.2000122,355.9999695z"/>
		</g>
		<rect id="Rectangle_17" x="308.2000122" y="357.9999695" class="st12" width="16.7999878" height="1.6000061"/>
		<path id="Rectangle_18_x5F_2" class="st12" d="M313.1000061,357.9999695h7.1000061l-0.6000061-1.5h-5.7999878
			L313.1000061,357.9999695z"/>
	</g>
	<g id="TV_2_">
		<g id="Rectangle_17_5_">
			<rect x="404.2000122" y="247.4999847" class="st10" width="5.1000061" height="28.2000275"/>
			<path class="st11" d="M408.8999939,247.9999847v27.1999969h-4.1000061v-27.1999969H408.8999939 M409.8999939,246.9999847
				h-6.1000061v29.1999969h6.1000061V246.9999847L409.8999939,246.9999847z"/>
		</g>
		<rect id="Rectangle_17_3_" x="406.2999878" y="253.1999817" class="st12" width="1.6000061" height="16.8000183"/>
		<g id="Rectangle_17_1_">
			<rect x="402.3999939" y="247.4999847" class="st10" width="1.7999878" height="28.2000275"/>
			<path class="st11" d="M403.7000122,247.9999847v27.1999969h-0.7999878v-27.1999969H403.7000122 M404.7000122,246.9999847
				h-2.7999878v29.1999969h2.7999878V246.9999847L404.7000122,246.9999847z"/>
		</g>
		<path id="Rectangle_18_x5F_2_2_" class="st12" d="M407.8999939,265.0999756v-7.1000061l1.5,0.6000061v5.7999878
			L407.8999939,265.0999756z"/>
	</g>
	<g id="Sink_3">
		<rect id="Rectangle_28_x5F_2" x="293.7000122" y="340.5999756" class="st12" width="14" height="7.7999878"/>
		<path id="Rectangle_29_x5F_2" class="st12" d="M299.7999878,344.5999756L299.7999878,344.5999756
			c0-1.3999939,1.1000061-2.5,2.5-2.5h0.6000061c1.3999939,0,2.5,1.1000061,2.5,2.5l0,0c0,1.3999939-1.1000061,2.5-2.5,2.5
			h-0.6000061C301,347.0999756,299.7999878,345.9999695,299.7999878,344.5999756z"/>
		<ellipse id="Ellipse_7_x5F_3" class="st12" cx="302.6000061" cy="344.9999695" rx="0.8999939" ry="0.8999939"/>
		<line class="st14" x1="295" y1="344.6999817" x2="298.2999878" y2="344.6999817"/>
		<line class="st14" x1="295" y1="342.8999634" x2="298.2999878" y2="342.8999634"/>
		<line class="st14" x1="295" y1="346.5999756" x2="298.2999878" y2="346.5999756"/>
	</g>
	<g>
		<path class="st12" d="M342.3999939,236.7999878c0,0.6000061-0.3999939,1-1,1h-15c-0.6000061,0-1-0.3999939-1-1v-9.8000031h17
			V236.7999878z"/>
		<path class="st12" d="M358.5,236.7999878c0,0.6000061-0.3999939,1-1,1h-14.2000122c-0.6000061,0-1-0.3999939-1-1v-9.8000031H358.5
			V236.7999878z"/>
		<polygon class="st12" points="358.5,238.6999817 358.5,226.9999847 342,226.9999847 325.3999939,226.9999847
			325.3999939,238.6999817 322.2999878,238.6999817 322.2999878,223.8999786 361.7000122,223.8999786 361.7000122,238.6999817 		"/>
	</g>
	<g>
		<g>
			<rect x="444" y="102.8999786" class="st10" width="7.2999878" height="64.3000031"/>
			<path class="st11" d="M444.5,103.3999786h6.2999878v63.3000031H444.5V103.3999786 M443.5,102.3999786v65.3000183h8.2999878
				v-65.3000107L443.5,102.3999786L443.5,102.3999786z"/>
		</g>
		<g>
			<rect x="445.7999878" y="102.8999786" class="st10" width="10.3999939" height="64.3000031"/>
			<path class="st11" d="M446.2999878,103.3999786h9.3999939v63.3000031h-9.3999939V103.3999786 M445.2999878,102.3999786
				v65.3000183h11.3999939v-65.3000107L445.2999878,102.3999786L445.2999878,102.3999786z"/>
		</g>
		<path class="st12" d="M456.2000122,167.1999817l-10.2999878-64.4000092"/>
	</g>
	<g>
		<g>
			<rect x="352.3999939" y="112.7999802" class="st10" width="7.2999878" height="29.6000137"/>
			<path class="st11" d="M359.2000122,113.2999802v28.6000137h-6.2999878v-28.6000061h6.2999878 M360.2000122,112.2999802
				h-8.2999878v30.6000137h8.2999878V112.2999802L360.2000122,112.2999802z"/>
		</g>
		<g>
			<rect x="354.1000061" y="112.7999802" class="st10" width="8.6000061" height="29.6000137"/>
			<path class="st11" d="M362.2999878,113.2999802v28.6000137h-7.6000061v-28.6000061h7.6000061 M363.2999878,112.2999802
				h-9.6000061v30.6000137h9.6000061V112.2999802L363.2999878,112.2999802z"/>
		</g>
		<path class="st12" d="M362.7999878,142.6999817l-8.7000122-30.1000061"/>
	</g>
	<g>
		<g>
			<rect x="295.4953918" y="205.202179" class="st10" width="39.2000122" height="7.3000031"/>
			<path class="st11" d="M334.1954041,205.702179v6.3000031h-38.2000122v-6.3000031H334.1954041 M335.1954041,204.702179
				h-40.2000122v8.3000031h40.2000122V204.702179L335.1954041,204.702179z"/>
		</g>
		<g>
			<rect x="295.4953918" y="206.9021759" class="st10" width="39.2000122" height="10.3999939"/>
			<path class="st11" d="M334.1954041,207.4021759v9.3999939h-38.2000122v-9.3999939H334.1954041 M335.1954041,206.4021759
				h-40.2000122v11.3999939h40.2000122V206.4021759L335.1954041,206.4021759z"/>
		</g>
		<path class="st12" d="M295.2953796,217.3021698l39.6000061-10.3000031"/>
	</g>
	<g>
		<g>
			<rect x="397.2000122" y="319.5999756" class="st10" width="7.2999878" height="30.2999878"/>
			<path class="st11" d="M404,320.0999756v29.2999878h-6.2999878v-29.2999878H404 M405,319.0999756h-8.2999878v31.2999878H405
				V319.0999756L405,319.0999756z"/>
		</g>
		<g>
			<rect x="398.8999939" y="319.5999756" class="st10" width="10.3999939" height="30.2999878"/>
			<path class="st11" d="M399.3999939,320.0999756h9.3999939v29.2999878h-9.3999939V320.0999756 M398.3999939,319.0999756
				v31.2999878h11.3999939v-31.2999878H398.3999939L398.3999939,319.0999756z"/>
		</g>
		<path class="st12" d="M409.2999878,350.0999756L399,319.2999573"/>
	</g>
	<g>
		<g>
			<rect x="290.3999939" y="223.8999786" class="st10" width="13" height="26.6999969"/>
			<path class="st11" d="M302.8999939,224.3999786v25.6999969h-12v-25.6999969H302.8999939 M303.8999939,223.3999786h-14v27.6999969
				h14V223.3999786L303.8999939,223.3999786z"/>
		</g>
		<g>
			<rect x="297.3999939" y="223.8999786" class="st10" width="19.7999878" height="13"/>
			<path class="st11" d="M316.7000122,224.3999786v12h-18.7999878v-12H316.7000122 M317.7000122,223.3999786h-20.7999878v14
				h20.7999878V223.3999786L317.7000122,223.3999786z"/>
		</g>
		<g>
			<rect x="290.3999939" y="223.8999786" class="st10" width="15" height="13"/>
			<path class="st11" d="M304.8999939,224.3999786v12h-14v-12H304.8999939 M305.8999939,223.3999786h-16v14h16V223.3999786
				L305.8999939,223.3999786z"/>
		</g>
		<g>
			<polygon class="st10" points="290.3999939,242.6999817 290.3999939,223.8999786 305.3999939,223.8999786
				305.3999939,236.8999786 303.3999939,236.8999786 303.3999939,242.6999817 			"/>
			<path class="st11" d="M304.8999939,224.3999786v12h-1h-1v1v4.8000031h-12v-4.8000031v-13h13H304.8999939
				 M305.8999939,223.3999786h-2h-14v14v5.8000031h14v-5.8000031h2V223.3999786L305.8999939,223.3999786z"/>
		</g>
		<g>
			<line class="st14" x1="309.3999939" y1="237.3999786" x2="309.3999939" y2="223.3999786"/>
		</g>
		<g>
			<line class="st14" x1="313.2999878" y1="237.3999786" x2="313.2999878" y2="223.3999786"/>
		</g>
		<g>
			<line class="st14" x1="289.8999939" y1="246.5999908" x2="303.8999939" y2="246.5999908"/>
		</g>
		<g>
			<line class="st14" x1="289.8999939" y1="250.4999847" x2="303.8999939" y2="250.4999847"/>
		</g>
	</g>
	<g>
		<rect x="343.1000061" y="303.3999634" class="st10" width="24.2000122" height="16.5"/>
		<path class="st11" d="M366.8999939,303.8999634v15.5h-23.2000122v-15.5H366.8999939 M367.8999939,302.8999634h-25.2000122v17.5
			h25.2000122V302.8999634L367.8999939,302.8999634z"/>
	</g>
	<g>
		<rect x="343.1000061" y="307.1999817" class="st10" width="24.2000122" height="2.7000122"/>
		<path class="st11" d="M366.8999939,307.6999817v1.7000122h-23.2000122v-1.7000122H366.8999939 M367.8999939,306.6999817
			h-25.2000122v3.7000122h25.2000122V306.6999817L367.8999939,306.6999817z"/>
	</g>
	<g>
		<path class="st10" d="M346,300.6999817c-2.1000061,0-3.7999878-1.7000122-3.7999878-3.7999878
			c0-2.1000061,1.7000122-3.7999878,3.7999878-3.7999878s3.7999878,1.7000122,3.7999878,3.7999878
			C349.7000122,298.9999695,348,300.6999817,346,300.6999817z"/>
		<path class="st11" d="M346,293.5999756c1.7999878,0,3.2999878,1.5,3.2999878,3.2999878s-1.5,3.2999878-3.2999878,3.2999878
			s-3.2999878-1.5-3.2999878-3.2999878S344.2000122,293.5999756,346,293.5999756 M346,292.5999756
			c-2.3999939,0-4.2999878,1.8999939-4.2999878,4.2999878s1.8999939,4.2999878,4.2999878,4.2999878
			s4.2999878-1.8999939,4.2999878-4.2999878S348.2999878,292.5999756,346,292.5999756L346,292.5999756z"/>
	</g>
	<g>
		<path class="st10" d="M356,300.6999817c-2.1000061,0-3.7999878-1.7000122-3.7999878-3.7999878
			c0-2.1000061,1.7000122-3.7999878,3.7999878-3.7999878s3.7999878,1.7000122,3.7999878,3.7999878
			C359.7000122,298.9999695,358,300.6999817,356,300.6999817z"/>
		<path class="st11" d="M356,293.5999756c1.7999878,0,3.2999878,1.5,3.2999878,3.2999878s-1.5,3.2999878-3.2999878,3.2999878
			s-3.2999878-1.5-3.2999878-3.2999878S354.2000122,293.5999756,356,293.5999756 M356,292.5999756
			c-2.3999939,0-4.2999878,1.8999939-4.2999878,4.2999878s1.8999939,4.2999878,4.2999878,4.2999878
			s4.2999878-1.8999939,4.2999878-4.2999878S358.2999878,292.5999756,356,292.5999756L356,292.5999756z"/>
	</g>
	<g>
		<path class="st10" d="M336.5,314.7999878c-2.1000061,0-3.7999878-1.7000122-3.7999878-3.7999878
			c0-2.1000061,1.7000122-3.7999878,3.7999878-3.7999878s3.7999878,1.7000122,3.7999878,3.7999878
			C340.2000122,313.0999756,338.5,314.7999878,336.5,314.7999878z"/>
		<path class="st11" d="M336.5,307.6999817c1.7999878,0,3.2999878,1.5,3.2999878,3.2999878s-1.5,3.2999878-3.2999878,3.2999878
			s-3.2999878-1.5-3.2999878-3.2999878S334.7000122,307.6999817,336.5,307.6999817 M336.5,306.6999817
			c-2.3999939,0-4.2999878,1.8999939-4.2999878,4.2999878s1.8999939,4.2999878,4.2999878,4.2999878
			s4.2999878-1.8999939,4.2999878-4.2999878C340.7000122,308.5999756,338.7999878,306.6999817,336.5,306.6999817L336.5,306.6999817z
			"/>
	</g>
	<g>
		<circle class="st10" cx="343.8999939" cy="127.7999802" r="5.7000084"/>
		<path class="st11" d="M343.8999939,122.5999756c2.8999939,0,5.2000122,2.3000031,5.2000122,5.1999969
			c0,2.9000092-2.2999878,5.2000122-5.2000122,5.2000122s-5.2000122-2.3000031-5.2000122-5.2000046
			C338.7999878,124.8999786,341.1000061,122.5999756,343.8999939,122.5999756 M343.8999939,121.5999756
			c-3.3999939,0-6.2000122,2.8000031-6.2000122,6.1999969c0,3.4000092,2.7999878,6.2000122,6.2000122,6.2000122
			s6.2000122-2.8000031,6.2000122-6.2000046S347.3999939,121.5999756,343.8999939,121.5999756L343.8999939,121.5999756z"/>
	</g>
	<g>
		<g>
			<rect x="423.5" y="204.1999817" class="st10" width="32.7000122" height="13"/>
			<path class="st11" d="M455.7000122,204.6999817v12H424v-12H455.7000122 M456.7000122,203.6999817H423v14h33.7000122V203.6999817
				L456.7000122,203.6999817z"/>
		</g>
		<g>
			<g>
				<path class="st15" d="M453.6000061,210.7999878c0-2.6000061-2.2000122-4.6000061-4.7999878-4.3999939
					c-2.7999878,0.3000031-6.2999878,0.5-9,0.5c-2.6000061,0-6.1000061-0.3000031-9-0.5
					c-2.6000061-0.1999969-4.7999878,1.8000031-4.7999878,4.3999939s2.2000122,4.6000061,4.7999878,4.3999939
					c2.7999878-0.3000031,6.2999878-0.5,9-0.5c2.6000061,0,6.1000061,0.3000031,9,0.5
					C451.3999939,215.2999878,453.6000061,213.2999878,453.6000061,210.7999878z"/>
				<ellipse class="st15" cx="449.1000061" cy="210.7999878" rx="0.7999878" ry="0.8000031"/>
			</g>
		</g>
	</g>
	<g>
		<g>
			<rect x="401.995697" y="376.8999634" class="st10" width="7.3999939" height="11.2999878"/>
			<path class="st11" d="M408.8956909,377.4999695v10.2999878h-6.3999939v-10.2999878H408.8956909 M409.8956909,376.4999695
				h-8.3999939v12.2999878h8.3999939V376.4999695L409.8956909,376.4999695z"/>
		</g>
		<g>
			<path class="st10" d="M405.6956787,384.7999573c-1.2000122,0-2.2000122-1-2.2000122-2.2000122s1-2.2000122,2.2000122-2.2000122
				s2.2000122,1,2.2000122,2.2000122S406.8956909,384.7999573,405.6956787,384.7999573z"/>
			<path class="st11" d="M405.6956787,380.8999634c1,0,1.7000122,0.7999878,1.7000122,1.7000122
				s-0.7999878,1.7000122-1.7000122,1.7000122c-1,0-1.7000122-0.7999878-1.7000122-1.7000122
				S404.6956787,380.8999634,405.6956787,380.8999634 M405.6956787,379.8999634c-1.5,0-2.7000122,1.2000122-2.7000122,2.7000122
				s1.2000122,2.7000122,2.7000122,2.7000122s2.7000122-1.2000122,2.7000122-2.7000122
				S407.1956787,379.8999634,405.6956787,379.8999634L405.6956787,379.8999634z"/>
		</g>
	</g>
	<g id="Sink_2">
		<g id="Rectangle_16_x5F_11">
			<rect x="370.2000122" y="384.3999634" class="st10" width="7.3999939" height="12.2999878"/>
			<path class="st11" d="M377.1000061,384.8999634v11.2999878h-6.3999939v-11.2999878H377.1000061 M378.1000061,383.8999634
				h-8.3999939v13.2999878h8.3999939V383.8999634L378.1000061,383.8999634z"/>
		</g>
		<path id="Rectangle_19_x5F_5" class="st12" d="M373.8999939,393.8999634L373.8999939,393.8999634
			c1.2000122,0,2.2000122-0.8999939,2.2000122-2v-2.7999878c0-1.1000061-1-2-2.2000122-2l0,0
			c-1.2000122,0-2.2000122,0.8999939-2.2000122,2v2.7999878
			C371.7000122,393.0999756,372.7000122,393.8999634,373.8999939,393.8999634z"/>
		<circle id="Ellipse_7_x5F_2" class="st12" cx="373.7000122" cy="390.5999756" r="0.7999878"/>
	</g>
	<g id="Toilet_1_">
		<g id="Rectangle_21_1_">
			<rect x="394.2000122" y="411.4999695" class="st10" width="11" height="2.3999939"/>
			<path class="st11" d="M404.7000122,411.9999695v1.3999939h-10v-1.3999939H404.7000122 M405.7000122,410.9999695h-12v3.3999939h12
				V410.9999695L405.7000122,410.9999695z"/>
		</g>
		<path id="Rectangle_19_x5F_2_1_" class="st12" d="M403.5,404.4999695c0.1000061-2.2000122-1.6000061-4-3.7999878-4l0,0
			c-2.2000122,0-3.8999939,1.7999878-3.7999878,4l0.5,7h6.6000061L403.5,404.4999695z"/>
		<path id="Rectangle_18_x5F_13_1_" class="st12" d="M401.7999878,404.7999573
			c0.1000061-1.2000122-0.8999939-2.2999878-2.1000061-2.2999878l0,0c-1.2000122,0-2.2000122,1.1000061-2.1000061,2.2999878
			l0.2999878,3.2999878h3.6000061L401.7999878,404.7999573z"/>
		<ellipse id="Ellipse_6_x5F_2_1_" class="st12" cx="399.7000122" cy="406.0999756" rx="0.7999878" ry="0.7999878"/>
	</g>
	<g>
		<g>
			<rect x="401.5029907" y="183.1025085" class="st10" width="7.3999939" height="11.3000031"/>
			<path class="st11" d="M408.4029846,183.6025085v10.3000031h-6.3999939v-10.3000031H408.4029846 M409.4029846,182.6025085
				h-8.3999939v12.3000031h8.3999939V182.6025085L409.4029846,182.6025085z"/>
		</g>
		<g>
			<path class="st10" d="M405.2029724,191.0025024c-1.2000122,0-2.2000122-1-2.2000122-2.1999969s1-2.1999969,2.2000122-2.1999969
				s2.2000122,1,2.2000122,2.1999969S406.4029846,191.0025024,405.2029724,191.0025024z"/>
			<path class="st11" d="M405.2029724,187.0025024c1,0,1.7000122,0.8000031,1.7000122,1.6999969
				s-0.7999878,1.6999969-1.7000122,1.6999969s-1.7000122-0.8000031-1.7000122-1.6999969
				S404.2029724,187.0025024,405.2029724,187.0025024 M405.2029724,186.0025024c-1.5,0-2.7000122,1.1999969-2.7000122,2.6999969
				s1.2000122,2.6999969,2.7000122,2.6999969s2.7000122-1.1999969,2.7000122-2.6999969
				S406.7029724,186.0025024,405.2029724,186.0025024L405.2029724,186.0025024z"/>
		</g>
	</g>
	<g id="Sink_2_1_">
		<g id="Rectangle_16_x5F_11_1_">
			<rect x="401.6000061" y="196.3308105" class="st10" width="7.3999939" height="12.3000031"/>
			<path class="st11" d="M408.3999939,196.8308105v11.3000031H402v-11.3000031H408.3999939 M409.3999939,195.8308105H401v13.3000031
				h8.3999939V195.8308105L409.3999939,195.8308105z"/>
		</g>
		<path id="Rectangle_19_x5F_5_1_" class="st12" d="M405.2000122,205.8308105L405.2000122,205.8308105
			c1.2000122,0,2.2000122-0.8999939,2.2000122-2v-2.8000031c0-1.1000061-1-2-2.2000122-2l0,0
			c-1.2000122,0-2.2000122,0.8999939-2.2000122,2v2.8000031C403,204.9308014,404,205.8308105,405.2000122,205.8308105z"/>
		<circle id="Ellipse_7_x5F_2_1_" class="st12" cx="405" cy="202.4308014" r="0.7999954"/>
	</g>
	<g id="Toilet_4_">
		<g id="Rectangle_21_4_">
			<rect x="453.7999878" y="185.9999847" class="st10" width="2.3999939" height="11"/>
			<path class="st11" d="M455.7000122,186.4999847v10h-1.3999939v-10H455.7000122 M456.7000122,185.4999847h-3.3999939v12h3.3999939
				V185.4999847L456.7000122,185.4999847z"/>
		</g>
		<path id="Rectangle_19_x5F_2_4_" class="st12" d="M446.7999878,195.2999878c-2.2000122,0.1000061-4-1.6000061-4-3.8000031l0,0
			c0-2.1999969,1.7999878-3.8999939,4-3.8000031l7,0.5v6.6000061L446.7999878,195.2999878z"/>
		<path id="Rectangle_18_x5F_13_4_" class="st12" d="M447.1000061,193.5999908
			c-1.2000122,0.1000061-2.2999878-0.8999939-2.2999878-2.1000061l0,0c0-1.1999969,1.1000061-2.1999969,2.2999878-2.1000061
			l3.2999878,0.3000031v3.6000061L447.1000061,193.5999908z"/>
		<ellipse id="Ellipse_6_x5F_2_4_" class="st12" cx="448.3999939" cy="191.4999847" rx="0.7999878" ry="0.8000031"/>
	</g>
	<g id="Rectangle_26_2_">
		<rect x="356.6000061" y="319.8999634" class="st10" width="10.7999878" height="30"/>
		<path class="st11" d="M366.8999939,320.3999634v29h-9.7999878v-29H366.8999939 M367.8999939,319.3999634h-11.7999878v31
			h11.7999878V319.3999634L367.8999939,319.3999634z"/>
	</g>
	<g id="Stove">
		<g id="Rectangle_25">
			<rect x="316.7999878" y="339.0999756" class="st10" width="10.3999939" height="10.7999878"/>
			<path class="st11" d="M326.7999878,339.5999756v9.7999878h-9.3999939v-9.7999878H326.7999878 M327.7999878,338.5999756
				h-11.3999939v11.7999878h11.3999939V338.5999756L327.7999878,338.5999756z"/>
		</g>
		<g id="Ellipse_7_x5F_4">
			<circle class="st10" cx="319.8999939" cy="345.7999573" r="1"/>
			<path class="st11" d="M319.8999939,345.2999573c0.2999878,0,0.5,0.2000122,0.5,0.5s-0.2000122,0.5-0.5,0.5
				s-0.5-0.2000122-0.5-0.5S319.6000061,345.2999573,319.8999939,345.2999573 M319.8999939,344.2999573
				c-0.7999878,0-1.5,0.7000122-1.5,1.5s0.7000122,1.5,1.5,1.5s1.5-0.7000122,1.5-1.5
				S320.7000122,344.2999573,319.8999939,344.2999573L319.8999939,344.2999573z"/>
		</g>
		<g id="Ellipse_9">
			<path class="st10" d="M319.8999939,343.0999756c-0.7000122,0-1.2999878-0.6000061-1.2999878-1.2999878
				S319.2000122,340.5,319.8999939,340.5s1.2999878,0.6000061,1.2999878,1.2999878S320.6000061,343.0999756,319.8999939,343.0999756
				z"/>
			<path class="st11" d="M319.8999939,340.8999634c0.5,0,0.7999878,0.3999939,0.7999878,0.7999878
				s-0.3999939,0.7999878-0.7999878,0.7999878c-0.5,0-0.7999878-0.3999939-0.7999878-0.7999878
				S319.3999939,340.8999634,319.8999939,340.8999634 M319.8999939,339.8999634c-1,0-1.7999878,0.7999878-1.7999878,1.7999878
				s0.7999878,1.7999878,1.7999878,1.7999878s1.7999878-0.7999878,1.7999878-1.7999878
				C321.7000122,340.7999573,320.8999939,339.8999634,319.8999939,339.8999634L319.8999939,339.8999634z"/>
		</g>
		<g id="Ellipse_10">
			<path class="st10" d="M324.2000122,347.0999756c-0.7000122,0-1.2999878-0.6000061-1.2999878-1.2999878
				S323.5000305,344.5,324.2000122,344.5S325.5,345.1000061,325.5,345.7999878S324.8999939,347.0999756,324.2000122,347.0999756z"/>
			<path class="st11" d="M324.2000122,344.8999634c0.5,0,0.7999878,0.3999939,0.7999878,0.7999878
				s-0.3999939,0.7999878-0.7999878,0.7999878s-0.7999878-0.3999939-0.7999878-0.7999878
				S323.7000122,344.8999634,324.2000122,344.8999634 M324.2000122,343.8999634c-1,0-1.7999878,0.7999878-1.7999878,1.7999878
				s0.7999878,1.7999878,1.7999878,1.7999878S326,346.6999512,326,345.6999512
				C326,344.7999573,325.2000122,343.8999634,324.2000122,343.8999634L324.2000122,343.8999634z"/>
		</g>
		<g id="Ellipse_8">
			<path class="st10" d="M324.2000122,342.3999634c-0.5,0-1-0.3999939-1-1s0.3999939-1,1-1c0.5,0,1,0.3999939,1,1
				S324.7000122,342.3999634,324.2000122,342.3999634z"/>
			<path class="st11" d="M324.2000122,340.8999634c0.2999878,0,0.5,0.2000122,0.5,0.5s-0.2000122,0.5-0.5,0.5
				s-0.5-0.2000122-0.5-0.5C323.7000122,341.1999817,323.8999939,340.8999634,324.2000122,340.8999634 M324.2000122,339.8999634
				c-0.7999878,0-1.5,0.7000122-1.5,1.5s0.7000122,1.5,1.5,1.5s1.5-0.7000122,1.5-1.5S325,339.8999634,324.2000122,339.8999634
				L324.2000122,339.8999634z"/>
		</g>
		<g>
			<rect x="316.7999878" y="348.3999634" class="st10" width="10.3999939" height="1.5"/>
			<path class="st11" d="M326.7999878,348.8999634v0.5h-9.3999939v-0.5H326.7999878 M327.7999878,347.8999634h-11.3999939v2.5
				h11.3999939V347.8999634L327.7999878,347.8999634z"/>
		</g>
	</g>
	<g>
		<g id="Rectangle_27_1_">
			<rect x="356.6000061" y="328.3999634" class="st10" width="10.7999878" height="10.7999878"/>
			<path class="st11" d="M366.8999939,328.8999634v9.7999878h-9.7999878v-9.7999878H366.8999939 M367.8999939,327.8999634
				h-11.7999878v11.7999878h11.7999878V327.8999634L367.8999939,327.8999634z"/>
		</g>
		<g id="Rectangle_27_2_">
			<rect x="356.6000061" y="328.3999634" class="st10" width="1.3999939" height="10.7999878"/>
			<path class="st11" d="M357.5,328.8999634v9.7999878h-0.3999939v-9.7999878H357.5 M358.5,327.8999634h-2.3999939v11.7999878H358.5
				V327.8999634L358.5,327.8999634z"/>
		</g>
		<path id="Vector_3_1_" class="st14" d="M360.3999939,333.6999817H365 M361.5,331.6999817l2.2999878,4 M361.5,335.7999573
			l2.2999878-4"/>
	</g>
	<g>
		<g>
			<rect x="326.7000122" y="148.2999878" class="st10" width="36.1000061" height="30.3999939"/>
			<path class="st11" d="M362.2999878,148.7999878v29.3999939h-35.1000061v-29.3999939H362.2999878 M363.2999878,147.7999878
				h-37.1000061v31.3999939h37.1000061V147.7999878L363.2999878,147.7999878z"/>
		</g>
		<rect x="351.5" y="164.2999878" class="st12" width="9.2000122" height="12.3000031"/>
		<rect x="351.5" y="150.4999847" class="st12" width="9.2000122" height="12.3000031"/>

			<rect x="347.3565979" y="164.7534332" transform="matrix(0.2588077 -0.9659289 0.9659289 0.2588077 97.2841873 465.4882813)" class="st13" width="9.1997375" height="9.1997223"/>

			<rect x="347.3797302" y="152.8841705" transform="matrix(0.9659289 -0.2588077 0.2588077 0.9659289 -28.7657356 96.4606857)" class="st13" width="9.1997375" height="9.1997223"/>
		<g>
			<polygon class="st10" points="326.2999878,178.6999817 326.2999878,148.2999878 355,148.2999878 355.7999878,160.2999878
				353.1000061,178.6999817 			"/>
			<path class="st11" d="M354.6000061,148.7999878l0.7000122,11.5l-2.6000061,17.8999939h-25.8999939v-29.3999939H354.6000061
				 M355.5,147.7999878h-0.6000061h-29.1000061v31.3999939h27.5H353.5l2.7000122-18.8000031L355.5,147.7999878L355.5,147.7999878z"
				/>
		</g>
		<polyline class="st14" points="354.6000061,148.1999817 354.6000061,160.4999847 353,178.7999878 		"/>
	</g>
	<g>
		<g>
			<rect x="365.6000061" y="111.9999771" class="st10" width="36.1000061" height="30.3999863"/>
			<path class="st11" d="M401.2000122,112.4999771v29.4000015h-35.1000061v-29.4000092h35.1000061 M402.2000122,111.4999771
				h-37.1000061v31.4000015h37.1000061V111.4999771L402.2000122,111.4999771z"/>
		</g>
		<rect x="367.7999878" y="127.9999771" class="st12" width="9.2000122" height="12.3000107"/>
		<rect x="367.7999878" y="114.1999741" class="st12" width="9.2000122" height="12.3000031"/>

			<rect x="371.881073" y="128.4923248" transform="matrix(0.9659289 -0.2588077 0.2588077 0.9659289 -21.6181507 101.9707642)" class="st13" width="9.1997375" height="9.1997223"/>

			<rect x="371.9173889" y="116.6515808" transform="matrix(0.2588077 -0.9659289 0.9659289 0.2588077 161.9514465 453.5595398)" class="st13" width="9.1997375" height="9.1997223"/>
		<g>
			<polygon class="st10" points="375.2999878,142.3999786 372.6000061,124.0999756 373.3999939,111.9999771
				402.1000061,111.9999771 402.1000061,142.3999786 			"/>
			<path class="st11" d="M401.6000061,112.4999771v29.4000015h-25.8999939l-2.6000061-17.9000092l0.7000122-11.5h27.7999878
				 M402.6000061,111.4999771H373.5h-0.6000061l-0.7999878,12.5999985l2.7000122,18.8000031h0.2000122h27.5v-31.4000015H402.6000061
				z"/>
		</g>
		<polyline class="st14" points="373.8999939,111.8999786 373.8999939,124.1999741 375.3999939,142.5999908 		"/>
	</g>
	<g>
		<g>
			<rect x="385.800354" y="192.7973022" class="st10" width="1.7999878" height="24.3000031"/>
			<path class="st11" d="M387.1003723,193.2973022v23.3000031h-0.7999878v-23.3000031H387.1003723 M388.1003723,192.2973022
				h-2.7999878v25.3000031h2.7999878V192.2973022L388.1003723,192.2973022z"/>
		</g>
		<g>
			<rect x="387.6003723" y="192.7973022" class="st10" width="11" height="24.3000031"/>
			<path class="st11" d="M398.1003723,193.2973022v23.3000031h-10v-23.3000031H398.1003723 M399.1003723,192.2973022h-12v25.3000031
				h12V192.2973022L399.1003723,192.2973022z"/>
		</g>
		<path class="st12" d="M398.6003723,217.0973053l-11.1000061-24.5"/>
	</g>
	<g>
		<g>
			<rect x="400.2999878" y="283.5999756" class="st10" width="1.7999878" height="9.7999878"/>
			<path class="st11" d="M401.6000061,284.0999756v8.7999878h-0.7999878v-8.7999878H401.6000061 M402.6000061,283.0999756
				h-2.7999878v10.8999939h2.7999878V283.0999756L402.6000061,283.0999756z"/>
		</g>
		<g>
			<rect x="402.2000122" y="283.5999756" class="st10" width="7.2000122" height="9.7999878"/>
			<path class="st11" d="M408.8999939,284.0999756v8.7999878h-6.2000122v-8.7999878H408.8999939 M409.8999939,283.0999756
				h-8.2000122v10.8999939h8.2000122V283.0999756L409.8999939,283.0999756z"/>
		</g>
		<path class="st12" d="M409.1000061,293.1999817l-6.7000122-9.2000122"/>
	</g>
	<g id="Arrow">
		<g>
			<g>
				<polygon class="st11" points="299.8052673,251.7371216 296.8999939,240.8963013 293.994751,251.7371216 				"/>
			</g>
		</g>
	</g>
	<g id="Arrow_1_">
		<g>
			<g>
				<polygon class="st11" points="297.1512146,232.9058685 307.9920044,230.0005951 297.1511841,227.0953217 				"/>
			</g>
		</g>
	</g>
	<g>
		<g>
			<path class="st10" d="M370.2001953,413.8996887v-14.8994141h10.4580078c2.4492188,0,4.4414063,1.9921875,4.4414063,4.4414063
				v10.4580078H370.2001953z"/>
			<path class="st11" d="M380.6582642,399.5c2.1734924,0,3.9417419,1.768219,3.9417419,3.9416809v9.9582825h-13.8999939V399.5
				H380.6582642 M380.6582642,398.5h-10.958252v15.8999634h15.8999939v-10.9582825
				C385.6000061,400.7124023,383.387085,398.5,380.6582642,398.5L380.6582642,398.5z"/>
		</g>
		<g>
			<path class="st10" d="M371.8310547,412.2688293V400.631134h8.6367188c1.6552734,0,3.0019531,1.3466797,3.0019531,3.0009766
				v8.6367188H371.8310547z"/>
			<path class="st11" d="M380.4677124,401.1306763c1.3793945,0,2.5016174,1.1221924,2.5016174,2.5015869v8.1370544h-10.6386414
				v-10.6386414H380.4677124 M380.4677124,400.1306763h-9.1370239v12.6386414h12.6386414v-9.1370544
				C383.9693298,401.6980591,382.4014893,400.1306763,380.4677124,400.1306763L380.4677124,400.1306763z"/>
		</g>
		<ellipse class="st12" cx="374.339447" cy="409.7605591" rx="0.7993774" ry="0.7993774"/>
	</g>
</g>
<g id="Numbers">
	<g class="st16">
		<path class="st9" d="M308.6000061,134.9999847L307,136.7999878h2.7000122v1H305.5v-0.8999939l2.1000061-2.3000031l0.5-0.6000061
			c0.1000061-0.1000061,0.2000122-0.3000031,0.2999878-0.5S308.5,133.0999908,308.5,132.8999786
			c0-0.3000031-0.1000061-0.5-0.2999878-0.6999969c-0.2000122-0.1999969-0.5-0.3000031-0.7999878-0.3000031
			c-0.5,0-1,0.1999969-1.6000061,0.6999969l-0.6000061-0.6999969c0.7000122-0.6000061,1.3999939-1,2.2000122-1
			c0.6000061,0,1.1000061,0.1999969,1.5,0.6000061c0.3999939,0.3999939,0.6000061,0.8999939,0.6000061,1.3999939
			C309.6000061,133.5999908,309.2999878,134.2999878,308.6000061,134.9999847z"/>
		<path class="st9" d="M310.2000122,132.6999817l1.8999939-1.6000061h0.7999878v6.6999969h-1v-5.3000031l-1.2000122,0.8999939
			L310.2000122,132.6999817z"/>
		<path class="st9" d="M314.7999878,137.8999786c-0.2000122,0-0.2999878-0.1000061-0.5-0.1999969
			c-0.1000061-0.1000061-0.2000122-0.3000031-0.2000122-0.5s0.1000061-0.3000031,0.2000122-0.3999939
			c0.1000061-0.1000061,0.2999878-0.1999969,0.5-0.1999969s0.2999878,0.1000061,0.3999939,0.1999969
			c0.1000061,0.1000061,0.2000122,0.3000031,0.2000122,0.3999939c0,0.1999969-0.1000061,0.3000031-0.2000122,0.5
			C315.1000061,137.7999878,315,137.8999786,314.7999878,137.8999786z"/>
		<path class="st9" d="M319.3999939,134.9999847l-1.6000061,1.8000031H320.5v1h-4.2000122v-0.8999939l2.1000061-2.3000031
			l0.5-0.6000061c0.1000061-0.1000061,0.2000122-0.3000031,0.2999878-0.5s0.1000061-0.3999939,0.1000061-0.6000061
			c0-0.3000031-0.1000061-0.5-0.2999878-0.6999969c-0.2000122-0.1999969-0.5-0.3000031-0.7999878-0.3000031
			c-0.5,0-1,0.1999969-1.6000061,0.6999969L316,131.8999786c0.7000122-0.6000061,1.3999939-1,2.2000122-1
			c0.6000061,0,1.1000061,0.1999969,1.5,0.6000061c0.3999939,0.3999939,0.6000061,0.8999939,0.6000061,1.3999939
			C320.3999939,133.5999908,320.1000061,134.2999878,319.3999939,134.9999847z"/>
	</g>
	<g class="st16">
		<path class="st9" d="M264.2999878,137.3999786l1.8999939-1.6000061h0.7999878v6.6999969h-1v-5.3000031l-1.2000122,0.8999939
			L264.2999878,137.3999786z"/>
		<path class="st9" d="M270.8999939,138.1999817c0.6000061,0,1.1000061,0.1999969,1.5,0.6000061
			c0.3999939,0.3999939,0.6000061,0.8999939,0.6000061,1.5s-0.2000122,1.1999969-0.7000122,1.6000061
			c-0.3999939,0.3999939-1,0.6000061-1.7000122,0.6000061c-0.7999878,0-1.3999939-0.3000031-1.7999878-0.8999939
			c-0.3999939-0.6000061-0.6000061-1.3999939-0.6000061-2.3000031c0-0.6000061,0.1000061-1.1999969,0.2999878-1.8000031
			c0.2000122-0.5,0.5-1,0.8999939-1.3000031c0.3999939-0.3999939,1-0.5,1.6000061-0.5
			c0.7000122,0,1.2999878,0.1999969,1.7000122,0.6000061l-0.3999939,0.8000031
			c-0.3999939-0.3000031-0.7999878-0.3999939-1.2000122-0.3999939c-0.3999939,0-0.7000122,0.1000061-1,0.3999939
			c-0.5,0.5-0.7999878,1.1999969-0.7999878,2.1000061c0.1000061-0.3000031,0.3999939-0.5,0.7000122-0.6999969
			S270.5,138.1999817,270.8999939,138.1999817z M270.7000122,141.5999908c0.3999939,0,0.7000122-0.1000061,0.8999939-0.3999939
			C271.8000183,140.8999939,272,140.5999908,272,140.3000031c0-0.3999939-0.1000061-0.6999969-0.3999939-0.8999939
			c-0.2000122-0.1999969-0.5-0.3999939-0.8999939-0.3999939S270,139.1000214,269.8000183,139.4000092
			c-0.2000122,0.1999969-0.3999939,0.6000061-0.3999939,0.8999939c0,0.3999939,0.1000061,0.6999969,0.3999939,0.8999939
			C270.1000061,141.4999847,270.3999939,141.5999908,270.7000122,141.5999908z"/>
		<path class="st9" d="M274.5,142.5999908c-0.2000122,0-0.2999878-0.1000061-0.5-0.1999969
			c-0.1000061-0.1000061-0.2000122-0.3000031-0.2000122-0.5S273.8999939,141.5999908,274,141.5
			c0.1000061-0.1000061,0.2999878-0.1999969,0.5-0.1999969s0.2999878,0.1000061,0.3999939,0.1999969
			c0.1000061,0.1000061,0.2000122,0.3000031,0.2000122,0.3999939c0,0.1999969-0.1000061,0.3000031-0.2000122,0.5
			C274.7999878,142.4999847,274.6000061,142.5999908,274.5,142.5999908z"/>
		<path class="st9" d="M275.1000061,137.3999786L277,135.7999725h0.7999878v6.6999969h-1v-5.3000031l-1.2000122,0.8999939
			L275.1000061,137.3999786z"/>
	</g>
	<g class="st16">
		<path class="st9" d="M414,129.9999847l1.8999939-1.6000061h0.7999878v6.6999969h-1v-5.3000031l-1.2000122,0.8999939
			L414,129.9999847z"/>
		<path class="st9" d="M420.2000122,128.2999878c0.7999878,0,1.3999939,0.3000031,1.7999878,0.8999939
			c0.3999939,0.6000061,0.6000061,1.3999939,0.6000061,2.3000031c0,0.5-0.1000061,1-0.2000122,1.3999939
			s-0.2999878,0.8000031-0.5,1.1999969c-0.2000122,0.3000031-0.5,0.6000061-0.8999939,0.8000031
			s-0.7999878,0.3000031-1.2000122,0.3000031c-0.7000122,0-1.2999878-0.1999969-1.7999878-0.6000061l0.3999939-0.8000031
			c0.3999939,0.3000031,0.8999939,0.5,1.2999878,0.5c0.6000061,0,1-0.1999969,1.2999878-0.6999969s0.5-1,0.5-1.6999969
			c-0.2000122,0.3000031-0.3999939,0.5-0.7000122,0.6000061s-0.6000061,0.1999969-1,0.1999969
			c-0.6000061,0-1.1000061-0.1999969-1.5-0.6000061c-0.3999939-0.3999939-0.6000061-0.8999939-0.6000061-1.5
			s0.2000122-1.1999969,0.6000061-1.6000061C419,128.4999847,419.5,128.2999878,420.2000122,128.2999878z M421.3999939,130.4999847
			c0-0.3999939-0.1000061-0.6999969-0.3999939-0.8999939c-0.2000122-0.3000031-0.5-0.3999939-0.8999939-0.3999939
			s-0.7000122,0.1000061-0.8999939,0.3999939c-0.2000122,0.3000031-0.3999939,0.6000061-0.3999939,0.8999939
			c0,0.3999939,0.1000061,0.6999969,0.3999939,0.8999939c0.2000122,0.1999969,0.5,0.3999939,0.8999939,0.3999939
			s0.7000122-0.1000061,0.8999939-0.3999939C421.2999878,131.1999817,421.3999939,130.7999878,421.3999939,130.4999847z"/>
		<path class="st9" d="M423.8999939,135.1999817c-0.2000122,0-0.2999878-0.1000061-0.5-0.1999969
			c-0.1000061-0.1000061-0.2000122-0.3000031-0.2000122-0.5s0.1000061-0.3000031,0.2000122-0.3999939
			c0.1000061-0.1000061,0.2999878-0.1999969,0.5-0.1999969s0.2999878,0.1000061,0.3999939,0.1999969
			c0.1000061,0.1000061,0.2000122,0.3000031,0.2000122,0.3999939c0,0.1999969-0.1000061,0.3000031-0.2000122,0.5
			C424.2000122,135.0999908,424.1000061,135.1999817,423.8999939,135.1999817z"/>
		<path class="st9" d="M429.2999878,132.4999847H430v0.8999939h-0.7000122v1.6000061h-1v-1.6000061h-3l-0.2000122-0.6000061
			l3.6000061-4.3999939h0.7000122v4.1000061H429.2999878z M428.2999878,130.0999908l-2,2.3999939h2V130.0999908z"/>
	</g>
	<g class="st16">
		<path class="st9" d="M428.7999878,191.7999878c0.6000061,0,1.2000122,0.1999969,1.6000061,0.6000061S431,193.2999878,431,194
			c0,0.6999969-0.2000122,1.1999969-0.7000122,1.6000061c-0.3999939,0.3999939-1,0.6000061-1.7000122,0.6000061
			c-0.7999878,0-1.5-0.3000031-2.2000122-0.8000031l0.5-0.8000031c0.6000061,0.3999939,1.1000061,0.6000061,1.7000122,0.6000061
			c0.3999939,0,0.7000122-0.1000061,1-0.3999939c0.2999878-0.1999969,0.3999939-0.5,0.3999939-0.8999939
			s-0.1000061-0.6999969-0.3999939-0.8999939c-0.2000122-0.1999969-0.6000061-0.3999939-1-0.3999939
			c-0.5,0-0.8999939,0.1999969-1.2000122,0.5l-0.6000061-0.3999939l0.3999939-3.3000031h3.3999939v0.8999939H428
			l-0.2000122,1.6000061C428.1000061,191.8999786,428.5,191.7999878,428.7999878,191.7999878z"/>
	</g>
	<g class="st16">
		<path class="st9" d="M385.5,298.6999817c0.7999878,0,1.3999939,0.2999878,1.7999878,0.8999939
			s0.6000061,1.3999939,0.6000061,2.2999878c0,0.5-0.1000061,1-0.2000122,1.3999939s-0.2999878,0.7999878-0.5,1.2000122
			c-0.2000122,0.2999878-0.5,0.6000061-0.8999939,0.7999878c-0.3999939,0.2000122-0.7999878,0.2999878-1.2000122,0.2999878
			c-0.7000122,0-1.2999878-0.2000122-1.7999878-0.6000061l0.3999939-0.7999878c0.3999939,0.2999878,0.8999939,0.5,1.2999878,0.5
			c0.6000061,0,1-0.2000122,1.2999878-0.7000122s0.5-1,0.5-1.7000122c-0.2000122,0.2999878-0.3999939,0.5-0.7000122,0.6000061
			s-0.6000061,0.2000122-1,0.2000122c-0.6000061,0-1.1000061-0.2000122-1.5-0.6000061s-0.6000061-0.8999939-0.6000061-1.5
			s0.2000122-1.2000122,0.6000061-1.6000061C384.2999878,298.8999634,384.7999878,298.6999817,385.5,298.6999817z
			 M386.7000122,300.8999634c0-0.3999939-0.1000061-0.7000122-0.3999939-0.8999939
			c-0.2000122-0.2999878-0.5-0.3999939-0.8999939-0.3999939s-0.7000122,0.1000061-0.8999939,0.3999939
			c-0.2000122,0.2999878-0.3999939,0.6000061-0.3999939,0.8999939c0,0.3999939,0.1000061,0.7000122,0.3999939,0.8999939
			c0.2000122,0.2000122,0.5,0.3999939,0.8999939,0.3999939s0.7000122-0.1000061,0.8999939-0.3999939
			C386.6000061,301.5999756,386.7000122,301.2999573,386.7000122,300.8999634z"/>
		<path class="st9" d="M389.2000122,305.5999756c-0.2000122,0-0.2999878-0.1000061-0.5-0.2000122
			c-0.1000061-0.1000061-0.2000122-0.2999878-0.2000122-0.5s0.1000061-0.2999878,0.2000122-0.3999939
			s0.2999878-0.2000122,0.5-0.2000122s0.2999878,0.1000061,0.3999939,0.2000122s0.2000122,0.2999878,0.2000122,0.3999939
			c0,0.2000122-0.1000061,0.2999878-0.2000122,0.5C389.5,305.4999695,389.3999939,305.5999756,389.2000122,305.5999756z"/>
		<path class="st9" d="M393.7999878,302.6999817l-1.6000061,1.7999878h2.7000122v1h-4.2000122v-0.8999939l2.1000061-2.2999878
			l0.5-0.6000061c0.1000061-0.1000061,0.2000122-0.2999878,0.2999878-0.5
			c0.1000061-0.2000122,0.1000061-0.3999939,0.1000061-0.6000061c0-0.2999878-0.1000061-0.5-0.2999878-0.7000122
			c-0.2000122-0.2000122-0.5-0.2999878-0.7999878-0.2999878c-0.5,0-1,0.2000122-1.6000061,0.7000122l-0.6000061-0.7000122
			c0.7000122-0.6000061,1.3999939-1,2.2000122-1c0.6000061,0,1.1000061,0.2000122,1.5,0.6000061
			s0.6000061,0.8999939,0.6000061,1.3999939C394.7999878,301.2999573,394.5,301.9999695,393.7999878,302.6999817z"/>
	</g>
	<g class="st16">
		<path class="st9" d="M309.5,318.2999573l-1.6000061,1.7999878h2.7000122v1h-4.2000122v-0.8999939L308.5,317.8999634l0.5-0.6000061
			c0.1000061-0.1000061,0.2000122-0.2999878,0.2999878-0.5s0.1000061-0.3999939,0.1000061-0.6000061
			c0-0.2999878-0.1000061-0.5-0.2999878-0.7000122c-0.2000122-0.2000122-0.5-0.2999878-0.7999878-0.2999878
			c-0.5,0-1,0.2000122-1.6000061,0.7000122l-0.6000061-0.7000122c0.7000122-0.6000061,1.3999939-1,2.2000122-1
			c0.6000061,0,1.1000061,0.2000122,1.5,0.6000061s0.6000061,0.8999939,0.6000061,1.3999939
			C310.5,316.8999634,310.2000122,317.5999756,309.5,318.2999573z"/>
		<path class="st9" d="M313.8999939,321.1999817c-0.7000122,0-1.2999878-0.2000122-1.7000122-0.5
			c-0.3999939-0.3999939-0.7000122-0.7999878-0.7000122-1.3999939c0-0.3999939,0.1000061-0.7000122,0.3999939-1
			c0.2000122-0.2999878,0.5-0.5,0.8999939-0.7000122l0,0c-0.2999878-0.1000061-0.6000061-0.3999939-0.7000122-0.6000061
			c-0.2000122-0.2999878-0.2999878-0.5-0.2999878-0.8999939c0-0.5,0.2000122-0.8999939,0.6000061-1.2999878
			c0.3999939-0.2999878,0.8999939-0.5,1.5-0.5s1.1000061,0.2000122,1.5,0.5s0.6000061,0.7999878,0.6000061,1.2999878
			c0,0.2999878-0.1000061,0.6000061-0.2999878,0.8999939s-0.3999939,0.5-0.7000122,0.6000061l0,0
			c0.3999939,0.1000061,0.7000122,0.3999939,0.8999939,0.7000122c0.2000122,0.2999878,0.3999939,0.7000122,0.3999939,1
			c0,0.6000061-0.2000122,1-0.7000122,1.3999939C315.2000122,320.9999695,314.6000061,321.1999817,313.8999939,321.1999817z
			 M313.8999939,320.2999573c0.3999939,0,0.7000122-0.1000061,1-0.2999878c0.2999878-0.2000122,0.3999939-0.5,0.3999939-0.7999878
			s-0.1000061-0.6000061-0.3999939-0.7999878c-0.2999878-0.2000122-0.6000061-0.2999878-1-0.2999878
			s-0.7000122,0.1000061-1,0.2999878c-0.2999878,0.2000122-0.3999939,0.5-0.3999939,0.7999878
			s0.1000061,0.6000061,0.3999939,0.7999878C313.1000061,320.1999817,313.3999939,320.2999573,313.8999939,320.2999573z
			 M314.7000122,316.8999634C314.9000244,316.6999512,315,316.4999695,315,316.1999512s-0.1000061-0.5-0.2999878-0.7000122
			c-0.2000122-0.2000122-0.5-0.2999878-0.7999878-0.2999878s-0.6000061,0.1000061-0.7999878,0.2999878
			c-0.2000122,0.2000122-0.2999878,0.3999939-0.2999878,0.7000122s0.1000061,0.5,0.2999878,0.7000122
			c0.2000122,0.2000122,0.5,0.2999878,0.7999878,0.2999878C314.2000122,317.1999817,314.5,317.0999756,314.7000122,316.8999634z"/>
		<path class="st9" d="M317.7000122,321.1999817c-0.2000122,0-0.2999878-0.1000061-0.5-0.2000122
			c-0.1000061-0.1000061-0.2000122-0.2999878-0.2000122-0.5s0.1000061-0.2999878,0.2000122-0.3999939
			s0.2999878-0.2000122,0.5-0.2000122s0.2999878,0.1000061,0.3999939,0.2000122s0.2000122,0.2999878,0.2000122,0.3999939
			c0,0.2000122-0.1000061,0.2999878-0.2000122,0.5C318.1000061,321.1999817,317.8999939,321.1999817,317.7000122,321.1999817z"/>
		<path class="st9" d="M322.3999939,318.2999573l-1.6000061,1.7999878H323.5v1h-4.2000122v-0.8999939l2.1000061-2.2999878
			l0.5-0.6000061c0.1000061-0.1000061,0.2000122-0.2999878,0.2999878-0.5s0.1000061-0.3999939,0.1000061-0.6000061
			c0-0.2999878-0.1000061-0.5-0.2999878-0.7000122c-0.2000122-0.2000122-0.5-0.2999878-0.7999878-0.2999878
			c-0.5,0-1,0.2000122-1.6000061,0.7000122L319,315.1999512c0.7000122-0.6000061,1.3999939-1,2.2000122-1
			c0.6000061,0,1.1000061,0.2000122,1.5,0.6000061s0.6000061,0.8999939,0.6000061,1.3999939
			C323.3999939,316.8999634,323,317.5999756,322.3999939,318.2999573z"/>
	</g>
	<g class="st16">
		<path class="st9" d="M342.2999878,389.4999695l1.8999939-1.6000061h0.7999878v6.7000122h-1v-5.2999878l-1.2000122,0.8999939
			L342.2999878,389.4999695z"/>
		<path class="st9" d="M348.7000122,394.5999756c-0.7000122,0-1.2999878-0.2000122-1.7000122-0.5
			c-0.3999939-0.3999939-0.7000122-0.7999878-0.7000122-1.3999939c0-0.3999939,0.1000061-0.7000122,0.3999939-1
			c0.2000122-0.2999878,0.5-0.5,0.8999939-0.7000122l0,0c-0.2999878-0.1000061-0.6000061-0.3999939-0.7000122-0.6000061
			c-0.2000122-0.2999878-0.2999878-0.5-0.2999878-0.8999939c0-0.5,0.2000122-0.8999939,0.6000061-1.2999878
			c0.3999939-0.2999878,0.8999939-0.5,1.5-0.5s1.1000061,0.2000122,1.5,0.5s0.6000061,0.7999878,0.6000061,1.2999878
			c0,0.2999878-0.1000061,0.6000061-0.2999878,0.8999939s-0.3999939,0.5-0.7000122,0.6000061l0,0
			c0.3999939,0.1000061,0.7000122,0.3999939,0.8999939,0.7000122c0.2000122,0.2999878,0.3999939,0.7000122,0.3999939,1
			c0,0.6000061-0.2000122,1-0.7000122,1.3999939C350,394.4999695,349.3999939,394.5999756,348.7000122,394.5999756z
			 M348.7000122,393.6999817c0.3999939,0,0.7000122-0.1000061,1-0.2999878c0.2999878-0.2000122,0.3999939-0.5,0.3999939-0.7999878
			S350,392,349.7000122,391.8000183c-0.2999878-0.2000122-0.6000061-0.2999878-1-0.2999878s-0.7000122,0.1000061-1,0.2999878
			c-0.2999878,0.2000122-0.3999939,0.5-0.3999939,0.7999878s0.1000061,0.6000061,0.3999939,0.7999878
			C347.8999939,393.5999756,348.2999878,393.6999817,348.7000122,393.6999817z M349.5,390.2999573
			c0.2000122-0.2000122,0.2999878-0.3999939,0.2999878-0.7000122s-0.1000061-0.5-0.2999878-0.7000122
			c-0.2000122-0.2000122-0.5-0.2999878-0.7999878-0.2999878s-0.6000061,0.1000061-0.7999878,0.2999878
			c-0.2000122,0.2000122-0.2999878,0.3999939-0.2999878,0.7000122s0.1000061,0.5,0.2999878,0.7000122
			c0.2000122,0.2000122,0.5,0.2999878,0.7999878,0.2999878C349,390.5999756,349.2999878,390.4999695,349.5,390.2999573z"/>
		<path class="st9" d="M352.6000061,394.6999817c-0.2000122,0-0.2999878-0.1000061-0.5-0.2000122
			c-0.1000061-0.1000061-0.2000122-0.2999878-0.2000122-0.5s0.1000061-0.2999878,0.2000122-0.3999939
			s0.2999878-0.2000122,0.5-0.2000122s0.2999878,0.1000061,0.3999939,0.2000122s0.2000122,0.2999878,0.2000122,0.3999939
			c0,0.2000122-0.1000061,0.2999878-0.2000122,0.5C352.8999939,394.5999756,352.7000122,394.6999817,352.6000061,394.6999817z"/>
		<path class="st9" d="M356.2999878,390.1999817c0.6000061,0,1.2000122,0.2000122,1.6000061,0.6000061
			S358.5,391.6999817,358.5,392.3999939S358.2999878,393.6000061,357.7999878,394
			c-0.3999939,0.3999939-1,0.6000061-1.7000122,0.6000061c-0.7999878,0-1.5-0.2999878-2.2000122-0.7999878l0.5-0.7999878
			c0.6000061,0.3999939,1.1000061,0.6000061,1.7000122,0.6000061c0.3999939,0,0.7000122-0.1000061,1-0.3999939
			c0.2999878-0.2000122,0.3999939-0.5,0.3999939-0.8999939s-0.1000061-0.7000122-0.3999939-0.8999939
			c-0.2000122-0.2000122-0.6000061-0.3999939-1-0.3999939c-0.5,0-0.8999939,0.2000122-1.2000122,0.5l-0.6000061-0.3999939
			l0.3999939-3.2999878h3.3999939v0.8999939h-2.6000061l-0.2000122,1.6000061
			C355.5,390.2999573,355.8999939,390.1999817,356.2999878,390.1999817z"/>
	</g>
	<g class="st16">
		<path class="st9" d="M390.8999939,390.9999695h0.7000122v0.8999939h-0.7000122v1.6000061h-1v-1.6000061h-3l-0.2000122-0.6000061
			l3.6000061-4.3999939H391v4.1000061H390.8999939z M389.8999939,388.5999756l-2,2.3999939h2V388.5999756z"/>
	</g>
</g>
<g id="street_anchors" class="st17">
	<rect id="street_x5F_anchor_x5F_01" x="355" y="19.999979" class="st18" width="10" height="10"/>
	<rect id="street_x5F_anchor_x5F_02" x="209.3000031" y="234.9999847" class="st18" width="10" height="10"/>
</g>
</svg>
