<?xml version="1.0" encoding="utf-8"?>
<!-- Generator: Adobe Illustrator 24.2.0, SVG Export Plug-In . SVG Version: 6.00 Build 0)  -->
<!DOCTYPE svg PUBLIC "-//W3C//DTD SVG 1.1//EN" "http://www.w3.org/Graphics/SVG/1.1/DTD/svg11.dtd" [
	<!ENTITY ns_extend "http://ns.adobe.com/Extensibility/1.0/">
	<!ENTITY ns_ai "http://ns.adobe.com/AdobeIllustrator/10.0/">
	<!ENTITY ns_graphs "http://ns.adobe.com/Graphs/1.0/">
	<!ENTITY ns_vars "http://ns.adobe.com/Variables/1.0/">
	<!ENTITY ns_imrep "http://ns.adobe.com/ImageReplacement/1.0/">
	<!ENTITY ns_sfw "http://ns.adobe.com/SaveForWeb/1.0/">
	<!ENTITY ns_custom "http://ns.adobe.com/GenericCustomNamespace/1.0/">
	<!ENTITY ns_adobe_xpath "http://ns.adobe.com/XPath/1.0/">
]>
<svg version="1.1" id="_x31__x5F_2" xmlns:x="&ns_extend;" xmlns:i="&ns_ai;" xmlns:graph="&ns_graphs;"
	 xmlns="http://www.w3.org/2000/svg" xmlns:xlink="http://www.w3.org/1999/xlink" x="0px" y="0px" viewBox="0 0 720 480"
	 style="enable-background:new 0 0 720 480;" xml:space="preserve">
<style type="text/css">
	.st0{fill:#DBD4CA;}
	.st1{opacity:0.3;}
	.st2{opacity:0.7;fill:#C49F8A;enable-background:new    ;}
	.st3{fill:#C49F8A;}
	.st4{fill:none;stroke:#565440;}
	.st5{fill:#565440;}
	.st6{fill:#E9E4DC;}
	.st7{fill:#E9E4DC;stroke:#C49F8A;}
	.st8{fill:#E9E4DC;stroke:#C49F8A;stroke-width:0.9999701;stroke-miterlimit:3.9996808;}
	.st9{fill:none;stroke:#C49F8A;}
	.st10{fill:#E9E4DC;stroke:#C49F8A;stroke-linejoin:round;}
	.st11{enable-background:new    ;}
	.st12{opacity:0;}
	.st13{fill:#3F3F3F;fill-opacity:0;}
</style>
<metadata>
	<sfw  xmlns="&ns_sfw;">
		<slices></slices>
		<sliceSourceBounds  bottomLeftOrigin="true" height="399.9000244" width="261.4499817" x="209.3000031" y="60.1000061">
			</sliceSourceBounds>
	</sfw>
</metadata>
<polygon id="Floor" class="st0" points="463.8999939,221.9999847 463.8999939,100.7804031 289.5,101.8999786
	289.1000061,418.6999817 415.5,418.6999817 415.5,222.1999817 "/>
<g id="Wet_Floor_1_">
	<g>
		<g class="st1">
			<rect x="400.2374268" y="180.9981689" class="st2" width="57.7000122" height="37.0656128"/>
		</g>
		<path class="st3" d="M441.937439,204.0637207l9.7000122-9.7000122l6.2000122,6.2000122v-1.2999268l-5.5-5.5l5.5-5.5v-1.4000244
			l-6.2000122,6.2000122l-9.7000122-9.7999878l2.265564-2.265625h-1.3999634l-1.5656128,1.5656128l-1.5656128-1.5656128h-1.4000244
			l2.265625,2.265625l-9.7000122,9.7000122l-9.7999878-9.8000488l2.1655884-2.1655884h-1.4000244l-1.4655762,1.4656372
			l-1.4656372-1.4656372h-1.3999634l2.1655884,2.1655884l-9.7999878,9.8000488l-9.6000366-9.6000366v1.4000244l8.9000244,8.8999634
			l-8.9000244,8.9000244v1.3999634l9.6000366-9.5999756l9.7999878,9.7999878l-9.7999878,9.7999878l-9.6000366-9.5999756v1.3999634
			l8.9000244,8.9000244l-3.2999878,3.2999878h1.3999634l2.6000366-2.6000366l2.5999756,2.6000366h1.4000244l-3.2999878-3.2999878
			l9.7999878-9.8000488l9.7000122,9.7000122l-3.4000244,3.4000244h1.4000244l2.7000122-2.7000122l2.7000122,2.7000122h1.3999634
			l-3.3999634-3.4000244l9.7999878-9.7999878l9.7999878,9.7999878l-3.4000244,3.4000244h1.4000244l2.7000122-2.7000122
			l2.7000122,2.7000122h1.3999634l-3.3999634-3.4000244l5.5-5.5v-1.3999634l-6.2000122,6.1999512L441.937439,204.0637207z
			 M410.5374146,193.7637939l9.7999878-9.7999878l9.7999878,9.7999878l-9.7999878,9.7999878L410.5374146,193.7637939z
			 M430.7374268,213.9638062l-9.7000122-9.7000122l9.7999878-9.7999878l9.7000122,9.6999512L430.7374268,213.9638062z
			 M431.5374146,193.7637939l9.7000122-9.7000122l9.7000122,9.7000122l-9.7000122,9.7000122L431.5374146,193.7637939z"/>
	</g>
	<g>
		<g class="st1">
			<rect x="368.5" y="374.4999695" class="st2" width="43.5" height="42"/>
		</g>
		<path class="st3" d="M379.7999878,406.9999695l-9.5,9.5h1.3999939l8.7999878-8.7999878l8.7999878,8.7999878h1.3999939l-9.5-9.5
			l9.7999878-9.7999878l9.7999878,9.7999878l-9.5,9.5h1.3999939l8.7999878-8.7999878l8.7999878,8.7999878h1.3999939l-9.5-9.5
			l9.7000122-9.7000122l0.1000061,0.1000061v-1.6000061l-0.1000061,0.1000061l-9.7999878-9.7999878l9.7999878-9.7999878
			l0.1000061,0.1000061v-1.6000061l-0.1000061,0.1000061l-0.2999878-0.2999878h-1.3999939l1,1l-9.7999878,9.7999878l-10-10
			l0.7999878-0.7999878h-1.3999939l-0.1000061,0.1000061l-0.1000061-0.1000061h-1.3999939l0.7999878,0.7999878l-9.7000122,9.7000122
			l-9.7999878-9.7999878l0.7999878-0.7999878h-1.3999939l-0.1000061,0.1000061l-0.1000061-0.1000061h-1.2999878v0.1000061
			l0.6000061,0.6000061l-0.6000061,0.6000061v1.3999939l1.2999878-1.2999878l9.7999878,9.7999878l-9.7999878,9.7999878
			l-1.2999878-1.2999878v1.3999939l0.6000061,0.6000061l-0.6000061,0.6000061v1.3999939l1.2999878-1.2999878
			L379.7999878,406.9999695z M411.2000122,396.4999695L401.5,406.1999817l-9.7999878-9.7999878l9.7000122-9.7000122
			L411.2000122,396.4999695z M390.7000122,376.0999756l10,10L391,395.7999878l-10-10L390.7000122,376.0999756z
			 M380.2999878,386.4999695l10,10L380.5,406.2999573l-10-10L380.2999878,386.4999695z"/>
	</g>
</g>
<polygon id="Windows" class="st4" points="465.7000122,63.3999786 255.5,63.3999786 253.6000061,63.3999786
	253.6000061,417.1999817 256.3999939,417.1999817 256.3999939,66.1999741 465.7000122,66.1999741 "/>
<g id="Walls">
	<polygon class="st5" points="252.0500183,108.2999802 252.9500122,108.2999802 252.9500122,110.8999786 256.1500244,110.8999786
		256.1500244,108.2999802 257.8500061,108.2999802 257.8500061,110.8999786 261.0500183,110.8999786 261.0500183,108.2999802
		263.25,108.2999802 263.25,86.3999786 261.0500183,86.3999786 261.0500183,83.5999756 257.8500061,83.5999756
		257.8500061,86.3999786 256.1500244,86.3999786 256.1500244,83.5999756 252.9500122,83.5999756 252.9500122,86.3999786
		252.0500183,86.3999786 252.0500183,88.2999802 249.25,88.2999802 249.25,91.4999771 252.0500183,91.4999771
		252.0500183,93.0999756 249.25,93.0999756 249.25,96.2999802 252.0500183,96.2999802 252.0500183,97.9999771 249.25,97.9999771
		249.25,101.1999741 252.0500183,101.1999741 252.0500183,102.8999786 249.25,102.8999786 249.25,106.0999756
		252.0500183,106.0999756 	"/>
	<polygon class="st5" points="252.0500183,187.2999878 252.9500122,187.2999878 252.9500122,189.8999786 256.1500244,189.8999786
		256.1500244,187.2999878 257.8500061,187.2999878 257.8500061,189.8999786 261.0500183,189.8999786 261.0500183,187.2999878
		263.25,187.2999878 263.25,165.3999786 261.0500183,165.3999786 261.0500183,162.5999908 257.8500061,162.5999908
		257.8500061,165.3999786 256.1500244,165.3999786 256.1500244,162.5999908 252.9500122,162.5999908 252.9500122,165.3999786
		252.0500183,165.3999786 252.0500183,167.2999878 249.25,167.2999878 249.25,170.4999847 252.0500183,170.4999847
		252.0500183,172.0999908 249.25,172.0999908 249.25,175.2999878 252.0500183,175.2999878 252.0500183,176.9999847
		249.25,176.9999847 249.25,180.1999817 252.0500183,180.1999817 252.0500183,181.8999786 249.25,181.8999786 249.25,185.0999908
		252.0500183,185.0999908 	"/>
	<polygon class="st5" points="252.0500183,305.3999634 252.9500122,305.3999634 252.9500122,308.1999817 256.1500244,308.1999817
		256.1500244,305.3999634 257.8500061,305.3999634 257.8500061,308.1999817 261.0500183,308.1999817 261.0500183,305.3999634
		263.25,305.3999634 263.25,283.4999695 261.0500183,283.4999695 261.0500183,280.6999817 257.8500061,280.6999817
		257.8500061,283.4999695 256.1500244,283.4999695 256.1500244,280.6999817 252.9500122,280.6999817 252.9500122,283.4999695
		252.0500183,283.4999695 252.0500183,285.3999634 249.25,285.3999634 249.25,288.5999756 252.0500183,288.5999756
		252.0500183,290.2999573 249.25,290.2999573 249.25,293.4999695 252.0500183,293.4999695 252.0500183,295.0999756
		249.25,295.0999756 249.25,298.2999573 252.0500183,298.2999573 252.0500183,300.1999817 249.25,300.1999817 249.25,303.3999634
		252.0500183,303.3999634 	"/>
	<polygon class="st5" points="252.9500122,363.9999695 252.9500122,366.7999573 256.1500244,366.7999573 256.1500244,363.9999695
		257.8500061,363.9999695 257.8500061,366.7999573 261.0500183,366.7999573 261.0500183,363.9999695 263.25,363.9999695
		263.25,342.0999756 261.0500183,342.0999756 261.0500183,339.2999573 257.8500061,339.2999573 257.8500061,342.0999756
		256.1500244,342.0999756 256.1500244,339.2999573 252.9500122,339.2999573 252.9500122,342.0999756 252.0500183,342.0999756
		252.0500183,343.9999695 249.25,343.9999695 249.25,347.1999817 252.0500183,347.1999817 252.0500183,349.0999756
		249.25,349.0999756 249.25,352.1999817 252.0500183,352.1999817 252.0500183,353.8999634 249.25,353.8999634 249.25,357.0999756
		252.0500183,357.0999756 252.0500183,358.7999573 249.25,358.7999573 249.25,361.9999695 252.0500183,361.9999695
		252.0500183,363.9999695 	"/>
	<polygon class="st5" points="291.5500183,74.0999756 313.4500122,74.0999756 313.4500122,71.7999802 316.25,71.7999802
		316.25,68.5999756 313.4500122,68.5999756 313.4500122,66.8999786 316.25,66.8999786 316.25,63.7999763 313.4500122,63.7999763
		313.4500122,62.7999763 311.5500183,62.7999763 311.5500183,59.9999771 308.4500122,59.9999771 308.4500122,62.7999763
		306.75,62.7999763 306.75,59.9999771 303.5500183,59.9999771 303.5500183,62.7999763 301.8500061,62.7999763
		301.8500061,59.9999771 298.6500244,59.9999771 298.6500244,62.7999763 296.8500061,62.7999763 296.8500061,59.9999771
		293.6500244,59.9999771 293.6500244,62.7999763 291.5500183,62.7999763 291.5500183,63.7999763 288.75,63.7999763
		288.75,66.8999786 291.5500183,66.8999786 291.5500183,68.5999756 288.75,68.5999756 288.75,71.7999802 291.5500183,71.7999802
		"/>
	<polygon class="st5" points="370.1500244,74.0999756 392.0500183,74.0999756 392.0500183,71.7999802 394.8500061,71.7999802
		394.8500061,68.5999756 392.0500183,68.5999756 392.0500183,66.8999786 394.8500061,66.8999786 394.8500061,63.7999763
		392.0500183,63.7999763 392.0500183,62.7999763 390.25,62.7999763 390.25,59.9999771 387.0500183,59.9999771
		387.0500183,62.7999763 385.3500061,62.7999763 385.3500061,59.9999771 382.1500244,59.9999771 382.1500244,62.7999763
		380.4500122,62.7999763 380.4500122,59.9999771 377.25,59.9999771 377.25,62.7999763 375.6500244,62.7999763
		375.6500244,59.9999771 372.4500122,59.9999771 372.4500122,62.7999763 370.1500244,62.7999763 370.1500244,63.7999763
		367.5500183,63.7999763 367.5500183,66.8999786 370.1500244,66.8999786 370.1500244,68.5999756 367.5500183,68.5999756
		367.5500183,71.7999802 370.1500244,71.7999802 	"/>
	<path class="st5" d="M470.75,68.1999741v-3.1999969h-2.7999878v-2.2000008H467.25v-2.5999985h-3.3999939v2.5999985h-1.7000122
		v-2.5999985h-3.1999817v2.5999985H456.75v2.2000008h-2.7999878v3.1999969H456.75v1.6999969h-2.7999878v3.1999969H456.75v1.6999969
		h-2.7999878v3.2000122H456.75v1.9000015h-2.7999878v3.0999985H456.75v1.6999969h-2.7999878v3.1999969H456.75v1.6999969h-2.7999878
		v3.1999969H456.75v1.6999969h-2.7999878v3.1999969H456.75v1.5h-90v-0.9000015h-16.1000061v0.9000015h-61h-2.7000122h-0.1000061
		v106.8000259h-0.8999939v11.8000031v4.5v1.1000061h0.8999939v126.8999939h-0.8999939l0,0v5.6000061h0.8999939v58.3999939
		h-34.1000061v5.6000061h157.1999817h5.6000061v-5.6000061v-99.1000061h-5.6000061v35.1000061h-14.3999939v5.6000061h8.2999878
		v4.2999878v1.8999939h1.8999939h4.2000122v12.3999939h-14.3999939v1.8999939h14.3999939v38h-40.1000061v-38h12v-1.8999939h-12
		v-0.6000061h-1.8999329v40.3999939h-78.5v-58.2999878H367.75v4.1000061h1.8999939v-0.2000122H369.75v-3.8999939h6.3999939
		v-5.6000061h-0.2000122v-4.2000122v-1.1999817v-0.7000122h-8.2000122v0.7000122v1.2000122v4.2000122h-2.7000122V240.4000092
		v-1.8999939l0,0h-6.8999939v1.8999939h5v109.9999847h-73.7999878V223.3999786h75.6000061v-5.1000061v-0.6000061v-10.6999817
		h-1.8999939v10.8999939h-68.1000061v-11.8999939h-5.6000061V101.8999786h61v5.5999985h12.7000122v85.6000137h1.8999939v-0.6000061
		h3.2000122v-1.8999939h-3.2000122v-83.1000061h1.5v-5.5999985h90v27.9000015v38.0999908h-5h-1.8999939v1.8999939v11.1999969
		h-22.7000122v1.8999939h29.6000061v35h-48.7000122v-5.3000031v-1.8999939h-1.8999939h-5.1000061v-27.8000031h11.6000061v-1.8999939
		h-11.6000061h-1.8999939v1.8999939v7.8999939h-17v1.8999939h17v25.3000031h-14.3999939v5.6000061h19v4.5v1.8999939h1.8999939
		h4.2000122v66.9999847h5.6000061v-73.3999786h50.5v-5.6000061l0,0v-88h1.8999939v-2.6000061h2.7999878v-3.399971h-2.3999634
		v-1.9000015H470.75v-3.0999985h-2.7999878v-1.6999969H470.75v-3.1999969h-2.7999878v-1.6999969H470.75v-3.1999969h-2.7999878
		v-1.6999969H470.75v-3.1999969h-2.7999878v-1.9000015H470.75v-3.1999969h-2.7999878V97.5H470.75v-3.1999969h-2.7999878v-1.6999969
		H470.75v-3.1999969h-2.7999878v-1.6999969H470.75v-3.1999969h-2.7999878v-1.5000381H470.75v-3.1999969h-2.7999878v-1.8000031
		H470.75v-3.1999969h-2.7999878v-1.6999969H470.75v-3.1999969h-2.7999878v-1.6999969H470.75V68.1999741z M405.6500244,360.2999573
		v-4.2999878h4.2000122v4.2999878H405.6500244z M369.6500244,346.1999817h4.3999939v4.2000122h-4.3999939V346.1999817z
		 M401.0500183,212.4999847h5.1000061v5.3000031h-5.1000061V212.4999847z M409.8500061,227.9999847h-4.2000122v-4.5h4.2000122
		V227.9999847z M451.6500244,180.8999786v-11.1999969h5v11.1999969H451.6500244z"/>
</g>
<g id="Doors">
	<path class="st4" d="M412.2000122,181.2999878c0-2.1000061,0.3999939-3.6999969,1.1000061-5.6000061
		c0.7000122-1.8999939,1.8999939-3.6000061,3.2000122-4.8999939c1.2999878-1.5,3-2.6000061,4.8999939-3.3999939
		c1.8999939-0.6999969,3.7000122-1.1000061,5.7999878-1.1000061v15"/>
	<path class="st4" d="M382.7999878,191.0999908c0-2.1000061-0.3999939-3.6999969-1.1000061-5.6000061
		c-0.7000122-1.8999939-1.8999939-3.6000061-3.2000122-4.8999939c-1.2999878-1.5-3-2.6000061-4.8999939-3.3999939
		c-1.8999939-0.6999969-3.7000122-1.1000061-5.7999878-1.1000061v15"/>
	<path class="st4" d="M364.3999939,208.4999847c-2.1000061,0-3.7000122-0.3999939-5.6000061-1.1000061
		c-1.8999939-0.6999969-3.6000061-1.8999939-4.8999939-3.1999969c-1.5-1.3000031-2.6000061-3-3.3999939-4.8999939
		c-0.7000122-1.8999939-1.1000061-3.6999969-1.1000061-5.8000031h15"/>
	<path class="st4" d="M368.6000061,374.2999573c-2.1000061,0-3.7000122-0.3999939-5.6000061-1.1000061
		s-3.6000061-1.8999939-4.8999939-3.2000122c-1.5-1.2999878-2.6000061-3-3.3999939-4.8999939
		c-0.7000122-1.8999939-1.1000061-3.7000122-1.1000061-5.7999878h15"/>
	<path class="st4" d="M381.5,375.2999573c0-2.1000061,0.3999939-3.7000122,1.1000061-5.6000061
		s1.8999939-3.6000061,3.2000122-4.8999939c1.2999878-1.5,3-2.6000061,4.8999939-3.3999939
		c1.8999939-0.7000122,3.7000122-1.1000061,5.7999878-1.1000061v15"/>
	<path class="st4" d="M415.3999939,296.8999634c2.3999939,0,4.7000122,0.6000061,6.8999939,1.5
		c2.2000122,0.8999939,4.5,2.2000122,6.2000122,4.1000061c1.7000122,1.7000122,3.2000122,3.7000122,4.1000061,6
		c0.8999939,2.2000122,1.5,4.7000122,1.5,7.1000061h-18.7000122"/>
</g>
<g id="Furniture_1_">
	<g>
		<g>
			<rect x="301.9985962" y="378.013916" class="st6" width="30.3999939" height="36.1000061"/>
			<path class="st3" d="M302.4985962,378.513916h29.3999939v35.1000061h-29.3999939V378.513916 M301.4985962,377.513916v37.1000061
				h31.3999939V377.513916H301.4985962L301.4985962,377.513916z"/>
		</g>
		<rect x="304.1986084" y="402.8139343" class="st7" width="12.2999878" height="9.2000122"/>
		<rect x="317.9985962" y="402.8139343" class="st7" width="12.2999878" height="9.2000122"/>

			<rect x="306.7282715" y="398.686554" transform="matrix(0.2588077 -0.9659289 0.9659289 0.2588077 -158.7919769 599.633606)" class="st8" width="9.1997375" height="9.1997375"/>

			<rect x="318.5978699" y="398.6950989" transform="matrix(0.9659289 -0.2588077 0.2588077 0.9659289 -93.3641281 97.3867722)" class="st8" width="9.1997375" height="9.1997375"/>
		<g>
			<polygon class="st6" points="301.9985962,404.4139404 301.9985962,377.6139221 332.3986206,377.6139221 332.3986206,406.3139343
				320.3986206,407.1139221 			"/>
			<path class="st3" d="M331.8986206,378.1139221v27.7000122l-11.5,0.7000122l-17.8999939-2.6000061v-25.8999939h29.3999939
				 M332.8986206,377.1139221h-31.3999939v27.5v0.2000122l18.7999878,2.7000122l12.6000061-0.7999878v-0.5000305V377.1139221
				L332.8986206,377.1139221z"/>
		</g>
		<polyline class="st9" points="332.4985962,405.9139404 320.1986084,405.9139404 301.8986206,404.3139343 		"/>
	</g>
	<g id="TV">
		<g id="Rectangle_17_2_">
			<rect x="302.1986084" y="356.4639282" class="st6" width="28.2000122" height="5.1000061"/>
			<path class="st3" d="M329.8986206,356.9639282v4.1000061h-27.2000122v-4.1000061H329.8986206 M330.8986206,355.9639282
				h-29.2000122v6.1000061h29.2000122V355.9639282L330.8986206,355.9639282z"/>
		</g>
		<rect id="Rectangle_17" x="307.8986206" y="357.9639282" class="st7" width="16.7999878" height="1.6000061"/>
		<path id="Rectangle_18_x5F_2" class="st7" d="M312.7986145,357.9639282h7.1000061l-0.6000061-1.5h-5.7999878
			L312.7986145,357.9639282z"/>
	</g>
	<g>
		<g>
			<rect x="443.8021545" y="103.1139374" class="st6" width="7.2999878" height="64.3000031"/>
			<path class="st3" d="M444.3021545,103.6139374h6.2999878v63.2999878h-6.2999878V103.6139374 M443.3021545,102.6139374v65.3000031
				h8.2999878V102.613945L443.3021545,102.6139374L443.3021545,102.6139374z"/>
		</g>
		<g>
			<rect x="445.6021423" y="103.1139374" class="st6" width="10.3999939" height="64.3000031"/>
			<path class="st3" d="M446.1021423,103.6139374h9.3999939v63.2999878h-9.3999939V103.6139374 M445.1021423,102.6139374v65.3000031
				h11.3999939V102.613945L445.1021423,102.6139374L445.1021423,102.6139374z"/>
		</g>
		<path class="st7" d="M456.0021667,167.4139252l-10.2999878-64.3999939"/>
	</g>
	<g>
		<g>
			<rect x="352.1973572" y="113.0139389" class="st6" width="7.2999878" height="29.6000137"/>
			<path class="st3" d="M358.9973755,113.5139389v28.5999985h-6.2999878v-28.5999908h6.2999878 M359.9973755,112.5139389h-8.2999878
				v30.5999985h8.2999878V112.5139389L359.9973755,112.5139389z"/>
		</g>
		<g>
			<rect x="353.8973694" y="113.0139389" class="st6" width="8.6000061" height="29.6000137"/>
			<path class="st3" d="M362.0973511,113.5139389v28.5999985h-7.6000061v-28.5999908h7.6000061 M363.0973511,112.5139389h-9.6000061
				v30.5999985h9.6000061V112.5139389L363.0973511,112.5139389z"/>
		</g>
		<path class="st7" d="M362.5973511,142.9139252l-8.7000122-30.0999908"/>
	</g>
	<g>
		<g>
			<rect x="386.1960144" y="193.198349" class="st6" width="7.2999878" height="24.3016052"/>
			<path class="st3" d="M392.9960022,193.698349v23.3016052h-6.2999878V193.698349H392.9960022 M393.9960022,192.698349h-8.2999878
				v25.3016052h8.2999878V192.698349L393.9960022,192.698349z"/>
		</g>
		<g>
			<rect x="387.8960266" y="193.198349" class="st6" width="10.3999939" height="24.3016052"/>
			<path class="st3" d="M397.8960266,193.698349v23.3016052h-9.3999939V193.698349H397.8960266 M398.8960266,192.698349h-11.3999939
				v25.3016052h11.3999939V192.698349L398.8960266,192.698349z"/>
		</g>
		<path class="st7" d="M398.2960205,217.799942l-10.2999878-25.0016022"/>
	</g>
	<g>
		<g>
			<rect x="295.5010681" y="205.3139343" class="st6" width="39.2000122" height="7.3000031"/>
			<path class="st3" d="M334.2010498,205.8139343v6.3000031h-38.2000122v-6.3000031H334.2010498 M335.2010498,204.8139343
				h-40.2000122v8.3000031h40.2000122V204.8139343L335.2010498,204.8139343z"/>
		</g>
		<g>
			<rect x="295.5010681" y="207.0139313" class="st6" width="39.2000122" height="10.3999939"/>
			<path class="st3" d="M334.2010498,207.5139313v9.3999939h-38.2000122v-9.3999939H334.2010498 M335.2010498,206.5139313
				h-40.2000122v11.3999939h40.2000122V206.5139313L335.2010498,206.5139313z"/>
		</g>
		<path class="st7" d="M295.3010559,217.4139252l39.6000061-10.3000031"/>
	</g>
	<g>
		<g>
			<rect x="397.3986206" y="319.4703979" class="st6" width="7.2999878" height="30.2999878"/>
			<path class="st3" d="M404.1986084,319.9703979v29.2999878h-6.2999878v-29.2999878H404.1986084 M405.1986084,318.9703979
				h-8.2999878v31.2999878h8.2999878V318.9703979L405.1986084,318.9703979z"/>
		</g>
		<g>
			<rect x="399.0986023" y="319.4703979" class="st6" width="10.3999939" height="30.2999878"/>
			<path class="st3" d="M399.5986023,319.9703979h9.3999939v29.2999878h-9.3999939V319.9703979 M398.5986023,318.9703979v31.2999878
				h11.3999939v-31.2999878H398.5986023L398.5986023,318.9703979z"/>
		</g>
		<path class="st7" d="M409.4985962,349.9703979l-10.2999878-30.8000183"/>
	</g>
	<g>
		<g>
			<rect x="402.9985962" y="282.1139221" class="st6" width="2" height="9.7999878"/>
			<path class="st3" d="M404.4985962,282.6139221v8.7999878h-1v-8.7999878H404.4985962 M405.4985962,281.6139221h-3v10.7999878h3
				V281.6139221L405.4985962,281.6139221z"/>
		</g>
		<g>
			<rect x="404.7986145" y="282.1139221" class="st6" width="4.2999878" height="9.7999878"/>
			<path class="st3" d="M408.5986023,282.6139221v8.7999878h-3.2999878v-8.7999878H408.5986023 M409.5986023,281.6139221h-5.2999878
				v10.7999878h5.2999878V281.6139221L409.5986023,281.6139221z"/>
		</g>
		<path class="st7" d="M409.0986023,292.1139221l-4.3999939-10.2000122"/>
	</g>
	<g>
		<g>
			<rect x="289.8907471" y="223.8956757" class="st6" width="13" height="26.6999969"/>
			<path class="st3" d="M302.3907471,224.3956757v25.6999969h-12v-25.6999969H302.3907471 M303.3907471,223.3956757h-14v27.6999969
				h14V223.3956757L303.3907471,223.3956757z"/>
		</g>
		<g>
			<rect x="296.8907471" y="223.8956757" class="st6" width="19.7999878" height="13"/>
			<path class="st3" d="M316.1907654,224.3956757v12h-18.7999878v-12H316.1907654 M317.1907654,223.3956757h-20.7999878v14
				h20.7999878V223.3956757L317.1907654,223.3956757z"/>
		</g>
		<g>
			<rect x="289.8907471" y="223.8956757" class="st6" width="15" height="13"/>
			<path class="st3" d="M304.3907471,224.3956757v12h-14v-12H304.3907471 M305.3907471,223.3956757h-16v14h16V223.3956757
				L305.3907471,223.3956757z"/>
		</g>
		<g>
			<polygon class="st6" points="289.8907471,242.6956787 289.8907471,223.8956757 304.8907471,223.8956757 304.8907471,236.8956757
				302.8907471,236.8956757 302.8907471,242.6956787 			"/>
			<path class="st3" d="M304.3907471,224.3956757v12h-1h-1v1v4.8000031h-12v-4.8000031v-13h13H304.3907471 M305.3907471,223.3956757
				h-2h-14v14v5.8000031h14v-5.8000031h2V223.3956757L305.3907471,223.3956757z"/>
		</g>
		<g>
			<line class="st9" x1="308.8907471" y1="237.3956757" x2="308.8907471" y2="223.3956757"/>
		</g>
		<g>
			<line class="st9" x1="312.790741" y1="237.3956757" x2="312.790741" y2="223.3956757"/>
		</g>
		<g>
			<line class="st9" x1="289.3907471" y1="246.5956879" x2="303.3907471" y2="246.5956879"/>
		</g>
		<g>
			<line class="st9" x1="289.3907471" y1="250.4956818" x2="303.3907471" y2="250.4956818"/>
		</g>
		<g>
			<rect x="316.6907654" y="223.8956757" class="st6" width="3.8999939" height="13"/>
			<path class="st3" d="M320.0907593,224.3956757v12h-2.8999939v-12H320.0907593 M321.0907593,223.3956757h-4.8999939v14h4.8999939
				V223.3956757L321.0907593,223.3956757z"/>
		</g>
		<g>
			<rect x="320.5907593" y="223.8956757" class="st6" width="3.8999939" height="13"/>
			<path class="st3" d="M323.9907532,224.3956757v12h-2.8999939v-12H323.9907532 M324.9907532,223.3956757h-4.8999939v14h4.8999939
				V223.3956757L324.9907532,223.3956757z"/>
		</g>
		<g>
			<rect x="324.4907532" y="223.8956757" class="st6" width="3.8999939" height="13"/>
			<path class="st3" d="M327.8907471,224.3956757v12h-2.8999939v-12H327.8907471 M328.8907471,223.3956757h-4.8999939v14h4.8999939
				V223.3956757L328.8907471,223.3956757z"/>
		</g>
		<g>
			<rect x="328.3907471" y="223.8956757" class="st6" width="3.8999939" height="13"/>
			<path class="st3" d="M331.790741,224.3956757v12h-2.8999939v-12H331.790741 M332.790741,223.3956757h-4.8999939v14h4.8999939
				V223.3956757L332.790741,223.3956757z"/>
		</g>
		<g>
			<rect x="332.290741" y="223.8956757" class="st6" width="3.8999939" height="13"/>
			<path class="st3" d="M335.6907654,224.3956757v12h-2.8999939v-12H335.6907654 M336.6907654,223.3956757h-4.8999939v14h4.8999939
				V223.3956757L336.6907654,223.3956757z"/>
		</g>
		<g>
			<rect x="336.1907654" y="223.8956757" class="st6" width="3.8999939" height="13"/>
			<path class="st3" d="M339.5907593,224.3956757v12h-2.8999939v-12H339.5907593 M340.5907593,223.3956757h-4.8999939v14h4.8999939
				V223.3956757L340.5907593,223.3956757z"/>
		</g>
		<g>
			<rect x="340.0907593" y="223.8956757" class="st6" width="3.8999939" height="13"/>
			<path class="st3" d="M343.4907532,224.3956757v12h-2.8999939v-12H343.4907532 M344.4907532,223.3956757h-4.8999939v14h4.8999939
				V223.3956757L344.4907532,223.3956757z"/>
		</g>
		<g>
			<rect x="343.9907532" y="223.8956757" class="st6" width="3.8999939" height="13"/>
			<path class="st3" d="M347.3907471,224.3956757v12h-2.8999939v-12H347.3907471 M348.3907471,223.3956757h-4.8999939v14h4.8999939
				V223.3956757L348.3907471,223.3956757z"/>
		</g>
		<g>
			<rect x="347.8907471" y="223.8956757" class="st6" width="3.8999939" height="13"/>
			<path class="st3" d="M351.290741,224.3956757v12h-2.8999939v-12H351.290741 M352.290741,223.3956757h-4.8999939v14h4.8999939
				V223.3956757L352.290741,223.3956757z"/>
		</g>
		<g>
			<rect x="351.790741" y="223.8956757" class="st6" width="3.8999939" height="13"/>
			<path class="st3" d="M355.1907654,224.3956757v12h-2.8999939v-12H355.1907654 M356.1907654,223.3956757h-4.8999939v14h4.8999939
				V223.3956757L356.1907654,223.3956757z"/>
		</g>
		<g>
			<rect x="355.6907654" y="223.8956757" class="st6" width="3.8999939" height="13"/>
			<path class="st3" d="M359.0907593,224.3956757v12h-2.8999939v-12H359.0907593 M360.0907593,223.3956757h-4.8999939v14h4.8999939
				V223.3956757L360.0907593,223.3956757z"/>
		</g>
		<g>
			<rect x="359.5907593" y="223.8956757" class="st6" width="3.8999939" height="13"/>
			<path class="st3" d="M362.9907532,224.3956757v12h-2.8999939v-12H362.9907532 M363.9907532,223.3956757h-4.8999939v14h4.8999939
				V223.3956757L363.9907532,223.3956757z"/>
		</g>
	</g>
	<g>
		<circle class="st6" cx="343.5986023" cy="128.0139313" r="5.7000055"/>
		<path class="st3" d="M343.5986023,122.8139343c2.8999939,0,5.2000122,2.3000031,5.2000122,5.1999969
			s-2.2999878,5.1999969-5.2000122,5.1999969s-5.2000122-2.3000031-5.2000122-5.1999969
			C338.4985962,125.1139374,340.7986145,122.8139343,343.5986023,122.8139343 M343.5986023,121.8139343
			c-3.3999939,0-6.2000122,2.8000031-6.2000122,6.1999969s2.7999878,6.1999969,6.2000122,6.1999969
			s6.2000122-2.8000031,6.2000122-6.1999969S347.0986023,121.8139343,343.5986023,121.8139343L343.5986023,121.8139343z"/>
	</g>
	<g>
		<g>
			<rect x="423.3039856" y="204.3983459" class="st6" width="32.7000122" height="13"/>
			<path class="st3" d="M455.5039978,204.8983459v12h-31.7000122v-12H455.5039978 M456.5039978,203.8983459h-33.7000122v14
				h33.7000122V203.8983459L456.5039978,203.8983459z"/>
		</g>
		<g>
			<g>
				<path class="st10" d="M453.4039917,210.9983521c0-2.6000061-2.2000122-4.6000061-4.7999878-4.3999939
					c-2.7999878,0.3000031-6.2999878,0.5-9,0.5c-2.6000061,0-6.1000061-0.3000031-9-0.5
					c-2.6000061-0.1999969-4.7999878,1.8000031-4.7999878,4.3999939s2.2000122,4.6000061,4.7999878,4.3999939
					c2.7999878-0.3000031,6.2999878-0.5,9-0.5c2.6000061,0,6.1000061,0.3000031,9,0.5
					C451.2039795,215.4983521,453.4039917,213.4983521,453.4039917,210.9983521z"/>
				<ellipse class="st10" cx="448.9039917" cy="210.9983521" rx="0.7999878" ry="0.8000031"/>
			</g>
		</g>
	</g>
	<g id="Sink_2">
		<g id="Rectangle_16_x5F_11">
			<rect x="402.1084595" y="382.4499817" class="st6" width="7.3999939" height="12.2999878"/>
			<path class="st3" d="M402.6084595,382.9499817v11.2999878h6.3999939v-11.2999878H402.6084595 M401.6084595,381.9499817h8.3999939
				v13.2999878h-8.3999939V381.9499817L401.6084595,381.9499817z"/>
		</g>
		<path id="Rectangle_19_x5F_5" class="st7" d="M405.8084717,391.9499817L405.8084717,391.9499817
			c-1.2000122,0-2.2000122-0.8999939-2.2000122-2v-2.7999878c0-1.1000061,1-2,2.2000122-2l0,0
			c1.2000122,0,2.2000122,0.8999939,2.2000122,2v2.7999878
			C408.0084534,391.1499939,407.0084534,391.9499817,405.8084717,391.9499817z"/>
		<circle id="Ellipse_7_x5F_2" class="st7" cx="406.0084534" cy="388.6499939" r="0.7999878"/>
	</g>
	<g id="Toilet_1_">
		<g id="Rectangle_21_1_">
			<rect x="398.5110779" y="411.5028076" class="st6" width="11" height="2.3999939"/>
			<path class="st3" d="M409.0110779,412.0028076v1.3999939h-10v-1.3999939H409.0110779 M410.0110779,411.0028076h-12v3.3999939h12
				V411.0028076L410.0110779,411.0028076z"/>
		</g>
		<path id="Rectangle_19_x5F_2_1_" class="st7" d="M407.8110657,404.5028076c0.1000061-2.2000122-1.6000061-4-3.7999878-4l0,0
			c-2.2000122,0-3.8999939,1.7999878-3.7999878,4l0.5,7h6.6000061L407.8110657,404.5028076z"/>
		<path id="Rectangle_18_x5F_13_1_" class="st7" d="M406.1110535,404.8027954
			c0.1000061-1.2000122-0.8999939-2.2999878-2.1000061-2.2999878l0,0c-1.2000122,0-2.2000122,1.1000061-2.1000061,2.2999878
			l0.2999878,3.2999878h3.6000061L406.1110535,404.8027954z"/>
		<ellipse id="Ellipse_6_x5F_2_1_" class="st7" cx="404.0110779" cy="406.1028137" rx="0.7999878" ry="0.7999878"/>
	</g>
	<g>
		<g>
			<rect x="401.2976074" y="183.3996124" class="st6" width="7.3999939" height="11.3000031"/>
			<path class="st3" d="M408.1976013,183.8996124v10.3000031h-6.3999939v-10.3000031H408.1976013 M409.1976013,182.8996124
				h-8.3999939v12.3000031h8.3999939V182.8996124L409.1976013,182.8996124z"/>
		</g>
		<g>
			<path class="st6" d="M404.9975891,191.2996063c-1.2000122,0-2.2000122-1-2.2000122-2.1999969s1-2.1999969,2.2000122-2.1999969
				s2.2000122,1,2.2000122,2.1999969S406.1976013,191.2996063,404.9975891,191.2996063z"/>
			<path class="st3" d="M404.9975891,187.2996063c1,0,1.7000122,0.8000031,1.7000122,1.6999969
				s-0.7999878,1.6999969-1.7000122,1.6999969s-1.7000122-0.8000031-1.7000122-1.6999969
				S403.9975891,187.2996063,404.9975891,187.2996063 M404.9975891,186.2996063c-1.5,0-2.7000122,1.1999969-2.7000122,2.6999969
				s1.2000122,2.6999969,2.7000122,2.6999969s2.7000122-1.1999969,2.7000122-2.6999969
				S406.4975891,186.2996063,404.9975891,186.2996063L404.9975891,186.2996063z"/>
		</g>
	</g>
	<g id="Sink_2_1_">
		<g id="Rectangle_16_x5F_11_1_">
			<rect x="401.3976135" y="196.8139343" class="st6" width="7.3999939" height="12.3000031"/>
			<path class="st3" d="M408.1976013,197.3139343v11.3000031h-6.3999939v-11.3000031H408.1976013 M409.1976013,196.3139343
				h-8.3999939v13.3000031h8.3999939V196.3139343L409.1976013,196.3139343z"/>
		</g>
		<path id="Rectangle_19_x5F_5_1_" class="st7" d="M404.9976196,206.3139343L404.9976196,206.3139343
			c1.2000122,0,2.2000122-0.8999939,2.2000122-2v-2.8000031c0-1.1000061-1-2-2.2000122-2l0,0
			c-1.2000122,0-2.2000122,0.8999939-2.2000122,2v2.8000031
			C402.7976074,205.4139252,403.7976074,206.3139343,404.9976196,206.3139343z"/>
		<circle id="Ellipse_7_x5F_2_1_" class="st7" cx="404.7976074" cy="202.9139252" r="0.7999954"/>
	</g>
	<g id="Toilet_4_">
		<g id="Rectangle_21_4_">
			<rect x="453.6029053" y="186.2139282" class="st6" width="2.3999939" height="11"/>
			<path class="st3" d="M455.5029297,186.7139282v10h-1.3999939v-10H455.5029297 M456.5029297,185.7139282h-3.3999939v12h3.3999939
				V185.7139282L456.5029297,185.7139282z"/>
		</g>
		<path id="Rectangle_19_x5F_2_4_" class="st7" d="M446.6029053,195.5139313c-2.2000122,0.1000061-4-1.6000061-4-3.8000031l0,0
			c0-2.1999969,1.7999878-3.8999939,4-3.8000031l7,0.5v6.6000061L446.6029053,195.5139313z"/>
		<path id="Rectangle_18_x5F_13_4_" class="st7" d="M446.9029236,193.8139343
			c-1.2000122,0.1000061-2.2999878-0.8999939-2.2999878-2.1000061l0,0c0-1.1999969,1.1000061-2.1999969,2.2999878-2.1000061
			l3.2999878,0.3000031v3.6000061L446.9029236,193.8139343z"/>
		<ellipse id="Ellipse_6_x5F_2_4_" class="st7" cx="448.2029114" cy="191.7139282" rx="0.7999878" ry="0.8000031"/>
	</g>
	<g>
		<g>
			<rect x="326.5090637" y="148.5139313" class="st6" width="36.1000061" height="30.3999939"/>
			<path class="st3" d="M362.1090393,149.0139313v29.3999939h-35.1000061v-29.3999939H362.1090393 M363.1090393,148.0139313
				h-37.1000061v31.3999939h37.1000061V148.0139313L363.1090393,148.0139313z"/>
		</g>
		<rect x="351.3090515" y="164.5139313" class="st7" width="9.2000122" height="12.3000031"/>
		<rect x="351.3090515" y="150.7139282" class="st7" width="9.2000122" height="12.3000031"/>

			<rect x="347.1656494" y="164.967453" transform="matrix(0.2588077 -0.9659289 0.9659289 0.2588077 96.9359283 465.4624329)" class="st8" width="9.1997375" height="9.1997223"/>

			<rect x="347.1887817" y="153.0981293" transform="matrix(0.9659289 -0.2588077 0.2588077 0.9659289 -28.8276157 96.4185562)" class="st8" width="9.1997375" height="9.1997223"/>
		<g>
			<polygon class="st6" points="326.1090393,178.9139252 326.1090393,148.5139313 354.8090515,148.5139313 355.6090393,160.5139313
				352.9090576,178.9139252 			"/>
			<path class="st3" d="M354.4090576,149.0139313l0.7000122,11.5l-2.6000061,17.8999939h-25.8999939v-29.3999939H354.4090576
				 M355.3090515,148.0139313h-0.6000061h-29.1000061v31.3999939h27.5h0.2000122l2.7000122-18.8000031L355.3090515,148.0139313
				L355.3090515,148.0139313z"/>
		</g>
		<polyline class="st9" points="354.4090576,148.4139252 354.4090576,160.7139282 352.8090515,179.0139313 		"/>
	</g>
	<g>
		<g>
			<rect x="365.4807129" y="112.6639328" class="st6" width="36.1000061" height="30.4000015"/>
			<path class="st3" d="M401.080719,113.1639328v29.4000015h-35.1000061v-29.4000092h35.1000061 M402.080719,112.1639328
				h-37.1000061v31.4000015h37.1000061V112.1639328L402.080719,112.1639328z"/>
		</g>
		<rect x="367.6806946" y="128.6639404" class="st7" width="9.2000122" height="12.3000031"/>
		<rect x="367.6806946" y="114.8639297" class="st7" width="9.2000122" height="12.3000031"/>

			<rect x="371.7617798" y="129.1562958" transform="matrix(0.9659289 -0.2588077 0.2588077 0.9659289 -21.7940521 101.9625092)" class="st8" width="9.1997375" height="9.1997223"/>

			<rect x="371.7980957" y="117.315506" transform="matrix(0.2588077 -0.9659289 0.9659289 0.2588077 161.2217102 453.9364014)" class="st8" width="9.1997375" height="9.1997223"/>
		<g>
			<polygon class="st6" points="375.1806946,143.0639343 372.4807129,124.7639313 373.2807007,112.6639328 401.9807129,112.6639328
				401.9807129,143.0639343 			"/>
			<path class="st3" d="M401.4807129,113.1639328v29.4000015H375.580719l-2.6000061-17.9000092l0.7000122-11.5h27.7999878
				 M402.4807129,112.1639328h-29.1000061h-0.6000061l-0.7999878,12.5999985l2.7000122,18.8000031h0.2000122h27.5v-31.4000015
				H402.4807129z"/>
		</g>
		<polyline class="st9" points="373.7807007,112.5639343 373.7807007,124.8639297 375.2807007,143.2639465 		"/>
	</g>
	<g>
		<g>
			<rect x="370.3956909" y="381.1954956" class="st6" width="13" height="32.7000122"/>
			<path class="st3" d="M382.8956909,413.3955078h-12v-31.7000122h12V413.3955078 M383.8956909,414.3955078v-33.7000122h-14
				v33.7000122H383.8956909L383.8956909,414.3955078z"/>
		</g>
		<g>
			<g>
				<path class="st10" d="M376.7956848,411.2955017c2.6000061,0,4.6000061-2.2000122,4.3999939-4.7999878
					c-0.2999878-2.7999878-0.5-6.2999878-0.5-9c0-2.6000061,0.3000183-6.1000061,0.5-9
					c0.2000122-2.6000061-1.7999878-4.7999878-4.3999939-4.7999878c-2.5999756,0-4.6000061,2.2000122-4.3999939,4.7999878
					c0.3000183,2.7999878,0.5,6.2999878,0.5,9c0,2.6000061-0.2999878,6.1000061-0.5,9
					C372.2956848,409.0954895,374.2956848,411.2955017,376.7956848,411.2955017z"/>
				<ellipse class="st10" cx="376.7956848" cy="406.7955017" rx="0.8000183" ry="0.7999878"/>
			</g>
		</g>
	</g>
	<g id="Arrow">
		<g>
			<g>
				<polygon class="st3" points="299.2578735,253.8291321 296.3526001,242.9883118 293.4473572,253.8291321 				"/>
			</g>
		</g>
	</g>
	<g id="Arrow_2_">
		<g id="Arrow_1_">
			<g>
				<g>
					<line class="st9" x1="345.8389587" y1="230.3956604" x2="360.7232971" y2="230.3956604"/>
					<g>
						<polygon class="st3" points="358.7418518,233.3009338 369.5826721,230.3956604 358.7418518,227.4904022 						"/>
					</g>
				</g>
			</g>
		</g>
		<circle class="st3" cx="346.2306213" cy="230.3956604" r="1.4173279"/>
	</g>
</g>
<g id="Numbers">
	<g>
		<path class="st5" d="M385.5,298.6999817c0.7999878,0,1.3999939,0.2999878,1.7999878,0.8999939
			s0.6000061,1.3999939,0.6000061,2.2999878c0,0.5-0.1000061,1-0.2000122,1.3999939s-0.2999878,0.7999878-0.5,1.2000122
			c-0.2000122,0.2999878-0.5,0.6000061-0.8999939,0.7999878c-0.3999939,0.2000122-0.7999878,0.2999878-1.2000122,0.2999878
			c-0.7000122,0-1.2999878-0.2000122-1.7999878-0.6000061l0.3999939-0.7999878c0.3999939,0.2999878,0.8999939,0.5,1.2999878,0.5
			c0.6000061,0,1-0.2000122,1.2999878-0.7000122s0.5-1,0.5-1.7000122c-0.2000122,0.2999878-0.3999939,0.5-0.7000122,0.6000061
			s-0.6000061,0.2000122-1,0.2000122c-0.6000061,0-1.1000061-0.2000122-1.5-0.6000061s-0.6000061-0.8999939-0.6000061-1.5
			s0.2000122-1.2000122,0.6000061-1.6000061C384.2999878,298.8999634,384.7999878,298.6999817,385.5,298.6999817z
			 M386.7999878,300.8999634c0-0.3999939-0.1000061-0.7000122-0.3999939-0.8999939
			c-0.2000122-0.2999878-0.5-0.3999939-0.8999939-0.3999939s-0.7000122,0.1000061-0.8999939,0.3999939
			c-0.2000122,0.2999878-0.3999939,0.6000061-0.3999939,0.8999939c0,0.3999939,0.1000061,0.7000122,0.3999939,0.8999939
			c0.2000122,0.2000122,0.5,0.3999939,0.8999939,0.3999939s0.7000122-0.1000061,0.8999939-0.3999939
			C386.6000061,301.5999756,386.7999878,301.2999573,386.7999878,300.8999634z"/>
		<path class="st5" d="M389.2000122,305.5999756c-0.2000122,0-0.2999878-0.1000061-0.5-0.2000122
			c-0.1000061-0.1000061-0.2000122-0.2999878-0.2000122-0.5s0.1000061-0.2999878,0.2000122-0.3999939
			s0.2999878-0.2000122,0.5-0.2000122s0.2999878,0.1000061,0.3999939,0.2000122s0.2000122,0.2999878,0.2000122,0.3999939
			c0,0.2000122-0.1000061,0.2999878-0.2000122,0.5C389.5,305.4999695,389.3999939,305.5999756,389.2000122,305.5999756z"/>
		<path class="st5" d="M393.2000122,301.0999756c0.6000061,0,1.1000061,0.2000122,1.5,0.6000061s0.6000061,0.8999939,0.6000061,1.5
			s-0.2000122,1.2000122-0.7000122,1.6000061c-0.3999939,0.3999939-1,0.6000061-1.7000122,0.6000061
			c-0.7999878,0-1.3999939-0.2999878-1.7999878-0.8999939S390.5,303.1000061,390.5,302.2000122
			c0-0.6000061,0.1000061-1.2000122,0.2999878-1.7999878s0.5-1,0.8999939-1.2999878c0.3999939-0.3999939,1-0.5,1.6000061-0.5
			c0.7000122,0,1.2999878,0.2000122,1.7000122,0.6000061l-0.3999939,0.7999878
			c-0.3999939-0.2999878-0.7999878-0.3999939-1.2000122-0.3999939c-0.3999939,0-0.7000122,0.1000061-1,0.3999939
			c-0.5,0.5-0.7999878,1.2000122-0.7999878,2.1000061c0.2000122-0.2999878,0.3999939-0.5,0.7000122-0.7000122
			S392.7999878,301.0999756,393.2000122,301.0999756z M393,304.5999756c0.3999939,0,0.7000122-0.1000061,0.8999939-0.3999939
			c0.2000122-0.2999878,0.3999939-0.6000061,0.3999939-0.8999939c0-0.3999939-0.1000061-0.7000122-0.3999939-0.8999939
			C393.6999817,302.1999817,393.3999939,302,393,302s-0.7000122,0.1000061-0.8999939,0.3999939
			c-0.2000122,0.2000122-0.3999939,0.6000061-0.3999939,0.8999939c0,0.3999939,0.1000061,0.7000122,0.3999939,0.8999939
			C392.3999939,304.4999695,392.7000122,304.5999756,393,304.5999756z"/>
	</g>
	<g class="st11">
		<path class="st5" d="M308.6000061,134.9999847L307,136.7999878h2.7000122v1H305.5v-0.8999939l2.1000061-2.3000031l0.5-0.6000061
			c0.1000061-0.1000061,0.2000122-0.3000031,0.2999878-0.5S308.5,133.0999908,308.5,132.8999786
			c0-0.3000031-0.1000061-0.5-0.2999878-0.6999969c-0.2000122-0.1999969-0.5-0.3000031-0.7999878-0.3000031
			c-0.5,0-1,0.1999969-1.6000061,0.6999969l-0.6000061-0.6999969c0.7000122-0.6000061,1.3999939-1,2.2000122-1
			c0.6000061,0,1.1000061,0.1999969,1.5,0.6000061c0.3999939,0.3999939,0.6000061,0.8999939,0.6000061,1.3999939
			C309.6000061,133.5999908,309.2999878,134.2999878,308.6000061,134.9999847z"/>
		<path class="st5" d="M310.2000122,132.6999817l1.8999939-1.6000061h0.7999878v6.6999969h-1v-5.3000031l-1.2000122,0.8999939
			L310.2000122,132.6999817z"/>
		<path class="st5" d="M314.7999878,137.8999786c-0.2000122,0-0.2999878-0.1000061-0.5-0.1999969
			c-0.1000061-0.1000061-0.2000122-0.3000031-0.2000122-0.5s0.1000061-0.3000031,0.2000122-0.3999939
			c0.1000061-0.1000061,0.2999878-0.1999969,0.5-0.1999969s0.2999878,0.1000061,0.3999939,0.1999969
			c0.1000061,0.1000061,0.2000122,0.3000031,0.2000122,0.3999939c0,0.1999969-0.1000061,0.3000031-0.2000122,0.5
			C315.1000061,137.7999878,315,137.8999786,314.7999878,137.8999786z"/>
		<path class="st5" d="M319.3999939,134.9999847l-1.6000061,1.8000031H320.5v1h-4.2000122v-0.8999939l2.1000061-2.3000031
			l0.5-0.6000061c0.1000061-0.1000061,0.2000122-0.3000031,0.2999878-0.5s0.1000061-0.3999939,0.1000061-0.6000061
			c0-0.3000031-0.1000061-0.5-0.2999878-0.6999969c-0.2000122-0.1999969-0.5-0.3000031-0.7999878-0.3000031
			c-0.5,0-1,0.1999969-1.6000061,0.6999969L316,131.8999786c0.7000122-0.6000061,1.3999939-1,2.2000122-1
			c0.6000061,0,1.1000061,0.1999969,1.5,0.6000061c0.3999939,0.3999939,0.6000061,0.8999939,0.6000061,1.3999939
			C320.3999939,133.5999908,320.1000061,134.2999878,319.3999939,134.9999847z"/>
	</g>
	<g class="st11">
		<path class="st5" d="M414,129.9999847l1.8999939-1.6000061h0.7999878v6.6999969h-1v-5.3000031l-1.2000122,0.8999939
			L414,129.9999847z"/>
		<path class="st5" d="M420.2000122,128.2999878c0.7999878,0,1.3999939,0.3000031,1.7999878,0.8999939
			c0.3999939,0.6000061,0.6000061,1.3999939,0.6000061,2.3000031c0,0.5-0.1000061,1-0.2000122,1.3999939
			s-0.2999878,0.8000031-0.5,1.1999969c-0.2000122,0.3000031-0.5,0.6000061-0.8999939,0.8000031
			s-0.7999878,0.3000031-1.2000122,0.3000031c-0.7000122,0-1.2999878-0.1999969-1.7999878-0.6000061l0.3999939-0.8000031
			c0.3999939,0.3000031,0.8999939,0.5,1.2999878,0.5c0.6000061,0,1-0.1999969,1.2999878-0.6999969s0.5-1,0.5-1.6999969
			c-0.2000122,0.3000031-0.3999939,0.5-0.7000122,0.6000061s-0.6000061,0.1999969-1,0.1999969
			c-0.6000061,0-1.1000061-0.1999969-1.5-0.6000061c-0.3999939-0.3999939-0.6000061-0.8999939-0.6000061-1.5
			s0.2000122-1.1999969,0.6000061-1.6000061C419,128.4999847,419.5,128.2999878,420.2000122,128.2999878z M421.3999939,130.4999847
			c0-0.3999939-0.1000061-0.6999969-0.3999939-0.8999939c-0.2000122-0.3000031-0.5-0.3999939-0.8999939-0.3999939
			s-0.7000122,0.1000061-0.8999939,0.3999939c-0.2000122,0.3000031-0.3999939,0.6000061-0.3999939,0.8999939
			c0,0.3999939,0.1000061,0.6999969,0.3999939,0.8999939c0.2000122,0.1999969,0.5,0.3999939,0.8999939,0.3999939
			s0.7000122-0.1000061,0.8999939-0.3999939C421.2999878,131.1999817,421.3999939,130.7999878,421.3999939,130.4999847z"/>
		<path class="st5" d="M423.8999939,135.1999817c-0.2000122,0-0.2999878-0.1000061-0.5-0.1999969
			c-0.1000061-0.1000061-0.2000122-0.3000031-0.2000122-0.5s0.1000061-0.3000031,0.2000122-0.3999939
			c0.1000061-0.1000061,0.2999878-0.1999969,0.5-0.1999969s0.2999878,0.1000061,0.3999939,0.1999969
			c0.1000061,0.1000061,0.2000122,0.3000031,0.2000122,0.3999939c0,0.1999969-0.1000061,0.3000031-0.2000122,0.5
			C424.2000122,135.0999908,424.1000061,135.1999817,423.8999939,135.1999817z"/>
		<path class="st5" d="M429.2999878,132.4999847H430v0.8999939h-0.7000122v1.6000061h-1v-1.6000061h-3l-0.2000122-0.6000061
			l3.6000061-4.3999939h0.7000122v4.1000061H429.2999878z M428.2999878,130.0999908l-2,2.3999939h2V130.0999908z"/>
	</g>
	<g class="st11">
		<path class="st5" d="M428.7999878,191.7999878c0.6000061,0,1.2000122,0.1999969,1.6000061,0.6000061S431,193.2999878,431,194
			c0,0.6999969-0.2000122,1.1999969-0.7000122,1.6000061c-0.3999939,0.3999939-1,0.6000061-1.7000122,0.6000061
			c-0.7999878,0-1.5-0.3000031-2.2000122-0.8000031l0.5-0.8000031c0.6000061,0.3999939,1.1000061,0.6000061,1.7000122,0.6000061
			c0.3999939,0,0.7000122-0.1000061,1-0.3999939c0.2999878-0.1999969,0.3999939-0.5,0.3999939-0.8999939
			s-0.1000061-0.6999969-0.3999939-0.8999939c-0.2000122-0.1999969-0.6000061-0.3999939-1-0.3999939
			c-0.5,0-0.8999939,0.1999969-1.2000122,0.5l-0.6000061-0.3999939l0.3999939-3.3000031h3.3999939v0.8999939H428
			l-0.2000122,1.6000061C428.1000061,191.8999786,428.5,191.7999878,428.7999878,191.7999878z"/>
	</g>
	<g class="st11">
		<path class="st5" d="M342.2999878,389.4999695l1.8999939-1.6000061h0.7999878v6.7000122h-1v-5.2999878l-1.2000122,0.8999939
			L342.2999878,389.4999695z"/>
		<path class="st5" d="M348.7000122,394.5999756c-0.7000122,0-1.2999878-0.2000122-1.7000122-0.5
			c-0.3999939-0.3999939-0.7000122-0.7999878-0.7000122-1.3999939c0-0.3999939,0.1000061-0.7000122,0.3999939-1
			c0.2000122-0.2999878,0.5-0.5,0.8999939-0.7000122l0,0c-0.2999878-0.1000061-0.6000061-0.3999939-0.7000122-0.6000061
			c-0.2000122-0.2999878-0.2999878-0.5-0.2999878-0.8999939c0-0.5,0.2000122-0.8999939,0.6000061-1.2999878
			c0.3999939-0.2999878,0.8999939-0.5,1.5-0.5s1.1000061,0.2000122,1.5,0.5s0.6000061,0.7999878,0.6000061,1.2999878
			c0,0.2999878-0.1000061,0.6000061-0.2999878,0.8999939s-0.3999939,0.5-0.7000122,0.6000061l0,0
			c0.3999939,0.1000061,0.7000122,0.3999939,0.8999939,0.7000122c0.2000122,0.2999878,0.3999939,0.7000122,0.3999939,1
			c0,0.6000061-0.2000122,1-0.7000122,1.3999939C350,394.4999695,349.3999939,394.5999756,348.7000122,394.5999756z
			 M348.7000122,393.6999817c0.3999939,0,0.7000122-0.1000061,1-0.2999878c0.2999878-0.2000122,0.3999939-0.5,0.3999939-0.7999878
			S350,392,349.7000122,391.8000183c-0.2999878-0.2000122-0.6000061-0.2999878-1-0.2999878s-0.7000122,0.1000061-1,0.2999878
			c-0.2999878,0.2000122-0.3999939,0.5-0.3999939,0.7999878s0.1000061,0.6000061,0.3999939,0.7999878
			C347.8999939,393.5999756,348.2999878,393.6999817,348.7000122,393.6999817z M349.5,390.2999573
			c0.2000122-0.2000122,0.2999878-0.3999939,0.2999878-0.7000122s-0.1000061-0.5-0.2999878-0.7000122
			c-0.2000122-0.2000122-0.5-0.2999878-0.7999878-0.2999878s-0.6000061,0.1000061-0.7999878,0.2999878
			c-0.2000122,0.2000122-0.2999878,0.3999939-0.2999878,0.7000122s0.1000061,0.5,0.2999878,0.7000122
			c0.2000122,0.2000122,0.5,0.2999878,0.7999878,0.2999878C349,390.5999756,349.2999878,390.4999695,349.5,390.2999573z"/>
		<path class="st5" d="M352.6000061,394.6999817c-0.2000122,0-0.2999878-0.1000061-0.5-0.2000122
			c-0.1000061-0.1000061-0.2000122-0.2999878-0.2000122-0.5s0.1000061-0.2999878,0.2000122-0.3999939
			s0.2999878-0.2000122,0.5-0.2000122s0.2999878,0.1000061,0.3999939,0.2000122s0.2000122,0.2999878,0.2000122,0.3999939
			c0,0.2000122-0.1000061,0.2999878-0.2000122,0.5C352.8999939,394.5999756,352.7000122,394.6999817,352.6000061,394.6999817z"/>
		<path class="st5" d="M356.2999878,390.1999817c0.6000061,0,1.2000122,0.2000122,1.6000061,0.6000061
			S358.5,391.6999817,358.5,392.3999939S358.2999878,393.6000061,357.7999878,394
			c-0.3999939,0.3999939-1,0.6000061-1.7000122,0.6000061c-0.7999878,0-1.5-0.2999878-2.2000122-0.7999878l0.5-0.7999878
			c0.6000061,0.3999939,1.1000061,0.6000061,1.7000122,0.6000061c0.3999939,0,0.7000122-0.1000061,1-0.3999939
			c0.2999878-0.2000122,0.3999939-0.5,0.3999939-0.8999939s-0.1000061-0.7000122-0.3999939-0.8999939
			c-0.2000122-0.2000122-0.6000061-0.3999939-1-0.3999939c-0.5,0-0.8999939,0.2000122-1.2000122,0.5l-0.6000061-0.3999939
			l0.3999939-3.2999878h3.3999939v0.8999939h-2.6000061l-0.2000122,1.6000061
			C355.5,390.2999573,355.8999939,390.1999817,356.2999878,390.1999817z"/>
	</g>
	<g class="st11">
		<path class="st5" d="M390.8999939,390.9999695h0.7000122v0.8999939h-0.7000122v1.6000061h-1v-1.6000061h-3l-0.2000122-0.6000061
			l3.6000061-4.3999939H391v4.1000061H390.8999939z M389.8999939,388.5999756l-2,2.3999939h2V388.5999756z"/>
	</g>
</g>
<g id="street_anchors" class="st12">
	<rect id="street_x5F_anchor_x5F_01" x="355" y="19.999979" class="st13" width="10" height="10"/>
	<rect id="street_x5F_anchor_x5F_02" x="209.3000031" y="234.9999847" class="st13" width="10" height="10"/>
</g>
</svg>
