<?xml version="1.0" encoding="utf-8"?>
<!-- Generator: Adobe Illustrator 24.2.0, SVG Export Plug-In . SVG Version: 6.00 Build 0)  -->
<!DOCTYPE svg PUBLIC "-//W3C//DTD SVG 1.1//EN" "http://www.w3.org/Graphics/SVG/1.1/DTD/svg11.dtd" [
	<!ENTITY ns_extend "http://ns.adobe.com/Extensibility/1.0/">
	<!ENTITY ns_ai "http://ns.adobe.com/AdobeIllustrator/10.0/">
	<!ENTITY ns_graphs "http://ns.adobe.com/Graphs/1.0/">
	<!ENTITY ns_vars "http://ns.adobe.com/Variables/1.0/">
	<!ENTITY ns_imrep "http://ns.adobe.com/ImageReplacement/1.0/">
	<!ENTITY ns_sfw "http://ns.adobe.com/SaveForWeb/1.0/">
	<!ENTITY ns_custom "http://ns.adobe.com/GenericCustomNamespace/1.0/">
	<!ENTITY ns_adobe_xpath "http://ns.adobe.com/XPath/1.0/">
]>
<svg version="1.1" id="_x31__x5F_2" xmlns:x="&ns_extend;" xmlns:i="&ns_ai;" xmlns:graph="&ns_graphs;"
	 xmlns="http://www.w3.org/2000/svg" xmlns:xlink="http://www.w3.org/1999/xlink" x="0px" y="0px" viewBox="0 0 720 480"
	 style="enable-background:new 0 0 720 480;" xml:space="preserve">
<style type="text/css">
	.st0{fill:#DBD4CA;}
	.st1{clip-path:url(#SVGID_2_);}
	.st2{fill:none;stroke:#C49F8A;stroke-miterlimit:10;}
	.st3{opacity:0.3;clip-path:url(#SVGID_2_);}
	.st4{opacity:0.7;fill:#C49F8A;}
	.st5{clip-path:url(#SVGID_4_);}
	.st6{opacity:0.3;clip-path:url(#SVGID_4_);}
	.st7{fill:none;stroke:#565440;}
	.st8{fill:#565440;}
	.st9{fill:#E9E4DC;}
	.st10{fill:#C49F8A;}
	.st11{fill:#E9E4DC;stroke:#C49F8A;}
	.st12{fill:#E9E4DC;stroke:#C49F8A;stroke-miterlimit:3.9998;}
	.st13{fill:none;stroke:#C49F8A;}
	.st14{fill:#E9E4DC;stroke:#C49F8A;stroke-linejoin:round;}
	.st15{opacity:0;}
	.st16{fill:none;}
</style>
<metadata>
	<sfw  xmlns="&ns_sfw;">
		<slices></slices>
		<sliceSourceBounds  bottomLeftOrigin="true" height="668.909668" width="788.635376" x="-56.1544914" y="-50.836731">
			</sliceSourceBounds>
	</sfw>
</metadata>
<polygon id="Floor" class="st0" points="272.7999878,65.5999985 319.3999939,77.9000015 399.2999878,77.9000015 
	402.3999939,67.3000031 456.6000061,79.6999969 456.6000061,303.6000061 410.6000061,303.6000061 410.6000061,343.1000061 
	394.2000122,343.1000061 394.2000122,418.2000122 272.7000122,418.2000122 "/>
<g id="Wet_Floor">
	<g id="Wet_Floor_1_">
		<defs>
			<rect id="SVGID_1_" x="403" y="178.4110413" width="51.7791405" height="68.6503067"/>
		</defs>
		<clipPath id="SVGID_2_">
			<use xlink:href="#SVGID_1_"  style="overflow:visible;"/>
		</clipPath>
		<g class="st1">
			<g>
				<line class="st2" x1="75.5823441" y1="207.4213715" x2="409.0655518" y2="-126.061821"/>
				<line class="st2" x1="65.1609955" y1="197.0000305" x2="398.6441956" y2="-136.4831696"/>
				<line class="st2" x1="86.0036926" y1="217.8427277" x2="419.486908" y2="-115.6404724"/>
				<line class="st2" x1="96.4250412" y1="228.2640686" x2="429.9082336" y2="-105.2191238"/>
				<line class="st2" x1="106.8463898" y1="238.6854248" x2="440.3295898" y2="-94.7977753"/>
				<line class="st2" x1="117.2677383" y1="249.1067657" x2="450.750946" y2="-84.3764267"/>
				<line class="st2" x1="127.6890869" y1="259.5281067" x2="461.1722717" y2="-73.9550781"/>
				<line class="st2" x1="138.1104431" y1="269.9494629" x2="471.5936279" y2="-63.5337296"/>
				<line class="st2" x1="148.5317841" y1="280.3708191" x2="482.0149841" y2="-53.112381"/>
				<line class="st2" x1="158.9531403" y1="290.7921753" x2="492.4363403" y2="-42.6910324"/>
				<line class="st2" x1="148.5317841" y1="280.3708191" x2="482.0149841" y2="-53.112381"/>
				<line class="st2" x1="169.3744812" y1="301.213501" x2="502.857666" y2="-32.2696838"/>
				<line class="st2" x1="179.7958374" y1="311.6348572" x2="513.2790527" y2="-21.8483372"/>
				<line class="st2" x1="190.2171783" y1="322.0562134" x2="523.7003784" y2="-11.4269886"/>
				<line class="st2" x1="200.6385345" y1="332.4775696" x2="534.1217041" y2="-1.0056404"/>
				<line class="st2" x1="211.0598755" y1="342.8988953" x2="544.5430908" y2="9.4157076"/>
				<line class="st2" x1="221.4812317" y1="353.3202515" x2="554.9644165" y2="19.8370571"/>
				<line class="st2" x1="231.9025726" y1="363.7416077" x2="565.3857422" y2="30.2584038"/>
				<line class="st2" x1="242.3239288" y1="374.1629639" x2="575.8071289" y2="40.6797523"/>
				<line class="st2" x1="231.9025726" y1="363.7416077" x2="565.3857422" y2="30.2584038"/>
				<line class="st2" x1="252.7452698" y1="384.5842896" x2="586.2284546" y2="51.1011009"/>
				<line class="st2" x1="263.166626" y1="395.0056458" x2="596.6498413" y2="61.5224495"/>
				<line class="st2" x1="273.5879517" y1="405.427002" x2="607.071167" y2="71.9438019"/>
				<line class="st2" x1="284.0093079" y1="415.8483582" x2="617.4924927" y2="82.3651428"/>
				<line class="st2" x1="294.4306641" y1="426.2696838" x2="627.9138794" y2="92.7864914"/>
				<line class="st2" x1="304.8520203" y1="436.69104" x2="638.3352051" y2="103.20784"/>
				<line class="st2" x1="315.2733459" y1="447.1123962" x2="648.7565308" y2="113.6291885"/>
				<line class="st2" x1="325.6947021" y1="457.5337524" x2="659.1779175" y2="124.0505371"/>
				<line class="st2" x1="315.2733459" y1="447.1123962" x2="648.7565308" y2="113.6291885"/>
				<line class="st2" x1="336.1160583" y1="467.9550781" x2="669.5992432" y2="134.4718933"/>
				<line class="st2" x1="346.5374146" y1="478.3764343" x2="680.0206299" y2="144.8932343"/>
				<line class="st2" x1="356.9587402" y1="488.7977905" x2="690.4419556" y2="155.3145905"/>
				<line class="st2" x1="367.3800964" y1="499.2191162" x2="700.8632813" y2="165.7359314"/>
				<line class="st2" x1="377.8014526" y1="509.6404724" x2="711.284668" y2="176.1572876"/>
				<line class="st2" x1="388.2228088" y1="520.0618286" x2="721.7059937" y2="186.5786285"/>
				<line class="st2" x1="398.6441345" y1="530.4831543" x2="732.1273193" y2="196.9999847"/>
			</g>
			<g>
				<line class="st2" x1="409.0654297" y1="520.0616455" x2="75.5823898" y2="186.5786285"/>
				<line class="st2" x1="398.644104" y1="530.4830322" x2="65.1610413" y2="196.9999695"/>
				<line class="st2" x1="419.4867859" y1="509.6403198" x2="86.0037384" y2="176.1572723"/>
				<line class="st2" x1="429.9081421" y1="499.2189636" x2="96.425087" y2="165.7359314"/>
				<line class="st2" x1="440.3294983" y1="488.7976379" x2="106.8464355" y2="155.3145752"/>
				<line class="st2" x1="450.750824" y1="478.3762817" x2="117.2677841" y2="144.8932343"/>
				<line class="st2" x1="461.1721802" y1="467.9549255" x2="127.6891327" y2="134.4718781"/>
				<line class="st2" x1="471.5935364" y1="457.5335999" x2="138.1104736" y2="124.0505295"/>
				<line class="st2" x1="482.0148926" y1="447.1122437" x2="148.5318298" y2="113.6291809"/>
				<line class="st2" x1="492.4362183" y1="436.6908875" x2="158.9531708" y2="103.2078323"/>
				<line class="st2" x1="482.0148926" y1="447.1122437" x2="148.5318298" y2="113.6291809"/>
				<line class="st2" x1="502.8575745" y1="426.2695313" x2="169.374527" y2="92.7864914"/>
				<line class="st2" x1="513.2789307" y1="415.8482056" x2="179.7958679" y2="82.3651428"/>
				<line class="st2" x1="523.7002563" y1="405.4268494" x2="190.2172241" y2="71.9437943"/>
				<line class="st2" x1="534.1216431" y1="395.0054932" x2="200.6385651" y2="61.5224419"/>
				<line class="st2" x1="544.5429688" y1="384.584137" x2="211.0599213" y2="51.1010933"/>
				<line class="st2" x1="554.9642944" y1="374.1628113" x2="221.4812622" y2="40.6797447"/>
				<line class="st2" x1="565.3856812" y1="363.7414551" x2="231.9026184" y2="30.2583981"/>
				<line class="st2" x1="575.8070068" y1="353.3200989" x2="242.3239594" y2="19.8370495"/>
				<line class="st2" x1="565.3856812" y1="363.7414551" x2="231.9026184" y2="30.2583981"/>
				<line class="st2" x1="586.2283936" y1="342.8987427" x2="252.7453156" y2="9.4157009"/>
				<line class="st2" x1="596.6497192" y1="332.477417" x2="263.1666565" y2="-1.0056477"/>
				<line class="st2" x1="607.0710449" y1="322.0560608" x2="273.5880127" y2="-11.4269962"/>
				<line class="st2" x1="617.4924316" y1="311.6347046" x2="284.0093689" y2="-21.8483448"/>
				<line class="st2" x1="627.9137573" y1="301.2133484" x2="294.4306946" y2="-32.2696915"/>
				<line class="st2" x1="638.335083" y1="290.7920227" x2="304.8520508" y2="-42.69104"/>
				<line class="st2" x1="648.7564697" y1="280.3706665" x2="315.273407" y2="-53.1123886"/>
				<line class="st2" x1="659.1777954" y1="269.9493103" x2="325.6947632" y2="-63.5337372"/>
				<line class="st2" x1="648.7564697" y1="280.3706665" x2="315.273407" y2="-53.1123886"/>
				<line class="st2" x1="669.5991211" y1="259.5279541" x2="336.1160889" y2="-73.9550858"/>
				<line class="st2" x1="680.0205078" y1="249.1066132" x2="346.5374451" y2="-84.3764343"/>
				<line class="st2" x1="690.4418335" y1="238.6852722" x2="356.9588013" y2="-94.7977829"/>
				<line class="st2" x1="700.8632202" y1="228.263916" x2="367.3801575" y2="-105.2191315"/>
				<line class="st2" x1="711.2845459" y1="217.8425751" x2="377.8014832" y2="-115.64048"/>
				<line class="st2" x1="721.7058716" y1="207.4212189" x2="388.2228394" y2="-126.0618286"/>
				<line class="st2" x1="732.1272583" y1="196.9998779" x2="398.6441956" y2="-136.4831696"/>
			</g>
		</g>
		<g class="st3">
			<rect x="237.564682" y="25.4991131" class="st4" width="322.1589355" height="322.1589355"/>
		</g>
	</g>
	<g id="Wet_Floor_2_">
		<defs>
			<rect id="SVGID_3_" x="280.3190308" y="177.1748505" width="53.4981842" height="60.2423248"/>
		</defs>
		<clipPath id="SVGID_4_">
			<use xlink:href="#SVGID_3_"  style="overflow:visible;"/>
		</clipPath>
		<g class="st5">
			<g>
				<line class="st2" x1="-45.3795929" y1="206.1851807" x2="288.1036072" y2="-127.2980118"/>
				<line class="st2" x1="-55.8009415" y1="195.7638397" x2="277.682251" y2="-137.7193604"/>
				<line class="st2" x1="-34.9582443" y1="216.6065369" x2="298.5249634" y2="-116.8766632"/>
				<line class="st2" x1="-24.5368938" y1="227.0278778" x2="308.9462891" y2="-106.4553146"/>
				<line class="st2" x1="-14.1155462" y1="237.449234" x2="319.3676453" y2="-96.0339661"/>
				<line class="st2" x1="-3.6941979" y1="247.870575" x2="329.7890015" y2="-85.6126175"/>
				<line class="st2" x1="6.7271504" y1="258.2919312" x2="340.2103577" y2="-75.1912689"/>
				<line class="st2" x1="17.1484985" y1="268.7132874" x2="350.6316833" y2="-64.7699203"/>
				<line class="st2" x1="27.5698471" y1="279.134613" x2="361.0530396" y2="-54.3485718"/>
				<line class="st2" x1="37.9911957" y1="289.5559692" x2="371.4743958" y2="-43.9272232"/>
				<line class="st2" x1="27.5698471" y1="279.134613" x2="361.0530396" y2="-54.3485718"/>
				<line class="st2" x1="48.4125443" y1="299.9773254" x2="381.895752" y2="-33.5058746"/>
				<line class="st2" x1="58.8338928" y1="310.3986816" x2="392.3170776" y2="-23.0845261"/>
				<line class="st2" x1="69.2552414" y1="320.8200073" x2="402.7384338" y2="-12.6631775"/>
				<line class="st2" x1="79.67659" y1="331.2413635" x2="413.15979" y2="-2.2418292"/>
				<line class="st2" x1="90.0979385" y1="341.6627197" x2="423.5811462" y2="8.1795197"/>
				<line class="st2" x1="100.5192871" y1="352.0840759" x2="434.0024719" y2="18.6008682"/>
				<line class="st2" x1="110.9406357" y1="362.5054016" x2="444.4238281" y2="29.0222168"/>
				<line class="st2" x1="121.3619843" y1="372.9267578" x2="454.8451843" y2="39.4435654"/>
				<line class="st2" x1="110.9406357" y1="362.5054016" x2="444.4238281" y2="29.0222168"/>
				<line class="st2" x1="131.7833252" y1="383.348114" x2="465.2665405" y2="49.8649139"/>
				<line class="st2" x1="142.2046814" y1="393.7694702" x2="475.6878662" y2="60.2862625"/>
				<line class="st2" x1="152.6260223" y1="404.1907959" x2="486.1092224" y2="70.7076111"/>
				<line class="st2" x1="163.0473785" y1="414.6121521" x2="496.5305786" y2="81.1289597"/>
				<line class="st2" x1="173.4687195" y1="425.0335083" x2="506.9519348" y2="91.5503082"/>
				<line class="st2" x1="183.8900757" y1="435.4548645" x2="517.373291" y2="101.9716568"/>
				<line class="st2" x1="194.3114166" y1="445.8761902" x2="527.7946167" y2="112.3930054"/>
				<line class="st2" x1="204.7327728" y1="456.2975464" x2="538.2159424" y2="122.8143539"/>
				<line class="st2" x1="194.3114166" y1="445.8761902" x2="527.7946167" y2="112.3930054"/>
				<line class="st2" x1="215.1541138" y1="466.7189026" x2="548.6373291" y2="133.2357025"/>
				<line class="st2" x1="225.57547" y1="477.1402588" x2="559.0586548" y2="143.6570435"/>
				<line class="st2" x1="235.9968109" y1="487.5615845" x2="569.4800415" y2="154.0783997"/>
				<line class="st2" x1="246.4181671" y1="497.9829407" x2="579.9013672" y2="164.4997406"/>
				<line class="st2" x1="256.8395081" y1="508.4042969" x2="590.3226929" y2="174.9210968"/>
				<line class="st2" x1="267.2608643" y1="518.8256226" x2="600.7440796" y2="185.3424377"/>
				<line class="st2" x1="277.6822205" y1="529.2470093" x2="611.1654053" y2="195.7637939"/>
			</g>
			<g>
				<line class="st2" x1="288.1035156" y1="518.8255005" x2="-45.3795471" y2="185.3424377"/>
				<line class="st2" x1="277.6821594" y1="529.2468262" x2="-55.8008957" y2="195.7637787"/>
				<line class="st2" x1="298.5248413" y1="508.4041443" x2="-34.9582024" y2="174.9210815"/>
				<line class="st2" x1="308.9461975" y1="497.9827881" x2="-24.5368519" y2="164.4997406"/>
				<line class="st2" x1="319.3675537" y1="487.5614319" x2="-14.1155033" y2="154.0783844"/>
				<line class="st2" x1="329.7889099" y1="477.1401062" x2="-3.6941555" y2="143.6570435"/>
				<line class="st2" x1="340.2102356" y1="466.71875" x2="6.7271929" y2="133.2356873"/>
				<line class="st2" x1="350.6315918" y1="456.2973938" x2="17.1485405" y2="122.8143463"/>
				<line class="st2" x1="361.052948" y1="445.8760376" x2="27.5698891" y2="112.3929977"/>
				<line class="st2" x1="371.4743042" y1="435.4547119" x2="37.9912376" y2="101.9716492"/>
				<line class="st2" x1="361.052948" y1="445.8760376" x2="27.5698891" y2="112.3929977"/>
				<line class="st2" x1="381.8956299" y1="425.0333557" x2="48.4125862" y2="91.5503006"/>
				<line class="st2" x1="392.3169861" y1="414.6119995" x2="58.8339348" y2="81.128952"/>
				<line class="st2" x1="402.7383423" y1="404.1906433" x2="69.2552795" y2="70.7076035"/>
				<line class="st2" x1="413.1596985" y1="393.7693176" x2="79.6766281" y2="60.2862549"/>
				<line class="st2" x1="423.5810242" y1="383.3479614" x2="90.0979767" y2="49.8649063"/>
				<line class="st2" x1="434.0023804" y1="372.9266052" x2="100.5193253" y2="39.4435577"/>
				<line class="st2" x1="444.4237366" y1="362.505249" x2="110.9406738" y2="29.0222092"/>
				<line class="st2" x1="454.8450623" y1="352.0839233" x2="121.3620224" y2="18.6008606"/>
				<line class="st2" x1="444.4237366" y1="362.505249" x2="110.9406738" y2="29.0222092"/>
				<line class="st2" x1="465.2664185" y1="341.6625671" x2="131.783371" y2="8.179512"/>
				<line class="st2" x1="475.6877747" y1="331.2412109" x2="142.2047272" y2="-2.2418363"/>
				<line class="st2" x1="486.1091309" y1="320.8198547" x2="152.6260681" y2="-12.6631851"/>
				<line class="st2" x1="496.5304565" y1="310.3985291" x2="163.0474243" y2="-23.0845337"/>
				<line class="st2" x1="506.9518127" y1="299.9771729" x2="173.4687653" y2="-33.5058823"/>
				<line class="st2" x1="517.3731689" y1="289.5558167" x2="183.8901215" y2="-43.9272308"/>
				<line class="st2" x1="527.7944946" y1="279.1344604" x2="194.3114624" y2="-54.3485794"/>
				<line class="st2" x1="538.2158813" y1="268.7131348" x2="204.7328186" y2="-64.769928"/>
				<line class="st2" x1="527.7944946" y1="279.1344604" x2="194.3114624" y2="-54.3485794"/>
				<line class="st2" x1="548.637207" y1="258.2917786" x2="215.1541595" y2="-75.1912766"/>
				<line class="st2" x1="559.0585327" y1="247.8704224" x2="225.5755157" y2="-85.6126251"/>
				<line class="st2" x1="569.4799194" y1="237.4490814" x2="235.9968567" y2="-96.0339737"/>
				<line class="st2" x1="579.9012451" y1="227.0277252" x2="246.4182129" y2="-106.4553223"/>
				<line class="st2" x1="590.3226318" y1="216.6063843" x2="256.8395691" y2="-116.8766708"/>
				<line class="st2" x1="600.7439575" y1="206.1850281" x2="267.2608948" y2="-127.2980194"/>
				<line class="st2" x1="611.1652832" y1="195.7636871" x2="277.682251" y2="-137.7193604"/>
			</g>
		</g>
		<g class="st6">
			<rect x="116.6027374" y="24.2629242" class="st4" width="322.1589355" height="322.1589355"/>
		</g>
	</g>
</g>
<g id="Windows">
	<path class="st7" d="M400.7000122,63.2000008L450,74.5999985l-0.7999878,3.8000031L400,66.6999969L400.7000122,63.2000008z"/>
	<path class="st7" d="M269,235.3999939h3.7999878v73.3000183H269V235.3999939z"/>
	<polygon class="st7" points="269,60.9000015 269,135.3000031 272.7999878,135.3000031 272.7999878,66 317.2999878,77.5999985 
		318.2999878,73.8000031 	"/>
</g>
<g id="Walls">
	<path class="st8" d="M454.9500122,73.5999985h-1.3999939h-10.2000122v15.1999969h10.2000122v88.4000015h-58.2000122v2.5h7.6000061
		v22.8999939h2.5v-22.8999939H444.25v8v2.1000061v0.3999939h9.2999878V245.5h-48.1000061v-23h-2.4999695V248h2.5h48.1000061
		v48.1000061h-5.1000061v7.6000061h5.1000061h7.6000061V73.5999985H454.9500122z M446.75,187.6999969v-8h6.7999878v8H446.75z"/>
	<path class="st8" d="M266.4500122,237.8999939h12.2000122h2.8999939h88.5v-2.5v-27.8000031h-2.5v27.8000031h-31.3999939
		v-55.6999969v-0.3999939v-2.1000061h-5.1000061v2.5h2.6000061v55.6999969h-52.1000061v-47.8000031h9.8999939h2.5v-2.5v-5.3999939
		h18v-2.5h-30.3999939V111.5h-15.2000122v2.5h-7.5v7.5999985h7.5V152h-7.5v7.6000061h7.5v30.3000031h-7.5v7.6000061h7.5v32.8000031
		h-7.5v7.6000061h7.6000061V237.8999939z M291.4500122,179.6999969v5.3999939h-9.8999939v-5.3999939H291.4500122z"/>
	<rect x="258.8500061" y="268.2999878" class="st8" width="17.7000122" height="7.6000061"/>
	<polygon class="st8" points="316.9500122,83.6999969 321.9500122,83.6999969 321.9500122,88.6999969 339.6500244,88.6999969 
		339.6500244,83.6999969 367.5500183,83.6999969 367.5500183,187.3999939 370.0500183,187.3999939 370.0500183,179.6999969 
		375.1500244,179.6999969 375.1500244,177.1999969 370.0500183,177.1999969 370.0500183,83.6999969 402.1500244,83.6999969 
		402.9500122,83.9000015 407.4500122,64.1999969 400.1500244,62.4000015 397.0500183,76.0999985 339.6500244,76.0999985 
		327.3500061,76.0999985 317.4500122,72.0999985 314.6500244,79.1999969 316.9500122,80.0999985 	"/>
	<path class="st8" d="M385.25,296.1000061v2.5h17.7000122v5.1000061V336.5h-7.6000061H387.75v35.3999939h-75.8999939v-15.1000061
		h-2.5v15.1000061V372v2.3999939H342.25V377h2.5v-2.6000061h43v28.8999939h-7.7000122h-2.5v2.5v6.6000061H344.75v-15.2000122h-2.5
		v15.2000122h-60.7000122v-53.1000061h7.6000061v-2.5h-7.6000061v-50.6000061h-15.1000061h-0.1000061h-7.5v7.6000061h7.5v32.7999878
		h-7.5v7.6000061h7.5V420h5.2000122h10H387.75h2.1000061h5.5v-75.8999939h7.6000061v0.1000061h7.6000061v-40.5h12.6000061
		v-7.6000061h-20.2000122H385.25z M380.0500183,412.3999939v-6.6000061h7.7000122v6.6000061H380.0500183z"/>
</g>
<path id="Doors" class="st7" d="M395.3999939,177.1999969c0-2.8000031-0.5-5.1000061-1.5-7.6000061
	s-2.5-4.8000031-4.2999878-6.6000061c-1.7999878-2-4-3.5-6.6000061-4.6000061c-2.5-1-5.1000061-1.5-7.7999878-1.5v20.3000031
	 M367.6000061,187.3999939c-2.7999878,0-5.1000061,0.5-7.6000061,1.5s-4.7999878,2.5-6.6000061,4.3000031
	c-2,1.8000031-3.5,4-4.6000061,6.6000061s-1.5,5.1000061-1.5,7.8000031h20.2999878 M403,222.5
	c-2.7999878,0-5.1000061-0.5-7.6000061-1.5s-4.7999878-2.5-6.6000061-4.3000031c-2-1.8000031-3.5-4-4.6000061-6.6000061
	c-1-2.5-1.5-5.1000061-1.5-7.8000031H403 M311.7000122,179.5c0,2.5,0.5,4.8000031,1.5,7.1000061
	S315.5,191.2000122,317.5,192.9000092c1.7999878,1.8000031,4,3.3000031,6.2999878,4.3000031s4.7999878,1.5,7.2999878,1.5
	v-19.1999969 M309.3999939,356.7999878c0-2.7999878-0.5-5.1000061-1.5-7.6000061s-2.5-4.7999878-4.2999878-6.6000061
	c-1.7999878-2-4-3.5-6.6000061-4.6000061c-2.5-1-5.1000061-1.5-7.7999878-1.5v20.2000122 M342.2999878,397.2000122
	c-2.7999878,0-5.1000061-0.5-7.6000061-1.5s-4.7999878-2.5-6.6000061-4.2999878c-2-1.7999878-3.5-4-4.6000061-6.6000061
	c-1-2.5-1.5-5.1000061-1.5-7.7999878h20.2999878 M423.2000122,296.1000061c0-3.2999878,0.7999878-6.2999878,2-9.3999939
	c1.2999878-3,3-6.1000061,5.6000061-8.2999878c2.2999878-2.2999878,5.1000061-4.2999878,8.1000061-5.6000061
	c3-1.2999878,6.2999878-2,9.6000061-2v25.2999878"/>
<g id="Furniture_2_">
	<g>
		<g>
			<rect x="400.2999878" y="113.1999969" class="st9" width="52.8999939" height="35.1999969"/>
			<path class="st10" d="M400.7999878,113.6999969h51.8999939V148h-51.8999939V113.6999969 M399.7999878,112.6999969v36.1999969
				h53.8999939v-36.1999969H399.7999878L399.7999878,112.6999969z"/>
		</g>
		<rect x="436.5" y="131.6999969" class="st11" width="13.2999878" height="14.1000061"/>
		<rect x="436.5" y="115.8000031" class="st11" width="13.2999878" height="14.1000061"/>
		<polygon class="st12" points="441.8999939,144.1000061 445.2999878,133.8999939 432.5,131.1999969 429,141.3999939 		"/>
		<polygon class="st12" points="432.5,130.3999939 445.2999878,127.6999969 441.8999939,117.5 429,120.1999969 		"/>
		<g>
			<polygon class="st9" points="399.7000122,148.3999939 399.7000122,113.1999969 441.8999939,113.1999969 443,127.1999969 
				439.1000061,148.3999939 			"/>
			<path class="st10" d="M441.3999939,113.6999969L442.5,127.0999985l-3.7999878,20.7999954h-38.3999939v-34.1999969H441.3999939
				 M442.2999878,112.6999969h-0.8999939h-42.2999878v36.1999969h40h0.2999878l4-21.6999969L442.2999878,112.6999969
				L442.2999878,112.6999969z"/>
		</g>
		<polyline class="st13" points="441,113.1999969 441,127.3000031 438.7999878,148.5 		"/>
	</g>
	<g>
		<g>
			<rect x="319.2999878" y="103" class="st9" width="47.7999878" height="37.8999939"/>
			<path class="st10" d="M366.6000061,103.5v36.8999939h-46.7999878v-36.9000015L366.6000061,103.5 M367.6000061,102.5h-48.7999878
				v38.8999939h48.7999878V102.5L367.6000061,102.5z"/>
		</g>
		<rect x="352.1000061" y="122.9000015" class="st11" width="12.1000061" height="15.2000046"/>
		<rect x="352.1000061" y="105.8000031" class="st11" width="12.1000061" height="15.1999969"/>
		<polygon class="st12" points="357,136.1999969 360.1000061,125.1999969 348.3999939,122.3000031 345.2999878,133.1999969 		"/>
		<polygon class="st12" points="348.3999939,121.5 360.1000061,118.5 357,107.5999985 345.2999878,110.5 		"/>
		<g>
			<polygon class="st9" points="318.7999878,140.8000031 318.7999878,103 356.8999939,103 357.8999939,118 354.3999939,140.8000031 
							"/>
			<path class="st10" d="M356.3999939,103.5l1,14.5L354,140.3999939h-34.6000061v-36.9000015L356.3999939,103.5 M357.3999939,102.5
				h-0.7999878h-38.2999878v38.8999939h36.2000122h0.2999878l3.6000061-23.3000031L357.3999939,102.5L357.3999939,102.5z"/>
		</g>
		<polyline class="st13" points="356.1000061,103 356.1000061,118.1999969 354.1000061,140.8999939 		"/>
	</g>
	<g>
		<g>
			<rect x="406.1000061" y="226" class="st9" width="47.1000061" height="19"/>
			<path class="st10" d="M452.6000061,226.5v18H406.5v-18H452.6000061 M453.6000061,225.5H405.5v20h48.1000061V225.5
				L453.6000061,225.5z"/>
		</g>
		<g>
			<g>
				<path class="st14" d="M449.2000122,235.5c0-3.6999969-3.2000122-6.5-6.7999878-6.1999969
					c-4,0.3999939-9,0.6999969-12.7999878,0.6999969c-3.7000122,0-8.7999878-0.3999939-12.7999878-0.6999969
					C413.2000427,229,410.000061,231.9000092,410.000061,235.5c0,3.6000061,3.2000122,6.5,6.7999878,6.1999969
					c4-0.3999939,9-0.6999969,12.7999878-0.6999969c3.7000122,0,8.7999878,0.3999939,12.7999878,0.6999969
					C446,242,449.2000122,239.1999969,449.2000122,235.5z"/>
				<ellipse class="st14" cx="442.7999878" cy="235.5" rx="0.8999939" ry="0.8999939"/>
			</g>
		</g>
	</g>
	<g>
		<g>
			<rect x="378.8999939" y="374.8999939" class="st9" width="8.5" height="12.7999878"/>
			<path class="st10" d="M386.7999878,375.3999939v11.7999878h-7.5v-11.7999878H386.7999878 M387.7999878,374.3999939h-9.5
				v13.7999878h9.5V374.3999939L387.7999878,374.3999939z"/>
		</g>
		<g>
			<path class="st9" d="M383.1000061,383.8999939c-1.3999939,0-2.6000061-1.2000122-2.6000061-2.6000061
				s1.2000122-2.6000061,2.6000061-2.6000061s2.6000061,1.2000122,2.6000061,2.6000061S384.5,383.8999939,383.1000061,383.8999939z"
				/>
			<path class="st10" d="M383.1000061,379.2999878c1.1000061,0,2.1000061,0.8999939,2.1000061,2.1000061
				S384.3000183,383.5,383.1000061,383.5S381,382.6000061,381,381.3999939S382,379.2999878,383.1000061,379.2999878
				 M383.1000061,378.2999878c-1.7000122,0-3.1000061,1.3999939-3.1000061,3.1000061S381.3999939,384.5,383.1000061,384.5
				s3.1000061-1.3999939,3.1000061-3.1000061C386.2000122,379.7000122,384.7999878,378.2999878,383.1000061,378.2999878
				L383.1000061,378.2999878z"/>
		</g>
	</g>
	<g>
		<path class="st11" d="M327.7000122,300.5h32.8999939v23.8999939h-32.8999939V300.5z"/>
		<path class="st11" d="M325.6000061,306.3999939h-0.5C321.7000122,306.3999939,319,309.1000061,319,312.5
			s2.7000122,6.1000061,6.1000061,6.1000061h0.5V306.3999939z"/>
		<path class="st11" d="M327.5,307.7000122h-2.3999939c-2.6000061,0-4.7000122,2.1000061-4.7000122,4.7000122
			s2.1000061,4.7000122,4.7000122,4.7000122H327.5V307.7000122z"/>
		<path class="st11" d="M362.5,306.3999939h0.5c3.3999939,0,6.1000061,2.7000122,6.1000061,6.1000061
			S366.3999939,318.6000061,363,318.6000061h-0.5V306.3999939z"/>
		<path class="st11" d="M360.6000061,307.7000122H363c2.6000061,0,4.7000122,2.1000061,4.7000122,4.7000122
			S365.6000061,317.1000366,363,317.1000366h-2.3999939V307.7000122z"/>
		<path class="st11" d="M338,326.2999878v0.5c0,3.3999939,2.7000122,6.1000061,6.1000061,6.1000061
			s6.1000061-2.7000122,6.1000061-6.1000061v-0.5H338z"/>
		<path class="st11" d="M339.3999939,324.3999939v2.3999939c0,2.6000061,2.1000061,4.7000122,4.7000122,4.7000122
			s4.7000122-2.1000061,4.7000122-4.7000122v-2.3999939H339.3999939z"/>
		<path class="st11" d="M338,298.6000061v-0.5C338,294.7000122,340.7000122,292,344.1000061,292
			s6.1000061,2.7000122,6.1000061,6.1000061v0.5H338z"/>
		<path class="st11" d="M339.3999939,300.5v-2.3999939c0-2.6000061,2.1000061-4.7000122,4.7000122-4.7000122
			s4.7000122,2.1000061,4.7000122,4.7000122V300.5H339.3999939z"/>
	</g>
	<g id="Sink_2_2_">
		<g id="Rectangle_16_x5F_11">
			<rect x="313.1000061" y="224.1999969" class="st9" width="20.1000061" height="10.6999969"/>
			<path class="st10" d="M332.7000122,224.6999969v9.6999969h-19.1000061v-9.6999969H332.7000122 M333.7000122,223.6999969
				h-21.1000061v11.6999969h21.1000061V223.6999969L333.7000122,223.6999969z"/>
		</g>
		<path id="Rectangle_19_x5F_5_2_" class="st11" d="M317,229.5L317,229.5c0-2,1.6000061-3.6000061,3.6000061-3.6000061h5.1000061
			c2,0,3.6000061,1.6000061,3.6000061,3.6000061l0,0c0,2-1.6000061,3.6000061-3.6000061,3.6000061h-5.1000061
			C318.6000061,233.1000061,317,231.5,317,229.5z"/>
		<circle id="Ellipse_7_x5F_2_2_" class="st11" cx="323.1000061" cy="230.8999939" r="0.8999939"/>
	</g>
	<g id="Sink_2_3_">
		<g id="Rectangle_16_x5F_11_3_">
			<rect x="443" y="210" class="st9" width="10.1000061" height="16"/>
			<path class="st10" d="M452.6000061,210.5v15H443.5v-15H452.6000061 M453.6000061,209.5H442.5v17h11.1000061V209.5
				L453.6000061,209.5z"/>
		</g>
		<g>
			<path id="Rectangle_19_x5F_5_3_" class="st11" d="M448.1000061,212.5L448.1000061,212.5
				c-1.8999939,0-3.3999939,1.5-3.3999939,3.3999939v4.8999939c0,1.8999939,1.5,3.3999939,3.3999939,3.3999939l0,0
				c1.8999939,0,3.3999939-1.5,3.3999939-3.3999939v-4.8999939C451.5,214,450,212.5,448.1000061,212.5z"/>
			<circle id="Ellipse_7_x5F_2_3_" class="st11" cx="449" cy="218.3000031" r="0.8999939"/>
		</g>
	</g>
	<g id="Toilet_1_">
		<g id="Rectangle_21_1_">
			<rect x="410.8999939" y="185.1000061" class="st9" width="10.3999939" height="3.1000061"/>
			<path class="st10" d="M420.7999878,185.6000061v2.1000061h-9.3999939v-2.1000061H420.7999878 M421.7999878,184.6000061
				h-11.3999939v4.1000061h11.3999939V184.6000061L421.7999878,184.6000061z"/>
		</g>
		<path id="Rectangle_19_x5F_2_1_" class="st11" d="M412,195.8000031c-0.2000122,2.3999939,1.7000122,4.3999939,4.1000061,4.3999939
			l0,0c2.3999939,0,4.2000122-2,4.1000061-4.3999939l-0.5-7.6000061H412.5L412,195.8000031z"/>
		<path id="Rectangle_18_x5F_13_1_" class="st11" d="M413.3999939,195.6000061c-0.1000061,1.6000061,1.1000061,3,2.7000122,3l0,0
			c1.6000061,0,2.8999939-1.3999939,2.7000122-3l-0.2999878-4.3999939h-4.7000122L413.3999939,195.6000061z"/>
		<ellipse id="Ellipse_6_x5F_2_1_" class="st11" cx="416.1000061" cy="193.6000061" rx="0.8999939" ry="0.8999939"/>
	</g>
	<g id="Rectangle_24">
		<rect x="312.3999939" y="357.2000122" class="st9" width="74.8999939" height="14.2000122"/>
		<path class="st10" d="M312.8999939,357.7000122h73.8999939v13.2000122h-73.8999939V357.7000122 M311.8999939,356.7000122
			v15.2000122h75.8999939v-15.2000122H311.8999939L311.8999939,356.7000122z"/>
	</g>
	<g id="Rectangle_27_1_">
		<rect x="386.2999878" y="318.6000061" class="st9" width="16.2999878" height="17.3999939"/>
		<path class="st10" d="M402.1000061,319.1000061V335.5h-15.2999878v-16.3999939H402.1000061 M403.1000061,318.1000061h-17.2999878
			V336.5h17.2999878V318.1000061L403.1000061,318.1000061z"/>
	</g>
	<g id="Rectangle_27_2_">
		<rect x="385" y="318.6000061" class="st9" width="1.7999878" height="17.3999939"/>
		<path class="st10" d="M386.2999878,319.1000061V335.5H385.5v-16.3999939H386.2999878 M387.2999878,318.1000061H384.5V336.5
			h2.7999878V318.1000061L387.2999878,318.1000061z"/>
	</g>
	<g id="Rectangle_27_6_">
		<rect x="385" y="299" class="st9" width="17.6000061" height="19.6000061"/>
		<path class="st10" d="M402.1000061,299.5v18.6000061H385.5V299.5H402.1000061 M403.1000061,298.5H384.5v20.6000061h18.6000061
			V298.5L403.1000061,298.5z"/>
	</g>
	<g id="Rectangle_27_3_">
		<rect x="383.2999878" y="299" class="st9" width="1.7999878" height="19.6000061"/>
		<path class="st10" d="M384.5,299.5v18.6000061h-0.7999878V299.5H384.5 M385.5,298.5h-2.7999878v20.6000061H385.5V298.5
			L385.5,298.5z"/>
	</g>
	<g id="Sink_3">
		<rect id="Rectangle_28_x5F_2" x="363.6000061" y="358.6000061" class="st11" width="18" height="11.3999939"/>
		<path id="Rectangle_29_x5F_2" class="st11" d="M370.7000122,364.2999878L370.7000122,364.2999878
			C370.7000122,361.8999939,372.6000061,360,375,360h0.8999939c2.3999939,0,4.2999878,1.8999939,4.2999878,4.2999878l0,0
			c0,2.3999939-1.8999939,4.2999878-4.2999878,4.2999878H375
			C372.6000061,368.6000061,370.7000122,366.7000122,370.7000122,364.2999878z"/>
		<ellipse id="Ellipse_7_x5F_3" class="st11" cx="375.3999939" cy="366.1000061" rx="0.8999939" ry="0.8999939"/>
		<path id="Vector_2" class="st13" d="M364.5,368.6000061h4.7000122 M364.5,367.2000122h4.7000122 M364.5,365.7000122h4.7000122
			 M364.5,364.2999878h4.7000122 M364.5,362.8999939h4.7000122 M364.5,361.5h4.7000122 M364.5,360.1000061h4.7000122"/>
	</g>
	<g id="Stove">
		<g id="Rectangle_25">
			<rect x="337.8999939" y="357.2000122" class="st9" width="13.7999878" height="14.2000122"/>
			<path class="st10" d="M351.2000122,357.7000122v13.2000122h-12.7999878v-13.2000122H351.2000122 M352.2000122,356.7000122
				h-14.7999878v15.2000122h14.7999878V356.7000122L352.2000122,356.7000122z"/>
		</g>
		<g id="Rectangle_28_x5F_3">
			<rect x="337.8999939" y="369.7999878" class="st9" width="13.7999878" height="1.6000061"/>
			<path class="st10" d="M351.2000122,370.2999878v0.6000061h-12.7999878v-0.6000061H351.2000122 M352.2000122,369.2999878
				h-14.7999878v2.6000061h14.7999878V369.2999878L352.2000122,369.2999878z"/>
		</g>
		<g id="Ellipse_7_x5F_4">
			<path class="st9" d="M341.7000122,367.6000061c-0.7000122,0-1.2999878-0.6000061-1.2999878-1.2999878
				s0.6000061-1.2999878,1.2999878-1.2999878c0.7000122,0,1.2999878,0.6000061,1.2999878,1.2999878
				S342.3999939,367.6000061,341.7000122,367.6000061z"/>
			<path class="st10" d="M341.7000122,365.5c0.3999939,0,0.7999878,0.2999878,0.7999878,0.7999878
				s-0.2999878,0.7999878-0.7999878,0.7999878s-0.7999878-0.2999878-0.7999878-0.7999878S341.2999878,365.5,341.7000122,365.5
				 M341.7000122,364.5c-1,0-1.7999878,0.7999878-1.7999878,1.7999878s0.7999878,1.7999878,1.7999878,1.7999878
				S343.5,367.2999878,343.5,366.2999878S342.7000122,364.5,341.7000122,364.5L341.7000122,364.5z"/>
		</g>
		<g id="Ellipse_9">
			<path class="st9" d="M341.7000122,362.7000122C340.8000183,362.7000122,340,361.9000244,340,361
				c0-0.8999939,0.7999878-1.7000122,1.7000122-1.7000122c0.8999939,0,1.7000122,0.7999878,1.7000122,1.7000122
				C343.3999939,361.8999939,342.6000061,362.7000122,341.7000122,362.7000122z"/>
			<path class="st10" d="M341.7000122,359.7999878c0.7000122,0,1.2000122,0.5,1.2000122,1.2000122
				s-0.5,1.2000122-1.2000122,1.2000122S340.5,361.7000122,340.5,361S341,359.7999878,341.7000122,359.7999878
				 M341.7000122,358.7999878c-1.2000122,0-2.2000122,1-2.2000122,2.2000122s1,2.2000122,2.2000122,2.2000122
				s2.2000122-1,2.2000122-2.2000122C343.8999939,359.7999878,342.8999939,358.7999878,341.7000122,358.7999878
				L341.7000122,358.7999878z"/>
		</g>
		<g id="Ellipse_10">
			<path class="st9" d="M347.8999939,368c-0.8999939,0-1.7000122-0.7999878-1.7000122-1.7000122
				c0-0.8999939,0.7999878-1.7000122,1.7000122-1.7000122c0.8999939,0,1.7000122,0.7999878,1.7000122,1.7000122
				S348.7999878,368,347.8999939,368z"/>
			<path class="st10" d="M347.8999939,365.1000061c0.7000122,0,1.2000122,0.5,1.2000122,1.2000122
				s-0.5,1.2000122-1.2000122,1.2000122s-1.2000122-0.5-1.2000122-1.2000122S347.2000122,365.1000061,347.8999939,365.1000061
				 M347.8999939,364.1000061c-1.2000122,0-2.2000122,1-2.2000122,2.2000122s1,2.2000122,2.2000122,2.2000122
				s2.2000122-1,2.2000122-2.2000122S349.1000061,364.1000061,347.8999939,364.1000061L347.8999939,364.1000061z"/>
		</g>
		<g id="Ellipse_8">
			<circle class="st9" cx="347.8999939" cy="360.6000061" r="1.2999878"/>
			<path class="st10" d="M347.8999939,359.7999878c0.3999939,0,0.7999878,0.2999878,0.7999878,0.7999878
				s-0.2999878,0.7999878-0.7999878,0.7999878c-0.3999939,0-0.7999878-0.2999878-0.7999878-0.7999878
				S347.3999939,359.7999878,347.8999939,359.7999878 M347.8999939,358.7999878c-1,0-1.7999878,0.7999878-1.7999878,1.7999878
				s0.7999878,1.7999878,1.7999878,1.7999878s1.7999878-0.7999878,1.7999878-1.7999878
				S348.7999878,358.7999878,347.8999939,358.7999878L347.8999939,358.7999878z"/>
		</g>
	</g>
	<path id="Vector_3" class="st13" d="M396.1000061,327.6000061H391.5 M395,329.6000061l-2.2999878-4 M395,325.6000061l-2.2999878,4"
		/>
	<g>
		<path class="st11" d="M422.7999878,99L412,96.5l0.7999878-10.1999969L426.5,89.5L422.7999878,99z"/>
		<g>
			
				<rect x="414.8535461" y="63.0403824" transform="matrix(0.2259111 -0.9741479 0.9741479 0.2259111 247.933136 475.0890198)" class="st9" width="16.0992146" height="36.9981804"/>
			<path class="st10" d="M407.2000122,69.9000015l35,8.0999985l-3.3999939,14.6999969l-35-8.0999985L407.2000122,69.9000015
				 M406.5,68.6999969l-3.8999939,16.6999969l37,8.5999985L443.5,77.2999878L406.5,68.6999969L406.5,68.6999969z"/>
		</g>
		<path class="st13" d="M424.2000122,85.4000015L415.9000244,83.5 M424.5,87.3000031L414.7000122,85l0.7000122-2.9000015
			l9.7999878,2.3000031L424.5,87.3000031z"/>
		<path class="st11" d="M428.5,88.4000015L428.5,88.4000015c-0.3999939-0.0999985-0.7000122-0.5-0.6000061-0.9000015l0.2000122-1
			c0.1000061-0.4000015,0.5-0.6999969,0.8999939-0.5999985l0,0c0.3999939,0.0999985,0.7000122,0.5,0.6000061,0.9000015l-0.2000122,1
			C429.2999878,88.1999969,429,88.5,428.5,88.4000015z"/>
		<path class="st11" d="M423.7999878,79c-0.2999878,1.4000015-1.7000122,2.1999969-3,1.9000015
			c-1.3999939-0.3000031-2.2000122-1.6999969-1.8999939-3l0.6000061-2.5L424.3999939,76.5L423.7999878,79z"/>
		<polygon class="st11" points="434.5,79.9000015 409,74 409.2999878,72.1999969 434.7999878,78.1999969 		"/>
		<g>
			
				<rect x="414.1413269" y="88.6436005" transform="matrix(0.2259111 -0.9741479 0.9741479 0.2259111 232.5320282 480.3153381)" class="st9" width="8.699584" height="10.3994894"/>
			<path class="st10" d="M414.7999878,88.6999969L424,90.7999954l-1.7000122,7.5l-9.2000122-2.0999985L414.7999878,88.6999969
				 M414,87.5l-2.2000122,9.5l11.1000061,2.5999985l2.2000122-9.5L414,87.5L414,87.5z"/>
		</g>
	</g>
	<g>
		<g>
			<rect x="405.7000122" y="160.8999939" class="st9" width="47.3999939" height="13.6000061"/>
			<path class="st10" d="M406.2000122,161.3999939h46.3999939V174h-46.3999939V161.3999939 M405.2000122,160.3999939V175h48.3999939
				v-14.6000061H405.2000122L405.2000122,160.3999939z"/>
		</g>
		<g>
			<rect x="405.7000122" y="163" class="st9" width="47.3999939" height="13.6999969"/>
			<path class="st10" d="M406.2000122,163.5h46.3999939v12.6999969h-46.3999939V163.5 M405.2000122,162.5v14.6999969h48.3999939
				V162.5H405.2000122L405.2000122,162.5z"/>
		</g>
		<path class="st11" d="M406,176.6999969l47.1000061-13.6000061"/>
	</g>
	<g>
		<g>
			<rect x="336.7000122" y="219.1000061" class="st9" width="30.3999939" height="13.6000061"/>
			<path class="st10" d="M337.2000122,219.6000061h29.3999939v12.6000061h-29.3999939V219.6000061 M336.2000122,218.6000061
				v14.6000061h31.3999939v-14.6000061H336.2000122L336.2000122,218.6000061z"/>
		</g>
		<g>
			<rect x="336.7000122" y="221.1999969" class="st9" width="30.3999939" height="13.6999969"/>
			<path class="st10" d="M337.2000122,221.6999969h29.3999939v12.6999969h-29.3999939V221.6999969 M336.2000122,220.6999969
				v14.6999969h31.3999939v-14.6999969H336.2000122L336.2000122,220.6999969z"/>
		</g>
		<path class="st11" d="M336.7000122,234.8999939l30.6000061-13.6000061"/>
	</g>
	<g>
		<g>
			<rect x="403.5" y="250.6999969" class="st9" width="49.6000061" height="11.0999908"/>
			<path class="st10" d="M404,251.1999969h48.6000061v10.0999908H404V251.1999969 M403,250.1999969v12.0999908h50.6000061
				v-12.1000061H403V250.1999969z"/>
		</g>
		<g>
			<rect x="403.5" y="248.5" class="st9" width="49.6000061" height="11.2000122"/>
			<path class="st10" d="M404,249h48.6000061v10.2000122H404V249 M403,248v12.2000122h50.6000061V248H403L403,248z"/>
		</g>
		<path class="st11" d="M452.8999939,248.6000061l-49.2999878,11"/>
	</g>
	<g>
		<g>
			<rect x="407.8999939" y="287.1000061" class="st9" width="12.6000061" height="7.6000061"/>
			<path class="st10" d="M408.3999939,287.6000061H420v6.6000061h-11.6000061V287.6000061 M407.3999939,286.6000061v8.6000061H421
				v-8.6000061H407.3999939L407.3999939,286.6000061z"/>
		</g>
		<g>
			<rect x="407.8999939" y="289.2000122" class="st9" width="12.6000061" height="6.3999939"/>
			<path class="st10" d="M420,289.7000122v5.3999939h-11.6000061v-5.3999939H420 M421,288.7000122h-13.6000061v7.3999939H421
				V288.7000122L421,288.7000122z"/>
		</g>
		<path class="st11" d="M407.6000061,295.3999939l13.2000122-6"/>
	</g>
	<g>
		<g>
			<rect x="289" y="103.3000031" class="st9" width="1.7000122" height="37.3000031"/>
			<path class="st10" d="M290.2000122,103.8000031v36.3000031H289.5v-36.3000031H290.2000122 M291.2000122,102.8000031H288.5
				v38.3000031h2.7000122V102.8000031L291.2000122,102.8000031z"/>
		</g>
		<g>
			<rect x="282.2000122" y="103.3000031" class="st9" width="6.7999878" height="37.3000031"/>
			<path class="st10" d="M288.3999939,103.8000031v36.3000031h-5.7999878v-36.3000031H288.3999939 M289.3999939,102.8000031
				h-7.7999878v38.3000031h7.7999878V102.8000031L289.3999939,102.8000031z"/>
		</g>
		<rect x="283.6000061" y="108" class="st11" width="1.6000061" height="27.1000061"/>
		<path class="st11" d="M283.6000061,127.3000031v-11.5l-1.3999939,1v9.4000015L283.6000061,127.3000031z"/>
	</g>
	<g>
		<g>
			<rect x="443" y="194.6999969" class="st9" width="10.1000061" height="15.3000031"/>
			<path class="st10" d="M452.6000061,195.1999969V209.5H443.5v-14.3000031H452.6000061 M453.6000061,194.1999969H442.5V210.5
				h11.1000061V194.1999969L453.6000061,194.1999969z"/>
		</g>
		<g>
			<path class="st9" d="M448.1000061,205.5C446.3999939,205.5,445,204.1000061,445,202.3999939
				s1.3999939-3.1000061,3.1000061-3.1000061s3.1000061,1.3999939,3.1000061,3.1000061S449.7999878,205.5,448.1000061,205.5z"/>
			<path class="st10" d="M448.1000061,199.6999969c1.3999939,0,2.6000061,1.1999969,2.6000061,2.6000061
				s-1.2000122,2.6000061-2.6000061,2.6000061S445.5,203.7000122,445.5,202.3000031
				S446.6000061,199.6999969,448.1000061,199.6999969 M448.1000061,198.6999969c-2,0-3.6000061,1.6000061-3.6000061,3.6000061
				s1.6000061,3.6000061,3.6000061,3.6000061s3.6000061-1.6000061,3.6000061-3.6000061
				S450.1000061,198.6999969,448.1000061,198.6999969L448.1000061,198.6999969z"/>
		</g>
	</g>
	<g>
		<rect x="406" y="180.1999969" class="st9" width="37.7000122" height="4.8999939"/>
		<path class="st10" d="M443.2000122,180.6999969v3.8999939H406.5v-3.8999939h36.6000061 M444.1000061,179.6999969H405.5v5.8999939
			h38.7999878v-5.8999939H444.1000061z"/>
	</g>
	<g>
		<g>
			<rect x="322.7999878" y="245.3000031" class="st9" width="37.2999878" height="1.6999969"/>
			<path class="st10" d="M359.6000061,245.8000031V246.5h-36.2999878v-0.6999969H359.6000061 M360.6000061,244.8000031h-38.2999878
				V247.5h38.2999878V244.8000031L360.6000061,244.8000031z"/>
		</g>
		<g>
			<rect x="322.7999878" y="238.3999939" class="st9" width="37.2999878" height="6.8000031"/>
			<path class="st10" d="M359.6000061,238.8999939v5.8000031h-36.2999878v-5.8000031H359.6000061 M360.6000061,237.8999939
				h-38.2999878v7.8000031h38.2999878V237.8999939L360.6000061,237.8999939z"/>
		</g>
		<rect x="328.2999878" y="239.8000031" class="st11" width="27.1000061" height="1.6000061"/>
		<path class="st11" d="M336.1000061,239.8000031h11.5l-1-1.3999939h-9.3999939L336.1000061,239.8000031z"/>
	</g>
	<g>
		<g>
			<path class="st9" d="M283.8999939,234.8999939v-18.3000031h12.7999878c3,0,5.5,2.5,5.5,5.5v12.8000031H283.8999939z"/>
			<path class="st10" d="M296.7999878,217.1000061c2.7999878,0,5,2.1999969,5,5v12.3000031H284.5v-17.3000031H296.7999878
				 M296.7999878,216.1000061H283.5v19.3000031h19.2999878v-13.3000031
				C302.7999878,218.6999969,300.1000061,216.1000061,296.7999878,216.1000061L296.7999878,216.1000061z"/>
		</g>
		<g>
			<path class="st9" d="M285.5,233.3000031v-15.1999969h11.2000122c2.2000122,0,4,1.8000031,4,4v11.1999969H285.5z"/>
			<path class="st10" d="M296.7000122,218.6000061c1.8999939,0,3.5,1.6000061,3.5,3.5v10.6999969H286v-14.1999969H296.7000122
				 M296.7000122,217.6000061H285v16.1999969h16.2000122v-11.6999969
				C301.2000122,219.6000061,299.2000122,217.6000061,296.7000122,217.6000061L296.7000122,217.6000061z"/>
		</g>
		<ellipse class="st11" cx="288.3999939" cy="230.3999939" rx="0.8999939" ry="0.8999939"/>
	</g>
	<g>
		<polygon class="st9" points="282.1000061,234.8000031 282.1000061,188.1000061 286.5,188.1000061 286.5,213.3999939 
			284,213.3999939 284,234.8000031 		"/>
		<path class="st10" d="M286,188.6000061v24.3000031h-1.5h-1v1v20.5h-0.8999939v-20.5v-25.3000031H284.5H286 M287,187.6000061h-2.5
			h-2.8999939v26.3000031v21.5H284.5v-21.5h2.5V187.6000061L287,187.6000061z"/>
	</g>
	<g id="Toilet_2_">
		<g id="Rectangle_21_2_">
			<rect x="286.5" y="195" class="st9" width="3.1000061" height="13"/>
			<path class="st10" d="M289.1000061,195.5v12H287v-12H289.1000061 M290.1000061,194.5H286v14h4.1000061V194.5L290.1000061,194.5z"
				/>
		</g>
		<path id="Rectangle_19_x5F_2_2_" class="st11" d="M297.8999939,205.8999939
			c2.6000061,0.1999969,4.7999878-1.8999939,4.7999878-4.5l0,0c0-2.6000061-2.2000122-4.6000061-4.7999878-4.5L289.6000061,197.5
			v7.8000031L297.8999939,205.8999939z"/>
		<path id="Rectangle_18_x5F_13_2_" class="st11" d="M297.7000122,204.5
			c1.7999878,0.1999969,3.3999939-1.3000031,3.3999939-3.1000061l0,0c0-1.8000031-1.6000061-3.1999969-3.3999939-3.1000061
			l-4.8999939,0.3999939v5.1999969L297.7000122,204.5z"/>
		<ellipse id="Ellipse_6_x5F_2_2_" class="st11" cx="295.2999878" cy="201.5" rx="0.8999939" ry="0.8999939"/>
	</g>
	<g>
		<g>
			<rect x="281.8999939" y="400.2999878" class="st9" width="59.8999939" height="10"/>
			<path class="st10" d="M282.3999939,400.7999878h58.8999939v9h-58.8999939V400.7999878 M281.3999939,399.7999878v11h60.8999939
				v-11H281.3999939L281.3999939,399.7999878z"/>
		</g>
		<g>
			<rect x="281.8999939" y="402.2000122" class="st9" width="59.8999939" height="9.7000122"/>
			<path class="st10" d="M282.3999939,402.7000122h58.8999939v8.7000122h-58.8999939V402.7000122 M281.3999939,401.7000122
				v10.7000122h60.8999939v-10.7000122H281.3999939L281.3999939,401.7000122z"/>
		</g>
		<path class="st11" d="M281.7999878,411.8999939l60.2999878-9.7000122"/>
	</g>
	<g>
		<g>
			<rect x="345.2999878" y="400.2999878" class="st9" width="27.1000061" height="10"/>
			<path class="st10" d="M345.7999878,400.7999878h26.1000061v9h-26.1000061V400.7999878 M344.7999878,399.7999878v11h28.1000061
				v-11H344.7999878L344.7999878,399.7999878z"/>
		</g>
		<g>
			<rect x="345.2999878" y="402.2000122" class="st9" width="27.1000061" height="9.7000122"/>
			<path class="st10" d="M345.7999878,402.7000122h26.1000061v8.7000122h-26.1000061V402.7000122 M344.7999878,401.7000122
				v10.7000122h28.1000061v-10.7000122H344.7999878L344.7999878,401.7000122z"/>
		</g>
		<path class="st11" d="M345.2000122,411.8999939l27.5-9.7000122"/>
	</g>
	<g>
		
			<rect x="416.4692993" y="93.0992432" transform="matrix(0.2252977 -0.97429 0.97429 0.2252977 227.2339325 482.9751282)" class="st0" width="1.7000297" height="11.0001135"/>
		<path class="st10" d="M412.5,97.0999985l9.7999878,2.3000031l-0.2000122,0.6999969l-9.7999878-2.3000031L412.5,97.0999985
			 M411.7999878,95.9000015l-0.6000061,2.6999969l11.7000122,2.6999969L423.5,98.5999985L411.7999878,95.9000015
			L411.7999878,95.9000015z"/>
	</g>
</g>
<g id="Numbers">
	<g>
		<path class="st8" d="M344.2999878,274.7999878l-1.6000061,1.7999878h2.7000122v1h-4.2000122v-0.8999939l2.1000061-2.2999878
			l0.5-0.6000061c0.1000061-0.1000061,0.2000122-0.2999878,0.2999878-0.5s0.1000061-0.3999939,0.1000061-0.6000061
			c0-0.2999878-0.1000061-0.5-0.2999878-0.7000122c-0.2000122-0.2000122-0.5-0.2999878-0.7999878-0.2999878
			c-0.5,0-1,0.2000122-1.6000061,0.7000122l-0.6000061-0.7000122c0.7000122-0.6000061,1.3999939-1,2.2000122-1
			c0.6000061,0,1.1000061,0.2000122,1.5,0.6000061s0.6000061,0.8999939,0.6000061,1.3999939
			C345.3999939,273.2999878,345,274,344.2999878,274.7999878z"/>
		<path class="st8" d="M349.3999939,274.7999878l-1.6000061,1.7999878H350.5v1h-4.2000122v-0.8999939l2.1000061-2.2999878
			l0.5-0.6000061c0.1000061-0.1000061,0.2000122-0.2999878,0.2999878-0.5s0.1000061-0.3999939,0.1000061-0.6000061
			c0-0.2999878-0.1000061-0.5-0.2999878-0.7000122c-0.2000122-0.2000122-0.5-0.2999878-0.7999878-0.2999878
			c-0.5,0-1,0.2000122-1.6000061,0.7000122L346,271.6999817c0.7000122-0.6000061,1.3999939-1,2.2000122-1
			c0.6000061,0,1.1000061,0.2000122,1.5,0.6000061s0.6000061,0.8999939,0.6000061,1.3999939
			C350.5,273.2999878,350.1000061,274,349.3999939,274.7999878z"/>
		<path class="st8" d="M352,277.6000061c-0.2000122,0-0.2999878-0.1000061-0.5-0.2000122
			c-0.1000061-0.1000061-0.2000122-0.2999878-0.2000122-0.5S351.3999939,276.6000061,351.5,276.5s0.2999878-0.2000122,0.5-0.2000122
			s0.2999878,0.1000061,0.3999939,0.2000122s0.2000122,0.2999878,0.2000122,0.3999939
			c0,0.2000122-0.1000061,0.2999878-0.2000122,0.5C352.3999939,277.6000061,352.2000122,277.6000061,352,277.6000061z"/>
		<path class="st8" d="M355.7000122,273.2000122c0.6000061,0,1.2000122,0.2000122,1.6000061,0.6000061
			s0.6000061,0.8999939,0.6000061,1.6000061s-0.2000122,1.2000122-0.7000122,1.6000061
			c-0.3999939,0.3999939-1,0.6000061-1.7000122,0.6000061c-0.7999878,0-1.5-0.2999878-2.2000122-0.7999878l0.5-0.7999878
			c0.6000061,0.3999939,1.1000061,0.6000061,1.7000122,0.6000061c0.3999939,0,0.7000122-0.1000061,1-0.3999939
			c0.2999878-0.2000122,0.3999939-0.5,0.3999939-0.8999939s-0.1000061-0.7000122-0.3999939-0.8999939
			c-0.2000122-0.2000122-0.6000061-0.3999939-1-0.3999939c-0.5,0-0.8999939,0.2000122-1.2000122,0.5l-0.6000061-0.3999939
			l0.3999939-3.2999878h3.3999939v0.8999939h-2.6000061l-0.2000122,1.6000061
			C355,273.2999878,355.3999939,273.2000122,355.7000122,273.2000122z"/>
	</g>
	<g>
		<path class="st8" d="M380.3999939,125.5l1.8999939-1.5999985h0.7999878v6.7000046h-1v-5.3000031l-1.2000122,0.9000015
			L380.3999939,125.5z"/>
		<path class="st8" d="M383.8999939,125.5l1.8999939-1.5999985h0.7999878v6.7000046h-1v-5.3000031l-1.2000122,0.9000015
			L383.8999939,125.5z"/>
		<path class="st8" d="M388.6000061,130.6000061c-0.2000122,0-0.2999878-0.1000061-0.5-0.1999969
			s-0.2000122-0.3000031-0.2000122-0.5s0.1000061-0.3000031,0.2000122-0.3999939s0.2999878-0.1999969,0.5-0.1999969
			s0.2999878,0.1000061,0.3999939,0.1999969s0.2000122,0.3000031,0.2000122,0.3999939
			c0,0.1999969-0.1000061,0.3000031-0.2000122,0.5S388.7000122,130.6000061,388.6000061,130.6000061z"/>
		<path class="st8" d="M394,128h0.7000122v0.8999939H394V130.5h-1v-1.6000061h-3l-0.2000122-0.6000061l3.6000061-4.4000015
			h0.7000122V128H394z M393,125.5999985L391,128h2V125.5999985z"/>
	</g>
	<g>
		<path class="st8" d="M315.6000061,210.3999939c-0.7000122,0-1.3999939-0.1999969-2.1000061-0.6999969l0.5-0.8000031
			c0.6000061,0.3999939,1.1000061,0.5,1.6000061,0.5c0.3999939,0,0.7000122-0.1000061,0.8999939-0.3000031
			c0.2000122-0.1999969,0.2999878-0.3999939,0.2999878-0.8000031c0-0.3000031-0.1000061-0.6000061-0.3999939-0.8000031
			c-0.2000122-0.1999969-0.5-0.3000031-0.8999939-0.3000031h-0.7999878v-0.8999939H315.5
			c0.2999878,0,0.6000061-0.1000061,0.7999878-0.3000031c0.2000122-0.1999969,0.2999878-0.3999939,0.2999878-0.6999969
			s-0.1000061-0.5-0.2999878-0.6999969s-0.5-0.3000031-0.7999878-0.3000031c-0.3999939,0-0.8999939,0.1999969-1.3999939,0.6000061
			l-0.5-0.6999969C313.8000183,204,314.2000122,203.8000031,314.5,203.5999908
			c0.3999939-0.1000061,0.7000122-0.1999969,1.1000061-0.1999969c0.6000061,0,1.1000061,0.1999969,1.5,0.5
			s0.6000061,0.8000031,0.6000061,1.1999969s-0.1000061,0.6999969-0.2999878,0.8999939
			c-0.2000122,0.3000031-0.5,0.5-0.7999878,0.6000061l0,0c0.3999939,0.1000061,0.7000122,0.3000031,1,0.6000061
			c0.2000122,0.3000031,0.2999878,0.6000061,0.2999878,1.1000061c0,0.6000061-0.2000122,1-0.6000061,1.3999939
			C316.7999878,210.1999969,316.2999878,210.3999939,315.6000061,210.3999939z"/>
		<path class="st8" d="M319.3999939,210.3999939c-0.2000122,0-0.2999878-0.1000061-0.5-0.1999969
			c-0.1000061-0.1000061-0.2000122-0.3000031-0.2000122-0.5s0.1000061-0.3000031,0.2000122-0.3999939
			c0.1000061-0.1000061,0.2999878-0.1999969,0.5-0.1999969s0.2999878,0.1000061,0.3999939,0.1999969
			C319.8999939,209.4000092,320,209.6000061,320,209.6999969c0,0.1999969-0.1000061,0.3000031-0.2000122,0.5
			C319.7999878,210.3999939,319.6000061,210.3999939,319.3999939,210.3999939z"/>
		<path class="st8" d="M323.2999878,210.3999939c-0.7000122,0-1.2999878-0.1999969-1.7000122-0.5
			C321.1999817,209.5,320.8999634,209.0999908,320.8999634,208.5c0-0.3999939,0.1000061-0.6999969,0.3999939-1
			c0.2000122-0.3000031,0.5-0.5,0.8999939-0.6999969l0,0c-0.2999878-0.1000061-0.6000061-0.3999939-0.7000122-0.6000061
			c-0.2000122-0.3000031-0.2999878-0.5-0.2999878-0.8999939c0-0.5,0.2000122-0.8999939,0.6000061-1.3000031
			c0.3999939-0.3000031,0.8999939-0.5,1.5-0.5s1.1000061,0.1999969,1.5,0.5s0.6000061,0.8000031,0.6000061,1.3000031
			c0,0.3000031-0.1000061,0.6000061-0.2999878,0.8999939s-0.3999939,0.5-0.7000122,0.6000061l0,0
			c0.3999939,0.1000061,0.7000122,0.3999939,0.8999939,0.6999969c0.2000122,0.3000031,0.3999939,0.6999969,0.3999939,1
			c0,0.6000061-0.2000122,1-0.7000122,1.3999939C324.6000061,210.1999969,324,210.3999939,323.2999878,210.3999939z
			 M323.2999878,209.5c0.3999939,0,0.7000122-0.1000061,1-0.3000031s0.3999939-0.5,0.3999939-0.8000031
			s-0.1000061-0.6000061-0.3999939-0.8000031s-0.6000061-0.3000031-1-0.3000031s-0.7000122,0.1000061-1,0.3000031
			s-0.3999939,0.5-0.3999939,0.8000031S322,209,322.2999878,209.1999969
			C322.6000061,209.3999939,322.8999939,209.5,323.2999878,209.5z M324.2000122,206.1000061
			c0.2000122-0.1999969,0.2999878-0.3999939,0.2999878-0.6999969s-0.1000061-0.5-0.2999878-0.6999969
			c-0.2000122-0.1999969-0.5-0.3000031-0.7999878-0.3000031s-0.6000061,0.1000061-0.7999878,0.3000031
			c-0.2000122,0.1999969-0.2999878,0.3999939-0.2999878,0.6999969s0.1000061,0.5,0.2999878,0.6999969
			c0.2000122,0.1999969,0.5,0.3000031,0.7999878,0.3000031
			C323.7000122,206.3999939,323.8999939,206.3000031,324.2000122,206.1000061z"/>
	</g>
	<g>
		<path class="st8" d="M381.8999939,229.1999969L380.2999878,231H383v1h-4.2000122v-1l2.1000061-2.3000031l0.5-0.6000061
			c0.1000061-0.1000061,0.2000122-0.3000031,0.2999878-0.5c0.1000061-0.1999969,0.1000061-0.3999939,0.1000061-0.6000061
			c0-0.3000031-0.1000061-0.5-0.2999878-0.6999969c-0.2000122-0.1999969-0.5-0.3000031-0.7999878-0.3000031
			c-0.5,0-1,0.1999969-1.6000061,0.6999969L378.5,225.9999847c0.7000122-0.6000061,1.3999939-1,2.2000122-1
			c0.6000061,0,1.1000061,0.1999969,1.5,0.6000061c0.3999939,0.3999939,0.6000061,0.8999939,0.6000061,1.3999939
			C382.8999939,227.6999969,382.6000061,228.3999939,381.8999939,229.1999969z"/>
		<path class="st8" d="M384.5,232c-0.2000122,0-0.2999878-0.1000061-0.5-0.1999969
			c-0.1000061-0.1000061-0.2000122-0.3000031-0.2000122-0.5S383.8999939,231,384,230.9000092
			c0.1000061-0.1000061,0.2999878-0.1999969,0.5-0.1999969s0.2999878,0.1000061,0.3999939,0.1999969
			c0.1000061,0.1000061,0.2000122,0.3000031,0.2000122,0.3999939c0,0.1999969-0.1000061,0.3000031-0.2000122,0.5
			S384.7000122,232,384.5,232z"/>
		<path class="st8" d="M388.5,227.6000061c0.6000061,0,1.1000061,0.1999969,1.5,0.6000061
			c0.3999939,0.3999939,0.6000061,0.8999939,0.6000061,1.5s-0.2000122,1.1999969-0.7000122,1.6000061
			c-0.3999939,0.3999939-1,0.6000061-1.7000122,0.6000061c-0.7999878,0-1.3999939-0.3000031-1.7999878-0.8999939
			c-0.3999939-0.6000061-0.6000061-1.3999939-0.6000061-2.3000031c0-0.6000061,0.1000061-1.1999969,0.2999878-1.8000031
			s0.5-1,0.8999939-1.3000031c0.3999939-0.3999939,1-0.5,1.6000061-0.5c0.7000122,0,1.2999878,0.1999969,1.7000122,0.6000061
			l-0.3999939,0.8000031c-0.3999939-0.3000031-0.7999878-0.3999939-1.2000122-0.3999939
			c-0.3999939,0-0.7000122,0.1000061-1,0.3999939c-0.5,0.5-0.7999878,1.1999969-0.7999878,2.1000061
			c0.2000122-0.3000031,0.3999939-0.5,0.7000122-0.6999969S388.1000061,227.6000061,388.5,227.6000061z M388.2999878,231.1000061
			c0.3999939,0,0.7000122-0.1000061,0.8999939-0.3999939c0.2000122-0.3000031,0.3999939-0.6000061,0.3999939-0.8999939
			c0-0.3999939-0.1000061-0.6999969-0.3999939-0.8999939c-0.2000122-0.1999969-0.5-0.3999939-0.8999939-0.3999939
			s-0.7000122,0.1000061-0.8999939,0.3999939C387.1999817,229.1000214,387,229.5000305,387,229.8000183
			c0,0.3999939,0.1000061,0.6999969,0.3999939,0.8999939C387.6000061,230.8999939,387.8999939,231.1000061,388.2999878,231.1000061z
			"/>
	</g>
	<g>
		<path class="st8" d="M401.3999939,277.5c-0.7000122,0-1.3999939-0.2000122-2.1000061-0.7000122l0.5-0.7999878
			c0.6000061,0.3999939,1.1000061,0.5,1.6000061,0.5c0.3999939,0,0.7000122-0.1000061,0.8999939-0.2999878
			C402.5,276,402.5999756,275.8000183,402.5999756,275.4000244c0-0.2999878-0.1000061-0.6000061-0.3999939-0.7999878
			c-0.2000122-0.2000122-0.5-0.2999878-0.8999939-0.2999878H400.5v-0.8999939h0.7999878
			c0.2999878,0,0.6000061-0.1000061,0.7999878-0.2999878c0.2000122-0.2000122,0.2999878-0.3999939,0.2999878-0.7000122
			c0-0.2999878-0.1000061-0.5-0.2999878-0.7000122s-0.5-0.2999878-0.7999878-0.2999878
			c-0.3999939,0-0.8999939,0.2000122-1.3999939,0.6000061l-0.5-0.7000122c0.2000122-0.2000122,0.5-0.3999939,0.8999939-0.6000061
			c0.3999939-0.1000061,0.7000122-0.2000122,1.1000061-0.2000122c0.6000061,0,1.1000061,0.2000122,1.5,0.5
			S403.5,271.8000183,403.5,272.2000427c0,0.3999939-0.1000061,0.7000122-0.2999878,0.8999939
			c-0.2000122,0.2999878-0.5,0.5-0.7999878,0.6000061l0,0c0.3999939,0.1000061,0.7000122,0.2999878,1,0.6000061
			c0.2000122,0.2999878,0.2999878,0.6000061,0.2999878,1.1000061c0,0.6000061-0.2000122,1-0.6000061,1.3999939
			C402.7000122,277.2999878,402.1000061,277.5,401.3999939,277.5z"/>
		<path class="st8" d="M405.2999878,277.5c-0.2000122,0-0.2999878-0.1000061-0.5-0.2000122
			c-0.1000061-0.1000061-0.2000122-0.2999878-0.2000122-0.5s0.1000061-0.2999878,0.2000122-0.3999939
			s0.2999878-0.2000122,0.5-0.2000122s0.2999878,0.1000061,0.3999939,0.2000122s0.2000122,0.2999878,0.2000122,0.3999939
			c0,0.2000122-0.1000061,0.2999878-0.2000122,0.5C405.6000061,277.5,405.5,277.5,405.2999878,277.5z"/>
		<path class="st8" d="M410.7000122,274.8999939h0.7000122v0.8999939h-0.7000122v1.6000061h-1v-1.6000061h-3L406.5,275.1999817
			l3.6000061-4.3999939h0.7000122v4.1000061H410.7000122z M409.7000122,272.5l-2,2.3999939h2V272.5z"/>
	</g>
	<g>
		<path class="st8" d="M297.8999939,390.5c-0.7000122,0-1.3999939-0.2000122-2.1000061-0.7000122l0.5-0.7999878
			c0.6000061,0.3999939,1.1000061,0.5,1.6000061,0.5c0.3999939,0,0.7000122-0.1000061,0.8999939-0.2999878
			C299,389,299.0999756,388.8000183,299.0999756,388.4000244c0-0.2999878-0.1000061-0.6000061-0.3999939-0.7999878
			c-0.2000122-0.2000122-0.5-0.2999878-0.8999939-0.2999878H297v-0.8999939h0.7999878
			c0.2999878,0,0.6000061-0.1000061,0.7999878-0.2999878c0.2000122-0.2000122,0.2999878-0.3999939,0.2999878-0.7000122
			c0-0.2999878-0.1000061-0.5-0.2999878-0.7000122s-0.5-0.2999878-0.7999878-0.2999878
			c-0.3999939,0-0.8999939,0.2000122-1.3999939,0.6000061l-0.5-0.7000122
			c0.2000122-0.2000122,0.6000061-0.3999939,0.8999939-0.6000061c0.3999939-0.1000061,0.7000122-0.2000122,1.1000061-0.2000122
			c0.6000061,0,1.1000061,0.2000122,1.5,0.5S300,384.8000183,300,385.2000427c0,0.3999939-0.1000061,0.7000122-0.2999878,0.8999939
			c-0.2000122,0.2999878-0.5,0.5-0.7999878,0.6000061l0,0c0.3999939,0.1000061,0.7000122,0.2999878,1,0.6000061
			c0.2000122,0.2999878,0.2999878,0.6000061,0.2999878,1.1000061c0,0.6000061-0.2000122,1-0.6000061,1.3999939
			C299.1000061,390.2999878,298.6000061,390.5,297.8999939,390.5z"/>
		<path class="st8" d="M301.7000122,390.5c-0.2000122,0-0.2999878-0.1000061-0.5-0.2000122
			C301.1000061,390.1999817,301,390,301,389.7999878s0.1000061-0.2999878,0.2000122-0.3999939s0.2999878-0.2000122,0.5-0.2000122
			s0.2999878,0.1000061,0.3999939,0.2000122s0.2000122,0.2999878,0.2000122,0.3999939
			c0,0.2000122-0.1000061,0.2999878-0.2000122,0.5C302.1000061,390.5,301.8999939,390.5,301.7000122,390.5z"/>
		<path class="st8" d="M307.2000122,387.8999939h0.7000122v0.8999939h-0.7000122v1.6000061h-1v-1.6000061h-3L303,388.1999817
			l3.6000061-4.3999939h0.7000122v4.1000061H307.2000122z M306.2000122,385.5l-2,2.3999939h2V385.5z"/>
	</g>
	<g>
		<path class="st8" d="M354.1000061,387.7000122L352.5,389.5h2.7000122v1H351v-0.8999939l2.1000061-2.2999878l0.5-0.6000061
			c0.1000061-0.1000061,0.2000122-0.2999878,0.2999878-0.5S354,385.8000183,354,385.6000061
			c0-0.2999878-0.1000061-0.5-0.2999878-0.7000122c-0.2000122-0.2000122-0.5-0.2999878-0.7999878-0.2999878
			c-0.5,0-1,0.2000122-1.6000061,0.7000122l-0.6000061-0.7000122c0.7000122-0.6000061,1.3999939-1,2.2000122-1
			c0.6000061,0,1.1000061,0.2000122,1.5,0.6000061s0.6000061,0.8999939,0.6000061,1.3999939
			C355.1000061,386.2000122,354.7999878,386.8999939,354.1000061,387.7000122z"/>
		<path class="st8" d="M356.7000122,390.5c-0.2000122,0-0.2999878-0.1000061-0.5-0.2000122
			C356.1000061,390.1999817,356,390,356,389.7999878s0.1000061-0.2999878,0.2000122-0.3999939s0.2999878-0.2000122,0.5-0.2000122
			s0.2999878,0.1000061,0.3999939,0.2000122s0.2000122,0.2999878,0.2000122,0.3999939
			c0,0.2000122-0.1000061,0.2999878-0.2000122,0.5C357.1000061,390.5,356.8999939,390.5,356.7000122,390.5z"/>
		<path class="st8" d="M361.2999878,387.7000122L359.6999817,389.5h2.7000122v1h-4.2000122v-0.8999939l2.1000061-2.2999878
			l0.5-0.6000061c0.1000061-0.1000061,0.2000122-0.2999878,0.2999878-0.5s0.1000061-0.3999939,0.1000061-0.6000061
			c0-0.2999878-0.1000061-0.5-0.2999878-0.7000122c-0.2000122-0.2000122-0.5-0.2999878-0.7999878-0.2999878
			c-0.5,0-1,0.2000122-1.6000061,0.7000122l-0.6000061-0.7000122c0.7000122-0.6000061,1.3999939-1,2.2000122-1
			c0.6000061,0,1.1000061,0.2000122,1.5,0.6000061s0.6000061,0.8999939,0.6000061,1.3999939
			C362.3999939,386.2000122,362,386.8999939,361.2999878,387.7000122z"/>
	</g>
	<g>
		<path class="st8" d="M426.8999939,208.1999969h0.7000122v0.8999939h-0.7000122v1.6000061h-1v-1.6000061h-3l-0.2000122-0.6000061
			l3.6000061-4.3999939H427v4.1000061H426.8999939z M425.8999939,205.8000031l-2,2.3999939h2V205.8000031z"/>
	</g>
	<g>
		<path class="st8" d="M315.3999939,156.1000061L317.2999878,154.5h0.7999878v6.6999969h-1v-5.3000031l-1.2000122,0.8999939
			L315.3999939,156.1000061z"/>
		<path class="st8" d="M321.6000061,156.8000031c0.6000061,0,1.2000122,0.1999969,1.6000061,0.6000061
			c0.3999939,0.3999939,0.6000061,0.8999939,0.6000061,1.6000061c0,0.6999969-0.2000122,1.1999969-0.7000122,1.6000061
			c-0.3999939,0.3999939-1,0.6000061-1.7000122,0.6000061c-0.7999878,0-1.5-0.3000031-2.2000122-0.8000031l0.5-0.8000031
			c0.6000061,0.3999939,1.1000061,0.6000061,1.7000122,0.6000061c0.3999939,0,0.7000122-0.1000061,1-0.3999939
			c0.2999878-0.1999969,0.3999939-0.5,0.3999939-0.8999939s-0.1000061-0.6999969-0.3999939-0.8999939
			c-0.2000122-0.1999969-0.6000061-0.3999939-1-0.3999939c-0.5,0-0.8999939,0.1999969-1.2000122,0.5l-0.6000061-0.3999939
			l0.3999939-3.3000031h3.3999939v0.8999939h-2.6000061l-0.2000122,1.6000061
			C320.8999939,156.8999939,321.2000122,156.8000031,321.6000061,156.8000031z"/>
	</g>
</g>
<g id="street_anchors" class="st15">
	<rect id="street_anchor_01_1_" x="362.6000061" y="20.2000008" class="st16" width="10" height="10"/>
	<rect id="street_anchor_02_1_" x="218.8000031" y="235" class="st16" width="10" height="10"/>
</g>
</svg>
