<?xml version="1.0" encoding="utf-8"?>
<!-- Generator: Adobe Illustrator 24.2.0, SVG Export Plug-In . SVG Version: 6.00 Build 0)  -->
<!DOCTYPE svg PUBLIC "-//W3C//DTD SVG 1.1//EN" "http://www.w3.org/Graphics/SVG/1.1/DTD/svg11.dtd" [
	<!ENTITY ns_extend "http://ns.adobe.com/Extensibility/1.0/">
	<!ENTITY ns_ai "http://ns.adobe.com/AdobeIllustrator/10.0/">
	<!ENTITY ns_graphs "http://ns.adobe.com/Graphs/1.0/">
	<!ENTITY ns_vars "http://ns.adobe.com/Variables/1.0/">
	<!ENTITY ns_imrep "http://ns.adobe.com/ImageReplacement/1.0/">
	<!ENTITY ns_sfw "http://ns.adobe.com/SaveForWeb/1.0/">
	<!ENTITY ns_custom "http://ns.adobe.com/GenericCustomNamespace/1.0/">
	<!ENTITY ns_adobe_xpath "http://ns.adobe.com/XPath/1.0/">
]>
<svg version="1.1" id="_x31__x5F_2" xmlns:x="&ns_extend;" xmlns:i="&ns_ai;" xmlns:graph="&ns_graphs;"
	 xmlns="http://www.w3.org/2000/svg" xmlns:xlink="http://www.w3.org/1999/xlink" x="0px" y="0px" viewBox="0 0 720 480"
	 style="enable-background:new 0 0 720 480;" xml:space="preserve">
<style type="text/css">
	.st0{fill:#DBD4CA;}
	.st1{clip-path:url(#SVGID_2_);}
	.st2{fill:none;stroke:#C49F8A;stroke-miterlimit:10;}
	.st3{opacity:0.3;clip-path:url(#SVGID_2_);}
	.st4{opacity:0.7;fill:#C49F8A;}
	.st5{clip-path:url(#SVGID_4_);}
	.st6{opacity:0.3;clip-path:url(#SVGID_4_);}
	.st7{fill:none;stroke:#565440;}
	.st8{fill:#565440;}
	.st9{fill:#E9E4DC;}
	.st10{fill:#C49F8A;}
	.st11{fill:#E9E4DC;stroke:#C49F8A;}
	.st12{fill:#E9E4DC;stroke:#C49F8A;stroke-miterlimit:3.9998;}
	.st13{fill:none;stroke:#C49F8A;}
	.st14{fill:#E9E4DC;stroke:#C49F8A;stroke-linejoin:round;}
	.st15{opacity:0.72;}
	.st16{fill:#3F3F3F;fill-opacity:0;}
</style>
<metadata>
	<sfw  xmlns="&ns_sfw;">
		<slices></slices>
		<sliceSourceBounds  bottomLeftOrigin="true" height="813.7403564" width="673.0187988" x="139.1427917" y="-81.8581619">
			</sliceSourceBounds>
	</sfw>
</metadata>
<rect id="Floor" x="257" y="63.0999985" class="st0" width="211" height="351.5"/>
<g id="Wet_Floor">
	<g id="Wet_Floor_1_">
		<defs>
			<rect id="SVGID_1_" x="384.5092163" y="206.5337372" width="83.490799" height="101.766243"/>
		</defs>
		<clipPath id="SVGID_2_">
			<use xlink:href="#SVGID_1_"  style="overflow:visible;"/>
		</clipPath>
		<g class="st1">
			<g>
				<line class="st2" x1="149.9176941" y1="238.4428101" x2="483.4008789" y2="-95.04039"/>
				<line class="st2" x1="139.4963379" y1="228.0214539" x2="472.9795532" y2="-105.4617386"/>
				<line class="st2" x1="160.339035" y1="248.864151" x2="493.8222351" y2="-84.6190414"/>
				<line class="st2" x1="170.7603912" y1="259.2854919" x2="504.2435913" y2="-74.1976929"/>
				<line class="st2" x1="181.1817322" y1="269.7068481" x2="514.664917" y2="-63.7763443"/>
				<line class="st2" x1="191.6030884" y1="280.1282043" x2="525.0863037" y2="-53.3549957"/>
				<line class="st2" x1="202.0244293" y1="290.5495605" x2="535.5076294" y2="-42.9336472"/>
				<line class="st2" x1="212.4457855" y1="300.9708862" x2="545.9289551" y2="-32.5122986"/>
				<line class="st2" x1="222.8671265" y1="311.3922424" x2="556.3503418" y2="-22.0909519"/>
				<line class="st2" x1="233.2884827" y1="321.8135986" x2="566.7716675" y2="-11.6696024"/>
				<line class="st2" x1="222.8671265" y1="311.3922424" x2="556.3503418" y2="-22.0909519"/>
				<line class="st2" x1="243.7098236" y1="332.2349548" x2="577.1930542" y2="-1.2482544"/>
				<line class="st2" x1="254.1311798" y1="342.6562805" x2="587.6143799" y2="9.1730938"/>
				<line class="st2" x1="264.5525208" y1="353.0776367" x2="598.0357056" y2="19.5944424"/>
				<line class="st2" x1="274.973877" y1="363.4989929" x2="608.4570923" y2="30.0157909"/>
				<line class="st2" x1="285.3952332" y1="373.9203491" x2="618.878418" y2="40.4371376"/>
				<line class="st2" x1="295.8165588" y1="384.3416748" x2="629.2997437" y2="50.8584862"/>
				<line class="st2" x1="306.237915" y1="394.763031" x2="639.7211304" y2="61.2798347"/>
				<line class="st2" x1="316.6592712" y1="405.1843872" x2="650.1424561" y2="71.7011871"/>
				<line class="st2" x1="306.237915" y1="394.763031" x2="639.7211304" y2="61.2798347"/>
				<line class="st2" x1="327.0806274" y1="415.6057434" x2="660.5638428" y2="82.1225357"/>
				<line class="st2" x1="337.5019531" y1="426.0270691" x2="670.9851685" y2="92.5438843"/>
				<line class="st2" x1="347.9233093" y1="436.4484253" x2="681.4064941" y2="102.9652328"/>
				<line class="st2" x1="358.3446655" y1="446.8697815" x2="691.8278809" y2="113.3865814"/>
				<line class="st2" x1="368.7660217" y1="457.2911377" x2="702.2492065" y2="123.8079224"/>
				<line class="st2" x1="379.1873474" y1="467.7124634" x2="712.6705322" y2="134.2292786"/>
				<line class="st2" x1="389.6087036" y1="478.1338196" x2="723.0919189" y2="144.6506195"/>
				<line class="st2" x1="400.0300598" y1="488.5551758" x2="733.5132446" y2="155.0719757"/>
				<line class="st2" x1="389.6087036" y1="478.1338196" x2="723.0919189" y2="144.6506195"/>
				<line class="st2" x1="410.451416" y1="498.976532" x2="743.9345703" y2="165.4933167"/>
				<line class="st2" x1="420.8727417" y1="509.3978577" x2="754.355957" y2="175.9146729"/>
				<line class="st2" x1="431.2940979" y1="519.8192139" x2="764.7772827" y2="186.3360138"/>
				<line class="st2" x1="441.7154541" y1="530.2405396" x2="775.1986694" y2="196.75737"/>
				<line class="st2" x1="452.1368103" y1="540.6619263" x2="785.6199951" y2="207.1787109"/>
				<line class="st2" x1="462.558136" y1="551.083252" x2="796.0413208" y2="217.6000671"/>
				<line class="st2" x1="472.9794922" y1="561.5045776" x2="806.4627075" y2="228.0214081"/>
			</g>
			<g>
				<line class="st2" x1="483.4007874" y1="551.0831299" x2="149.9177399" y2="217.6000519"/>
				<line class="st2" x1="472.9794312" y1="561.5044556" x2="139.4963837" y2="228.0214081"/>
				<line class="st2" x1="493.8221436" y1="540.6617432" x2="160.3390808" y2="207.1787109"/>
				<line class="st2" x1="504.2434692" y1="530.2404175" x2="170.760437" y2="196.7573547"/>
				<line class="st2" x1="514.664856" y1="519.8190308" x2="181.181778" y2="186.3360138"/>
				<line class="st2" x1="525.0861816" y1="509.3977051" x2="191.6031342" y2="175.9146576"/>
				<line class="st2" x1="535.5075073" y1="498.9763794" x2="202.0244751" y2="165.4933167"/>
				<line class="st2" x1="545.928894" y1="488.5550232" x2="212.4458313" y2="155.0719604"/>
				<line class="st2" x1="556.3502197" y1="478.133667" x2="222.8671722" y2="144.6506195"/>
				<line class="st2" x1="566.7715454" y1="467.7123108" x2="233.2885284" y2="134.2292633"/>
				<line class="st2" x1="556.3502197" y1="478.133667" x2="222.8671722" y2="144.6506195"/>
				<line class="st2" x1="577.1929321" y1="457.2909851" x2="243.7098694" y2="123.8079224"/>
				<line class="st2" x1="587.6142578" y1="446.8696289" x2="254.1312256" y2="113.3865738"/>
				<line class="st2" x1="598.0356445" y1="436.4482727" x2="264.5525818" y2="102.9652252"/>
				<line class="st2" x1="608.4569702" y1="426.0269165" x2="274.9739075" y2="92.5438766"/>
				<line class="st2" x1="618.8782959" y1="415.6055908" x2="285.3952637" y2="82.1225281"/>
				<line class="st2" x1="629.2996826" y1="405.1842346" x2="295.8166199" y2="71.7011795"/>
				<line class="st2" x1="639.7210083" y1="394.7628784" x2="306.2379761" y2="61.2798271"/>
				<line class="st2" x1="650.142334" y1="384.3415222" x2="316.6593018" y2="50.8584785"/>
				<line class="st2" x1="639.7210083" y1="394.7628784" x2="306.2379761" y2="61.2798271"/>
				<line class="st2" x1="660.5637207" y1="373.9201965" x2="327.080658" y2="40.43713"/>
				<line class="st2" x1="670.9850464" y1="363.4988403" x2="337.5020142" y2="30.0157833"/>
				<line class="st2" x1="681.4064331" y1="353.0774841" x2="347.9233398" y2="19.5944347"/>
				<line class="st2" x1="691.8277588" y1="342.6561279" x2="358.344696" y2="9.1730862"/>
				<line class="st2" x1="702.2490845" y1="332.2348022" x2="368.7660522" y2="-1.2482617"/>
				<line class="st2" x1="712.6704712" y1="321.813446" x2="379.1874084" y2="-11.66961"/>
				<line class="st2" x1="723.0917969" y1="311.3920898" x2="389.6087341" y2="-22.0909576"/>
				<line class="st2" x1="733.5131226" y1="300.9707336" x2="400.0300903" y2="-32.5123062"/>
				<line class="st2" x1="723.0917969" y1="311.3920898" x2="389.6087341" y2="-22.0909576"/>
				<line class="st2" x1="743.9345093" y1="290.549408" x2="410.4514465" y2="-42.9336548"/>
				<line class="st2" x1="754.355835" y1="280.1280518" x2="420.8728027" y2="-53.3550034"/>
				<line class="st2" x1="764.7772217" y1="269.7066956" x2="431.2941284" y2="-63.7763519"/>
				<line class="st2" x1="775.1985474" y1="259.2853394" x2="441.7154846" y2="-74.1977005"/>
				<line class="st2" x1="785.619873" y1="248.8639984" x2="452.1368408" y2="-84.6190491"/>
				<line class="st2" x1="796.0412598" y1="238.4426575" x2="462.558197" y2="-95.0403976"/>
				<line class="st2" x1="806.4625854" y1="228.0213013" x2="472.9795227" y2="-105.4617462"/>
			</g>
		</g>
		<g class="st3">
			<rect x="311.9000244" y="56.5205421" class="st4" width="322.1589355" height="322.1589355"/>
		</g>
	</g>
	<g id="Wet_Floor_2_">
		<defs>
			<rect id="SVGID_3_" x="404.8999939" y="66.8312912" width="58.7871208" height="87.5687027"/>
		</defs>
		<clipPath id="SVGID_4_">
			<use xlink:href="#SVGID_3_"  style="overflow:visible;"/>
		</clipPath>
		<g class="st5">
			<g>
				<line class="st2" x1="155.2630615" y1="92.3759384" x2="488.7462769" y2="-241.107254"/>
				<line class="st2" x1="144.8417206" y1="81.9545898" x2="478.3249207" y2="-251.5286102"/>
				<line class="st2" x1="165.6844177" y1="102.797287" x2="499.1676025" y2="-230.6859131"/>
				<line class="st2" x1="176.1057587" y1="113.2186356" x2="509.5889587" y2="-220.2645569"/>
				<line class="st2" x1="186.5271149" y1="123.6399841" x2="520.0103149" y2="-209.8432159"/>
				<line class="st2" x1="196.9484558" y1="134.0613403" x2="530.4316406" y2="-199.4218597"/>
				<line class="st2" x1="207.369812" y1="144.4826813" x2="540.8530273" y2="-189.0005188"/>
				<line class="st2" x1="217.791153" y1="154.9040375" x2="551.274353" y2="-178.5791626"/>
				<line class="st2" x1="228.2125092" y1="165.3253784" x2="561.6956787" y2="-168.1578217"/>
				<line class="st2" x1="238.6338501" y1="175.7467346" x2="572.1170654" y2="-157.7364655"/>
				<line class="st2" x1="228.2125092" y1="165.3253784" x2="561.6956787" y2="-168.1578217"/>
				<line class="st2" x1="249.0552063" y1="186.1680756" x2="582.5383911" y2="-147.3151245"/>
				<line class="st2" x1="259.4765625" y1="196.5894318" x2="592.9597778" y2="-136.8937683"/>
				<line class="st2" x1="269.8978882" y1="207.0107727" x2="603.3811035" y2="-126.4724274"/>
				<line class="st2" x1="280.3192444" y1="217.4321289" x2="613.8024292" y2="-116.0510788"/>
				<line class="st2" x1="290.7406006" y1="227.8534698" x2="624.2238159" y2="-105.6297302"/>
				<line class="st2" x1="301.1619568" y1="238.274826" x2="634.6451416" y2="-95.2083817"/>
				<line class="st2" x1="311.5832825" y1="248.696167" x2="645.0664673" y2="-84.7870331"/>
				<line class="st2" x1="322.0046387" y1="259.1175232" x2="655.487854" y2="-74.3656845"/>
				<line class="st2" x1="311.5832825" y1="248.696167" x2="645.0664673" y2="-84.7870331"/>
				<line class="st2" x1="332.4259949" y1="269.5388489" x2="665.9091797" y2="-63.9443359"/>
				<line class="st2" x1="342.8473511" y1="279.9602051" x2="676.3305664" y2="-53.5229874"/>
				<line class="st2" x1="353.2686768" y1="290.3815613" x2="686.7518921" y2="-43.1016388"/>
				<line class="st2" x1="363.690033" y1="300.8029175" x2="697.1732178" y2="-32.6802902"/>
				<line class="st2" x1="374.1113892" y1="311.2242432" x2="707.5946045" y2="-22.2589397"/>
				<line class="st2" x1="384.5327454" y1="321.6455994" x2="718.0159302" y2="-11.8375921"/>
				<line class="st2" x1="394.954071" y1="332.0669556" x2="728.4372559" y2="-1.4162438"/>
				<line class="st2" x1="405.3754272" y1="342.4883118" x2="738.8586426" y2="9.0051041"/>
				<line class="st2" x1="394.954071" y1="332.0669556" x2="728.4372559" y2="-1.4162438"/>
				<line class="st2" x1="415.7967834" y1="352.9096375" x2="749.2799683" y2="19.4264526"/>
				<line class="st2" x1="426.2181396" y1="363.3309937" x2="759.7012939" y2="29.8478012"/>
				<line class="st2" x1="436.6394653" y1="373.7523499" x2="770.1226807" y2="40.2691498"/>
				<line class="st2" x1="447.0608215" y1="384.1737061" x2="780.5440063" y2="50.6904984"/>
				<line class="st2" x1="457.4821777" y1="394.5950317" x2="790.9653931" y2="61.1118469"/>
				<line class="st2" x1="467.9035339" y1="405.0163879" x2="801.3867188" y2="71.5331955"/>
				<line class="st2" x1="478.3248596" y1="415.4377441" x2="811.8080444" y2="81.9545441"/>
			</g>
			<g>
				<line class="st2" x1="488.7461548" y1="405.0162354" x2="155.2631073" y2="71.5331879"/>
				<line class="st2" x1="478.3247986" y1="415.4375916" x2="144.8417664" y2="81.9545364"/>
				<line class="st2" x1="499.167511" y1="394.5948792" x2="165.6844635" y2="61.1118393"/>
				<line class="st2" x1="509.5888672" y1="384.1735535" x2="176.1058044" y2="50.6904907"/>
				<line class="st2" x1="520.0101929" y1="373.7521973" x2="186.5271606" y2="40.2691422"/>
				<line class="st2" x1="530.4315796" y1="363.3308411" x2="196.9485016" y2="29.8477936"/>
				<line class="st2" x1="540.8529053" y1="352.9094849" x2="207.3698578" y2="19.426445"/>
				<line class="st2" x1="551.274231" y1="342.4881592" x2="217.7911987" y2="9.0050974"/>
				<line class="st2" x1="561.6956177" y1="332.066803" x2="228.2125549" y2="-1.4162511"/>
				<line class="st2" x1="572.1169434" y1="321.6454468" x2="238.6338959" y2="-11.8375998"/>
				<line class="st2" x1="561.6956177" y1="332.066803" x2="228.2125549" y2="-1.4162511"/>
				<line class="st2" x1="582.538269" y1="311.2240906" x2="249.0552521" y2="-22.2589474"/>
				<line class="st2" x1="592.9596558" y1="300.8027649" x2="259.476593" y2="-32.6802979"/>
				<line class="st2" x1="603.3809814" y1="290.3814087" x2="269.8979492" y2="-43.1016464"/>
				<line class="st2" x1="613.8023682" y1="279.9600525" x2="280.3193054" y2="-53.5229912"/>
				<line class="st2" x1="624.2236938" y1="269.5386963" x2="290.7406311" y2="-63.9443398"/>
				<line class="st2" x1="634.6450195" y1="259.1173706" x2="301.1619873" y2="-74.3656921"/>
				<line class="st2" x1="645.0664063" y1="248.6960144" x2="311.5833435" y2="-84.7870407"/>
				<line class="st2" x1="655.4877319" y1="238.2746582" x2="322.0046692" y2="-95.2083893"/>
				<line class="st2" x1="645.0664063" y1="248.6960144" x2="311.5833435" y2="-84.7870407"/>
				<line class="st2" x1="665.9090576" y1="227.8533173" x2="332.4260254" y2="-105.6297379"/>
				<line class="st2" x1="676.3304443" y1="217.4319763" x2="342.8473816" y2="-116.0510864"/>
				<line class="st2" x1="686.75177" y1="207.0106201" x2="353.2687378" y2="-126.472435"/>
				<line class="st2" x1="697.1731567" y1="196.5892792" x2="363.6900635" y2="-136.8937836"/>
				<line class="st2" x1="707.5944824" y1="186.167923" x2="374.1114197" y2="-147.3151245"/>
				<line class="st2" x1="718.0158081" y1="175.746582" x2="384.5327759" y2="-157.7364807"/>
				<line class="st2" x1="728.4371948" y1="165.3252258" x2="394.9541321" y2="-168.1578217"/>
				<line class="st2" x1="738.8585205" y1="154.9038849" x2="405.3754578" y2="-178.5791779"/>
				<line class="st2" x1="728.4371948" y1="165.3252258" x2="394.9541321" y2="-168.1578217"/>
				<line class="st2" x1="749.2798462" y1="144.4825287" x2="415.796814" y2="-189.0005188"/>
				<line class="st2" x1="759.7012329" y1="134.0611877" x2="426.2181702" y2="-199.421875"/>
				<line class="st2" x1="770.1225586" y1="123.6398315" x2="436.6395264" y2="-209.8432159"/>
				<line class="st2" x1="780.5439453" y1="113.218483" x2="447.0608521" y2="-220.2645721"/>
				<line class="st2" x1="790.965271" y1="102.7971344" x2="457.4822083" y2="-230.6859131"/>
				<line class="st2" x1="801.3865967" y1="92.3757858" x2="467.9035645" y2="-241.1072693"/>
				<line class="st2" x1="811.8079834" y1="81.9544373" x2="478.3249207" y2="-251.5286102"/>
			</g>
		</g>
		<g class="st6">
			<rect x="317.2453918" y="-89.5463257" class="st4" width="322.1589355" height="322.1589355"/>
		</g>
	</g>
</g>
<path id="Windows" class="st7" d="M257,63.7999992h-3.6999969v355h208.4999847V415H257V150.8999939V63.7999992z"/>
<g id="Walls">
	<polygon class="st8" points="266.8999939,154.3999939 269.1000061,154.3999939 269.1000061,146.8999939 266.8999939,146.8999939 
		266.8999939,102.1999969 252,102.1999969 252,146.8999939 252,154.3999939 252,171.6999969 266.8999939,171.6999969 	"/>
	<rect x="252" y="209" class="st8" width="12.3999939" height="17.3999939"/>
	<polygon class="st8" points="353.7999878,295.8999939 356.2999878,295.8999939 356.2999878,283.3999939 356.2999878,281 
		266.8999939,281 266.8999939,261.1000061 252,261.1000061 252,330.6000061 266.8999939,330.6000061 266.8999939,283.3999939 
		353.7999878,283.3999939 	"/>
	<polygon class="st8" points="356.2999878,325.6000061 361.2000122,325.6000061 361.2000122,323.2000122 356.2999878,323.2000122 
		356.2999878,315.7000122 353.7999878,315.7000122 353.7999878,407.6000061 326.5,407.6000061 326.5,405.1000061 
		309.1000061,405.1000061 309.1000061,420 325.7999878,420 326.5,420 378.6000061,420 378.6000061,407.6000061 
		356.2999878,407.6000061 	"/>
	<rect x="252" y="365.3999939" class="st8" width="14.8999939" height="17.3999939"/>
	<path class="st8" d="M460.5,206.5h-36.7000122v2.5H460.5v49.6000061H386V209h18.6000061v-2.5H386h-2.5v116.7000122H381v2.5h5v-2.5
		v-14.8999939h29.7999878v-2.5H386v-44.7000122h74.5V297.5h-9l0,0H451v8.2999878h-15.2999878v2.5H460.5v96.7999878h-47.2000122V420
		H468v-12.3999939v-2.5v-222h-7.3999939V206.5H460.5z M460.5,305.7999878h-7.1000061V300H460.5V305.7999878z"/>
	<path class="st8" d="M252,60v7.4000015h152.8999939V70.5h2.5v-3.0999985h53.2000122v46.9000015h-53.2000122V88.9000015h-2.5V147
		H289.7999878v7.3999939h106.7999878v8.3000031h0.6000061l0,0h10.2999878l0,0v-2.5v-5.8000031h3.2999878v-2.5h-3.2999878v-3.6999969
		V147v-30h53.2000122v21.5h-7.1000061h-1.8999939H451v8.5h-6.2000122v5h-16.6000061v2.5h16.6000061l0,0H460.5v3.6999969h7.3999939
		V154.5v-7.3999939V67.5v-6.0999985V60H252z M404.8999939,160.1999969H399v-5.8000031h5.8999939V160.1999969z M460.5,146.8999939
		h-7.1000061v-6.1000061H460.5V146.8999939z"/>
</g>
<path id="Doors" class="st7" d="M353.7999878,315.7000122c-2.7000122,0-5-0.5-7.3999939-1.5c-2.5-1-4.7000122-2.5-6.5-4.2000122
	c-2-1.7000122-3.5-4-4.5-6.5s-1.5-5-1.5-7.7000122h19.8999939 M407.2000122,89.0999985c2.5,0,4.6000061-0.5,6.8999939-1.4000015
	s4.3999939-2.3000031,6-3.9000015c1.8999939-1.5999985,3.2000122-3.6999969,4.2000122-6
	c0.8999939-2.3000031,1.3999939-4.5999985,1.3999939-7.1999969h-18.5 M381.1000061,325.6000061c0,2.7000122-0.5,5-1.5,7.3999939
	c-1,2.5-2.5,4.7000122-4.2000122,6.5c-1.7000122,2-4,3.5-6.5,4.5s-5,1.5-7.7000122,1.5v-19.8999939 M415.8999939,308.2999878
	c0,2.7000122,0.5,5,1.5,7.3999939c1,2.5,2.5,4.7000122,4.2000122,6.5c1.7000122,2,4,3.5,6.5,4.5s5,1.5,7.7000122,1.5v-19.8999939
	 M424.5,209c0,2.6999969-0.5,5-1.5,7.3999939c-1,2.5-2.5,4.6999969-4.2000122,6.5c-1.7000122,2-4,3.5-6.5,4.5s-5,1.5-7.7000122,1.5
	V209 M428.6000061,151.8999939c0-2.5-0.5-4.5-1.3999939-6.8000031s-2.2999878-4.3000031-3.7999878-5.8999939
	c-1.6000061-1.8000031-3.6000061-3.1999969-5.8999939-4.1000061s-4.5-1.3999939-7-1.3999939v18.1000061 M289.8999939,146.8999939
	c0-2.8999939-0.5-5.1999969-1.6000061-7.8000031c-1-2.6000061-2.6000061-4.8999939-4.3999939-6.6999969
	c-1.7999878-2.1000061-4.1000061-3.6000061-6.7000122-4.6999969c-2.6000061-1-5.2000122-1.5999985-8-1.5999985v20.7000046
	 M460.5,182.8999939c-3.2000122,0-6.2000122-0.6999969-9.2000122-2s-6-3-8.2000122-5.5
	c-2.2000122-2.1999969-4.2000122-5-5.5-7.8999939c-1.2000122-3-2-6.1999969-2-9.3999939h24.7999878"/>
<g id="Furniture_1_">
	<g>
		<g>
			<rect x="300.5" y="332.8999939" class="st9" width="52.7999878" height="34.7000122"/>
			<path class="st10" d="M301,333.3999939h51.7999878v33.7000122H301V333.3999939 M300,332.3999939v35.7000122h53.7999878
				v-35.7000122H300L300,332.3999939z"/>
		</g>
		<rect x="336.7000122" y="351.1000061" class="st11" width="13.2999878" height="13.8999939"/>
		<rect x="336.7000122" y="335.3999939" class="st11" width="13.2999878" height="13.8999939"/>
		<polygon class="st12" points="342.1000061,363.2999878 345.5,353.2000122 332.7000122,350.5 329.2000122,360.6000061 		"/>
		<polygon class="st12" points="332.6000061,349.7999878 345.5,347.1000061 342.1000061,337.1000061 329.2000122,339.7999878 		"/>
		<g>
			<polygon class="st9" points="299.8999939,367.5 299.8999939,332.8999939 342.1000061,332.8999939 343.1000061,346.6000061 
				339.2999878,367.5 			"/>
			<path class="st10" d="M341.6000061,333.3999939l1,13.2000122L338.8000183,367h-38.3999939v-33.6000061H341.6000061
				 M342.5,332.3999939h-0.7999878H299.5V368h40h0.2999878l4-21.3999939L342.5,332.3999939L342.5,332.3999939z"/>
		</g>
		<polyline class="st13" points="341.1000061,332.8999939 341.1000061,346.7999878 338.8999939,367.7000122 		"/>
	</g>
	<g>
		<g>
			<rect x="323.2000122" y="93.5999985" class="st9" width="34.7000122" height="52.7999954"/>
			<path class="st10" d="M357.2999878,94.0999985v51.7999954h-33.7000122V94.0999985H357.2999878 M358.2999878,93.0999985
				h-35.7000122v53.7999954h35.7000122V93.0999985L358.2999878,93.0999985z"/>
		</g>
		<rect x="325.7000122" y="129.8000031" class="st11" width="13.8999939" height="13.3000031"/>
		<rect x="341.3999939" y="129.8000031" class="st11" width="13.8999939" height="13.3000031"/>
		<polygon class="st12" points="327.3999939,135.1999969 337.5,138.6000061 340.2000122,125.8000031 330.1000061,122.3000031 		"/>
		<polygon class="st12" points="340.8999939,125.8000031 343.6000061,138.6000061 353.7000122,135.1999969 351,122.3000031 		"/>
		<g>
			<polygon class="st9" points="323.2000122,132.3999939 323.2000122,93.0999985 357.7999878,93.0999985 357.7999878,135.1999969 
				344.1000061,136.3000031 			"/>
			<path class="st10" d="M323.7000122,93.5999985h33.6000061v41.2000046l-13.2000122,1L323.7000122,132V93.5999985
				 M322.7000122,92.5999985v40.0000076v0.3000031l21.3999939,4l14.2999878-1.1000061V135V92.8000031L322.7000122,92.5999985
				L322.7000122,92.5999985z"/>
		</g>
		<polyline class="st13" points="357.8999939,134.3000031 343.8999939,134.3000031 323.1000061,132.1000061 		"/>
	</g>
	<g>
		<g>
			<rect x="410.6000061" y="356.7999878" class="st9" width="49.5" height="39.2000122"/>
			<path class="st10" d="M411.1000061,357.2999878h48.5V395.5h-48.5V357.2999878 M410.1000061,356.2999878V396.5h50.5v-40.2000122
				H410.1000061L410.1000061,356.2999878z"/>
		</g>
		<rect x="444.5" y="377.2999878" class="st11" width="12.5" height="15.7000122"/>
		<rect x="444.5" y="359.7000122" class="st11" width="12.5" height="15.7000122"/>
		<polygon class="st12" points="449.5,391.1000061 452.7999878,379.7999878 440.7000122,376.7000122 437.5,388.1000061 		"/>
		<polygon class="st12" points="440.7000122,375.8999939 452.7999878,372.8999939 449.5,361.5 437.5,364.6000061 		"/>
		<g>
			<polygon class="st9" points="410.1000061,395.8999939 410.1000061,356.7999878 449.5,356.7999878 450.5,372.2999878 
				446.8999939,395.8999939 			"/>
			<path class="st10" d="M449,357.2999878l1,15l-3.6000061,23.1000061H410.5v-38.2000122H449 M450,356.2999878h-0.7999878
				h-39.6000061V396.5H447h0.2999878L451,372.3999939L450,356.2999878L450,356.2999878z"/>
		</g>
		<polyline class="st13" points="448.7000122,356.7999878 448.7000122,372.5 446.6000061,396 		"/>
	</g>
	<g>
		<g>
			<rect x="389.7000122" y="196.5" class="st9" width="12.7000122" height="1.8000031"/>
			<path class="st10" d="M401.8999939,197v0.8000031h-11.7000122V197H401.8999939 M402.8999939,196h-13.7000122v2.8000031
				h13.7000122V196L402.8999939,196z"/>
		</g>
		<g>
			<rect x="389.7000122" y="198.3999939" class="st9" width="12.7000122" height="7.6000061"/>
			<path class="st10" d="M401.8999939,198.8999939V205.5h-11.7000122v-6.6000061H401.8999939 M402.8999939,197.8999939h-13.7000122
				V206.5h13.7000122V197.8999939L402.8999939,197.8999939z"/>
		</g>
		<path class="st11" d="M389.7999878,205.8999939l12.5-7.3999939"/>
	</g>
	<g>
		<g>
			<rect x="424.928833" y="196.5" class="st9" width="35.2000122" height="1.8000031"/>
			<path class="st10" d="M459.6288452,197v0.8000031H425.428833V197H459.6288452 M460.6288452,196H424.428833v2.8000031h36.2000122
				V196L460.6288452,196z"/>
		</g>
		<g>
			<rect x="424.928833" y="198.3999939" class="st9" width="35.2000122" height="7.6000061"/>
			<path class="st10" d="M459.6288452,198.8999939V205.5H425.428833v-6.6000061H459.6288452 M460.6288452,197.8999939H424.428833
				V206.5h36.2000122V197.8999939L460.6288452,197.8999939z"/>
		</g>
		<path class="st11" d="M425.0110474,206.0999908l35.3355713-7.7999878"/>
	</g>
	<g>
		<g>
			<rect x="407.8999939" y="125" class="st9" width="43.6000061" height="1.8000031"/>
			<path class="st10" d="M408.3999939,125.5H451v0.8000031h-42.6000061V125.5 M407.3999939,124.5v2.8000031H452V124.5H407.3999939
				L407.3999939,124.5z"/>
		</g>
		<g>
			<rect x="407.8999939" y="117.4000015" class="st9" width="43.6000061" height="7.5999985"/>
			<path class="st10" d="M408.3999939,117.9000015H451V124.5h-42.6000061V117.9000015 M407.3999939,116.9000015V125.5H452
				v-8.5999985H407.3999939L407.3999939,116.9000015z"/>
		</g>
		<path class="st11" d="M451.2000122,117.3000031L408,125"/>
	</g>
	<g>
		<g>
			<rect x="390.2000122" y="89.4000015" class="st9" width="1.7999878" height="57.0999985"/>
			<path class="st10" d="M391.5,89.9000015V146h-0.7999878V89.9000015H391.5 M392.5,88.9000015h-2.7999878V147H392.5V88.9000015
				L392.5,88.9000015z"/>
		</g>
		<g>
			<rect x="392" y="89.4000015" class="st9" width="12.3999939" height="57.0999985"/>
			<path class="st10" d="M392.5,89.9000015h11.3999939V146H392.5V89.9000015 M391.5,88.9000015V147h13.3999939V88.9000015H391.5
				L391.5,88.9000015z"/>
		</g>
		<path class="st11" d="M404.3999939,146.3000031l-12.3999939-57"/>
	</g>
	<g>
		<g>
			<rect x="386.6000061" y="321.7999878" class="st9" width="28.1000061" height="1.7999878"/>
			<path class="st10" d="M387.1000061,322.2999878h27.1000061v0.7999878h-27.1000061V322.2999878 M386.1000061,321.2999878
				v2.7999878h29.1000061v-2.7999878H386.1000061L386.1000061,321.2999878z"/>
		</g>
		<g>
			<rect x="386.6000061" y="308.7999878" class="st9" width="28.1000061" height="13"/>
			<path class="st10" d="M387.1000061,309.2999878h27.1000061v12h-27.1000061V309.2999878 M386.1000061,308.2999878v14h29.1000061
				v-14H386.1000061L386.1000061,308.2999878z"/>
		</g>
		<path class="st11" d="M414.7999878,308.7999878l-28.3999939,12.8999939"/>
	</g>
	<g>
		<g>
			<rect x="386.6000061" y="261.6000061" class="st9" width="17.6000061" height="43.7000122"/>
			<path class="st10" d="M403.7000122,262.1000061v42.7000122h-16.6000061v-42.7000122H403.7000122 M404.7000122,261.1000061
				h-18.6000061v44.7000122h18.6000061V261.1000061L404.7000122,261.1000061z"/>
		</g>
		<g>
			<g>
				<path class="st14" d="M395.3999939,265.2000122c-3.3999939,0-6.1000061,3-5.7999878,6.2999878
					c0.2999878,3.7000122,0.6000061,8.3999939,0.6000061,11.8999939s-0.2999878,8.1000061-0.6000061,11.8999939
					c-0.2999878,3.3999939,2.3999939,6.2999878,5.7999878,6.2999878s6.1000061-3,5.7999878-6.2999878
					c-0.2999878-3.7000122-0.6000061-8.3999939-0.6000061-11.8999939s0.2999878-8.1000061,0.6000061-11.8999939
					C401.3999939,268.2000122,398.7999878,265.2000122,395.3999939,265.2000122z"/>
				<ellipse class="st14" cx="395.3999939" cy="271.2000122" rx="0.8999939" ry="0.8999939"/>
			</g>
		</g>
	</g>
	<g>
		<g>
			<rect x="413.1000061" y="248.1000061" class="st9" width="15" height="10"/>
			<path class="st10" d="M427.6000061,248.6000061v9h-14v-9H427.6000061 M428.6000061,247.6000061h-16v11h16V247.6000061
				L428.6000061,247.6000061z"/>
		</g>
		<g>
			<path class="st9" d="M420.6000061,256.2000122c-1.7000122,0-3.1000061-1.3999939-3.1000061-3.1000061
				S418.8999939,250,420.6000061,250s3.1000061,1.3999939,3.1000061,3.1000061S422.2999878,256.2000122,420.6000061,256.2000122z"/>
			<path class="st10" d="M420.6000061,250.6000061c1.3999939,0,2.6000061,1.1999969,2.6000061,2.6000061
				c0,1.3999939-1.2000122,2.6000061-2.6000061,2.6000061S418,254.6000214,418,253.2000122
				C418,251.6999969,419.2000122,250.6000061,420.6000061,250.6000061 M420.6000061,249.6000061
				c-2,0-3.6000061,1.6000061-3.6000061,3.6000061s1.6000061,3.6000061,3.6000061,3.6000061
				s3.6000061-1.6000061,3.6000061-3.6000061C424.2000122,251.1999969,422.6000061,249.6000061,420.6000061,249.6000061
				L420.6000061,249.6000061z"/>
		</g>
	</g>
	<g>
		<g>
			<path class="st9" d="M446.2999878,87.5999985c-3.2999878,0-5.8999939-2.5999985-5.8999939-5.9000015V68H460v19.5999985
				H446.2999878z"/>
			<path class="st10" d="M459.5,68.5v18.5999985h-13.2000122c-3,0-5.3999939-2.4000015-5.3999939-5.4000015V68.5H459.5 M460.5,67.5
				h-20.6000061v14.1999969c0,3.5,2.8999939,6.4000015,6.3999939,6.4000015H460.5V67.5L460.5,67.5z"/>
		</g>
		<g>
			<path class="st9" d="M446.3999939,85.9000015c-2.3999939,0-4.2999878-1.9000015-4.2999878-4.3000031v-12h16.2000122v16.2000046
				h-11.9000244V85.9000015z"/>
			<path class="st10" d="M457.8999939,70.1999969v15.1999969h-11.5c-2.1000061,0-3.7999878-1.6999969-3.7999878-3.8000031
				V70.1999969H457.8999939 M458.8999939,69.1999969h-17.2000122v12.5c0,2.5999985,2.1000061,4.8000031,4.7999878,4.8000031h12.5
				V69.1999969H458.8999939z"/>
		</g>
		<ellipse class="st11" cx="455.2999878" cy="72.8000031" rx="0.8999939" ry="0.9000015"/>
	</g>
	<g>
		<g>
			<path class="st9" d="M435.5,258.1000061v-13.6999969c0-3.3000031,2.6000061-5.8999939,5.8999939-5.8999939h13.7000122v19.5999908
				H435.5z"/>
			<path class="st10" d="M441.3999939,238v1h13.2000122v18.6000061H436v-13.1999969c0-3,2.3999939-5.3999939,5.3999939-5.3999939
				V238 M441.3999939,238c-3.5,0-6.3999939,2.8999939-6.3999939,6.3999939v14.2000122h20.6000061V238H441.3999939L441.3999939,238z"
				/>
		</g>
		<g>
			<path class="st9" d="M437.1000061,256.3999939v-12c0-2.3999939,1.8999939-4.3000031,4.2999878-4.3000031h12v16.1999969
				h-16.2999878V256.3999939z"/>
			<path class="st10" d="M452.8999939,240.6999969v15.1999969h-15.2000122v-11.5
				c0-2.1000061,1.7000122-3.8000031,3.7999878-3.8000031h11.4000244 M453.8999939,239.6999969h-12.5
				c-2.6000061,0-4.7999878,2.1000061-4.7999878,4.8000031V257h17.2000122v-17.3000031H453.8999939z"/>
		</g>
		<ellipse class="st11" cx="450.2999878" cy="253.3000031" rx="0.8999939" ry="0.8999939"/>
	</g>
	<g>
		<path class="st11" d="M309.5,215.3999939h31.1000061V238H309.5V215.3999939z"/>
		<path class="st11" d="M342.5,220.1999969h0.5c3.6000061,0,6.5,2.8999939,6.5,6.5s-2.8999939,6.5-6.5,6.5h-0.5V220.1999969z"/>
		<path class="st11" d="M340.6000061,222H343c2.6000061,0,4.7000122,2.1000061,4.7000122,4.6999969
			S345.6000061,231.3999939,343,231.3999939h-2.3999939V222z"/>
		<path class="st11" d="M307.6000061,220.1999969H307c-3.6000061,0-6.5,2.8999939-6.5,6.5s2.8999939,6.5,6.5,6.5h0.5v-13
			H307.6000061z"/>
		<path class="st11" d="M309.5,222h-2.3999939c-2.6000061,0-4.7000122,2.1000061-4.7000122,4.6999969
			s2.1000061,4.6999969,4.7000122,4.6999969H309.5V222z"/>
		<path class="st11" d="M331.5,213.5V213c0-3.6000061-2.8999939-6.5-6.5-6.5s-6.5,2.8999939-6.5,6.5v0.5H331.5z"/>
		<path class="st11" d="M329.7000122,215.3999939V213c0-2.6000061-2.1000061-4.6999969-4.7000122-4.6999969
			S320.2999878,210.4000092,320.2999878,213v2.3999939H329.7000122z"/>
		<path class="st11" d="M331.5,239.8999939v0.5c0,3.6000061-2.8999939,6.5-6.5,6.5s-6.5-2.8999939-6.5-6.5v-0.5H331.5z"/>
		<path class="st11" d="M329.7000122,238v2.3999939c0,2.6000061-2.1000061,4.6999969-4.7000122,4.6999969
			s-4.7000122-2.1000061-4.7000122-4.6999969V238H329.7000122z"/>
	</g>
	<g>
		<g>
			<rect x="374.7999878" y="211.8000031" class="st9" width="1.7999878" height="35.5"/>
			<path class="st10" d="M376.2000122,212.3000031v34.5h-0.7999878v-34.5H376.2000122 M377.2000122,211.3000031h-2.7999878v36.5
				h2.7999878V211.3000031L377.2000122,211.3000031z"/>
		</g>
		<g>
			<rect x="376.7000122" y="211.8000031" class="st9" width="6.3999939" height="35.5"/>
			<path class="st10" d="M382.6000061,212.3000031v34.5h-5.3999939v-34.5H382.6000061 M383.6000061,211.3000031h-7.3999939v36.5
				h7.3999939V211.3000031L383.6000061,211.3000031z"/>
		</g>
		<g>
			<rect x="379.7999878" y="217.1000061" class="st9" width="1.7999878" height="25.6000061"/>
			<path class="st10" d="M381.1000061,217.6000061v24.6000061h-0.7999878v-24.6000061H381.1000061 M382.1000061,216.6000061
				h-2.7999878v26.6000061h2.7999878V216.6000061L382.1000061,216.6000061z"/>
		</g>
		<path class="st11" d="M381.6000061,224.3999939v10.8999939l1.6000061-1v-8.8999939L381.6000061,224.3999939z"/>
	</g>
	<g>
		<g>
			<rect x="363.2000122" y="357.6000061" class="st9" width="1.7999878" height="35.5"/>
			<path class="st10" d="M364.5,358.1000061v34.5h-0.7999878v-34.5H364.5 M365.5,357.1000061h-2.7999878v36.5H365.5V357.1000061
				L365.5,357.1000061z"/>
		</g>
		<g>
			<rect x="356.7999878" y="357.6000061" class="st9" width="6.3999939" height="35.5"/>
			<path class="st10" d="M357.2999878,358.1000061h5.3999939v34.5h-5.3999939V358.1000061 M356.2999878,357.1000061v36.5h7.3999939
				v-36.5H356.2999878L356.2999878,357.1000061z"/>
		</g>
		<g>
			<rect x="358.2999878" y="362.2000122" class="st9" width="1.7999878" height="25.6000061"/>
			<path class="st10" d="M359.6000061,362.7000122v24.6000061h-0.7999878v-24.6000061H359.6000061 M360.6000061,361.7000122
				h-2.7999878v26.6000061h2.7999878V361.7000122L360.6000061,361.7000122z"/>
		</g>
		<path class="st11" d="M358.2999878,380.5v-10.8999939l-1.6000061,1V379.5L358.2999878,380.5z"/>
	</g>
	<g>
		<g>
			<rect x="322.7999878" y="74.4000015" class="st9" width="35.5" height="1.8000031"/>
			<path class="st10" d="M357.7999878,74.9000015v0.8000031h-34.5v-0.8000031H357.7999878 M358.7999878,73.9000015h-36.5v2.8000031
				h36.5V73.9000015L358.7999878,73.9000015z"/>
		</g>
		<g>
			<rect x="322.7999878" y="68" class="st9" width="35.5" height="6.4000015"/>
			<path class="st10" d="M357.7999878,68.5v5.4000015h-34.5V68.5H357.7999878 M358.7999878,67.5h-36.5v7.4000015h36.5V67.5
				L358.7999878,67.5z"/>
		</g>
		<g>
			<rect x="328" y="69.5" class="st9" width="25.6000061" height="1.8000031"/>
			<path class="st10" d="M353.2000122,70v0.8000031h-24.6000061V70H353.2000122 M354.2000122,69h-26.6000061v2.8000031h26.6000061
				V69L354.2000122,69z"/>
		</g>
		<path class="st11" d="M335.3999939,69.5h10.8999939l-1-1.5999985h-8.8999939L335.3999939,69.5z"/>
	</g>
	<g>
		<path class="st11" d="M285.7999878,388.7999878h11.1000061l1.5,10.1000061h-14.1000061L285.7999878,388.7999878z"/>
		<g>
			<rect x="258" y="398" class="st9" width="50.6000061" height="16.1000061"/>
			<path class="st10" d="M308.1000061,398.5v15.1000061H258.5V398.5H308.1000061 M309.1000061,397.5H257.5v17.1000061h51.6000061
				V397.5L309.1000061,397.5z"/>
		</g>
		<path class="st13" d="M287.7000122,402.2000122h8.6000061 M286.8999939,400.6000061H297v3h-10.1000061V400.6000061z"/>
		<path class="st11" d="M282.7000122,400.3999939L282.7000122,400.3999939c0.3999939,0,0.7999878,0.2999878,0.7999878,0.7999878v1
			c0,0.3999939-0.2999878,0.7999878-0.7999878,0.7999878l0,0c-0.3999939,0-0.7999878-0.2999878-0.7999878-0.7999878v-1
			C282,400.7000122,282.2999878,400.3999939,282.7000122,400.3999939z"/>
		<path class="st11" d="M289.3999939,408.5c0-1.3999939,1.1000061-2.5,2.5-2.5s2.5,1.1000061,2.5,2.5v2.5h-5V408.5z"/>
		<g>
			<rect x="286.1000061" y="388.7000122" class="st9" width="10.3999939" height="8.7000122"/>
			<path class="st10" d="M296.1000061,389.2000122v7.7000122h-9.3999939v-7.7000122H296.1000061 M297.1000061,388.2000122
				h-11.3999939v9.7000122h11.3999939V388.2000122L297.1000061,388.2000122z"/>
		</g>
		<g>
			<rect x="285.8999939" y="386.8999939" class="st9" width="11" height="1.7999878"/>
			<path class="st10" d="M296.2999878,387.3999939v0.7999878h-10v-0.7999878H296.2999878 M297.2999878,386.3999939h-12v2.7999878h12
				V386.3999939L297.2999878,386.3999939z"/>
		</g>
		<g>
			<rect x="278.8999939" y="410.2999878" class="st9" width="26.1000061" height="1.7999878"/>
			<path class="st10" d="M304.5,410.7999878v0.7999878h-25.1000061v-0.7999878H304.5 M305.5,409.7999878h-27.1000061v2.7999878
				H305.5V409.7999878L305.5,409.7999878z"/>
		</g>
	</g>
	<g>
		<path class="st11" d="M283.2999878,78.9000015V90l-10.1000061,1.5V77.4000015L283.2999878,78.9000015z"/>
		<g>
			<rect x="258" y="68" class="st9" width="16.1000061" height="33.6999969"/>
			<path class="st10" d="M273.6000061,68.5v32.6999969H258.5V68.5H273.6000061 M274.6000061,67.5H257.5v34.6999969h17.1000061V67.5
				L274.6000061,67.5z"/>
		</g>
		<path class="st13" d="M269.8999939,80.8000031v8.5999985 M271.5,80v10.0999985h-3V80H271.5z"/>
		<path class="st11" d="M271.7000122,75.9000015L271.7000122,75.9000015c0,0.4000015-0.2999878,0.8000031-0.7999878,0.8000031h-1
			c-0.3999939,0-0.7999878-0.3000031-0.7999878-0.8000031l0,0c0-0.4000015,0.2999878-0.8000031,0.7999878-0.8000031h1
			C271.3999939,75.0999985,271.7000122,75.4000015,271.7000122,75.9000015z"/>
		<path class="st11" d="M263.6000061,82.3000031c1.3999939,0,2.5,1.0999985,2.5,2.5s-1.1000061,2.5-2.5,2.5h-2.5v-5H263.6000061z"/>
		<g>
			<rect x="274.7000122" y="79.1999969" class="st9" width="8.7000122" height="10.4000015"/>
			<path class="st10" d="M282.8999939,79.6999969v9.4000015h-7.7000122v-9.4000015H282.8999939 M283.8999939,78.6999969h-9.7000122
				v11.4000015h9.7000122V78.6999969L283.8999939,78.6999969z"/>
		</g>
		<g>
			<rect x="283.3999939" y="79" class="st9" width="1.7999878" height="10.9000015"/>
			<path class="st10" d="M284.7000122,79.5v9.9000015h-0.7999878V79.5H284.7000122 M285.7000122,78.5h-2.7999878v11.9000015
				h2.7999878V78.5L285.7000122,78.5z"/>
		</g>
		<g>
			<rect x="259.8999939" y="73" class="st9" width="1.7999878" height="23.8000031"/>
			<path class="st10" d="M261.2999878,73.5v22.8000031H260.5V73.5H261.2999878 M262.2999878,72.5H259.5v24.8000031h2.7999878V72.5
				L262.2999878,72.5z"/>
		</g>
	</g>
	<g id="Sink_2">
		<g id="Rectangle_16_x5F_11">
			<rect x="447.7999878" y="87.5999985" class="st9" width="12.2000122" height="19.9000015"/>
			<path class="st10" d="M459.5,88.0999985V107h-11.2000122V88.0999985H459.5 M460.5,87.0999985h-13.2000122V108H460.5V87.0999985
				L460.5,87.0999985z"/>
		</g>
		<path id="Rectangle_19_x5F_5" class="st11" d="M453.8999939,90.5999985L453.8999939,90.5999985c-2.2000122,0-4,1.8000031-4,4
			v5.8000031c0,2.1999969,1.7999878,4,4,4l0,0c2.2000122,0,4-1.8000031,4-4v-5.8000031
			C458,92.4000015,456.2000122,90.5999985,453.8999939,90.5999985z"/>
		<circle id="Ellipse_7_x5F_2" class="st11" cx="455.2000122" cy="97.5999985" r="0.8999977"/>
	</g>
	<g id="Sink_2_1_">
		<g id="Rectangle_16_x5F_11_1_">
			<rect x="386.6000061" y="245.8999939" class="st9" width="26.5" height="12.2000122"/>
			<path class="st10" d="M412.6000061,246.3999939v11.2000122h-25.5v-11.1999969h25.5 M413.6000061,245.3999939h-27.5v13.2000122
				h27.5V245.3999939L413.6000061,245.3999939z"/>
		</g>
		<path id="Rectangle_19_x5F_5_1_" class="st11" d="M406.7999878,252L406.7999878,252c0-2.1999969-1.7999878-4-4-4H397
			c-2.2000122,0-4,1.8000031-4,4l0,0c0,2.1999969,1.7999878,4,4,4h5.7999878
			C405,256.1000061,406.7999878,254.1999969,406.7999878,252z"/>
		<circle id="Ellipse_7_x5F_2_1_" class="st11" cx="399.7999878" cy="253.3000031" r="0.8999939"/>
	</g>
	<g id="Rectangle_16_x5F_11_4_">
		<rect x="404.1000061" y="261.6000061" class="st9" width="50.8999939" height="12.2000122"/>
		<path class="st10" d="M404.6000061,262.1000061H454.5v11.2000122h-49.8999939V262.1000061 M403.6000061,261.1000061v13.2000122
			H455.5v-13.2000122H403.6000061L403.6000061,261.1000061z"/>
	</g>
	<g id="Rectangle_16_x5F_11_8_">
		<rect x="455.1000061" y="261.6000061" class="st9" width="5" height="35.3999939"/>
		<path class="st10" d="M455.6000061,262.1000061h4V296.5h-4V262.1000061 M454.6000061,261.1000061V297.5h6v-36.3999939H454.6000061
			L454.6000061,261.1000061z"/>
	</g>
	<g id="Rectangle_16_x5F_11_7_">
		<rect x="415.2000122" y="261.6000061" class="st9" width="19.2999878" height="12.2000122"/>
		<path class="st10" d="M415.7000122,262.1000061H434v11.2000122h-18.2999878V262.1000061 M414.7000122,261.1000061v13.2000122H435
			v-13.2000122H414.7000122L414.7000122,261.1000061z"/>
	</g>
	<path id="Rectangle_19_x5F_5_4_" class="st11" d="M417.7999878,267.7000122L417.7999878,267.7000122c0,2.2000122,1.7999878,4,4,4
		h5.7999878c2.2000122,0,4-1.7999878,4-4l0,0c0-2.2000122-1.7999878-4-4-4h-5.7999878
		C419.6000061,263.7000122,417.7999878,265.5,417.7999878,267.7000122z"/>
	<circle id="Ellipse_7_x5F_2_4_" class="st11" cx="424.7000122" cy="266.3999939" r="0.8999939"/>
	<g id="Toilet_1_">
		<g id="Rectangle_21_1_">
			<rect x="413.7000122" y="104" class="st9" width="11.3999939" height="3.5999985"/>
			<path class="st10" d="M424.6000061,104.5v2.5999985h-10.3999939V104.5H424.6000061 M425.6000061,103.5h-12.3999939v4.5999985
				h12.3999939V103.5L425.6000061,103.5z"/>
		</g>
		<path id="Rectangle_19_x5F_2_1_" class="st11" d="M423.7000122,95.9000015c0.2000122-2.5-1.7999878-4.5999985-4.2999878-4.5999985
			l0,0c-2.5,0-4.5,2.0999985-4.2999878,4.5999985l0.5,8h7.5L423.7000122,95.9000015z"/>
		<path id="Rectangle_18_x5F_13_1_" class="st11" d="M422.2000122,95.9000015
			c0.2000122-1.6999969-1.2000122-3.0999985-2.8999939-3.0999985l0,0c-1.7000122,0-3,1.5-2.8999939,3.0999985L416.8000183,100.5
			h4.8999939L422.2000122,95.9000015z"/>
		<ellipse id="Ellipse_6_x5F_2_1_" class="st11" cx="419.3999939" cy="97.8000031" rx="0.8999939" ry="0.9000015"/>
	</g>
	<g id="Toilet_4_">
		<g id="Rectangle_21_4_">
			<rect x="451.5" y="214.1000061" class="st9" width="3.6000061" height="11.3999939"/>
			<path class="st10" d="M454.6000061,214.6000061V225H452v-10.3999939H454.6000061 M455.6000061,213.6000061H451V226h4.6000061
				V213.6000061L455.6000061,213.6000061z"/>
		</g>
		<path id="Rectangle_19_x5F_2_4_" class="st11" d="M443.3999939,224.1999969
			c-2.5,0.1999969-4.6000061-1.8000031-4.6000061-4.3000031l0,0c0-2.5,2.1000061-4.5,4.6000061-4.3000031l8,0.5v7.5
			L443.3999939,224.1999969z"/>
		<path id="Rectangle_18_x5F_13_4_" class="st11" d="M443.5,222.6999969
			c-1.7000122,0.1999969-3.1000061-1.1999969-3.1000061-2.8999939l0,0c0-1.6999969,1.5-3,3.1000061-2.8999939l4.6000061,0.3999939
			v4.8999939L443.5,222.6999969z"/>
		<ellipse id="Ellipse_6_x5F_2_4_" class="st11" cx="445.6000061" cy="219.8999939" rx="0.8999939" ry="0.8999939"/>
	</g>
	<g id="Toilet_5_">
		<g id="Rectangle_21_5_">
			<rect x="451.5" y="280.1000061" class="st9" width="3.6000061" height="11.3999939"/>
			<path class="st10" d="M454.6000061,280.6000061V291H452v-10.3999939H454.6000061 M455.6000061,279.6000061H451V292h4.6000061
				V279.6000061L455.6000061,279.6000061z"/>
		</g>
		<path id="Rectangle_19_x5F_2_5_" class="st11" d="M443.3999939,290.1000061
			c-2.5,0.2000122-4.6000061-1.7999878-4.6000061-4.2999878l0,0c0-2.5,2.1000061-4.5,4.6000061-4.2999878l8,0.5v7.5
			L443.3999939,290.1000061z"/>
		<path id="Rectangle_18_x5F_13_5_" class="st11" d="M443.5,288.6000061
			c-1.7000122,0.2000122-3.1000061-1.2000122-3.1000061-2.8999939l0,0c0-1.7000122,1.5-3,3.1000061-2.8999939l4.6000061,0.3999939
			v4.8999939L443.5,288.6000061z"/>
		<ellipse id="Ellipse_6_x5F_2_5_" class="st11" cx="445.5" cy="285.7999878" rx="0.8999939" ry="0.8999939"/>
	</g>
	<g id="Kitchen">
		<g id="Rectangle_24">
			<rect x="292" y="154.8999939" class="st9" width="104.1000061" height="15.3999939"/>
			<path class="st10" d="M395.5,155.3999939v14.3999939h-103v-14.3999939H395.5 M396.5,154.3999939h-105v16.3999939h105.1000061
				L396.5,154.3999939L396.5,154.3999939z"/>
		</g>
		<g id="Oven">
			<g id="Rectangle_28">
				<rect x="308.8999939" y="170.1999969" class="st9" width="17.1000061" height="1.8000031"/>
				<path class="st10" d="M325.5,170.6999969V171.5h-16.1000061v-0.8000031H325.5 M326.5,169.6999969h-18.1000061V172.5H326.5
					V169.6999969L326.5,169.6999969z"/>
			</g>
			<g id="Rectangle_29">
				<rect x="307.3999939" y="154.8999939" class="st9" width="20.2000122" height="15.3999939"/>
				<path class="st10" d="M327.1000061,155.3999939v14.3999939h-19.2000122v-14.3999939H327.1000061 M328.1000061,154.3999939
					h-21.2000122v16.3999939h21.2000122V154.3999939L328.1000061,154.3999939z"/>
			</g>
		</g>
		<g id="Rectangle_27">
			<rect x="292" y="154.8999939" class="st9" width="15.3999939" height="15.3999939"/>
			<path class="st10" d="M306.8999939,155.3999939v14.3999939H292.5v-14.3999939H306.8999939 M307.8999939,154.3999939H291.5
				v16.3999939h16.3999939V154.3999939L307.8999939,154.3999939z"/>
		</g>
		<g id="Sink_3">
			<rect id="Rectangle_28_x5F_2" x="369.5" y="156.3999939" class="st11" width="19.5" height="12.3000031"/>
			<path id="Rectangle_29_x5F_2" class="st11" d="M381.2999878,162.6000061L381.2999878,162.6000061
				c0,2.5-2.1000061,4.6000061-4.6000061,4.6000061h-1c-2.5,0-4.6000061-2.1000061-4.6000061-4.6000061l0,0
				c0-2.5,2.1000061-4.6000061,4.6000061-4.6000061h1C379.2000122,157.8999939,381.2999878,160,381.2999878,162.6000061z"/>
			<ellipse id="Ellipse_7_x5F_3" class="st11" cx="376.2000122" cy="160.5" rx="0.8999939" ry="0.8999939"/>
			<path id="Vector_2" class="st13" d="M387.5,158.8000031h-4.7000122 M387.5,160.6999969h-4.7000122 M387.5,162.6000061h-4.7000122
				 M387.5,164.3999939h-4.7000122 M387.5,166.3000031h-4.7000122"/>
		</g>
		<g id="Stove">
			<g id="Rectangle_25">
				<rect x="348.1000061" y="154.8999939" class="st9" width="15" height="15.3999939"/>
				<path class="st10" d="M362.5,155.3999939v14.3999939h-14v-14.3999939H362.5 M363.5,154.3999939h-16v16.3999939h16V154.3999939
					L363.5,154.3999939z"/>
			</g>
			<g id="Rectangle_28_x5F_3">
				<rect x="348.1000061" y="154.8999939" class="st9" width="15" height="1.8000031"/>
				<path class="st10" d="M362.5,155.3999939v0.8000031h-14v-0.8000031H362.5 M363.5,154.3999939h-16v2.8000031h16V154.3999939
					L363.5,154.3999939z"/>
			</g>
			<g id="Ellipse_7_x5F_4">
				<path class="st9" d="M358.8999939,161.8999939c-0.7000122,0-1.2000122-0.6000061-1.2000122-1.1999969
					S358.2999878,159.5,358.8999939,159.5s1.2000122,0.6000061,1.2000122,1.1999969
					S359.6000061,161.8999939,358.8999939,161.8999939z"/>
				<path class="st10" d="M358.8999939,160c0.3999939,0,0.7000122,0.3000031,0.7000122,0.6999969
					s-0.2999878,0.6999969-0.7000122,0.6999969c-0.3999939,0-0.7000122-0.3000031-0.7000122-0.6999969S358.5,160,358.8999939,160
					 M358.8999939,159c-1,0-1.7000122,0.8000031-1.7000122,1.6999969s0.7999878,1.6999969,1.7000122,1.6999969
					s1.7000122-0.8000031,1.7000122-1.6999969S359.8999939,159,358.8999939,159L358.8999939,159z"/>
			</g>
			<g id="Ellipse_9">
				<path class="st9" d="M358.8999939,167.6000061c-0.8999939,0-1.7000122-0.6999969-1.7000122-1.6999969
					s0.7000122-1.6999969,1.7000122-1.6999969s1.7000122,0.6999969,1.7000122,1.6999969
					S359.7999878,167.6000061,358.8999939,167.6000061z"/>
				<path class="st10" d="M358.8999939,164.6999969c0.6000061,0,1.2000122,0.5,1.2000122,1.1999969
					s-0.5,1.1999969-1.2000122,1.1999969s-1.2000122-0.5-1.2000122-1.1999969S358.2999878,164.6999969,358.8999939,164.6999969
					 M358.8999939,163.6999969c-1.2000122,0-2.2000122,1-2.2000122,2.1999969s1,2.1999969,2.2000122,2.1999969
					s2.2000122-1,2.2000122-2.1999969S360.1000061,163.6999969,358.8999939,163.6999969L358.8999939,163.6999969z"/>
			</g>
			<g id="Ellipse_10">
				<path class="st9" d="M352.7999878,162.3999939c-0.8999939,0-1.7000122-0.6999969-1.7000122-1.6999969
					S351.7999878,159,352.7999878,159S354.5,159.6999969,354.5,160.6999969S353.7999878,162.3999939,352.7999878,162.3999939z"/>
				<path class="st10" d="M352.7999878,159.5C353.3999939,159.5,354,160,354,160.6999969s-0.5,1.1999969-1.2000122,1.1999969
					s-1.2000122-0.5-1.2000122-1.1999969S352.2000122,159.5,352.7999878,159.5 M352.7999878,158.5
					c-1.2000122,0-2.2000122,1-2.2000122,2.1999969s1,2.1999969,2.2000122,2.1999969s2.2000122-1,2.2000122-2.1999969
					S354,158.5,352.7999878,158.5L352.7999878,158.5z"/>
			</g>
			<g id="Ellipse_8">
				<circle class="st9" cx="352.7999878" cy="166.3000031" r="1.2000046"/>
				<path class="st10" d="M352.7999878,165.6000061c0.3999939,0,0.7000122,0.3000031,0.7000122,0.6999969
					S353.2000122,167,352.7999878,167s-0.7000122-0.3000031-0.7000122-0.6999969S352.3999939,165.6000061,352.7999878,165.6000061
					 M352.7999878,164.6000061c-1,0-1.7000122,0.8000031-1.7000122,1.6999969S351.8999634,168,352.7999878,168
					c1,0,1.7000122-0.8000031,1.7000122-1.6999969S353.7999878,164.6000061,352.7999878,164.6000061L352.7999878,164.6000061z"/>
			</g>
		</g>
		<path id="Vector_3" class="st13" d="M302.5,162.6000061h-5.7000122 M301.1000061,165l-2.7999878-5 M301.1000061,160.1000061
			l-2.7999878,5"/>
	</g>
	<g>
		<path class="st11" d="M289.7000122,248.1000061c0-0.6999969-0.6000061-1.1999969-1.2000122-1.1999969h-12.6000061v28.6999969
			h13.7999878v-27.5H289.7000122z"/>
		<path class="st11" d="M311.8999939,263c0-0.7000122-0.6000061-1.2000122-1.2999878-1.2000122H291
			c-0.7000122,0-1.2999878,0.6000061-1.2999878,1.2000122v12.6000061h22.2000122V263H311.8999939z"/>
		<path class="st11" d="M333.3999939,263c0-0.7000122-0.6000061-1.2000122-1.2999878-1.2000122h-18.8999939
			c-0.7000122,0-1.2999878,0.6000061-1.2999878,1.2000122v12.6000061h21.3999939V263H333.3999939z"/>
		<path class="st11" d="M333.3999939,260.7000122h4.7000122V280.5h-67.1999817V242h19.8999939v4.8999939h-14.7999878v28.7000122
			h57.5v-14.8999939H333.3999939z"/>
	</g>
	<g>
		<rect x="451.5" y="117.4000015" class="st9" width="8.6000061" height="20.4999924"/>
		<path class="st10" d="M459.5,117.9000015v19.4999924H452v-19.5h7.5 M460.5,116.9000015H451v21.4999924h9.6000061v-21.4999924
			H460.5z"/>
	</g>
	<g>
		<rect x="407.8999939" y="107.5" class="st9" width="52.2000122" height="6.3000031"/>
		<path class="st10" d="M459.5,108v5.3000031h-51.2000122V108H459.5 M460.5,107h-53.2000122v7.3000031H460.5V107L460.5,107z"/>
	</g>
	<g>
		<rect x="455.1000061" y="209.5" class="st9" width="5" height="48.6000061"/>
		<path class="st10" d="M459.5,210v47.6000061h-4V210H459.5 M460.5,209h-6v49.6000061h6V209L460.5,209z"/>
	</g>
</g>
<g id="Numbers">
	<g>
		<path class="st8" d="M291.7999878,105.1999969l1.8999939-1.5999985h0.7999878v6.6999969h-1V105l-1.2000122,0.9000015
			L291.7999878,105.1999969z"/>
		<path class="st8" d="M298.5,105.9000015c0.6000061,0,1.1000061,0.1999969,1.5,0.5999985s0.6000061,0.9000015,0.6000061,1.5
			s-0.2000122,1.1999969-0.7000122,1.5999985c-0.3999939,0.4000015-1,0.5999985-1.7000122,0.5999985
			c-0.7999878,0-1.3999939-0.3000031-1.7999878-0.9000015s-0.6000061-1.4000015-0.6000061-2.3000031
			c0-0.5999985,0.1000061-1.1999969,0.2999878-1.8000031c0.2000122-0.5,0.5-1,0.8999939-1.3000031
			c0.3999939-0.4000015,1-0.5,1.6000061-0.5c0.7000122,0,1.2999878,0.1999969,1.7000122,0.5999985l-0.3999939,0.8000031
			c-0.3999939-0.3000031-0.7999878-0.4000015-1.2000122-0.4000015c-0.3999939,0-0.7000122,0.0999985-1,0.4000015
			c-0.5,0.5-0.7999878,1.1999969-0.7999878,2.0999985c0.1000061-0.3000031,0.3999939-0.5,0.7000122-0.6999969
			S298.1000061,105.9000015,298.5,105.9000015z M298.2999878,109.4000015c0.3999939,0,0.7000122-0.0999985,0.8999939-0.4000015
			c0.2000122-0.3000031,0.3999939-0.5999985,0.3999939-0.9000015c0-0.4000015-0.1000061-0.6999969-0.3999939-0.9000015
			c-0.2000122-0.1999969-0.5-0.4000015-0.8999939-0.4000015s-0.7000122,0.0999985-0.8999939,0.4000015
			C297.1999817,107.3999939,297,107.7999954,297,108.0999985C297,108.5,297.1000061,108.7999954,297.3999939,109
			C297.6000061,109.3000031,297.8999939,109.4000015,298.2999878,109.4000015z"/>
		<path class="st8" d="M302,110.4000015c-0.2000122,0-0.2999878-0.0999985-0.5-0.1999969
			c-0.1000061-0.0999985-0.2000122-0.3000031-0.2000122-0.5s0.1000061-0.3000031,0.2000122-0.4000015
			s0.2999878-0.1999969,0.5-0.1999969s0.2999878,0.0999985,0.3999939,0.1999969s0.2000122,0.3000031,0.2000122,0.4000015
			c0,0.1999969-0.1000061,0.3000031-0.2000122,0.5C302.2999878,110.3000031,302.2000122,110.4000015,302,110.4000015z"/>
		<path class="st8" d="M303.1000061,104.5v-0.9000015h4.2000122v0.6999969l-2.5,6h-1.1000061l2.5-5.6999969h-3.1000061V104.5z"/>
	</g>
	<g>
		<path class="st8" d="M430.5,97.6999969c-0.7000122,0-1.3999939-0.1999969-2.1000061-0.6999969l0.5-0.8000031
			c0.6000061,0.4000015,1.1000061,0.5,1.6000061,0.5c0.3999939,0,0.7000122-0.0999985,0.8999939-0.3000031
			c0.2000122-0.1999969,0.2999878-0.4000015,0.2999878-0.8000031c0-0.3000031-0.1000061-0.5999985-0.3999939-0.8000031
			c-0.2000122-0.1999969-0.5-0.3000031-0.8999939-0.3000031h-0.7999878v-0.9000015h0.7999878
			c0.2999878,0,0.6000061-0.0999985,0.7999878-0.3000031c0.2000122-0.1999969,0.2999878-0.4000015,0.2999878-0.6999969
			c0-0.3000031-0.1000061-0.5-0.2999878-0.6999969s-0.5-0.3000031-0.7999878-0.3000031
			C430,91.5999832,429.5,91.7999802,429,92.1999817l-0.5-0.6999969c0.2000122-0.1999969,0.5-0.4000015,0.8999939-0.5999985
			c0.3999939-0.0999985,0.7000122-0.1999969,1.1000061-0.1999969c0.6000061,0,1.1000061,0.1999969,1.5,0.5
			s0.6000061,0.8000031,0.6000061,1.1999969c0,0.4000015-0.1000061,0.6999969-0.2999878,0.9000015
			c-0.2000122,0.3000031-0.5,0.5-0.7999878,0.5999985l0,0c0.3999939,0.0999985,0.7000122,0.3000031,1,0.5999985
			c0.2000122,0.3000031,0.2999878,0.5999985,0.2999878,1.0999985c0,0.5999985-0.2000122,1-0.6000061,1.4000015
			C431.7000122,97.5,431.2000122,97.6999969,430.5,97.6999969z"/>
		<path class="st8" d="M434.2999878,97.6999969c-0.2000122,0-0.2999878-0.0999985-0.5-0.1999969
			c-0.1000061-0.0999985-0.2000122-0.3000031-0.2000122-0.5s0.1000061-0.3000031,0.2000122-0.4000015
			s0.2999878-0.1999969,0.5-0.1999969s0.2999878,0.0999985,0.3999939,0.1999969S434.8999939,96.9000015,434.8999939,97
			c0,0.1999969-0.1000061,0.3000031-0.2000122,0.5C434.6000061,97.5999985,434.5,97.6999969,434.2999878,97.6999969z"/>
		<path class="st8" d="M439.7000122,95h0.7000122v0.9000015h-0.7000122V97.5h-1v-1.5999985h-3L435.5,95.3000031l3.6000061-4.4000015
			h0.7000122V95H439.7000122z M438.7000122,92.5999985l-2,2.4000015h2V92.5999985z"/>
	</g>
	<g>
		<path class="st8" d="M434.6000061,136.8999939L433,138.6999969h2.7000122v1H431.5v-0.8999939L433.6000061,136.5l0.5-0.6000061
			c0.1000061-0.1000061,0.2000122-0.3000031,0.2999878-0.5C434.5,135.1999969,434.5,135,434.5,134.7999878
			c0-0.3000031-0.1000061-0.5-0.2999878-0.6999969c-0.2000122-0.1999969-0.5-0.3000031-0.7999878-0.3000031
			c-0.5,0-1,0.1999969-1.6000061,0.6999969l-0.6000061-0.6999969c0.7000122-0.6000061,1.3999939-1,2.2000122-1
			c0.6000061,0,1.1000061,0.1999969,1.5,0.6000061c0.3999939,0.3999939,0.6000061,0.8999939,0.6000061,1.3999939
			C435.6000061,135.5,435.2999878,136.1000061,434.6000061,136.8999939z"/>
		<path class="st8" d="M437.2000122,139.8000031c-0.2000122,0-0.2999878-0.1000061-0.5-0.1999969
			C436.6000061,139.5,436.5,139.3000031,436.5,139.1000061s0.1000061-0.3000031,0.2000122-0.3999939
			c0.1000061-0.1000061,0.2999878-0.1999969,0.5-0.1999969s0.2999878,0.1000061,0.3999939,0.1999969
			c0.1000061,0.1000061,0.2000122,0.3000031,0.2000122,0.3999939c0,0.1999969-0.1000061,0.3000031-0.2000122,0.5
			C437.6000061,139.6999969,437.3999939,139.8000031,437.2000122,139.8000031z"/>
		<path class="st8" d="M440.7000122,139.6999969C440,139.6999969,439.3000183,139.5,438.6000061,139l0.5-0.8000031
			c0.6000061,0.3999939,1.1000061,0.5,1.6000061,0.5c0.3999939,0,0.7000122-0.1000061,0.8999939-0.3000031
			c0.2000122-0.1999969,0.2999878-0.3999939,0.2999878-0.8000031c0-0.3000031-0.1000061-0.6000061-0.3999939-0.8000031
			c-0.2000122-0.1999969-0.5-0.3000031-0.8999939-0.3000031h-0.7999878v-0.8999939h0.7999878
			c0.2999878,0,0.6000061-0.1000061,0.7999878-0.3000031c0.2000122-0.1999969,0.2999878-0.3999939,0.2999878-0.6999969
			s-0.1000061-0.5-0.2999878-0.6999969s-0.5-0.3000031-0.7999878-0.3000031c-0.3999939,0-0.8999939,0.1999969-1.3999939,0.6000061
			l-0.5-0.6999969c0.2000122-0.1999969,0.5-0.3999939,0.8999939-0.6000061
			c0.3999939-0.1000061,0.7000122-0.1999969,1.1000061-0.1999969c0.6000061,0,1.1000061,0.1999969,1.5,0.5
			s0.6000061,0.8000031,0.6000061,1.1999969s-0.1000061,0.6999969-0.2999878,0.8999939
			c-0.2000122,0.3000031-0.5,0.5-0.7999878,0.6000061l0,0c0.3999939,0.1000061,0.7000122,0.3000031,1,0.6000061
			c0.2000122,0.3000031,0.2999878,0.6000061,0.2999878,1.1000061c0,0.6000061-0.2000122,1-0.6000061,1.3999939
			C442,139.5,441.3999939,139.6999969,440.7000122,139.6999969z"/>
	</g>
	<g>
		<path class="st8" d="M413.5,178.1999969h0.7000122v0.8999939H413.5v1.6000061h-1v-1.6000061h-3l-0.2000122-0.6000061
			l3.6000061-4.3999939h0.7000122v4.1000061H413.5z M412.5,175.8000031l-2,2.3999939h2V175.8000031z"/>
		<path class="st8" d="M415.7000122,180.8999939c-0.2000122,0-0.2999878-0.1000061-0.5-0.1999969S415,180.3999939,415,180.1999969
			s0.1000061-0.3000031,0.2000122-0.3999939s0.2999878-0.1999969,0.5-0.1999969s0.2999878,0.1000061,0.3999939,0.1999969
			s0.2000122,0.3000031,0.2000122,0.3999939c0,0.1999969-0.1000061,0.3000031-0.2000122,0.5
			S415.8999939,180.8999939,415.7000122,180.8999939z"/>
		<path class="st8" d="M419.7000122,176.5c0.6000061,0,1.1000061,0.1999969,1.5,0.6000061
			c0.3999939,0.3999939,0.6000061,0.8999939,0.6000061,1.5s-0.2000122,1.1999969-0.7000122,1.6000061
			c-0.3999939,0.3999939-1,0.6000061-1.7000122,0.6000061c-0.7999878,0-1.3999939-0.3000031-1.7999878-0.8999939
			C417.2000122,179.3000183,417,178.5000305,417,177.6000214c0-0.6000061,0.1000061-1.1999969,0.2999878-1.8000031
			s0.5-1,0.8999939-1.3000031c0.3999939-0.3999939,1-0.5,1.6000061-0.5c0.7000122,0,1.2999878,0.1999969,1.7000122,0.6000061
			l-0.3999939,0.8000031c-0.3999939-0.3000031-0.7999878-0.3999939-1.2000122-0.3999939
			c-0.3999939,0-0.7000122,0.1000061-1,0.3999939c-0.5,0.5-0.7999878,1.1999969-0.7999878,2.1000061
			c0.2000122-0.3000031,0.3999939-0.5,0.7000122-0.6999969S419.2999878,176.5,419.7000122,176.5z M419.5,179.8999939
			c0.3999939,0,0.7000122-0.1000061,0.8999939-0.3999939c0.2000122-0.3000031,0.3999939-0.6000061,0.3999939-0.8999939
			c0-0.3999939-0.1000061-0.6999969-0.3999939-0.8999939c-0.2000122-0.1999969-0.5-0.3999939-0.8999939-0.3999939
			s-0.7000122,0.1000061-0.8999939,0.3999939c-0.2000122,0.1999969-0.3999939,0.6000061-0.3999939,0.8999939
			c0,0.3999939,0.1000061,0.6999969,0.3999939,0.8999939C418.7999878,179.8000031,419.1000061,179.8999939,419.5,179.8999939z"/>
	</g>
	<g>
		<path class="st8" d="M347.6000061,196.1000061L346,197.9000092h2.7000122v1H344.5V198l2.1000061-2.3000031l0.5-0.6000061
			c0.1000061-0.1000061,0.2000122-0.3000031,0.2999878-0.5S347.5,194.1999969,347.5,193.9999847
			c0-0.3000031-0.1000061-0.5-0.2999878-0.6999969c-0.2000122-0.1999969-0.5-0.3000031-0.7999878-0.3000031
			c-0.5,0-1,0.1999969-1.6000061,0.6999969l-0.6000061-0.6999969c0.7000122-0.6000061,1.3999939-1,2.2000122-1
			c0.6000061,0,1.1000061,0.1999969,1.5,0.6000061c0.3999939,0.3999939,0.6000061,0.8999939,0.6000061,1.3999939
			C348.6000061,194.6999969,348.2000122,195.3999939,347.6000061,196.1000061z"/>
		<path class="st8" d="M351.3999939,199c-0.7000122,0-1.3999939-0.1999969-2.1000061-0.6999969l0.5-0.8000031
			c0.6000061,0.3999939,1.1000061,0.5,1.6000061,0.5c0.3999939,0,0.7000122-0.1000061,0.8999939-0.3000031
			c0.2000122-0.1999969,0.2999878-0.3999939,0.2999878-0.8000031c0-0.3000031-0.1000061-0.6000061-0.3999939-0.8000031
			c-0.2000122-0.1999969-0.5-0.3000031-0.8999939-0.3000031H350.5V195h0.7999878
			c0.2999878,0,0.6000061-0.1000061,0.7999878-0.3000031C352.2999878,194.5,352.3999634,194.3000031,352.3999634,194
			s-0.1000061-0.5-0.2999878-0.6999969S351.5999756,193,351.2999878,193c-0.3999939,0-0.8999939,0.1999969-1.3999939,0.6000061
			l-0.5-0.6999969c0.2000122-0.1999969,0.6000061-0.3999939,0.8999939-0.6000061
			c0.3999939-0.1000061,0.7000122-0.1999969,1.1000061-0.1999969c0.6000061,0,1.1000061,0.1999969,1.5,0.5
			S353.5,193.4000092,353.5,193.8000031s-0.1000061,0.6999969-0.2999878,0.8999939
			c-0.2000122,0.3000031-0.5,0.5-0.7999878,0.6000061l0,0c0.3999939,0.1000061,0.7000122,0.3000031,1,0.6000061
			c0.2000122,0.3000031,0.2999878,0.6000061,0.2999878,1.1000061c0,0.6000061-0.2000122,1-0.6000061,1.3999939
			C352.6000061,198.8000031,352,199,351.3999939,199z"/>
		<path class="st8" d="M355.2000122,199c-0.2000122,0-0.2999878-0.1000061-0.5-0.1999969
			C354.6000061,198.6999969,354.5,198.5,354.5,198.3000031s0.1000061-0.3000031,0.2000122-0.3999939
			c0.1000061-0.1000061,0.2999878-0.1999969,0.5-0.1999969s0.2999878,0.1000061,0.3999939,0.1999969
			c0.1000061,0.1000061,0.2000122,0.3000031,0.2000122,0.3999939c0,0.1999969-0.1000061,0.3000031-0.2000122,0.5
			S355.3999939,199,355.2000122,199z"/>
		<path class="st8" d="M359.1000061,199c-0.7000122,0-1.2999878-0.1999969-1.7000122-0.5
			c-0.3999939-0.3999939-0.7000122-0.8000031-0.7000122-1.3999939c0-0.3999939,0.1000061-0.6999969,0.3999939-1
			c0.2000122-0.3000031,0.5-0.5,0.8999939-0.6999969l0,0c-0.2999878-0.1000061-0.6000061-0.3999939-0.7000122-0.6000061
			c-0.2000122-0.3000031-0.2999878-0.5-0.2999878-0.8999939c0-0.5,0.2000122-0.8999939,0.6000061-1.3000031
			c0.3999939-0.3000031,0.8999939-0.5,1.5-0.5s1.1000061,0.1999969,1.5,0.5s0.6000061,0.8000031,0.6000061,1.3000031
			c0,0.3000031-0.1000061,0.6000061-0.2999878,0.8999939c-0.2000122,0.3000031-0.3999939,0.5-0.7000122,0.6000061l0,0
			c0.3999939,0.1000061,0.7000122,0.3999939,0.8999939,0.6999969c0.2000122,0.3000031,0.3999939,0.6999969,0.3999939,1
			c0,0.6000061-0.2000122,1-0.7000122,1.3999939C360.3999939,198.8000031,359.7999878,199,359.1000061,199z
			 M359.1000061,198.1000061c0.3999939,0,0.7000122-0.1000061,1-0.3000031S360.5,197.3000031,360.5,197
			s-0.1000061-0.6000061-0.3999939-0.8000031s-0.6000061-0.3000031-1-0.3000031s-0.7000122,0.1000061-1,0.3000031
			s-0.3999939,0.5-0.3999939,0.8000031s0.1000061,0.6000061,0.3999939,0.8000031
			C358.2999878,198,358.7000122,198.1000061,359.1000061,198.1000061z M359.8999939,194.6999969
			C360.1000061,194.5,360.1999817,194.3000031,360.1999817,194s-0.1000061-0.5-0.2999878-0.6999969
			c-0.2000122-0.1999969-0.5-0.3000031-0.7999878-0.3000031s-0.6000061,0.1000061-0.7999878,0.3000031
			C358.1000061,193.5,358.0000305,193.6999969,358.0000305,194s0.1000061,0.5,0.2999878,0.6999969
			c0.2000122,0.1999969,0.5,0.3000031,0.7999878,0.3000031
			C359.3999939,194.8999939,359.7000122,194.8999939,359.8999939,194.6999969z"/>
	</g>
	<g>
		<path class="st8" d="M417.7999878,233.1000061c0.6000061,0,1.2000122,0.1999969,1.6000061,0.6000061
			S420,234.6000061,420,235.3000183c0,0.6999969-0.2000122,1.1999969-0.7000122,1.6000061
			c-0.3999939,0.3999939-1,0.6000061-1.7000122,0.6000061c-0.7999878,0-1.5-0.3000031-2.2000122-0.8000031l0.5-0.8000031
			c0.6000061,0.3999939,1.1000061,0.6000061,1.7000122,0.6000061c0.3999939,0,0.7000122-0.1000061,1-0.3999939
			c0.2999878-0.1999969,0.3999939-0.5,0.3999939-0.8999939s-0.1000061-0.6999969-0.3999939-0.8999939
			c-0.2000122-0.1999969-0.6000061-0.3999939-1-0.3999939c-0.5,0-0.8999939,0.1999969-1.2000122,0.5l-0.6000061-0.3999939
			l0.3999939-3.3000031h3.3999939v0.8999939H417l-0.2000122,1.6000061
			C417.1000061,233.1999969,417.5,233.1000061,417.7999878,233.1000061z"/>
		<path class="st8" d="M421.5,237.6000061c-0.2000122,0-0.2999878-0.1000061-0.5-0.1999969
			c-0.1000061-0.1000061-0.2000122-0.3000031-0.2000122-0.5s0.1000061-0.3000031,0.2000122-0.3999939
			c0.1000061-0.1000061,0.2999878-0.1999969,0.5-0.1999969s0.2999878,0.1000061,0.3999939,0.1999969
			c0.1000061,0.1000061,0.2000122,0.3000031,0.2000122,0.3999939c0,0.1999969-0.1000061,0.3000031-0.2000122,0.5
			C421.7999878,237.5,421.6000061,237.6000061,421.5,237.6000061z"/>
		<path class="st8" d="M422.1000061,232.3999939L424,230.7999878h0.7999878v6.6999969h-1v-5.3000031l-1.2000122,0.8999939
			L422.1000061,232.3999939z"/>
	</g>
	<g>
		<path class="st8" d="M422.7000122,288.7999878h0.7000122v0.8999939h-0.7000122v1.6000061h-1v-1.6000061h-3L418.5,289.0999756
			l3.6000061-4.3999939h0.7000122v4.1000061H422.7000122z M421.7000122,286.3999939l-2,2.3999939h2V286.3999939z"/>
		<path class="st8" d="M424.8999939,291.3999939c-0.2000122,0-0.2999878-0.1000061-0.5-0.2000122
			s-0.2000122-0.2999878-0.2000122-0.5s0.1000061-0.2999878,0.2000122-0.3999939s0.2999878-0.2000122,0.5-0.2000122
			s0.2999878,0.1000061,0.3999939,0.2000122S425.5,290.5999756,425.5,290.6999817c0,0.2000122-0.1000061,0.2999878-0.2000122,0.5
			S425.1000061,291.3999939,424.8999939,291.3999939z"/>
		<path class="st8" d="M428.6000061,287c0.6000061,0,1.2000122,0.2000122,1.6000061,0.6000061
			s0.6000061,0.8999939,0.6000061,1.6000061s-0.2000122,1.2000122-0.7000122,1.6000061
			c-0.3999939,0.3999939-1,0.6000061-1.7000122,0.6000061c-0.7999878,0-1.5-0.2999878-2.2000122-0.7999878l0.5-0.7999878
			c0.6000061,0.3999939,1.1000061,0.6000061,1.7000122,0.6000061c0.3999939,0,0.7000122-0.1000061,1-0.3999939
			c0.2999878-0.2000122,0.3999939-0.5,0.3999939-0.8999939s-0.1000061-0.7000122-0.3999939-0.8999939
			c-0.2000122-0.2000122-0.6000061-0.3999939-1-0.3999939c-0.5,0-0.8999939,0.2000122-1.2000122,0.5l-0.6000061-0.3999939
			l0.3999939-3.2999878h3.3999939v0.8999939h-2.6000061l-0.2000122,1.6000061C427.8999939,287,428.2000122,287,428.6000061,287z"/>
	</g>
	<g>
		<path class="st8" d="M363.7000122,293.7000122l1.8999939-1.6000061h0.7999878v6.7000122h-1v-5.2999878l-1.2000122,0.8999939
			L363.7000122,293.7000122z"/>
		<path class="st8" d="M368.2999878,298.7999878c-0.2000122,0-0.2999878-0.1000061-0.5-0.2000122
			s-0.2000122-0.2999878-0.2000122-0.5s0.1000061-0.2999878,0.2000122-0.3999939s0.2999878-0.2000122,0.5-0.2000122
			s0.2999878,0.1000061,0.3999939,0.2000122s0.2000122,0.2999878,0.2000122,0.3999939
			c0,0.2000122-0.1000061,0.2999878-0.2000122,0.5S368.5,298.7999878,368.2999878,298.7999878z"/>
		<path class="st8" d="M372.2999878,294.3999939c0.6000061,0,1.1000061,0.2000122,1.5,0.6000061s0.6000061,0.8999939,0.6000061,1.5
			s-0.2000122,1.2000122-0.7000122,1.6000061c-0.3999939,0.3999939-1,0.6000061-1.7000122,0.6000061
			c-0.7999878,0-1.3999939-0.2999878-1.7999878-0.8999939s-0.6000061-1.3999939-0.6000061-2.2999878
			c0-0.6000061,0.1000061-1.2000122,0.2999878-1.7999878s0.5-1,0.8999939-1.2999878c0.3999939-0.3999939,1-0.5,1.6000061-0.5
			c0.7000122,0,1.2999878,0.2000122,1.7000122,0.6000061l-0.3999939,0.7999878
			c-0.3999939-0.2999878-0.7999878-0.3999939-1.2000122-0.3999939c-0.3999939,0-0.7000122,0.1000061-1,0.3999939
			c-0.5,0.5-0.7999878,1.2000122-0.7999878,2.1000061c0.2000122-0.2999878,0.3999939-0.5,0.7000122-0.7000122
			S371.8999939,294.3999939,372.2999878,294.3999939z M372.1000061,297.8999939
			c0.3999939,0,0.7000122-0.1000061,0.8999939-0.3999939c0.2000122-0.2999878,0.3999939-0.6000061,0.3999939-0.8999939
			c0-0.3999939-0.1000061-0.7000122-0.3999939-0.8999939c-0.2000122-0.2000122-0.5-0.3999939-0.8999939-0.3999939
			s-0.7000122,0.1000061-0.8999939,0.3999939c-0.2000122,0.2000122-0.3999939,0.6000061-0.3999939,0.8999939
			c0,0.3999939,0.1000061,0.7000122,0.3999939,0.8999939C371.3999939,297.7999878,371.7000122,297.8999939,372.1000061,297.8999939z
			"/>
	</g>
	<g>
		<path class="st8" d="M379.2999878,364.5l1.8999939-1.6000061h0.7999878v6.7000122h-1v-5.2999878l-1.2000122,0.8999939
			L379.2999878,364.5z"/>
		<path class="st8" d="M387.1000061,367h0.7000122v0.8999939h-0.7000122V369.5h-1v-1.6000061h-3l-0.2000122-0.6000061
			L386.5,362.8999939h0.7000122V367H387.1000061z M386.1000061,364.6000061l-2,2.3999939h2V364.6000061z"/>
		<path class="st8" d="M389.2999878,369.7000122c-0.2000122,0-0.2999878-0.1000061-0.5-0.2000122
			s-0.2000122-0.2999878-0.2000122-0.5s0.1000061-0.2999878,0.2000122-0.3999939s0.2999878-0.2000122,0.5-0.2000122
			s0.2999878,0.1000061,0.3999939,0.2000122s0.2000122,0.2999878,0.2000122,0.3999939
			c0,0.2000122-0.1000061,0.2999878-0.2000122,0.5S389.5,369.7000122,389.2999878,369.7000122z"/>
		<path class="st8" d="M389.8999939,364.5l1.8999939-1.6000061h0.7999878v6.7000122h-1v-5.2999878l-1.2000122,0.8999939
			L389.8999939,364.5z"/>
	</g>
	<g>
		<path class="st8" d="M274.8999939,341.2000122l1.8999939-1.6000061h0.7999878v6.7000122h-1V341l-1.2000122,0.8999939
			L274.8999939,341.2000122z"/>
		<path class="st8" d="M278.7000122,340.6000061v-0.8999939h4.2000122v0.7000122l-2.5,6h-1.1000061l2.5-5.7000122h-3.1000061
			V340.6000061z"/>
		<path class="st8" d="M283.5,346.3999939c-0.2000122,0-0.2999878-0.1000061-0.5-0.2000122
			c-0.1000061-0.1000061-0.2000122-0.2999878-0.2000122-0.5s0.1000061-0.2999878,0.2000122-0.3999939
			s0.2999878-0.2000122,0.5-0.2000122s0.2999878,0.1000061,0.3999939,0.2000122s0.2000122,0.2999878,0.2000122,0.3999939
			c0,0.2000122-0.1000061,0.2999878-0.2000122,0.5S283.6000061,346.3999939,283.5,346.3999939z"/>
		<path class="st8" d="M284.1000061,341.2000122L286,339.6000061h0.7999878v6.7000122h-1V341l-1.2000122,0.8999939
			L284.1000061,341.2000122z"/>
	</g>
</g>
<g id="street_anchors" class="st15">
	<rect id="street_x5F_anchor_x5F_01" x="212" y="235" class="st16" width="10" height="10"/>
	<rect id="street_x5F_anchor_x5F_02" x="355" y="450" class="st16" width="10" height="10"/>
</g>
</svg>
