<?xml version="1.0" encoding="utf-8"?>
<!-- Generator: Adobe Illustrator 24.2.0, SVG Export Plug-In . SVG Version: 6.00 Build 0)  -->
<!DOCTYPE svg PUBLIC "-//W3C//DTD SVG 1.1//EN" "http://www.w3.org/Graphics/SVG/1.1/DTD/svg11.dtd" [
	<!ENTITY ns_extend "http://ns.adobe.com/Extensibility/1.0/">
	<!ENTITY ns_ai "http://ns.adobe.com/AdobeIllustrator/10.0/">
	<!ENTITY ns_graphs "http://ns.adobe.com/Graphs/1.0/">
	<!ENTITY ns_vars "http://ns.adobe.com/Variables/1.0/">
	<!ENTITY ns_imrep "http://ns.adobe.com/ImageReplacement/1.0/">
	<!ENTITY ns_sfw "http://ns.adobe.com/SaveForWeb/1.0/">
	<!ENTITY ns_custom "http://ns.adobe.com/GenericCustomNamespace/1.0/">
	<!ENTITY ns_adobe_xpath "http://ns.adobe.com/XPath/1.0/">
]>
<svg version="1.1" id="_x31__x5F_2" xmlns:x="&ns_extend;" xmlns:i="&ns_ai;" xmlns:graph="&ns_graphs;"
	 xmlns="http://www.w3.org/2000/svg" xmlns:xlink="http://www.w3.org/1999/xlink" x="0px" y="0px" viewBox="0 0 720 480"
	 style="enable-background:new 0 0 720 480;" xml:space="preserve">
<style type="text/css">
	.st0{fill:#DBD4CA;}
	.st1{opacity:0.3;}
	.st2{opacity:0.7;fill:#C49F8A;enable-background:new    ;}
	.st3{fill:#C49F8A;}
	.st4{fill:none;stroke:#565440;}
	.st5{fill:none;stroke:#565440;stroke-width:1.0000414;stroke-miterlimit:4.0001655;}
	.st6{fill:#565440;}
	.st7{fill:#E9E4DC;}
	.st8{fill:#E9E4DC;stroke:#C49F8A;}
	.st9{fill:#E9E4DC;stroke:#C49F8A;stroke-width:0.9999701;stroke-miterlimit:3.9995806;}
	.st10{fill:none;stroke:#C49F8A;}
	.st11{fill:#E9E4DC;stroke:#C49F8A;stroke-miterlimit:3.9998;}
	.st12{fill:#E9E4DC;stroke:#C49F8A;stroke-linejoin:round;}
	.st13{fill:#E9E4DC;stroke:#C49F8A;stroke-width:0.9999716;stroke-miterlimit:3.9997864;}
	.st14{fill:#E9E4DC;stroke:#C49F8A;stroke-width:1.0000014;stroke-miterlimit:4.0000057;}
	.st15{opacity:0.62;}
	.st16{fill:none;}
</style>
<metadata>
	<sfw  xmlns="&ns_sfw;">
		<slices></slices>
		<sliceSourceBounds  bottomLeftOrigin="true" height="400" width="365.2133179" x="197.3866577" y="20"></sliceSourceBounds>
	</sfw>
</metadata>
<polygon id="Floor" class="st0" points="467.7000122,63.9000015 512.7000122,63.9000015 515.8834229,65.2024536 
	503.1104431,114.0306778 502.5,120.3000031 502.5,164.8000031 515.8563843,167.7564087 502.9756165,216.7484589 
	502.980011,251.3999939 515.8705444,259.7000122 502.980011,308.4601135 502.980011,351.6000061 515.2999878,354.6000061 
	502.7999878,410.7999878 447,399.7000122 409.7000122,399 406.7999878,413.3999939 330.2000122,396.1000061 
	287.7999878,399.7999878 285.2000122,410.8999939 229.8000031,397.5 197.3999939,397.5 197.3999939,160.3000031 
	281.7000122,160.3000031 281.7000122,61.5 "/>
<g id="Wet_floor">
	<g class="st1">
		<polygon class="st2" points="349.3999939,168.1999969 349.3999939,64.5 285.7999878,64.5 285.7999878,167.3000031 
			264.7000122,167.3000031 264.7000122,241.8000031 364.3999939,241.8000031 364.3999939,168.1999969 		"/>
	</g>
	<path class="st3" d="M351.2999878,170.1000061l1.8999939-1.8999939h-1.3999939l-1.2000122,1.1999969l-1.2000122-1.1999969
		h-0.1000061v-0.1000061L340.6999512,159.5l8.6000061-8.6000061V149.5l-9.2999878,9.3000031l-9.7000122-9.6999969
		l9.7999878-9.8000031L349.2999573,148.5v-1.3999939l-8.5-8.5l8.5-8.5v-1.3999939l-9.2000122,9.1999969l-9.7999878-9.8000031
		l9.7000122-9.6999969l9.2999878,9.3000031v-1.4000015l-8.6000061-8.5999985l8.6000061-8.5999985v-1.4000015L340,117l-10-10
		l9.7999878-9.8000031l9.5,9.5v-1.4000015L340.5,96.4999924l8.7999878-8.8000031v-1.4000015l-9.5,9.5L330,86l9.7999878-9.8000031
		l9.5,9.5v-1.4000015L340.5,75.4999924l8.7999878-8.8000031v-1.4000015l-9.5,9.5l-9.7000122-9.6999969l0,0l-0.7000122-0.6999969l0,0
		l0,0l-0.7000122,0.6999969l0,0l-9.7999878,9.8000031l-9.7999878-9.8000031l0,0l-0.7000122-0.6999969l0,0l0,0l-0.7000122,0.6999969
		l0,0l-9.7999878,9.8000031l-9.7999878-9.8000031l0,0l-0.7000122-0.6999969l0,0l0,0l-0.7000122,0.6999969l0,0l-1,1v1.4000015
		l1.7000122-1.6999969l9.7999878,9.8000031l-9.7000122,9.6999969l-1.7999878-1.8000031V85l1.1000061,1.0999985l-1.1000061,1.0999985
		v1.4000015l1.7999878-1.8000031l9.7999878,9.8000031l-9.7999878,9.8000031l-1.7999878-1.8000031V106l1.1000061,1.0999985
		l-1.1000061,1.0999985v1.4000015l1.7999878-1.8000031l9.7000122,9.6999969l-10,10l-1.5-1.5v1.4000015l0.7999878,0.8000031
		L285.6999512,129v1.3999939l1.5-1.5l9.7999878,9.8000031L287.1999512,148.5l-1.5-1.5v1.3999939l0.7999878,0.8000031
		L285.6999512,150v1.3999939l1.5-1.5l10,10l-9.7000122,9.6999969l-2.2999878-2.3000031h-1.3999939l3,3l-9.7999878,9.8000031l-10-10
		l2.7999878-2.8000031h-1.3999939l-2.1000061,2.1000061l-1.7000122-1.6999969v1.3999939l1,1l-1,1v1.3999939l1.7000122-1.6999969
		l10,10l-9.7999878,9.8000031l-1.8999939-1.8999939v1.3999939l1.2000122,1.1999969l-1.2000122,1.1999969v1.3999939
		l1.8999939-1.8999939l9.7999878,9.8000031l-9.7999878,9.8000031l-1.8999939-1.8999939v1.3999939l1.2000122,1.1999969
		l-1.2000122,1.1999969v1.3999939l1.8999939-1.8999939l9.7000122,9.6999969l-9.7000122,9.6999969l-1.8999939-1.8999939v1.3999939
		l1.2000122,1.1999969l-1.2000122,1.1999969v1.3999939l1.8999939-1.8999939l7.8999939,7.8999939l0.7000122-0.6999969
		l-7.8999939-7.8999939l9.7000122-9.6999969l9.7999878,9.8000031L279,241l0.7000122,0.6999969L287.5,233.8999939
		l7.7999878,7.8000031L296,241l-7.7999878-7.8000031L298,223.3999939l9.7999878,9.8000031L300,241l0.7000122,0.6999969
		L308.5,233.8999939l7.7999878,7.8000031L317,241l-7.7999878-7.8000031L319,223.3999939l9.7999878,9.8000031L321,241
		l0.7000122,0.6999969L329.5,233.8999939l7.7999878,7.8000031L338,241l-7.7999878-7.8000031L340,223.3999939l9.7000122,9.6999969
		l-7.8999939,7.8999939l0.7000122,0.6999969l7.8999939-7.8999939l7.8999939,7.8999939l0.7000122-0.6999969l-7.8999939-7.8999939
		l9.7000122-9.6999969l3.5,3.5V225.5l-2.7999878-2.8000031l2.7999878-2.8000031V218.5l-3.5,3.5l-9.7000122-9.6999969
		L360.9000244,202.5l3.3999939,3.3999939V204.5l-2.7000122-2.6999969l2.7000122-2.6999969v-1.3999939l-3.3999939,3.3999939
		l-9.7999878-9.8000031l10-10L364.3000488,184.5v-1.3999939l-2.5-2.5l2.5-2.5v-1.3999939l-3.2000122,3.1999969
		L351.2999878,170.1000061z M349.8999939,170.1000061l-10,10l-9.7999878-9.8000031l10-10L349.8999939,170.1000061z
		 M288.2999878,191.3000031L298.0999756,181.5l9.7000122,9.6999969L298,201L288.2999878,191.3000031z M297.2999878,201.6999969
		L287.5,211.5l-9.7000122-9.6999969L287.5999756,192L297.2999878,201.6999969z M318.8999939,180.1000061l-9.7000122-9.6999969
		l9.7999878-9.8000031l9.7000122,9.6999969L318.8999939,180.1000061z M329.3999939,171l9.7999878,9.8000031l-9.7999878,9.8000031
		l-9.7999878-9.8000031L329.3999939,171z M309.2000122,149.3999939l10-10L329,149.1999969l-10,10L309.2000122,149.3999939z
		 M309.2000122,128L319,118.1999969l10,10L319.2000122,138L309.2000122,128z M309.2000122,107l9.7000122-9.6999969
		l9.7999878,9.8000031L319,116.8000031L309.2000122,107z M308.5,106.3000031l-9.7000122-9.6999969L308.5,86.9000092
		l9.7000122,9.6999969L308.5,106.3000031z M318.2999878,117.5L308.5,127.3000031L298.7000122,117.5L308.5,107.6999969
		L318.2999878,117.5z M318.5,138.6999969l-10,10l-10-10l10-10L318.5,138.6999969z M318.2999878,159.8999939L308.5,169.6999969
		l-9.7999878-9.8000031L308.5,150.0999908L318.2999878,159.8999939z M318.2000122,180.8000031L308.5,190.5l-9.7000122-9.6999969
		L308.5,171.1000061L318.2000122,180.8000031z M308.5,191.8999939l9.7999878,9.8000031L308.5,211.5l-9.7999878-9.8000031
		L308.5,191.8999939z M309.2000122,191.1999969L318.9000244,181.5l9.7999878,9.8000031L319,201L309.2000122,191.1999969z
		 M329.3999939,192l9.7999878,9.8000031L329.4999695,211.5l-9.7999878-9.8000031L329.3999939,192z M330.1000061,191.3000031
		L339.8999939,181.5l9.7999878,9.8000031l-9.7999878,9.8000031L330.1000061,191.3000031z M339.3999939,159.6000061l-10,10
		l-9.7000122-9.6999969l10-10L339.3999939,159.6000061z M339.5,138.6999969L329.7000122,148.5l-9.7999878-9.8000031
		l9.7999878-9.8000031L339.5,138.6999969z M339.3999939,117.8000031L329.6999817,127.5l-10-10l9.7000122-9.6999969
		L339.3999939,117.8000031z M339.2000122,96.5999985l-9.7999878,9.8000031l-9.7999878-9.8000031l9.7999878-9.8000031
		L339.2000122,96.5999985z M329.5,65.9000015l9.7000122,9.6999969l-9.7999878,9.8000031l-9.7000122-9.6999969L329.5,65.9000015z
		 M328.7000122,86.0999985l-9.7999878,9.8000031l-9.7000122-9.6999969L319,76.4000015L328.7000122,86.0999985z M308.5,65.9000015
		l9.7999878,9.8000031L308.5,85.5000076l-9.7999878-9.8000031L308.5,65.9000015z M288.2999878,86.0999985L298,76.4000015
		l9.7999878,9.8000031l-9.7000122,9.6999969L288.2999878,86.0999985z M288.2999878,107.0999985l9.7999878-9.8000031
		l9.7000122,9.6999969L298,116.7999954L288.2999878,107.0999985z M288,128.1999969l10-10L307.7999878,128l-10,10L288,128.1999969z
		 M288,149.1999969l9.7999878-9.8000031l10,10L298,159.1999969L288,149.1999969z M298,160.6000061l9.7999878,9.8000031
		l-9.7000122,9.6999969l-9.7999878-9.8000031L298,160.6000061z M287.6000061,171l9.7999878,9.8000031l-9.7999878,9.8000031
		l-9.7999878-9.8000031L287.6000061,171z M267.2999878,191.3000031L277.0999756,181.5l9.7999878,9.8000031l-9.7999878,9.8000031
		L267.2999878,191.3000031z M267.2999878,212.3000031L277.0999756,202.5l9.7000122,9.6999969L277,222L267.2999878,212.3000031z
		 M287.5,232.5l-9.7999878-9.8000031L287.5,212.8999939l9.7999878,9.8000031L287.5,232.5z M288.2000122,212.1999969L298,202.3999939
		l9.7999878,9.8000031L298,222L288.2000122,212.1999969z M308.5,232.5l-9.7999878-9.8000031L308.5,212.8999939l9.7999878,9.8000031
		L308.5,232.5z M309.2000122,212.1999969L319,202.3999939l9.7999878,9.8000031L319,222L309.2000122,212.1999969z M329.5,232.5
		l-9.7999878-9.8000031L329.5,212.8999939l9.7999878,9.8000031L329.5,232.5z M330.2000122,212.1999969L339.9000244,202.5
		l9.7999878,9.8000031L340,222L330.2000122,212.1999969z M360.1000061,222.6999969l-9.7000122,9.6999969l-9.7000122-9.6999969
		L350.3999939,213L360.1000061,222.6999969z M360.2000122,201.8000031l-9.7999878,9.8000031l-9.7999878-9.8000031L350.4000244,192
		L360.2000122,201.8000031z M350.3999939,190.6000061l-9.7999878-9.8000031l10-10l9.7999878,9.8000031L350.3999939,190.6000061z"/>
</g>
<g id="Windows">
	<path class="st4" d="M235.9687347,399.5216064l46.2983246,10.6843872l-0.8903809,4.4516296l-46.2983246-10.6841125
		L235.9687347,399.5216064z"/>
	<path class="st4" d="M329.7525024,395.9602661l75.0863953,17.2134705l-0.8903809,4.4516296l-75.0866699-17.2134705
		L329.7525024,395.9602661z"/>
	<polygon class="st4" points="519.3981934,357.3780212 514.9465332,356.487915 502.7781982,410.7994995 431.2527771,396.553772 
		430.6593018,401.0054932 506.339447,416.1416016 506.6364441,414.064209 	"/>
	
		<rect x="485.1211853" y="86.9343872" transform="matrix(0.2514896 -0.96786 0.96786 0.2514896 296.828186 562.1275024)" class="st5" width="53.4437332" height="4.4455695"/>
	
		<rect x="485.1297607" y="281.7824097" transform="matrix(0.2514896 -0.96786 0.96786 0.2514896 108.2490158 707.9816284)" class="st5" width="53.4438248" height="4.4456148"/>
	
		<rect x="485.1253357" y="189.8014069" transform="matrix(0.2514896 -0.96786 0.96786 0.2514896 197.2704315 639.1286011)" class="st5" width="53.4438248" height="4.4456148"/>
</g>
<path id="Doors" class="st4" d="M390.315979,281.5293884c0,3.2646484-0.5935059,6.0962219-1.7807617,9.0640564
	c-1.1872864,2.9677734-2.9677734,5.6390076-5.0455017,7.7163696c-2.0776367,2.3742676-4.7485962,4.1551208-7.7163696,5.3421021
	c-2.9677429,1.1869812-5.9355774,1.7807617-9.2002258,1.7807617V281.52948 M363.0115051,225.0146637
	c-3.2646484,0-5.9356079-0.5937653-8.9036255-1.7807617c-2.9677429-1.1869965-5.6386108-2.9677582-7.7163696-5.0454865
	c-2.3742371-2.077652-4.1550903-4.7486115-5.3421021-7.7163696c-1.1872559-2.9681091-1.7807617-5.9358673-1.7807617-9.2005005
	h23.7428589 M346.9853821,121.7334213c-3.2646484,0-5.9356079-0.5934982-8.9036255-1.7807617
	c-2.9677429-1.1872635-5.6389771-2.9677505-7.7163696-5.0454865c-2.3742371-2.0776443-4.1550903-4.7486115-5.3421021-7.716362
	c-1.1869812-2.9677505-1.7807617-5.9355927-1.7807617-9.2005081h23.7428589 M394.7676086,166.5479736
	c0-3.2646332-0.5935059-5.9355927-1.7807617-8.9036255c-1.1870117-2.9677582-2.9677734-5.6389923-5.0455017-7.7163544
	c-2.0773621-2.3742676-4.7485962-4.1551208-7.7163696-5.3421021c-2.9677429-1.1869965-5.9355774-1.7807617-9.2005005-1.7807617
	v23.7428436 M264.7758484,202.4588013c-3.2646484,0-5.9356079,0.5935059-8.9036255,1.7807617
	c-2.9677429,1.1872711-5.6389771,2.9677582-7.7163544,5.0455017c-2.3742523,2.0776367-4.1551056,4.7485962-5.3421021,7.7163544
	s-1.7807617,5.9355927-1.7807617,9.2002258h23.7428436 M399.8130798,234.8083954
	c3.561615,0,6.5291138,0.5934906,9.7937317,1.7807617c3.2646484,1.1869812,5.9356079,3.2646332,8.0132446,5.3421021
	c2.3742676,2.0773621,4.4516296,5.0451202,5.6389771,8.0132446c1.1870117,2.9677429,1.7807617,6.2324677,1.7807617,9.7939911
	h-25.2267151 M258.8399658,160.3154907c0-3.858139-0.8903809-7.419754-2.3742371-10.9810028
	c-1.4838867-3.561615-3.561615-7.1228638-6.5293732-9.7937317c-2.6711426-2.6711426-5.9355927-5.0454865-9.4971161-6.5293579
	c-3.561615-1.4838867-7.419754-2.3742676-11.2778931-2.3742676v29.67836"/>
<g id="Walls">
	<path class="st6" d="M212.2258911,391.5083618V241.5h9.3740845v-13.4000244h-9.3740845v-59.1801147h17.510376v-8.9036255
		h-17.510376h-0.59375h-14.2454834v246.3312378h14.8392334h15.7717285l7.3772583,1.7811279l3.2650146-14.5426025
		l-8.6070557-2.0776367H212.2258911z M218.6000366,231.0999756V238.5h-6.3741455v-7.4000244H218.6000366z"/>
	<polygon class="st6" points="283.4540405,400.4119873 280.1896973,414.9542236 288.7961426,417.0322266 291.2614746,406.0509644 
		330.9397583,406.0509644 330.9397583,388.2440186 283.4540405,388.2440186 	"/>
	<polygon class="st6" points="405.1360474,406.024353 402.4647827,417.9223633 411.0715332,420 414.2030029,406.0509644 
		449.6536255,406.0509644 449.6536255,388.2440186 405.1360474,388.2440186 	"/>
	<polygon class="st6" points="360.6184692,278.7299805 360.6184692,395.3667603 358.8376465,403.3797607 361.805481,403.9735107 
		363.5862427,395.9602661 363.5862427,281.6981201 366.5539551,281.6981201 366.5539551,278.7299805 363.5862427,278.7299805 	"/>
	<polygon class="st6" points="509.604187,283.4788818 510.197937,280.5111084 503.0750732,278.7299805 399.7939453,278.7299805 
		399.7939453,259.4391479 396.8258057,259.4391479 396.8258057,278.7299805 390.296814,278.7299805 390.296814,281.6981201 
		502.4813232,281.6981201 	"/>
	<path class="st6" d="M349.637085,121.4341431h-2.9677124v44.5178833H298v-13.6520386h-8.6100464V68.9033203h57.2794189v28.7880249
		h2.9677124V68.9033203h171.5415649V60H289.3899536h-6.8259888h-2.0776367v100.0162354H258.821106v8.9036255h5.8789063v10.380127
		h0.0567017v22.8598633h2.9681396v-22.8598633h15.5751953v-10.380127h6.0899048h12.4648438v74.196228h-34.1299438v-17.213501
		h-2.9681396v17.213501v2.9678345h2.9681396h94.0806274h1.4838867h1.4838257V224.715332h-2.9677124v18.4007568h-56.9828491
		v-74.196228h56.9828491v32.0526123h2.9677124v-32.0526123h6.3546753v-2.9678345H349.637085V121.4341431z M295,155.2999878
		v10.6000366h-5.6100464v-5.8837891v-4.7162476H295z M280.2999878,176.2999878h-12.5751343v-7.380127h12.5751343V176.2999878z"/>
	<polygon class="st6" points="508.9419556,306.4060059 491.1350098,306.4060059 491.1350098,356.3704834 507.296814,356.3704834 
		520.5168457,359.338623 522.5941772,350.7315063 508.9419556,347.6669922 	"/>
	<polygon class="st6" points="508.9419556,218.4398804 510.7227173,211.062561 496.1801758,207.7979126 494.1717529,216.404541 
		494.1027222,216.404541 494.1027222,259.5604858 507.296814,259.5604858 520.5168457,262.5282593 522.5941772,253.9215088 
		508.9419556,250.8566895 	"/>
	<polygon class="st6" points="510.2435913,168.9234009 513.1585693,168.9156494 520.5248413,170.699707 520.526001,170.6940308 
		520.5358887,170.6964111 522.6133423,162.0896606 514.0068359,160.0120239 509.0136719,160.0120239 509.0136719,112.5343628 
		508.9419556,112.5343628 508.9419556,112.5299072 491.1621704,112.5299072 491.1594849,160.0162354 396.7873535,160.0162354 
		396.7873535,165.9520264 394.7484741,165.9520264 394.7484741,168.9198608 396.7873535,168.9198608 396.8258057,168.9198608 
		396.8258057,234.5114136 399.7939453,234.5114136 399.7939453,168.9198608 491.1594849,168.9198608 491.1594849,168.9234009 	"/>
</g>
<g id="Furniture_2_">
	<g>
		<g>
			<rect x="434.2000122" y="69.4000015" class="st7" width="49.2000122" height="58.2999954"/>
			<path class="st3" d="M434.7000122,69.9000015h48.2000122v57.2999954h-48.2000122V69.9000015 M433.7000122,68.9000015v59.2999954
				h50.2000122V68.9000015H433.7000122L433.7000122,68.9000015z"/>
		</g>
		<rect x="460" y="73.0999985" class="st8" width="19.6000061" height="14.6999969"/>
		<rect x="437.8999939" y="73.0999985" class="st8" width="19.6000061" height="14.6999969"/>
		
			<rect x="460.8667297" y="79.6656723" transform="matrix(0.2588077 -0.9659289 0.9659289 0.2588077 262.9877014 516.7590332)" class="st9" width="14.6995735" height="14.6995583"/>
		
			<rect x="441.88974" y="79.6997147" transform="matrix(0.9659289 -0.2588077 0.2588077 0.9659289 -7.2229786 119.2325363)" class="st9" width="14.6995735" height="14.6995583"/>
		<g>
			<polygon class="st7" points="434.2000122,128.3000031 434.2000122,81.8000031 453.7000122,80.5999985 483.2999878,84.9000015 
				483.2999878,128.3000031 			"/>
			<path class="st3" d="M453.7000122,81.0999985l29.1000061,4.1999969v42.5h-48.2000122V82.3000031L453.7000122,81.0999985
				 M453.7000122,80.0999985l-20.1000061,1.1999969v0.9000015v46.5h50.2000122v-44v-0.3000031L453.7000122,80.0999985
				L453.7000122,80.0999985z"/>
		</g>
		<polyline class="st10" points="434.2999878,82.8000031 453.8999939,82.8000031 483.2999878,85.3000031 		"/>
	</g>
	<g>
		<g>
			<rect x="428.5" y="282.2000122" class="st7" width="49.2000122" height="58.2999878"/>
			<path class="st3" d="M477.2000122,282.7000122V340H429v-57.2999878H477.2000122 M478.2000122,281.7000122H428V341h50.2000122
				V281.7000122L478.2000122,281.7000122z"/>
		</g>
		<rect x="454.3999939" y="285.8999939" class="st8" width="19.6000061" height="14.7000122"/>
		<rect x="432.2999878" y="285.8999939" class="st8" width="19.6000061" height="14.7000122"/>
		
			<rect x="455.2444763" y="292.5358582" transform="matrix(0.2588077 -0.9659289 0.9659289 0.2588077 53.2030983 669.1060791)" class="st9" width="14.6995735" height="14.6995735"/>
		
			<rect x="436.2907104" y="292.4930115" transform="matrix(0.9659289 -0.2588077 0.2588077 0.9659289 -62.4862976 125.0335846)" class="st9" width="14.6995735" height="14.6995735"/>
		<g>
			<polygon class="st7" points="428.5,341.1000061 428.5,294.6000061 448.1000061,293.3999939 477.7000122,297.7000122 
				477.7000122,341.1000061 			"/>
			<path class="st3" d="M448.1000061,293.8999939l29.1000061,4.2000122v42.5H429v-45.5L448.1000061,293.8999939
				 M448.1000061,292.8999939L428,294.1000061V295v46.5h50.2000122v-44v-0.2999878L448.1000061,292.8999939L448.1000061,292.8999939
				z"/>
		</g>
		<polyline class="st10" points="428.7000122,295.6000061 448.2999878,295.6000061 477.7000122,298.1000061 		"/>
	</g>
	<g>
		<g>
			<rect x="400.2752686" y="169.4155884" class="st7" width="63.8999939" height="41.8999939"/>
			<path class="st3" d="M400.7752686,169.9155884h62.8999939v40.8999939h-62.8999939V169.9155884 M399.7752686,168.9155884
				v42.8999939h64.8999939v-42.8999939H399.7752686L399.7752686,168.9155884z"/>
		</g>
		<rect x="404.3752747" y="172.6156006" class="st8" width="16.1000061" height="16.8000031"/>
		<rect x="404.3752747" y="191.4155884" class="st8" width="16.1000061" height="16.8000031"/>
		<polygon class="st11" points="413.8752747,174.6156006 409.7752686,186.7155914 425.2752686,190.0155945 429.3752747,177.9155884 
					"/>
		<polygon class="st11" points="425.2752686,190.9155884 409.7752686,194.1156006 413.9752808,206.2155914 429.4752808,203.0155945 
					"/>
		<g>
			<polygon class="st7" points="413.8752747,211.3155975 412.4752808,194.7155914 417.1752625,169.4155884 464.7752686,169.4155884 
				464.7752686,211.3155975 			"/>
			<path class="st3" d="M417.5752869,169.9155884h46.7000122v40.8999939h-49.8999939h-0.1000061l-1.2999878-16.1000061
				L417.5752869,169.9155884 M417.1752625,168.9155884h-0.2999878l-4.7999878,25.6999969l1.3999939,17.1999969h1h50.8999939
				v-42.8999939H417.1752625L417.1752625,168.9155884z"/>
		</g>
		<polyline class="st10" points="415.0752869,211.3155975 415.0752869,194.5155945 417.6752625,169.4155884 		"/>
	</g>
	<g>
		<g>
			<rect x="371.6000061" y="322.5" class="st7" width="13.5" height="62.6000061"/>
			<path class="st3" d="M384.6000061,323v61.6000061H372V323H384.6000061 M385.6000061,322H371v63.6000061h14.6000061V322
				L385.6000061,322z"/>
		</g>
		<g>
			<rect x="364.1000061" y="322.5" class="st7" width="19" height="62.6000061"/>
			<path class="st3" d="M382.5,323v61.6000061h-18V323H382.5 M383.5,322h-20v63.6000061h20V322L383.5,322z"/>
		</g>
		<path class="st8" d="M364.2000122,385.1000061l18.7000122-62.8999939"/>
	</g>
	<g>
		<g>
			<rect x="356.0403137" y="125.1481857" class="st7" width="13.6000061" height="40.2999954"/>
			<path class="st3" d="M369.0403137,125.6481857v39.2999954h-12.6000061v-39.3000031h12.6000061 M370.0403137,124.6481857
				h-14.6000061v41.2999954h14.6000061V124.6481857L370.0403137,124.6481857z"/>
		</g>
		<g>
			<rect x="350.2403259" y="125.1481857" class="st7" width="17.2999878" height="40.2999954"/>
			<path class="st3" d="M366.9403076,125.6481857v39.2999954h-16.2999878v-39.3000031h16.2999878 M367.9403076,124.6481857
				h-18.2999878v41.2999954h18.2999878V124.6481857L367.9403076,124.6481857z"/>
		</g>
		<path class="st8" d="M350.340332,165.6481934l17.1000061-40.9000015"/>
	</g>
	<g>
		<g>
			<rect x="215.3999939" y="169.3999939" class="st7" width="13.6000061" height="40.3000031"/>
			<path class="st3" d="M228.3999939,169.8999939v39.3000031h-12.6000061v-39.3000031H228.3999939 M229.3999939,168.8999939
				h-14.6000061v41.3000031h14.6000061V168.8999939L229.3999939,168.8999939z"/>
		</g>
		<g>
			<rect x="212.6000061" y="169.3999939" class="st7" width="14.1999969" height="40.3000031"/>
			<path class="st3" d="M226.3000031,169.8999939v39.3000031h-13.1999969v-39.3000031H226.3000031 M227.3000031,168.8999939
				h-15.1999969v41.3000031h15.1999969V168.8999939L227.3000031,168.8999939z"/>
		</g>
		<path class="st8" d="M212.6000061,210l14.1999969-40.8999939"/>
	</g>
	<g>
		<g>
			<rect x="350.1403503" y="75.1902542" class="st7" width="40.2999878" height="13.5999985"/>
			<path class="st3" d="M389.9403381,75.6902542v12.5999985h-39.2999878V75.6902542H389.9403381 M390.9403381,74.6902542
				h-41.2999878v14.5999985h41.2999878V74.6902542L390.9403381,74.6902542z"/>
		</g>
		<g>
			<rect x="350.1403503" y="69.3902588" class="st7" width="40.2999878" height="17.2999954"/>
			<path class="st3" d="M389.9403381,69.8902588v16.2999954h-39.2999878V69.8902588H389.9403381 M390.9403381,68.8902588
				h-41.2999878v18.2999954h41.2999878V68.8902588L390.9403381,68.8902588z"/>
		</g>
		<path class="st8" d="M349.9403381,69.4902573l40.8999939,17.0999985"/>
	</g>
	<g>
		<g>
			<rect x="400.3999939" y="261.9000244" class="st7" width="49.6000061" height="13.5"/>
			<path class="st3" d="M449.5,262.4000244v12.6000061h-48.6000061v-12.6000061H449.5 M450.5,261.4000244h-50.6000061v14.6000061
				H450.5V261.4000244L450.5,261.4000244z"/>
		</g>
		<g>
			<rect x="400.3999939" y="264.0000305" class="st7" width="49.6000061" height="14.2999878"/>
			<path class="st3" d="M449.5,264.5000305v13.2999878h-48.6000061v-13.2999878H449.5 M450.5,263.5000305h-50.6000061v15.2999878
				H450.5V263.5000305L450.5,263.5000305z"/>
		</g>
		<path class="st8" d="M450.2000122,278.3000488l-50.1000061-14.2999878"/>
	</g>
	<g>
		<g>
			<rect x="289.8930969" y="69.4000015" class="st7" width="49.5" height="20"/>
			<path class="st3" d="M290.3930969,69.9000015h48.5v19h-48.5V69.9000015 M289.3930969,68.9000015v21h50.5v-21H289.3930969
				L289.3930969,68.9000015z"/>
		</g>
		<g>
			<g>
				<path class="st12" d="M293.993103,79.4000015c0,3.9000015,3.2999878,6.9000015,7.1000061,6.5
					c4.2000122-0.4000015,9.5-0.6999969,13.5-0.6999969c3.8999939,0,9.2000122,0.4000015,13.5,0.6999969
					c3.7999878,0.3000031,7.1000061-2.6999969,7.1000061-6.5s-3.2999878-6.9000015-7.1000061-6.5
					c-4.2000122,0.4000015-9.5,0.6999969-13.5,0.6999969c-3.8999939,0-9.2000122-0.4000015-13.5-0.6999969
					C297.3930969,72.5,293.993103,75.5999985,293.993103,79.4000015z"/>
				<ellipse class="st12" cx="300.6931152" cy="79.4000015" rx="1" ry="1"/>
			</g>
		</g>
	</g>
	<g>
		<g>
			<rect x="341.7000122" y="229.6000061" class="st7" width="19.3999939" height="13"/>
			<path class="st3" d="M360.7000122,230.1000061v12h-18.3999939v-12H360.7000122 M361.7000122,229.1000061h-20.3999939v14
				h20.3999939V229.1000061L361.7000122,229.1000061z"/>
		</g>
		<g>
			<path class="st7" d="M351.3999939,240.1999969c-2.2000122,0-4.1000061-1.8000031-4.1000061-4.1000061
				s1.7999878-4.1000061,4.1000061-4.1000061S355.5,233.7999878,355.5,236.0999908S353.7000122,240.1999969,351.3999939,240.1999969
				z"/>
			<path class="st3" d="M351.3999939,232.6000061c2,0,3.6000061,1.6000061,3.6000061,3.6000061
				s-1.6000061,3.6000061-3.6000061,3.6000061s-3.6000061-1.6000061-3.6000061-3.6000061S349.5,232.6000061,351.3999939,232.6000061
				 M351.3999939,231.6000061c-2.5,0-4.6000061,2-4.6000061,4.6000061c0,2.5,2,4.6000061,4.6000061,4.6000061
				s4.6000061-2,4.6000061-4.6000061S354,231.6000061,351.3999939,231.6000061L351.3999939,231.6000061z"/>
		</g>
	</g>
	<g>
		<g>
			<path class="st7" d="M344.8143311,193.1000061c-3.8999939,0-7.2000122-3.1999969-7.2000122-7.1999969v-16.5h23.6000061V193
				L344.8143311,193.1000061L344.8143311,193.1000061z"/>
			<path class="st3" d="M360.8143311,169.8999939V192.5h-16c-3.7000122,0-6.7000122-3-6.7000122-6.6999969v-16
				L360.8143311,169.8999939 M361.8143311,168.8999939h-24.7000122v17c0,4.1999969,3.3999939,7.6999969,7.7000122,7.6999969h17
				V168.8999939L361.8143311,168.8999939z"/>
		</g>
		<g>
			<path class="st7" d="M344.8143311,191c-2.8999939,0-5.2000122-2.3000031-5.2000122-5.1999969v-14.3999939h19.6000061V191
				H344.8143311z"/>
			<path class="st3" d="M358.8143311,171.8999939V190.5h-13.8999939c-2.6000061,0-4.7000122-2.1000061-4.7000122-4.6999969
				v-13.8999939L358.8143311,171.8999939 M359.8143311,170.8999939h-20.7000122v14.8999939
				c0,3.1999969,2.6000061,5.6999969,5.7000122,5.6999969h14.8999939v-20.6000061h0.1000061V170.8999939z"/>
		</g>
		<ellipse class="st8" cx="355.4143066" cy="175.1999969" rx="1" ry="1"/>
	</g>
	<g>
		<path class="st8" d="M265.5,316.5h40.2999878v29.2999878H265.5V316.5z"/>
		<path class="st8" d="M263,323.5h-0.6000061c-4.2999878,0-7.6999969,3.3999939-7.6999969,7.7000122
			c0,4.2999878,3.4000092,7.7000122,7.6999969,7.7000122H263V323.5z"/>
		<path class="st8" d="M265.5,325.1000061h-3.1000061c-3.3999939,0-6.1000061,2.7000122-6.1000061,6.1000061
			s2.7000122,6.1000061,6.1000061,6.1000061H265.5V325.1000061z"/>
		<path class="st8" d="M308.2000122,323.5h0.6000061c4.2999878,0,7.7000122,3.3999939,7.7000122,7.7000122
			c0,4.2999878-3.3999939,7.7000122-7.7000122,7.7000122h-0.6000061V323.5z"/>
		<path class="st8" d="M305.7000122,325.1000061h3.1000061c3.3999939,0,6.1000061,2.7000122,6.1000061,6.1000061
			s-2.7000122,6.1000061-6.1000061,6.1000061h-3.1000061V325.1000061z"/>
		<path class="st8" d="M293.2999878,348.2999878v0.6000061c0,4.2999878-3.3999939,7.7000122-7.7000122,7.7000122
			c-4.2999878,0-7.7000122-3.3999939-7.7000122-7.7000122v-0.6000061H293.2999878z"/>
		<path class="st8" d="M291.7000122,345.7999878v3.1000061C291.7000122,352.2999878,289,355,285.6000061,355
			S279.5,352.2999878,279.5,348.8999939v-3.1000061H291.7000122z"/>
		<path class="st8" d="M293.2999878,314.1000061V313.5c0-4.2999878-3.3999939-7.7000122-7.7000122-7.7000122
			c-4.2999878,0-7.7000122,3.3999939-7.7000122,7.7000122v0.6000061H293.2999878z"/>
		<path class="st8" d="M291.7000122,316.5v-3.1000061c0-3.3999939-2.7000122-6.1000061-6.1000061-6.1000061
			S279.5,310,279.5,313.3999939V316.5H291.7000122z"/>
	</g>
	<g>
		<path class="st8" d="M479.4263916,372.2644348l13.8999939,2.7000122l-0.6000061,13l-17.7000122-3.3999939L479.4263916,372.2644348
			z"/>
		<g>
			
				<rect x="470.1149597" y="371.1811523" transform="matrix(0.1892072 -0.9819372 0.9819372 0.1892072 1.7924955 792.1314087)" class="st7" width="20.8992023" height="47.5982018"/>
			<path class="st3" d="M459.5263977,380.7644348l45.7999878,8.7999878l-3.7999878,19.5l-45.7999878-8.7999878
				L459.5263977,380.7644348 M458.7263794,379.5644226l-4.1000061,21.5l47.7999878,9.2000122l4.1000061-21.5
				L458.7263794,379.5644226L458.7263794,379.5644226z"/>
		</g>
		<path class="st10" d="M478.3263855,389.9644165l10.7000122,2.1000061 M477.9263916,387.2644348l12.6000061,2.5
			l-0.7000122,3.7999878l-12.6000061-2.5L477.9263916,387.2644348z"/>
		<path class="st8" d="M472.7263794,386.0644226L472.7263794,386.0644226c0.5,0.1000061,0.8999939,0.6000061,0.7999878,1.1000061
			l-0.2000122,1.2999878c-0.1000061,0.5-0.6000061,0.8999939-1.1000061,0.7999878l0,0
			c-0.5-0.1000061-0.8999939-0.6000061-0.7999878-1.1000061l0.2000122-1.2999878
			C471.7263794,386.3644104,472.2263794,385.9644165,472.7263794,386.0644226z"/>
		<path class="st8" d="M479.1264038,397.8644104c0.2999878-1.7000122,2-2.8999939,3.7999878-2.5
			c1.7000122,0.2999878,2.8999939,2,2.5,3.7999878l-0.6000061,3.2000122l-6.2999878-1.2000122L479.1264038,397.8644104z"/>
		
			<rect x="481.2052307" y="384.2451782" transform="matrix(0.1908054 -0.9816279 0.9816279 0.1908054 -3.7129765 797.4852295)" class="st13" width="1.2999508" height="33.4990463"/>
		<g>
			
				<rect x="479.594574" y="372.3119202" transform="matrix(0.1892072 -0.9819372 0.9819372 0.1892072 21.209341 783.9096069)" class="st7" width="11.3995619" height="13.5994911"/>
			<path class="st3" d="M480.1264038,372.6644287l12.3999939,2.3999939l-2,10.2999878l-12.3999939-2.3999939
				L480.1264038,372.6644287 M479.3263855,371.4644165l-2.3999939,12.2000122l14.2999878,2.7999878l2.3999939-12.2000122
				L479.3263855,371.4644165L479.3263855,371.4644165z"/>
		</g>
		<g>
			
				<rect x="485.8356934" y="365.540802" transform="matrix(0.1894 -0.9819 0.9819 0.1894 28.6690636 779.8092041)" class="st7" width="1.600006" height="13.999999"/>
			<path class="st3" d="M480.2263794,371.0644226l12.7999878,2.5l-0.1000061,0.6000061l-12.7999878-2.5L480.2263794,371.0644226
				 M479.4263916,369.8644104l-0.5,2.5l14.7000122,2.7999878l0.5-2.5L479.4263916,369.8644104L479.4263916,369.8644104z"/>
		</g>
	</g>
	<g id="Sink_2">
		<g id="Rectangle_16_x5F_11_1_">
			<rect x="289.993103" y="89.4000015" class="st7" width="14.6000061" height="23.6999969"/>
			<path class="st3" d="M303.993103,89.9000015v22.6999969h-13.6000061V89.9000015H303.993103 M304.993103,88.9000015h-15.6000061
				v24.6999969h15.6000061V88.9000015L304.993103,88.9000015z"/>
		</g>
		<path id="Rectangle_19_x5F_5" class="st8" d="M297.1931152,109.4000015L297.1931152,109.4000015
			c2.6000061,0,4.7999878-2.0999985,4.7999878-4.8000031v-6.8000031c0-2.5999985-2.1000061-4.8000031-4.7999878-4.8000031l0,0
			c-2.6000061,0-4.7999878,2.0999985-4.7999878,4.8000031v6.8000031
			C292.493103,107.3000031,294.5931091,109.4000015,297.1931152,109.4000015z"/>
		<circle id="Ellipse_7_x5F_2" class="st8" cx="295.0931091" cy="101.2000046" r="1"/>
	</g>
	<g id="Sink_2_1_">
		<g id="Rectangle_16_x5F_11_2_">
			<rect x="289.993103" y="113" class="st7" width="14.6000061" height="23.7000046"/>
			<path class="st3" d="M303.993103,113.5v22.7000122h-13.6000061v-22.7000046L303.993103,113.5 M304.993103,112.5h-15.6000061
				v24.7000122h15.6000061V112.5L304.993103,112.5z"/>
		</g>
		<path id="Rectangle_19_x5F_5_1_" class="st8" d="M297.1931152,133L297.1931152,133
			c2.6000061,0,4.7999878-2.1000061,4.7999878-4.7999878v-6.8000107c0-2.5999985-2.1000061-4.8000031-4.7999878-4.8000031l0,0
			c-2.6000061,0-4.7999878,2.0999985-4.7999878,4.8000031v6.8000107C292.493103,130.7999878,294.5931091,133,297.1931152,133z"/>
		<circle id="Ellipse_7_x5F_2_1_" class="st8" cx="295.0931091" cy="124.8000031" r="1"/>
	</g>
	<g id="Sink_2_4_">
		<g id="Rectangle_16_x5F_11_6_">
			<rect x="268.2000122" y="228" class="st7" width="33" height="14.6000061"/>
			<path class="st3" d="M300.7000122,228.5v13.6000061h-32V228.5H300.7000122 M301.7000122,227.5h-34v15.6000061h34V227.5
				L301.7000122,227.5z"/>
		</g>
		<path id="Rectangle_19_x5F_5_4_" class="st8" d="M292.8999939,235.1999969L292.8999939,235.1999969
			c0-2.6000061-2.1000061-4.8000031-4.7999878-4.8000031h-6.7999878c-2.6000061,0-4.7999878,2.1000061-4.7999878,4.8000031l0,0
			c0,2.6000061,2.1000061,4.8000031,4.7999878,4.8000031h6.7999878
			C290.7999878,240,292.8999939,237.8999939,292.8999939,235.1999969z"/>
		<circle id="Ellipse_7_x5F_2_4_" class="st8" cx="284.7000122" cy="237" r="1"/>
	</g>
	<g id="Sink_2_5_">
		<g id="Rectangle_16_x5F_11_8_">
			<rect x="305.2000122" y="228.1000061" class="st7" width="36.6000061" height="14.6000061"/>
			<path class="st3" d="M341.2000122,228.6000061v13.6000061h-35.6000061v-13.6000061H341.2000122 M342.2000122,227.6000061
				h-37.6000061v15.6000061h37.6000061V227.6000061L342.2000122,227.6000061z"/>
		</g>
		<path id="Rectangle_19_x5F_5_5_" class="st8" d="M331.6000061,235.3000031L331.6000061,235.3000031
			c0-2.6000061-2.1000061-4.8000031-4.7999878-4.8000031H320c-2.6000061,0-4.7999878,2.1000061-4.7999878,4.8000031l0,0
			c0,2.6000061,2.1000061,4.8000031,4.7999878,4.8000031h6.7999878C329.5,240.1000061,331.6000061,238,331.6000061,235.3000031z"/>
		<circle id="Ellipse_7_x5F_2_5_" class="st8" cx="323.3999939" cy="237.1000061" r="1"/>
	</g>
	<g id="Toilet_3_">
		<g id="Rectangle_21_3_">
			<rect x="320.7000122" y="155.1000061" class="st7" width="13.1000061" height="4.1999969"/>
			<path class="st3" d="M333.2000122,155.6000061v3.1999817h-12.1000061v-3.1999817H333.2000122 M334.2000122,154.6000061
				h-14.1000061v5.1999817h14.1000061V154.6000061L334.2000122,154.6000061z"/>
		</g>
		<path id="Rectangle_19_x5F_2_3_" class="st8" d="M332.2000122,145.7000122c0.2000122-2.8999939-2.1000061-5.3999939-5-5.3999939
			l0,0c-2.8999939,0-5.2000122,2.5-5,5.3999939L322.8000183,155h8.7999878L332.2000122,145.7000122z"/>
		<path id="Rectangle_18_x5F_13_3_" class="st8" d="M330.6000061,145.8999939c0.2000122-2-1.3999939-3.7999878-3.3999939-3.7999878
			l0,0c-2,0-3.6000061,1.6999817-3.3999939,3.7999878l0.5,5.5h5.8999939L330.6000061,145.8999939z"/>
		<ellipse id="Ellipse_6_x5F_2_3_" class="st8" cx="327.2000122" cy="148.7999878" rx="1" ry="1"/>
	</g>
	<g id="TV">
		<g id="Rectangle_16">
			<rect x="405.6571655" y="378.144043" class="st7" width="43.5" height="6.7999878"/>
			<path class="st3" d="M448.6571655,378.644043v5.7999878h-42.5v-5.7999878H448.6571655 M449.6571655,377.644043h-44.5v7.7999878
				h44.5V377.644043L449.6571655,377.644043z"/>
		</g>
		<g id="Rectangle_15">
			<rect x="405.6571655" y="379.9440308" class="st7" width="43.5" height="7.7999878"/>
			<path class="st3" d="M448.6571655,380.4440308v6.7999878h-42.5v-6.7999878H448.6571655 M449.6571655,379.4440308h-44.5v8.7999878
				h44.5V379.4440308L449.6571655,379.4440308z"/>
		</g>
		<rect id="Rectangle_17" x="412.6571655" y="384.9440308" class="st8" width="29.6000061" height="1.6000061"/>
		<path id="Rectangle_18_x5F_2" class="st8" d="M421.1571655,386.5440369h12.5l-1.1000061,1.2999878h-10.2000122
			L421.1571655,386.5440369z"/>
	</g>
	<g id="TV_1_">
		<g id="Rectangle_16_1_">
			<rect x="435.2000122" y="149.8981628" class="st7" width="43.5" height="6.8000031"/>
			<path class="st3" d="M478.2000122,150.3981628v5.8000031h-42.5v-5.8000031H478.2000122 M479.2000122,149.3981628h-44.5v7.8000031
				h44.5V149.3981628L479.2000122,149.3981628z"/>
		</g>
		<g id="Rectangle_15_1_">
			<rect x="435.2000122" y="151.6981659" class="st7" width="43.5" height="7.8000031"/>
			<path class="st3" d="M478.2000122,152.1981659v6.8000031h-42.5v-6.8000031H478.2000122 M479.2000122,151.1981659h-44.5v8.8000031
				h44.5V151.1981659L479.2000122,151.1981659z"/>
		</g>
		<rect id="Rectangle_17_1_" x="442.2000122" y="156.2981567" class="st8" width="29.6000061" height="1.6000061"/>
		<path id="Rectangle_18_x5F_2_1_" class="st8" d="M450.7000122,157.8981628h12.5l-1.1000061,1.6999969h-10.2000122
			L450.7000122,157.8981628z"/>
	</g>
	<g id="Rectangle_24_1_">
		<rect x="212.6999969" y="242" class="st7" width="18.1999969" height="58.5"/>
		<path class="st3" d="M230.3999939,242.5V300h-17.1999969v-57.5H230.3999939 M231.3999939,241.5h-19.1999969V301h19.1999969V241.5
			L231.3999939,241.5z"/>
	</g>
	<g id="Rectangle_26">
		<rect x="212.6999969" y="318.7999878" class="st7" width="18.1999969" height="26"/>
		<path class="st3" d="M230.3999939,319.2999878v25h-17.1999969v-25H230.3999939 M231.3999939,318.2999878h-19.1999969v27
			h19.1999969V318.2999878L231.3999939,318.2999878z"/>
	</g>
	<g id="Oven">
		<g id="Rectangle_28">
			<rect x="213.8999939" y="326" class="st7" width="18.8000031" height="16.2000122"/>
			<path class="st3" d="M232.1999969,326.5v15.2000122h-17.8000031V326.5H232.1999969 M233.1999969,325.5h-19.8000031v17.2000122
				h19.8000031V325.5L233.1999969,325.5z"/>
		</g>
		<g id="Rectangle_29">
			<rect x="212.6999969" y="322.7000122" class="st7" width="18.1999969" height="22.7999878"/>
			<path class="st3" d="M230.3999939,323.2000122V345h-17.1999969v-21.7999878H230.3999939 M231.3999939,322.2000122h-19.1999969
				V346h19.1999969V322.2000122L231.3999939,322.2000122z"/>
		</g>
	</g>
	<g id="Rectangle_27">
		<rect x="212.6999969" y="345.7999878" class="st7" width="18.1999969" height="18.2000122"/>
		<path class="st3" d="M230.3999939,346.2999878V363.5h-17.1999969v-17.2000122H230.3999939 M231.3999939,345.2999878h-19.1999969
			V364.5h19.1999969V345.2999878L231.3999939,345.2999878z"/>
	</g>
	<g id="Sink_3_1_">
		<rect id="Rectangle_28_x5F_2_1_" x="214.6000061" y="255.1000061" class="st8" width="14.3999939" height="22.7999878"/>
		<path id="Rectangle_29_x5F_2_1_" class="st8" d="M221.8000031,264L221.8000031,264c3,0,5.3999939,2.3999939,5.3999939,5.3999939
			v1.2000122c0,3-2.3999939,5.3999939-5.3999939,5.3999939l0,0c-3,0-5.3999939-2.3999939-5.3999939-5.3999939v-1.2000122
			C216.3999939,266.3999939,218.8000031,264,221.8000031,264z"/>
		<ellipse id="Ellipse_7_x5F_3_1_" class="st8" cx="219.3999939" cy="270" rx="1" ry="1"/>
		<path id="Vector_2_1_" class="st10" d="M216.3999939,256.2999878v6 M218.1999969,256.2999878v6 M220,256.2999878v6
			 M221.8000031,256.2999878v6 M223.6000061,256.2999878v6 M225.3999939,256.2999878v6 M227.1999969,256.2999878v6"/>
	</g>
	<g id="Stove_1_">
		<g id="Rectangle_25_1_">
			<rect x="212.6999969" y="300.8999939" class="st7" width="18.1999969" height="17.7000122"/>
			<path class="st3" d="M230.3999939,301.3999939v16.7000122h-17.1999969v-16.7000122H230.3999939 M231.3999939,300.3999939
				h-19.1999969v18.7000122h19.1999969V300.3999939L231.3999939,300.3999939z"/>
		</g>
		<g id="Rectangle_28_x5F_3_1_">
			<rect x="212.6999969" y="300.8999939" class="st7" width="1.8000031" height="17.7000122"/>
			<path class="st3" d="M214,301.3999939v16.7000122h-0.8000031v-16.7000122H214 M215,300.3999939h-2.8000031V319H215V300.3999939
				L215,300.3999939z"/>
		</g>
		<g id="Ellipse_7_x5F_4_1_">
			<path class="st7" d="M218.8000031,307.1000061c-1,0-1.8999939-0.8999939-1.8999939-1.8999939
				s0.8999939-1.8999939,1.8999939-1.8999939s1.8999939,0.8999939,1.8999939,1.8999939
				S219.8000031,307.1000061,218.8000031,307.1000061z"/>
			<path class="st3" d="M218.8000031,303.7999878c0.8000031,0,1.3999939,0.6000061,1.3999939,1.3999939
				s-0.6000061,1.3999939-1.3999939,1.3999939c-0.8000031,0-1.3999939-0.6000061-1.3999939-1.3999939
				C217.3999939,304.3999939,218,303.7999878,218.8000031,303.7999878 M218.8000031,302.7999878
				c-1.3000031,0-2.3999939,1.1000061-2.3999939,2.3999939s1.1000061,2.3999939,2.3999939,2.3999939
				s2.3999939-1.1000061,2.3999939-2.3999939S220.1000061,302.7999878,218.8000031,302.7999878L218.8000031,302.7999878z"/>
		</g>
		<g id="Ellipse_9_1_">
			<path class="st7" d="M226,307.7000122c-1.3999939,0-2.5-1.1000061-2.5-2.5s1.1000061-2.5,2.5-2.5s2.5,1.1000061,2.5,2.5
				S227.3999939,307.7000122,226,307.7000122z"/>
			<path class="st3" d="M226,303.2000122c1.1000061,0,2,0.8999939,2,2s-0.8999939,2-2,2s-2-0.8999939-2-2
				S224.8999939,303.2000122,226,303.2000122 M226,302.2000122c-1.6999969,0-3,1.2999878-3,3s1.3000031,3,3,3s3-1.2999878,3-3
				S227.6000061,302.2000122,226,302.2000122L226,302.2000122z"/>
		</g>
		<g id="Ellipse_10_1_">
			<path class="st7" d="M218.8000031,316c-1.3999939,0-2.5-1.1000061-2.5-2.5s1.1000061-2.5,2.5-2.5s2.5,1.1000061,2.5,2.5
				S220.1999969,316,218.8000031,316z"/>
			<path class="st3" d="M218.8000031,311.6000061c1.1000061,0,2,0.8999939,2,2s-0.8999939,2-2,2s-2-0.8999939-2-2
				C216.8000031,312.3999939,217.6999969,311.6000061,218.8000031,311.6000061 M218.8000031,310.6000061
				c-1.6999969,0-3,1.2999878-3,3s1.3000031,3,3,3s3-1.2999878,3-3S220.5,310.6000061,218.8000031,310.6000061
				L218.8000031,310.6000061z"/>
		</g>
		<g id="Ellipse_8_1_">
			<path class="st7" d="M226.6000061,315.3999939c-1,0-1.8999939-0.8999939-1.8999939-1.8999939
				s0.8999939-1.8999939,1.8999939-1.8999939S228.5,312.5,228.5,313.5
				C228.5,314.6000061,227.6000061,315.3999939,226.6000061,315.3999939z"/>
			<path class="st3" d="M226.6000061,312.2000122c0.8000031,0,1.3999939,0.6000061,1.3999939,1.3999939
				S227.3999939,315,226.6000061,315c-0.8000031,0-1.3999939-0.6000061-1.3999939-1.3999939
				C225.1999969,312.7999878,225.8000031,312.2000122,226.6000061,312.2000122 M226.6000061,311.2000122
				c-1.3000031,0-2.3999939,1.1000061-2.3999939,2.3999939S225.3000183,316,226.6000061,316
				C227.9000092,316,229,314.8999939,229,313.6000061C229,312.2000122,227.8999939,311.2000122,226.6000061,311.2000122
				L226.6000061,311.2000122z"/>
		</g>
	</g>
	<path id="Vector_3_1_" class="st10" d="M221.8000031,352.5v4.7999878 M223.8999939,353.7000122l-4.1999969,2.3999939
		 M219.6999969,353.7000122l4.1999969,2.3999939"/>
	<g>
		<path class="st8" d="M321.3999939,360.7999878c-0.7999878,0-1.5,0.7000122-1.5,1.5v15h34.2999878v-16.5H321.3999939z"/>
		<path class="st8" d="M339.2000122,334.2000122c-0.7999878,0-1.5,0.7000122-1.5,1.6000061v23.5
			c0,0.8999939,0.7000122,1.6000061,1.5,1.6000061h15.1000061v-26.6000061h-15.1000061V334.2000122z"/>
		<path class="st8" d="M339.2000122,308.6000061c-0.7999878,0-1.5,0.7000122-1.5,1.5v22.6000061c0,0.7999878,0.7000122,1.5,1.5,1.5
			h15.1000061v-25.6000061H339.2000122z"/>
		<path class="st8" d="M336.3999939,308.6000061V303h23.7000122v80.3999939H314v-23.7999878h5.8999939v17.7000122h34.2999878
			v-68.6999817L336.3999939,308.6000061L336.3999939,308.6000061z"/>
	</g>
	<g>
		<path class="st8" d="M464.8999939,249.1999969h12.7000122l1.7000122,11.5000153h-16.1000061L464.8999939,249.1999969z"/>
		<g>
			<rect x="452.7000122" y="259.7000122" class="st7" width="38.2000122" height="18.6000061"/>
			<path class="st3" d="M490.5,260.2000122v17.6000061h-37.2000122v-17.6000061H490.5 M491.5,259.2000122h-39.2000122v19.6000061
				H491.5V259.2000122L491.5,259.2000122z"/>
		</g>
		<path class="st10" d="M467,265h9.7999878 M466.1000061,262.7000122h11.5v3.5h-11.5V262.7000122z"/>
		<path class="st8" d="M461.2999878,262.5L461.2999878,262.5c0.5,0,0.8999939,0.3999939,0.8999939,0.8999939v1.2000122
			c0,0.5-0.3999939,0.8999939-0.8999939,0.8999939l0,0c-0.5,0-0.8999939-0.3999939-0.8999939-0.8999939v-1.2000122
			C460.5,262.8999939,460.8999939,262.5,461.2999878,262.5z"/>
		<path class="st8" d="M469,271.7000122c0-1.6000061,1.2999878-2.8999939,2.8999939-2.8999939
			s2.8999939,1.2999878,2.8999939,2.8999939v2.8999939H469V271.7000122z"/>
		
			<rect x="471.2061768" y="258.9936218" transform="matrix(0.0016959 -0.9999986 0.9999986 0.0016959 197.0628204 745.2845459)" class="st14" width="1.2000139" height="29.9000378"/>
		<g>
			<rect x="465.1000061" y="249.1000061" class="st7" width="12.1000061" height="10.1000061"/>
			<path class="st3" d="M476.7000122,249.6000061v9.1000061h-11.1000061v-9.1000061H476.7000122 M477.7000122,248.6000061
				h-13.1000061v11.1000061h13.1000061V248.6000061L477.7000122,248.6000061z"/>
		</g>
		<g>
			<rect x="464.8999939" y="247.1999969" class="st7" width="12.6000061" height="1.8000031"/>
			<path class="st3" d="M477,247.6999969V248.5h-11.6000061v-0.8000031H477 M478,246.6999969h-13.6000061V249.5H478V246.6999969
				L478,246.6999969z"/>
		</g>
	</g>
	<g>
		<rect x="298.6000061" y="159.2999878" class="st7" width="47.6687126" height="6.1999969"/>
		<path class="st3" d="M345.6687012,159.7999878V165H299v-5.2000122H345.6687012 M346.6687012,158.7999878H298V166h48.6687012
			V158.7999878L346.6687012,158.7999878z"/>
	</g>
	<g>
		<rect x="305.3143311" y="169.3999939" class="st7" width="32.2999878" height="6.1999969"/>
		<path class="st3" d="M337.1143188,169.8999939v5.1999969h-31.2999878v-5.1999969H337.1143188 M338.1143188,168.8999939
			h-33.2999878v7.1999969h33.2999878V168.8999939L338.1143188,168.8999939z"/>
	</g>
	<g id="Toilet_5_">
		<g id="Rectangle_21_7_">
			<rect x="278.7541809" y="179.7258759" class="st7" width="13.1000061" height="4.1999969"/>
			<path class="st3" d="M291.354187,180.2258759v3.1999969h-12.1000061v-3.1999969H291.354187 M292.354187,179.2258759h-14.1000061
				v5.1999969h14.1000061V179.2258759L292.354187,179.2258759z"/>
		</g>
		<path id="Rectangle_19_x5F_2_5_" class="st8" d="M290.2541809,193.3258667c0.2000122,2.8999939-2.1000061,5.3999939-5,5.3999939
			l0,0c-2.8999939,0-5.2000122-2.5-5-5.3999939l0.6000061-9.3000031h8.7999878L290.2541809,193.3258667z"/>
		<path id="Rectangle_18_x5F_13_5_" class="st8" d="M288.7541809,193.2258759c0.2000122,2-1.3999939,3.8000031-3.5,3.8000031l0,0
			c-2,0-3.7000122-1.8000031-3.5-3.8000031l0.5-5.5h5.8999939L288.7541809,193.2258759z"/>
		<ellipse id="Ellipse_6_x5F_2_5_" class="st8" cx="285.2541809" cy="190.2258759" rx="1" ry="1"/>
	</g>
	<g id="Toilet_4_">
		<g id="Rectangle_21_4_">
			<rect x="314.714325" y="175.6000061" class="st7" width="13.1000061" height="4.1999969"/>
			<path class="st3" d="M327.3143311,176.1000061v3.1999969H315.214325v-3.1999969H327.3143311 M328.3143311,175.1000061H314.214325
				v5.1999969h14.1000061V175.1000061L328.3143311,175.1000061z"/>
		</g>
		<path id="Rectangle_19_x5F_2_4_" class="st8" d="M326.214325,189.1999969c0.2000122,2.8999939-2.1000061,5.3999939-5,5.3999939
			l0,0c-2.8999939,0-5.2000122-2.5-5-5.3999939l0.6000061-9.3000031h8.7999878L326.214325,189.1999969z"/>
		<path id="Rectangle_18_x5F_13_4_" class="st8" d="M324.714325,189.1000061c0.2000122,2-1.3999939,3.8000031-3.5,3.8000031l0,0
			c-2,0-3.7000122-1.8000031-3.5-3.8000031l0.5-5.5h5.8999939L324.714325,189.1000061z"/>
		<ellipse id="Ellipse_6_x5F_2_4_" class="st8" cx="321.214325" cy="186.1000061" rx="1" ry="1"/>
	</g>
	<g>
		<rect x="283.7854309" y="169.4155884" class="st7" width="17.5687294" height="10.3000031"/>
		<path class="st3" d="M300.854187,169.9155884v9.3000031h-16.5687256v-9.3000031H300.854187 M301.854187,168.9155884h-18.5687256
			v11.3000031h18.5687256V168.9155884L301.854187,168.9155884z"/>
	</g>
</g>
<g id="Numbers">
	<g>
		<path class="st6" d="M244.6999969,365.6000061l-1.6000061,1.7999878h2.6999969v1h-4.1999969V367.5l2.1000061-2.2999878
			l0.5-0.6000061c0.1000061-0.1000061,0.1999969-0.2999878,0.3000031-0.5s0.1000061-0.3999939,0.1000061-0.6000061
			c0-0.2999878-0.1000061-0.5-0.3000031-0.7000122S243.8000031,362.5,243.5,362.5c-0.5,0-1,0.2000122-1.6000061,0.7000122
			L241.2999878,362.5c0.6999969-0.6000061,1.3999939-1,2.1999969-1c0.6000061,0,1.1000061,0.2000122,1.5,0.6000061
			S245.5999908,363,245.5999908,363.5C245.6999969,364.1000061,245.3999939,364.7999878,244.6999969,365.6000061z"/>
		<path class="st6" d="M248.5,368.3999939c-0.6999969,0-1.3999939-0.2000122-2.1000061-0.7000122l0.5-0.7999878
			c0.6000061,0.3999939,1.1000061,0.5,1.6000061,0.5c0.3999939,0,0.6999969-0.1000061,0.8999939-0.2999878
			c0.1999969-0.2000122,0.3000031-0.3999939,0.3000031-0.7999878c0-0.2999878-0.1000061-0.6000061-0.3999939-0.7999878
			c-0.1999969-0.2000122-0.5-0.2999878-0.8999939-0.2999878h-0.8000031v-0.8999939h0.8000031
			c0.3000031,0,0.6000061-0.1000061,0.8000031-0.2999878c0.1999969-0.2000122,0.3000031-0.3999939,0.3000031-0.7000122
			c0-0.2999878-0.1000061-0.5-0.3000031-0.7000122s-0.5-0.2999878-0.8000031-0.2999878
			c-0.3999939,0-0.8999939,0.2000122-1.3999939,0.6000061l-0.5-0.7000122
			c0.1999969-0.2000122,0.6000061-0.3999939,0.8999939-0.6000061c0.3999939-0.1000061,0.6999969-0.2000122,1.1000061-0.2000122
			c0.6000061,0,1.1000061,0.2000122,1.5,0.5s0.6000061,0.7999878,0.6000061,1.2000122
			c0,0.3999939-0.1000061,0.7000122-0.3000031,0.8999939c-0.1999969,0.2999878-0.5,0.5-0.8000031,0.6000061l0,0
			c0.3999939,0.1000061,0.6999969,0.2999878,1,0.6000061c0.1999969,0.2999878,0.3000031,0.6000061,0.3000031,1.1000061
			c0,0.6000061-0.1999969,1-0.6000061,1.3999939C249.6999969,368.2000122,249.1999969,368.3999939,248.5,368.3999939z"/>
		<path class="st6" d="M252.3000031,368.3999939c-0.1999969,0-0.3000031-0.1000061-0.5-0.2000122
			c-0.1000061-0.1000061-0.1999969-0.2999878-0.1999969-0.5s0.1000061-0.2999878,0.1999969-0.3999939
			c0.1000061-0.1000061,0.3000031-0.2000122,0.5-0.2000122s0.3000031,0.1000061,0.3999939,0.2000122
			c0.1000061,0.1000061,0.1999969,0.2999878,0.1999969,0.3999939c0,0.2000122-0.1000061,0.2999878-0.1999969,0.5
			C252.6999969,368.3999939,252.5,368.3999939,252.3000031,368.3999939z"/>
		<path class="st6" d="M257.7000122,365.7999878h0.7000122v0.8999939h-0.7000122v1.6000061h-1v-1.6000061h-3l-0.1999969-0.6000061
			l3.5999908-4.3999939h0.7000122v4.1000061H257.7000122z M256.7999878,363.3999939l-2,2.3999939h2V363.3999939z"/>
	</g>
	<g>
		<path class="st6" d="M394.7999878,330.3999939l1.8999939-1.6000061h0.7999878V335.5h-1v-5.2999878l-1.2000122,0.8999939
			L394.7999878,330.3999939z"/>
		<path class="st6" d="M401.5,331.1000061c0.6000061,0,1.1000061,0.2000122,1.5,0.6000061s0.6000061,0.8999939,0.6000061,1.5
			s-0.2000122,1.2000122-0.7000122,1.6000061c-0.3999939,0.3999939-1,0.6000061-1.7000122,0.6000061
			c-0.7999878,0-1.3999939-0.2999878-1.7999878-0.8999939s-0.6000061-1.3999939-0.6000061-2.2999878
			c0-0.6000061,0.1000061-1.2000122,0.2999878-1.7999878s0.5-1,0.8999939-1.2999878c0.3999939-0.3999939,1-0.5,1.6000061-0.5
			c0.7000122,0,1.2999878,0.2000122,1.7000122,0.6000061l-0.3999939,0.7999878
			c-0.3999939-0.2999878-0.7999878-0.3999939-1.2000122-0.3999939c-0.3999939,0-0.7000122,0.1000061-1,0.3999939
			c-0.5,0.5-0.7999878,1.2000122-0.7999878,2.1000061c0.2000122-0.2999878,0.3999939-0.5,0.7000122-0.7000122
			S401.1000061,331.1000061,401.5,331.1000061z M401.2999878,334.6000061c0.3999939,0,0.7000122-0.1000061,0.8999939-0.3999939
			c0.2000122-0.2999878,0.3999939-0.6000061,0.3999939-0.8999939c0-0.3999939-0.1000061-0.7000122-0.3999939-0.8999939
			c-0.2000122-0.2000122-0.5-0.3999939-0.8999939-0.3999939s-0.7000122,0.1000061-0.8999939,0.3999939
			C400.1999817,332.6000366,400,333.0000305,400,333.3000183c0,0.3999939,0.1000061,0.7000122,0.3999939,0.8999939
			C400.6000061,334.3999939,400.8999939,334.6000061,401.2999878,334.6000061z"/>
		<path class="st6" d="M405,335.5c-0.2000122,0-0.2999878-0.1000061-0.5-0.2000122
			c-0.1000061-0.1000061-0.2000122-0.2999878-0.2000122-0.5S404.3999939,334.5,404.5,334.3999939s0.2999878-0.2000122,0.5-0.2000122
			s0.2999878,0.1000061,0.3999939,0.2000122s0.2000122,0.2999878,0.2000122,0.3999939
			c0,0.2000122-0.1000061,0.2999878-0.2000122,0.5S405.2000122,335.5,405,335.5z"/>
		<path class="st6" d="M409,331.1000061c0.6000061,0,1.1000061,0.2000122,1.5,0.6000061s0.6000061,0.8999939,0.6000061,1.5
			s-0.2000122,1.2000122-0.7000122,1.6000061c-0.3999939,0.3999939-1,0.6000061-1.7000122,0.6000061
			c-0.7999878,0-1.3999939-0.2999878-1.7999878-0.8999939s-0.6000061-1.3999939-0.6000061-2.2999878
			c0-0.6000061,0.1000061-1.2000122,0.2999878-1.7999878c0.2000122-0.5,0.5-1,0.8999939-1.2999878
			c0.3999939-0.3999939,1-0.5,1.6000061-0.5c0.7000122,0,1.2999878,0.2000122,1.7000122,0.6000061l-0.3999939,0.7999878
			c-0.3999939-0.2999878-0.7999878-0.3999939-1.2000122-0.3999939c-0.3999939,0-0.7000122,0.1000061-1,0.3999939
			c-0.5,0.5-0.7999878,1.2000122-0.7999878,2.1000061c0.1000061-0.2999878,0.3999939-0.5,0.7000122-0.7000122
			S408.6000061,331.1000061,409,331.1000061z M408.7999878,334.6000061c0.3999939,0,0.7000122-0.1000061,0.8999939-0.3999939
			c0.2000122-0.2999878,0.3999939-0.6000061,0.3999939-0.8999939c0-0.3999939-0.1000061-0.7000122-0.3999939-0.8999939
			c-0.2000122-0.2000122-0.5-0.3999939-0.8999939-0.3999939s-0.7000122,0.1000061-0.8999939,0.3999939
			C407.6999817,332.6000366,407.5,333.0000305,407.5,333.3000183c0,0.3999939,0.1000061,0.7000122,0.3999939,0.8999939
			C408.2000122,334.3999939,408.5,334.6000061,408.7999878,334.6000061z"/>
	</g>
	<g>
		<path class="st6" d="M429.7000122,226.3999939l1.8999939-1.6000061h0.7999878v6.6999969h-1v-5.3000031l-1.2000122,0.8999939
			L429.7000122,226.3999939z"/>
		<path class="st6" d="M433.2999878,226.3999939l1.8999939-1.6000061h0.7999878v6.6999969h-1v-5.3000031l-1.2000122,0.8999939
			L433.2999878,226.3999939z"/>
		<path class="st6" d="M437.8999939,231.5c-0.2000122,0-0.2999878-0.1000061-0.5-0.1999969
			c-0.1000061-0.1000061-0.2000122-0.3000031-0.2000122-0.5s0.1000061-0.3000031,0.2000122-0.3999939
			c0.1000061-0.1000061,0.2999878-0.1999969,0.5-0.1999969s0.2999878,0.1000061,0.3999939,0.1999969
			c0.1000061,0.1000061,0.2000122,0.3000031,0.2000122,0.3999939c0,0.1999969-0.1000061,0.3000031-0.2000122,0.5
			C438.2000122,231.5,438.1000061,231.5,437.8999939,231.5z"/>
		<path class="st6" d="M443.2999878,228.8999939H444v0.8999939h-0.7000122v1.6000061h-1v-1.6000061h-3l-0.2000122-0.6000061
			l3.6000061-4.3999939h0.7000122v4.1000061H443.2999878z M442.2999878,226.5l-2,2.3999939h2V226.5z"/>
	</g>
	<g>
		<path class="st6" d="M390.2999878,111.8000031l1.8999939-1.5999985h0.7999878v6.6999969h-1v-5.3000031L390.7999573,112.5
			L390.2999878,111.8000031z"/>
		<path class="st6" d="M398.2000122,114.3000031h0.7000122v0.9000015h-0.7000122v1.5999985h-1v-1.5999985h-3L394,114.6000061
			l3.6000061-4.4000015h0.7000122v4.0999985H398.2000122z M397.2000122,111.9000015l-2,2.4000015h2V111.9000015z"/>
		<path class="st6" d="M400.2999878,116.9000015c-0.2000122,0-0.2999878-0.0999985-0.5-0.1999969
			c-0.1000061-0.0999985-0.2000122-0.3000031-0.2000122-0.5s0.1000061-0.3000031,0.2000122-0.4000015
			s0.2999878-0.1999969,0.5-0.1999969s0.2999878,0.0999985,0.3999939,0.1999969s0.2000122,0.3000031,0.2000122,0.4000015
			c0,0.1999969-0.1000061,0.3000031-0.2000122,0.5C400.7000122,116.9000015,400.5,116.9000015,400.2999878,116.9000015z"/>
		<path class="st6" d="M404.2999878,112.5c0.6000061,0,1.1000061,0.1999969,1.5,0.5999985s0.6000061,0.9000015,0.6000061,1.5
			s-0.2000122,1.1999969-0.7000122,1.5999985c-0.3999939,0.4000015-1,0.5999985-1.7000122,0.5999985
			c-0.7999878,0-1.3999939-0.3000031-1.7999878-0.9000015s-0.6000061-1.4000015-0.6000061-2.3000031
			c0-0.5999985,0.1000061-1.1999969,0.2999878-1.8000031c0.2000122-0.5,0.5-1,0.8999939-1.3000031
			c0.3999939-0.4000015,1-0.5,1.6000061-0.5c0.7000122,0,1.2999878,0.1999969,1.7000122,0.5999985l-0.3999939,0.8000031
			c-0.3999939-0.3000031-0.7999878-0.4000015-1.2000122-0.4000015c-0.3999939,0-0.7000122,0.0999985-1,0.4000015
			c-0.5,0.5-0.7999878,1.1999969-0.7999878,2.0999985c0.1000061-0.3000031,0.3999939-0.5,0.7000122-0.6999969
			S403.8999939,112.5,404.2999878,112.5z M404.1000061,116C404.5,116,404.8000183,115.9000015,405,115.5999985
			c0.2000122-0.3000031,0.3999939-0.5999985,0.3999939-0.9000015c0-0.4000015-0.1000061-0.6999969-0.3999939-0.9000015
			c-0.2000122-0.1999969-0.5-0.4000015-0.8999939-0.4000015s-0.7000122,0.0999985-0.8999939,0.4000015
			c-0.2000122,0.1999969-0.3999939,0.5999985-0.3999939,0.9000015c0,0.4000015,0.1000061,0.6999969,0.3999939,0.9000015
			S403.7999878,116,404.1000061,116z"/>
	</g>
	<g>
		<path class="st6" d="M319,128c0.6000061,0,1.2000122,0.1999969,1.6000061,0.6000061
			C321,129,321.2000122,129.5,321.2000122,130.2000122c0,0.6999969-0.2000122,1.1999969-0.7000122,1.6000061
			c-0.3999939,0.3999939-1,0.6000061-1.7000122,0.6000061c-0.7999878,0-1.5-0.3000031-2.2000122-0.8000031l0.5-0.8000031
			c0.6000061,0.3999939,1.1000061,0.6000061,1.7000122,0.6000061c0.3999939,0,0.7000122-0.1000061,1-0.3999939
			c0.2999878-0.1999969,0.3999939-0.5,0.3999939-0.8999939s-0.1000061-0.6999969-0.3999939-0.8999939
			c-0.2000122-0.1999969-0.6000061-0.3999939-1-0.3999939c-0.5,0-0.8999939,0.1999969-1.2000122,0.5L317,129l0.3999939-3.3000031
			h3.3999939v0.9000015h-2.6000061l-0.2000122,1.5999985C318.2999878,128,318.6000061,128,319,128z"/>
		<path class="st6" d="M322.6000061,132.3999939c-0.2000122,0-0.2999878-0.1000061-0.5-0.1999969
			c-0.1000061-0.1000061-0.2000122-0.3000031-0.2000122-0.5s0.1000061-0.3000031,0.2000122-0.3999939
			c0.1000061-0.1000061,0.2999878-0.1999969,0.5-0.1999969s0.2999878,0.1000061,0.3999939,0.1999969
			c0.1000061,0.1000061,0.2000122,0.3000031,0.2000122,0.3999939c0,0.1999969-0.1000061,0.3000031-0.2000122,0.5
			C323,132.3999939,322.7999878,132.3999939,322.6000061,132.3999939z"/>
		<path class="st6" d="M323.7000122,126.5999985v-0.9000015h4.2000122v0.6999969l-2.5,6h-1.1000061l2.5-5.6999969h-3.1000061
			V126.5999985z"/>
	</g>
	<g>
		<path class="st6" d="M328.3999939,202.8000031h0.7000122v0.8999939h-0.7000122v1.6000061h-1v-1.6000061h-3l-0.2000122-0.6000061
			l3.6000061-4.3999939H328.5v4.1000061H328.3999939z M327.3999939,200.3999939l-2,2.3999939h2V200.3999939z"/>
	</g>
	<g>
		<path class="st6" d="M282.1000061,208.8000031L280.5,210.6000061h2.7000122v1H279v-0.8999939l2.1000061-2.3000031l0.5-0.6000061
			c0.1000061-0.1000061,0.2000122-0.3000031,0.2999878-0.5S282,206.9000092,282,206.6999969
			c0-0.3000031-0.1000061-0.5-0.2999878-0.6999969c-0.2000122-0.1999969-0.5-0.3000031-0.7999878-0.3000031
			c-0.5,0-1,0.1999969-1.6000061,0.6999969l-0.6000061-0.6999969c0.7000122-0.6000061,1.3999939-1,2.2000122-1
			c0.6000061,0,1.1000061,0.1999969,1.5,0.6000061c0.3999939,0.3999939,0.6000061,0.8999939,0.6000061,1.3999939
			C283.2000122,207.3000031,282.7999878,208,282.1000061,208.8000031z"/>
		<path class="st6" d="M284.7999878,211.6000061c-0.2000122,0-0.2999878-0.1000061-0.5-0.1999969
			c-0.1000061-0.1000061-0.2000122-0.3000031-0.2000122-0.5s0.1000061-0.3000031,0.2000122-0.3999939
			c0.1000061-0.1000061,0.2999878-0.1999969,0.5-0.1999969s0.2999878,0.1000061,0.3999939,0.1999969
			c0.1000061,0.1000061,0.2000122,0.3000031,0.2000122,0.3999939c0,0.1999969-0.1000061,0.3000031-0.2000122,0.5
			C285.1000061,211.6000061,284.8999939,211.6000061,284.7999878,211.6000061z"/>
		<path class="st6" d="M289.3999939,208.8000031l-1.6000061,1.8000031H290.5v1h-4.2000122v-0.8999939l2.1000061-2.3000031
			l0.5-0.6000061c0.1000061-0.1000061,0.2000122-0.3000031,0.2999878-0.5s0.1000061-0.3999939,0.1000061-0.6000061
			c0-0.3000031-0.1000061-0.5-0.2999878-0.6999969c-0.2000122-0.1999969-0.5-0.3000031-0.7999878-0.3000031
			c-0.5,0-1,0.1999969-1.6000061,0.6999969L286,205.6999969c0.7000122-0.6000061,1.3999939-1,2.2000122-1
			c0.6000061,0,1.1000061,0.1999969,1.5,0.6000061c0.3999939,0.3999939,0.6000061,0.8999939,0.6000061,1.3999939
			C290.3999939,207.3000031,290,208,289.3999939,208.8000031z"/>
	</g>
	<g>
		<path class="st6" d="M241.8999939,194.1000061c-0.6999969,0-1.3999939-0.1999969-2.1000061-0.6999969l0.5-0.8000031
			c0.6000061,0.3999939,1.1000061,0.5,1.6000061,0.5c0.3999939,0,0.6999969-0.1000061,0.8999939-0.3000031
			s0.3000031-0.3999939,0.3000031-0.8000031c0-0.3000031-0.1000061-0.6000061-0.3999939-0.8000031
			c-0.1999969-0.1999969-0.5-0.3000031-0.8999939-0.3000031H241V190h0.8000031c0.3000031,0,0.6000061-0.1000061,0.8000031-0.3000031
			s0.3000031-0.3999939,0.3000031-0.6999969s-0.1000061-0.5-0.3000031-0.6999969S242.1000061,188,241.8000031,188
			c-0.3999939,0-0.8999939,0.1999969-1.3999939,0.6000061L240,188c0.1999969-0.1999969,0.6000061-0.3999939,0.8999939-0.6000061
			c0.3999939-0.1000061,0.6999969-0.1999969,1.1000061-0.1999969c0.6000061,0,1.1000061,0.1999969,1.5,0.5
			s0.6000061,0.8000031,0.6000061,1.1999969S244,189.5999908,243.8000031,189.7999878
			c-0.1999969,0.3000031-0.5,0.5-0.8000031,0.6000061l0,0C243.3999939,190.5,243.6999969,190.6999969,244,191
			c0.1999969,0.3000031,0.3000031,0.6000061,0.3000031,1.1000061c0,0.6000061-0.1999969,1-0.6000061,1.3999939
			C243.1000061,193.8999939,242.6000061,194.1000061,241.8999939,194.1000061z"/>
		<path class="st6" d="M245.6999969,194.1000061c-0.1999969,0-0.3000031-0.1000061-0.5-0.1999969
			c-0.1000061-0.1000061-0.1999969-0.3000031-0.1999969-0.5s0.1000061-0.3000031,0.1999969-0.3999939
			c0.1000061-0.1000061,0.3000031-0.1999969,0.5-0.1999969s0.3000031,0.1000061,0.3999939,0.1999969
			c0.1000061,0.1000061,0.1999969,0.3000031,0.1999969,0.3999939c0,0.1999969-0.1000061,0.3000031-0.1999969,0.5
			C246.1000061,194,245.8999939,194.1000061,245.6999969,194.1000061z"/>
		<path class="st6" d="M249.5,187.1999969c0.8000031,0,1.3999939,0.3000031,1.8000031,0.8999939
			c0.3999939,0.6000061,0.6000061,1.3999939,0.6000061,2.3000031c0,0.5-0.1000061,1-0.1999969,1.3999939
			s-0.3000031,0.8000031-0.5,1.1999969c-0.1999969,0.3000031-0.5,0.6000061-0.8999939,0.8000031
			s-0.8000031,0.3000031-1.1999969,0.3000031c-0.6999969,0-1.3000031-0.1999969-1.8000031-0.6000061l0.3999939-0.8000031
			c0.3999939,0.3000031,0.8999939,0.5,1.3000031,0.5c0.6000061,0,1-0.1999969,1.3000031-0.6999969s0.5-1,0.5-1.6999969
			c-0.1999969,0.3000031-0.3999939,0.5-0.6999969,0.6000061s-0.6000061,0.1999969-1,0.1999969
			c-0.6000061,0-1.1000061-0.1999969-1.5-0.6000061c-0.3999939-0.3999939-0.6000061-0.8999939-0.6000061-1.5
			s0.1999969-1.1999969,0.6000061-1.6000061C248.1999969,187.3999939,248.8000031,187.1999969,249.5,187.1999969z
			 M250.6999969,189.3999939c0-0.3999939-0.1000061-0.6999969-0.3999939-0.8999939
			c-0.1999969-0.3000031-0.5-0.3999939-0.8999939-0.3999939s-0.6999969,0.1000061-0.8999939,0.3999939
			c-0.1999969,0.3000031-0.3999939,0.6000061-0.3999939,0.8999939c0,0.3999939,0.1000061,0.6999969,0.3999939,0.8999939
			c0.1999969,0.1999969,0.5,0.3999939,0.8999939,0.3999939s0.6999969-0.1000061,0.8999939-0.3999939
			C250.6000061,190.1000061,250.6999969,189.8000031,250.6999969,189.3999939z"/>
	</g>
	<g>
		<path class="st6" d="M371,262.6000061c-0.7000122,0-1.3999939-0.2000122-2.1000061-0.7000122l0.5-0.7999878
			C370,261.5,370.5,261.6000061,371,261.6000061c0.3999939,0,0.7000122-0.1000061,0.8999939-0.2999878
			c0.2000122-0.2000122,0.2999878-0.3999939,0.2999878-0.7999878c0-0.2999878-0.1000061-0.6000061-0.3999939-0.7999878
			c-0.2000122-0.2000122-0.5-0.2999878-0.8999939-0.2999878h-0.7999878v-0.8999939h0.7999878
			c0.2999878,0,0.6000061-0.1000061,0.7999878-0.2999878c0.2000122-0.2000122,0.2999878-0.3999939,0.2999878-0.7000122
			c0-0.2999878-0.1000061-0.5-0.2999878-0.7000122s-0.5-0.2999878-0.7999878-0.2999878
			C370.5,256.500061,370,256.7000732,369.5,257.1000671l-0.5-0.7000122
			c0.2000122-0.2000122,0.6000061-0.3999939,0.8999939-0.6000061c0.3999939-0.1000061,0.7000122-0.1999969,1.1000061-0.1999969
			c0.6000061,0,1.1000061,0.1999969,1.5,0.4999847s0.6000061,0.7999878,0.6000061,1.2000122
			c0,0.3999939-0.1000061,0.7000122-0.2999878,0.8999939c-0.2000122,0.2999878-0.5,0.5-0.7999878,0.6000061l0,0
			c0.3999939,0.1000061,0.7000122,0.2999878,1,0.6000061c0.2000122,0.2999878,0.2999878,0.6000061,0.2999878,1.1000061
			c0,0.6000061-0.2000122,1-0.6000061,1.3999939C372.2000122,262.3999939,371.6000061,262.6000061,371,262.6000061z"/>
		<path class="st6" d="M374.7999878,262.7000122c-0.2000122,0-0.2999878-0.1000061-0.5-0.2000122
			s-0.2000122-0.2999878-0.2000122-0.5s0.1000061-0.2999878,0.2000122-0.3999939s0.2999878-0.2000122,0.5-0.2000122
			s0.2999878,0.1000061,0.3999939,0.2000122s0.2000122,0.2999878,0.2000122,0.3999939
			c0,0.2000122-0.1000061,0.2999878-0.2000122,0.5S375,262.7000122,374.7999878,262.7000122z"/>
		<path class="st6" d="M378.7000122,262.6000061c-0.7000122,0-1.2999878-0.2000122-1.7000122-0.5
			c-0.3999939-0.3999939-0.7000122-0.7999878-0.7000122-1.3999939c0-0.3999939,0.1000061-0.7000122,0.3999939-1
			c0.2000122-0.2999878,0.5-0.5,0.8999939-0.7000122l0,0c-0.2999878-0.1000061-0.6000061-0.3999939-0.7000122-0.6000061
			c-0.2000122-0.2999878-0.2999878-0.5-0.2999878-0.8999939c0-0.5,0.2000122-0.8999939,0.6000061-1.2999878
			c0.3999939-0.3000031,0.8999939-0.5,1.5-0.5s1.1000061,0.1999969,1.5,0.5C380.5999756,256.5,380.7999878,257,380.7999878,257.5
			c0,0.2999878-0.1000061,0.6000061-0.2999878,0.8999939c-0.2000122,0.2999878-0.3999939,0.5-0.7000122,0.6000061l0,0
			c0.3999939,0.1000061,0.7000122,0.3999939,0.8999939,0.7000122c0.2000122,0.2999878,0.3999939,0.7000122,0.3999939,1
			c0,0.6000061-0.2000122,1-0.7000122,1.3999939C380,262.3999939,379.3999939,262.6000061,378.7000122,262.6000061z
			 M378.7000122,261.7000122c0.3999939,0,0.7000122-0.1000061,1-0.2999878s0.3999939-0.5,0.3999939-0.7999878
			S380,260.0000305,379.7000122,259.8000488c-0.2999878-0.2000122-0.6000061-0.2999878-1-0.2999878
			s-0.7000122,0.1000061-1,0.2999878c-0.2999878,0.2000122-0.3999939,0.5-0.3999939,0.7999878
			s0.1000061,0.6000061,0.3999939,0.7999878S378.2999878,261.7000122,378.7000122,261.7000122z M379.5,258.2999878
			c0.2000122-0.2000122,0.2999878-0.3999939,0.2999878-0.7000122s-0.1000061-0.5-0.2999878-0.7000122
			c-0.2000122-0.2000122-0.5-0.2999878-0.7999878-0.2999878s-0.6000061,0.1000061-0.7999878,0.2999878
			c-0.2000122,0.2000122-0.2999878,0.3999939-0.2999878,0.7000122s0.1000061,0.5,0.2999878,0.7000122
			c0.2000122,0.2000122,0.5,0.2999878,0.7999878,0.2999878S379.2999878,258.5,379.5,258.2999878z"/>
	</g>
</g>
<g id="street_anchors" class="st15">
	<rect id="street_anchor_02" x="552.5999756" y="235" class="st16" width="10" height="10"/>
	<rect id="street_anchor_01_1_" x="355" y="450" class="st16" width="10" height="10"/>
</g>
</svg>
