<?xml version="1.0" encoding="utf-8"?>
<!-- Generator: Adobe Illustrator 24.2.0, SVG Export Plug-In . SVG Version: 6.00 Build 0)  -->
<!DOCTYPE svg PUBLIC "-//W3C//DTD SVG 1.1//EN" "http://www.w3.org/Graphics/SVG/1.1/DTD/svg11.dtd" [
	<!ENTITY ns_extend "http://ns.adobe.com/Extensibility/1.0/">
	<!ENTITY ns_ai "http://ns.adobe.com/AdobeIllustrator/10.0/">
	<!ENTITY ns_graphs "http://ns.adobe.com/Graphs/1.0/">
	<!ENTITY ns_vars "http://ns.adobe.com/Variables/1.0/">
	<!ENTITY ns_imrep "http://ns.adobe.com/ImageReplacement/1.0/">
	<!ENTITY ns_sfw "http://ns.adobe.com/SaveForWeb/1.0/">
	<!ENTITY ns_custom "http://ns.adobe.com/GenericCustomNamespace/1.0/">
	<!ENTITY ns_adobe_xpath "http://ns.adobe.com/XPath/1.0/">
]>
<svg version="1.1" id="_x31__x5F_2" xmlns:x="&ns_extend;" xmlns:i="&ns_ai;" xmlns:graph="&ns_graphs;"
	 xmlns="http://www.w3.org/2000/svg" xmlns:xlink="http://www.w3.org/1999/xlink" x="0px" y="0px" viewBox="0 0 720 480"
	 style="enable-background:new 0 0 720 480;" xml:space="preserve">
<style type="text/css">
	.st0{fill:#DBD4CA;}
	.st1{clip-path:url(#SVGID_2_);}
	.st2{fill:none;stroke:#C49F8A;stroke-miterlimit:10;}
	.st3{opacity:0.3;clip-path:url(#SVGID_2_);}
	.st4{opacity:0.7;fill:#C49F8A;}
	.st5{fill:none;stroke:#565440;}
	.st6{fill:#565440;}
	.st7{fill:#E9E4DC;}
	.st8{fill:#C49F8A;}
	.st9{fill:#E9E4DC;stroke:#C49F8A;}
	.st10{fill:#E9E4DC;stroke:#C49F8A;stroke-miterlimit:3.9998;}
	.st11{fill:none;stroke:#C49F8A;}
	.st12{fill:#E9E4DC;stroke:#C49F8A;stroke-linejoin:round;}
	.st13{opacity:0;}
	.st14{fill:#3F3F3F;fill-opacity:0;}
</style>
<metadata>
	<sfw  xmlns="&ns_sfw;">
		<slices></slices>
		<sliceSourceBounds  bottomLeftOrigin="true" height="667.6734619" width="667.6734619" x="112.6633682" y="-200.6581421">
			</sliceSourceBounds>
	</sfw>
</metadata>
<polygon id="Floor" class="st0" points="447.3999939,416.2000122 194.3000031,416.2000122 194.3000031,66 525.2000122,66
	525.2000122,319.1000061 447.3999939,319.1000061 "/>
<g id="Wet_Floor_1_">
	<defs>
		<polygon id="SVGID_1_" points="446.500061,411.9815979 373.75,411.9815979 373.75,316.3006287 348.9499817,315.7566833
			348.9499817,230.1000061 446.500061,229.9447784 		"/>
	</defs>
	<clipPath id="SVGID_2_">
		<use xlink:href="#SVGID_1_"  style="overflow:visible;"/>
	</clipPath>
	<g class="st1">
		<g>
			<line class="st2" x1="123.4382706" y1="357.2427979" x2="456.9214783" y2="23.7595978"/>
			<line class="st2" x1="113.016922" y1="346.8214417" x2="446.5001221" y2="13.3382492"/>
			<line class="st2" x1="133.8596191" y1="367.6641541" x2="467.342804" y2="34.1809464"/>
			<line class="st2" x1="144.2809601" y1="378.0854797" x2="477.7641602" y2="44.6022949"/>
			<line class="st2" x1="154.7023163" y1="388.5068359" x2="488.1855164" y2="55.0236435"/>
			<line class="st2" x1="165.1236572" y1="398.9281921" x2="498.6068726" y2="65.4449921"/>
			<line class="st2" x1="175.5450134" y1="409.3495483" x2="509.0281982" y2="75.8663406"/>
			<line class="st2" x1="185.9663544" y1="419.770874" x2="519.449585" y2="86.2876892"/>
			<line class="st2" x1="196.3877106" y1="430.1922302" x2="529.8709106" y2="96.7090378"/>
			<line class="st2" x1="206.8090515" y1="440.6135864" x2="540.2922363" y2="107.1303864"/>
			<line class="st2" x1="196.3877106" y1="430.1922302" x2="529.8709106" y2="96.7090378"/>
			<line class="st2" x1="217.2304077" y1="451.0349426" x2="550.713623" y2="117.5517349"/>
			<line class="st2" x1="227.6517487" y1="461.4562683" x2="561.1349487" y2="127.9730835"/>
			<line class="st2" x1="238.0731049" y1="471.8776245" x2="571.5562744" y2="138.3944244"/>
			<line class="st2" x1="248.4944458" y1="482.2989807" x2="581.9776611" y2="148.8157806"/>
			<line class="st2" x1="258.915802" y1="492.7203369" x2="592.3989868" y2="159.2371216"/>
			<line class="st2" x1="269.3371582" y1="503.1416626" x2="602.8203125" y2="169.6584778"/>
			<line class="st2" x1="279.7584839" y1="513.5630493" x2="613.2416992" y2="180.0798187"/>
			<line class="st2" x1="290.1798401" y1="523.984375" x2="623.6630249" y2="190.5011749"/>
			<line class="st2" x1="279.7584839" y1="513.5630493" x2="613.2416992" y2="180.0798187"/>
			<line class="st2" x1="300.6011963" y1="534.4057007" x2="634.0844116" y2="200.9225159"/>
			<line class="st2" x1="311.0225525" y1="544.8270874" x2="644.5057373" y2="211.3438721"/>
			<line class="st2" x1="321.4438782" y1="555.2484131" x2="654.927063" y2="221.765213"/>
			<line class="st2" x1="331.8652344" y1="565.6697388" x2="665.3484497" y2="232.1865692"/>
			<line class="st2" x1="342.2865906" y1="576.0911255" x2="675.7697754" y2="242.6079102"/>
			<line class="st2" x1="352.7079163" y1="586.5124512" x2="686.1911011" y2="253.0292664"/>
			<line class="st2" x1="363.1292725" y1="596.9338379" x2="696.6124878" y2="263.4506226"/>
			<line class="st2" x1="373.5506287" y1="607.3551636" x2="707.0338135" y2="273.8719482"/>
			<line class="st2" x1="363.1292725" y1="596.9338379" x2="696.6124878" y2="263.4506226"/>
			<line class="st2" x1="383.9719849" y1="617.7764893" x2="717.4552002" y2="284.2933044"/>
			<line class="st2" x1="394.3933105" y1="628.197876" x2="727.8765259" y2="294.7146606"/>
			<line class="st2" x1="404.8146667" y1="638.6192017" x2="738.2978516" y2="305.1360168"/>
			<line class="st2" x1="415.2360229" y1="649.0405273" x2="748.7192383" y2="315.5573425"/>
			<line class="st2" x1="425.6573792" y1="659.4619141" x2="759.140564" y2="325.9786987"/>
			<line class="st2" x1="436.0787048" y1="669.8832397" x2="769.5618896" y2="336.4000549"/>
			<line class="st2" x1="446.500061" y1="680.3045654" x2="779.9832764" y2="346.8214111"/>
		</g>
		<g>
			<line class="st2" x1="456.9213562" y1="669.8831177" x2="123.4383087" y2="336.4000549"/>
			<line class="st2" x1="446.5" y1="680.3044434" x2="113.0169601" y2="346.8213806"/>
			<line class="st2" x1="467.3427124" y1="659.461731" x2="133.8596649" y2="325.9786987"/>
			<line class="st2" x1="477.7640686" y1="649.0404053" x2="144.2810059" y2="315.5573425"/>
			<line class="st2" x1="488.1853943" y1="638.6190186" x2="154.7023621" y2="305.1359863"/>
			<line class="st2" x1="498.6067505" y1="628.1976929" x2="165.123703" y2="294.7146606"/>
			<line class="st2" x1="509.0281067" y1="617.7763672" x2="175.5450439" y2="284.2933044"/>
			<line class="st2" x1="519.4494629" y1="607.3549805" x2="185.9664001" y2="273.8719482"/>
			<line class="st2" x1="529.8707886" y1="596.9336548" x2="196.3877411" y2="263.450592"/>
			<line class="st2" x1="540.2921753" y1="586.5123291" x2="206.8090973" y2="253.0292511"/>
			<line class="st2" x1="529.8707886" y1="596.9336548" x2="196.3877411" y2="263.450592"/>
			<line class="st2" x1="550.713501" y1="576.0909424" x2="217.2304382" y2="242.6079102"/>
			<line class="st2" x1="561.1348267" y1="565.6696167" x2="227.6517944" y2="232.186554"/>
			<line class="st2" x1="571.5562134" y1="555.248291" x2="238.0731354" y2="221.765213"/>
			<line class="st2" x1="581.9775391" y1="544.8269043" x2="248.4944916" y2="211.3438568"/>
			<line class="st2" x1="592.3988647" y1="534.4055786" x2="258.9158325" y2="200.9225159"/>
			<line class="st2" x1="602.8202515" y1="523.9841919" x2="269.3371887" y2="190.5011597"/>
			<line class="st2" x1="613.2415771" y1="513.5628662" x2="279.7585449" y2="180.0798187"/>
			<line class="st2" x1="623.6629639" y1="503.14151" x2="290.1798706" y2="169.6584625"/>
			<line class="st2" x1="613.2415771" y1="513.5628662" x2="279.7585449" y2="180.0798187"/>
			<line class="st2" x1="634.0842896" y1="492.7201843" x2="300.6012268" y2="159.2371216"/>
			<line class="st2" x1="644.5056152" y1="482.2988281" x2="311.022583" y2="148.8157654"/>
			<line class="st2" x1="654.927002" y1="471.8774719" x2="321.4439392" y2="138.3944244"/>
			<line class="st2" x1="665.3483276" y1="461.4561157" x2="331.8652649" y2="127.9730759"/>
			<line class="st2" x1="675.7696533" y1="451.03479" x2="342.2866211" y2="117.5517273"/>
			<line class="st2" x1="686.19104" y1="440.6134338" x2="352.7079773" y2="107.1303787"/>
			<line class="st2" x1="696.6123657" y1="430.1920776" x2="363.1293335" y2="96.7090302"/>
			<line class="st2" x1="707.0337524" y1="419.7707214" x2="373.5506592" y2="86.2876816"/>
			<line class="st2" x1="696.6123657" y1="430.1920776" x2="363.1293335" y2="96.7090302"/>
			<line class="st2" x1="717.4550781" y1="409.3493958" x2="383.9720154" y2="75.866333"/>
			<line class="st2" x1="727.8764038" y1="398.9280396" x2="394.3933716" y2="65.4449844"/>
			<line class="st2" x1="738.2977905" y1="388.5066833" x2="404.8147278" y2="55.0236359"/>
			<line class="st2" x1="748.7191162" y1="378.0853271" x2="415.2360535" y2="44.6022873"/>
			<line class="st2" x1="759.1404419" y1="367.6640015" x2="425.6574097" y2="34.1809387"/>
			<line class="st2" x1="769.5618286" y1="357.2426453" x2="436.0787659" y2="23.7595901"/>
			<line class="st2" x1="779.9831543" y1="346.8212891" x2="446.5001221" y2="13.3382425"/>
		</g>
	</g>
	<g class="st3">
		<rect x="285.4205933" y="175.3205261" class="st4" width="322.1589355" height="322.1589355"/>
	</g>
</g>
<polygon id="Windows" class="st5" points="525.7000122,61.5 189.8000031,61.5 189.8000031,416.2000122 194.3000031,416.2000122
	194.3000031,66 525.7000122,66 525.7000122,106.6999969 530.2000122,106.6999969 530.2000122,61.5 "/>
<g id="Walls">
	<polygon class="st6" points="319.2499695,310 313.2499695,310 313.2499695,227.6000061 310.2499695,227.6000061 310.2499695,310
		206.3499756,310 206.3499756,295 188.2499695,295 188.2499695,310 188.2499695,319.1000061 319.2499695,319.1000061 	"/>
	<rect x="188.2499695" y="231.6999969" class="st6" width="18.1000061" height="21.1000061"/>
	<rect x="188.2499695" y="359.2999878" class="st6" width="18.1000061" height="21.1000061"/>
	<polygon class="st6" points="203.2499695,177.5 310.2499695,177.5 310.2499695,202.8000031 313.2499695,202.8000031
		313.2499695,177.5 316.9499817,177.5 316.9499817,174.5 203.2499695,174.5 203.2499695,168.3999939 188.2499695,168.3999939
		188.2499695,189.5 203.2499695,189.5 	"/>
	<rect x="188.2499695" y="105.1999969" class="st6" width="18.1000061" height="21.0999985"/>
	<rect x="257.5499878" y="60" class="st6" width="21.1000061" height="18.0999985"/>
	<rect x="450.3499756" y="60" class="st6" width="21.1000061" height="15.0999985"/>
	<path class="st6" d="M516.6499634,105.1999969v123.5H488.25v3h17.5v20.6999969h1.5h1.5h7.8999634V310H490.75v9h41v-9V105.1999969
		H516.6499634z M508.7499695,249.3999939v-17.6999969h7.8999939v17.6999969H508.7499695z"/>
	<polygon class="st6" points="345.4499817,174.5 342.4499817,174.5 342.4499817,177.5 345.4499817,177.5 348.4499817,177.5
		348.4499817,75.0999985 384.0499878,75.0999985 384.0499878,78.0999985 405.1499939,78.0999985 405.1499939,75.0999985
		405.1499939,60 384.0499878,60 320.7499695,60 320.7499695,75.0999985 345.4499817,75.0999985 	"/>
	<path class="st6" d="M447.3499756,274.5h-3v24.8999939h-17.3999939v1.5v1.5v4.5V310h-22.2000122v-78h39.7000122v19.1999969h3V232
		v-2.8000031V229h-98.5v1.1000061V232v23.3999939h3V232h49.7999878v78h-49.7999878v-32.7999878h-3V310h-2.3999939v9h27.1000061
		v45.1000061h3V319h50.2999878v9.2999878h1.5l0,0h12.8999939V411h-64.6999817v-25.6000061h-3V411H188.2499695v9h253.1000366l0,0h9
		V319.1000061h10.2000122v-9h-13.2999878V274.5H447.3499756z M429.8499756,307v-4.5h14.3999939v7.6000061h-14.3999939V307z
		 M441.2499695,325.3999939h-11.3999939v-6.2999878h11.3999939V325.3999939z"/>
</g>
<path id="Doors" class="st5" d="M490.7999878,319.1000061c0,3.8999939-0.8999939,7.5-2.3999939,11.1000061
	s-3.6000061,7.2000122-6.6000061,9.8999939c-2.7000122,2.7000122-6,5.1000061-9.6000061,6.6000061
	s-7.5,2.3999939-11.3999939,2.3999939V319 M319.2999878,317.6000061c0,3.5,0.7999878,6.7999878,2.2000122,10.1000061
	c1.3999939,3.2999878,3.2999878,6.5,6,9c2.3999939,2.3999939,5.3999939,4.6000061,8.7000122,6
	C339.5,344.1000061,343,344.9000244,346.5,344.9000244v-27.2000122 M317.1000061,174.5
	c0-3.3999939,0.6000061-6.1999969,1.8999939-9.3000031c1.2000122-3.1000061,3.1000061-5.8999939,5.2999878-8.1000061
	c2.2000122-2.5,5-4.3999939,8.1000061-5.6000061c3.1000061-1.1999969,6.2000122-1.8999939,9.7000122-1.8999939v24.8999939
	 M310.2999878,227.8000031c-3.3999939,0-6.2999878-0.6000061-9.3999939-1.8999939
	c-3.1000061-1.3000031-5.8999939-3.1000061-8.1000061-5.3000031c-2.5-2.1999969-4.3999939-5-5.6000061-8.1000061
	c-1.2999878-3.1000061-1.8999939-6.3000031-1.8999939-9.6999969h25 M373.6000061,364.2000122
	c-3,0-5.3999939,0.5-8.1000061,1.6000061s-5.1000061,2.7000122-7,4.6000061c-2.2000122,1.8999939-3.7999878,4.2999878-4.8999939,7
	S352,382.8000183,352,385.8000183h21.6000061 M351.8999939,255.5c3.1000061,0,5.6000061,0.6000061,8.3999939,1.7000122
	S365.5999756,260,367.5,261.9000244c2.2000122,2,3.8999939,4.5,5,7.2000122
	c1.1000061,2.7999878,1.7000122,5.6000061,1.7000122,8.6000061h-22.2999878 M446.6000061,251.3000031
	c3.2000122,0,5.7999878,0.6000061,8.7000122,1.6999969c2.8999939,1.1999969,5.5,2.8999939,7.6000061,5
	c2.2999878,2,4.1000061,4.7000122,5.2000122,7.6000061c1.2000122,2.8999939,1.7000122,5.7999878,1.7000122,9H446.500061"/>
<g id="Furniture_1_">
	<g>
		<polygon class="st7" points="372.974823,309.5 372.974823,306.2999878 387.7748413,306.2999878 387.7748413,255.3000031
			401.2748413,255.3000031 401.2748413,309.5 		"/>
		<path class="st8" d="M400.7748413,255.8000031V309h-1h-12.5h-13.7999878v-2.2999878h13.7999878h1v-1v-50h12.5
			 M401.7748413,254.8000031h-14.5v50.9999847h-14.7999878v4.2999878h14.7999878h12.5h2V254.8000031L401.7748413,254.8000031z"/>
	</g>
	<g>
		<polygon class="st7" points="405.2000122,309.5 405.2000122,232.6000061 443.8999939,232.6000061 443.8999939,246.1000061
			408.6000061,246.1000061 408.6000061,298.8999939 426.3999939,298.8999939 426.3999939,309.5 		"/>
		<path class="st8" d="M443.3999939,233.1000061v12.5h-34.2000122h-1v1v51.7999878v1h1h16.7999878V309h-16.7999878h-2h-1.3999939
			v-62.3999939v-13.5h3.5H443.3999939 M444.3999939,232.1000061h-35.2000122h-4.5v14.5V310h2.3999939h2h17.7999878v-11.6000061
			h-17.7999878v-51.8000031h35.2000122v-14.4999847H444.3999939z"/>
	</g>
	<g>
		<g>
			<rect x="251.3000031" y="109.5999985" class="st7" width="40.5999908" height="64.2999954"/>
			<path class="st8" d="M291.3999939,110.0999985v63.2999954h-39.6000061v-63.3000031h39.6000061 M292.3999939,109.0999985
				h-41.6000061v65.2999954h41.6000061V109.0999985L292.3999939,109.0999985z"/>
		</g>
		<rect x="254.3000031" y="153.6999969" class="st9" width="16.1999969" height="16.1999969"/>
		<rect x="272.6000061" y="153.6999969" class="st9" width="16.2000122" height="16.1999969"/>
		<polygon class="st10" points="256.2999878,160.1999969 268.1000061,164.3999939 271.2000122,148.8000031 259.5,144.6000061 		"/>
		<polygon class="st10" points="272.1000061,148.8000031 275.2000122,164.3999939 286.8999939,160.1999969 283.7999878,144.6000061
					"/>
		<g>
			<polygon class="st7" points="251.3000031,156.8999939 251.3000031,109 291.8999939,109 291.8999939,160.3000031
				275.7999878,161.6999969 			"/>
			<path class="st8" d="M291.3999939,109.5v50.3000031v0.1000061l-15.6000061,1.3000031l-24-4.6000061v-47h39.6000061
				 M292.3999939,108.5h-41.6000061V157v0.3000031l24.8999939,4.8000031l16.6000061-1.3999939v-1L292.3999939,108.5
				L292.3999939,108.5z"/>
		</g>
		<polyline class="st11" points="291.7999878,159.1000061 275.6000061,159.1000061 251.3000031,156.3999939 		"/>
	</g>
	<g>
		<g>
			<rect x="222" y="252.1000061" class="st7" width="48" height="57.5"/>
			<path class="st8" d="M222.5,252.6000061h47V309h-47V252.6000061 M221.5,251.6000061v58.5h49v-58.5H221.5L221.5,251.6000061z"/>
		</g>
		<rect x="225.6000061" y="291.3999939" class="st9" width="19.1000061" height="14.5"/>
		<rect x="247.1999969" y="291.3999939" class="st9" width="19.0999908" height="14.5"/>
		<polygon class="st10" points="228,297.2999878 241.8000031,301 245.5,287.1000061 231.6999969,283.2999878 		"/>
		<polygon class="st10" points="246.5,287.1000061 250.1999969,301 264.1000061,297.2999878 260.3999939,283.2999878 		"/>
		<g>
			<polygon class="st7" points="222,294.2999878 222,251.5 270,251.5 270,297.2999878 250.8999939,298.5 			"/>
			<path class="st8" d="M269.5,252v44.8999939l-18.6000061,1.2000122L222.5,293.8999939V252H269.5 M270.5,251h-49v43.3999939
				v0.2999878l29.3999939,4.2999878L270.5,297.7999573v-0.8999939V251L270.5,251z"/>
		</g>
		<polyline class="st11" points="269.7999878,296.2999878 250.6999969,296.2999878 222,293.8999939 		"/>
	</g>
	<g>
		<g>
			<rect x="246" y="319.6000061" class="st7" width="48" height="57.5"/>
			<path class="st8" d="M246.5,320.1000061h47v56.5h-47V320.1000061 M245.5,319.1000061v58.5h49v-58.5H245.5L245.5,319.1000061z"/>
		</g>
		<rect x="271.2000122" y="323.2000122" class="st9" width="19.1000061" height="14.5"/>
		<rect x="249.6999969" y="323.2000122" class="st9" width="19.0999908" height="14.5"/>
		<polygon class="st10" points="288,331.7999878 274.2000122,328.1000061 270.5,342 284.2999878,345.7999878 		"/>
		<polygon class="st10" points="269.5,342.1000061 265.7999878,328.1000061 252,331.7999878 255.6999969,345.7999878 		"/>
		<g>
			<polygon class="st7" points="246,377.6000061 246,331.7999878 265.1000061,330.6000061 294,334.7999878 294,377.6000061 			"/>
			<path class="st8" d="M265.1000061,331.1000061L293.5,335.3000183v41.8999939h-47v-44.8999939L265.1000061,331.1000061
				 M265.1000061,330.1000061L245.5,331.3000183v0.8999939v45.8999939h49v-43.3999939v-0.2999878L265.1000061,330.1000061
				L265.1000061,330.1000061z"/>
		</g>
		<polyline class="st11" points="246.1999969,332.7999878 265.2999878,332.7999878 294,335.2000122 		"/>
	</g>
	<g>
		<g>
			<rect x="291.5" y="232.3000031" class="st7" width="1.7999878" height="77.3000031"/>
			<path class="st8" d="M292.7999878,232.8000031V309H292v-76.3000031h0.7999878 M293.7999878,231.8000031H291V310h2.7999878
				V231.8000031L293.7999878,231.8000031z"/>
		</g>
		<g>
			<rect x="293.2999878" y="232.3000031" class="st7" width="16.5" height="77.3000031"/>
			<path class="st8" d="M293.7999878,232.8000031h15.5v76.3000031h-15.5V232.8000031 M292.7999878,231.8000031v78.3000031h17.5
				v-78.3000031H292.7999878L292.7999878,231.8000031z"/>
		</g>
		<path class="st9" d="M309.7000122,309.5l-16.3999939-77.3999939"/>
	</g>
	<g>
		<g>
			<rect x="326.7000122" y="75.5999985" class="st7" width="1.7999878" height="60.4000015"/>
			<path class="st8" d="M327.2000122,76.0999985H328V135.5h-0.7999878V76.0999985 M326.2000122,75.0999985V136.5H329V75.0999985
				H326.2000122L326.2000122,75.0999985z"/>
		</g>
		<g>
			<rect x="328.5" y="75.5999985" class="st7" width="16.5" height="60.4000015"/>
			<path class="st8" d="M344.5,76.0999985V135.5H329V76.0999985H344.5 M345.5,75.0999985H328V136.5h17.5V75.0999985
				L345.5,75.0999985z"/>
		</g>
		<path class="st9" d="M344.8999939,136L328.5,75.3000031"/>
	</g>
	<g>
		<g>
			<rect x="354.8450317" y="319.4856873" class="st7" width="1.7999878" height="41.3999939"/>
			<path class="st8" d="M356.14505,319.9856873v40.3999939h-0.7999878v-40.3999939H356.14505 M357.14505,318.9856873h-2.7999878
				v42.3999939h2.7999878V318.9856873L357.14505,318.9856873z"/>
		</g>
		<g>
			<rect x="356.64505" y="319.4856873" class="st7" width="16.5" height="41.3999939"/>
			<path class="st8" d="M357.14505,319.9856873h15.5v40.3999939h-15.5V319.9856873 M356.14505,318.9856873v42.3999939h17.5
				v-42.3999939H356.14505L356.14505,318.9856873z"/>
		</g>
		<path class="st9" d="M373.0450439,361.0856934L356.64505,319.1856995"/>
	</g>
	<g>
		<g>
			<rect x="497.7999878" y="256.2000122" class="st7" width="1.7999878" height="53.3999939"/>
			<path class="st8" d="M498.2999878,256.7000122h0.7999878V309h-0.7999878V256.7000122 M497.2999878,255.6999969V310h2.7999878
				v-54.3999939L497.2999878,255.6999969L497.2999878,255.6999969z"/>
		</g>
		<g>
			<rect x="499.7000122" y="256.2000122" class="st7" width="16.5" height="53.3999939"/>
			<path class="st8" d="M500.2000122,256.7000122h15.5V309h-15.5V256.7000122 M499.2000122,255.6999969V310h17.5v-54.3999939
				L499.2000122,255.6999969L499.2000122,255.6999969z"/>
		</g>
		<path class="st9" d="M516.0999756,309.7000122l-16.3999939-53.8000031"/>
	</g>
	<g>
		<g>
			<rect x="490.7000122" y="241.6000061" class="st7" width="14.6000061" height="1.8000031"/>
			<path class="st8" d="M504.7999878,242.1000061v0.8000031h-13.6000061v-0.8000031H504.7999878 M505.7999878,241.1000061
				h-15.6000061v2.8000031h15.6000061V241.1000061L505.7999878,241.1000061z"/>
		</g>
		<g>
			<rect x="490.7000122" y="232.1999969" class="st7" width="14.6000061" height="9.3999939"/>
			<path class="st8" d="M491.2000122,232.6999969h13.6000061v8.3999939h-13.6000061V232.6999969 M490.2000122,231.6999969
				v10.3999939h15.6000061v-10.3999939H490.2000122L490.2000122,231.6999969z"/>
		</g>
		<path class="st9" d="M505.2999878,232.3000031L490.5,241.6000061"/>
	</g>
	<g>
		<g>
			<rect x="354.7999878" y="387.2999878" class="st7" width="1.7999878" height="23.1000061"/>
			<path class="st8" d="M356.1000061,387.7999878V410h-0.7999878v-22.1000061h0.7999878 M357.1000061,386.7999878h-2.7999878V411
				h2.7999878V386.7999878L357.1000061,386.7999878z"/>
		</g>
		<g>
			<rect x="356.6000061" y="387.2999878" class="st7" width="16.5" height="23.1000061"/>
			<path class="st8" d="M372.6000061,387.7999878V410h-15.5v-22.1000061h15.5 M373.6000061,386.7999878h-17.5V411h17.5V386.7999878
				L373.6000061,386.7999878z"/>
		</g>
		<path class="st9" d="M373.1000061,410.3999939l-16.5-23.1000061"/>
	</g>
	<g>
		<g>
			<rect x="420.3999939" y="356" class="st7" width="20.5" height="54.5"/>
			<path class="st8" d="M420.8999939,356.5h19.5V410h-19.5V356.5 M419.8999939,355.5V411h21.5v-55.5H419.8999939L419.8999939,355.5z
				"/>
		</g>
		<g>
			<g>
				<path class="st12" d="M430.6000061,404.2999878c4,0,7-3.3999939,6.7000122-7.2999878
					c-0.3999939-4.2999878-0.7000122-9.7000122-0.7000122-13.7000122S437,373.8999939,437.3000183,369.5999756
					c0.3999939-3.8999939-2.7000122-7.2999878-6.7000122-7.2999878c-3.8999939,0-7,3.3999939-6.7000122,7.2999878
					c0.3999939,4.2999878,0.7000122,9.7000122,0.7000122,13.7000122S424.2000122,392.6999817,423.8999939,397
					C423.6000061,400.8999939,426.7000122,404.2999878,430.6000061,404.2999878z"/>
				<ellipse class="st12" cx="430.6000061" cy="397.3999939" rx="0.8999939" ry="0.8999939"/>
			</g>
		</g>
	</g>
	<g>
		<g>
			<rect x="352.3999939" y="297.5" class="st7" width="18.1000061" height="12"/>
			<path class="st8" d="M369.8999939,298v11h-17.1000061v-11H369.8999939 M370.8999939,297h-19.1000061v13h19.1000061V297
				L370.8999939,297z"/>
		</g>
		<g>
			<path class="st7" d="M361.3999939,307.2999878c-2.1000061,0-3.7000122-1.7000122-3.7000122-3.7000122
				s1.7000122-3.7000122,3.7000122-3.7000122c2.1000061,0,3.7000122,1.7000122,3.7000122,3.7000122
				S363.5,307.2999878,361.3999939,307.2999878z"/>
			<path class="st8" d="M361.3999939,300.2999878c1.7999878,0,3.2000122,1.5,3.2000122,3.2000122
				c0,1.7999878-1.5,3.2000122-3.2000122,3.2000122s-3.2000122-1.5-3.2000122-3.2000122
				C358.2000122,301.7000122,359.6000061,300.2999878,361.3999939,300.2999878 M361.3999939,299.2999878
				c-2.2999878,0-4.2000122,1.8999939-4.2000122,4.2000122c0,2.2999878,1.8999939,4.2000122,4.2000122,4.2000122
				s4.2000122-1.8999939,4.2000122-4.2000122C365.7000122,301.2000122,363.7999878,299.2999878,361.3999939,299.2999878
				L361.3999939,299.2999878z"/>
		</g>
	</g>
	<g>
		<g>
			<path class="st7" d="M377.3748474,306.2999878v-16.7000122c0-4,3.2999878-7.2999878,7.2999878-7.2999878h16.7000122v24
				H377.3748474z"/>
			<path class="st8" d="M400.7748413,282.7999878v23h-23v-16.2000122c0-3.7000122,3-6.7999878,6.7999878-6.7999878H400.7748413
				 M401.7748413,281.7999878h-17.2000122c-4.2999878,0-7.7999878,3.5-7.7999878,7.7999878v17.2000122h25V281.7999878
				L401.7748413,281.7999878z"/>
		</g>
		<g>
			<path class="st7" d="M379.3748474,304.2000122v-14.6000061c0-2.8999939,2.3999939-5.2999878,5.2999878-5.2999878h14.6000061
				v19.8999939H379.3748474z"/>
			<path class="st8" d="M398.7748413,284.7999878v18.8999939h-18.8999939v-14.1000061
				c0-2.6000061,2.1000061-4.7999878,4.7999878-4.7999878H398.7748413 M399.7748413,283.7999878h-15.1000061
				c-3.2000122,0-5.7999878,2.6000061-5.7999878,5.7999878v15.1000061h20.8999939V283.7999878L399.7748413,283.7999878z"/>
		</g>
		<ellipse class="st9" cx="395.3748474" cy="300.3999939" rx="0.8999939" ry="0.8999939"/>
	</g>
	<g>
		<path class="st9" d="M436.8999939,103.5h39.2000122V132h-39.2000122V103.5z"/>
		<path class="st9" d="M464.2999878,101.3000031v-0.5999985c0-4.3000031-3.5-7.6999969-7.7000122-7.6999969
			c-4.2999878,0-7.7000122,3.5-7.7000122,7.6999969v0.5999985H464.2999878z"/>
		<path class="st9" d="M462.5,103.5v-3c0-3.3000031-2.7000122-5.9000015-5.8999939-5.9000015
			c-3.2999878,0-5.8999939,2.6999969-5.8999939,5.9000015v3H462.5z"/>
		<path class="st9" d="M464.2999878,134.1999969v0.6000061c0,4.3000031-3.5,7.6999969-7.7000122,7.6999969
			c-4.2999878,0-7.7000122-3.5-7.7000122-7.6999969v-0.6000061H464.2999878z"/>
		<path class="st9" d="M462.5,132v3c0,3.3000031-2.7000122,5.8999939-5.8999939,5.8999939
			c-3.2999878,0-5.8999939-2.6999969-5.8999939-5.8999939v-3H462.5z"/>
		<path class="st9" d="M478.2999878,110h0.6000061c4.2999878,0,7.7000122,3.5,7.7000122,7.6999969
			c0,4.3000031-3.5,7.6999969-7.7000122,7.6999969h-0.6000061V110z"/>
		<path class="st9" d="M476.1000061,111.8000031h3C482.3999939,111.8000031,485,114.5,485,117.7000046
			c0,3.3000031-2.7000122,5.9000015-5.8999939,5.9000015h-3V111.8000031z"/>
		<path class="st9" d="M434.7000122,110h-0.6000061c-4.2999878,0-7.7000122,3.5-7.7000122,7.6999969
			c0,4.3000031,3.5,7.6999969,7.7000122,7.6999969h0.6000061V110z"/>
		<path class="st9" d="M436.8999939,111.8000031h-3C430.6000061,111.8000031,428,114.5,428,117.7000046
			c0,3.3000031,2.7000122,5.9000015,5.8999939,5.9000015h3V111.8000031z"/>
	</g>
	<g>
		<path class="st9" d="M229.1000061,99.1999969h-14L213.2000122,86.5h17.8000031L229.1000061,99.1999969z"/>
		<g>
			<rect x="195.3000031" y="67" class="st7" width="61.8000031" height="20.6999969"/>
			<path class="st8" d="M256.6000061,67.5v19.6999969h-60.8000031V67.5H256.6000061 M257.6000061,66.5h-62.8000031v21.6999969
				h62.8000031V66.5L257.6000061,66.5z"/>
		</g>
		<path class="st11" d="M226.8000031,82.1999969H216 M227.8000031,84.3000031h-12.6999969V80.5h12.6999969V84.3000031z"/>
		<path class="st9" d="M233.1000061,84.5L233.1000061,84.5c-0.5,0-1-0.4000015-1-1v-1.3000031c0-0.5,0.3999939-1,1-1l0,0
			c0.5,0,1,0.4000015,1,1V83.5C234,84,233.6000061,84.5,233.1000061,84.5z"/>
		<path class="st9" d="M224.6000061,74.3000031c0,1.8000031-1.3999939,3.1999969-3.1999969,3.1999969
			s-3.1999969-1.4000015-3.1999969-3.1999969v-3.1999969h6.3999939V74.3000031z"/>
		<g>
			<rect x="215.5" y="87.8000031" class="st7" width="13.5" height="11.6999969"/>
			<path class="st8" d="M228.3999939,88.3000031V99H216V88.3000031H228.3999939 M229.3999939,87.3000031H215V100h14.5V87.3000031
				H229.3999939z"/>
		</g>
		<g>
			<rect x="215.1999969" y="99.4000015" class="st7" width="13.8999939" height="1.8000031"/>
			<path class="st8" d="M228.6000061,99.9000015v0.8000031h-12.8999939v-0.8000031H228.6000061 M229.6000061,98.9000015h-14.8999939
				v2.8000031h14.8999939V98.9000015L229.6000061,98.9000015z"/>
		</g>
		<g>
			<rect x="204.8000031" y="69.8000031" class="st7" width="33.1999969" height="1.8000031"/>
			<path class="st8" d="M237.5,70.3000031v0.8000031h-32.1999969v-0.8000031H237.5 M238.5,69.3000031h-34.1999969v2.8000031H238.5
				V69.3000031L238.5,69.3000031z"/>
		</g>
	</g>
	<g>
		<path class="st9" d="M237.6999969,210.1000061h-14l-1.8999939-12.6999969h17.8000031L237.6999969,210.1000061z"/>
		<g>
			<rect x="203.8000031" y="178" class="st7" width="61.8000031" height="20.6999969"/>
			<path class="st8" d="M265.1000061,178.5v19.6999969h-60.8000031V178.5H265.1000061 M266.1000061,177.5h-62.8000031v21.6999969
				h62.8000031V177.5L266.1000061,177.5z"/>
		</g>
		<path class="st11" d="M235.3999939,193.1999969h-10.8000031 M236.3000031,195.1999969h-12.6999969v-3.8000031h12.6999969
			V195.1999969z"/>
		<path class="st9" d="M241.6000061,195.3999939L241.6000061,195.3999939c-0.5,0-1-0.3999939-1-1v-1.3000031c0-0.5,0.3999939-1,1-1
			l0,0c0.5,0,1,0.3999939,1,1v1.3000031C242.5,195,242.1000061,195.3999939,241.6000061,195.3999939z"/>
		<path class="st9" d="M233.1000061,185.1999969c0,1.8000031-1.3999939,3.1999969-3.1999969,3.1999969
			S226.7000122,187,226.7000122,185.1999969V182h6.3999939V185.1999969z"/>
		<g>
			<rect x="224" y="198.6999969" class="st7" width="13.5" height="11.6999969"/>
			<path class="st8" d="M236.8999939,199.1999969v10.6999969h-12.5v-10.6999969H236.8999939 M237.8999939,198.1999969h-14.5
				v12.6999969h14.5V198.1999969L237.8999939,198.1999969z"/>
		</g>
		<g>
			<rect x="223.6999969" y="210.3999939" class="st7" width="13.8999939" height="1.8000031"/>
			<path class="st8" d="M237.1000061,210.8999939v0.8000031h-12.8999939v-0.8000031H237.1000061 M238.1000061,209.8999939
				h-14.8999939v2.8000031h14.8999939V209.8999939L238.1000061,209.8999939z"/>
		</g>
		<g>
			<rect x="213.3999939" y="180.8000031" class="st7" width="33.1999969" height="1.8000031"/>
			<path class="st8" d="M246,181.3000031v0.8000031h-32.1999969v-0.8000031H246 M247,180.3000031h-34.1999969v2.8000031H247
				V180.3000031L247,180.3000031z"/>
		</g>
	</g>
	<g id="Sink_2">
		<g id="Rectangle_16_x5F_11">
			<rect x="414.3999939" y="232.6000061" class="st7" width="22" height="13.5"/>
			<path class="st8" d="M436,233.1000061v12.5h-21.1000061v-12.5H436 M437,232.1000061h-23.1000061v14.5H437V232.1000061
				L437,232.1000061z"/>
		</g>
		<path id="Rectangle_19_x5F_5" class="st9" d="M417.7999878,239.3999939L417.7999878,239.3999939
			c0,2.5,2,4.3999939,4.3999939,4.3999939h6.3999939c2.5,0,4.3999939-2,4.3999939-4.3999939l0,0
			c0-2.5-2-4.3999939-4.3999939-4.3999939h-6.3999939C419.7999878,234.8999939,417.7999878,236.8999939,417.7999878,239.3999939z"/>
		<circle id="Ellipse_7_x5F_2" class="st9" cx="425.5" cy="237.1999969" r="0.8999939"/>
	</g>
	<g id="Sink_2_1_">
		<g id="Rectangle_16_x5F_11_1_">
			<rect x="387.7748413" y="257.7000122" class="st7" width="13.5" height="22.1000061"/>
			<path class="st8" d="M400.7748413,258.2000122v21.1000061h-12.5v-21.1000061H400.7748413 M401.7748413,257.2000122h-14.5
				v23.1000061h14.5V257.2000122L401.7748413,257.2000122z"/>
		</g>
		<path id="Rectangle_19_x5F_5_1_" class="st9" d="M394.5748291,261.1000061L394.5748291,261.1000061
			c-2.5,0-4.3999939,2-4.3999939,4.3999939v6.3999939c0,2.5,2,4.3999939,4.3999939,4.3999939l0,0
			c2.5,0,4.3999939-2,4.3999939-4.3999939V265.5C398.974823,263.1000061,396.974823,261.1000061,394.5748291,261.1000061z"/>
		<circle id="Ellipse_7_x5F_2_1_" class="st9" cx="396.6748352" cy="268.7000122" r="0.8999939"/>
	</g>
	<g id="Sink_2_4_">
		<g id="Rectangle_16_x5F_11_4_">
			<rect x="428.2000122" y="337.5" class="st7" width="12.6000061" height="18.5"/>
			<path class="st8" d="M440.2999878,338v17.5h-11.6000061V338H440.2999878 M441.2999878,337h-13.6000061v19.5h13.6000061V337
				L441.2999878,337z"/>
		</g>
		<path id="Rectangle_19_x5F_5_4_" class="st9" d="M434.5,339.6000061L434.5,339.6000061
			c-2.2999878,0-4.2000122,1.8999939-4.2000122,4.2000122v6c0,2.2999878,1.8999939,4.2000122,4.2000122,4.2000122l0,0
			c2.2999878,0,4.2000122-1.8999939,4.2000122-4.2000122v-6C438.7000122,341.5,436.7999878,339.6000061,434.5,339.6000061z"/>
		<circle id="Ellipse_7_x5F_2_4_" class="st9" cx="436.2000122" cy="346.7000122" r="0.8999939"/>
	</g>
	<g id="Toilet_1_">
		<g id="Rectangle_21_1_">
			<rect x="417.3999939" y="294.6000061" class="st7" width="14.2000122" height="4.2999878"/>
			<path class="st8" d="M431.1000061,295.1000061v3.2999878h-13.2000122v-3.2999878H431.1000061 M432.1000061,294.1000061
				h-15.2000122v5.2999878h15.2000122V294.1000061L432.1000061,294.1000061z"/>
		</g>
		<path id="Rectangle_19_x5F_2_1_" class="st9" d="M429.5,285.3999939c0.2000122-2.8999939-2.1000061-5.2999878-5-5.2999878l0,0
			c-2.8999939,0-5.2000122,2.3999939-5,5.2999878l0.6000061,9.2000122h8.7000122L429.5,285.3999939z"/>
		<path id="Rectangle_18_x5F_13_1_" class="st9" d="M427.7999878,285.5C428,283.6000061,426.5,281.8999939,424.5,281.8999939l0,0
			c-1.8999939,0-3.3999939,1.7000122-3.2999878,3.6000061l0.5,5.2000122h5.6000061L427.7999878,285.5z"/>
		<ellipse id="Ellipse_6_x5F_2_1_" class="st9" cx="424.5" cy="288.2999878" rx="0.8999939" ry="0.8999939"/>
	</g>
	<g id="Toilet_5_">
		<g id="Rectangle_21_5_">
			<rect x="383.3999939" y="324.7711487" class="st7" width="14.2000122" height="4.2999878"/>
			<path class="st8" d="M397.2000122,325.2711487v3.2999878H384v-3.2999878H397.2000122 M398.2000122,324.2711487H383v5.2999878
				h15.2000122V324.2711487L398.2000122,324.2711487z"/>
		</g>
		<path id="Rectangle_19_x5F_2_5_" class="st9" d="M395.5,338.2711487c0.2000122,2.8999939-2.1000061,5.2999878-5,5.2999878l0,0
			c-2.8999939,0-5.2000122-2.3999939-5-5.2999878l0.6000061-9.2000122h8.7000122L395.5,338.2711487z"/>
		<path id="Rectangle_18_x5F_13_5_" class="st9" d="M393.7999878,338.2711487C394,340.1711426,392.5,341.8711548,390.5,341.8711548
			l0,0c-1.8999939,0-3.3999939-1.7000122-3.2999878-3.6000061l0.5-5.2000122h5.6000061L393.7999878,338.2711487z"/>
		<ellipse id="Ellipse_6_x5F_2_5_" class="st9" cx="390.6000061" cy="335.3711548" rx="0.8999939" ry="0.8999939"/>
	</g>
	<g id="Toilet_4_">
		<g id="Rectangle_21_3_">
			<rect x="397.0500183" y="235.3999939" class="st7" width="4.2999878" height="14.1999969"/>
			<path class="st8" d="M400.8500061,235.8999939v13.1999969h-3.2999878v-13.1999969H400.8500061 M401.8500061,234.8999939
				h-5.2999878v15.1999969h5.2999878V234.8999939L401.8500061,234.8999939z"/>
		</g>
		<path id="Rectangle_19_x5F_2_4_" class="st9" d="M387.8500061,237.5c-2.8999939-0.1999969-5.2999878,2.1000061-5.2999878,5l0,0
			c0,2.8999939,2.3999939,5.1999969,5.2999878,5l9.2000122-0.6000061v-8.6999969L387.8500061,237.5z"/>
		<path id="Rectangle_18_x5F_13_4_" class="st9" d="M387.9500122,239.1999969C386.0500183,239,384.3500061,240.5,384.3500061,242.5
			l0,0c0,1.8999939,1.7000122,3.3999939,3.6000061,3.3000031l5.2000122-0.5v-5.6000061L387.9500122,239.1999969z"/>
		<ellipse id="Ellipse_6_x5F_2_4_" class="st9" cx="390.75" cy="242.5" rx="0.8999939" ry="0.8999939"/>
	</g>
	<g id="TV_1_">
		<g id="Rectangle_16_1_">
			<rect x="246.8999939" y="400.9650269" class="st7" width="45.1000061" height="1.7999878"/>
			<path class="st8" d="M291.3999939,401.4650269v0.7999878h-44.1000061v-0.7999878H291.3999939 M292.3999939,400.4650269
				h-46.1000061v2.7999878h46.1000061V400.4650269L292.3999939,400.4650269z"/>
		</g>
		<g id="Rectangle_15_1_">
			<rect x="246.8999939" y="402.7650452" class="st7" width="45.1000061" height="7.7999878"/>
			<path class="st8" d="M291.3999939,403.2650452v6.7999878h-44.1000061v-6.7999878H291.3999939 M292.3999939,402.2650452
				h-46.1000061v8.7999878h46.1000061V402.2650452L292.3999939,402.2650452z"/>
		</g>
		<g id="Rectangle_17_1_">
			<rect x="254.6000061" y="407.065033" class="st7" width="29.6000061" height="1.7999878"/>
			<path class="st8" d="M283.7000122,407.565033v0.7999878h-28.6000061v-0.7999878H283.7000122 M284.7000122,406.565033h-30.6000061
				v2.7999878h30.6000061V406.565033L284.7000122,406.565033z"/>
		</g>
		<path id="Rectangle_18_x5F_2_1_" class="st9" d="M262.8999939,408.8650513h12.8999939l-1.2000122,1.6000061h-10.6000061
			L262.8999939,408.8650513z"/>
	</g>
	<g id="Kitchen">
		<g id="Rectangle_24">
			<rect x="497.8999939" y="169.3999939" class="st7" width="18.3000183" height="58.8000031"/>
			<path class="st8" d="M515.7000122,169.8999939v57.8000031h-17.2999878v-57.8000031H515.7000122 M516.7000122,168.8999939
				h-19.2999878v59.8000031h19.2999878V168.8999939L516.7000122,168.8999939z"/>
		</g>
		<g id="Rectangle_27">
			<rect x="497.8999939" y="105.6999969" class="st7" width="18.3000183" height="122.5"/>
			<path class="st8" d="M515.7000122,106.1999969v121.5h-17.2999878v-121.5H515.7000122 M516.7000122,105.1999969h-19.2999878v123.5
				h19.2999878V105.1999969L516.7000122,105.1999969z"/>
		</g>
		<g id="Sink_3">
			<rect id="Rectangle_28_x5F_2" x="499.7999878" y="177.5" class="st9" width="14.5" height="22.8999939"/>
			<path id="Rectangle_29_x5F_2" class="st9" d="M507,191.3999939L507,191.3999939c-3,0-5.3999939-2.3999939-5.3999939-5.3999939
				v-1.1999969c0-3,2.3999939-5.3999939,5.3999939-5.3999939l0,0c3,0,5.4000244,2.3999939,5.4000244,5.3999939V186
				C512.4000244,189,510,191.3999939,507,191.3999939z"/>
			<ellipse id="Ellipse_7_x5F_3" class="st9" cx="509.3999939" cy="185.3999939" rx="0.8999939" ry="0.8999939"/>
			<path id="Vector_2" class="st11" d="M512.4000244,199.1999969v-6 M510.6000061,199.1999969v-6 M508.7999878,199.1999969v-6
				 M507,199.1999969v-6 M505.2000122,199.1999969v-6 M503.3999939,199.1999969v-6 M501.6000061,199.1999969v-6"/>
		</g>
		<g id="Stove">
			<g id="Rectangle_25">
				<rect x="497.8999939" y="126.8000031" class="st7" width="18.3000183" height="17.8000031"/>
				<path class="st8" d="M515.7000122,127.3000031V144h-17.2999878v-16.8000031L515.7000122,127.3000031 M516.7000122,126.3000031
					h-19.2999878V145h19.2999878V126.3000031L516.7000122,126.3000031z"/>
			</g>
			<g id="Rectangle_28_x5F_3">
				<rect x="514.2999878" y="126.8000031" class="st7" width="1.7999878" height="17.8000031"/>
				<path class="st8" d="M515.7000122,127.3000031V144h-0.7999878v-16.8000031h0.7999878 M516.7000122,126.3000031h-2.7999878V145
					h2.7999878V126.3000031L516.7000122,126.3000031z"/>
			</g>
			<g id="Ellipse_7_x5F_4">
				<path class="st7" d="M509.7000122,141.3000031c-0.8999939,0-1.7000122-0.6999969-1.7000122-1.6999969
					c0-0.8999939,0.7000122-1.6999969,1.7000122-1.6999969c0.8999939,0,1.7000122,0.6999969,1.7000122,1.6999969
					C511.2999878,140.5,510.6000061,141.3000031,509.7000122,141.3000031z"/>
				<path class="st8" d="M509.7000122,138.5c0.6000061,0,1.2000122,0.5,1.2000122,1.1999969s-0.5,1.1999969-1.2000122,1.1999969
					s-1.2000122-0.5-1.2000122-1.1999969S509,138.5,509.7000122,138.5 M509.7000122,137.5
					C508.5,137.5,507.5,138.5,507.5,139.6999969s1,2.1999969,2.2000122,2.1999969s2.2000122-1,2.2000122-2.1999969
					C511.7999878,138.3999939,510.8999939,137.5,509.7000122,137.5L509.7000122,137.5z"/>
			</g>
			<g id="Ellipse_9">
				<path class="st7" d="M503.2000122,141.8000031c-1.2000122,0-2.2000122-1-2.2000122-2.1999969s1-2.1999969,2.2000122-2.1999969
					s2.2000122,1,2.2000122,2.1999969S504.3999939,141.8000031,503.2000122,141.8000031z"/>
				<path class="st8" d="M503.2000122,137.8999939c0.8999939,0,1.7000122,0.8000031,1.7000122,1.6999969
					s-0.7999878,1.6999969-1.7000122,1.6999969S501.5,140.4999847,501.5,139.5999908
					S502.2000122,137.8999939,503.2000122,137.8999939 M503.2000122,136.8999939c-1.5,0-2.7000122,1.1999969-2.7000122,2.6999969
					s1.2000122,2.6999969,2.7000122,2.6999969s2.7000122-1.1999969,2.7000122-2.6999969
					S504.7000122,136.8999939,503.2000122,136.8999939L503.2000122,136.8999939z"/>
			</g>
			<g id="Ellipse_10">
				<path class="st7" d="M509.7000122,134.3000031c-1.2000122,0-2.2000122-1-2.2000122-2.1999969s1-2.1999969,2.2000122-2.1999969
					s2.2000122,1,2.2000122,2.1999969S510.8999939,134.3000031,509.7000122,134.3000031z"/>
				<path class="st8" d="M509.7000122,130.3999939L509.7000122,130.3999939c0.8999939,0,1.7000122,0.8000031,1.7000122,1.6999969
					s-0.7999878,1.6999969-1.7000122,1.6999969S508,132.9999847,508,132.0999908S508.7000122,130.3999939,509.7000122,130.3999939
					 M509.7000122,129.3999939c-1.5,0-2.7000122,1.1999969-2.7000122,2.6999969s1.2000122,2.6999969,2.7000122,2.6999969
					s2.7000122-1.1999969,2.7000122-2.6999969C512.4000244,130.6000061,511.1000061,129.3999939,509.7000122,129.3999939
					L509.7000122,129.3999939z"/>
			</g>
			<g id="Ellipse_8">
				<path class="st7" d="M502.6000061,133.6999969c-0.8999939,0-1.7000122-0.6999969-1.7000122-1.6999969
					c0-0.8999939,0.7000122-1.6999969,1.7000122-1.6999969C503.5,130.3000031,504.3000183,131,504.3000183,132
					C504.2999878,133,503.6000061,133.6999969,502.6000061,133.6999969z"/>
				<path class="st8" d="M502.6000061,130.8999939c0.6000061,0,1.2000122,0.5,1.2000122,1.1999969
					s-0.5,1.1999969-1.2000122,1.1999969s-1.2000122-0.5-1.2000122-1.1999969S502,130.8999939,502.6000061,130.8999939
					 M502.6000061,129.8999939c-1.2000122,0-2.2000122,1-2.2000122,2.1999969s1,2.1999969,2.2000122,2.1999969
					s2.2000122-1,2.2000122-2.1999969S503.7999878,129.8999939,502.6000061,129.8999939L502.6000061,129.8999939z"/>
			</g>
		</g>
	</g>
	<g>
		<path class="st9" d="M387.7000122,105.3000031c0.7999878,0,1.5-0.6999969,1.5-1.5v-15h-34.2999878v16.5H387.7000122z"/>
		<path class="st9" d="M370,131.8999939c0.7999878,0,1.5-0.6999969,1.5-1.6000061v-23.5
			c0-0.9000015-0.7000122-1.5999985-1.5-1.5999985h-15.1000061v26.5999985H370V131.8999939z"/>
		<path class="st9" d="M370,157.6000061c0.7999878,0,1.5-0.6999969,1.5-1.5V133.5c0-0.8000031-0.7000122-1.5-1.5-1.5h-15.1000061
			v25.6000061H370z"/>
		<path class="st9" d="M372.7000122,157.6000061v5.6000061H349V82.6999969h46.1000061V106.5h-5.8999939V88.8000031h-34.3999939
			v68.8000031H372.7000122z"/>
	</g>
	<g>
		<rect x="377.1000061" y="319.4711609" class="st7" width="49.2999878" height="5.2999878"/>
		<path class="st8" d="M425.8999939,319.9711609v4.2999878h-48.2999878v-4.2999878H425.8999939 M426.8999939,318.9711609
			h-50.2999878v6.2999878h50.2999878V318.9711609L426.8999939,318.9711609z"/>
	</g>
	<g>
		<rect x="428.2000122" y="328.8999939" class="st7" width="12.6000061" height="8.5"/>
		<path class="st8" d="M440.2999878,329.3999939v7.5h-11.6000061v-7.5H440.2999878 M441.2999878,328.3999939h-13.6000061v9.5
			h13.6000061V328.3999939L441.2999878,328.3999939z"/>
	</g>
	<g id="Rectangle_27_1_">
		<rect x="497.8999939" y="210" class="st7" width="18.1999817" height="18.1999969"/>
		<path class="st8" d="M515.7000122,210.5v17.1999969H498.5V210.5H515.7000122 M516.7000122,209.5H497.5v19.1999969h19.2000122
			V209.5L516.7000122,209.5z"/>
	</g>
	<g id="Rectangle_27_3_">
		<rect x="497.8999939" y="210" class="st7" width="1.7999878" height="18.1999969"/>
		<path class="st8" d="M499.2000122,210.5v17.1999969h-0.7999878V210.5H499.2000122 M500.2000122,209.5h-2.7999878v19.1999969
			h2.7999878V209.5L500.2000122,209.5z"/>
	</g>
	<path id="Vector_3" class="st11" d="M504.6000061,219.1000061h4.7999878 M505.7999878,217l2.3999939,4.1999969
		 M505.7999878,221.1999969L508.1999817,217"/>
</g>
<g id="Numbers">
	<g>
		<path class="st6" d="M330.5,256.7000122h0.7000122v0.8999939H330.5v1.6000061h-1v-1.6000061h-3L326.2999878,257
			l3.6000061-4.3999939h0.7000122v4.1000061H330.5z M329.5,254.3000031l-2,2.4000092h2V254.3000031z"/>
		<path class="st6" d="M332.7000122,259.2999878c-0.2000122,0-0.2999878-0.1000061-0.5-0.2000122
			c-0.1000061-0.1000061-0.2000122-0.2999878-0.2000122-0.5s0.1000061-0.2999878,0.2000122-0.3999939
			s0.2999878-0.2000122,0.5-0.2000122s0.2999878,0.1000061,0.3999939,0.2000122s0.2000122,0.2999878,0.2000122,0.3999939
			c0,0.2000122-0.1000061,0.2999878-0.2000122,0.5S332.8999939,259.2999878,332.7000122,259.2999878z"/>
		<path class="st6" d="M336.3999939,254.8999939C337,254.8999939,337.6000061,255.0999908,338,255.5
			c0.3999939,0.3999939,0.6000061,0.8999939,0.6000061,1.6000061s-0.2000122,1.2000122-0.7000122,1.6000061
			c-0.3999939,0.3999939-1,0.6000061-1.7000122,0.6000061c-0.7999878,0-1.5-0.2999878-2.2000122-0.7999878l0.5-0.7999878
			c0.6000061,0.3999939,1.1000061,0.6000061,1.7000122,0.6000061c0.3999939,0,0.7000122-0.1000061,1-0.3999939
			c0.2999878-0.2000122,0.3999939-0.5,0.3999939-0.8999939s-0.1000061-0.7000122-0.3999939-0.8999939
			c-0.2000122-0.1999969-0.6000061-0.3999939-1-0.3999939c-0.5,0-0.8999939,0.1999969-1.2000122,0.5l-0.6000061-0.3999939
			l0.3999939-3.3000031h3.3999939v0.8999939h-2.6000061l-0.2000122,1.6000061
			C335.7000122,254.8999939,336,254.8999939,336.3999939,254.8999939z"/>
	</g>
	<g>
		<path class="st6" d="M363.1000061,249.3000031c-0.7000122,0-1.3999939-0.1999969-2.1000061-0.6999969l0.5-0.8000031
			c0.6000061,0.3999939,1.1000061,0.5,1.6000061,0.5C363.5,248.3000031,363.8000183,248.1999969,364,248
			c0.2000122-0.1999969,0.2999878-0.3999939,0.2999878-0.8000031c0-0.3000031-0.1000061-0.6000061-0.3999939-0.8000031
			c-0.2000122-0.1999969-0.5-0.3000031-0.8999939-0.3000031h-0.7999878v-0.8999939H363
			c0.2999878,0,0.6000061-0.1000061,0.7999878-0.3000031C364,244.6999969,364.0999756,244.5,364.0999756,244.1999969
			s-0.1000061-0.5-0.2999878-0.6999969s-0.5-0.3000031-0.7999878-0.3000031c-0.3999939,0-0.8999939,0.1999969-1.3999939,0.6000061
			l-0.5-0.6999969c0.2000122-0.1999969,0.5-0.3999939,0.8999939-0.6000061
			c0.3999939-0.1000061,0.7000122-0.1999969,1.1000061-0.1999969c0.6000061,0,1.1000061,0.1999969,1.5,0.5
			s0.6000061,0.8000031,0.6000061,1.1999969s-0.1000061,0.6999969-0.2999878,0.8999939
			c-0.2000122,0.3000031-0.5,0.5-0.7999878,0.6000061l0,0c0.3999939,0.1000061,0.7000122,0.3000031,1,0.6000061
			c0.2000122,0.3000031,0.2999878,0.6000061,0.2999878,1.1000061c0,0.6000061-0.2000122,1-0.6000061,1.3999939
			C364.3999939,249.1999969,363.7999878,249.3000031,363.1000061,249.3000031z"/>
		<path class="st6" d="M367,249.3999939c-0.2000122,0-0.2999878-0.1000061-0.5-0.1999969
			c-0.1000061-0.1000061-0.2000122-0.3000031-0.2000122-0.5s0.1000061-0.3000031,0.2000122-0.3999939
			c0.1000061-0.1000061,0.2999878-0.1999969,0.5-0.1999969s0.2999878,0.1000061,0.3999939,0.1999969
			c0.1000061,0.1000061,0.2000122,0.3000031,0.2000122,0.3999939c0,0.1999969-0.1000061,0.3000031-0.2000122,0.5
			C367.2999878,249.3000031,367.1000061,249.3999939,367,249.3999939z"/>
		<path class="st6" d="M371,244.8999939c0.6000061,0,1.1000061,0.1999969,1.5,0.6000061
			c0.3999939,0.3999939,0.6000061,0.8999939,0.6000061,1.5s-0.2000122,1.1999969-0.7000122,1.6000061
			c-0.3999939,0.3999939-1,0.6000061-1.7000122,0.6000061c-0.7999878,0-1.3999939-0.3000031-1.7999878-0.8999939
			c-0.3999939-0.6000061-0.6000061-1.3999939-0.6000061-2.3000031c0-0.6000061,0.1000061-1.1999969,0.2999878-1.8000031
			s0.5-1,0.8999939-1.3000031c0.3999939-0.3999939,1-0.5,1.6000061-0.5c0.7000122,0,1.2999878,0.1999969,1.7000122,0.6000061
			l-0.3999939,0.8000031c-0.3999939-0.3000031-0.7999878-0.3999939-1.2000122-0.3999939
			c-0.3999939,0-0.7000122,0.1000061-1,0.3999939c-0.5,0.5-0.7999878,1.1999969-0.7999878,2.1000061
			c0.2000122-0.3000031,0.3999939-0.5,0.7000122-0.6999969S370.6000061,244.8999939,371,244.8999939z M370.7999878,248.3999939
			c0.3999939,0,0.7000122-0.1000061,0.8999939-0.3999939c0.2000122-0.3000031,0.3999939-0.6000061,0.3999939-0.8999939
			c0-0.3999939-0.1000061-0.6999969-0.3999939-0.8999939c-0.2000122-0.1999969-0.5-0.3999939-0.8999939-0.3999939
			s-0.7000122,0.1000061-0.8999939,0.3999939C369.6999817,246.4000092,369.5,246.8000183,369.5,247.1000061
			c0,0.3999939,0.1000061,0.6999969,0.3999939,0.8999939C370.1000061,248.3000031,370.3999939,248.3999939,370.7999878,248.3999939z
			"/>
	</g>
	<g>
		<path class="st6" d="M400.1000061,178.3000031L398.5,180.1000061h2.7000122v1H397v-0.8999939l2.1000061-2.3000031l0.5-0.6000061
			c0.1000061-0.1000061,0.2000122-0.3000031,0.2999878-0.5C400,176.6000061,400,176.4000092,400,176.1999969
			c0-0.3000031-0.1000061-0.5-0.2999878-0.6999969c-0.2000122-0.1999969-0.5-0.3000031-0.7999878-0.3000031
			c-0.5,0-1,0.1999969-1.6000061,0.6999969l-0.6000061-0.6999969c0.7000122-0.6000061,1.3999939-1,2.2000122-1
			c0.6000061,0,1.1000061,0.1999969,1.5,0.6000061c0.3999939,0.3999939,0.6000061,0.8999939,0.6000061,1.3999939
			C401.1000061,176.8999939,400.7999878,177.6000061,400.1000061,178.3000031z"/>
		<path class="st6" d="M401.7999878,175.3999939V174.5H406v0.6999969l-2.5,6h-1.1000061l2.5-5.6999969h-3.1000061V175.3999939z"/>
	</g>
	<g>
		<path class="st6" d="M260.2000122,214l1.8999939-1.6000061h0.7999878v6.6999969h-1v-5.3000031l-1.2000122,0.8999939
			L260.2000122,214z"/>
		<path class="st6" d="M268,216.6000061h0.7000122V217.5H268v1.6000061h-1V217.5h-3l-0.2000122-0.6000061L267.3999939,212.5
			h0.7000122v4.1000061H268z M267.1000061,214.1999969l-2,2.3999939h2V214.1999969z"/>
		<path class="st6" d="M270.2000122,219.1999969c-0.2000122,0-0.2999878-0.1000061-0.5-0.1999969
			C269.6000061,218.8999939,269.5,218.6999969,269.5,218.5s0.1000061-0.3000031,0.2000122-0.3999939
			c0.1000061-0.1000061,0.2999878-0.1999969,0.5-0.1999969s0.2999878,0.1000061,0.3999939,0.1999969
			c0.1000061,0.1000061,0.2000122,0.3000031,0.2000122,0.3999939c0,0.1999969-0.1000061,0.3000031-0.2000122,0.5
			S270.3999939,219.1999969,270.2000122,219.1999969z"/>
		<path class="st6" d="M274.2000122,214.8000031c0.6000061,0,1.1000061,0.1999969,1.5,0.6000061
			c0.3999939,0.3999939,0.6000061,0.8999939,0.6000061,1.5s-0.2000122,1.1999969-0.7000122,1.6000061
			c-0.3999939,0.3999939-1,0.6000061-1.7000122,0.6000061c-0.7999878,0-1.3999939-0.3000031-1.7999878-0.8999939
			C271.7000122,217.6000214,271.5,216.8000336,271.5,215.9000244c0-0.6000061,0.1000061-1.1999969,0.2999878-1.8000031
			c0.2000122-0.5,0.5-1,0.8999939-1.3000031c0.3999939-0.3999939,1-0.5,1.6000061-0.5
			c0.7000122,0,1.2999878,0.1999969,1.7000122,0.6000061l-0.3999939,0.8000031
			c-0.3999939-0.3000031-0.7999878-0.3999939-1.2000122-0.3999939c-0.3999939,0-0.7000122,0.1000061-1,0.3999939
			c-0.5,0.5-0.7999878,1.1999969-0.7999878,2.1000061c0.1000061-0.3000031,0.3999939-0.5,0.7000122-0.6999969
			S273.7999878,214.8000031,274.2000122,214.8000031z M274,218.3000031c0.3999939,0,0.7000122-0.1000061,0.8999939-0.3999939
			c0.2000122-0.3000031,0.3999939-0.6000061,0.3999939-0.8999939c0-0.3999939-0.1000061-0.6999969-0.3999939-0.8999939
			c-0.2000122-0.1999969-0.5-0.3999939-0.8999939-0.3999939s-0.7000122,0.1000061-0.8999939,0.3999939
			c-0.2000122,0.1999969-0.3999939,0.6000061-0.3999939,0.8999939c0,0.3999939,0.1000061,0.6999969,0.3999939,0.8999939
			C273.2999878,218.1000061,273.6000061,218.3000031,274,218.3000031z"/>
	</g>
	<g>
		<path class="st6" d="M216,145.1999969l1.8999939-1.6000061h0.8000031v6.6999969h-1V145L216.5,145.8999939L216,145.1999969z"/>
		<path class="st6" d="M222.1999969,145.8999939c0.6000061,0,1.1999969,0.1999969,1.6000061,0.6000061
			c0.3999939,0.3999939,0.6000061,0.8999939,0.6000061,1.6000061c0,0.6999969-0.1999969,1.1999969-0.6999969,1.6000061
			c-0.3999939,0.3999939-1,0.6000061-1.6999969,0.6000061c-0.8000031,0-1.5-0.3000031-2.1999969-0.8000031l0.5-0.8000031
			c0.6000061,0.3999939,1.1000061,0.6000061,1.6999969,0.6000061c0.3999939,0,0.6999969-0.1000061,1-0.3999939
			c0.3000031-0.1999969,0.3999939-0.5,0.3999939-0.8999939s-0.1000061-0.6999969-0.3999939-0.8999939
			c-0.1999969-0.1999969-0.6000061-0.3999939-1-0.3999939c-0.5,0-0.8999939,0.1999969-1.1999969,0.5l-0.6000061-0.3999939
			l0.3999939-3.3000031H224v0.8999939h-2.6000061l-0.1999969,1.6000061C221.5,146,221.8000031,145.8999939,222.1999969,145.8999939z
			"/>
		<path class="st6" d="M225.8000031,150.3999939c-0.1999969,0-0.3000031-0.1000061-0.5-0.1999969
			c-0.1000061-0.1000061-0.1999969-0.3000031-0.1999969-0.5s0.1000061-0.3000031,0.1999969-0.3999939
			c0.1000061-0.1000061,0.3000031-0.1999969,0.5-0.1999969s0.3000031,0.1000061,0.3999939,0.1999969
			c0.1000061,0.1000061,0.1999969,0.3000031,0.1999969,0.3999939c0,0.1999969-0.1000061,0.3000031-0.1999969,0.5
			C226.1999969,150.3000031,226,150.3999939,225.8000031,150.3999939z"/>
		<path class="st6" d="M231.1999969,147.6999969h0.6999969v0.8999939h-0.6999969v1.6000061h-1v-1.6000061h-3L227,148
			l3.6000061-4.3999939h0.6999969v4.0999908H231.1999969z M230.3000031,145.3000031l-2,2.3999939h2V145.3000031z"/>
	</g>
	<g>
		<path class="st6" d="M218.6999969,363.3999939l1.8999939-1.6000061h0.8000031V368.5h-1v-5.2999878l-1.1999969,0.8999939
			L218.6999969,363.3999939z"/>
		<path class="st6" d="M225.3000031,364.2000122c0.6000061,0,1.1000061,0.2000122,1.5,0.6000061s0.6000061,0.8999939,0.6000061,1.5
			s-0.1999969,1.2000122-0.6999969,1.6000061c-0.3999939,0.3999939-1,0.6000061-1.6999969,0.6000061
			c-0.8000031,0-1.3999939-0.2999878-1.8000031-0.8999939c-0.3999939-0.6000061-0.6000061-1.3999939-0.6000061-2.2999878
			c0-0.6000061,0.1000061-1.2000122,0.3000031-1.7999878c0.1999969-0.5,0.5-1,0.8999939-1.2999878
			c0.3999939-0.3999939,1-0.5,1.6000061-0.5c0.6999969,0,1.3000031,0.2000122,1.6999969,0.6000061l-0.3999939,0.7999878
			c-0.3999939-0.2999878-0.8000031-0.3999939-1.1999969-0.3999939s-0.6999969,0.1000061-1,0.3999939
			c-0.5,0.5-0.8000031,1.2000122-0.8000031,2.1000061c0.1000061-0.2999878,0.3999939-0.5,0.6999969-0.7000122
			S224.8999939,364.2000122,225.3000031,364.2000122z M225.1000061,367.6000061
			c0.3999939,0,0.6999969-0.1000061,0.8999939-0.3999939s0.3999939-0.6000061,0.3999939-0.8999939
			c0-0.3999939-0.1000061-0.7000122-0.3999939-0.8999939c-0.1999969-0.2000122-0.5-0.3999939-0.8999939-0.3999939
			s-0.6999969,0.1000061-0.8999939,0.3999939c-0.1999969,0.2000122-0.3999939,0.6000061-0.3999939,0.8999939
			c0,0.3999939,0.1000061,0.7000122,0.3999939,0.8999939C224.5,367.5,224.8000031,367.6000061,225.1000061,367.6000061z"/>
		<path class="st6" d="M228.8999939,368.6000061c-0.1999969,0-0.3000031-0.1000061-0.5-0.2000122
			c-0.1000061-0.1000061-0.1999969-0.2999878-0.1999969-0.5s0.1000061-0.2999878,0.1999969-0.3999939
			c0.1000061-0.1000061,0.3000031-0.2000122,0.5-0.2000122s0.3000031,0.1000061,0.3999939,0.2000122
			c0.1000061,0.1000061,0.1999969,0.2999878,0.1999969,0.3999939c0,0.2000122-0.1000061,0.2999878-0.1999969,0.5
			S229,368.6000061,228.8999939,368.6000061z"/>
		<path class="st6" d="M230,362.7999878v-0.8999939h4.1999969v0.7000122l-2.5,6h-1.1000061l2.5-5.7000122H230V362.7999878z"/>
	</g>
	<g>
		<path class="st6" d="M394.7999878,353.2999878c0.6000061,0,1.2000122,0.2000122,1.6000061,0.6000061S397,354.7999878,397,355.5
			s-0.2000122,1.2000122-0.7000122,1.6000061c-0.3999939,0.3999939-1,0.6000061-1.7000122,0.6000061
			c-0.7999878,0-1.5-0.2999878-2.2000122-0.7999878l0.5-0.7999878c0.6000061,0.3999939,1.1000061,0.6000061,1.7000122,0.6000061
			c0.3999939,0,0.7000122-0.1000061,1-0.3999939c0.2999878-0.2000122,0.3999939-0.5,0.3999939-0.8999939
			s-0.1000061-0.7000122-0.3999939-0.8999939c-0.2000122-0.2000122-0.6000061-0.3999939-1-0.3999939
			c-0.5,0-0.8999939,0.2000122-1.2000122,0.5l-0.6000061-0.3999939l0.3999939-3.2999878h3.3999939v0.8999939H394
			l-0.2000122,1.6000061C394.1000061,353.2999878,394.3999939,353.2999878,394.7999878,353.2999878z"/>
		<path class="st6" d="M398.5,357.7000122c-0.2000122,0-0.2999878-0.1000061-0.5-0.2000122s-0.2000122-0.2999878-0.2000122-0.5
			s0.1000061-0.2999878,0.2000122-0.3999939s0.2999878-0.2000122,0.5-0.2000122s0.2999878,0.1000061,0.3999939,0.2000122
			s0.2000122,0.2999878,0.2000122,0.3999939c0,0.2000122-0.1000061,0.2999878-0.2000122,0.5
			S398.6000061,357.7000122,398.5,357.7000122z"/>
		<path class="st6" d="M399.5,351.8999939V351h4.2000122v0.7000122l-2.5,6h-1.1000061l2.5-5.7000122H399.5V351.8999939z"/>
	</g>
	<g>
		<path class="st6" d="M423.8999939,262.2000122L422.2999878,264H425v1h-4.2000122v-0.8999939l2.1000061-2.2999878l0.5-0.6000061
			c0.1000061-0.1000061,0.2000122-0.2999878,0.2999878-0.5c0.1000061-0.2000122,0.1000061-0.3999939,0.1000061-0.6000061
			c0-0.2999878-0.1000061-0.5-0.2999878-0.7000122c-0.2000122-0.2000122-0.5-0.2999878-0.7999878-0.2999878
			c-0.5,0-1,0.2000122-1.6000061,0.7000122L420.5,259.1000061c0.7000122-0.6000061,1.3999939-1,2.2000122-1
			c0.6000061,0,1.1000061,0.2000122,1.5,0.6000061s0.6000061,0.8999939,0.6000061,1.3999939
			C424.8999939,260.7999878,424.6000061,261.5,423.8999939,262.2000122z"/>
		<path class="st6" d="M426.5,265.1000061c-0.2000122,0-0.2999878-0.1000061-0.5-0.2000122
			c-0.1000061-0.1000061-0.2000122-0.2999878-0.2000122-0.5S425.8999939,264.1000061,426,264s0.2999878-0.2000122,0.5-0.2000122
			s0.2999878,0.1000061,0.3999939,0.2000122s0.2000122,0.2999878,0.2000122,0.3999939
			c0,0.2000122-0.1000061,0.2999878-0.2000122,0.5C426.7999878,265,426.7000122,265.1000061,426.5,265.1000061z"/>
		<path class="st6" d="M427.6000061,259.2000122v-0.8999939h4.2000122v0.7000122l-2.5,6h-1.1000061l2.5-5.7000122h-3.1000061
			V259.2000122z"/>
	</g>
	<g>
		<path class="st6" d="M466.8999939,287.1000061c0.6000061,0,1.2000122,0.2000122,1.6000061,0.6000061
			s0.6000061,0.8999939,0.6000061,1.6000061s-0.2000122,1.2000122-0.7000122,1.6000061
			c-0.3999939,0.3999939-1,0.6000061-1.7000122,0.6000061c-0.7999878,0-1.5-0.2999878-2.2000122-0.7999878l0.5-0.7999878
			c0.6000061,0.3999939,1.1000061,0.6000061,1.7000122,0.6000061c0.3999939,0,0.7000122-0.1000061,1-0.3999939
			c0.2999878-0.2000122,0.3999939-0.5,0.3999939-0.8999939s-0.1000061-0.7000122-0.3999939-0.8999939
			c-0.2000122-0.2000122-0.6000061-0.3999939-1-0.3999939c-0.5,0-0.8999939,0.2000122-1.2000122,0.5l-0.6000061-0.3999939
			l0.3999939-3.2999878h3.3999939v0.8999939h-2.6000061l-0.2000122,1.6000061
			C466.2000122,287.2000122,466.5,287.1000061,466.8999939,287.1000061z"/>
		<path class="st6" d="M470.5,291.6000061c-0.2000122,0-0.2999878-0.1000061-0.5-0.2000122s-0.2000122-0.2999878-0.2000122-0.5
			S469.8999939,290.6000061,470,290.5s0.2999878-0.2000122,0.5-0.2000122s0.2999878,0.1000061,0.3999939,0.2000122
			s0.2000122,0.2999878,0.2000122,0.3999939c0,0.2000122-0.1000061,0.2999878-0.2000122,0.5
			S470.7000122,291.6000061,470.5,291.6000061z"/>
		<path class="st6" d="M475.1000061,288.7000122L473.5,290.5h2.7000122v1H472v-0.8999939l2.1000061-2.2999878l0.5-0.6000061
			c0.1000061-0.1000061,0.2000122-0.2999878,0.2999878-0.5C475,287,475,286.8000183,475,286.6000061
			c0-0.2999878-0.1000061-0.5-0.2999878-0.7000122c-0.2000122-0.2000122-0.5-0.2999878-0.7999878-0.2999878
			c-0.5,0-1,0.2000122-1.6000061,0.7000122l-0.6000061-0.7000122c0.7000122-0.6000061,1.3999939-1,2.2000122-1
			c0.6000061,0,1.1000061,0.2000122,1.5,0.6000061s0.6000061,0.8999939,0.6000061,1.3999939
			C476.2000122,287.2999878,475.7999878,287.8999939,475.1000061,288.7000122z"/>
	</g>
</g>
<g id="street_anchors" class="st13">
	<rect id="street_x5F_anchor_x5F_03" x="561.7000122" y="235" class="st14" width="10" height="10"/>
	<rect id="street_x5F_anchor_x5F_02" x="148.3000031" y="235" class="st14" width="10" height="10"/>
	<rect id="street_x5F_anchor_x5F_01_1_" x="355" y="20.1000004" class="st14" width="10" height="10"/>
</g>
</svg>
