<?xml version="1.0" encoding="utf-8"?>
<!-- Generator: Adobe Illustrator 24.2.0, SVG Export Plug-In . SVG Version: 6.00 Build 0)  -->
<!DOCTYPE svg PUBLIC "-//W3C//DTD SVG 1.1//EN" "http://www.w3.org/Graphics/SVG/1.1/DTD/svg11.dtd" [
	<!ENTITY ns_extend "http://ns.adobe.com/Extensibility/1.0/">
	<!ENTITY ns_ai "http://ns.adobe.com/AdobeIllustrator/10.0/">
	<!ENTITY ns_graphs "http://ns.adobe.com/Graphs/1.0/">
	<!ENTITY ns_vars "http://ns.adobe.com/Variables/1.0/">
	<!ENTITY ns_imrep "http://ns.adobe.com/ImageReplacement/1.0/">
	<!ENTITY ns_sfw "http://ns.adobe.com/SaveForWeb/1.0/">
	<!ENTITY ns_custom "http://ns.adobe.com/GenericCustomNamespace/1.0/">
	<!ENTITY ns_adobe_xpath "http://ns.adobe.com/XPath/1.0/">
]>
<svg version="1.1" id="_x31__x5F_2" xmlns:x="&ns_extend;" xmlns:i="&ns_ai;" xmlns:graph="&ns_graphs;"
	 xmlns="http://www.w3.org/2000/svg" xmlns:xlink="http://www.w3.org/1999/xlink" x="0px" y="0px" viewBox="0 0 720 480"
	 style="enable-background:new 0 0 720 480;" xml:space="preserve">
<style type="text/css">
	.st0{fill:#DBD4CA;}
	.st1{clip-path:url(#SVGID_2_);}
	.st2{fill:none;stroke:#C49F8A;stroke-miterlimit:10;}
	.st3{opacity:0.3;clip-path:url(#SVGID_2_);}
	.st4{opacity:0.7;fill:#C49F8A;}
	.st5{clip-path:url(#SVGID_4_);}
	.st6{opacity:0.3;clip-path:url(#SVGID_4_);}
	.st7{fill:none;stroke:#565440;}
	.st8{fill:#565440;}
	.st9{fill:#E9E4DC;}
	.st10{fill:#C49F8A;}
	.st11{fill:#E9E4DC;stroke:#C49F8A;}
	.st12{fill:#E9E4DC;stroke:#C49F8A;stroke-miterlimit:3.9998;}
	.st13{fill:none;stroke:#C49F8A;}
	.st14{fill:#E9E4DC;stroke:#C49F8A;stroke-linejoin:round;}
	.st15{fill:none;}
</style>
<metadata>
	<sfw  xmlns="&ns_sfw;">
		<slices></slices>
		<sliceSourceBounds  bottomLeftOrigin="true" height="801.4501953" width="667.6734619" x="31.2368927" y="-189.5361176">
			</sliceSourceBounds>
	</sfw>
</metadata>
<polygon id="Floor" class="st0" points="455.6000061,349.7619934 447,343.1999817 444.2000122,315.3999634 445.2000122,308.5999756 
	455.6000061,265.7999573 447.7999878,263.0999756 445,232.9999847 445.7000122,229.2999878 454.6000061,190.9999847 
	445.7000122,189.3999786 445.2000122,150.1999817 445.2000122,105.1999741 451.5,78.2999802 397.5,65.7999802 
	395.3999939,74.8999786 314.8999939,75.4999771 273.7000122,66.0999756 271.2999878,73.6999741 259.2000122,73.6999741 
	259.2000122,292.8999634 259.2000122,373.7999573 259.2000122,416.1999817 445.4601135,416.1999817 445.9790649,389.8479004 
	449.9885559,374.358429 "/>
<g id="Wet_Floor">
	<g id="Wet_Floor_1_">
		<defs>
			<rect id="SVGID_1_" x="262.1533813" y="346.1165771" width="56.2453995" height="69.4601212"/>
		</defs>
		<clipPath id="SVGID_2_">
			<use xlink:href="#SVGID_1_"  style="overflow:visible;"/>
		</clipPath>
		<g class="st1">
			<g>
				<line class="st2" x1="42.011795" y1="346.1207581" x2="375.4949951" y2="12.6375656"/>
				<line class="st2" x1="31.5904465" y1="335.6994019" x2="365.0736389" y2="2.2162173"/>
				<line class="st2" x1="52.4331436" y1="356.5421143" x2="385.9163513" y2="23.0589142"/>
				<line class="st2" x1="62.8544922" y1="366.9634705" x2="396.337677" y2="33.4802628"/>
				<line class="st2" x1="73.2758408" y1="377.3847961" x2="406.7590332" y2="43.9016113"/>
				<line class="st2" x1="83.6971893" y1="387.8061523" x2="417.1803894" y2="54.3229599"/>
				<line class="st2" x1="94.1185379" y1="398.2275085" x2="427.6017456" y2="64.7443085"/>
				<line class="st2" x1="104.5398865" y1="408.6488647" x2="438.0230713" y2="75.165657"/>
				<line class="st2" x1="114.961235" y1="419.0701904" x2="448.4444275" y2="85.5870056"/>
				<line class="st2" x1="125.3825836" y1="429.4915466" x2="458.8657837" y2="96.0083542"/>
				<line class="st2" x1="114.961235" y1="419.0701904" x2="448.4444275" y2="85.5870056"/>
				<line class="st2" x1="135.8039246" y1="439.9129028" x2="469.2871399" y2="106.4297028"/>
				<line class="st2" x1="146.2252808" y1="450.334259" x2="479.7084656" y2="116.8510513"/>
				<line class="st2" x1="156.6466217" y1="460.7555847" x2="490.1298218" y2="127.2723999"/>
				<line class="st2" x1="167.0679779" y1="471.1769409" x2="500.551178" y2="137.6937408"/>
				<line class="st2" x1="177.4893188" y1="481.5982971" x2="510.9725342" y2="148.115097"/>
				<line class="st2" x1="187.910675" y1="492.0196533" x2="521.3938599" y2="158.536438"/>
				<line class="st2" x1="198.332016" y1="502.440979" x2="531.8152466" y2="168.9577942"/>
				<line class="st2" x1="208.7533722" y1="512.8623657" x2="542.2365723" y2="179.3791351"/>
				<line class="st2" x1="198.332016" y1="502.440979" x2="531.8152466" y2="168.9577942"/>
				<line class="st2" x1="219.1747131" y1="523.2836914" x2="552.6578979" y2="189.8004913"/>
				<line class="st2" x1="229.5960693" y1="533.7050171" x2="563.0792847" y2="200.2218323"/>
				<line class="st2" x1="240.0174103" y1="544.1264038" x2="573.5006104" y2="210.6431885"/>
				<line class="st2" x1="250.4387665" y1="554.5477295" x2="583.921936" y2="221.0645294"/>
				<line class="st2" x1="260.8601074" y1="564.9690552" x2="594.3433228" y2="231.4858856"/>
				<line class="st2" x1="271.2814636" y1="575.3904419" x2="604.7646484" y2="241.9072266"/>
				<line class="st2" x1="281.7028198" y1="585.8117676" x2="615.1860352" y2="252.3285828"/>
				<line class="st2" x1="292.1241455" y1="596.2331543" x2="625.6073608" y2="262.749939"/>
				<line class="st2" x1="281.7028198" y1="585.8117676" x2="615.1860352" y2="252.3285828"/>
				<line class="st2" x1="302.5455017" y1="606.65448" x2="636.0286865" y2="273.1712646"/>
				<line class="st2" x1="312.9668579" y1="617.0758057" x2="646.4500732" y2="283.5926208"/>
				<line class="st2" x1="323.3882141" y1="627.4971924" x2="656.8713989" y2="294.0139771"/>
				<line class="st2" x1="333.8095398" y1="637.9185181" x2="667.2927246" y2="304.4353333"/>
				<line class="st2" x1="344.230896" y1="648.3398438" x2="677.7141113" y2="314.8566589"/>
				<line class="st2" x1="354.6522522" y1="658.7612305" x2="688.135437" y2="325.2780151"/>
				<line class="st2" x1="365.0736084" y1="669.1825562" x2="698.5567627" y2="335.6993713"/>
			</g>
			<g>
				<line class="st2" x1="375.4949036" y1="658.7610474" x2="42.011837" y2="325.2780151"/>
				<line class="st2" x1="365.0735474" y1="669.1824341" x2="31.5904884" y2="335.6993713"/>
				<line class="st2" x1="385.9162292" y1="648.3397217" x2="52.4331856" y2="314.8566589"/>
				<line class="st2" x1="396.3375854" y1="637.918335" x2="62.8545341" y2="304.4353027"/>
				<line class="st2" x1="406.7589417" y1="627.4970093" x2="73.2758865" y2="294.0139771"/>
				<line class="st2" x1="417.1802979" y1="617.0756836" x2="83.6972275" y2="283.5926208"/>
				<line class="st2" x1="427.6016235" y1="606.6542969" x2="94.118576" y2="273.1712646"/>
				<line class="st2" x1="438.0229797" y1="596.2329712" x2="104.5399246" y2="262.7499084"/>
				<line class="st2" x1="448.4443359" y1="585.8116455" x2="114.9612732" y2="252.3285675"/>
				<line class="st2" x1="458.8656616" y1="575.3902588" x2="125.3826218" y2="241.9072266"/>
				<line class="st2" x1="448.4443359" y1="585.8116455" x2="114.9612732" y2="252.3285675"/>
				<line class="st2" x1="469.2870178" y1="564.9689331" x2="135.8039703" y2="231.4858704"/>
				<line class="st2" x1="479.708374" y1="554.5476074" x2="146.2253265" y2="221.0645294"/>
				<line class="st2" x1="490.1297302" y1="544.1262207" x2="156.6466675" y2="210.6431732"/>
				<line class="st2" x1="500.5510559" y1="533.704895" x2="167.0680237" y2="200.2218323"/>
				<line class="st2" x1="510.9724121" y1="523.2835083" x2="177.4893646" y2="189.8004761"/>
				<line class="st2" x1="521.3937378" y1="512.8621826" x2="187.9107208" y2="179.3791351"/>
				<line class="st2" x1="531.8151245" y1="502.4408264" x2="198.3320618" y2="168.9577789"/>
				<line class="st2" x1="542.2364502" y1="492.0195007" x2="208.753418" y2="158.536438"/>
				<line class="st2" x1="531.8151245" y1="502.4408264" x2="198.3320618" y2="168.9577789"/>
				<line class="st2" x1="552.6578369" y1="481.5981445" x2="219.1747589" y2="148.1150818"/>
				<line class="st2" x1="563.0791626" y1="471.1767883" x2="229.5961151" y2="137.6937408"/>
				<line class="st2" x1="573.5004883" y1="460.7554321" x2="240.0174561" y2="127.2723923"/>
				<line class="st2" x1="583.921875" y1="450.3341064" x2="250.4388123" y2="116.8510437"/>
				<line class="st2" x1="594.3432007" y1="439.9127502" x2="260.8601685" y2="106.4296951"/>
				<line class="st2" x1="604.7645264" y1="429.491394" x2="271.2814941" y2="96.0083466"/>
				<line class="st2" x1="615.1859131" y1="419.0700378" x2="281.7028503" y2="85.586998"/>
				<line class="st2" x1="625.6072388" y1="408.6487122" x2="292.1242065" y2="75.1656494"/>
				<line class="st2" x1="615.1859131" y1="419.0700378" x2="281.7028503" y2="85.586998"/>
				<line class="st2" x1="636.0286255" y1="398.227356" x2="302.5455322" y2="64.7443008"/>
				<line class="st2" x1="646.4499512" y1="387.8059998" x2="312.9668884" y2="54.3229523"/>
				<line class="st2" x1="656.8712769" y1="377.3846436" x2="323.3882446" y2="43.9016037"/>
				<line class="st2" x1="667.2926636" y1="366.9633179" x2="333.8096008" y2="33.4802551"/>
				<line class="st2" x1="677.7139893" y1="356.5419617" x2="344.2309265" y2="23.0589066"/>
				<line class="st2" x1="688.1353149" y1="346.1206055" x2="354.6522827" y2="12.637558"/>
				<line class="st2" x1="698.5567017" y1="335.6992493" x2="365.0736389" y2="2.2162099"/>
			</g>
		</g>
		<g class="st3">
			<rect x="203.9941254" y="164.1985016" class="st4" width="322.1589355" height="322.1589355"/>
		</g>
	</g>
	<g id="Wet_Floor_2_">
		<defs>
			<rect id="SVGID_3_" x="262.1533813" y="164.5705566" width="56.3374214" height="117.2898788"/>
		</defs>
		<clipPath id="SVGID_4_">
			<use xlink:href="#SVGID_3_"  style="overflow:visible;"/>
		</clipPath>
		<g class="st5">
			<g>
				<line class="st2" x1="42.011795" y1="212.3440399" x2="375.4949951" y2="-121.1391678"/>
				<line class="st2" x1="31.5904465" y1="201.9226837" x2="365.0736389" y2="-131.5605164"/>
				<line class="st2" x1="52.4331436" y1="222.7653809" x2="385.9163513" y2="-110.7178192"/>
				<line class="st2" x1="62.8544922" y1="233.1867371" x2="396.337677" y2="-100.2964706"/>
				<line class="st2" x1="73.2758408" y1="243.608078" x2="406.7590332" y2="-89.8751221"/>
				<line class="st2" x1="83.6971893" y1="254.0294342" x2="417.1803894" y2="-79.4537735"/>
				<line class="st2" x1="94.1185379" y1="264.4507751" x2="427.6017456" y2="-69.0324249"/>
				<line class="st2" x1="104.5398865" y1="274.8721313" x2="438.0230713" y2="-58.6110725"/>
				<line class="st2" x1="114.961235" y1="285.293457" x2="448.4444275" y2="-48.189724"/>
				<line class="st2" x1="125.3825836" y1="295.7148132" x2="458.8657837" y2="-37.7683754"/>
				<line class="st2" x1="114.961235" y1="285.293457" x2="448.4444275" y2="-48.189724"/>
				<line class="st2" x1="135.8039246" y1="306.1361694" x2="469.2871399" y2="-27.3470287"/>
				<line class="st2" x1="146.2252808" y1="316.5575256" x2="479.7084656" y2="-16.9256802"/>
				<line class="st2" x1="156.6466217" y1="326.9788513" x2="490.1298218" y2="-6.5043321"/>
				<line class="st2" x1="167.0679779" y1="337.4002075" x2="500.551178" y2="3.9170163"/>
				<line class="st2" x1="177.4893188" y1="347.8215637" x2="510.9725342" y2="14.3383646"/>
				<line class="st2" x1="187.910675" y1="358.2429199" x2="521.3938599" y2="24.7597122"/>
				<line class="st2" x1="198.332016" y1="368.6642456" x2="531.8152466" y2="35.1810608"/>
				<line class="st2" x1="208.7533722" y1="379.0856018" x2="542.2365723" y2="45.6024094"/>
				<line class="st2" x1="198.332016" y1="368.6642456" x2="531.8152466" y2="35.1810608"/>
				<line class="st2" x1="219.1747131" y1="389.506958" x2="552.6578979" y2="56.0237579"/>
				<line class="st2" x1="229.5960693" y1="399.9283142" x2="563.0792847" y2="66.4451065"/>
				<line class="st2" x1="240.0174103" y1="410.3496399" x2="573.5006104" y2="76.8664551"/>
				<line class="st2" x1="250.4387665" y1="420.7709961" x2="583.921936" y2="87.2878036"/>
				<line class="st2" x1="260.8601074" y1="431.1923523" x2="594.3433228" y2="97.7091522"/>
				<line class="st2" x1="271.2814636" y1="441.6137085" x2="604.7646484" y2="108.1305008"/>
				<line class="st2" x1="281.7028198" y1="452.0350342" x2="615.1860352" y2="118.5518494"/>
				<line class="st2" x1="292.1241455" y1="462.4563904" x2="625.6073608" y2="128.9731903"/>
				<line class="st2" x1="281.7028198" y1="452.0350342" x2="615.1860352" y2="118.5518494"/>
				<line class="st2" x1="302.5455017" y1="472.8777466" x2="636.0286865" y2="139.3945465"/>
				<line class="st2" x1="312.9668579" y1="483.2991028" x2="646.4500732" y2="149.8158875"/>
				<line class="st2" x1="323.3882141" y1="493.7204285" x2="656.8713989" y2="160.2372437"/>
				<line class="st2" x1="333.8095398" y1="504.1417847" x2="667.2927246" y2="170.6585846"/>
				<line class="st2" x1="344.230896" y1="514.5631104" x2="677.7141113" y2="181.0799408"/>
				<line class="st2" x1="354.6522522" y1="524.9844971" x2="688.135437" y2="191.5012817"/>
				<line class="st2" x1="365.0736084" y1="535.4058228" x2="698.5567627" y2="201.9226379"/>
			</g>
			<g>
				<line class="st2" x1="375.4949036" y1="524.984314" x2="42.011837" y2="191.5012817"/>
				<line class="st2" x1="365.0735474" y1="535.4057007" x2="31.5904884" y2="201.9226227"/>
				<line class="st2" x1="385.9162292" y1="514.5629883" x2="52.4331856" y2="181.0799255"/>
				<line class="st2" x1="396.3375854" y1="504.1416321" x2="62.8545341" y2="170.6585846"/>
				<line class="st2" x1="406.7589417" y1="493.7202759" x2="73.2758865" y2="160.2372284"/>
				<line class="st2" x1="417.1802979" y1="483.2989502" x2="83.6972275" y2="149.8158875"/>
				<line class="st2" x1="427.6016235" y1="472.877594" x2="94.118576" y2="139.3945313"/>
				<line class="st2" x1="438.0229797" y1="462.4562378" x2="104.5399246" y2="128.9731903"/>
				<line class="st2" x1="448.4443359" y1="452.0348816" x2="114.9612732" y2="118.5518417"/>
				<line class="st2" x1="458.8656616" y1="441.6135559" x2="125.3826218" y2="108.1304932"/>
				<line class="st2" x1="448.4443359" y1="452.0348816" x2="114.9612732" y2="118.5518417"/>
				<line class="st2" x1="469.2870178" y1="431.1921997" x2="135.8039703" y2="97.7091446"/>
				<line class="st2" x1="479.708374" y1="420.7708435" x2="146.2253265" y2="87.287796"/>
				<line class="st2" x1="490.1297302" y1="410.3494873" x2="156.6466675" y2="76.8664474"/>
				<line class="st2" x1="500.5510559" y1="399.9281616" x2="167.0680237" y2="66.4450989"/>
				<line class="st2" x1="510.9724121" y1="389.5068054" x2="177.4893646" y2="56.0237503"/>
				<line class="st2" x1="521.3937378" y1="379.0854492" x2="187.9107208" y2="45.6024017"/>
				<line class="st2" x1="531.8151245" y1="368.664093" x2="198.3320618" y2="35.1810532"/>
				<line class="st2" x1="542.2364502" y1="358.2427673" x2="208.753418" y2="24.7597065"/>
				<line class="st2" x1="531.8151245" y1="368.664093" x2="198.3320618" y2="35.1810532"/>
				<line class="st2" x1="552.6578369" y1="347.8214111" x2="219.1747589" y2="14.338357"/>
				<line class="st2" x1="563.0791626" y1="337.4000549" x2="229.5961151" y2="3.9170091"/>
				<line class="st2" x1="573.5004883" y1="326.9786987" x2="240.0174561" y2="-6.5043392"/>
				<line class="st2" x1="583.921875" y1="316.557373" x2="250.4388123" y2="-16.9256878"/>
				<line class="st2" x1="594.3432007" y1="306.1360168" x2="260.8601685" y2="-27.3470364"/>
				<line class="st2" x1="604.7645264" y1="295.7146606" x2="271.2814941" y2="-37.768383"/>
				<line class="st2" x1="615.1859131" y1="285.2933044" x2="281.7028503" y2="-48.1897316"/>
				<line class="st2" x1="625.6072388" y1="274.8719788" x2="292.1242065" y2="-58.6110802"/>
				<line class="st2" x1="615.1859131" y1="285.2933044" x2="281.7028503" y2="-48.1897316"/>
				<line class="st2" x1="636.0286255" y1="264.4506226" x2="302.5455322" y2="-69.0324326"/>
				<line class="st2" x1="646.4499512" y1="254.0292664" x2="312.9668884" y2="-79.4537811"/>
				<line class="st2" x1="656.8712769" y1="243.6079254" x2="323.3882446" y2="-89.8751297"/>
				<line class="st2" x1="667.2926636" y1="233.1865845" x2="333.8096008" y2="-100.2964783"/>
				<line class="st2" x1="677.7139893" y1="222.7652283" x2="344.2309265" y2="-110.7178268"/>
				<line class="st2" x1="688.1353149" y1="212.3438873" x2="354.6522827" y2="-121.1391678"/>
				<line class="st2" x1="698.5567017" y1="201.9225311" x2="365.0736389" y2="-131.5605164"/>
			</g>
		</g>
		<g class="st6">
			<rect x="203.9941254" y="30.4217682" class="st4" width="322.1589355" height="322.1589355"/>
		</g>
	</g>
</g>
<g id="Windows">
	<polygon class="st7" points="455.9156189,75.5718842 396.6156311,61.7352104 395.8743591,65.4413681 451.7151489,78.2898407 
		445.2910461,106.2101135 445.2910461,152.6616974 448.9971619,152.6616974 448.9971619,106.2101135 	"/>
	<polygon class="st7" points="454.9271851,267.3081665 458.6333923,268.049469 448.7502136,311.2890015 445.0438843,310.5479431 	
		"/>
	<polygon class="st7" points="454.9271851,190.7124786 458.6333923,191.4537659 448.7502136,234.6932831 445.0438843,233.9520111 	
		"/>
	<polygon class="st7" points="272.5798645,62.2293129 319.0314636,72.8539352 318.2904358,76.5600891 271.8385925,65.9357224 	"/>
	<polygon class="st7" points="448.6199341,394.6106873 445.0381165,393.679657 455.6565247,352.5908813 459.2383728,353.521637 	"/>
</g>
<path id="Doors" class="st7" d="M291.3583374,279.6625366c0-2.7179565,0.4941101-4.9415283,1.4825439-7.4125671
	c0.9882202-2.4707642,2.4707642-4.6946411,4.200531-6.4241028c1.7294922-1.9766846,3.9533691-3.4592285,6.4241333-4.4474487
	c2.4707336-0.9881897,4.9415588-1.4825439,7.6596985-1.4825439v19.7666626 M316.0666199,188.2417145
	c-2.717926,0-4.9415894-0.4941101-7.4125671-1.4825592c-2.4707642-0.9882202-4.6943359-2.4707794-6.4241333-4.2005157
	c-1.9766235-1.7295074-3.459259-3.9533386-4.4474487-6.4241028c-0.9884644-2.4707794-1.4825439-4.9415436-1.4825439-7.6595001
	h19.7666931 M321.0083313,163.5334778c0-2.7179565,0.4941101-4.9415436,1.4825439-7.4125824
	c0.9884338-2.4707642,2.4707642-4.6946106,4.200531-6.4241028c1.7297058-1.9766541,3.9533691-3.4592133,6.4241333-4.4474335
	c2.4707336-0.988205,4.9415894-1.4825592,7.6594849-1.4825592v19.7666779 M365.3161926,168.4750366
	c2.717926,0,4.9415894,0.4941101,7.4125671,1.4825592s4.6946411,2.4707642,6.4241028,4.2005157
	c1.9766541,1.7295074,3.4592896,3.9533386,4.4474792,6.4241028c0.9884338,2.4707642,1.4825439,4.9415436,1.4825439,7.6595001
	h-19.7666931 M266.6499023,299.4289551c3.2120361,0,6.1769714,0.7413025,9.1420593,1.9766846
	c2.9651489,1.2353821,5.9299927,2.9648743,8.153595,5.4358826c2.2238159,2.2238464,4.200531,4.941803,5.4359131,7.9066772
	s1.9766541,6.1771545,1.9766541,9.3892212h-24.7082214 M317.3019714,371.3302917
	c2.4707642,0,4.6946411,0.4941101,6.9182434,1.482605c2.2238159,0.9881897,4.4474792,2.2235718,6.1771851,4.2002563
	c1.7294617,1.7294922,3.2120056,3.7061768,4.2002258,5.9300232s1.4825439,4.6946106,1.4825439,7.1653748h-18.7782593
	 M411.193573,333.5264282c0,2.7179565,0.4941101,4.941803,1.4825439,7.4125671
	c0.9884338,2.4707947,2.4707336,4.6946106,4.200531,6.4241333c1.7297058,1.9766846,3.9533691,3.4592285,6.4241028,4.4474182
	c2.4707642,0.9882202,4.9415894,1.4825745,7.6595154,1.4825745v-19.7666931"/>
<g id="Walls">
	<path class="st8" d="M266.6357422,281.8809204h24.7084351v-2.4707642h-24.7084351v-36.2102051H276v-8.0177612h40.0524292
		v44.2279663h-4.9415894v2.4707642h4.9415894h2.4707642v-2.4707642v-91.1738892h-2.4707642v44.4749146H276v-0.0001221v-0.0111084
		h-9.3642578v-66.7011719h49.416687v2.4707642h2.4707642v-2.4707642h2.4707031v-2.4707642h-54.3581543V79.5197754h7.4125366
		l3.9533081-16.8015747l-7.1654053-1.7297363l-2.6162109,11.1187134h-1.5842285h-7.4123535v227.3165894h7.4123535V281.8809204z
		 M273.5,240.6999512h-6.8642578v-5.5H273.5V240.6999512z"/>
	<polygon class="st8" points="362.9983521,163.5280151 340.7606201,163.5280151 340.7606201,165.9987793 362.9983521,165.9987793 
		362.9983521,168.5414429 365.4691162,168.5414429 365.4691162,84.4613037 397.5898438,84.4613037 397.5898438,84.4060669 
		397.836792,84.4613037 402.7783813,62.7182007 390.6713867,60 387.9199219,72.1071777 365.4691162,72.1071777 
		311.1108398,72.1071777 311.1108398,79.5197754 362.9983521,79.5197754 	"/>
	<polygon class="st8" points="451.3967896,231.7950439 439.3540649,229.0770874 437.130249,238.4663696 437.130249,270.732605 
		449.420166,270.732605 449.420166,270.7124634 458.3153687,272.7092896 460.0447998,265.5438843 449.420166,263.1588745 
		449.420166,240.3606567 	"/>
	<polygon class="st8" points="365.4118652,188.2416992 362.940918,188.2416992 362.940918,191.8856812 345.6452026,191.8856812 
		345.6452026,194.3566895 449.420166,194.3363037 458.3153687,196.333374 460.0447998,189.1677246 449.420166,186.7827759 
		449.420166,150.1986084 434.640564,150.1986084 434.640564,191.8856812 365.4118652,191.8856812 	"/>
	<polygon class="st8" points="449.4107666,345.0328369 449.4117432,342.6754761 449.4119873,342.6754761 449.4119873,342.1296387 
		449.4152222,334.0145874 449.420166,334.0145874 449.420166,310.612854 434.6176758,310.612854 434.6176758,326.6019897 
		434.6179199,326.6019897 434.6179199,326.6027222 430.9460449,326.6027222 430.9460449,334.0145874 434.6176758,334.0145874 
		434.6176758,334.0210571 434.6179199,334.0210571 434.6179199,352.2790527 448.0288696,352.2790527 459.0386963,354.7503052 
		459.0394897,354.7481079 459.046875,354.7498169 460.7766113,347.5844727 	"/>
	<path class="st8" d="M439.3348999,390.8147583l-2.2238159,9.3892212v12.383667h-18.5439453H318.5231934v-23.225647h-2.4707642
		v23.225647h-49.416687v-64.9828491h49.416687v24.2141724h2.4707642v-37.8036499h92.656189v-7.4125977H318V319.5h-11.7000122
		v10.8435669v2.0563965v12.7340698h-39.6642456V324.131958h-7.4123535V420h190.1960449l-0.0054932-8.6310425h-0.0072021
		l-0.0056763-9.2706299l1.9768677-8.5656128L439.3348999,390.8147583z M315.5,322v4.6027222h-6.7000122V322H315.5z
		 M308.7999878,334.0153198h7.2524414v1.1135254H316v10.005188h-7.2000122V334.0153198z"/>
</g>
<g id="Furniture_2_">
	<g>
		<g>
			<rect x="365.9552002" y="84.9447632" class="st9" width="31" height="53.1000061"/>
			<path class="st10" d="M396.4552002,85.4447632v52.1000061h-30V85.4447632H396.4552002 M397.4552002,84.4447632h-32v54.1000061h32
				V84.4447632L397.4552002,84.4447632z"/>
		</g>
		<rect x="382.2552185" y="88.2447662" class="st11" width="12.5" height="13.4000015"/>
		<rect x="368.1552124" y="88.2447662" class="st11" width="12.5" height="13.4000015"/>
		<polygon class="st12" points="393.1552124,96.1447601 384.1552124,92.7447662 381.7552185,105.6447601 390.7552185,109.0447617 		
			"/>
		<polygon class="st12" points="381.0552063,105.6447601 378.6552124,92.7447662 369.6552124,96.1447601 372.0552063,109.1447601 		
			"/>
		<g>
			<polygon class="st9" points="365.9552002,138.4447632 365.9552002,96.1447601 378.2552185,95.0447617 396.9552002,98.9447632 
				396.9552002,138.4447632 			"/>
			<path class="st10" d="M378.1552124,95.6447601l18.2000122,3.8000031v38.6000061h-30V96.6447601L378.1552124,95.6447601
				 M378.2552185,94.5447617l-12.7999878,1.0999985v0.9000015v42.4000015h32V98.8447647v-0.3000031L378.2552185,94.5447617
				L378.2552185,94.5447617z"/>
		</g>
		<polyline class="st13" points="365.8551941,97.1447601 378.3551941,97.1447601 397.0552063,99.3447647 		"/>
	</g>
	<g>
		<g>
			<rect x="267.1000061" y="84.4999771" class="st9" width="48.1000061" height="40.1999969"/>
			<path class="st10" d="M314.7000122,84.9999771v39.1999969h-47.1000061V84.9999771H314.7000122 M315.7000122,83.9999771
				h-49.1000061v41.1999969h49.1000061V83.9999771L315.7000122,83.9999771z"/>
		</g>
		<rect x="270.1000061" y="87.4999771" class="st11" width="12.1000061" height="16.0999985"/>
		<rect x="270.1000061" y="105.5999756" class="st11" width="12.1000061" height="16.0999985"/>
		<polygon class="st12" points="277.2999878,89.4999771 274.2000122,101.0999756 285.8999939,104.1999741 289.1000061,92.5999756 		
			"/>
		<polygon class="st12" points="285.8999939,105.0999756 274.2000122,108.1999741 277.2999878,119.7999802 289.1000061,116.6999741 
					"/>
		<g>
			<polygon class="st9" points="277.3999939,124.6999741 276.3999939,108.7999802 279.8999939,84.5999756 315.7000122,84.5999756 
				315.7000122,124.6999741 			"/>
			<path class="st10" d="M315.2000122,85.0999756v39.2000046h-37.3999939l-1-15.4000015l3.5-23.7000046L315.2000122,85.0999756
				 M316.2000122,84.0999756h-36.3999939h-0.2999878l-3.6000061,24.7000046l1,16.5h0.7999878h38.5V84.0999756
				L316.2000122,84.0999756z"/>
		</g>
		<polyline class="st13" points="278.2000122,124.6999741 278.2000122,108.5999756 280.2000122,84.4999771 		"/>
	</g>
	<g>
		<g>
			<rect x="363.8999939" y="363.9999695" class="st9" width="40.2000122" height="48.1000061"/>
			<path class="st10" d="M364.3999939,364.4999695h39.2000122v47.1000061h-39.2000122V364.4999695 M363.3999939,363.4999695
				v49.1000061h41.2000122v-49.1000061H363.3999939L363.3999939,363.4999695z"/>
		</g>
		<rect x="366.8999939" y="396.8999634" class="st11" width="16.1000061" height="12.1000061"/>
		<rect x="385" y="396.8999634" class="st11" width="16.1000061" height="12.1000061"/>
		<polygon class="st12" points="368.8999939,401.8999634 380.5,404.9999695 383.6000061,393.2999573 372,390.0999756 		"/>
		<polygon class="st12" points="384.3999939,393.2999573 387.5,404.9999695 399.1000061,401.8999634 396,390.0999756 		"/>
		<g>
			<polygon class="st9" points="363.8999939,399.2999573 363.8999939,363.4999695 404,363.4999695 404,401.7999573 
				388.1000061,402.7999573 			"/>
			<path class="st10" d="M364.3999939,363.9999695h39.2000122v37.3999939l-15.3999939,1l-23.7000122-3.5v-34.8999939
				 M363.3999939,362.9999695v36.5v0.2999878l24.7000122,3.6000061l16.5-1v-0.7999878v-38.6000061H363.3999939
				L363.3999939,362.9999695z"/>
		</g>
		<polyline class="st13" points="404,400.9999695 387.8999939,400.9999695 363.7999878,398.9999695 		"/>
	</g>
	<g>
		<g>
			<rect x="346.6108704" y="131.5346222" class="st9" width="1.7999878" height="31.5"/>
			<path class="st10" d="M347.9108582,132.0346222v30.5h-0.7999878v-30.5H347.9108582 M348.9108582,131.0346222h-2.7999878v32.5
				h2.7999878V131.0346222L348.9108582,131.0346222z"/>
		</g>
		<g>
			<rect x="348.4108582" y="131.5346222" class="st9" width="14.1000061" height="31.5"/>
			<path class="st10" d="M362.0108643,132.0346222v30.5h-13.1000061v-30.5H362.0108643 M363.0108643,131.0346222h-15.1000061v32.5
				h15.1000061V131.0346222L363.0108643,131.0346222z"/>
		</g>
		<path class="st11" d="M362.4108582,163.0346222l-13.8999939-31.6000061"/>
	</g>
	<g>
		<g>
			<rect x="397.9472351" y="175.7147064" class="st9" width="36.2000122" height="10"/>
			<path class="st10" d="M398.4472351,176.2147064h35.2000122v9h-35.2000122V176.2147064 M397.4472351,175.2147064v11h37.2000122
				v-11H397.4472351L397.4472351,175.2147064z"/>
		</g>
		<g>
			<rect x="398.0472412" y="177.3147125" class="st9" width="36.2000122" height="14.1000061"/>
			<path class="st10" d="M433.6472473,177.8147125v13.1000061h-35.2000122v-13.1000061H433.6472473 M434.6472473,176.8147125
				h-37.2000122v15.1000061h37.2000122V176.8147125L434.6472473,176.8147125z"/>
		</g>
		<path class="st11" d="M398.0472412,191.3147125l36.2000122-13.8999939"/>
	</g>
	<g>
		<g>
			<rect x="267.1312256" y="329.9360657" class="st9" width="38.7000122" height="1.8999939"/>
			<path class="st10" d="M305.3312073,330.4360657v0.8999939h-37.7000122v-0.8999939H305.3312073 M306.3312073,329.4360657
				h-39.7000122v2.8999939h39.7000122V329.4360657L306.3312073,329.4360657z"/>
		</g>
		<g>
			<rect x="267.1312256" y="331.8360596" class="st9" width="38.7000122" height="12.7999878"/>
			<path class="st10" d="M305.3312073,332.3360596v11.7999878h-37.7000122v-11.7999878H305.3312073 M306.3312073,331.3360596
				h-39.7000122v13.7999878h39.7000122V331.3360596L306.3312073,331.3360596z"/>
		</g>
		<path class="st11" d="M267.2312317,344.5360718l38.7000122-12.7000122"/>
	</g>
	<g>
		<g>
			<rect x="331.7999878" y="334.4999695" class="st9" width="1.7999878" height="33.7000122"/>
			<path class="st10" d="M333.1000061,334.9999695v32.7000122h-0.7999878v-32.7000122H333.1000061 M334.1000061,333.9999695
				h-2.7999878v34.7000122h2.7999878V333.9999695L334.1000061,333.9999695z"/>
		</g>
		<g>
			<rect x="319.1000061" y="334.4999695" class="st9" width="12.7999878" height="33.7000122"/>
			<path class="st10" d="M331.2999878,334.9999695v32.7000122H319.5v-32.7000122H331.2999878 M332.2999878,333.9999695H318.5
				v34.7000122h13.7999878V333.9999695L332.2999878,333.9999695z"/>
		</g>
		<path class="st11" d="M319.1000061,368.0999756l12.7000122-33.7999878"/>
	</g>
	<g>
		<g>
			<rect x="331.7999878" y="391.3999634" class="st9" width="1.7999878" height="20.7000122"/>
			<path class="st10" d="M333.1000061,391.8999634v19.7000122h-0.7999878v-19.7000122H333.1000061 M334.1000061,390.8999634
				h-2.7999878v21.7000122h2.7999878V390.8999634L334.1000061,390.8999634z"/>
		</g>
		<g>
			<rect x="319.1000061" y="391.3999634" class="st9" width="12.7999878" height="20.7000122"/>
			<path class="st10" d="M331.2999878,391.8999634v19.7000122H319.5v-19.7000122H331.2999878 M332.2999878,390.8999634H318.5
				v21.7000122h13.7999878V390.8999634L332.2999878,390.8999634z"/>
		</g>
		<path class="st11" d="M319.1000061,412.2999573l12.7000122-21.2000122"/>
	</g>
	<g>
		<g>
			<rect x="274.7000122" y="282.2999573" class="st9" width="1.8999939" height="12.5"/>
			<path class="st10" d="M276.1000061,282.7999573v11.5h-0.8999939v-11.5H276.1000061 M277.1000061,281.7999573h-2.8999939v13.5
				h2.8999939V281.7999573L277.1000061,281.7999573z"/>
		</g>
		<g>
			<rect x="267.1000061" y="282.2999573" class="st9" width="7.6000061" height="12.5"/>
			<path class="st10" d="M274.2000122,282.7999573v11.5h-6.6000061v-11.5H274.2000122 M275.2000122,281.7999573h-8.6000061v13.5
				h8.6000061V281.7999573L275.2000122,281.7999573z"/>
		</g>
		<path class="st11" d="M267.2000122,294.6999817l7.5-12.5"/>
	</g>
	<g>
		<g>
			<rect x="267.1000061" y="214.5999908" class="st9" width="43.7000122" height="17.6000061"/>
			<path class="st10" d="M310.2999878,215.0999908v16.6000061h-42.7000122v-16.6000061H310.2999878 M311.2999878,214.0999908
				h-44.7000122v18.6000061h44.7000122V214.0999908L311.2999878,214.0999908z"/>
		</g>
		<g>
			<g>
				<path class="st14" d="M270.7000122,223.3999786c0-3.3999939,3-6.1000061,6.2999878-5.8000031
					c3.7000122,0.3000031,8.3999939,0.6000061,11.8999939,0.6000061S297,217.8999786,300.7999878,217.5999756
					c3.3999939-0.3000031,6.2999878,2.3999939,6.2999878,5.8000031s-3,6.1000061-6.2999878,5.8000031
					c-3.7000122-0.3000031-8.3999939-0.6000061-11.8999939-0.6000061S280.7999878,228.8999786,277,229.1999817
					C273.7000122,229.4999847,270.7000122,226.7999878,270.7000122,223.3999786z"/>
				<ellipse class="st14" cx="276.7000122" cy="223.3999786" rx="0.8999939" ry="0.8999939"/>
			</g>
		</g>
	</g>
	<g>
		<g>
			<rect x="298.8999939" y="235.668808" class="st9" width="16.6000061" height="10.3000031"/>
			<path class="st10" d="M315,236.168808v9.3000031h-15.6000061v-9.3000031H315 M316,235.168808h-17.6000061v11.3000031H316
				V235.168808L316,235.168808z"/>
		</g>
		<g>
			<path class="st9" d="M307.2000122,244.0688171c-1.7999878,0-3.2000122-1.3999939-3.2000122-3.1999969
				s1.3999939-3.1999969,3.2000122-3.1999969s3.2000122,1.3999939,3.2000122,3.1999969
				C310.3999939,242.668808,308.8999939,244.0688171,307.2000122,244.0688171z"/>
			<path class="st10" d="M307.2000122,238.168808c1.5,0,2.7000122,1.1999969,2.7000122,2.6999969
				s-1.2000122,2.6999969-2.7000122,2.6999969S304.5,242.3688049,304.5,240.8688049S305.7000122,238.168808,307.2000122,238.168808
				 M307.2000122,237.168808c-2,0-3.7000122,1.6999969-3.7000122,3.6999969s1.7000122,3.6999969,3.7000122,3.6999969
				s3.7000122-1.6999969,3.7000122-3.6999969C310.8999939,238.8688049,309.2000122,237.168808,307.2000122,237.168808
				L307.2000122,237.168808z"/>
		</g>
	</g>
	<g>
		<path class="st11" d="M373.5,240.3999786H410v26.4999847h-36.5V240.3999786z"/>
		<path class="st11" d="M371.2999878,246.9999847h-0.6000061c-3.7000122,0-6.6000061,3-6.6000061,6.6000061
			c0,3.6999969,3,6.5999908,6.6000061,6.5999908h0.6000061V246.9999847z"/>
		<path class="st11" d="M373.5,248.5999908H371c-2.7999878,0-5.1000061,2.3000031-5.1000061,5.1000061
			c0,2.7999725,2.2999878,5.0999908,5.1000061,5.0999908h2.6000061v-10.1999817H373.5V248.5999908z"/>
		<path class="st11" d="M412.2000122,246.9999847h0.6000061c3.7000122,0,6.6000061,3,6.6000061,6.6000061
			c0,3.6999969-3,6.5999908-6.6000061,6.5999908h-0.6000061V246.9999847z"/>
		<path class="st11" d="M410,248.5999908h2.6000061c2.7999878,0,5.1000061,2.3000031,5.1000061,5.1000061
			c0,2.7999725-2.2999878,5.0999908-5.1000061,5.0999908H410V248.5999908z"/>
		<path class="st11" d="M398.3999939,269.1999817v0.6000061c0,3.7000122-3,6.6000061-6.6000061,6.6000061
			c-3.7000122,0-6.6000061-3-6.6000061-6.6000061v-0.6000061H398.3999939z"/>
		<path class="st11" d="M396.8999939,266.8999634v2.6000061c0,2.7999878-2.2999878,5.1000061-5.1000061,5.1000061
			s-5.1000061-2.2999878-5.1000061-5.1000061v-2.6000061H396.8999939z"/>
		<path class="st11" d="M398.3999939,238.1999817v-0.6000061c0-3.6999969-3-6.6000061-6.6000061-6.6000061
			c-3.7000122,0-6.6000061,3-6.6000061,6.6000061v0.6000061H398.3999939z"/>
		<path class="st11" d="M396.8999939,240.3999786v-2.6000061c0-2.8000031-2.2999878-5.1000061-5.1000061-5.1000061
			s-5.1000061,2.3000031-5.1000061,5.1000061v2.6000061H396.8999939z"/>
	</g>
	<g>
		<g>
			<rect x="365.5" y="342.1999817" class="st9" width="36.2999878" height="1.7999878"/>
			<path class="st10" d="M401.2999878,342.6999817v0.7999878H366v-0.7999878H401.2999878 M402.2999878,341.6999817H365v2.7999878
				h37.2999878V341.6999817L402.2999878,341.6999817z"/>
		</g>
		<g>
			<rect x="365.5" y="334.4999695" class="st9" width="36.2999878" height="7.7000122"/>
			<path class="st10" d="M401.2999878,334.9999695v6.7000122H366v-6.7000122H401.2999878 M402.2999878,333.9999695H365v8.7000122
				h37.2999878V333.9999695L402.2999878,333.9999695z"/>
		</g>
		<rect x="370.7999878" y="335.7999573" class="st11" width="26.3999939" height="1.7000122"/>
		<path class="st11" d="M378.3999939,335.7999573h11.2000122l-1-1.3999939H379.5L378.3999939,335.7999573z"/>
	</g>
	<g>
		<g>
			<rect x="352.9966125" y="88.7999802" class="st9" width="1.7999878" height="36.3000031"/>
			<path class="st10" d="M354.2966309,89.2999802v35.3000031h-0.7999878V89.2999802H354.2966309 M355.2966309,88.2999802h-2.7999878
				v37.3000031h2.7999878V88.2999802L355.2966309,88.2999802z"/>
		</g>
		<g>
			<rect x="354.7966309" y="88.7999802" class="st9" width="7.7000122" height="36.3000031"/>
			<path class="st10" d="M361.9966125,89.2999802v35.3000031h-6.7000122V89.2999802H361.9966125 M362.9966125,88.2999802h-8.7000122
				v37.3000031h8.7000122V88.2999802L362.9966125,88.2999802z"/>
		</g>
		<rect x="359.4966125" y="93.3999786" class="st11" width="1.7000122" height="26.4000015"/>
		<path class="st11" d="M361.1966248,112.1999741v-11.1999969l1.3999939,1v9.0999985L361.1966248,112.1999741z"/>
	</g>
	<g>
		<path class="st11" d="M412.3263855,136.1986237V122.198616l12.7000122-1.9000015v17.8000031L412.3263855,136.1986237z"/>
		<g>
			<rect x="423.7263794" y="107.3986206" class="st9" width="20.6000061" height="42.3000031"/>
			<path class="st10" d="M443.8263855,107.8986206v41.3000031h-19.6000061V107.898613L443.8263855,107.8986206
				 M444.8263855,106.8986206h-21.6000061v43.3000031h21.6000061V106.8986206L444.8263855,106.8986206z"/>
		</g>
		<path class="st13" d="M429.3263855,133.8986206v-10.8000107 M427.1263733,134.8986206V122.198616h3.7999878v12.7000046
			H427.1263733z"/>
		<path class="st11" d="M426.9263611,140.0986328L426.9263611,140.0986328c0-0.5,0.3999939-1,1-1h1.2999878c0.5,0,1,0.3999939,1,1
			l0,0c0,0.5-0.3999939,1-1,1h-1.2999878C427.4263611,140.9986267,426.9263611,140.5986328,426.9263611,140.0986328z"/>
		<path class="st11" d="M437.0263672,131.6986237c-1.7000122,0-3-1.3999939-3-3.1999969
			c0-1.8000107,1.3999939-3.2000046,3-3.2000046h3v6.3000107L437.0263672,131.6986237z"/>
		<g>
			<rect x="412.0263672" y="122.5986176" class="st9" width="11.2999878" height="13.3999939"/>
			<path class="st10" d="M422.8263855,123.0986176v12.4000092h-10.2999878v-12.4000092H422.8263855 M423.8263855,122.0986176
				h-12.2999878v14.4000092h12.2999878V122.0986176L423.8263855,122.0986176z"/>
		</g>
		<g>
			<rect x="410.6263733" y="122.2986221" class="st9" width="1.8999939" height="13.9000015"/>
			<path class="st10" d="M412.0263672,122.7986221v12.9000015h-0.8999939v-12.9000092L412.0263672,122.7986221
				 M413.0263672,121.7986221h-2.8999939v14.9000015h2.8999939V121.7986221L413.0263672,121.7986221z"/>
		</g>
		<rect x="440.0263672" y="111.9986191" class="st11" width="1.7000122" height="33.2000046"/>
	</g>
	<g id="Sink_2">
		<g id="Rectangle_15">
			<rect x="276.5" y="235.668808" class="st9" width="22.3999939" height="10.6000061"/>
			<path class="st10" d="M298.3999939,236.168808v9.6000061H277v-9.6000061H298.3999939 M299.3999939,235.168808H276v11.6000061
				h23.3999939V235.168808L299.3999939,235.168808z"/>
		</g>
		<path id="Rectangle_19_x5F_5" class="st11" d="M282.2000122,240.8688049L282.2000122,240.8688049c0,2,1.6000061,3.5,3.5,3.5h5
			c2,0,3.5-1.6000061,3.5-3.5l0,0c0-2-1.6000061-3.5-3.5-3.5h-5
			C283.7999878,237.3688049,282.2000122,238.968811,282.2000122,240.8688049z"/>
		<circle id="Ellipse_7_x5F_2" class="st11" cx="288.2999878" cy="239.668808" r="0.8999939"/>
	</g>
	<g id="Sink_2_1_">
		<g id="Rectangle_16_x5F_11_2_">
			<rect x="267.1000061" y="166.4999847" class="st9" width="11.7000122" height="23.3000031"/>
			<path class="st10" d="M278.2999878,166.9999847v22.3000031h-10.7000122v-22.3000031H278.2999878 M279.2999878,165.9999847
				h-12.7000122v24.3000031h12.7000122V165.9999847L279.2999878,165.9999847z"/>
		</g>
		<path id="Rectangle_19_x5F_5_1_" class="st11" d="M272.8999939,184.7999878L272.8999939,184.7999878
			c2.1000061,0,3.8999939-1.6999969,3.8999939-3.8999939v-5.5c0-2.1000061-1.7000122-3.8999939-3.8999939-3.8999939l0,0
			C270.7999878,171.5,269,173.1999969,269,175.3999939v5.5
			C269.1000061,183.0999908,270.7999878,184.7999878,272.8999939,184.7999878z"/>
		<circle id="Ellipse_7_x5F_2_1_" class="st11" cx="271.5" cy="178.0999908" r="0.8999939"/>
	</g>
	<g id="Toilet_3_">
		<g id="Rectangle_21_3_">
			<rect x="272.6355286" y="261.999939" class="st9" width="3" height="12"/>
			<path class="st10" d="M275.1355286,262.499939v11h-2v-11H275.1355286 M276.1355286,261.499939h-4v13h4V261.499939
				L276.1355286,261.499939z"/>
		</g>
		<path id="Rectangle_19_x5F_2_3_" class="st11" d="M284.0355225,272.499939c2.6000061,0.2000122,4.7999878-1.8999939,4.7999878-4.5
			l0,0c0-2.6000061-2.2000122-4.7000122-4.7999878-4.5l-8.3999939,0.6000061v7.8999939L284.0355225,272.499939z"/>
		<path id="Rectangle_18_x5F_13_3_" class="st11" d="M283.7355347,271.0999451
			c1.7999878,0.2000122,3.3999939-1.2999878,3.3999939-3.1000061l0,0c0-1.7999878-1.6000061-3.2000122-3.3999939-3.1000061
			l-4.8999939,0.3999939v5.2999878L283.7355347,271.0999451z"/>
		<ellipse id="Ellipse_6_x5F_2_3_" class="st11" cx="281.3355103" cy="267.999939" rx="0.8999939" ry="0.8999939"/>
	</g>
	<g id="Kitchen">
		<g id="Oven">
			<g id="Rectangle_28">
				<rect x="375.7999878" y="310.9999695" class="st9" width="17.7999878" height="14"/>
				<path class="st10" d="M393.1000061,311.4999695v13h-16.7999878v-13H393.1000061 M394.1000061,310.4999695h-18.7999878v15
					h18.7999878V310.4999695L394.1000061,310.4999695z"/>
			</g>
		</g>
		<g id="Rectangle_24_1_">
			<rect x="318.5" y="312.6999817" class="st9" width="91" height="13.3999939"/>
			<path class="st10" d="M409,313.1999817v12.3999939h-90v-12.3999939H409 M410,312.1999817h-92v14.3999939h92V312.1999817
				L410,312.1999817z"/>
		</g>
		<g id="Rectangle_27">
			<rect x="396.2000122" y="312.6999817" class="st9" width="13.3999939" height="13.3999939"/>
			<path class="st10" d="M409,313.1999817v12.3999939h-12.3999939v-12.3999939H409 M410,312.1999817h-14.3999939v14.3999939H410
				V312.1999817L410,312.1999817z"/>
		</g>
		<g id="Rectangle_27_4_">
			<rect x="396.2000122" y="312.6999817" class="st9" width="13.3999939" height="1.7000122"/>
			<path class="st10" d="M409,313.1999817v0.7000122h-12.3999939v-0.7000122H409 M410,312.1999817h-14.3999939v2.7000122H410
				V312.1999817L410,312.1999817z"/>
		</g>
		<g id="Sink_3_1_">
			<rect id="Rectangle_28_x5F_2_1_" x="323.1000061" y="314.3999634" class="st11" width="15.6000061" height="9.7999878"/>
			<path id="Rectangle_29_x5F_2_1_" class="st11" d="M329.2000122,319.3999634L329.2000122,319.3999634
				c0-2,1.7000122-3.7000122,3.7000122-3.7000122h0.7999878c2,0,3.7000122,1.7000122,3.7000122,3.7000122l0,0
				c0,2-1.7000122,3.7000122-3.7000122,3.7000122h-0.7999878
				C330.7999878,323.0999756,329.2000122,321.3999634,329.2000122,319.3999634z"/>
			<ellipse id="Ellipse_7_x5F_3_1_" class="st11" cx="333.2999878" cy="320.5999756" rx="0.8999939" ry="0.8999939"/>
			<line class="st13" x1="324.2000122" y1="322.1999817" x2="328.2000122" y2="322.1999817"/>
			<line class="st13" x1="324.2000122" y1="320.6999817" x2="328.2000122" y2="320.6999817"/>
			<line class="st13" x1="324.2000122" y1="319.1999817" x2="328.2000122" y2="319.1999817"/>
			<line class="st13" x1="324.2000122" y1="317.6999817" x2="328.2000122" y2="317.6999817"/>
			<line class="st13" x1="324.2000122" y1="316.2999573" x2="328.2000122" y2="316.2999573"/>
		</g>
		<g id="Stove_1_">
			<g id="Rectangle_25_1_">
				<rect x="360.2000122" y="312.6999817" class="st9" width="13" height="13.3999939"/>
				<path class="st10" d="M372.7000122,313.1999817v12.3999939h-12v-12.3999939H372.7000122 M373.7000122,312.1999817h-14
					v14.3999939h14V312.1999817L373.7000122,312.1999817z"/>
			</g>
			<g id="Rectangle_28_x5F_3_1_">
				<rect x="360.2000122" y="324.0999756" class="st9" width="13" height="1.8999939"/>
				<path class="st10" d="M372.7000122,324.5999756v0.8999939h-12v-0.8999939H372.7000122 M373.7000122,323.5999756h-14v2.8999939
					h14V323.5999756L373.7000122,323.5999756z"/>
			</g>
			<g id="Ellipse_7_x5F_4_1_">
				<path class="st9" d="M363.8999939,322.0999756c-0.7000122,0-1.2999878-0.6000061-1.2999878-1.2999878
					c0-0.7000122,0.6000061-1.2999878,1.2999878-1.2999878s1.2999878,0.6000061,1.2999878,1.2999878
					C365.2000122,321.5999756,364.6000061,322.0999756,363.8999939,322.0999756z"/>
				<path class="st10" d="M363.8999939,320.0999756c0.3999939,0,0.7999878,0.3999939,0.7999878,0.7999878
					s-0.3999939,0.7999878-0.7999878,0.7999878s-0.7999878-0.3999939-0.7999878-0.7999878
					C363.1000061,320.3999634,363.5,320.0999756,363.8999939,320.0999756 M363.8999939,319.0999756
					c-1,0-1.7999878,0.7999878-1.7999878,1.7999878s0.7999878,1.7999878,1.7999878,1.7999878
					s1.7999878-0.7999878,1.7999878-1.7999878C365.7000122,319.8999634,364.8999939,319.0999756,363.8999939,319.0999756
					L363.8999939,319.0999756z"/>
			</g>
			<g id="Ellipse_9_1_">
				<circle class="st9" cx="363.8999939" cy="316.1999817" r="1.7000122"/>
				<path class="st10" d="M363.8999939,314.9999695c0.7000122,0,1.2000122,0.6000061,1.2000122,1.2000122
					s-0.6000061,1.2000122-1.2000122,1.2000122c-0.7000122,0-1.2000122-0.6000061-1.2000122-1.2000122
					S363.2000122,314.9999695,363.8999939,314.9999695 M363.8999939,313.9999695c-1.2000122,0-2.2000122,1-2.2000122,2.2000122
					s1,2.2000122,2.2000122,2.2000122s2.2000122-1,2.2000122-2.2000122
					C366.2000122,314.9999695,365.2000122,313.9999695,363.8999939,313.9999695L363.8999939,313.9999695z"/>
			</g>
			<g id="Ellipse_10_1_">
				<circle class="st9" cx="369.1000061" cy="320.7999573" r="1.7000122"/>
				<path class="st10" d="M369.1000061,319.5999756c0.7000122,0,1.2000122,0.6000061,1.2000122,1.2000122
					S369.7000122,322,369.1000061,322s-1.2000122-0.6000061-1.2000122-1.2000122S368.3999939,319.5999756,369.1000061,319.5999756
					 M369.1000061,318.5999756c-1.2000122,0-2.2000122,1-2.2000122,2.2000122s1,2.2000122,2.2000122,2.2000122
					s2.2000122-1,2.2000122-2.2000122S370.2999878,318.5999756,369.1000061,318.5999756L369.1000061,318.5999756z"/>
			</g>
			<g id="Ellipse_8_1_">
				<circle class="st9" cx="369.1000061" cy="315.7999573" r="1.2999878"/>
				<path class="st10" d="M369.1000061,314.9999695c0.3999939,0,0.7999878,0.3999939,0.7999878,0.7999878
					s-0.3999939,0.7999878-0.7999878,0.7999878s-0.7999878-0.3999939-0.7999878-0.7999878
					C368.2999878,315.2999573,368.6000061,314.9999695,369.1000061,314.9999695 M369.1000061,313.9999695
					c-1,0-1.7999878,0.7999878-1.7999878,1.7999878s0.7999878,1.7999878,1.7999878,1.7999878
					s1.7999878-0.7999878,1.7999878-1.7999878S370.1000061,313.9999695,369.1000061,313.9999695L369.1000061,313.9999695z"/>
			</g>
		</g>
		<path id="Vector_3_1_" class="st13" d="M400.2999878,319.3999634h5 M401.6000061,317.1999817l2.5,4.3999939
			 M401.6000061,321.5999756l2.5-4.3999939"/>
	</g>
	<g>
		<path class="st11" d="M416.5,226.7443237c0,0.6999969,0.5,1.1999969,1.2000122,1.1999969h12.3999939v-28.1999969H416.5
			V226.7443237z"/>
		<path class="st11" d="M394.5,212.1443176c0,0.6999969,0.6000061,1.1999969,1.2999878,1.1999969h19.3999939
			c0.7000122,0,1.2999878-0.5,1.2999878-1.1999969v-12.3999939h-21.8999939L394.5,212.1443176L394.5,212.1443176z"/>
		<path class="st11" d="M373.3999939,212.1443176c0,0.6999969,0.6000061,1.1999969,1.2000122,1.1999969h18.6000061
			c0.7000122,0,1.2000122-0.5,1.2000122-1.1999969v-12.3999939h-21.1000061L373.3999939,212.1443176L373.3999939,212.1443176z"/>
		<path class="st11" d="M373.3999939,214.3443146h-4.6000061v-19.5H435v38h-19.6000061v-4.8000031H430v-28.3000031h-56.7000122
			v14.6000061H373.3999939z"/>
	</g>
	<g>
		<rect x="267.1355286" y="243.6999512" class="st9" width="5.5" height="35.2102051"/>
		<path class="st10" d="M272.1355286,244.1999512v34.2101746h-4.5v-34.2101898L272.1355286,244.1999512 M273.1355286,243.1999512
			h-6.5v36.2101746h6.5V243.1999512L273.1355286,243.1999512z"/>
	</g>
	<g id="Toilet_4_">
		<g id="Rectangle_21_4_">
			<rect x="272.6000061" y="197.2999878" class="st9" width="3" height="12"/>
			<path class="st10" d="M275.1000061,197.7999878v11h-2v-11H275.1000061 M276.1000061,196.7999878h-4v13h4V196.7999878
				L276.1000061,196.7999878z"/>
		</g>
		<path id="Rectangle_19_x5F_2_4_" class="st11" d="M284,207.7999878c2.6000061,0.1999969,4.7999878-1.8999939,4.7999878-4.5l0,0
			c0-2.6000061-2.2000122-4.6999969-4.7999878-4.5l-8.3999939,0.6000061v7.8999939L284,207.7999878z"/>
		<path id="Rectangle_18_x5F_13_4_" class="st11" d="M283.7000122,206.3999786
			c1.7999878,0.1999969,3.3999939-1.3000031,3.3999939-3.1000061l0,0c0-1.8000031-1.6000061-3.1999969-3.3999939-3.1000061
			l-4.8999939,0.3999939v5.3000031L283.7000122,206.3999786z"/>
		<ellipse id="Ellipse_6_x5F_2_4_" class="st11" cx="281.2000122" cy="203.2999878" rx="0.8999939" ry="0.8999939"/>
	</g>
	<g>
		<rect x="267.1000061" y="189.8999786" class="st9" width="5.5" height="24.6999969"/>
		<path class="st10" d="M272.1000061,190.3999786v23.6999969h-4.5v-23.6999969H272.1000061 M273.1000061,189.3999786h-6.5
			v25.6999969h6.5V189.3999786L273.1000061,189.3999786z"/>
	</g>
	<g>
		<g>
			<rect x="267.1000061" y="394.4999695" class="st9" width="43.7000122" height="17.6000061"/>
			<path class="st10" d="M310.2999878,394.9999695v16.6000061h-42.7000122v-16.6000061H310.2999878 M311.2999878,393.9999695
				h-44.7000122v18.6000061h44.7000122V393.9999695L311.2999878,393.9999695z"/>
		</g>
		<g>
			<g>
				<path class="st14" d="M270.7000122,403.2999573c0-3.3999939,3-6.1000061,6.2999878-5.7999878
					c3.7000122,0.2999878,8.3999939,0.6000061,11.8999939,0.6000061S297,397.7999878,300.7999878,397.4999695
					c3.3999939-0.2999878,6.2999878,2.3999939,6.2999878,5.7999878s-3,6.1000061-6.2999878,5.7999878
					c-3.7000122-0.2999878-8.3999939-0.6000061-11.8999939-0.6000061S280.7999878,408.7999268,277,409.0999451
					C273.7000122,409.2999573,270.7000122,406.6999817,270.7000122,403.2999573z"/>
				<ellipse class="st14" cx="276.7000122" cy="403.2999573" rx="0.8999939" ry="0.8999939"/>
			</g>
		</g>
	</g>
	<g id="Sink_2_4_">
		<g id="Rectangle_16_x5F_11_5_">
			<rect x="267.1000061" y="348.0999756" class="st9" width="11.7000122" height="46.2999878"/>
			<path class="st10" d="M278.2999878,348.5999756v45.2999878h-10.7000122v-45.2999878H278.2999878 M279.2999878,347.5999756
				h-12.7000122v47.2999878h12.7000122V347.5999756L279.2999878,347.5999756z"/>
		</g>
		<path id="Rectangle_19_x5F_5_4_" class="st11" d="M272.8999939,383.7999573L272.8999939,383.7999573
			c2.1000061,0,3.8999939-1.7000122,3.8999939-3.8999939v-5.5c0-2.1000061-1.7000122-3.8999939-3.8999939-3.8999939l0,0
			c-2.1000061,0-3.8999939,1.7000122-3.8999939,3.8999939v5.5
			C269.1000061,381.9999695,270.7999878,383.7999573,272.8999939,383.7999573z"/>
		<circle id="Ellipse_7_x5F_2_4_" class="st11" cx="271.3999939" cy="377.0999756" r="0.8999939"/>
	</g>
	<g id="Toilet_5_">
		<g id="Rectangle_21_6_">
			<rect x="293.5" y="353.5999756" class="st9" width="12" height="3"/>
			<path class="st10" d="M305,354.0999756v2h-11v-2H305 M306,353.0999756h-13v4h13V353.0999756L306,353.0999756z"/>
		</g>
		<path id="Rectangle_19_x5F_2_5_" class="st11" d="M295,364.9999695c-0.2000122,2.6000061,1.8999939,4.7999878,4.5,4.7999878l0,0
			c2.6000061,0,4.7000122-2.2000122,4.5-4.7999878l-0.6000061-8.3999939H295.5L295,364.9999695z"/>
		<path id="Rectangle_18_x5F_13_5_" class="st11" d="M296.3999939,364.6999817
			c-0.2000122,1.7999878,1.2999878,3.3999939,3.1000061,3.3999939l0,0c1.7999878,0,3.2000122-1.6000061,3.1000061-3.3999939
			l-0.3999939-4.8999939h-5.2999878L296.3999939,364.6999817z"/>
		<ellipse id="Ellipse_6_x5F_2_5_" class="st11" cx="299.5" cy="362.4999695" rx="0.8999939" ry="0.8999939"/>
	</g>
	<g id="Rectangle_15_1_">
		<rect x="267.1000061" y="348.0999756" class="st9" width="48.4524231" height="5.5"/>
		<path class="st10" d="M315.0524292,348.5999756v4.5h-47.4524231v-4.5H315.0524292 M316.0524292,347.5999756h-49.4524231v6.5
			h49.4524231V347.5999756L316.0524292,347.5999756z"/>
	</g>
</g>
<g id="Numbers_7_">
	<g>
		<path class="st8" d="M413.7000122,368.9999695l1.8999939-1.6000061h0.7999878v6.7000122h-1v-5.2999878l-1.2000122,0.8999939
			L413.7000122,368.9999695z"/>
		<path class="st8" d="M421.6000061,371.4999695h0.7000122v0.8999939h-0.7000122v1.6000061h-1v-1.6000061h-3l-0.2000122-0.6000061
			L421,367.3999634h0.7000122v4.1000061H421.6000061z M420.6000061,369.0999756l-2,2.3999939h2V369.0999756z"/>
		<path class="st8" d="M423.7999878,374.0999756c-0.2000122,0-0.2999878-0.1000061-0.5-0.2000122
			c-0.1000061-0.1000061-0.2000122-0.2999878-0.2000122-0.5s0.1000061-0.2999878,0.2000122-0.3999939
			s0.2999878-0.2000122,0.5-0.2000122s0.2999878,0.1000061,0.3999939,0.2000122s0.2000122,0.2999878,0.2000122,0.3999939
			c0,0.2000122-0.1000061,0.2999878-0.2000122,0.5C424.1000061,374.0999756,423.8999939,374.0999756,423.7999878,374.0999756z"/>
		<path class="st8" d="M427.2999878,374.0999756c-0.7000122,0-1.3999939-0.2000122-2.1000061-0.7000122l0.5-0.7999878
			c0.6000061,0.3999939,1.1000061,0.5,1.6000061,0.5c0.3999939,0,0.7000122-0.1000061,0.8999939-0.2999878
			c0.2000122-0.2000122,0.2999878-0.3999939,0.2999878-0.7999878c0-0.2999878-0.1000061-0.6000061-0.3999939-0.7999878
			c-0.2000122-0.2000122-0.5-0.2999878-0.8999939-0.2999878h-0.7999878v-0.8999939h0.7999878
			c0.2999878,0,0.6000061-0.1000061,0.7999878-0.2999878c0.2000122-0.2000122,0.2999878-0.3999939,0.2999878-0.7000122
			c0-0.2999878-0.1000061-0.5-0.2999878-0.7000122s-0.5-0.2999878-0.7999878-0.2999878
			c-0.3999939,0-0.8999939,0.2000122-1.3999939,0.6000061l-0.5-0.7000122
			c0.2000122-0.2000122,0.6000061-0.3999939,0.8999939-0.6000061c0.3999939-0.1000061,0.7000122-0.2000122,1.1000061-0.2000122
			c0.6000061,0,1.1000061,0.2000122,1.5,0.5s0.6000061,0.7999878,0.6000061,1.2000122
			c0,0.3999939-0.1000061,0.7000122-0.2999878,0.8999939c-0.2000122,0.2999878-0.5,0.5-0.7999878,0.6000061l0,0
			c0.3999939,0.1000061,0.7000122,0.2999878,1,0.6000061c0.2000122,0.2999878,0.2999878,0.6000061,0.2999878,1.1000061
			c0,0.6000061-0.2000122,1-0.6000061,1.3999939C428.5,373.8999634,428,374.0999756,427.2999878,374.0999756z"/>
	</g>
	<g>
		<path class="st8" d="M328.2000122,106.7999802l1.8999939-1.5999985h0.7999878v6.6999969h-1v-5.3000031l-1.2000122,0.9000015
			L328.2000122,106.7999802z"/>
		<path class="st8" d="M331.7999878,106.7999802l1.8999939-1.5999985h0.7999878v6.6999969h-1v-5.3000031l-1.2000122,0.9000015
			L331.7999878,106.7999802z"/>
		<path class="st8" d="M336.3999939,111.8999786c-0.2000122,0-0.2999878-0.0999985-0.5-0.1999969
			c-0.1000061-0.0999985-0.2000122-0.3000031-0.2000122-0.5s0.1000061-0.3000031,0.2000122-0.4000015
			s0.2999878-0.1999969,0.5-0.1999969s0.2999878,0.0999985,0.3999939,0.1999969S337,111.0999832,337,111.1999817
			c0,0.1999969-0.1000061,0.3000031-0.2000122,0.5C336.7000122,111.8999786,336.6000061,111.8999786,336.3999939,111.8999786z"/>
		<path class="st8" d="M340.2999878,111.8999786c-0.7000122,0-1.2999878-0.1999969-1.7000122-0.5
			c-0.3999939-0.4000015-0.7000122-0.8000031-0.7000122-1.4000015c0-0.4000015,0.1000061-0.6999969,0.3999939-1
			c0.2000122-0.3000031,0.5-0.5,0.8999939-0.6999969l0,0c-0.2999878-0.0999985-0.6000061-0.4000015-0.7000122-0.5999985
			c-0.2000122-0.3000031-0.2999878-0.5-0.2999878-0.9000015c0-0.5,0.2000122-0.9000015,0.6000061-1.3000031
			c0.3999939-0.3000031,0.8999939-0.5,1.5-0.5s1.1000061,0.1999969,1.5,0.5s0.6000061,0.8000031,0.6000061,1.3000031
			c0,0.3000031-0.1000061,0.5999985-0.2999878,0.9000015s-0.3999939,0.5-0.7000122,0.5999985l0,0
			c0.3999939,0.0999985,0.7000122,0.4000015,0.8999939,0.6999969c0.2000122,0.3000031,0.3999939,0.6999969,0.3999939,1
			c0,0.5999985-0.2000122,1-0.7000122,1.4000015C341.6000061,111.6999741,341,111.8999786,340.2999878,111.8999786z
			 M340.2999878,110.9999771c0.3999939,0,0.7000122-0.0999985,1-0.3000031c0.2999878-0.1999969,0.3999939-0.5,0.3999939-0.8000031
			s-0.1000061-0.5999985-0.3999939-0.8000031c-0.2999878-0.1999969-0.6000061-0.3000031-1-0.3000031
			s-0.7000122,0.0999985-1,0.3000031c-0.2999878,0.1999969-0.3999939,0.5-0.3999939,0.8000031
			s0.1000061,0.5999985,0.3999939,0.8000031C339.5,110.8999786,339.8999939,110.9999771,340.2999878,110.9999771z
			 M341.1000061,107.5999756c0.2000122-0.1999969,0.2999878-0.4000015,0.2999878-0.6999969s-0.1000061-0.5-0.2999878-0.6999969
			c-0.2000122-0.1999969-0.5-0.3000031-0.7999878-0.3000031s-0.6000061,0.0999985-0.7999878,0.3000031
			c-0.2000122,0.1999969-0.2999878,0.4000015-0.2999878,0.6999969s0.1000061,0.5,0.2999878,0.6999969
			c0.2000122,0.1999969,0.5,0.3000031,0.7999878,0.3000031S340.8999939,107.7999802,341.1000061,107.5999756z"/>
	</g>
	<g>
		<path class="st8" d="M392.6000061,154.1999817L394.5,152.5999756h0.7999878v6.6999969h-1v-5.3000031l-1.2000122,0.8999939
			L392.6000061,154.1999817z"/>
		<path class="st8" d="M399.7000122,156.4999847l-1.6000061,1.8000031h2.7000122v1h-4.2000122v-0.8999939l2.1000061-2.3000031
			l0.5-0.6000061c0.1000061-0.1000061,0.2000122-0.3000031,0.2999878-0.5
			c0.1000061-0.1999969,0.1000061-0.3999939,0.1000061-0.6000061c0-0.3000031-0.1000061-0.5-0.2999878-0.6999969
			c-0.2000122-0.1999969-0.5-0.3000031-0.7999878-0.3000031c-0.5,0-1,0.1999969-1.6000061,0.6999969l-0.6000061-0.6999969
			c0.7000122-0.6000061,1.3999939-1,2.2000122-1c0.6000061,0,1.1000061,0.1999969,1.5,0.6000061
			c0.3999939,0.3999939,0.6000061,0.8999939,0.6000061,1.3999939
			C400.7000122,154.9999847,400.3999939,155.6999817,399.7000122,156.4999847z"/>
		<path class="st8" d="M402.2999878,159.2999878c-0.2000122,0-0.2999878-0.1000061-0.5-0.1999969
			s-0.2000122-0.3000031-0.2000122-0.5s0.1000061-0.3000031,0.2000122-0.3999939S402.0999756,158,402.2999878,158
			s0.2999878,0.1000061,0.3999939,0.1999969s0.2000122,0.3000031,0.2000122,0.3999939
			c0,0.1999969-0.1000061,0.3000031-0.2000122,0.5S402.5,159.2999878,402.2999878,159.2999878z"/>
		<path class="st8" d="M406.1000061,152.3999786c0.7999878,0,1.3999939,0.3000031,1.7999878,0.8999939
			c0.3999939,0.6000061,0.6000061,1.3999939,0.6000061,2.3000031c0,0.5-0.1000061,1-0.2000122,1.3999939
			s-0.2999878,0.8000031-0.5,1.1999969c-0.2000122,0.3000031-0.5,0.6000061-0.8999939,0.8000031
			s-0.7999878,0.3000031-1.2000122,0.3000031c-0.7000122,0-1.2999878-0.1999969-1.7999878-0.6000061l0.3999939-0.8000031
			c0.3999939,0.3000031,0.8999939,0.5,1.2999878,0.5c0.6000061,0,1-0.1999969,1.2999878-0.6999969s0.5-1,0.5-1.6999969
			c-0.2000122,0.3000031-0.3999939,0.5-0.7000122,0.6000061s-0.6000061,0.1999969-1,0.1999969
			c-0.6000061,0-1.1000061-0.1999969-1.5-0.6000061c-0.3999939-0.3999939-0.6000061-0.8999939-0.6000061-1.5
			s0.2000122-1.1999969,0.6000061-1.6000061C404.7999878,152.5999908,405.3999939,152.3999786,406.1000061,152.3999786z
			 M407.2999878,154.6999817c0-0.3999939-0.1000061-0.6999969-0.3999939-0.8999939
			c-0.2000122-0.3000031-0.5-0.3999939-0.8999939-0.3999939s-0.7000122,0.1000061-0.8999939,0.3999939
			c-0.2000122,0.3000031-0.3999939,0.6000061-0.3999939,0.8999939c0,0.3999939,0.1000061,0.6999969,0.3999939,0.8999939
			c0.2000122,0.1999969,0.5,0.3999939,0.8999939,0.3999939s0.7000122-0.1000061,0.8999939-0.3999939
			C407.2000122,155.2999878,407.2999878,154.9999847,407.2999878,154.6999817z"/>
	</g>
	<g>
		<path class="st8" d="M340.2000122,276.9999695l-1.6000061,1.7999878h2.7000122v1h-4.2000122v-0.8999939l2.1000061-2.2999878
			l0.5-0.6000061c0.1000061-0.1000061,0.2000122-0.2999878,0.2999878-0.5
			c0.1000061-0.2000122,0.1000061-0.3999939,0.1000061-0.6000061c0-0.2999878-0.1000061-0.5-0.2999878-0.7000122
			c-0.2000122-0.2000122-0.5-0.2999878-0.7999878-0.2999878c-0.5,0-1,0.2000122-1.6000061,0.7000122l-0.6000061-0.7000122
			c0.7000122-0.6000061,1.3999939-1,2.2000122-1c0.6000061,0,1.1000061,0.2000122,1.5,0.6000061
			s0.6000061,0.8999939,0.6000061,1.3999939C341.2000122,275.4999695,340.8999939,276.1999817,340.2000122,276.9999695z"/>
		<path class="st8" d="M345.8999939,277.1999817h0.7000122v0.8999939h-0.7000122v1.6000061h-1v-1.6000061h-3l-0.2000122-0.6000061
			l3.6000061-4.3999939H346v4.1000061H345.8999939z M344.8999939,274.7999573l-2,2.3999939h2V274.7999573z"/>
		<path class="st8" d="M348.1000061,279.7999573c-0.2000122,0-0.2999878-0.1000061-0.5-0.2000122
			c-0.1000061-0.1000061-0.2000122-0.2999878-0.2000122-0.5s0.1000061-0.2999878,0.2000122-0.3999939
			s0.2999878-0.2000122,0.5-0.2000122s0.2999878,0.1000061,0.3999939,0.2000122s0.2000122,0.2999878,0.2000122,0.3999939
			c0,0.2000122-0.1000061,0.2999878-0.2000122,0.5S348.2999878,279.7999573,348.1000061,279.7999573z"/>
		<path class="st8" d="M351.7999878,272.8999634c0.7999878,0,1.3999939,0.2999878,1.7999878,0.8999939
			s0.6000061,1.3999939,0.6000061,2.2999878c0,0.5-0.1000061,1-0.2000122,1.3999939s-0.2999878,0.7999878-0.5,1.2000122
			c-0.2000122,0.2999878-0.5,0.6000061-0.8999939,0.7999878c-0.3999939,0.2000122-0.7999878,0.2999878-1.2000122,0.2999878
			c-0.7000122,0-1.2999878-0.2000122-1.7999878-0.6000061l0.3999939-0.7999878c0.3999939,0.2999878,0.8999939,0.5,1.2999878,0.5
			c0.6000061,0,1-0.2000122,1.2999878-0.7000122s0.5-1,0.5-1.7000122c-0.2000122,0.2999878-0.3999939,0.5-0.7000122,0.6000061
			s-0.6000061,0.2000122-1,0.2000122c-0.6000061,0-1.1000061-0.2000122-1.5-0.6000061s-0.6000061-0.8999939-0.6000061-1.5
			s0.2000122-1.2000122,0.6000061-1.6000061C350.6000061,273.0999756,351.2000122,272.8999634,351.7999878,272.8999634z
			 M353.1000061,275.1999817c0-0.3999939-0.1000061-0.7000122-0.3999939-0.8999939
			c-0.2000122-0.2999878-0.5-0.3999939-0.8999939-0.3999939S351.1000061,274,350.9000244,274.2999878
			c-0.2000122,0.2999878-0.3999939,0.6000061-0.3999939,0.8999939c0,0.3999939,0.1000061,0.7000122,0.3999939,0.8999939
			c0.2000122,0.2000122,0.5,0.3999939,0.8999939,0.3999939s0.7000122-0.1000061,0.8999939-0.3999939
			C352.8999939,275.7999573,353.1000061,275.4999695,353.1000061,275.1999817z"/>
	</g>
	<g id="Numbers_2_">
		<g>
			<path class="st8" d="M327.7999878,174.4999847l1.8999939-1.6000061h0.7999878v6.6999969h-1v-5.3000031l-1.2000122,0.8999939
				L327.7999878,174.4999847z"/>
			<path class="st8" d="M332.3999939,179.6999817c-0.2000122,0-0.2999878-0.1000061-0.5-0.1999969
				c-0.1000061-0.1000061-0.2000122-0.3000031-0.2000122-0.5s0.1000061-0.3000031,0.2000122-0.3999939
				c0.1000061-0.1000061,0.2999878-0.1999969,0.5-0.1999969s0.2999878,0.1000061,0.3999939,0.1999969
				C332.8999939,178.6999969,333,178.8999939,333,178.9999847c0,0.1999969-0.1000061,0.3000031-0.2000122,0.5
				C332.7999878,179.5999908,332.6000061,179.6999817,332.3999939,179.6999817z"/>
			<path class="st8" d="M336.2999878,179.5999908c-0.7000122,0-1.2999878-0.1999969-1.7000122-0.5
				c-0.3999939-0.3999939-0.7000122-0.8000031-0.7000122-1.3999939c0-0.3999939,0.1000061-0.6999969,0.3999939-1
				c0.2000122-0.3000031,0.5-0.5,0.8999939-0.6999969l0,0c-0.2999878-0.1000061-0.6000061-0.3999939-0.7000122-0.6000061
				c-0.2000122-0.3000031-0.2999878-0.5-0.2999878-0.8999939c0-0.5,0.2000122-0.8999939,0.6000061-1.3000031
				c0.3999939-0.3000031,0.8999939-0.5,1.5-0.5s1.1000061,0.1999969,1.5,0.5S338.3999634,174,338.3999634,174.5
				c0,0.3000031-0.1000061,0.6000061-0.2999878,0.8999939s-0.3999939,0.5-0.7000122,0.6000061l0,0
				c0.3999939,0.1000061,0.7000122,0.3999939,0.8999939,0.6999969c0.2000122,0.3000031,0.3999939,0.6999969,0.3999939,1
				c0,0.6000061-0.2000122,1-0.7000122,1.3999939C337.6000061,179.3999786,337,179.5999908,336.2999878,179.5999908z
				 M336.2999878,178.6999817c0.3999939,0,0.7000122-0.1000061,1-0.3000031s0.3999939-0.5,0.3999939-0.8000031
				s-0.1000061-0.6000061-0.3999939-0.8000031s-0.6000061-0.3000031-1-0.3000031s-0.7000122,0.1000061-1,0.3000031
				s-0.3999939,0.5-0.3999939,0.8000031s0.1000061,0.6000061,0.3999939,0.8000031
				C335.6000061,178.5999908,335.8999939,178.6999817,336.2999878,178.6999817z M337.2000122,175.2999878
				c0.2000122-0.1999969,0.2999878-0.3999939,0.2999878-0.6999969s-0.1000061-0.5-0.2999878-0.6999969
				c-0.2000122-0.1999969-0.5-0.3000031-0.7999878-0.3000031s-0.6000061,0.1000061-0.7999878,0.3000031
				c-0.2000122,0.1999969-0.2999878,0.3999939-0.2999878,0.6999969s0.1000061,0.5,0.2999878,0.6999969
				c0.2000122,0.1999969,0.5,0.3000031,0.7999878,0.3000031S337,175.4999847,337.2000122,175.2999878z"/>
		</g>
	</g>
	<g id="Numbers_4_">
		<g>
			<path class="st8" d="M299.5,300.8999634h0.7000122v0.8999939H299.5v1.6000061h-1v-1.6000061h-3l-0.2000122-0.6000061
				l3.6000061-4.3999939h0.7000122v4.1000061H299.5z M298.5,298.4999695l-2,2.3999939h2V298.4999695z"/>
			<path class="st8" d="M301.7000122,303.4999695c-0.2000122,0-0.2999878-0.1000061-0.5-0.2000122
				c-0.1000061-0.1000061-0.2000122-0.2999878-0.2000122-0.5s0.1000061-0.2999878,0.2000122-0.3999939
				s0.2999878-0.2000122,0.5-0.2000122s0.2999878,0.1000061,0.3999939,0.2000122s0.2000122,0.2999878,0.2000122,0.3999939
				c0,0.2000122-0.1000061,0.2999878-0.2000122,0.5S301.8999939,303.4999695,301.7000122,303.4999695z"/>
			<path class="st8" d="M305.2000122,303.4999695c-0.7000122,0-1.3999939-0.2000122-2.1000061-0.7000122l0.5-0.7999878
				c0.6000061,0.3999939,1.1000061,0.5,1.6000061,0.5c0.3999939,0,0.7000122-0.1000061,0.8999939-0.2999878
				c0.2000122-0.2000122,0.2999878-0.3999939,0.2999878-0.7999878c0-0.2999878-0.1000061-0.6000061-0.3999939-0.7999878
				c-0.2000122-0.2000122-0.5-0.2999878-0.8999939-0.2999878h-0.7999878v-0.8999939h0.7999878
				c0.2999878,0,0.6000061-0.1000061,0.7999878-0.2999878c0.2000122-0.2000122,0.2999878-0.3999939,0.2999878-0.7000122
				c0-0.2999878-0.1000061-0.5-0.2999878-0.7000122s-0.5-0.2999878-0.7999878-0.2999878
				c-0.3999939,0-0.8999939,0.2000122-1.3999939,0.6000061l-0.5-0.7000122
				c0.2000122-0.2000122,0.6000061-0.3999939,0.8999939-0.6000061C304.5,296.6000061,304.8000183,296.5,305.2000122,296.5
				c0.6000061,0,1.1000061,0.2000122,1.5,0.5s0.6000061,0.7999878,0.6000061,1.2000122
				c0,0.3999939-0.1000061,0.7000122-0.2999878,0.8999939c-0.2000122,0.2999878-0.5,0.5-0.7999878,0.6000061l0,0
				c0.3999939,0.1000061,0.7000122,0.2999878,1,0.6000061c0.2000122,0.2999878,0.2999878,0.6000061,0.2999878,1.1000061
				c0,0.6000061-0.2000122,1-0.6000061,1.3999939C306.3999939,303.2999573,305.8999939,303.4999695,305.2000122,303.4999695z"/>
		</g>
	</g>
	<g id="Numbers_5_">
		<g>
			<path class="st8" d="M298.1000061,378.7999573h0.7000122v0.8999939h-0.7000122v1.6000061h-1v-1.6000061h-3l-0.2000122-0.6000061
				L297.5,374.6999512h0.7000122v4.1000061H298.1000061z M297.1000061,376.3999634l-2,2.3999939h2V376.3999634z"/>
			<path class="st8" d="M300.2999878,381.4999695c-0.2000122,0-0.2999878-0.1000061-0.5-0.2000122
				c-0.1000061-0.1000061-0.2000122-0.2999878-0.2000122-0.5s0.1000061-0.2999878,0.2000122-0.3999939
				s0.2999878-0.2000122,0.5-0.2000122s0.2999878,0.1000061,0.3999939,0.2000122s0.2000122,0.2999878,0.2000122,0.3999939
				c0,0.2000122-0.1000061,0.2999878-0.2000122,0.5C300.6000061,381.3999634,300.3999939,381.4999695,300.2999878,381.4999695z"/>
			<path class="st8" d="M301.2999878,375.5999756v-0.8999939H305.5v0.7000122l-2.5,6h-1.1000061l2.5-5.7000122h-3.1000061
				V375.5999756z"/>
		</g>
	</g>
	<g>
		<path class="st8" d="M299.2999878,200.6999817H300v0.8999939h-0.7000122v1.6000061h-1v-1.6000061h-3l-0.2000122-0.6000061
			l3.6000061-4.3999939h0.7000122v4.1000061H299.2999878z M298.2999878,198.2999878l-2,2.3999939h2V198.2999878z"/>
		<path class="st8" d="M301.5,203.2999878c-0.2000122,0-0.2999878-0.1000061-0.5-0.1999969
			c-0.1000061-0.1000061-0.2000122-0.3000031-0.2000122-0.5s0.1000061-0.3000031,0.2000122-0.3999939
			C301.1000061,202.0999908,301.2999878,202,301.5,202s0.2999878,0.1000061,0.3999939,0.1999969
			C302,202.3000031,302.1000061,202.5,302.1000061,202.5999908c0,0.1999969-0.1000061,0.3000031-0.2000122,0.5
			S301.6000061,203.2999878,301.5,203.2999878z"/>
		<path class="st8" d="M305.2000122,196.3999786c0.7999878,0,1.3999939,0.3000031,1.7999878,0.8999939
			c0.3999939,0.6000061,0.6000061,1.3999939,0.6000061,2.3000031c0,0.5-0.1000061,1-0.2000122,1.3999939
			s-0.2999878,0.8000031-0.5,1.1999969c-0.2000122,0.3000031-0.5,0.6000061-0.8999939,0.8000031
			s-0.7999878,0.3000031-1.2000122,0.3000031c-0.7000122,0-1.2999878-0.1999969-1.7999878-0.6000061l0.3999939-0.8000031
			c0.3999939,0.3000031,0.8999939,0.5,1.2999878,0.5c0.6000061,0,1-0.1999969,1.2999878-0.6999969s0.5-1,0.5-1.6999969
			c-0.2000122,0.3000031-0.3999939,0.5-0.7000122,0.6000061s-0.6000061,0.1999969-1,0.1999969
			c-0.6000061,0-1.1000061-0.1999969-1.5-0.6000061c-0.3999939-0.3999939-0.6000061-0.8999939-0.6000061-1.5
			s0.2000122-1.1999969,0.6000061-1.6000061C304,196.5999908,304.5,196.3999786,305.2000122,196.3999786z M306.5,198.6999817
			c0-0.3999939-0.1000061-0.6999969-0.3999939-0.8999939c-0.2000122-0.3000031-0.5-0.3999939-0.8999939-0.3999939
			S304.5,197.5,304.3000183,197.7999878c-0.2000122,0.3000031-0.3999939,0.6000061-0.3999939,0.8999939
			c0,0.3999939,0.1000061,0.6999969,0.3999939,0.8999939c0.2000122,0.1999969,0.5,0.3999939,0.8999939,0.3999939
			s0.7000122-0.1000061,0.8999939-0.3999939S306.5,198.9999847,306.5,198.6999817z"/>
	</g>
	<g>
		<path class="st8" d="M293.5,258.2999573c-0.7000122,0-1.3999939-0.2000122-2.1000061-0.7000122l0.5-0.7999878
			c0.6000061,0.3999939,1.1000061,0.5,1.6000061,0.5c0.3999939,0,0.7000122-0.1000061,0.8999939-0.2999878
			c0.2000122-0.2000122,0.2999878-0.3999939,0.2999878-0.7999878c0-0.2999878-0.1000061-0.5999908-0.3999939-0.7999878
			c-0.2000122-0.1999969-0.5-0.3000031-0.8999939-0.3000031h-0.7999878v-0.8999939h0.7999878
			c0.2999878,0,0.6000061-0.1000061,0.7999878-0.3000031c0.2000122-0.1999969,0.2999878-0.3999939,0.2999878-0.6999969
			s-0.1000061-0.5-0.2999878-0.6999969s-0.5-0.3000031-0.7999878-0.3000031C293,252.1999969,292.5,252.3999939,292,252.8000031
			l-0.5-0.6999969c0.2000122-0.1999969,0.5-0.3999939,0.8999939-0.6000061
			c0.3999939-0.1000061,0.7000122-0.1999969,1.1000061-0.1999969c0.6000061,0,1.1000061,0.1999969,1.5,0.5
			s0.6000061,0.8000031,0.6000061,1.1999969s-0.1000061,0.6999969-0.2999878,0.8999939
			c-0.2000122,0.3000031-0.5,0.5-0.7999878,0.6000061l0,0c0.3999939,0.1000061,0.7000122,0.3000031,1,0.6000061
			c0.2000122,0.3000031,0.2999878,0.6000061,0.2999878,1.0999756c0,0.6000061-0.2000122,1-0.6000061,1.3999939
			C294.7999878,258.0999756,294.2000122,258.2999573,293.5,258.2999573z"/>
	</g>
</g>
<g id="street_anchors">
	<rect id="street_anchor_01_1_" x="362.6000061" y="19.999979" class="st15" width="10" height="10"/>
	<rect id="street_anchor_02_1_" x="490" y="234.9999847" class="st15" width="10" height="10"/>
</g>
</svg>
