<?xml version="1.0" encoding="utf-8"?>
<!-- Generator: Adobe Illustrator 24.2.0, SVG Export Plug-In . SVG Version: 6.00 Build 0)  -->
<!DOCTYPE svg PUBLIC "-//W3C//DTD SVG 1.1//EN" "http://www.w3.org/Graphics/SVG/1.1/DTD/svg11.dtd" [
	<!ENTITY ns_extend "http://ns.adobe.com/Extensibility/1.0/">
	<!ENTITY ns_ai "http://ns.adobe.com/AdobeIllustrator/10.0/">
	<!ENTITY ns_graphs "http://ns.adobe.com/Graphs/1.0/">
	<!ENTITY ns_vars "http://ns.adobe.com/Variables/1.0/">
	<!ENTITY ns_imrep "http://ns.adobe.com/ImageReplacement/1.0/">
	<!ENTITY ns_sfw "http://ns.adobe.com/SaveForWeb/1.0/">
	<!ENTITY ns_custom "http://ns.adobe.com/GenericCustomNamespace/1.0/">
	<!ENTITY ns_adobe_xpath "http://ns.adobe.com/XPath/1.0/">
]>
<svg version="1.1" id="_x31__x5F_2" xmlns:x="&ns_extend;" xmlns:i="&ns_ai;" xmlns:graph="&ns_graphs;"
	 xmlns="http://www.w3.org/2000/svg" xmlns:xlink="http://www.w3.org/1999/xlink" x="0px" y="0px" viewBox="0 0 720 480"
	 style="enable-background:new 0 0 720 480;" xml:space="preserve">
<style type="text/css">
	.st0{fill:#DBD4CA;}
	.st1{opacity:0.3;}
	.st2{opacity:0.7;fill:#C49F8A;enable-background:new    ;}
	.st3{fill:#C49F8A;}
	.st4{fill:none;stroke:#565440;}
	.st5{fill:#565440;}
	.st6{fill:#E9E4DC;}
	.st7{fill:#E9E4DC;stroke:#C49F8A;stroke-linejoin:round;}
	.st8{fill:#E9E4DC;stroke:#C49F8A;}
	.st9{fill:#E9E4DC;stroke:#C49F8A;stroke-miterlimit:3.9998;}
	.st10{fill:none;stroke:#C49F8A;}
	.st11{opacity:0;}
	.st12{fill:none;}
</style>
<metadata>
	<sfw  xmlns="&ns_sfw;">
		<slices></slices>
		<sliceSourceBounds  bottomLeftOrigin="true" height="396" width="640" x="20" y="42"></sliceSourceBounds>
	</sfw>
</metadata>
<polygon id="Floor" class="st0" points="607.4,87.9 605.1,96.7 542.2,96.5 533.9,93.5 532.1,96.5 494.1,86.5 494.1,127.6 
	491.5,127.6 491.5,99.9 63.3,99.9 63.3,173.1 420.9,173.1 421.4,316.2 416.1,316.2 415.8,394.1 600.7,394.1 600.7,329.5 
	614.1,329.5 614.1,294.4 625.5,294.4 625.5,295.8 659.5,295.8 659.5,99.7 "/>
<g id="Wet_Floor">
	<g class="st1">
		<rect x="505.6" y="185.4" class="st2" width="47.1" height="51.2"/>
		<rect x="608.9" y="185.4" class="st2" width="46.8" height="60.1"/>
	</g>
	<polygon class="st3" points="509.5,185.4 505.6,189.4 505.6,190.8 510.9,185.4 	"/>
	<polygon class="st3" points="608.9,192.1 615.6,185.4 614.2,185.4 608.9,190.7 	"/>
	<path class="st3" d="M625.7,237.2l-8.3,8.3h1.4l7.6-7.6l7.6,7.6h1.4l-8.3-8.3l9.8-9.8l9.8,9.8l-8.3,8.3h1.4l7.6-7.6l7.6,7.6h0.8
		v-0.7l-7.7-7.7l7.7-7.7v-1.4l-8.4,8.4l-9.8-9.8l10-10l8.2,8.2v-1.4l-7.5-7.5l7.5-7.5v-1.4l-8.2,8.2l-9.7-9.7l9.8-9.8l8.1,8.1v-1.4
		l-7.4-7.4l7.4-7.4v-1.4l-8.1,8.1l-8.9-8.9h-1.4l9.6,9.6l-9.8,9.8l-9.8-9.8l9.6-9.6h-1.4l-8.9,8.9l-8.9-8.9h-1.4l9.6,9.6l-10,10
		l-7-7v1.4l6.3,6.3l-6.3,6.3v1.4l7-7l9.8,9.8l-9.8,9.8l-7-7v1.4l6.3,6.3l-6.3,6.3v1.4l7-7L625.7,237.2z M646.9,216l-10,10l-9.7-9.7
		l10-10L646.9,216z M616.7,205.8l10-10l9.8,9.8l-10,10L616.7,205.8z M626.5,217l9.7,9.7l-9.8,9.8l-9.7-9.7L626.5,217z"/>
	<polygon class="st3" points="614.6,245.5 608.9,239.9 608.9,241.3 613.2,245.5 	"/>
	<path class="st3" d="M552.7,225.6l-9.6-9.6l9.6-9.6v-1.9l-9.5-9.5l9.5-9.5v-0.1h-1.3l-8.9,8.9l-8.9-8.9h-1.4l9.6,9.6l-9.8,9.8
		l-9.8-9.8l9.6-9.6h-1.4l-8.9,8.9l-8.9-8.9h-1.4l9.6,9.6l-9.8,9.8l-5.4-5.4v1.4l4.7,4.7l-4.7,4.7v1.4l5.4-5.4l9.8,9.8l-9.7,9.7
		l-5.4-5.4v1.4l4.7,4.7l-4.7,4.7v1.4l5.4-5.4l9.5,9.5h2l9.4-9.4l9.4,9.4h2l9.3-9.3V225.6z M542.4,195.8l9.8,9.8l-9.8,9.8l-9.8-9.8
		L542.4,195.8z M511.6,205.6l9.8-9.8l9.8,9.8l-9.8,9.8L511.6,205.6z M521.5,236.3l-9.8-9.8l9.7-9.7l9.8,9.8L521.5,236.3z
		 M522.1,216.1l9.8-9.8l9.8,9.8l-9.8,9.8L522.1,216.1z M542.4,236.3l-9.7-9.7l9.8-9.8l9.7,9.7L542.4,236.3z"/>
</g>
<g id="Windows">
	<path class="st4" d="M606.9,84.5l43.3,10l-0.8,3.2l-43.3-10L606.9,84.5z"/>
	<path class="st4" d="M491.3,235.9h3.3v64.4h-3.3V235.9z"/>
	<polygon class="st4" points="534.4,94 491.3,82.6 491.3,97 63.8,97 60.5,97 60.5,100.4 60.5,173.6 60.5,173.7 60.5,176.9 
		418,176.9 418,318.7 421.4,318.7 421.4,176.9 421.4,175.6 421.4,173.6 63.8,173.6 63.8,100.4 491.3,100.4 491.3,147.8 494.6,147.8 
		494.6,87 533.6,97.3 	"/>
</g>
<g id="Walls">
	<path class="st5" d="M653.4,93.8h-0.1h-8.8v15.5h8.8v75.5h-51v2.2h6.6v22.2h2.2V187h33.8v5.5v2.2h2.2h6.2v50.1h-42.2V227h-2.2v20
		h1.5h0.7h42.2v42.2h-4.4v6.7h4.4h0h6.7V93.8H653.4z M653.3,192.5h-6.2V187h6.2V192.5z"/>
	<path class="st5" d="M489.1,238.1h15.5h4.4h71.1v-2.2H580v-24.4h-2.2v24.4H509v-37.6h7.9v0v-2.2V187H529v-2.2h-20v-57.7h-20v2.2
		h-6.6v6.7h6.6v26.6h-6.6v6.7h6.6v26.6h-6.6v6.7h6.6v28.8h-6.6v6.7h6.6H489.1z M509,187h5.7v9.1H509V187z"/>
	<rect x="482.4" y="264.8" class="st5" width="15.5" height="6.7"/>
	<polygon class="st5" points="533.4,102.7 537.9,102.7 537.9,109.4 553.4,109.4 553.4,102.7 577.8,102.7 577.8,193.7 580,193.7 
		580,187 584.5,187 584.5,184.8 580,184.8 580,102.7 608.9,102.7 612.9,85.4 606.4,83.9 603.6,96 542.9,96 533.9,92.4 531.4,98.6 
		533.4,99.4 	"/>
	<polygon class="st5" points="553.4,235.8 553.4,187 553.5,187 553.5,184.8 546.8,184.8 546.8,187 551.2,187 551.2,235.8 	"/>
	<path class="st5" d="M593.4,289.2v2.2h15.5v4.4v0.1v28.8h-6.6h-6.7v31.1H529v-13.3h-2.2v13.3v2.2h28.8v2.2h2.2V358h37.8v27.5h-5.8
		h-2.2v2.2v3.6h-29.8V378h-2.2v13.3h-51.1v-46.6h4.5v-2.2h-4.5v-44.4h-15.4H489h-6.6v6.7h6.6v28.8h-6.6v6.7h6.6v22.2h-66.6v-46.7
		h-6.7V398h1h5.7H489h9.9h4.3v0h92.9v0h6.2v-66.6h6.6h0.1h6.6v-35.5h11.1v-6.7h-17.8H593.4z M489,391.3h-66.6v-26.6H489V391.3z
		 M595.6,391.3h-5.8v-3.6h5.8V391.3z"/>
</g>
<path id="Doors" class="st4" d="M602.3,184.8c0-2.4-0.5-4.4-1.4-6.6c-0.9-2.2-2.2-4.2-3.9-5.9c-1.6-1.7-3.6-3-5.8-3.9
	s-4.5-1.4-6.8-1.4v17.8 M577.8,193.7c-2.4,0-4.4,0.5-6.6,1.4c-2.2,0.9-4.2,2.2-5.9,3.9c-1.7,1.6-3,3.6-3.9,5.8s-1.4,4.5-1.4,6.8
	h17.8 M608.9,227c-2.4,0-4.4-0.5-6.6-1.4c-2.2-0.9-4.2-2.2-5.9-3.9c-1.7-1.6-3-3.6-3.9-5.8s-1.4-4.5-1.4-6.8h17.8 M529,187
	c0,2.4,0.5,4.4,1.4,6.6c0.9,2.2,2.2,4.2,3.9,5.9c1.6,1.7,3.6,3,5.8,3.9s4.5,1.4,6.8,1.4V187 M526.8,342.5c0-2.4-0.5-4.4-1.4-6.6
	s-2.2-4.2-3.9-5.9c-1.6-1.7-3.6-3-5.8-3.9s-4.5-1.4-6.8-1.4v17.8 M555.6,378c-2.4,0-4.4-0.5-6.6-1.4c-2.2-0.9-4.2-2.2-5.9-3.9
	c-1.7-1.6-3-3.6-3.9-5.8c-0.9-2.2-1.4-4.5-1.4-6.8h17.8 M626.7,289.2c0-3,0.6-5.5,1.7-8.2c1.1-2.7,2.8-5.2,4.8-7.3
	c2.1-2.1,4.5-3.8,7.2-4.9s5.6-1.7,8.5-1.7v22.2 M491.3,240.3c-3,0-5.5,0.6-8.2,1.7c-2.7,1.1-5.2,2.8-7.3,4.8
	c-2.1,2.1-3.8,4.5-4.9,7.2c-1.1,2.7-1.7,5.6-1.7,8.5h22.2"/>
<g id="Furniture_2_">
	<g>
		<g>
			<rect x="612.7" y="228" class="st6" width="40.2" height="16.3"/>
			<path class="st3" d="M613.2,228.5h39.2v15.3h-39.2V228.5 M612.2,227.5v17.3h41.2v-17.3H612.2L612.2,227.5z"/>
		</g>
		<g>
			<g>
				<path class="st7" d="M649.8,236.1c0-3.2-2.7-5.6-5.9-5.4c-3.5,0.3-7.8,0.6-11.1,0.6c-3.2,0-7.6-0.3-11.1-0.6
					c-3.1-0.3-5.9,2.2-5.9,5.4c0,3.1,2.7,5.6,5.9,5.4c3.5-0.3,7.8-0.6,11.1-0.6c3.2,0,7.6,0.3,11.1,0.6
					C647.1,241.8,649.8,239.3,649.8,236.1z"/>
				<ellipse class="st7" cx="644.3" cy="236.1" rx="0.9" ry="0.9"/>
			</g>
		</g>
	</g>
	<g id="Sink_2">
		<g id="Rectangle_16_x5F_11_2_">
			<rect x="529.6" y="225.8" class="st6" width="21.1" height="9.6"/>
			<path class="st3" d="M550.2,226.3v8.6h-20.1v-8.6H550.2 M551.2,225.3h-22.1v10.6h22.1V225.3L551.2,225.3z"/>
		</g>
		<path id="Rectangle_19_x5F_5" class="st8" d="M535.3,230.6L535.3,230.6c0,1.7,1.3,3,2.8,3h4c1.5,0,2.8-1.4,2.8-3l0,0
			c0-1.7-1.3-3-2.8-3h-4C536.6,227.6,535.3,228.9,535.3,230.6z"/>
		<ellipse class="st8" cx="540.1" cy="229.9" rx="0.9" ry="0.9"/>
	</g>
	<g id="Sink_2_2_">
		<g id="Rectangle_16_x5F_11_3_">
			<rect x="643.2" y="213.1" class="st6" width="9.6" height="14.9"/>
			<path class="st3" d="M652.3,213.6v13.9h-8.6v-13.9H652.3 M653.3,212.6h-10.6v15.9h10.6V212.6L653.3,212.6z"/>
		</g>
		<path id="Rectangle_19_x5F_5_2_" class="st8" d="M648,215.8L648,215.8c-1.7,0-3,1.3-3,2.8v4c0,1.5,1.4,2.8,3,2.8l0,0
			c1.7,0,3-1.3,3-2.8v-4C651.1,217,649.7,215.8,648,215.8z"/>
		<ellipse class="st8" cx="648.7" cy="220.6" rx="0.9" ry="0.9"/>
	</g>
	<g>
		<g>
			<rect x="534" y="122.1" class="st6" width="43.3" height="35.5"/>
			<path class="st3" d="M576.8,122.6v34.5h-42.3v-34.5L576.8,122.6 M577.8,121.6h-44.3v36.5h44.3V121.6L577.8,121.6z"/>
		</g>
		<rect x="563.7" y="140.8" class="st8" width="11" height="14.2"/>
		<rect x="563.7" y="124.7" class="st8" width="11" height="14.2"/>
		<polygon class="st9" points="568.2,153.3 571,143 560.4,140.2 557.6,150.5 		"/>
		<polygon class="st9" points="560.4,139.5 571,136.7 568.2,126.4 557.6,129.2 		"/>
		<g>
			<polygon class="st6" points="533.6,157.6 533.6,122.1 568.1,122.1 569,136.2 565.8,157.6 			"/>
			<path class="st3" d="M567.6,122.6l0.9,13.6l-3.1,20.9h-31.3v-34.5L567.6,122.6 M568.6,121.6h-0.7h-34.8v36.5H566h0.2l3.3-21.9
				L568.6,121.6L568.6,121.6z"/>
		</g>
		<polyline class="st10" points="567.4,122.1 567.4,136.4 565.6,157.7 		"/>
	</g>
	<g>
		<g>
			<rect x="605.3" y="127.9" class="st6" width="47.6" height="30.7"/>
			<path class="st3" d="M652.3,128.4v29.7h-46.6v-29.7H652.3 M653.3,127.4h-48.6v31.7h48.6V127.4L653.3,127.4z"/>
		</g>
		<rect x="637.9" y="144" class="st8" width="12" height="12.4"/>
		<rect x="637.9" y="130.1" class="st8" width="12" height="12.4"/>
		<polygon class="st9" points="642.8,154.9 645.9,145.9 634.3,143.5 631.1,152.5 		"/>
		<polygon class="st9" points="634.3,142.9 645.9,140.5 642.7,131.6 631.1,134 		"/>
		<g>
			<polygon class="st6" points="604.8,158.6 604.8,127.9 642.7,127.9 643.7,140.1 640.2,158.6 			"/>
			<path class="st3" d="M605.3,128.4h37l0.9,11.6l-3.4,18h-34.5V128.4 M604.3,127.4v31.7h36.1h0.3l3.6-19l-1-12.7h-0.8L604.3,127.4
				L604.3,127.4z"/>
		</g>
		<polyline class="st10" points="641.9,127.8 641.9,140.2 639.9,158.7 		"/>
	</g>
	<g>
		<g>
			<rect x="609.4" y="248.4" class="st6" width="43.4" height="9"/>
			<path class="st3" d="M652.3,248.9v8h-42.4v-8H652.3 M653.3,247.9h-44.4v10h44.4V247.9L653.3,247.9z"/>
		</g>
		<g>
			<rect x="609.4" y="247.5" class="st6" width="43.4" height="8.3"/>
			<path class="st3" d="M609.9,248h42.4v7.3h-42.4V248 M608.9,247v9.3h44.4V247H608.9L608.9,247z"/>
		</g>
		<path class="st8" d="M653.2,247.4l-44.2,8.5"/>
	</g>
	<g>
		<g>
			<rect x="553.9" y="221.7" class="st6" width="23.4" height="9"/>
			<path class="st3" d="M576.8,222.2v8h-22.4v-8H576.8 M577.8,221.2h-24.4v10h24.4V221.2L577.8,221.2z"/>
		</g>
		<g>
			<rect x="553.9" y="223.3" class="st6" width="23.4" height="12.1"/>
			<path class="st3" d="M576.8,223.8v11.1h-22.4v-11.1H576.8 M577.8,222.8h-24.4v13.1h24.4V222.8L577.8,222.8z"/>
		</g>
		<path class="st8" d="M553.9,235.4l23.5-12"/>
	</g>
	<g>
		<g>
			<rect x="610.1" y="170.6" class="st6" width="42.8" height="9"/>
			<path class="st3" d="M652.3,171.1v8h-41.8v-8H652.3 M653.3,170.1h-43.8v10h43.8V170.1L653.3,170.1z"/>
		</g>
		<g>
			<rect x="610.1" y="172.2" class="st6" width="42.8" height="12.1"/>
			<path class="st3" d="M652.3,172.7v11.1h-41.8v-11.1H652.3 M653.3,171.7h-43.8v13.1h43.8V171.7L653.3,171.7z"/>
		</g>
		<path class="st8" d="M610.4,184.3l42.1-12"/>
	</g>
	<g>
		<g>
			<rect x="592.8" y="293.5" class="st6" width="9" height="13.6"/>
			<path class="st3" d="M601.3,294v12.6h-8V294H601.3 M602.3,293h-10v14.6h10V293L602.3,293z"/>
		</g>
		<g>
			<rect x="594.4" y="291.9" class="st6" width="14" height="16.8"/>
			<path class="st3" d="M607.9,292.4v15.8h-13v-15.8H607.9 M608.9,291.4h-15v17.8h15V291.4L608.9,291.4z"/>
		</g>
	</g>
	<g>
		<g>
			<rect x="612.8" y="281.1" class="st6" width="10.8" height="3.5"/>
			<path class="st3" d="M623.1,281.6v2.5h-9.8v-2.5H623.1 M624.1,280.6h-11.8v4.5h11.8V280.6L624.1,280.6z"/>
		</g>
		<g>
			<rect x="612.8" y="282.7" class="st6" width="10.8" height="6"/>
			<path class="st3" d="M623.1,283.2v5h-9.8v-5H623.1 M624.1,282.2h-11.8v7h11.8V282.2L624.1,282.2z"/>
		</g>
		<path class="st8" d="M612.6,288.7l11.1-6"/>
	</g>
	<g id="Rectangle_24_1_">
		<rect x="529.5" y="341.4" class="st6" width="63.1" height="13.9"/>
		<path class="st3" d="M592.1,341.9v12.9H530v-12.9H592.1 M593.1,340.9H529v14.9h64.1V340.9L593.1,340.9z"/>
	</g>
	<g id="Rectangle_26">
		<rect x="572.4" y="341.4" class="st6" width="22.7" height="13.9"/>
		<path class="st3" d="M594.6,341.9v12.9h-21.7v-12.9H594.6 M595.6,340.9h-23.7v14.9h23.7V340.9L595.6,340.9z"/>
	</g>
	<g id="Rectangle_27">
		<rect x="592.9" y="308.7" class="st6" width="15.5" height="15.5"/>
		<path class="st3" d="M607.9,309.2v14.5h-14.5v-14.5H607.9 M608.9,308.2h-16.5v16.5h16.5V308.2L608.9,308.2z"/>
	</g>
	<g id="Sink_3_1_">
		<rect id="Rectangle_28_x5F_2_1_" x="574.4" y="342.8" class="st8" width="17.7" height="11.1"/>
		<path id="Rectangle_29_x5F_2_1_" class="st8" d="M581.4,348.4L581.4,348.4c0-2.3,1.9-4.2,4.2-4.2h0.9c2.3,0,4.2,1.9,4.2,4.2l0,0
			c0,2.3-1.9,4.2-4.2,4.2h-0.9C583.3,352.5,581.4,350.7,581.4,348.4z"/>
		<ellipse id="Ellipse_7_x5F_3_1_" class="st8" cx="586.1" cy="350" rx="0.9" ry="0.9"/>
		<path id="Vector_2_1_" class="st10" d="M575.4,352.5h4.6 M575.4,351.1h4.6 M575.4,349.8h4.6 M575.4,348.4h4.6 M575.4,347h4.6
			 M575.4,345.6h4.6 M575.4,344.2h4.6"/>
	</g>
	<g id="Stove_1_">
		<g id="Rectangle_25_1_">
			<rect x="551" y="341.4" class="st6" width="13.5" height="13.9"/>
			<path class="st3" d="M564,341.9v12.9h-12.5v-12.9H564 M565,340.9h-14.5v14.9H565V340.9L565,340.9z"/>
		</g>
		<g id="Rectangle_28_x5F_3_1_">
			<rect x="551" y="353.9" class="st6" width="13.5" height="1.4"/>
			<path class="st3" d="M564,354.4v0.4h-12.5v-0.4H564 M565,353.4h-14.5v2.4H565V353.4L565,353.4z"/>
		</g>
		<g id="Ellipse_7_x5F_4_1_">
			<path class="st6" d="M554.6,351.7c-0.7,0-1.2-0.5-1.2-1.2s0.5-1.2,1.2-1.2s1.2,0.5,1.2,1.2C555.8,351.1,555.3,351.7,554.6,351.7z
				"/>
			<path class="st3" d="M554.6,349.8c0.4,0,0.7,0.3,0.7,0.7c0,0.4-0.3,0.7-0.7,0.7s-0.7-0.3-0.7-0.7
				C553.9,350.1,554.2,349.8,554.6,349.8 M554.6,348.8c-1,0-1.7,0.8-1.7,1.7c0,1,0.8,1.7,1.7,1.7s1.7-0.8,1.7-1.7
				C556.3,349.5,555.6,348.8,554.6,348.8L554.6,348.8z"/>
		</g>
		<g id="Ellipse_9_1_">
			<path class="st6" d="M554.6,347c-0.9,0-1.7-0.7-1.7-1.7s0.7-1.7,1.7-1.7c0.9,0,1.7,0.7,1.7,1.7S555.5,347,554.6,347z"/>
			<path class="st3" d="M554.6,344.2c0.6,0,1.2,0.5,1.2,1.2s-0.5,1.2-1.2,1.2s-1.2-0.5-1.2-1.2S554,344.2,554.6,344.2 M554.6,343.2
				c-1.2,0-2.2,1-2.2,2.2s1,2.2,2.2,2.2s2.2-1,2.2-2.2C556.8,344.1,555.8,343.2,554.6,343.2L554.6,343.2z"/>
		</g>
		<g id="Ellipse_10_1_">
			<circle class="st6" cx="560.6" cy="350.5" r="1.7"/>
			<path class="st3" d="M560.6,349.3c0.6,0,1.2,0.5,1.2,1.2c0,0.6-0.5,1.2-1.2,1.2s-1.2-0.5-1.2-1.2
				C559.5,349.8,560,349.3,560.6,349.3 M560.6,348.3c-1.2,0-2.2,1-2.2,2.2s1,2.2,2.2,2.2s2.2-1,2.2-2.2S561.8,348.3,560.6,348.3
				L560.6,348.3z"/>
		</g>
		<g id="Ellipse_8_1_">
			<path class="st6" d="M560.6,346.1c-0.7,0-1.2-0.5-1.2-1.2s0.5-1.2,1.2-1.2s1.2,0.5,1.2,1.2C561.9,345.6,561.3,346.1,560.6,346.1z
				"/>
			<path class="st3" d="M560.6,344.2c0.4,0,0.7,0.3,0.7,0.7c0,0.4-0.3,0.7-0.7,0.7s-0.7-0.3-0.7-0.7c0-0.2,0.1-0.4,0.2-0.5
				C560.3,344.2,560.5,344.2,560.6,344.2L560.6,344.2 M560.6,343.2c-1,0-1.7,0.8-1.7,1.7c0,1,0.8,1.7,1.7,1.7s1.7-0.8,1.7-1.7
				C562.4,343.9,561.6,343.2,560.6,343.2L560.6,343.2z"/>
		</g>
	</g>
	<path id="Vector_3_1_" class="st10" d="M598.3,316.4h4.7 M599.5,314.4l2.4,4.1 M599.5,318.5l2.4-4.1"/>
	<g id="Toilet_1_">
		<g id="Rectangle_21_1_">
			<rect x="514" y="203.6" class="st6" width="3.3" height="10.5"/>
			<path class="st3" d="M516.7,204.1v9.5h-2.3v-9.5H516.7 M517.7,203.1h-4.3v11.5h4.3V203.1L517.7,203.1z"/>
		</g>
		<path id="Rectangle_19_x5F_2_1_" class="st8" d="M525,212.9c2.3,0.2,4.3-1.7,4.3-4.1l0,0c0-2.4-2-4.3-4.3-4.1l-7.5,0.5v7.2
			L525,212.9z"/>
		<path id="Rectangle_18_x5F_13_1_" class="st8" d="M524.7,211.7c1.8,0.2,3.4-1.2,3.4-2.9l0,0c0-1.7-1.6-3-3.4-2.9l-4.9,0.4v4.9
			L524.7,211.7z"/>
		<ellipse id="Ellipse_6_x5F_2_1_" class="st8" cx="522.2" cy="208.8" rx="0.9" ry="0.9"/>
	</g>
	<g>
		<path class="st8" d="M540.6,295.5h30v21.8h-30V295.5z"/>
		<path class="st8" d="M538.7,300.4h-0.5c-3.4,0-6,2.8-6,6c0,3.4,2.8,6,6,6h0.5V300.4z"/>
		<path class="st8" d="M540.6,301.8h-2.3c-2.5,0-4.6,2-4.6,4.6s2,4.6,4.6,4.6h2.3V301.8z"/>
		<path class="st8" d="M572.5,300.4h0.5c3.4,0,6,2.8,6,6c0,3.4-2.8,6-6,6h-0.5V300.4z"/>
		<path class="st8" d="M570.6,301.8h2.3c2.5,0,4.6,2,4.6,4.6s-2,4.6-4.6,4.6h-2.3V301.8z"/>
		<path class="st8" d="M561.6,319.2v0.5c0,3.4-2.8,6-6,6c-3.4,0-6-2.8-6-6v-0.5H561.6z"/>
		<path class="st8" d="M560.2,317.3v2.3c0,2.5-2,4.6-4.6,4.6s-4.6-2-4.6-4.6v-2.3H560.2z"/>
		<path class="st8" d="M561.6,293.6v-0.5c0-3.4-2.8-6-6-6c-3.4,0-6,2.8-6,6v0.5H561.6z"/>
		<path class="st8" d="M560.2,295.5v-2.3c0-2.5-2-4.6-4.6-4.6s-4.6,2-4.6,4.6v2.3H560.2z"/>
	</g>
	<g>
		<g>
			<path class="st6" d="M512.3,235.4v-17.3h12.1c2.9,0,5.2,2.3,5.2,5.2v12.1H512.3z"/>
			<path class="st3" d="M524.4,218.6c2.6,0,4.7,2.1,4.7,4.7v11.6h-16.3v-16.3H524.4 M524.4,217.6h-12.6v18.3h18.3v-12.6
				C530.1,220.1,527.5,217.6,524.4,217.6L524.4,217.6z"/>
		</g>
		<g>
			<path class="st6" d="M513.8,233.9v-14.3h10.6c2.1,0,3.7,1.7,3.7,3.7v10.6H513.8z"/>
			<path class="st3" d="M524.4,220.1c1.8,0,3.2,1.5,3.2,3.2v10.1h-13.3v-13.3H524.4 M524.4,219.1h-11.1v15.3h15.3v-11.1
				C528.6,221,526.7,219.1,524.4,219.1L524.4,219.1z"/>
		</g>
		<ellipse class="st8" cx="516.5" cy="231.2" rx="0.9" ry="0.9"/>
	</g>
	<g>
		<path class="st8" d="M627.7,117.7l-10.9-2.6l0.9-10.3l13.9,3.3L627.7,117.7z"/>
		<g>
			
				<rect x="619.1" y="84.9" transform="matrix(0.2319 -0.9727 0.9727 0.2319 383.1216 685.3417)" class="st6" width="12.8" height="30.3"/>
			<path class="st3" d="M612.7,90.8l28.5,6.8l-2.7,11.5l-28.5-6.8L612.7,90.8 M611.9,89.6l-3.2,13.5l30.4,7.3l3.2-13.5L611.9,89.6
				L611.9,89.6z"/>
		</g>
		<path class="st10" d="M629.1,103.8l-8.4-2 M629.4,105.7l-9.9-2.4l0.7-3l9.9,2.4L629.4,105.7z"/>
		<path class="st8" d="M633.6,106.4L633.6,106.4c-0.4-0.1-0.7-0.5-0.6-0.9l0.2-1c0.1-0.4,0.5-0.7,0.9-0.6l0,0
			c0.4,0.1,0.7,0.5,0.6,0.9l-0.2,1C634.4,106.3,634,106.5,633.6,106.4z"/>
		<path class="st8" d="M628.5,98.4c-0.3,1.4-1.7,2.2-3.1,1.9c-1.4-0.3-2.2-1.7-1.9-3.1l0.6-2.5l5,1.2L628.5,98.4z"/>
		<polygon class="st8" points="639.2,99.7 613.4,93.5 613.7,92.2 639.5,98.4 		"/>
		<g>
			
				<rect x="619.1" y="107" transform="matrix(0.2318 -0.9728 0.9728 0.2318 369.6762 692.6226)" class="st6" width="8.6" height="10.6"/>
			<path class="st3" d="M619.4,107.5l9.3,2.2l-1.8,7.4l-9.3-2.2L619.4,107.5 M618.7,106.3l-2.2,9.4l11.3,2.7l2.2-9.4L618.7,106.3
				L618.7,106.3z"/>
		</g>
		<g>
			
				<rect x="621.3" y="111.5" transform="matrix(0.2314 -0.9729 0.9729 0.2314 364.3127 695.1413)" class="st6" width="1.5" height="11.1"/>
			<path class="st3" d="M617.1,115.8l9.8,2.3l-0.1,0.5l-9.8-2.3L617.1,115.8 M616.4,114.6l-0.6,2.4l11.8,2.8l0.6-2.4L616.4,114.6
				L616.4,114.6z"/>
		</g>
	</g>
	<g>
		<g>
			<rect x="586.9" y="358.5" class="st6" width="8.2" height="12.5"/>
			<path class="st3" d="M594.6,359v11.5h-7.2V359H594.6 M595.6,358h-9.2v13.5h9.2V358L595.6,358z"/>
		</g>
		<g>
			<path class="st6" d="M591,367.3c-1.4,0-2.5-1.1-2.5-2.5s1.1-2.5,2.5-2.5s2.5,1.1,2.5,2.5C593.5,366.1,592.4,367.3,591,367.3z"/>
			<path class="st3" d="M591,362.8c1.1,0,2,0.9,2,2s-0.9,2-2,2s-2-0.9-2-2S589.9,362.8,591,362.8 M591,361.8c-1.7,0-3,1.3-3,3
				s1.3,3,3,3s3-1.3,3-3C594,363.1,592.7,361.8,591,361.8L591,361.8z"/>
		</g>
	</g>
	<g>
		<g>
			<rect x="644.6" y="200.6" class="st6" width="8.2" height="12.5"/>
			<path class="st3" d="M652.3,201.1v11.5h-7.2v-11.5H652.3 M653.3,200.1h-9.2v13.5h9.2V200.1L653.3,200.1z"/>
		</g>
		<g>
			<path class="st6" d="M648.7,209.4c-1.4,0-2.5-1.1-2.5-2.5s1.1-2.5,2.5-2.5s2.5,1.1,2.5,2.5C651.2,208.3,650.1,209.4,648.7,209.4z
				"/>
			<path class="st3" d="M648.7,204.9c1.1,0,2,0.9,2,2s-0.9,2-2,2s-2-0.9-2-2S647.6,204.9,648.7,204.9 M648.7,203.9c-1.7,0-3,1.3-3,3
				s1.3,3,3,3s3-1.3,3-3S650.4,203.9,648.7,203.9L648.7,203.9z"/>
		</g>
	</g>
	<g id="TV">
		<g id="Rectangle_16">
			<rect x="536.7" y="243.5" class="st6" width="34.8" height="1.9"/>
			<path class="st3" d="M571.1,244v0.9h-33.8V244H571.1 M572.1,243h-35.8v2.9h35.8V243L572.1,243z"/>
		</g>
		<g id="Rectangle_15">
			<rect x="536.7" y="238.6" class="st6" width="34.8" height="5.2"/>
			<path class="st3" d="M571.1,239.1v4.2h-33.8v-4.2H571.1 M572.1,238.1h-35.8v6.2h35.8V238.1L572.1,238.1z"/>
		</g>
		<rect id="Rectangle_17" x="542.3" y="240.1" class="st8" width="23.8" height="1.4"/>
		<path id="Rectangle_18_x5F_2" class="st8" d="M562,240.1h-15.7l1.4-1.4h12.9L562,240.1z"/>
	</g>
	<g id="TV_1_">
		<g id="Rectangle_16_1_">
			<rect x="514.4" y="122.8" class="st6" width="1.9" height="33.3"/>
			<path class="st3" d="M515.8,123.3v32.3h-0.9v-32.3H515.8 M516.8,122.3h-2.9v34.3h2.9V122.3L516.8,122.3z"/>
		</g>
		<g id="Rectangle_15_1_">
			<rect x="509.5" y="122.8" class="st6" width="5.2" height="33.3"/>
			<path class="st3" d="M514.2,123.3v32.3H510v-32.3H514.2 M515.2,122.3H509v34.3h6.2V122.3L515.2,122.3z"/>
		</g>
		<rect id="Rectangle_17_1_" x="511" y="127.6" class="st8" width="1.4" height="23.8"/>
		<path id="Rectangle_18_x5F_2_1_" class="st8" d="M511,131.6v15.7l-1.4-1.4V133L511,131.6z"/>
	</g>
	<g id="Toilet_3_">
		<g id="Rectangle_21_3_">
			<rect x="615.4" y="192" class="st6" width="10.5" height="3.3"/>
			<path class="st3" d="M625.4,192.5v2.3h-9.5v-2.3H625.4 M626.4,191.5h-11.5v4.3h11.5V191.5L626.4,191.5z"/>
		</g>
		<path id="Rectangle_19_x5F_2_3_" class="st8" d="M616.6,203.1c-0.2,2.3,1.7,4.3,4.1,4.3l0,0c2.4,0,4.3-2,4.1-4.3l-0.5-7.5h-7.2
			L616.6,203.1z"/>
		<path id="Rectangle_18_x5F_13_3_" class="st8" d="M617.8,202.7c-0.2,1.8,1.2,3.4,2.9,3.4l0,0c1.7,0,3-1.6,2.9-3.4l-0.4-4.9h-4.9
			L617.8,202.7z"/>
		<ellipse id="Ellipse_6_x5F_2_3_" class="st8" cx="620.7" cy="200.2" rx="0.9" ry="0.9"/>
	</g>
	<g>
		<rect x="611.7" y="187.5" class="st6" width="32.7" height="4.5"/>
		<path class="st3" d="M643.9,188v3.5h-31.7V188H643.9 M644.9,187h-33.7v5.5h33.7V187L644.9,187z"/>
	</g>
	<g>
		<polygon class="st6" points="509.5,235.4 509.5,198.8 514,198.8 514,215.4 512.3,215.4 512.3,235.4 		"/>
		<path class="st3" d="M513.5,199.3v15.6h-0.7h-1v1v19H510v-19v-3.2v-13.4L513.5,199.3 M514.5,198.3H509v14.4v3.2v20h3.8v-20h1.7
			V198.3L514.5,198.3z"/>
	</g>
	<g>
		<g>
			<rect x="505" y="379.7" class="st6" width="50.1" height="10.8"/>
			<path class="st3" d="M554.6,380.2v9.8l-49.1,0v-9.8L554.6,380.2 M555.6,379.2l-51.1,0V391l51.1,0V379.2L555.6,379.2z"/>
		</g>
		<g>
			<rect x="505" y="381.5" class="st6" width="50.1" height="9.3"/>
			<path class="st3" d="M554.6,382v8.3h-49.1V382H554.6 M555.6,381h-51.1v10.3h51.1V381L555.6,381z"/>
		</g>
		<path class="st8" d="M504.8,390.7l50.7-9.3"/>
	</g>
	<g>
		<g>
			<rect x="558.3" y="379.7" class="st6" width="26.6" height="10.8"/>
			<path class="st3" d="M584.5,380.2v9.8l-25.6,0v-9.8H584.5 M585.5,379.2h-27.6V391l27.6,0V379.2L585.5,379.2z"/>
		</g>
		<g>
			<rect x="558.3" y="381.5" class="st6" width="26.6" height="9.3"/>
			<path class="st3" d="M584.5,382v8.3h-25.6V382H584.5 M585.5,381h-27.6v10.3h27.6V381L585.5,381z"/>
		</g>
		<path class="st8" d="M558.3,390.7l26.9-9.3"/>
	</g>
</g>
<g id="Numbers">
	<g>
		<path class="st5" d="M553.6,266.4l-1.6,1.8h2.7v1h-4.2v-0.9l2.1-2.3l0.5-0.6c0.1-0.1,0.2-0.3,0.3-0.5s0.1-0.4,0.1-0.6
			c0-0.3-0.1-0.5-0.3-0.7s-0.5-0.3-0.8-0.3c-0.5,0-1,0.2-1.6,0.7l-0.6-0.7c0.7-0.6,1.4-1,2.2-1c0.6,0,1.1,0.2,1.5,0.6
			s0.6,0.9,0.6,1.4C554.7,264.9,554.3,265.6,553.6,266.4z"/>
		<path class="st5" d="M558.7,266.4l-1.6,1.8h2.7v1h-4.2v-0.9l2.1-2.3l0.5-0.6c0.1-0.1,0.2-0.3,0.3-0.5s0.1-0.4,0.1-0.6
			c0-0.3-0.1-0.5-0.3-0.7s-0.5-0.3-0.8-0.3c-0.5,0-1,0.2-1.6,0.7l-0.6-0.7c0.7-0.6,1.4-1,2.2-1c0.6,0,1.1,0.2,1.5,0.6
			s0.6,0.9,0.6,1.4C559.8,264.9,559.4,265.6,558.7,266.4z"/>
		<path class="st5" d="M561.4,269.2c-0.2,0-0.3-0.1-0.5-0.2s-0.2-0.3-0.2-0.5s0.1-0.3,0.2-0.4s0.3-0.2,0.5-0.2s0.3,0.1,0.4,0.2
			s0.2,0.3,0.2,0.4c0,0.2-0.1,0.3-0.2,0.5S561.5,269.2,561.4,269.2z"/>
		<path class="st5" d="M566,266.4l-1.6,1.8h2.7v1h-4.2v-0.9l2.1-2.3l0.5-0.6c0.1-0.1,0.2-0.3,0.3-0.5s0.1-0.4,0.1-0.6
			c0-0.3-0.1-0.5-0.3-0.7s-0.5-0.3-0.8-0.3c-0.5,0-1,0.2-1.6,0.7l-0.6-0.7c0.7-0.6,1.4-1,2.2-1c0.6,0,1.1,0.2,1.5,0.6
			s0.6,0.9,0.6,1.4C567,264.9,566.6,265.6,566,266.4z"/>
	</g>
	<g>
		<path class="st5" d="M607.9,271.5c-0.7,0-1.4-0.2-2.1-0.7l0.5-0.8c0.6,0.4,1.1,0.5,1.6,0.5c0.4,0,0.7-0.1,0.9-0.3
			c0.2-0.2,0.3-0.4,0.3-0.8c0-0.3-0.1-0.6-0.4-0.8c-0.2-0.2-0.5-0.3-0.9-0.3H607v-0.9h0.8c0.3,0,0.6-0.1,0.8-0.3
			c0.2-0.2,0.3-0.4,0.3-0.7c0-0.3-0.1-0.5-0.3-0.7s-0.5-0.3-0.8-0.3c-0.4,0-0.9,0.2-1.4,0.6l-0.5-0.7c0.2-0.2,0.5-0.4,0.9-0.6
			c0.4-0.1,0.7-0.2,1.1-0.2c0.6,0,1.1,0.2,1.5,0.5s0.6,0.8,0.6,1.2c0,0.4-0.1,0.7-0.3,0.9c-0.2,0.3-0.5,0.5-0.8,0.6l0,0
			c0.4,0.1,0.7,0.3,1,0.6c0.2,0.3,0.3,0.6,0.3,1.1c0,0.6-0.2,1-0.6,1.4C609.1,271.3,608.5,271.5,607.9,271.5z"/>
		<path class="st5" d="M611.7,271.6c-0.2,0-0.3-0.1-0.5-0.2c-0.1-0.1-0.2-0.3-0.2-0.5s0.1-0.3,0.2-0.4c0.1-0.1,0.3-0.2,0.5-0.2
			s0.3,0.1,0.4,0.2c0.1,0.1,0.2,0.3,0.2,0.4c0,0.2-0.1,0.3-0.2,0.5C612,271.5,611.9,271.6,611.7,271.6z"/>
		<path class="st5" d="M617.1,268.9h0.7v0.9h-0.7v1.6h-1v-1.6h-3l-0.2-0.6l3.6-4.4h0.7L617.1,268.9L617.1,268.9z M616.1,266.5
			l-2,2.4h2V266.5z"/>
	</g>
	<g>
		<path class="st5" d="M591.3,233.4l-1.6,1.8h2.7v1h-4.2v-0.9l2.1-2.3l0.5-0.6c0.1-0.1,0.2-0.3,0.3-0.5s0.1-0.4,0.1-0.6
			c0-0.3-0.1-0.5-0.3-0.7s-0.5-0.3-0.8-0.3c-0.5,0-1,0.2-1.6,0.7l-0.6-0.7c0.7-0.6,1.4-1,2.2-1c0.6,0,1.1,0.2,1.5,0.6
			c0.4,0.4,0.6,0.9,0.6,1.4C592.3,232,591.9,232.7,591.3,233.4z"/>
		<path class="st5" d="M593.9,236.3c-0.2,0-0.3-0.1-0.5-0.2c-0.1-0.1-0.2-0.3-0.2-0.5s0.1-0.3,0.2-0.4c0.1-0.1,0.3-0.2,0.5-0.2
			s0.3,0.1,0.4,0.2c0.1,0.1,0.2,0.3,0.2,0.4c0,0.2-0.1,0.3-0.2,0.5C594.2,236.2,594,236.3,593.9,236.3z"/>
		<path class="st5" d="M597.9,231.8c0.6,0,1.1,0.2,1.5,0.6c0.4,0.4,0.6,0.9,0.6,1.5s-0.2,1.2-0.7,1.6c-0.4,0.4-1,0.6-1.7,0.6
			c-0.8,0-1.4-0.3-1.8-0.9c-0.4-0.6-0.6-1.4-0.6-2.3c0-0.6,0.1-1.2,0.3-1.8s0.5-1,0.9-1.3c0.4-0.4,1-0.5,1.6-0.5
			c0.7,0,1.3,0.2,1.7,0.6l-0.4,0.8c-0.4-0.3-0.8-0.4-1.2-0.4s-0.7,0.1-1,0.4c-0.5,0.5-0.8,1.2-0.8,2.1c0.2-0.3,0.4-0.5,0.7-0.7
			S597.5,231.8,597.9,231.8z M597.7,235.3c0.4,0,0.7-0.1,0.9-0.4c0.2-0.3,0.4-0.6,0.4-0.9c0-0.4-0.1-0.7-0.4-0.9
			c-0.2-0.2-0.5-0.4-0.9-0.4s-0.7,0.1-0.9,0.4c-0.2,0.2-0.4,0.6-0.4,0.9c0,0.4,0.1,0.7,0.4,0.9C597,235.2,597.3,235.3,597.7,235.3z"
			/>
	</g>
	<g>
		<path class="st5" d="M629.1,215.3h0.7v0.9h-0.7v1.6h-1v-1.6h-3l-0.2-0.6l3.6-4.4h0.7L629.1,215.3L629.1,215.3z M628.1,212.9
			l-2,2.4h2V212.9z"/>
	</g>
	<g>
		<path class="st5" d="M534.8,218.7c-0.7,0-1.4-0.2-2.1-0.7l0.5-0.8c0.6,0.4,1.1,0.5,1.6,0.5c0.4,0,0.7-0.1,0.9-0.3s0.3-0.4,0.3-0.8
			c0-0.3-0.1-0.6-0.4-0.8c-0.2-0.2-0.5-0.3-0.9-0.3H534v-0.9h0.8c0.3,0,0.6-0.1,0.8-0.3s0.3-0.4,0.3-0.7s-0.1-0.5-0.3-0.7
			s-0.5-0.3-0.8-0.3c-0.4,0-0.9,0.2-1.4,0.6l-0.5-0.7c0.2-0.2,0.5-0.4,0.9-0.6c0.4-0.1,0.7-0.2,1.1-0.2c0.6,0,1.1,0.2,1.5,0.5
			s0.6,0.8,0.6,1.2s-0.1,0.7-0.3,0.9c-0.2,0.3-0.5,0.5-0.8,0.6l0,0c0.4,0.1,0.7,0.3,1,0.6c0.2,0.3,0.3,0.6,0.3,1.1
			c0,0.6-0.2,1-0.6,1.4C536,218.5,535.5,218.7,534.8,218.7z"/>
		<path class="st5" d="M538.6,218.7c-0.2,0-0.3-0.1-0.5-0.2c-0.1-0.1-0.2-0.3-0.2-0.5s0.1-0.3,0.2-0.4c0.1-0.1,0.3-0.2,0.5-0.2
			s0.3,0.1,0.4,0.2c0.1,0.1,0.2,0.3,0.2,0.4c0,0.2-0.1,0.3-0.2,0.5C539,218.6,538.8,218.7,538.6,218.7z"/>
		<path class="st5" d="M544.1,216h0.7v0.9h-0.7v1.6h-1v-1.6h-3l-0.2-0.6l3.6-4.4h0.7L544.1,216L544.1,216z M543.1,213.6l-2,2.4h2
			V213.6z"/>
	</g>
	<g>
		<path class="st5" d="M537.5,170l1.9-1.6h0.8v6.7h-1v-5.3l-1.2,0.9L537.5,170z"/>
		<path class="st5" d="M545.4,172.5h0.7v0.9h-0.7v1.6h-1v-1.6h-3l-0.2-0.6l3.6-4.4h0.7L545.4,172.5L545.4,172.5z M544.4,170.1
			l-2,2.4h2V170.1z"/>
	</g>
	<g>
		<path class="st5" d="M418.5,134.5l-1.6,1.8h2.7v1h-4.2v-0.9l2.1-2.3l0.5-0.6c0.1-0.1,0.2-0.3,0.3-0.5c0.1-0.2,0.1-0.4,0.1-0.6
			c0-0.3-0.1-0.5-0.3-0.7c-0.2-0.2-0.5-0.3-0.8-0.3c-0.5,0-1,0.2-1.6,0.7l-0.6-0.7c0.7-0.6,1.4-1,2.2-1c0.6,0,1.1,0.2,1.5,0.6
			c0.4,0.4,0.6,0.9,0.6,1.4C419.5,133.1,419.2,133.7,418.5,134.5z"/>
		<path class="st5" d="M422.3,137.3c-0.7,0-1.4-0.2-2.1-0.7l0.5-0.8c0.6,0.4,1.1,0.5,1.6,0.5c0.4,0,0.7-0.1,0.9-0.3
			c0.2-0.2,0.3-0.4,0.3-0.8c0-0.3-0.1-0.6-0.4-0.8c-0.2-0.2-0.5-0.3-0.9-0.3h-0.8v-0.9h0.8c0.3,0,0.6-0.1,0.8-0.3
			c0.2-0.2,0.3-0.4,0.3-0.7s-0.1-0.5-0.3-0.7s-0.5-0.3-0.8-0.3c-0.4,0-0.9,0.2-1.4,0.6l-0.5-0.7c0.2-0.2,0.5-0.4,0.9-0.6
			c0.4-0.1,0.7-0.2,1.1-0.2c0.6,0,1.1,0.2,1.5,0.5s0.6,0.8,0.6,1.2s-0.1,0.7-0.3,0.9c-0.2,0.3-0.5,0.5-0.8,0.6l0,0
			c0.4,0.1,0.7,0.3,1,0.6c0.2,0.3,0.3,0.6,0.3,1.1c0,0.6-0.2,1-0.6,1.4C423.5,137.2,423,137.3,422.3,137.3z"/>
		<path class="st5" d="M426.1,137.4c-0.2,0-0.3-0.1-0.5-0.2s-0.2-0.3-0.2-0.5s0.1-0.3,0.2-0.4s0.3-0.2,0.5-0.2s0.3,0.1,0.4,0.2
			s0.2,0.3,0.2,0.4c0,0.2-0.1,0.3-0.2,0.5S426.3,137.4,426.1,137.4z"/>
		<path class="st5" d="M429.8,132.9c0.6,0,1.2,0.2,1.6,0.6s0.6,0.9,0.6,1.6c0,0.7-0.2,1.2-0.7,1.6c-0.4,0.4-1,0.6-1.7,0.6
			c-0.8,0-1.5-0.3-2.2-0.8l0.5-0.8c0.6,0.4,1.1,0.6,1.7,0.6c0.4,0,0.7-0.1,1-0.4c0.3-0.2,0.4-0.5,0.4-0.9s-0.1-0.7-0.4-0.9
			c-0.2-0.2-0.6-0.4-1-0.4c-0.5,0-0.9,0.2-1.2,0.5l-0.6-0.4l0.4-3.3h3.4v0.9H429l-0.2,1.6C429.1,133,429.4,132.9,429.8,132.9z"/>
	</g>
	<g>
		<path class="st5" d="M584.3,135.7l1.9-1.6h0.8v6.7h-1v-5.3l-1.2,0.9L584.3,135.7z"/>
		<path class="st5" d="M587.8,135.7l1.9-1.6h0.8v6.7h-1v-5.3l-1.2,0.9L587.8,135.7z"/>
		<path class="st5" d="M592.4,140.9c-0.2,0-0.3-0.1-0.5-0.2s-0.2-0.3-0.2-0.5s0.1-0.3,0.2-0.4s0.3-0.2,0.5-0.2s0.3,0.1,0.4,0.2
			c0.1,0.1,0.2,0.3,0.2,0.4c0,0.2-0.1,0.3-0.2,0.5C592.8,140.9,592.6,140.9,592.4,140.9z"/>
		<path class="st5" d="M595.9,140.9c-0.7,0-1.4-0.2-2.1-0.7l0.5-0.8c0.6,0.4,1.1,0.5,1.6,0.5c0.4,0,0.7-0.1,0.9-0.3s0.3-0.4,0.3-0.8
			c0-0.3-0.1-0.6-0.4-0.8c-0.2-0.2-0.5-0.3-0.9-0.3H595v-0.9h0.8c0.3,0,0.6-0.1,0.8-0.3s0.3-0.4,0.3-0.7s-0.1-0.5-0.3-0.7
			s-0.5-0.3-0.8-0.3c-0.4,0-0.9,0.2-1.4,0.6l-0.5-0.7c0.2-0.2,0.6-0.4,0.9-0.6c0.4-0.1,0.7-0.2,1.1-0.2c0.6,0,1.1,0.2,1.5,0.5
			s0.6,0.8,0.6,1.2s-0.1,0.7-0.3,0.9c-0.2,0.3-0.5,0.5-0.8,0.6l0,0c0.4,0.1,0.7,0.3,1,0.6s0.3,0.6,0.3,1.1c0,0.6-0.2,1-0.6,1.4
			C597.2,140.7,596.6,140.9,595.9,140.9z"/>
	</g>
	<g>
		<path class="st5" d="M515.5,370.3c-0.7,0-1.4-0.2-2.1-0.7l0.5-0.8c0.6,0.4,1.1,0.5,1.6,0.5c0.4,0,0.7-0.1,0.9-0.3
			c0.2-0.2,0.3-0.4,0.3-0.8c0-0.3-0.1-0.6-0.4-0.8c-0.2-0.2-0.5-0.3-0.9-0.3h-0.8v-0.9h0.8c0.3,0,0.6-0.1,0.8-0.3
			c0.2-0.2,0.3-0.4,0.3-0.7c0-0.3-0.1-0.5-0.3-0.7s-0.5-0.3-0.8-0.3c-0.4,0-0.9,0.2-1.4,0.6l-0.5-0.7c0.2-0.2,0.5-0.4,0.9-0.6
			c0.4-0.1,0.7-0.2,1.1-0.2c0.6,0,1.1,0.2,1.5,0.5s0.6,0.8,0.6,1.2c0,0.4-0.1,0.7-0.3,0.9c-0.2,0.3-0.5,0.5-0.8,0.6l0,0
			c0.4,0.1,0.7,0.3,1,0.6c0.2,0.3,0.3,0.6,0.3,1.1c0,0.6-0.2,1-0.6,1.4C516.8,370.1,516.2,370.3,515.5,370.3z"/>
		<path class="st5" d="M519.4,370.3c-0.2,0-0.3-0.1-0.5-0.2c-0.1-0.1-0.2-0.3-0.2-0.5s0.1-0.3,0.2-0.4c0.1-0.1,0.3-0.2,0.5-0.2
			s0.3,0.1,0.4,0.2c0.1,0.1,0.2,0.3,0.2,0.4c0,0.2-0.1,0.3-0.2,0.5S519.5,370.3,519.4,370.3z"/>
		<path class="st5" d="M524,367.5l-1.6,1.8h2.7v1h-4.2v-0.9l2.1-2.3l0.5-0.6c0.1-0.1,0.2-0.3,0.3-0.5s0.1-0.4,0.1-0.6
			c0-0.3-0.1-0.5-0.3-0.7s-0.5-0.3-0.8-0.3c-0.5,0-1,0.2-1.6,0.7l-0.6-0.7c0.7-0.6,1.4-1,2.2-1c0.6,0,1.1,0.2,1.5,0.6
			s0.6,0.9,0.6,1.4C525,366,524.6,366.7,524,367.5z"/>
	</g>
	<g>
		<path class="st5" d="M564.9,368.2l-1.6,1.8h2.7v1h-4.2v-0.9l2.1-2.3l0.5-0.6c0.1-0.1,0.2-0.3,0.3-0.5s0.1-0.4,0.1-0.6
			c0-0.3-0.1-0.5-0.3-0.7s-0.5-0.3-0.8-0.3c-0.5,0-1,0.2-1.6,0.7l-0.6-0.7c0.7-0.6,1.4-1,2.2-1c0.6,0,1.1,0.2,1.5,0.6
			s0.6,0.9,0.6,1.4C566,366.8,565.6,367.5,564.9,368.2z"/>
		<path class="st5" d="M567.6,371.1c-0.2,0-0.3-0.1-0.5-0.2s-0.2-0.3-0.2-0.5s0.1-0.3,0.2-0.4s0.3-0.2,0.5-0.2s0.3,0.1,0.4,0.2
			s0.2,0.3,0.2,0.4c0,0.2-0.1,0.3-0.2,0.5S567.7,371.1,567.6,371.1z"/>
		<path class="st5" d="M572.2,368.2l-1.6,1.8h2.7v1h-4.2v-0.9l2.1-2.3l0.5-0.6c0.1-0.1,0.2-0.3,0.3-0.5s0.1-0.4,0.1-0.6
			c0-0.3-0.1-0.5-0.3-0.7s-0.5-0.3-0.8-0.3c-0.5,0-1,0.2-1.6,0.7l-0.6-0.7c0.7-0.6,1.4-1,2.2-1c0.6,0,1.1,0.2,1.5,0.6
			s0.6,0.9,0.6,1.4C573.2,366.8,572.8,367.5,572.2,368.2z"/>
	</g>
</g>
<g id="street_anchors" class="st11">
	<rect id="street_anchor_01_1_" x="355" y="42" class="st12" width="10" height="10"/>
	<rect id="street_anchor_02" x="20" y="235" class="st12" width="10" height="10"/>
	<rect id="street_anchor_03" x="355" y="428" class="st12" width="10" height="10"/>
</g>
</svg>
