<?xml version="1.0" encoding="utf-8"?>
<!-- Generator: Adobe Illustrator 24.2.0, SVG Export Plug-In . SVG Version: 6.00 Build 0)  -->
<!DOCTYPE svg PUBLIC "-//W3C//DTD SVG 1.1//EN" "http://www.w3.org/Graphics/SVG/1.1/DTD/svg11.dtd" [
	<!ENTITY ns_extend "http://ns.adobe.com/Extensibility/1.0/">
	<!ENTITY ns_ai "http://ns.adobe.com/AdobeIllustrator/10.0/">
	<!ENTITY ns_graphs "http://ns.adobe.com/Graphs/1.0/">
	<!ENTITY ns_vars "http://ns.adobe.com/Variables/1.0/">
	<!ENTITY ns_imrep "http://ns.adobe.com/ImageReplacement/1.0/">
	<!ENTITY ns_sfw "http://ns.adobe.com/SaveForWeb/1.0/">
	<!ENTITY ns_custom "http://ns.adobe.com/GenericCustomNamespace/1.0/">
	<!ENTITY ns_adobe_xpath "http://ns.adobe.com/XPath/1.0/">
]>
<svg version="1.1" id="_x31__x5F_2" xmlns:x="&ns_extend;" xmlns:i="&ns_ai;" xmlns:graph="&ns_graphs;"
	 xmlns="http://www.w3.org/2000/svg" xmlns:xlink="http://www.w3.org/1999/xlink" x="0px" y="0px" viewBox="0 0 720 480"
	 style="enable-background:new 0 0 720 480;" xml:space="preserve">
<style type="text/css">
	.st0{fill:#DBD4CA;}
	.st1{opacity:0.3;}
	.st2{opacity:0.7;fill:#C49F8A;enable-background:new    ;}
	.st3{fill:#C49F8A;}
	.st4{fill:none;stroke:#565440;}
	.st5{fill:#565440;}
	.st6{fill:#E9E4DC;}
	.st7{fill:#E9E4DC;stroke:#C49F8A;stroke-linejoin:round;}
	.st8{fill:#E9E4DC;stroke:#C49F8A;}
	.st9{fill:#E9E4DC;stroke:#C49F8A;stroke-miterlimit:3.9998;}
	.st10{fill:none;stroke:#C49F8A;}
	.st11{fill:#E9E4DC;stroke:#C49F8A;stroke-width:1.0000014;stroke-miterlimit:4.0000057;}
	.st12{fill:none;}
</style>
<metadata>
	<sfw  xmlns="&ns_sfw;">
		<slices></slices>
		<sliceSourceBounds  bottomLeftOrigin="true" height="400" width="303.6240234" x="228.0759888" y="60"></sliceSourceBounds>
	</sfw>
</metadata>
<polygon id="Floor_1_" class="st0" points="244.1000061,80 247.8000031,68.3000031 302,80.8000031 403.2000122,80.8000031 
	407.5,67.3000031 480.7999878,84.1999969 472.5,120.8000031 472.5,230.1999969 485.1000061,233.3999939 470.5,294.6000061 
	470.5,331.7999878 484.5,335.7000122 471.1000061,392.7000122 471.1000061,415.2000122 228.3000031,415.2000122 228.3000031,80 "/>
<g id="Wet_Floor_1_">
	<g class="st1">
		<rect x="234.1791382" y="198.1393738" class="st2" width="71.8000183" height="140.6999969"/>
	</g>
	<path class="st3" d="M242.3791504,338.8393555h1.3999939l-6-6l10-10l9.7999878,9.7999878l-6.1999969,6.2000122h1.3999939
		l5.5000153-5.5l5.5,5.5h1.3999939l-6.2000122-6.2000122l9.7999878-9.7999878l9.7000122,9.7000122l-6.2999878,6.2999878h1.3999939
		l5.6000061-5.6000061l5.6000061,5.6000061h1.3999939l-6.2999878-6.2999878l9.7000122-9.7000122l9.7999878,9.7999878
		l-6.2000122,6.2000122h1.3999939l5.5-5.5l5.5,5.5h0.3999939v-1l-5.2000122-5.2000122l5.2000122-5.2000122v-1.3999939
		l-5.8999939,5.8999939l-9.7999878-9.7999878l9.7999878-9.7999878l5.8999939,5.8999939v-1.3999939l-5.2000122-5.2000122
		l5.2000122-5.2000122v-1.3999939l-5.8999939,5.8999939l-9.7000122-9.7000122l9.7999878-9.7999878l5.7999878,5.7999878v-1.3999939
		l-5.1000061-5.1000061l5.1000061-5.1000061v-1.3999939l-5.7999878,5.7999878l-9.7999878-9.7999878l9.7999878-9.7999878
		l5.7999878,5.7999878v-1.3999939l-5.1000061-5.1000061l5.1000061-5.1000061v-1.3999939l-5.7999878,5.7999878l-10-10
		l9.7000122-9.6999817l6.1000061,6.1000061v-1.4999542l-5.3999939-5.3999939l5.3999939-5.3999939v-1.3999939l-6.1000061,6.1000061
		l-9.7999878-9.8000031l9.7999878-9.8000031l6.1000061,6.1000061v-1.4000244l-5.3999939-5.3999939l5.3999939-5.3999939v-1.3999939
		l-6.1000061,6.1000061l-9.7000122-9.6999969l10-10l5.7999878,5.8000031v-1.3999939l-5.1000061-5.1000061l5.1000061-5.1000061
		v-1.4000244l-5.7999878,5.8000031l-7.6000061-7.6000061h-1.3999939l8.2999878,8.3000031l-10,10l-9.7999878-9.8000031l8.5-8.5
		h-1.3999634l-7.7999878,7.8000031l-7.7999878-7.8000031h-1.4000244l8.5,8.5l-9.7999878,9.8000031l-9.7999878-9.8000031l8.5-8.5
		h-1.4000244l-7.7999878,7.8000031l-7.8000031-7.8000031h-1.4000092l8.5,8.5l-9.6999969,9.6999969l-9.6999969-9.6999969l8.5-8.5
		h-1.3999939l-7.8000031,7.8000031l-2.8999939-2.8999939v1.3999939l2.1999969,2.1999969l-2.1999969,2.1999969v1.3999939
		l2.8999939-2.8999939l9.6999969,9.6999969l-9.8000031,9.8000031l-2.8999939-2.8999939v1.3999939l2.1999969,2.1999969
		l-2.1999969,2.1999969v1.3999939l2.8999939-2.8999939l9.8000031,9.8000031l-9.8000031,9.8000031l-2.8000031-2.8000031v1.3999939
		l2.1000061,2.1000061l-2.1000061,2.1000061v1.3999939l2.8000031-2.8000031l9.8000031,9.7999725l-9.8000031,9.7999878
		l-2.8000031-2.7999878v1.3999939l2.1000061,2.1000061l-2.1000061,2.1000061v1.3999939l2.8000031-2.7999878l9.6999969,9.7000122
		l-9.6999969,9.7000122l-2.8000031-2.7999878v1.3999939l2.1000061,2.1000061l-2.1000061,2.1000061v1.3999939l2.8000031-2.7999878
		l9.8000031,9.7999878l-9.8000031,9.7999878l-2.8000031-2.7999878v1.3999939l2.1000061,2.1000061l-2.1000061,2.1000061v1.3999939
		l2.8000031-2.7999878l10,10l-10,10l-2.8000031-2.7999878v1.3999939l2.1000061,2.1000061l-2.1000061,2.1000061v1.3999939
		l2.8000031-2.7999878L242.3791504,338.8393555z M258.2791443,331.9393616l-9.8000031-9.7999878l9.8000031-9.7999878
		l9.7999878,9.7999878L258.2791443,331.9393616z M278.4791565,290.7393494l-9.7999878,9.7999878l-10-10l9.7999878-9.7999878
		L278.4791565,290.7393494z M258.6791382,269.5393677l9.7999878-9.7999878l9.7999878,9.7999878l-9.7999878,9.7999878
		L258.6791382,269.5393677z M279.1791382,291.4393616l9.7999878,9.7999878l-9.7999878,9.7999878l-9.7999878-9.7999878
		L279.1791382,291.4393616z M269.1791382,280.0393677l9.7999878-9.7999878l10,10l-9.7999878,9.7999878L269.1791382,280.0393677z
		 M269.1791382,259.0393677l9.7999878-9.7999878l9.7999878,9.7999878l-9.7999878,9.7999878L269.1791382,259.0393677z
		 M269.2791443,238.1393738l9.7000122-9.6999969l9.7000122,9.6999969l-9.7000122,9.6999969L269.2791443,238.1393738z
		 M278.2791443,248.5393829l-9.7999878,9.7999725l-9.7000122-9.6999817l9.7999878-9.8000031L278.2791443,248.5393829z
		 M258.0791321,247.8393707l-9.8000031-9.8000031l9.8000031-9.8000031l9.7999878,9.8000031L258.0791321,247.8393707z
		 M267.7791443,259.0393677l-9.7999878,9.7999878l-9.6999969-9.7000122l9.8000031-9.7999878L267.7791443,259.0393677z
		 M267.7791443,280.0393677l-9.7999878,9.7999878l-9.8000031-9.7999878l9.8000031-9.7999878L267.7791443,280.0393677z
		 M267.9791565,301.2393494l-9.7000122,9.7000122l-10-10l9.7000122-9.7000122L267.9791565,301.2393494z M258.9791565,311.6393738
		l9.7000122-9.7000122l9.7999878,9.7999878l-9.7000122,9.7000122L258.9791565,311.6393738z M279.1791382,331.8393555
		l-9.7000122-9.7000122l9.7000122-9.7000122l9.7000122,9.7000122L279.1791382,331.8393555z M299.3791504,311.6393738
		l-9.7999878,9.7999878l-9.7000122-9.7000122l9.7999878-9.7999878L299.3791504,311.6393738z M299.4791565,290.7393494
		l-9.7999878,9.7999878l-9.7999878-9.7999878l9.7999878-9.7999878L299.4791565,290.7393494z M299.4791565,269.7393494
		l-9.7999878,9.7999878l-10-10l9.7999878-9.7999878L299.4791565,269.7393494z M299.1791382,248.6393738l-9.7000122,9.6999817
		l-9.7999878-9.7999878l9.7000122-9.6999969L299.1791382,248.6393738z M299.1791382,227.6393738l-9.7999878,9.8000031
		l-9.7000122-9.6999969l9.7999878-9.8000031L299.1791382,227.6393738z M278.9791565,207.3393707l9.7999878,9.8000031
		l-9.7999878,9.8000031l-9.7999878-9.8000031L278.9791565,207.3393707z M278.2791443,227.6393738l-9.7000122,9.6999969
		l-9.7999878-9.8000031l9.7000122-9.6999969L278.2791443,227.6393738z M257.9791565,207.4393768l9.7999878,9.8000031
		l-9.7000122,9.6999969l-9.8000031-9.8000031L257.9791565,207.4393768z M237.7791443,227.6393738l9.8000031-9.8000031
		l9.8000031,9.8000031l-9.8000031,9.8000031L237.7791443,227.6393738z M237.7791443,248.6393738l9.8000031-9.8000031
		l9.8000031,9.8000031l-9.8000031,9.7999878L237.7791443,248.6393738z M237.7791443,269.5393677l9.8000031-9.7999878
		l9.6999969,9.7000122l-9.8000031,9.7999878L237.7791443,269.5393677z M237.7791443,290.4393616l9.6999969-9.7000122
		l9.8000031,9.7999878l-9.6999969,9.7000122L237.7791443,290.4393616z M237.7791443,311.4393616l9.8000031-9.7999878l9.9999847,10
		l-9.8000031,9.7999878L237.7791443,311.4393616z"/>
</g>
<path id="Doors" class="st4" d="M270.2760925,335.5997009c0-3.5708313,0.6491699-6.4924927,1.9477539-9.7386169
	c1.2983093-3.2460632,3.2460632-6.1677551,5.5186462-8.4399414c2.2721863-2.5969238,5.1939087-4.5447083,8.4399719-5.8430176
	c3.24646-1.298645,6.4925232-1.9477844,10.063324-1.9477844v25.9693604 M302.7377014,228.4761505
	c-3.5707703,0-6.492218-0.6491547-9.7385864-1.9477844c-3.2460632-1.2986298-6.1677856-3.2460785-8.4399719-5.5186157
	c-2.5968933-2.2722015-4.5447693-5.1938629-5.8430786-8.4399414c-1.298584-3.2460938-1.9477539-6.4925079-1.9477539-10.0630188
	h25.9693909 M309.2302246,196.014267c0-3.5708313,0.6491394-6.4924927,1.9477539-9.7386017
	c1.2983093-3.2460785,3.2460632-6.1677704,5.5186462-8.4399567c2.2721863-2.5969238,5.1939087-4.5447083,8.4399719-5.8430176
	c3.24646-1.2986298,6.4925232-1.9477844,10.063324-1.9477844v25.9693604 M367.6611023,202.5067902
	c3.5708008,0,6.4922485,0.6491547,9.7385864,1.9477844c3.2463684,1.2986298,6.1678162,3.2460785,8.4399719,5.5186157
	c2.5969238,2.2722168,4.5447693,5.1938629,5.8430786,8.4399567c1.2983093,3.2460785,1.9477539,6.4924927,1.9477539,10.0630035
	h-25.9693909 M237.8143005,374.5537415c4.2199249,0,8.1155396,0.9739075,12.0107574,2.5969543
	c3.8956146,1.6230469,7.7908173,3.8955688,10.7124481,7.1416321c2.9216309,2.9216919,5.5186462,6.4921875,7.1416931,10.3877258
	c1.6230164,3.8955688,2.5968933,8.1155701,2.5968933,12.3355408h-32.4615021"/>
<g id="Windows">
	<polygon class="st4" points="486.4988708,80.4615402 408.5910034,62.2829819 407.6171265,67.1521072 480.9805298,84.0323639 
		472.5405579,120.7142181 472.5405579,181.7420654 477.409729,181.7420654 477.409729,120.7142181 	"/>
	<polygon class="st4" points="485.20047,332.3644104 490.0696411,333.3382874 477.085022,390.1461792 472.2158203,389.1723022 	"/>
	<polygon class="st4" points="485.20047,231.7330322 490.0696411,232.7069092 477.085022,289.5147705 472.2158203,288.5408936 	"/>
	<polygon class="st4" points="245.6331329,62.9321327 306.6610413,76.8907013 305.687439,81.76017 244.659256,67.80159 	"/>
</g>
<g id="Walls">
	<path class="st5" d="M237.81427,338.8457642h32.461853v-3.2460938H237.81427v-32.199707h11.0857544v-13.2468262h53.8377075
		v45.4465332h-6.4922485v3.2460938h9.7385864v-3.2460938V228.4758301h-3.2463379v58.4312134H237.81427V199.260376h64.9234619
		v3.2463989h3.2463379v-3.2463989h3.2461548v-3.2460938H237.81427V85.6446533h9.7385864l5.1938477-22.0741577l-9.4138794-2.2722168
		l-3.4371948,14.6077271H237.81427h-9.7382813V374.553772h9.7382813V338.8457642z M237.81427,290.1531372h7.8857422v9.9468384
		H237.81427V290.1531372z"/>
	<polygon class="st5" points="367.6611328,228.4758301 364.4150391,228.4758301 364.4150391,233.274353 341.6917114,233.274353 
		341.6917114,236.5152588 477.9650879,236.4940186 489.6514893,239.1174316 491.9240112,229.7032471 477.9650879,226.5698242 
		477.9650879,178.5057983 458.5477295,178.5057983 458.5477295,233.274353 367.6611328,233.274353 	"/>
	<polygon class="st5" points="364.4150391,196.0142822 335.199585,196.0142822 335.199585,199.260376 364.4150391,199.260376 
		364.4150391,202.5067749 367.6611328,202.5067749 367.6611328,199.260376 367.6611328,196.0142822 367.6611328,92.1368408 
		369.0629883,92.1368408 369.0629883,92.1403809 409.8707886,92.1403809 409.8707886,92.0678711 410.1951294,92.1403809 
		416.6876221,63.5740967 416.6778564,63.5721436 416.6781616,63.5704956 400.7721558,60 397.1569214,75.9060059 
		367.6611328,75.9060059 296.2454834,75.9060059 296.2454834,85.6446533 364.4150391,85.6446533 	"/>
	<polygon class="st5" points="477.9650879,296.9606323 480.5623779,285.7070923 464.7402344,282.1359253 461.8186035,294.4718018 
		461.8186035,336.8630371 477.9650879,336.8630371 477.9650879,336.8366089 489.6514893,339.460022 491.9240112,330.0458374 
		477.9650879,326.9124146 	"/>
	<path class="st5" d="M458.5179443,410.2617188H305v-12.1617432h-12.7999878v12.1617432H237.81427v-3.2460327h-9.7382813v3.2460327
		V420h249.8890991v-30.7424927h-19.4471436V410.2617188z M301.7999878,410.2617188h-6.3999634v-8.8617554l6.3999634-0.0999756
		V410.2617188z"/>
</g>
<g id="Furniture_2_">
	<g>
		<g>
			<rect x="238.2973328" y="263.0064697" class="st6" width="57.2000122" height="23.3999939"/>
			<path class="st3" d="M294.997345,263.5064697v22.3999939h-56.2000122v-22.3999939H294.997345 M295.997345,262.5064697
				h-58.2000122v24.3999939h58.2000122V262.5064697L295.997345,262.5064697z"/>
		</g>
		<g>
			<g>
				<path class="st7" d="M242.7973328,274.7064514c0,4.5,3.8999939,8,8.3000031,7.6000061
					c4.9000092-0.3999939,10.9999847-0.7999878,15.5999908-0.7999878c4.5,0,10.7000122,0.3999939,15.6000061,0.7999878
					c4.3999939,0.3999939,8.2999878-3.1000061,8.2999878-7.6000061s-3.8999939-8-8.2999878-7.6000061
					c-4.8999939,0.3999939-11,0.7999878-15.6000061,0.7999878c-4.5,0-10.7000122-0.3999939-15.6000061-0.7999878
					C246.5973358,266.7064514,242.7973328,270.2064514,242.7973328,274.7064514z"/>
				<ellipse class="st7" cx="250.4973297" cy="274.7064514" rx="1" ry="1"/>
			</g>
		</g>
	</g>
	<g id="Sink_2">
		<g>
			<rect x="249.3999939" y="290.6445923" class="st6" width="31.2999878" height="12.1000061"/>
			<path class="st3" d="M280.2000122,291.1445923v11.1000061h-30.3000031v-11.1000061H280.2000122 M281.2000122,290.1445923
				h-32.3000031v13.1000061h32.3000031V290.1445923L281.2000122,290.1445923z"/>
		</g>
		<path id="Rectangle_19_x5F_5" class="st8" d="M262.8999939,296.7445679L262.8999939,296.7445679
			c0,2.1000061,1.5,3.7000122,3.5,3.7000122h4.8999939c1.8999939,0,3.5-1.7000122,3.5-3.7000122l0,0
			c0-2.1000061-1.5-3.7000122-3.5-3.7000122h-4.8999939C264.3999939,292.9445801,262.8999939,294.6445923,262.8999939,296.7445679z"
			/>
		<ellipse class="st8" cx="268.7999878" cy="295.7445679" rx="1" ry="1"/>
	</g>
	<g id="Sink_2_1_">
		<g id="Rectangle_16_x5F_11_1_">
			<rect x="238.2973328" y="199.7568359" class="st6" width="14.1999969" height="30.0496159"/>
			<path class="st3" d="M251.9973297,200.2568359v29.0496216h-13.1999969v-29.0496216H251.9973297 M252.9973297,199.2568359
				h-15.1999969v31.0496216h15.1999969V199.2568359L252.9973297,199.2568359z"/>
		</g>
		<path id="Rectangle_19_x5F_5_1_" class="st8" d="M245.3973389,222.3064575L245.3973389,222.3064575
			c2.3999939,0,4.3000031-1.8000031,4.3000031-4v-5.6999969c0-2.1999969-1.8999939-4-4.3000031-4l0,0
			c-2.3999939,0-4.3000031,1.8000031-4.3000031,4v5.6999969
			C241.0973358,220.6064606,242.9973297,222.3064575,245.3973389,222.3064575z"/>
		<ellipse class="st8" cx="244.1973267" cy="215.5064697" rx="1" ry="1"/>
	</g>
	<g>
		<g>
			<rect x="368.1239319" y="92.8000031" class="st6" width="44.1000061" height="69.3000031"/>
			<path class="st3" d="M368.6239319,93.3000031h43.1000061v68.3000031h-43.1000061V93.3000031 M367.6239319,92.3000031v70.3000031
				h45.1000061V92.3000031H367.6239319L367.6239319,92.3000031z"/>
		</g>
		<rect x="391.223938" y="97.3000031" class="st8" width="17.6000061" height="17.4000015"/>
		<rect x="371.4239502" y="97.3000031" class="st8" width="17.6000061" height="17.4000015"/>
		<polygon class="st9" points="406.6239319,107.5999985 393.9239502,103.0999985 390.5239258,119.9000015 403.223938,124.4000015 		
			"/>
		<polygon class="st9" points="389.6239319,119.9000015 386.223938,103.0999985 373.5239258,107.5999985 376.9239502,124.4000015 		
			"/>
		<g>
			<polygon class="st6" points="368.1239319,162.6999969 368.1239319,107.5 385.6239319,106 412.1239319,111.0999985 
				412.1239319,162.6999969 			"/>
			<path class="st3" d="M385.5239258,106.5l26.1000061,5v50.6999969h-43.1000061v-54.0999985v-0.1999969L385.5239258,106.5
				 M385.6239319,105.5l-18,1.5v1.0999985v55.0999985h45.1000061V111v-0.4000015L385.6239319,105.5L385.6239319,105.5z"/>
		</g>
		<polyline class="st10" points="368.223938,108.8000031 385.8239441,108.8000031 412.1239319,111.6999969 		"/>
	</g>
	<g>
		<g>
			<rect x="238.3101349" y="100.9000015" class="st6" width="64.1999817" height="51.5999985"/>
			<path class="st3" d="M238.8101349,101.4000015h63.1999969V152h-63.1999817L238.8101349,101.4000015 M237.8101349,100.4000015V153
				h65.1999664v-52.5999985H237.8101349L237.8101349,100.4000015z"/>
		</g>
		<rect x="242.4101257" y="104.8000031" class="st8" width="16.0999908" height="20.5"/>
		<rect x="242.4101257" y="127.9000015" class="st8" width="16.0999908" height="20.4999924"/>
		<polygon class="st9" points="252.0101318,107.4000015 247.8101349,122.1999969 263.4101257,126.1999969 267.5101013,111.3000031 
					"/>
		<polygon class="st9" points="263.4101257,127.1999969 247.8101349,131.1999969 252.0101318,146.1000061 267.6101074,142.1000061 
					"/>
		<g>
			<polygon class="st6" points="251.9101257,152.5 250.5101318,131.8999939 255.3101349,100.9000015 303.1101074,100.9000015 
				303.1101074,152.5 			"/>
			<path class="st3" d="M255.7101288,101.4000015h46.8999786V152h-50.1999817h-0.1000061l-1.3000031-20L255.7101288,101.4000015
				 M255.2101288,100.4000015h-0.3000031l-4.8000031,31.4999924l1.3999939,21h1h51.1999969v-52.5999985L255.2101288,100.4000015
				L255.2101288,100.4000015z"/>
		</g>
		<polyline class="st10" points="253.1101227,152.3000031 253.1101227,131.6999969 255.8101349,100.9000015 		"/>
	</g>
	<g>
		<g>
			<rect x="278" y="392.1499939" class="st6" width="9" height="17.6000061"/>
			<path class="st3" d="M286.5,392.6499939V409.25h-8v-16.6000061H286.5 M287.5,391.6499939h-10V410.25h10V391.6499939
				L287.5,391.6499939z"/>
		</g>
		<g>
			<rect x="279.6000061" y="392.1499939" class="st6" width="12.1000061" height="17.6000061"/>
			<path class="st3" d="M291.2000122,392.6499939V409.25h-11.1000061v-16.6000061H291.2000122 M292.2000122,391.6499939h-13.1000061
				V410.25h13.1000061V391.6499939L292.2000122,391.6499939z"/>
		</g>
		<path class="st8" d="M291.7000122,409.8499756l-12-17.8999939"/>
	</g>
	<g id="Toilet_1_">
		<g id="Rectangle_21_1_">
			<rect x="245.0973358" y="239.1064606" class="st6" width="4" height="12.6000061"/>
			<path class="st3" d="M248.5973358,239.6064606v11.6000061h-3v-11.6000061H248.5973358 M249.5973358,238.6064606h-5v13.6000061h5
				V238.6064606L249.5973358,238.6064606z"/>
		</g>
		<path id="Rectangle_19_x5F_2_1_" class="st8" d="M258.2973328,250.3064575c2.7999878,0.1999969,5.1000061-2,5.1000061-4.8000031
			l0,0c0-2.8000031-2.2999878-5-5.1000061-4.8000031l-8.8999939,0.6000061v8.5L258.2973328,250.3064575z"/>
		<path id="Rectangle_18_x5F_13_1_" class="st8" d="M257.7973328,248.8064575c2.1000061,0.1999969,4-1.3999939,4-3.3999939l0,0
			c0-2-1.7999878-3.5-4-3.3999939l-5.8000031,0.5v5.8000031L257.7973328,248.8064575z"/>
		<ellipse id="Ellipse_6_x5F_2_1_" class="st8" cx="254.8973389" cy="245.4064636" rx="1" ry="1"/>
	</g>
	<g id="Toilet_2_">
		<g id="Rectangle_21_2_">
			<rect x="245.1077271" y="313.7999878" class="st6" width="4" height="12.6000061"/>
			<path class="st3" d="M248.6077271,314.2999878v11.6000061h-3v-11.6000061H248.6077271 M249.6077271,313.2999878h-5v13.6000061h5
				V313.2999878L249.6077271,313.2999878z"/>
		</g>
		<path id="Rectangle_19_x5F_2_2_" class="st8" d="M258.3077087,324.8999939c2.7999878,0.2000122,5.1000061-2,5.1000061-4.7999878
			l0,0c0-2.7999878-2.2999878-5-5.1000061-4.7999878l-8.8999786,0.6000061v8.5L258.3077087,324.8999939z"/>
		<path id="Rectangle_18_x5F_13_2_" class="st8" d="M257.8077087,323.3999939c2.1000061,0.2000122,4-1.3999939,4-3.3999939l0,0
			c0-2-1.7999878-3.5-4-3.3999939l-5.7999878,0.5v5.7999878L257.8077087,323.3999939z"/>
		<ellipse id="Ellipse_6_x5F_2_2_" class="st8" cx="254.9077301" cy="320.1000061" rx="1" ry="1"/>
	</g>
	<g>
		<g>
			<rect x="280.7000122" y="290.6445923" class="st6" width="21.7999878" height="11.1000061"/>
			<path class="st3" d="M302,291.1445923v10.1000061h-20.7999878v-10.1000061H302 M303,290.1445923h-22.7999878v12.1000061H303
				V290.1445923L303,290.1445923z"/>
		</g>
		<g>
			<circle class="st6" cx="291.6000061" cy="296.2445679" r="3.3999939"/>
			<path class="st3" d="M291.6000061,293.2445679c1.6000061,0,2.8999939,1.2999878,2.8999939,2.8999939
				s-1.2999878,2.8999939-2.8999939,2.8999939s-2.8999939-1.2999878-2.8999939-2.8999939
				C288.6000061,294.5445862,289.8999939,293.2445679,291.6000061,293.2445679 M291.6000061,292.2445679
				c-2.2000122,0-3.8999939,1.7999878-3.8999939,3.8999939c0,2.2000122,1.7999878,3.8999939,3.8999939,3.8999939
				c2.2000122,0,3.8999939-1.7999878,3.8999939-3.8999939C295.5,294.0445862,293.7000122,292.2445679,291.6000061,292.2445679
				L291.6000061,292.2445679z"/>
		</g>
	</g>
	<g>
		<path class="st8" d="M380.5,296.8999939H423v30.8999939h-42.5V296.8999939z"/>
		<path class="st8" d="M425.6000061,304.6000061h0.6000061c4.2999878,0,7.7000122,3.5,7.7000122,7.7000122
			c0,4.2999878-3.5,7.7000122-7.7000122,7.7000122h-0.6000061V304.6000061z"/>
		<path class="st8" d="M423,305.8999939h3.2000122c3.6000061,0,6.3999939,2.8999939,6.3999939,6.3999939
			s-2.8999939,6.3999939-6.3999939,6.3999939H423V305.8999939z"/>
		<path class="st8" d="M377.8999939,304.6000061h-0.6000061c-4.2999878,0-7.7000122,3.5-7.7000122,7.7000122
			c0,4.2999878,3.5,7.7000122,7.7000122,7.7000122h0.6000061V304.6000061z"/>
		<path class="st8" d="M380.5,305.8999939h-3.2000122c-3.6000061,0-6.3999939,2.8999939-6.3999939,6.3999939
			s2.8999939,6.3999939,6.3999939,6.3999939H380.5V305.8999939z"/>
		<path class="st8" d="M409.5,294.2999878v-0.6000061c0-4.2999878-3.5-7.7000122-7.7000122-7.7000122
			c-4.2999878,0-7.7000122,3.5-7.7000122,7.7000122v0.6000061H409.5z"/>
		<path class="st8" d="M408.2000122,296.8999939v-3.2000122c0-3.6000061-2.8999939-6.3999939-6.3999939-6.3999939
			c-3.6000061,0-6.3999939,2.8999939-6.3999939,6.3999939v3.2000122H408.2000122z"/>
		<path class="st8" d="M409.5,330.3999939V331c0,4.2999878-3.5,7.7000122-7.7000122,7.7000122
			c-4.2999878,0-7.7000122-3.5-7.7000122-7.7000122v-0.6000061H409.5z"/>
		<path class="st8" d="M408.2000122,327.7999878V331c0,3.6000061-2.8999939,6.3999939-6.3999939,6.3999939
			c-3.6000061,0-6.3999939-2.8999939-6.3999939-6.3999939v-3.2000122H408.2000122z"/>
	</g>
	<g>
		<path class="st8" d="M434.1000061,278.9940491c0,0.8999939,0.7000122,1.6000061,1.6000061,1.6000061H452v-37.1999969h-17.8999939
			V278.9940491z"/>
		<path class="st8" d="M405.2000122,259.7940369c0,0.8999939,0.7999878,1.6000061,1.7000122,1.6000061h25.5
			c0.8999939,0,1.7000122-0.7000122,1.7000122-1.6000061V243.394043h-28.8999939L405.2000122,259.7940369L405.2000122,259.7940369z"
			/>
		<path class="st8" d="M377.3999939,259.7940369c0,0.8999939,0.7000122,1.6000061,1.6000061,1.6000061h24.5
			c0.8999939,0,1.6000061-0.7000122,1.6000061-1.6000061V243.394043h-27.7999878L377.3999939,259.7940369z"/>
		<path class="st8" d="M377.3999939,262.6940613h-6v-25.6999969h87.3000183v49.9999847h-25.7999878v-6.3999939H452v-37.3000031
			h-74.6000061V262.6940613z"/>
	</g>
	<g>
		<g>
			<rect x="342.8282166" y="153.5" class="st6" width="13.6000061" height="42.1999969"/>
			<path class="st3" d="M355.9282227,154v41.1999969h-12.6000061V154H355.9282227 M356.9282227,153h-14.6000061v43.1999969
				h14.6000061V153L356.9282227,153z"/>
		</g>
		<g>
			<rect x="344.9282227" y="153.5" class="st6" width="19" height="42.1999969"/>
			<path class="st3" d="M363.4282227,154v41.1999969h-18V154H363.4282227 M364.4282227,153h-20v43.1999969h20V153L364.4282227,153z"
				/>
		</g>
		<path class="st8" d="M363.8282166,195.8000031l-18.7000122-42.6999969"/>
	</g>
	<g>
		<g>
			<rect x="405.1000061" y="211.7279053" class="st6" width="49.7999878" height="13.6000061"/>
			<path class="st3" d="M454.5,212.2279053v12.6000061h-48.7999878v-12.6000061H454.5 M455.5,211.2279053h-50.7999878v14.6000061
				H455.5V211.2279053L455.5,211.2279053z"/>
		</g>
		<g>
			<rect x="405.1000061" y="213.8279114" class="st6" width="49.7999878" height="19"/>
			<path class="st3" d="M454.5,214.3279114v18h-48.7999878v-18H454.5 M455.5,213.3279114h-50.7999878v20H455.5V213.3279114
				L455.5,213.3279114z"/>
		</g>
		<path class="st8" d="M405,232.7279053l50.2999878-18.6999969"/>
	</g>
	<g>
		<g>
			<rect x="238.3089905" y="341.1393738" class="st6" width="31.5" height="13.6000061"/>
			<path class="st3" d="M238.8089905,341.6393738h30.5v12.6000061h-30.5V341.6393738 M237.8089905,340.6393738v14.6000061h32.5
				v-14.6000061H237.8089905L237.8089905,340.6393738z"/>
		</g>
		<g>
			<rect x="238.3089905" y="339.3393555" class="st6" width="31.5" height="13.2000122"/>
			<path class="st3" d="M238.8089905,339.8393555h30.5v12.2000122h-30.5V339.8393555 M237.8089905,338.8393555v14.2000122h32.5
				v-14.2000122H237.8089905L237.8089905,338.8393555z"/>
		</g>
		<path class="st8" d="M270.0089722,339.3393555l-32.1000061,13.2999878"/>
	</g>
	<g>
		<g>
			<rect x="352.7282104" y="97.1999969" class="st6" width="2.2999878" height="48.5999908"/>
			<path class="st3" d="M354.5282288,97.6999969v47.5999908h-1.2999878V97.6999969H354.5282288 M355.5282288,96.6999969h-3.2999878
				v49.5999908h3.2999878V96.6999969L355.5282288,96.6999969z"/>
		</g>
		<g>
			<rect x="354.8282166" y="97.1999969" class="st6" width="9.1000061" height="48.5999908"/>
			<path class="st3" d="M363.4282227,97.6999969v47.5999908h-8.1000061V97.6999969H363.4282227 M364.4282227,96.6999969h-10.1000061
				v49.5999908h10.1000061V96.6999969L364.4282227,96.6999969z"/>
		</g>
		<rect x="360.5282288" y="104.4000015" class="st8" width="1.7000122" height="35.0999985"/>
		<path class="st8" d="M362.2282104,114.5v14.8999939l1.6000061-1.4000015v-12.1999969L362.2282104,114.5z"/>
	</g>
	<g>
		<rect x="238.4077301" y="303.7999878" class="st6" width="6.8000031" height="31.2999878"/>
		<path class="st3" d="M244.6077271,304.2999878v30.2999878h-5.8000031v-30.2999878H244.6077271 M245.6077271,303.2999878
			h-7.8000031v32.2999878h7.8000031V303.2999878L245.6077271,303.2999878z"/>
	</g>
	<g>
		<g>
			<polygon class="st6" points="437.3551941,158.2058105 437.3551941,143.9058075 449.4552002,141.9058075 449.4552002,160.1058044 
							"/>
			<path class="st3" d="M448.9552002,142.5057983v17l-11.1000061-1.8000031v-13.3999939L448.9552002,142.5057983
				 M449.9552002,141.3058014l-13.1000061,2.1000061v15.1999969l13.1000061,2.1000061V141.3058014L449.9552002,141.3058014z"/>
		</g>
		<g>
			<rect x="449.8551941" y="122.6058044" class="st6" width="21.7000122" height="55.3999939"/>
			<path class="st3" d="M471.0552063,123.1058044v54.3999939h-20.7000122v-54.4000015L471.0552063,123.1058044
				 M472.0552063,122.1058044h-22.7000122v56.3999939h22.7000122V122.1058044L472.0552063,122.1058044z"/>
		</g>
		<path class="st10" d="M455.9552002,156.0057983v-11.3999939 M453.4552002,157.0057983v-13.3999939h4v13.3999939H453.4552002z"/>
		<path class="st8" d="M453.2552185,162.5057983L453.2552185,162.5057983c0-0.6000061,0.5-1,1-1h1.2999878c0.6000061,0,1,0.5,1,1
			l0,0c0,0.6000061-0.5,1-1,1h-1.2999878C453.6552124,163.5057983,453.2552185,163.0057983,453.2552185,162.5057983z"/>
		<path class="st8" d="M463.9552002,153.6058044c-1.7999878,0-3.2999878-1.5-3.2999878-3.3000031s1.5-3.3000031,3.2999878-3.3000031
			h3.2999878v6.6999969L463.9552002,153.6058044z"/>
		
			<rect x="449.7348633" y="149.3603363" transform="matrix(0.0016959 -0.9999986 0.9999986 0.0016959 315.982666 617.1396484)" class="st11" width="34.7000618" height="1.8999966"/>
		<g>
			<rect x="437.3551941" y="144.0057983" class="st6" width="12.1000061" height="14.1999969"/>
			<path class="st3" d="M448.9552002,144.5057983v13.1000061h-11.1000061v-13.1999969L448.9552002,144.5057983
				 M449.9552002,143.5057983h-13.1000061v15.1000061h13.1000061V143.5057983L449.9552002,143.5057983z"/>
		</g>
		<g>
			<rect x="435.4552002" y="143.9058075" class="st6" width="1.8999939" height="14.1999969"/>
			<path class="st3" d="M436.8551941,144.4058075v13.1999969h-0.8999939v-13.1999969H436.8551941 M437.8551941,143.4058075
				h-2.8999939v15.1999969h2.8999939V143.4058075L437.8551941,143.4058075z"/>
		</g>
	</g>
	<g id="Kitchen">
		<g id="Rectangle_24">
			<rect x="305.6000061" y="389.6000061" class="st6" width="82.1000061" height="20.2000122"/>
			<path class="st3" d="M387.1000061,390.1000061v19.2000122H306v-19.2000122H387.1000061 M388.1000061,389.1000061H305v21.2000122
				h83.1000061V389.1000061L388.1000061,389.1000061z"/>
		</g>
		<g id="Rectangle_26_1_">
			<rect x="405.1000061" y="389.6000061" class="st6" width="28.7000122" height="20.2000122"/>
			<path class="st3" d="M433.2999878,390.1000061v19.2000122h-27.7000122v-19.2000122H433.2999878 M434.2999878,389.1000061
				h-29.7000122v21.2000122h29.7000122V389.1000061L434.2999878,389.1000061z"/>
		</g>
		<g id="Rectangle_27_1_">
			<rect x="433.7999878" y="389.6000061" class="st6" width="20.2000122" height="20.2000122"/>
			<path class="st3" d="M453.5,390.1000061v19.2000122h-19.2000122v-19.2000122H453.5 M454.5,389.1000061h-21.2000122v21.2000122
				H454.5V389.1000061L454.5,389.1000061z"/>
		</g>
		<g id="Sink_3">
			<rect id="Rectangle_28_x5F_2" x="309" y="391.7999878" class="st8" width="25.1000061" height="15.8999939"/>
			<path id="Rectangle_29_x5F_2" class="st8" d="M318.8999939,399.7000122L318.8999939,399.7000122
				c0-3.2999878,2.7000122-5.8999939,5.8999939-5.8999939h1.2999878c3.2999878,0,5.8999939,2.7000122,5.8999939,5.8999939l0,0
				c0,3.2999878-2.7000122,5.8999939-5.8999939,5.8999939h-1.2999878
				C321.6000061,405.7000122,318.8999939,403,318.8999939,399.7000122z"/>
			<ellipse id="Ellipse_7_x5F_3" class="st8" cx="325.3999939" cy="402.3999939" rx="1" ry="1"/>
			<path id="Vector_2" class="st10" d="M310.2999878,405.7000122h6.6000061 M310.2999878,403.7000122h6.6000061
				 M310.2999878,401.7000122h6.6000061 M310.2999878,399.7000122h6.6000061 M310.2999878,397.7000122h6.6000061
				 M310.2999878,395.7000122h6.6000061 M310.2999878,393.7999878h6.6000061"/>
		</g>
		<g id="Stove">
			<g id="Rectangle_25">
				<rect x="387.7000122" y="389.6000061" class="st6" width="19.6000061" height="20.2000122"/>
				<path class="st3" d="M406.7999878,390.1000061v19.2000122h-18.6000061v-19.2000122H406.7999878 M407.7999878,389.1000061
					h-20.6000061v21.2000122h20.6000061V389.1000061L407.7999878,389.1000061z"/>
			</g>
			<g id="Ellipse_7_x5F_4">
				<path class="st6" d="M393,404.6000061c-1.1000061,0-2-1-2-2c0-1.1000061,1-2,2-2c1.1000061,0,2,1,2,2
					S394.1000061,404.6000061,393,404.6000061z"/>
				<path class="st3" d="M393,401c0.8999939,0,1.5,0.7000122,1.5,1.5s-0.7000122,1.5-1.5,1.5s-1.5-0.7000122-1.5-1.5
					C391.3999939,401.7000122,392.2000122,401,393,401 M393,400c-1.3999939,0-2.5,1.1000061-2.5,2.5s1.1000061,2.5,2.5,2.5
					s2.5-1.1000061,2.5-2.5S394.3999939,400,393,400L393,400z"/>
			</g>
			<g id="Ellipse_9">
				<path class="st6" d="M393,397.6000061c-1.3999939,0-2.7000122-1.2000122-2.7000122-2.7000122S391.5,392.1999817,393,392.1999817
					s2.7000122,1.2000122,2.7000122,2.7000122S394.5,397.6000061,393,397.6000061z"/>
				<path class="st3" d="M393,392.7999878c1.2000122,0,2.2000122,1,2.2000122,2.2000122s-1,2.2000122-2.2000122,2.2000122
					s-2.2000122-1-2.2000122-2.2000122S391.7999878,392.7999878,393,392.7999878 M393,391.7999878
					c-1.7000122,0-3.2000122,1.3999939-3.2000122,3.2000122s1.3999939,3.2000122,3.2000122,3.2000122
					s3.2000122-1.3999939,3.2000122-3.2000122S394.7000122,391.7999878,393,391.7999878L393,391.7999878z"/>
			</g>
			<g id="Ellipse_10">
				<path class="st6" d="M401.7999878,405.2000122c-1.3999939,0-2.7000122-1.2000122-2.7000122-2.7000122
					c0-1.3999939,1.2000122-2.7000122,2.7000122-2.7000122C403.1999817,399.7999878,404.5,401,404.5,402.5
					S403.3999939,405.2000122,401.7999878,405.2000122z"/>
				<path class="st3" d="M401.7999878,400.2999878C403,400.2999878,404,401.2999878,404,402.5s-1,2.2000122-2.2000122,2.2000122
					s-2.2000122-1-2.2000122-2.2000122C399.6000061,401.2999878,400.7000122,400.2999878,401.7999878,400.2999878
					 M401.7999878,399.3999939c-1.7000122,0-3.2000122,1.3999939-3.2000122,3.2000122
					c0,1.7000122,1.3999939,3.2000122,3.2000122,3.2000122C403.5,405.8000183,405,404.4000244,405,402.6000061
					S403.6000061,399.3999939,401.7999878,399.3999939L401.7999878,399.3999939z"/>
			</g>
			<g id="Ellipse_8">
				<path class="st6" d="M401.7999878,396.3999939c-1.1000061,0-2-1-2-2c0-1.1000061,1-2,2-2c1.1000061,0,2,1,2,2
					C403.8999939,395.3999939,403,396.3999939,401.7999878,396.3999939z"/>
				<path class="st3" d="M401.7999878,392.7999878c0.8999939,0,1.5,0.7000122,1.5,1.5c0,0.8999939-0.7000122,1.5-1.5,1.5
					c-0.8999939,0-1.5-0.7000122-1.5-1.5C400.2999878,393.3999939,401,392.7999878,401.7999878,392.7999878
					 M401.7999878,391.7999878c-1.3999939,0-2.5,1.1000061-2.5,2.5s1.1000061,2.5,2.5,2.5s2.5-1.1000061,2.5-2.5
					S403.2999878,391.7999878,401.7999878,391.7999878L401.7999878,391.7999878z"/>
			</g>
			<g>
				<path class="st3" d="M406.7999878,408.3999939v0.7999878h-18.6000061v-0.7999878H406.7999878 M407.7999878,407.3999939
					h-20.6000061v2.7999878h20.6000061V407.3999939L407.7999878,407.3999939z"/>
			</g>
		</g>
		<path id="Vector_3" class="st10" d="M441.2999878,400.1000061h5.2999878 M442.6000061,397.7999878l2.6000061,4.6000061
			 M442.6000061,402.3999939l2.6000061-4.6000061"/>
		<g>
			<path class="st3" d="M453.5,390.1000061v0.7999878h-19.2000122v-0.7999878H453.5 M454.5,389.1000061h-21.2000122v2.7999878H454.5
				V389.1000061L454.5,389.1000061z"/>
		</g>
		<g>
			<path class="st3" d="M429.8999939,388.2999878v0.7999878h-18.7000122v-0.7999878H429.8999939 M430.8999939,387.2999878
				h-20.7000122v2.7999878h20.7000122V387.2999878L430.8999939,387.2999878z"/>
		</g>
	</g>
	<g>
		<rect x="238.2973328" y="229.8064575" class="st6" width="6.8000031" height="33.2000122"/>
		<path class="st3" d="M244.5973358,230.3064575v32.2000122h-5.8000031v-32.1999969h5.8000031 M245.5973358,229.3064575h-7.8000031
			v34.2000122h7.8000031V229.3064575L245.5973358,229.3064575z"/>
	</g>
</g>
<g id="Numbers">
	<g>
		<path class="st5" d="M404.7000122,184l1.8999939-1.6000061h0.7999878v6.6999969h-1v-5.3000031l-1.2000122,0.8999939
			L404.7000122,184z"/>
		<path class="st5" d="M411.7999878,186.3000031l-1.6000061,1.8000031h2.7000122v1h-4.2000122v-0.8999939l2.1000061-2.3000031
			l0.5-0.6000061c0.1000061-0.1000061,0.2000122-0.3000031,0.2999878-0.5
			c0.1000061-0.1999969,0.1000061-0.3999939,0.1000061-0.6000061c0-0.3000031-0.1000061-0.5-0.2999878-0.6999969
			c-0.2000122-0.1999969-0.5-0.3000031-0.7999878-0.3000031c-0.5,0-1,0.1999969-1.6000061,0.6999969l-0.6000061-0.6999969
			c0.7000122-0.6000061,1.3999939-1,2.2000122-1c0.6000061,0,1.1000061,0.1999969,1.5,0.6000061
			c0.3999939,0.3999939,0.6000061,0.8999939,0.6000061,1.3999939C412.7999878,184.8000031,412.5,185.5,411.7999878,186.3000031z"/>
		<path class="st5" d="M414.3999939,189.1000061c-0.2000122,0-0.2999878-0.1000061-0.5-0.1999969
			s-0.2000122-0.3000031-0.2000122-0.5s0.1000061-0.3000031,0.2000122-0.3999939s0.2999878-0.1999969,0.5-0.1999969
			s0.2999878,0.1000061,0.3999939,0.1999969S415,188.3000183,415,188.4000092c0,0.1999969-0.1000061,0.3000031-0.2000122,0.5
			S414.6000061,189.1000061,414.3999939,189.1000061z"/>
		<path class="st5" d="M418.2999878,189.1000061c-0.7000122,0-1.2999878-0.1999969-1.7000122-0.5
			c-0.3999939-0.3999939-0.7000122-0.8000031-0.7000122-1.3999939c0-0.3999939,0.1000061-0.6999969,0.3999939-1
			c0.2000122-0.3000031,0.5-0.5,0.8999939-0.6999969l0,0c-0.2999878-0.1000061-0.6000061-0.3999939-0.7000122-0.6000061
			c-0.2000122-0.3000031-0.2999878-0.5-0.2999878-0.8999939c0-0.5,0.2000122-0.8999939,0.6000061-1.3000031
			c0.3999939-0.3000031,0.8999939-0.5,1.5-0.5s1.1000061,0.1999969,1.5,0.5s0.6000061,0.8000031,0.6000061,1.3000031
			c0,0.3000031-0.1000061,0.6000061-0.2999878,0.8999939c-0.2000122,0.3000031-0.3999939,0.5-0.7000122,0.6000061l0,0
			c0.3999939,0.1000061,0.7000122,0.3999939,0.8999939,0.6999969c0.2000122,0.3000031,0.3999939,0.6999969,0.3999939,1
			c0,0.6000061-0.2000122,1-0.7000122,1.3999939C419.6000061,188.8999939,419,189.1000061,418.2999878,189.1000061z
			 M418.2999878,188.1999969c0.3999939,0,0.7000122-0.1000061,1-0.3000031s0.3999939-0.5,0.3999939-0.8000031
			s-0.1000061-0.6000061-0.3999939-0.8000031s-0.6000061-0.3000031-1-0.3000031s-0.7000122,0.1000061-1,0.3000031
			s-0.3999939,0.5-0.3999939,0.8000031s0.1000061,0.6000061,0.3999939,0.8000031S417.8999939,188.1999969,418.2999878,188.1999969z
			 M419.2000122,184.8000031c0.2000122-0.1999969,0.2999878-0.3999939,0.2999878-0.6999969s-0.1000061-0.5-0.2999878-0.6999969
			c-0.2000122-0.1999969-0.5-0.3000031-0.7999878-0.3000031s-0.6000061,0.1000061-0.7999878,0.3000031
			c-0.2000122,0.1999969-0.2999878,0.3999939-0.2999878,0.6999969s0.1000061,0.5,0.2999878,0.6999969
			c0.2000122,0.1999969,0.5,0.3000031,0.7999878,0.3000031S418.8999939,185,419.2000122,184.8000031z"/>
	</g>
	<g>
		<path class="st5" d="M268.7000122,311.8999939l-1.6000061,1.7999878h2.7000122v1h-4.2000122v-0.8999939L267.7000122,311.5
			l0.5-0.6000061c0.1000061-0.1000061,0.2000122-0.2999878,0.2999878-0.5s0.1000061-0.3999939,0.1000061-0.6000061
			c0-0.2999878-0.1000061-0.5-0.2999878-0.7000122c-0.2000122-0.2000122-0.5-0.2999878-0.7999878-0.2999878
			c-0.5,0-1,0.2000122-1.6000061,0.7000122l-0.6000061-0.7000122c0.7000122-0.6000061,1.3999939-1,2.2000122-1
			c0.6000061,0,1.1000061,0.2000122,1.5,0.6000061s0.6000061,0.8999939,0.6000061,1.3999939
			C269.7999878,310.3999939,269.3999939,311.1000061,268.7000122,311.8999939z"/>
		<path class="st5" d="M271.3999939,314.7000122c-0.2000122,0-0.2999878-0.1000061-0.5-0.2000122
			c-0.1000061-0.1000061-0.2000122-0.2999878-0.2000122-0.5s0.1000061-0.2999878,0.2000122-0.3999939
			s0.2999878-0.2000122,0.5-0.2000122s0.2999878,0.1000061,0.3999939,0.2000122S272,313.8999939,272,314
			c0,0.2000122-0.1000061,0.2999878-0.2000122,0.5C271.7000122,314.7000122,271.5,314.7000122,271.3999939,314.7000122z"/>
		<path class="st5" d="M274.8999939,314.7000122C274.1999817,314.7000122,273.5,314.5,272.7999878,314l0.5-0.7999878
			c0.6000061,0.3999939,1.1000061,0.5,1.6000061,0.5c0.3999939,0,0.7000122-0.1000061,0.8999939-0.2999878
			c0.2000122-0.2000122,0.2999878-0.3999939,0.2999878-0.7999878c0-0.2999878-0.1000061-0.6000061-0.3999939-0.7999878
			c-0.2000122-0.2000122-0.5-0.2999878-0.8999939-0.2999878H274v-0.8999939h0.7999878
			c0.2999878,0,0.6000061-0.1000061,0.7999878-0.2999878c0.2000122-0.2000122,0.2999878-0.3999939,0.2999878-0.7000122
			c0-0.2999878-0.1000061-0.5-0.2999878-0.7000122s-0.5-0.2999878-0.7999878-0.2999878
			c-0.3999939,0-0.8999939,0.2000122-1.3999939,0.6000061l-0.5-0.7000122
			c0.2000122-0.2000122,0.6000061-0.3999939,0.8999939-0.6000061c0.3999939-0.1000061,0.7000122-0.2000122,1.1000061-0.2000122
			c0.6000061,0,1.1000061,0.2000122,1.5,0.5S277,309.0000305,277,309.4000549c0,0.3999939-0.1000061,0.7000122-0.2999878,0.8999939
			c-0.2000122,0.2999878-0.5,0.5-0.7999878,0.6000061l0,0c0.3999939,0.1000061,0.7000122,0.2999878,1,0.6000061
			c0.2000122,0.2999878,0.2999878,0.6000061,0.2999878,1.1000061c0,0.6000061-0.2000122,1-0.6000061,1.3999939
			C276.1000061,314.5,275.6000061,314.7000122,274.8999939,314.7000122z"/>
	</g>
	<g>
		<path class="st5" d="M320.2999878,130.5l1.8999939-1.6000061h0.7999878v6.6999969h-1v-5.3000031l-1.2000122,0.8999939
			L320.2999878,130.5z"/>
		<path class="st5" d="M323.8999939,130.5l1.8999939-1.6000061h0.7999878v6.6999969h-1v-5.3000031l-1.2000122,0.8999939
			L323.8999939,130.5z"/>
		<path class="st5" d="M328.5,135.6999969c-0.2000122,0-0.2999878-0.1000061-0.5-0.1999969
			c-0.1000061-0.1000061-0.2000122-0.3000031-0.2000122-0.5s0.1000061-0.3000031,0.2000122-0.3999939
			c0.1000061-0.1000061,0.2999878-0.1999969,0.5-0.1999969s0.2999878,0.1000061,0.3999939,0.1999969
			C329,134.7000122,329.1000061,134.9000092,329.1000061,135c0,0.1999969-0.1000061,0.3000031-0.2000122,0.5
			C328.7999878,135.6000061,328.7000122,135.6999969,328.5,135.6999969z"/>
		<path class="st5" d="M332.3999939,135.6999969c-0.7000122,0-1.2999878-0.1999969-1.7000122-0.5
			c-0.3999939-0.3999939-0.7000122-0.8000031-0.7000122-1.3999939c0-0.3999939,0.1000061-0.6999969,0.3999939-1
			c0.2000122-0.3000031,0.5-0.5,0.8999939-0.6999969l0,0C330.9999695,132,330.6999512,131.7000122,330.5999451,131.5
			c-0.2000122-0.3000031-0.2999878-0.5-0.2999878-0.8999939c0-0.5,0.2000122-0.8999939,0.6000061-1.3000031
			c0.3999939-0.3000031,0.8999939-0.5,1.5-0.5s1.1000061,0.1999969,1.5,0.5s0.6000061,0.8000031,0.6000061,1.3000031
			c0,0.3000031-0.1000061,0.6000061-0.2999878,0.8999939s-0.3999939,0.5-0.7000122,0.6000061l0,0
			c0.3999939,0.1000061,0.7000122,0.3999939,0.8999939,0.6999969c0.2000122,0.3000031,0.3999939,0.6999969,0.3999939,1
			c0,0.6000061-0.2000122,1-0.7000122,1.3999939C333.7000122,135.5,333.1000061,135.6999969,332.3999939,135.6999969z
			 M332.3999939,134.6999969c0.3999939,0,0.7000122-0.1000061,1-0.3000031s0.3999939-0.5,0.3999939-0.8000031
			s-0.1000061-0.6000061-0.3999939-0.8000031s-0.6000061-0.3000031-1-0.3000031s-0.7000122,0.1000061-1,0.3000031
			S331,133.2999878,331,133.5999908s0.1000061,0.6000061,0.3999939,0.8000031
			C331.6000061,134.6000061,332,134.6999969,332.3999939,134.6999969z M333.2000122,131.3000031
			c0.2000122-0.1999969,0.2999878-0.3999939,0.2999878-0.6999969s-0.1000061-0.5-0.2999878-0.6999969
			c-0.2000122-0.1999969-0.5-0.3000031-0.7999878-0.3000031s-0.6000061,0.1000061-0.7999878,0.3000031
			c-0.2000122,0.1999969-0.2999878,0.3999939-0.2999878,0.6999969s0.1000061,0.5,0.2999878,0.6999969
			c0.2000122,0.1999969,0.5,0.3000031,0.7999878,0.3000031S333,131.5,333.2000122,131.3000031z"/>
	</g>
	<g>
		<path class="st5" d="M316.6000061,212L318.5,210.3999939h0.7999878v6.6999969h-1v-5.3000031l-1.2000122,0.8999939L316.6000061,212
			z"/>
		<path class="st5" d="M321.2999878,217.1000061c-0.2000122,0-0.2999878-0.1000061-0.5-0.1999969
			c-0.1000061-0.1000061-0.2000122-0.3000031-0.2000122-0.5s0.1000061-0.3000031,0.2000122-0.3999939
			c0.1000061-0.1000061,0.2999878-0.1999969,0.5-0.1999969s0.2999878,0.1000061,0.3999939,0.1999969
			c0.1000061,0.1000061,0.2000122,0.3000031,0.2000122,0.3999939c0,0.1999969-0.1000061,0.3000031-0.2000122,0.5
			C321.6000061,217.1000061,321.3999939,217.1000061,321.2999878,217.1000061z"/>
		<path class="st5" d="M325.2000122,217.1000061c-0.7000122,0-1.2999878-0.1999969-1.7000122-0.5
			c-0.3999939-0.3999939-0.7000122-0.8000031-0.7000122-1.3999939c0-0.3999939,0.1000061-0.6999969,0.3999939-1
			c0.2000122-0.3000031,0.5-0.5,0.8999939-0.6999969l0,0c-0.2999878-0.1000061-0.6000061-0.3999939-0.7000122-0.6000061
			c-0.2000122-0.3000031-0.2999878-0.5-0.2999878-0.8999939c0-0.5,0.2000122-0.8999939,0.6000061-1.3000031
			c0.3999939-0.3000031,0.8999939-0.5,1.5-0.5s1.1000061,0.1999969,1.5,0.5s0.6000061,0.8000031,0.6000061,1.3000031
			c0,0.3000031-0.1000061,0.6000061-0.2999878,0.8999939s-0.3999939,0.5-0.7000122,0.6000061l0,0
			c0.3999939,0.1000061,0.7000122,0.3999939,0.8999939,0.6999969c0.2000122,0.3000031,0.3999939,0.6999969,0.3999939,1
			c0,0.6000061-0.2000122,1-0.7000122,1.3999939C326.3999939,216.8999939,325.8999939,217.1000061,325.2000122,217.1000061z
			 M325.2000122,216.1999969c0.3999939,0,0.7000122-0.1000061,1-0.3000031s0.3999939-0.5,0.3999939-0.8000031
			s-0.1000061-0.6000061-0.3999939-0.8000031s-0.6000061-0.3000031-1-0.3000031s-0.7000122,0.1000061-1,0.3000031
			s-0.3999939,0.5-0.3999939,0.8000031s0.1000061,0.6000061,0.3999939,0.8000031
			C324.3999939,216.1000061,324.7000122,216.1999969,325.2000122,216.1999969z M326,212.8000031
			c0.2000122-0.1999969,0.2999878-0.3999939,0.2999878-0.6999969s-0.1000061-0.5-0.2999878-0.6999969
			c-0.2000122-0.1999969-0.5-0.3000031-0.7999878-0.3000031s-0.6000061,0.1000061-0.7999878,0.3000031
			c-0.2000122,0.1999969-0.2999878,0.3999939-0.2999878,0.6999969s0.1000061,0.5,0.2999878,0.6999969
			c0.2000122,0.1999969,0.5,0.3000031,0.7999878,0.3000031S325.7999878,213,326,212.8000031z"/>
	</g>
	<g>
		<path class="st5" d="M276.6000061,239.6000061h0.7000122V240.5h-0.7000122v1.6000061h-1V240.5h-3l-0.2000122-0.6000061L276,235.5
			h0.7000122v4.1000061H276.6000061z M275.6000061,237.1999969l-2,2.3999939h2V237.1999969z"/>
		<path class="st5" d="M278.7999878,242.1999969c-0.2000122,0-0.2999878-0.1000061-0.5-0.1999969
			c-0.1000061-0.1000061-0.2000122-0.3000031-0.2000122-0.5s0.1000061-0.3000031,0.2000122-0.3999939
			c0.1000061-0.1000061,0.2999878-0.1999969,0.5-0.1999969s0.2999878,0.1000061,0.3999939,0.1999969
			c0.1000061,0.1000061,0.2000122,0.3000031,0.2000122,0.3999939c0,0.1999969-0.1000061,0.3000031-0.2000122,0.5
			C279.1000061,242.1999969,279,242.1999969,278.7999878,242.1999969z"/>
		<path class="st5" d="M282.5,235.3000031c0.7999878,0,1.3999939,0.3000031,1.7999878,0.8999939
			c0.3999939,0.6000061,0.6000061,1.3999939,0.6000061,2.3000031c0,0.5-0.1000061,1-0.2000122,1.3999939
			s-0.2999878,0.8000031-0.5,1.1999969c-0.2000122,0.3000031-0.5,0.6000061-0.8999939,0.8000031
			s-0.7999878,0.3000031-1.2000122,0.3000031c-0.7000122,0-1.2999878-0.1999969-1.7999878-0.6000061l0.3999939-0.8000031
			c0.3999939,0.3000031,0.8999939,0.5,1.2999878,0.5c0.6000061,0,1-0.1999969,1.2999878-0.6999969s0.5-1,0.5-1.6999969
			c-0.2000122,0.3000031-0.3999939,0.5-0.7000122,0.6000061s-0.6000061,0.1999969-1,0.1999969
			c-0.6000061,0-1.1000061-0.1999969-1.5-0.6000061c-0.3999939-0.3999939-0.6000061-0.8999939-0.6000061-1.5
			s0.2000122-1.1999969,0.6000061-1.6000061C281.2999878,235.5,281.8999939,235.3000031,282.5,235.3000031z
			 M283.7999878,237.6000061c0-0.3999939-0.1000061-0.6999969-0.3999939-0.8999939
			c-0.2000122-0.3000031-0.5-0.3999939-0.8999939-0.3999939s-0.7000122,0.1000061-0.8999939,0.3999939
			c-0.2000122,0.3000031-0.3999939,0.6000061-0.3999939,0.8999939c0,0.3999939,0.1000061,0.6999969,0.3999939,0.8999939
			c0.2000122,0.1999969,0.5,0.3999939,0.8999939,0.3999939s0.7000122-0.1000061,0.8999939-0.3999939
			C283.6000061,238.1999969,283.7999878,237.8999939,283.7999878,237.6000061z"/>
	</g>
	<g>
		<path class="st5" d="M281.3999939,372.1000061h0.7000122V373h-0.7000122v1.6000061h-1V373h-3l-0.2000122-0.6000061
			L280.7999878,368H281.5v4.1000061H281.3999939z M280.3999939,369.7000122l-2,2.3999939h2V369.7000122z"/>
		<path class="st5" d="M283.6000061,374.7000122c-0.2000122,0-0.2999878-0.1000061-0.5-0.2000122
			c-0.1000061-0.1000061-0.2000122-0.2999878-0.2000122-0.5s0.1000061-0.2999878,0.2000122-0.3999939
			s0.2999878-0.2000122,0.5-0.2000122S283.8999939,373.5,284,373.6000061s0.2000122,0.2999878,0.2000122,0.3999939
			c0,0.2000122-0.1000061,0.2999878-0.2000122,0.5S283.7999878,374.7000122,283.6000061,374.7000122z"/>
		<path class="st5" d="M284.2000122,369.6000061L286.1000061,368h0.7999878v6.7000122h-1v-5.2999878l-1.2000122,0.8999939
			L284.2000122,369.6000061z"/>
	</g>
	<g>
		<path class="st5" d="M355.2000122,355.3999939l-1.6000061,1.7999878h2.7000122v1h-4.2000122v-0.8999939L354.2000122,355
			l0.5-0.6000061c0.1000061-0.1000061,0.2000122-0.2999878,0.2999878-0.5s0.1000061-0.3999939,0.1000061-0.6000061
			c0-0.2999878-0.1000061-0.5-0.2999878-0.7000122c-0.2000122-0.2000122-0.5-0.2999878-0.7999878-0.2999878
			c-0.5,0-1,0.2000122-1.6000061,0.7000122l-0.6000061-0.7000122c0.7000122-0.6000061,1.3999939-1,2.2000122-1
			c0.6000061,0,1.1000061,0.2000122,1.5,0.6000061s0.6000061,0.8999939,0.6000061,1.3999939
			C356.2000122,354,355.8999939,354.6000061,355.2000122,355.3999939z"/>
		<path class="st5" d="M360.8999939,355.6000061h0.7000122V356.5h-0.7000122v1.6000061h-1V356.5h-3l-0.2000122-0.6000061
			L360.2999878,351.5H361v4.1000061H360.8999939z M359.8999939,353.2000122l-2,2.3999939h2V353.2000122z"/>
		<path class="st5" d="M363.1000061,358.2999878c-0.2000122,0-0.2999878-0.1000061-0.5-0.2000122
			s-0.2000122-0.2999878-0.2000122-0.5s0.1000061-0.2999878,0.2000122-0.3999939s0.2999878-0.2000122,0.5-0.2000122
			s0.2999878,0.1000061,0.3999939,0.2000122s0.2000122,0.2999878,0.2000122,0.3999939
			c0,0.2000122-0.1000061,0.2999878-0.2000122,0.5S363.2999878,358.2999878,363.1000061,358.2999878z"/>
		<path class="st5" d="M366.8999939,351.2999878c0.7999878,0,1.3999939,0.2999878,1.7999878,0.8999939
			s0.6000061,1.3999939,0.6000061,2.2999878c0,0.5-0.1000061,1-0.2000122,1.3999939s-0.2999878,0.7999878-0.5,1.2000122
			c-0.2000122,0.2999878-0.5,0.6000061-0.8999939,0.7999878c-0.3999939,0.2000122-0.7999878,0.2999878-1.2000122,0.2999878
			c-0.7000122,0-1.2999878-0.2000122-1.7999878-0.6000061l0.3999939-0.7999878c0.3999939,0.2999878,0.8999939,0.5,1.2999878,0.5
			c0.6000061,0,1-0.2000122,1.2999878-0.7000122s0.5-1,0.5-1.7000122c-0.2000122,0.2999878-0.3999939,0.5-0.7000122,0.6000061
			s-0.6000061,0.2000122-1,0.2000122c-0.6000061,0-1.1000061-0.2000122-1.5-0.6000061s-0.6000061-0.8999939-0.6000061-1.5
			s0.2000122-1.2000122,0.6000061-1.6000061C365.6000061,351.6000061,366.2000122,351.2999878,366.8999939,351.2999878z
			 M368.1000061,353.6000061c0-0.3999939-0.1000061-0.7000122-0.3999939-0.8999939
			c-0.2000122-0.2999878-0.5-0.3999939-0.8999939-0.3999939s-0.7000122,0.1000061-0.8999939,0.3999939
			c-0.2000122,0.2999878-0.3999939,0.6000061-0.3999939,0.8999939c0,0.3999939,0.1000061,0.7000122,0.3999939,0.8999939
			c0.2000122,0.2000122,0.5,0.3999939,0.8999939,0.3999939s0.7000122-0.1000061,0.8999939-0.3999939
			C368,354.2000122,368.1000061,353.8999939,368.1000061,353.6000061z"/>
	</g>
</g>
<g id="street_anchors">
	<rect id="street_anchor_01" x="355" y="20" class="st12" width="10" height="10"/>
	<rect id="street_anchor_02" x="521.7000122" y="235" class="st12" width="10" height="10"/>
</g>
</svg>
