<?xml version="1.0" encoding="utf-8"?>
<!-- Generator: Adobe Illustrator 24.2.0, SVG Export Plug-In . SVG Version: 6.00 Build 0)  -->
<!DOCTYPE svg PUBLIC "-//W3C//DTD SVG 1.1//EN" "http://www.w3.org/Graphics/SVG/1.1/DTD/svg11.dtd" [
	<!ENTITY ns_extend "http://ns.adobe.com/Extensibility/1.0/">
	<!ENTITY ns_ai "http://ns.adobe.com/AdobeIllustrator/10.0/">
	<!ENTITY ns_graphs "http://ns.adobe.com/Graphs/1.0/">
	<!ENTITY ns_vars "http://ns.adobe.com/Variables/1.0/">
	<!ENTITY ns_imrep "http://ns.adobe.com/ImageReplacement/1.0/">
	<!ENTITY ns_sfw "http://ns.adobe.com/SaveForWeb/1.0/">
	<!ENTITY ns_custom "http://ns.adobe.com/GenericCustomNamespace/1.0/">
	<!ENTITY ns_adobe_xpath "http://ns.adobe.com/XPath/1.0/">
]>
<svg version="1.1" id="_x31__x5F_2" xmlns:x="&ns_extend;" xmlns:i="&ns_ai;" xmlns:graph="&ns_graphs;"
	 xmlns="http://www.w3.org/2000/svg" xmlns:xlink="http://www.w3.org/1999/xlink" x="0px" y="0px" viewBox="0 0 720 480"
	 style="enable-background:new 0 0 720 480;" xml:space="preserve">
<style type="text/css">
	.st0{fill:#DBD4CA;}
	.st1{clip-path:url(#SVGID_2_);}
	.st2{fill:none;stroke:#C49F8A;stroke-miterlimit:10;}
	.st3{opacity:0.3;clip-path:url(#SVGID_2_);}
	.st4{opacity:0.7;fill:#C49F8A;}
	.st5{fill:none;stroke:#565440;}
	.st6{fill:#565440;}
	.st7{fill:#E9E4DC;}
	.st8{fill:#C49F8A;}
	.st9{fill:#E9E4DC;stroke:#C49F8A;}
	.st10{fill:#E9E4DC;stroke:#C49F8A;stroke-miterlimit:3.9998;}
	.st11{fill:none;stroke:#C49F8A;}
	.st12{fill:#E9E4DC;stroke:#C49F8A;stroke-linejoin:round;}
	.st13{fill:#E9E4DC;stroke:#C49F8A;stroke-width:1.0000014;stroke-miterlimit:4.0000057;}
	.st14{opacity:0;}
	.st15{fill:none;}
</style>
<metadata>
	<sfw  xmlns="&ns_sfw;">
		<slices></slices>
		<sliceSourceBounds  bottomLeftOrigin="true" height="667.6734619" width="804.7408447" x="102.4394608" y="-49.1066704">
			</sliceSourceBounds>
	</sfw>
</metadata>
<rect id="Floor" x="152.5" y="60" class="st0" width="425" height="360"/>
<g id="Wet_Floor_1_">
	<defs>
		<rect id="SVGID_1_" x="447.8956909" y="71.0368118" width="118.1595078" height="168.9631958"/>
	</defs>
	<clipPath id="SVGID_2_">
		<use xlink:href="#SVGID_1_"  style="overflow:visible;"/>
	</clipPath>
	<g class="st1">
		<g>
			<line class="st2" x1="250.2817383" y1="205.6913147" x2="583.7649536" y2="-127.7918854"/>
			<line class="st2" x1="239.8603821" y1="195.2699738" x2="573.3435669" y2="-138.2132263"/>
			<line class="st2" x1="260.7030945" y1="216.1126709" x2="594.1862793" y2="-117.3705368"/>
			<line class="st2" x1="271.1244202" y1="226.5340118" x2="604.607605" y2="-106.9491882"/>
			<line class="st2" x1="281.5457764" y1="236.955368" x2="615.0289917" y2="-96.5278397"/>
			<line class="st2" x1="291.9671326" y1="247.376709" x2="625.4503174" y2="-86.1064911"/>
			<line class="st2" x1="302.3884888" y1="257.7980652" x2="635.8716431" y2="-75.6851425"/>
			<line class="st2" x1="312.8098145" y1="268.2193909" x2="646.2930298" y2="-65.2637939"/>
			<line class="st2" x1="323.2311707" y1="278.6407471" x2="656.7143555" y2="-54.8424454"/>
			<line class="st2" x1="333.6525269" y1="289.0621033" x2="667.1357422" y2="-44.4210968"/>
			<line class="st2" x1="323.2311707" y1="278.6407471" x2="656.7143555" y2="-54.8424454"/>
			<line class="st2" x1="344.0738831" y1="299.4834595" x2="677.5570679" y2="-33.9997482"/>
			<line class="st2" x1="354.4952087" y1="309.9047852" x2="687.9783936" y2="-23.5783978"/>
			<line class="st2" x1="364.9165649" y1="320.3261414" x2="698.3997803" y2="-13.1570501"/>
			<line class="st2" x1="375.3379211" y1="330.7474976" x2="708.821106" y2="-2.7357018"/>
			<line class="st2" x1="385.7592773" y1="341.1688538" x2="719.2424316" y2="7.6856465"/>
			<line class="st2" x1="396.180603" y1="351.5901794" x2="729.6638184" y2="18.1069946"/>
			<line class="st2" x1="406.6019592" y1="362.0115356" x2="740.085144" y2="28.5283432"/>
			<line class="st2" x1="417.0233154" y1="372.4328918" x2="750.5065308" y2="38.9496918"/>
			<line class="st2" x1="406.6019592" y1="362.0115356" x2="740.085144" y2="28.5283432"/>
			<line class="st2" x1="427.4446411" y1="382.854248" x2="760.9278564" y2="49.3710403"/>
			<line class="st2" x1="437.8659973" y1="393.2755737" x2="771.3491821" y2="59.7923889"/>
			<line class="st2" x1="448.2873535" y1="403.6969299" x2="781.7705688" y2="70.2137375"/>
			<line class="st2" x1="458.7087097" y1="414.1182861" x2="792.1918945" y2="80.6350861"/>
			<line class="st2" x1="469.1300354" y1="424.5396423" x2="802.6132202" y2="91.0564346"/>
			<line class="st2" x1="479.5513916" y1="434.960968" x2="813.0346069" y2="101.4777832"/>
			<line class="st2" x1="489.9727478" y1="445.3823242" x2="823.4559326" y2="111.8991318"/>
			<line class="st2" x1="500.394104" y1="455.8036804" x2="833.8773193" y2="122.3204803"/>
			<line class="st2" x1="489.9727478" y1="445.3823242" x2="823.4559326" y2="111.8991318"/>
			<line class="st2" x1="510.8154297" y1="466.2250366" x2="844.298645" y2="132.7418213"/>
			<line class="st2" x1="521.2368164" y1="476.6463623" x2="854.7199707" y2="143.1631775"/>
			<line class="st2" x1="531.6581421" y1="487.0677185" x2="865.1413574" y2="153.5845184"/>
			<line class="st2" x1="542.0794678" y1="497.4890747" x2="875.5626831" y2="164.0058746"/>
			<line class="st2" x1="552.5008545" y1="507.9104309" x2="885.9840088" y2="174.4272156"/>
			<line class="st2" x1="562.9221802" y1="518.3317871" x2="896.4053955" y2="184.8485718"/>
			<line class="st2" x1="573.3435059" y1="528.7531128" x2="906.8267212" y2="195.2699127"/>
		</g>
		<g>
			<line class="st2" x1="583.7648315" y1="518.331604" x2="250.2817688" y2="184.8485565"/>
			<line class="st2" x1="573.3435059" y1="528.7529907" x2="239.8604279" y2="195.2699127"/>
			<line class="st2" x1="594.1861572" y1="507.9102783" x2="260.703125" y2="174.4272156"/>
			<line class="st2" x1="604.6075439" y1="497.4889221" x2="271.1244812" y2="164.0058594"/>
			<line class="st2" x1="615.0288696" y1="487.0675659" x2="281.5458069" y2="153.5845184"/>
			<line class="st2" x1="625.4501953" y1="476.6462097" x2="291.9671631" y2="143.1631622"/>
			<line class="st2" x1="635.871582" y1="466.224884" x2="302.3885193" y2="132.7418213"/>
			<line class="st2" x1="646.2929077" y1="455.8035278" x2="312.8098755" y2="122.3204727"/>
			<line class="st2" x1="656.7142944" y1="445.3821716" x2="323.2312012" y2="111.8991241"/>
			<line class="st2" x1="667.1356201" y1="434.9608154" x2="333.6525574" y2="101.4777756"/>
			<line class="st2" x1="656.7142944" y1="445.3821716" x2="323.2312012" y2="111.8991241"/>
			<line class="st2" x1="677.5569458" y1="424.5394897" x2="344.0739136" y2="91.056427"/>
			<line class="st2" x1="687.9783325" y1="414.1181335" x2="354.4952698" y2="80.6350784"/>
			<line class="st2" x1="698.3996582" y1="403.6967773" x2="364.9165955" y2="70.2137299"/>
			<line class="st2" x1="708.8209839" y1="393.2754211" x2="375.3379517" y2="59.7923813"/>
			<line class="st2" x1="719.2423706" y1="382.8540955" x2="385.7593079" y2="49.3710327"/>
			<line class="st2" x1="729.6636963" y1="372.4327393" x2="396.1806641" y2="38.9496841"/>
			<line class="st2" x1="740.085083" y1="362.0113831" x2="406.6019897" y2="28.5283356"/>
			<line class="st2" x1="750.5064087" y1="351.5900269" x2="417.0233459" y2="18.106987"/>
			<line class="st2" x1="740.085083" y1="362.0113831" x2="406.6019897" y2="28.5283356"/>
			<line class="st2" x1="760.9277344" y1="341.1687012" x2="427.4447021" y2="7.6856394"/>
			<line class="st2" x1="771.3491211" y1="330.747345" x2="437.8660583" y2="-2.735709"/>
			<line class="st2" x1="781.7704468" y1="320.3259888" x2="448.287384" y2="-13.1570578"/>
			<line class="st2" x1="792.1917725" y1="309.9046326" x2="458.7087402" y2="-23.5784054"/>
			<line class="st2" x1="802.6131592" y1="299.4833069" x2="469.1300964" y2="-33.9997559"/>
			<line class="st2" x1="813.0344849" y1="289.0619507" x2="479.5514526" y2="-44.4211006"/>
			<line class="st2" x1="823.4558105" y1="278.6405945" x2="489.9727783" y2="-54.8424492"/>
			<line class="st2" x1="833.8771973" y1="268.2192383" x2="500.3941345" y2="-65.2638016"/>
			<line class="st2" x1="823.4558105" y1="278.6405945" x2="489.9727783" y2="-54.8424492"/>
			<line class="st2" x1="844.2985229" y1="257.7979126" x2="510.8154907" y2="-75.6851501"/>
			<line class="st2" x1="854.7199097" y1="247.3765564" x2="521.2368164" y2="-86.1064987"/>
			<line class="st2" x1="865.1412354" y1="236.9552002" x2="531.6582031" y2="-96.5278473"/>
			<line class="st2" x1="875.562561" y1="226.5338593" x2="542.0795288" y2="-106.9491959"/>
			<line class="st2" x1="885.9839478" y1="216.1125183" x2="552.5008545" y2="-117.3705444"/>
			<line class="st2" x1="896.4052734" y1="205.6911621" x2="562.9222412" y2="-127.791893"/>
			<line class="st2" x1="906.8265991" y1="195.2698212" x2="573.3435669" y2="-138.2132416"/>
		</g>
	</g>
	<g class="st3">
		<rect x="412.2640686" y="23.7690506" class="st4" width="322.1589355" height="322.1589355"/>
	</g>
</g>
<path id="Windows_1_" class="st5" d="M145,65h7.5v252.5H145V65z"/>
<g id="Walls">
	<polygon class="st6" points="142.4500122,209.8000031 142.4500122,246.3999939 167.4500122,246.3999939 167.4500122,240 
		368.0500183,240 368.0500183,235 167.4500122,235 167.4500122,209.8000031 	"/>
	<path class="st6" d="M562.4500122,388H544.75h-5v5v12h-81.5v-91.3999939h-5V405H172.5500183v-38.7999878h-5v-52.6000061h-25
		v52.6000061l0,0V420h18.8000031h11.1999969h404.9999695v-15v-95.8999939h-15V388H562.4500122z M544.75,405v-12h17.7000122v12
		H544.75z"/>
	<path class="st6" d="M142.4500122,60v15l0,0v16l0,0v46.6999969h25V91h5V75h273.6000061v160h-38.1000061v5h38.1000061h5h5.8999939
		v-5h-5.8999939V75h95.8999939v15.3000031h2.2000122h2.7999878h10.5V235h-65.7999878v5h65.7999878v19.1000061h15V75V60H142.4500122z
		 M562.4500122,85.3000031h-10.5V75h10.5V85.3000031z"/>
</g>
<path id="Doors_1_" class="st5" d="M368.1000061,235c0-5.5,1-10,3-15s5-9.5,8.5-13c3.5-4,8-7,13-9s10-3,15.5-3v40 M497.1000061,235
	c0-5.5-1-10-3-15s-5-9.5-8.5-13c-3.5-4-8-7-13-9s-10-3-15.5-3v40 M577.5,259.1000061c6.5,0,12.5,1.5,18.5,4s12,6,16.5,11
	c4.5,4.5,8.5,10,11,16s4,12.5,4,19h-50"/>
<g id="Furniture_2_">
	<g>
		<g>
			<rect x="192.8999939" y="388.2000122" class="st7" width="76.1000061" height="4.3999939"/>
			<path class="st8" d="M268.5,388.7000122v3.3999939h-75.1000061v-3.3999939H268.5 M269.5,387.7000122h-77.1000061v5.3999939H269.5
				V387.7000122L269.5,387.7000122z"/>
		</g>
		<g>
			<rect x="192.8999939" y="391.7999878" class="st7" width="76.1000061" height="12.7000122"/>
			<path class="st8" d="M268.5,392.2999878V404h-75.1000061v-11.7000122H268.5 M269.5,391.2999878h-77.1000061V405H269.5
				V391.2999878L269.5,391.2999878z"/>
		</g>
		<rect x="204.3999939" y="399.2999878" class="st9" width="54.5" height="2.3999939"/>
		<path class="st9" d="M220.1000061,401.7000122h23.1000061l-2.1000061,2.8999939h-18.8999939L220.1000061,401.7000122z"/>
	</g>
	<g>
		<g>
			<rect x="254.1999969" y="218.1999969" class="st7" width="76.0999908" height="4.3999939"/>
			<path class="st8" d="M329.7999878,218.6999969v3.3999939h-75.1000061v-3.3999939H329.7999878 M330.7999878,217.6999969
				h-77.1000061v5.3999939h77.1000061V217.6999969L330.7999878,217.6999969z"/>
		</g>
		<g>
			<rect x="254.1999969" y="221.8000031" class="st7" width="76.0999908" height="12.6999969"/>
			<path class="st8" d="M329.7999878,222.3000031V234h-75.1000061v-11.6999969H329.7999878 M330.7999878,221.3000031h-77.1000061
				V235h77.1000061V221.3000031L330.7999878,221.3000031z"/>
		</g>
		<rect x="265.7000122" y="229.3000031" class="st9" width="54.5" height="2.3999939"/>
		<path class="st9" d="M281.3999939,231.6999969H304.5l-2.1000061,2.8999939H283.5L281.3999939,231.6999969z"/>
	</g>
	<g>
		<g>
			<rect x="252.1000061" y="75.5" class="st7" width="81.5" height="98.1999969"/>
			<path class="st8" d="M252.6000061,76h80.5v97.1999969h-80.5V76 M251.6000061,75v99.1999969h82.5V75H251.6000061L251.6000061,75z"
				/>
		</g>
		<rect x="294.8999939" y="82.0999985" class="st9" width="32.2000122" height="24.5"/>
		<rect x="258.7000122" y="82.0999985" class="st9" width="32.2000122" height="24.5"/>
		<polygon class="st10" points="323.2000122,96.5999985 299.8999939,90.3000031 293.6000061,114 316.8999939,120.3000031 		"/>
		<polygon class="st10" points="292,114 285.7000122,90.3000031 262.3999939,96.5999985 268.7000122,120.3000031 		"/>
		<g>
			<polygon class="st7" points="252.1000061,174.6999969 252.1000061,96.1999969 284.6000061,94.1999969 333.6000061,101.4000015 
				333.6000061,174.6999969 			"/>
			<path class="st8" d="M284.6000061,94.6999969l48.5,7.1999969v72.3000031h-80.5V97.4000015v-0.5999985L284.6000061,94.6999969
				 M284.6000061,93.6999969l-33,2.0999985v1.5999985v77.8000031h82.5v-73.5999985V101L284.6000061,93.6999969
				L284.6000061,93.6999969z"/>
		</g>
		<polyline class="st11" points="252.6999969,98.3000031 284.8999939,98.3000031 333.2000122,102.4000015 		"/>
	</g>
	<g>
		<rect x="322.7999878" y="337.1000061" class="st9" width="44.8999939" height="67.5"/>
		<rect x="335.6000061" y="337.1000061" class="st9" width="5" height="67.5"/>
	</g>
	<circle class="st9" cx="306.2000122" cy="347.2999878" r="10.6000061"/>
	<circle class="st9" cx="306.2000122" cy="374.2999878" r="10.6000061"/>
	<circle class="st9" cx="344.6000061" cy="322.1000061" r="10.6000061"/>
	<g id="Toilet_2_">
		<g id="Rectangle_21_2_">
			<rect x="546.2999878" y="163.8999939" class="st7" width="7.5" height="21.8999939"/>
			<path class="st8" d="M553.2999878,164.3999939v20.8999939h-6.5v-20.8999939H553.2999878 M554.2999878,163.3999939h-8.5
				v22.8999939h8.5V163.3999939L554.2999878,163.3999939z"/>
		</g>
		<path id="Rectangle_19_x5F_2_2_" class="st9" d="M531.2999878,166.6999969
			c-4.7000122-0.3000031-8.7000122,3.3999939-8.7000122,8.1999969l0,0c0,4.6999969,4,8.5,8.7000122,8.1999969l15-1v-14.3000031
			L531.2999878,166.6999969z"/>
		<path id="Rectangle_18_x5F_13_2_" class="st9" d="M531.5999756,168.3999939
			c-3.7999878-0.3000031-7.0999756,2.6999969-7.0999756,6.5l0,0c0,3.8000031,3.2999878,6.8999939,7.0999756,6.5L542,180.5
			v-11.1000061L531.5999756,168.3999939z"/>
		<ellipse id="Ellipse_6_x5F_2_2_" class="st9" cx="537.5999756" cy="174.8999939" rx="1.5999756" ry="1.6000061"/>
	</g>
	<g>
		<path class="st9" d="M232,275.2999878c0,1.5-1.1999969,2.7000122-2.6999969,2.7000122H189
			c-1.5,0-2.6999969-1.2000122-2.6999969-2.7000122v-26.5H232V275.2999878z"/>
		<path class="st9" d="M275.6000061,275.2999878c0,1.5-1.2000122,2.7000122-2.7000122,2.7000122h-38.3000031
			c-1.5,0-2.6999969-1.2000122-2.6999969-2.7000122v-26.5h43.7000122V275.2999878z"/>
		<polygon class="st9" points="275.6000061,280.2000122 275.6000061,248.8999939 230.8999939,248.8999939 186.1999969,248.8999939 
			186.1999969,280.2000122 177.8000031,280.2000122 177.8000031,240.3999939 284,240.3999939 284,280.2000122 		"/>
	</g>
	<g>
		<rect x="367.7000122" y="373.7000122" class="st7" width="57" height="30.7999878"/>
		<path class="st8" d="M424.2999878,374.2000122V404h-56v-29.7999878H424.2999878 M425.2999878,373.2000122h-58V405h58V373.2000122
			L425.2999878,373.2000122z"/>
	</g>
	<g id="Stove">
		<g id="Rectangle_25">
			<rect x="370.8999939" y="373.7000122" class="st7" width="30" height="30.7999878"/>
			<path class="st8" d="M400.3999939,374.2000122V404h-29v-29.7999878H400.3999939 M401.3999939,373.2000122h-31V405h31V373.2000122
				L401.3999939,373.2000122z"/>
		</g>
		<g id="Rectangle_28_x5F_3">
			<rect x="370.8999939" y="402.1000061" class="st7" width="30" height="2.5"/>
			<path class="st8" d="M400.3999939,402.6000061v1.5h-29v-1.5H400.3999939 M401.3999939,401.6000061h-31v3.5h31V401.6000061
				L401.3999939,401.6000061z"/>
		</g>
		<g id="Ellipse_7_x5F_4">
			<circle class="st7" cx="378.3999939" cy="394.1000061" r="3.5"/>
			<path class="st8" d="M378.3999939,391.1000061c1.6000061,0,3,1.2999878,3,3s-1.2999878,3-3,3c-1.6000061,0-3-1.2999878-3-3
				S376.7000122,391.1000061,378.3999939,391.1000061 M378.3999939,390.1000061c-2.2000122,0-4,1.7999878-4,4s1.7999878,4,4,4
				s4-1.7999878,4-4S380.6000061,390.1000061,378.3999939,390.1000061L378.3999939,390.1000061z"/>
		</g>
		<g id="Ellipse_9">
			<path class="st7" d="M378.3999939,386.6000061c-2.5,0-4.5-2-4.5-4.5s2-4.5,4.5-4.5s4.5,2,4.5,4.5
				S380.7999878,386.6000061,378.3999939,386.6000061z"/>
			<path class="st8" d="M378.3999939,378.2000122c2.2000122,0,4,1.7999878,4,4s-1.7999878,4-4,4s-4-1.7999878-4-4
				S376.2000122,378.2000122,378.3999939,378.2000122 M378.3999939,377.2000122c-2.7000122,0-5,2.2000122-5,5s2.2000122,5,5,5
				c2.7000122,0,5-2.2000122,5-5S381.1000061,377.2000122,378.3999939,377.2000122L378.3999939,377.2000122z"/>
		</g>
		<g id="Ellipse_10">
			<path class="st7" d="M392.2999878,398.6000061c-2.5,0-4.5-2-4.5-4.5s2-4.5,4.5-4.5s4.5,2,4.5,4.5
				C396.7999878,396.5,394.7999878,398.6000061,392.2999878,398.6000061z"/>
			<path class="st8" d="M392.2999878,390.1000061c2.2000122,0,4,1.7999878,4,4s-1.7999878,4-4,4s-4-1.7999878-4-4
				S390.1000061,390.1000061,392.2999878,390.1000061 M392.2999878,389.1000061c-2.7000122,0-5,2.2000122-5,5s2.2000122,5,5,5
				c2.7000122,0,5-2.2000122,5-5S395,389.1000061,392.2999878,389.1000061L392.2999878,389.1000061z"/>
		</g>
		<g id="Ellipse_8">
			<path class="st7" d="M392.2999878,384.6000061c-1.8999939,0-3.5-1.6000061-3.5-3.5s1.6000061-3.5,3.5-3.5s3.5,1.6000061,3.5,3.5
				S394.2000122,384.6000061,392.2999878,384.6000061z"/>
			<path class="st8" d="M392.2999878,378.2000122c1.6000061,0,3,1.2999878,3,3s-1.2999878,3-3,3s-3-1.2999878-3-3
				S390.7000122,378.2000122,392.2999878,378.2000122 M392.2999878,377.2000122c-2.2000122,0-4,1.7999878-4,4s1.7999878,4,4,4
				s4-1.7999878,4-4S394.5,377.2000122,392.2999878,377.2000122L392.2999878,377.2000122z"/>
		</g>
	</g>
	<g id="Rectangle_24_1_">
		<rect x="424.7999878" y="348.7000122" class="st7" width="28.1000061" height="55.7999878"/>
		<path class="st8" d="M452.2999878,349.2000122V404h-27.1000061v-54.7999878H452.2999878 M453.2999878,348.2000122h-29.1000061V405
			h29.1000061V348.2000122L453.2999878,348.2000122z"/>
	</g>
	<g id="Rectangle_27">
		<rect x="424.7999878" y="320.7999878" class="st7" width="28.1000061" height="28.1000061"/>
		<path class="st8" d="M452.2999878,321.2999878v27.1000061h-27.1000061v-27.1000061H452.2999878 M453.2999878,320.2999878
			h-29.1000061v29.1000061h29.1000061V320.2999878L453.2999878,320.2999878z"/>
	</g>
	<g id="Sink_3_1_">
		<rect id="Rectangle_28_x5F_2_1_" x="427.8999939" y="353" class="st9" width="21.7999878" height="34.5"/>
		<path id="Rectangle_29_x5F_2_1_" class="st9" d="M438.7999878,373.7999878L438.7999878,373.7999878
			c-4.5,0-8.2000122-3.7000122-8.2000122-8.2000122v-1.7999878c0-4.5,3.7000122-8.2000122,8.2000122-8.2000122l0,0
			c4.5,0,8.2000122,3.7000122,8.2000122,8.2000122v1.7999878C447,370.2000122,443.2999878,373.7999878,438.7999878,373.7999878z"/>
		<ellipse id="Ellipse_7_x5F_3_1_" class="st9" cx="442.3999939" cy="364.7999878" rx="1.6000061" ry="1.6000061"/>
		<path id="Vector_2_1_" class="st11" d="M447,385.6000061V376.5 M444.2999878,385.6000061V376.5 M441.5,385.6000061V376.5
			 M438.7999878,385.6000061V376.5 M436.1000061,385.6000061V376.5 M433.3999939,385.6000061V376.5 M430.6000061,385.6000061V376.5"
			/>
	</g>
	<path id="Vector_3" class="st11" d="M439.5,338.5v-7.2999878 M436.2999878,336.7000122l6.3999939-3.6000061
		 M442.7000122,336.7000122l-6.3999939-3.6000061"/>
	<g id="Rectangle_28_x5F_3_1_">
		<rect x="424.7999878" y="320.7999878" class="st7" width="2.5" height="28.1000061"/>
		<path class="st8" d="M426.7000122,321.2999878v27.1000061h-1.5v-27.1000061H426.7000122 M427.7000122,320.2999878h-3.5v29.1000061
			h3.5V320.2999878L427.7000122,320.2999878z"/>
	</g>
	<g id="Rectangle_27_1_">
		<rect x="543.2000122" y="312.7000122" class="st7" width="18.9000244" height="28.1000061"/>
		<path class="st8" d="M561.5,313.2000122v27.1000061h-17.9000244v-27.1000061H561.5 M562.5,312.2000122h-19.9000244v29.1000061
			H562.5V312.2000122L562.5,312.2000122z"/>
	</g>
	<g id="Rectangle_28_x5F_3_3_">
		<rect x="543.2000122" y="312.7000122" class="st7" width="2.5" height="28.1000061"/>
		<path class="st8" d="M545.0999756,313.2000122v27.1000061h-1.5v-27.1000061H545.0999756 M546.0999756,312.2000122h-3.5v29.1000061
			h3.5V312.2000122L546.0999756,312.2000122z"/>
	</g>
	<g>
		<line class="st11" x1="545.9000244" y1="312.7999878" x2="562.0999756" y2="340.7000122"/>
	</g>
	<g id="Rectangle_27_3_">
		<rect x="458.7999878" y="376.3999939" class="st7" width="80.5" height="28.1000061"/>
		<path class="st8" d="M538.7999878,376.8999939V404h-79.5v-27.1000061H538.7999878 M539.7999878,375.8999939h-81.5V405h81.5
			V375.8999939L539.7999878,375.8999939z"/>
	</g>
	<g id="Rectangle_28_x5F_3_5_">
		<rect x="458.7999878" y="376.3999939" class="st7" width="80.5" height="2.5"/>
		<path class="st8" d="M538.7999878,376.8999939v1.5h-79.5v-1.5H538.7999878 M539.7999878,375.8999939h-81.5v3.5h81.5V375.8999939
			L539.7999878,375.8999939z"/>
	</g>
	<g>
		<line class="st11" x1="538.0999756" y1="380.7000122" x2="459.7000122" y2="404.3999939"/>
	</g>
	<g>
		<g>
			<rect x="451.7000122" y="75.5" class="st7" width="94.7999878" height="36.3000031"/>
			<path class="st8" d="M546,76v35.3000031h-93.7999878V76H546 M547,75h-95.7999878v37.3000031H547V75L547,75z"/>
		</g>
		<g>
			<g>
				<path class="st12" d="M535.5999756,93.5999985C535.5999756,86.6999969,529.6999512,81.4000015,523,82
					c-7.5,0.6999969-16.8999939,1.3000031-23.8999939,1.3000031c-6.8999939,0-16.2999878-0.6999969-23.8999939-1.3000031
					c-6.7999878-0.5999985-12.6000061,4.8000031-12.6000061,11.5999985c0,6.8000031,5.8999939,12.1999969,12.6000061,11.5999985
					c7.5-0.6999969,16.8999939-1.3000031,23.8999939-1.3000031c6.8999939,0,16.3000183,0.6999969,23.8999939,1.3000031
					C529.7000122,105.8000031,535.5999756,100.4000015,535.5999756,93.5999985z"/>
				<ellipse class="st12" cx="523.7000122" cy="93.5999985" rx="1.5999756" ry="1.5999985"/>
			</g>
		</g>
	</g>
	<g>
		<rect x="553.7999878" y="144.8000031" class="st7" width="8.2000122" height="55.5999908"/>
		<path class="st8" d="M561.5,145.3000031v54.5999908h-7.2000122v-54.6000061H561.5 M562.5,144.3000031h-9.2000122v56.5999908H562.5
			V144.3000031L562.5,144.3000031z"/>
	</g>
	<g id="Sink_2">
		<g id="Rectangle_16_x5F_11">
			<rect x="541.5999756" y="111.6999969" class="st7" width="20.5" height="33"/>
			<path class="st8" d="M561.5,112.1999969v32H542v-32H561.5 M562.5,111.1999969H541v34h21.5V111.1999969L562.5,111.1999969z"/>
		</g>
		<path id="Rectangle_19_x5F_5" class="st9" d="M551.7999878,117L551.7999878,117
			c-3.5999756,0-6.5999756,2.9000015-6.5999756,6.5999985V133c0,3.6000061,2.9000244,6.6000061,6.5999756,6.6000061l0,0
			c3.5999756,0,6.5999756-2.8999939,6.5999756-6.6000061v-9.4000015C558.4000244,119.9000015,555.4000244,117,551.7999878,117z"/>
		<circle id="Ellipse_7_x5F_2" class="st9" cx="554.7999878" cy="128.3000031" r="1.5999899"/>
	</g>
	<g>
		<g>
			<rect x="540.5999756" y="202.6999969" class="st7" width="21.4000244" height="31.8000031"/>
			<path class="st8" d="M561.5,203.1999969V234h-20.4000244v-30.8000031H561.5 M562.5,202.1999969h-22.4000244V235H562.5
				V202.1999969L562.5,202.1999969z"/>
		</g>
		<g>
			<path class="st7" d="M551.2999878,225.3999939c-3.7999878,0-6.7999878-3.1000061-6.7999878-6.8000031
				s3.0999756-6.8000031,6.7999878-6.8000031c3.7999878,0,6.7999878,3.1000061,6.7999878,6.8000031
				S555.0999756,225.3999939,551.2999878,225.3999939z"/>
			<path class="st8" d="M551.2999878,212.3000031c3.5,0,6.2999878,2.8000031,6.2999878,6.3000031
				s-2.7999878,6.3000031-6.2999878,6.3000031S545,222.1000061,545,218.6000061S547.7999878,212.3000031,551.2999878,212.3000031
				 M551.2999878,211.3000031c-4,0-7.2999878,3.3000031-7.2999878,7.3000031s3.2999878,7.3000031,7.2999878,7.3000031
				s7.2999878-3.3000031,7.2999878-7.3000031S555.2999878,211.3000031,551.2999878,211.3000031L551.2999878,211.3000031z"/>
		</g>
	</g>
	<g id="Rectangle_27_2_">
		<rect x="411" y="75.5" class="st7" width="34.7000122" height="159"/>
		<path class="st8" d="M445.2000122,76v158H411.5V76H445.2000122 M446.2000122,75H410.5v160h35.7000122V75L446.2000122,75z"/>
	</g>
	<g id="Rectangle_28_x5F_3_7_">
		<rect x="411" y="75.5" class="st7" width="2.5" height="159"/>
		<path class="st8" d="M413,76v158h-1.5V76H413 M414,75h-3.5v160h3.5V75L414,75z"/>
	</g>
	<g>
		<line class="st11" x1="413.7000122" y1="75.5999985" x2="445.2999878" y2="234.1999969"/>
	</g>
	<g>
		<path class="st9" d="M207.1999969,161v23.3000031L186,187.4000092l0.1000061-29.6000061L207.1999969,161z"/>
		<g>
			<rect x="153.5" y="138.1999969" class="st7" width="35" height="71.0999908"/>
			<path class="st8" d="M188,138.6999969v70.0999908h-34v-70.1000061h34 M189,137.6999969h-36v72.0999908h36V137.6999969
				L189,137.6999969z"/>
		</g>
		<path class="st11" d="M178.1999969,164.8000031v18 M182.5,163.1999969v21.1999969h-6.3000031v-21.1999969H182.5z"/>
		<path class="st9" d="M182.8000031,154.5L182.8000031,154.5c0,0.8999939-0.6999969,1.6000061-1.6000061,1.6000061h-2.1000061
			c-0.8999939,0-1.6000061-0.6999969-1.6000061-1.6000061l0,0c0-0.8999939,0.6999969-1.6000061,1.6000061-1.6000061h2.1000061
			C182.1000061,152.8999939,182.8000031,153.6000061,182.8000031,154.5z"/>
		<path class="st9" d="M165.8999939,168.5c2.8999939,0,5.3000031,2.3999939,5.3000031,5.3000031
			c0,2.8999939-2.3999939,5.3000031-5.3000031,5.3000031h-5.3000031V168.5H165.8999939z"/>
		
			<rect x="134.1108246" y="172.7571411" transform="matrix(0.0016959 -0.9999986 0.9999986 0.0016959 -12.4701128 335.1230164)" class="st13" width="55.0000801" height="2.1000092"/>
		<g>
			<rect x="188.5" y="161" class="st7" width="19.3999939" height="23"/>
			<path class="st8" d="M207.5,161.5v22H189v-22H207.5 M208.5,160.5H188v24h20.3999939v-24H208.5z"/>
		</g>
		<g>
			<rect x="207.6999969" y="161" class="st7" width="2.1000061" height="23.1000061"/>
			<path class="st8" d="M209.3000031,161.5v22.1000061h-1.1000061V161.5H209.3000031 M210.3000031,160.5h-3.1000061v24.1000061
				h3.1000061V160.5L210.3000031,160.5z"/>
		</g>
	</g>
</g>
<g id="Numbers_1_">
	<g>
		<path class="st6" d="M282.2000122,312.5l1.8999939-1.6000061h0.7999878v6.7000122h-1v-5.2999878l-1.2000122,0.8999939
			L282.2000122,312.5z"/>
		<path class="st6" d="M285.8999939,311.7999878v-0.8999939h4.2000122v0.7000122l-2.5,6H286.5l2.5-5.7000122h-3.1000061V311.7999878
			z"/>
		<path class="st6" d="M290.7000122,317.6000061c-0.2000122,0-0.2999878-0.1000061-0.5-0.2000122
			c-0.1000061-0.1000061-0.2000122-0.2999878-0.2000122-0.5s0.1000061-0.2999878,0.2000122-0.3999939
			s0.2999878-0.2000122,0.5-0.2000122S291,316.3999939,291.1000061,316.5s0.2000122,0.2999878,0.2000122,0.3999939
			c0,0.2000122-0.1000061,0.2999878-0.2000122,0.5C291.1000061,317.6000061,290.8999939,317.6000061,290.7000122,317.6000061z"/>
		<path class="st6" d="M291.7999878,311.7999878v-0.8999939H296v0.7000122l-2.5,6h-1.1000061l2.5-5.7000122h-3.1000061V311.7999878z
			"/>
	</g>
	<g>
		<path class="st6" d="M362.2000122,149.8999939l1.8999939-1.6000061h0.7999878v6.6999969h-1v-5.3000031l-1.2000122,0.8999939
			L362.2000122,149.8999939z"/>
		<path class="st6" d="M368.8999939,150.6000061c0.6000061,0,1.1000061,0.1999969,1.5,0.6000061
			c0.3999939,0.3999939,0.6000061,0.8999939,0.6000061,1.5s-0.2000122,1.1999969-0.7000122,1.6000061
			c-0.3999939,0.3999939-1,0.6000061-1.7000122,0.6000061c-0.7999878,0-1.3999939-0.3000031-1.7999878-0.8999939
			c-0.3999939-0.6000061-0.6000061-1.3999939-0.6000061-2.3000031c0-0.6000061,0.1000061-1.1999969,0.2999878-1.8000031
			c0.2000122-0.5,0.5-1,0.8999939-1.3000031c0.3999939-0.3999939,1-0.5,1.6000061-0.5
			c0.7000122,0,1.2999878,0.1999969,1.7000122,0.6000061l-0.3999939,0.8000031
			c-0.3999939-0.3000031-0.7999878-0.3999939-1.2000122-0.3999939c-0.3999939,0-0.7000122,0.1000061-1,0.3999939
			c-0.5,0.5-0.7999878,1.1999969-0.7999878,2.1000061c0.1000061-0.3000031,0.3999939-0.5,0.7000122-0.6999969
			S368.5,150.6000061,368.8999939,150.6000061z M368.7000122,154.1000061c0.3999939,0,0.7000122-0.1000061,0.8999939-0.3999939
			C369.8000183,153.4000092,370,153.1000061,370,152.8000183c0-0.3999939-0.1000061-0.6999969-0.3999939-0.8999939
			c-0.2000122-0.1999969-0.5-0.3999939-0.8999939-0.3999939S368,151.6000366,367.8000183,151.9000244
			c-0.2000122,0.1999969-0.3999939,0.6000061-0.3999939,0.8999939c0,0.3999939,0.1000061,0.6999969,0.3999939,0.8999939
			C368,153.8999939,368.2999878,154.1000061,368.7000122,154.1000061z"/>
		<path class="st6" d="M372.3999939,155c-0.2000122,0-0.2999878-0.1000061-0.5-0.1999969s-0.2000122-0.3000031-0.2000122-0.5
			s0.1000061-0.3000031,0.2000122-0.3999939s0.2999878-0.1999969,0.5-0.1999969s0.2999878,0.1000061,0.3999939,0.1999969
			S373,154.2000122,373,154.3000031c0,0.1999969-0.1000061,0.3000031-0.2000122,0.5S372.6000061,155,372.3999939,155z"/>
		<path class="st6" d="M377.1000061,152.1999969L375.5,154h2.7000122v1H374v-1l2.1000061-2.3000031l0.5-0.6000061
			c0.1000061-0.1000061,0.2000122-0.3000031,0.2999878-0.5C377,150.3999939,377,150.1999969,377,149.9999847
			c0-0.3000031-0.1000061-0.5-0.2999878-0.6999969c-0.2000122-0.1999969-0.5-0.3000031-0.7999878-0.3000031
			c-0.5,0-1,0.1999969-1.6000061,0.6999969l-0.6000061-0.6999969c0.7000122-0.6000061,1.3999939-1,2.2000122-1
			c0.6000061,0,1.1000061,0.1999969,1.5,0.6000061c0.3999939,0.3999939,0.6000061,0.8999939,0.6000061,1.3999939
			C378.1000061,150.6999969,377.7000122,151.3999939,377.1000061,152.1999969z"/>
	</g>
	<g>
		<path class="st6" d="M520.2000122,262.2000122c0.5999756,0,1.0999756,0.2000122,1.5,0.6000061s0.5999756,0.8999939,0.5999756,1.5
			s-0.2000122,1.2000122-0.7000122,1.6000061c-0.4000244,0.3999939-1,0.6000061-1.7000122,0.6000061
			c-0.7999878,0-1.4000244-0.2999878-1.7999878-0.8999939C517.6999512,265.0000305,517.5,264.2000427,517.5,263.3000488
			c0-0.6000061,0.0999756-1.2000122,0.2999878-1.7999878c0.2000122-0.5,0.5-1,0.9000244-1.2999878
			c0.4000244-0.3999939,1-0.5,1.5999756-0.5c0.7000122,0,1.2999878,0.2000122,1.7000122,0.6000061l-0.4000244,0.7999878
			c-0.4000244-0.2999878-0.7999878-0.3999939-1.2000122-0.3999939s-0.7000122,0.1000061-1,0.3999939
			c-0.5,0.5-0.7999878,1.2000122-0.7999878,2.1000061c0.0999756-0.2999878,0.4000244-0.5,0.7000122-0.7000122
			S519.7999878,262.2000122,520.2000122,262.2000122z M520,265.7000122c0.4000244,0,0.7000122-0.1000061,0.9000244-0.3999939
			s0.4000244-0.6000061,0.4000244-0.8999939c0-0.3999939-0.0999756-0.7000122-0.4000244-0.8999939
			c-0.2000122-0.2000122-0.5-0.3999939-0.9000244-0.3999939s-0.7000122,0.1000061-0.9000244,0.3999939
			c-0.2000122,0.2000122-0.4000244,0.6000061-0.4000244,0.8999939c0,0.3999939,0.0999756,0.7000122,0.4000244,0.8999939
			C519.2999878,265.5,519.5999756,265.7000122,520,265.7000122z"/>
		<path class="st6" d="M523.7000122,266.6000061c-0.2000122,0-0.2999878-0.1000061-0.5-0.2000122S523,266.1000061,523,265.8999939
			s0.0999756-0.2999878,0.2000122-0.3999939s0.2999878-0.2000122,0.5-0.2000122S524,265.3999939,524.1000366,265.5
			s0.2000122,0.2999878,0.2000122,0.3999939c0,0.2000122-0.0999756,0.2999878-0.2000122,0.5
			S523.9000244,266.6000061,523.7000122,266.6000061z"/>
		<path class="st6" d="M528.2999878,263.7000122L526.7000122,265.5h2.7000122v1h-4.2000122v-0.8999939l2.0999756-2.2999878
			l0.5-0.6000061c0.0999756-0.1000061,0.2000122-0.2999878,0.2999878-0.5s0.0999756-0.3999939,0.0999756-0.6000061
			c0-0.2999878-0.0999756-0.5-0.2999878-0.7000122s-0.5-0.2999878-0.7999878-0.2999878c-0.5,0-1,0.2000122-1.5999756,0.7000122
			l-0.5999756-0.7000122c0.7000122-0.6000061,1.4000244-1,2.2000122-1c0.5999756,0,1.0999756,0.2000122,1.5,0.6000061
			s0.5999756,0.8999939,0.5999756,1.3999939C529.2999878,262.2999878,529,263,528.2999878,263.7000122z"/>
	</g>
	<g>
		<path class="st6" d="M490,150.3999939c0.6000061,0,1.2000122,0.1999969,1.6000061,0.6000061
			c0.3999939,0.3999939,0.6000061,0.8999939,0.6000061,1.6000061c0,0.6999969-0.2000122,1.1999969-0.7000122,1.6000061
			c-0.3999939,0.3999939-1,0.6000061-1.7000122,0.6000061c-0.7999878,0-1.5-0.3000031-2.2000122-0.8000031l0.5-0.8000031
			c0.6000061,0.3999939,1.1000061,0.6000061,1.7000122,0.6000061c0.3999939,0,0.7000122-0.1000061,1-0.3999939
			c0.2999878-0.1999969,0.3999939-0.5,0.3999939-0.8999939s-0.1000061-0.6999969-0.3999939-0.8999939
			c-0.2000122-0.1999969-0.6000061-0.3999939-1-0.3999939c-0.5,0-0.8999939,0.1999969-1.2000122,0.5l-0.6000061-0.3999939
			l0.3999939-3.3000031h3.3999939v0.8999939h-2.6000061l-0.2000122,1.6000061
			C489.2999878,150.3999939,489.7000122,150.3999939,490,150.3999939z"/>
		<path class="st6" d="M493.7000122,154.8000031c-0.2000122,0-0.2999878-0.1000061-0.5-0.1999969S493,154.3000031,493,154.1000061
			s0.1000061-0.3000031,0.2000122-0.3999939s0.2999878-0.1999969,0.5-0.1999969s0.2999878,0.1000061,0.3999939,0.1999969
			s0.2000122,0.3000031,0.2000122,0.3999939c0,0.1999969-0.1000061,0.3000031-0.2000122,0.5
			S493.8999939,154.8000031,493.7000122,154.8000031z"/>
		<path class="st6" d="M497.3999939,147.8999939c0.7999878,0,1.3999939,0.3000031,1.7999878,0.8999939
			c0.3999939,0.6000061,0.6000061,1.3999939,0.6000061,2.3000031c0,0.5-0.1000061,1-0.2000122,1.3999939
			s-0.2999878,0.8000031-0.5,1.1999969c-0.2000122,0.3000031-0.5,0.6000061-0.8999939,0.8000031
			s-0.7999878,0.3000031-1.2000122,0.3000031c-0.7000122,0-1.2999878-0.1999969-1.7999878-0.6000061l0.3999939-0.8000031
			c0.3999939,0.3000031,0.8999939,0.5,1.2999878,0.5c0.6000061,0,1-0.1999969,1.2999878-0.6999969s0.5-1,0.5-1.6999969
			c-0.2000122,0.3000031-0.3999939,0.5-0.7000122,0.6000061s-0.6000061,0.1999969-1,0.1999969
			c-0.6000061,0-1.1000061-0.1999969-1.5-0.6000061c-0.3999939-0.3999939-0.6000061-0.8999939-0.6000061-1.5
			s0.2000122-1.1999969,0.6000061-1.6000061C496.2000122,148.1000061,496.7999878,147.8999939,497.3999939,147.8999939z
			 M498.7000122,150.1000061c0-0.3999939-0.1000061-0.6999969-0.3999939-0.8999939
			c-0.2000122-0.3000031-0.5-0.3999939-0.8999939-0.3999939s-0.7000122,0.1000061-0.8999939,0.3999939
			c-0.2000122,0.3000031-0.3999939,0.6000061-0.3999939,0.8999939c0,0.3999939,0.1000061,0.6999969,0.3999939,0.8999939
			c0.2000122,0.1999969,0.5,0.3999939,0.8999939,0.3999939s0.7000122-0.1000061,0.8999939-0.3999939
			C498.6000061,150.8000031,498.7000122,150.5,498.7000122,150.1000061z"/>
	</g>
</g>
<g id="street_anchors" class="st14">
	<rect id="street_x5F_anchor_x5F_01" x="102.4394608" y="235" class="st15" width="10" height="10"/>
</g>
</svg>
