<?xml version="1.0" encoding="utf-8"?>
<!-- Generator: Adobe Illustrator 24.2.0, SVG Export Plug-In . SVG Version: 6.00 Build 0)  -->
<!DOCTYPE svg PUBLIC "-//W3C//DTD SVG 1.1//EN" "http://www.w3.org/Graphics/SVG/1.1/DTD/svg11.dtd" [
	<!ENTITY ns_extend "http://ns.adobe.com/Extensibility/1.0/">
	<!ENTITY ns_ai "http://ns.adobe.com/AdobeIllustrator/10.0/">
	<!ENTITY ns_graphs "http://ns.adobe.com/Graphs/1.0/">
	<!ENTITY ns_vars "http://ns.adobe.com/Variables/1.0/">
	<!ENTITY ns_imrep "http://ns.adobe.com/ImageReplacement/1.0/">
	<!ENTITY ns_sfw "http://ns.adobe.com/SaveForWeb/1.0/">
	<!ENTITY ns_custom "http://ns.adobe.com/GenericCustomNamespace/1.0/">
	<!ENTITY ns_adobe_xpath "http://ns.adobe.com/XPath/1.0/">
]>
<svg version="1.1" id="_x31__x5F_2" xmlns:x="&ns_extend;" xmlns:i="&ns_ai;" xmlns:graph="&ns_graphs;"
	 xmlns="http://www.w3.org/2000/svg" xmlns:xlink="http://www.w3.org/1999/xlink" x="0px" y="0px" viewBox="0 0 720 480"
	 style="enable-background:new 0 0 720 480;" xml:space="preserve">
<style type="text/css">
	.st0{fill:#DBD4CA;}
	.st1{clip-path:url(#SVGID_2_);}
	.st2{fill:none;stroke:#C49F8A;stroke-miterlimit:10;}
	.st3{opacity:0.3;clip-path:url(#SVGID_2_);}
	.st4{opacity:0.7;fill:#C49F8A;}
	.st5{clip-path:url(#SVGID_4_);}
	.st6{opacity:0.3;clip-path:url(#SVGID_4_);}
	.st7{fill:none;stroke:#565440;}
	.st8{fill:none;stroke:#565440;stroke-width:1.0000414;stroke-miterlimit:4.0001655;}
	.st9{fill:#565440;}
	.st10{fill:#E9E4DC;}
	.st11{fill:#C49F8A;}
	.st12{fill:#E9E4DC;stroke:#C49F8A;}
	.st13{fill:#E9E4DC;stroke:#C49F8A;stroke-miterlimit:3.9998;}
	.st14{fill:none;stroke:#C49F8A;}
	.st15{fill:#E9E4DC;stroke:#C49F8A;stroke-linejoin:round;}
	.st16{opacity:0;}
	.st17{fill:none;}
</style>
<metadata>
	<sfw  xmlns="&ns_sfw;">
		<slices></slices>
		<sliceSourceBounds  bottomLeftOrigin="true" height="829.3596191" width="693.4343262" x="31.4360237" y="-65.1581802">
			</sliceSourceBounds>
	</sfw>
</metadata>
<path id="Floor" class="st0" d="M234.8000031,407.2000122V221h63.9999847V60.2999992h174.5v7.7999992L480.8999939,70
	l-11.2999878,44.5v27.1999969l11,2.8000031l-10.55896,40.1077118l1.05896,37.6922913l8.7151489,3.8772125l-9.1074219,35.0499573
	l-0.8077393,30.8728333h4l6.4023132,3.0113525l-9.6023254,38.4886475v33.2000122h3.2999878l5.7755432,1.8334961l-9.7755432,44.26651
	l-46.5643921-9.3601379l-26.8356018,0.3601379v5.8999939l-1.2000122,5.1000061l-58.6000061-13.3999939h-31.8999939v4.7000122
	l-1.7000122,6.7000122l-49.6000061-11.1000061c0,0,0.1999969,5.1000061,0,5.1000061
	C253.3999939,406.8999939,234.8000031,407.2000122,234.8000031,407.2000122z"/>
<g id="Wet_Floor">
	<g id="Wet_Floor_1_">
		<defs>
			<rect id="SVGID_1_" x="242.0552216" y="224.0727539" width="111.567894" height="58.6430664"/>
		</defs>
		<clipPath id="SVGID_2_">
			<use xlink:href="#SVGID_1_"  style="overflow:visible;"/>
		</clipPath>
		<g class="st1">
			<g>
				<line class="st2" x1="42.2109261" y1="221.7428284" x2="375.6941223" y2="-111.7403717"/>
				<line class="st2" x1="31.7895775" y1="211.3214722" x2="365.2727661" y2="-122.1617203"/>
				<line class="st2" x1="52.6322746" y1="232.1641693" x2="386.1154785" y2="-101.3190231"/>
				<line class="st2" x1="63.0536232" y1="242.5855255" x2="396.5368347" y2="-90.8976746"/>
				<line class="st2" x1="73.474968" y1="253.0068665" x2="406.9581604" y2="-80.476326"/>
				<line class="st2" x1="83.8963165" y1="263.4282227" x2="417.3795166" y2="-70.0549774"/>
				<line class="st2" x1="94.3176651" y1="273.8495789" x2="427.8008728" y2="-59.6336288"/>
				<line class="st2" x1="104.7390137" y1="284.2709045" x2="438.222229" y2="-49.2122803"/>
				<line class="st2" x1="115.1603622" y1="294.6922607" x2="448.6435547" y2="-38.7909317"/>
				<line class="st2" x1="125.5817108" y1="305.1136169" x2="459.0649109" y2="-28.369585"/>
				<line class="st2" x1="115.1603622" y1="294.6922607" x2="448.6435547" y2="-38.7909317"/>
				<line class="st2" x1="136.003067" y1="315.5349731" x2="469.4862671" y2="-17.9482365"/>
				<line class="st2" x1="146.424408" y1="325.9562988" x2="479.9075928" y2="-7.5268879"/>
				<line class="st2" x1="156.8457642" y1="336.377655" x2="490.328949" y2="2.8944607"/>
				<line class="st2" x1="167.2671051" y1="346.7990112" x2="500.7503052" y2="13.3158092"/>
				<line class="st2" x1="177.6884613" y1="357.2203674" x2="511.1716614" y2="23.7371578"/>
				<line class="st2" x1="188.1098022" y1="367.6416931" x2="521.5930176" y2="34.1585045"/>
				<line class="st2" x1="198.5311584" y1="378.0630493" x2="532.0143433" y2="44.5798531"/>
				<line class="st2" x1="208.9524994" y1="388.4844055" x2="542.4356689" y2="55.0012016"/>
				<line class="st2" x1="198.5311584" y1="378.0630493" x2="532.0143433" y2="44.5798531"/>
				<line class="st2" x1="219.3738556" y1="398.9057617" x2="552.8570557" y2="65.422554"/>
				<line class="st2" x1="229.7951965" y1="409.3270874" x2="563.2783813" y2="75.8439026"/>
				<line class="st2" x1="240.2165527" y1="419.7484436" x2="573.6997681" y2="86.2652512"/>
				<line class="st2" x1="250.6378937" y1="430.1697998" x2="584.1210938" y2="96.6865997"/>
				<line class="st2" x1="261.0592346" y1="440.591156" x2="594.5424194" y2="107.1079407"/>
				<line class="st2" x1="271.4805908" y1="451.0124817" x2="604.9638062" y2="117.5292892"/>
				<line class="st2" x1="281.901947" y1="461.4338379" x2="615.3851318" y2="127.9506378"/>
				<line class="st2" x1="292.3232727" y1="471.8551941" x2="625.8064575" y2="138.371994"/>
				<line class="st2" x1="281.901947" y1="461.4338379" x2="615.3851318" y2="127.9506378"/>
				<line class="st2" x1="302.7446289" y1="482.2765503" x2="636.2278442" y2="148.793335"/>
				<line class="st2" x1="313.1659851" y1="492.697876" x2="646.6491699" y2="159.2146912"/>
				<line class="st2" x1="323.5873413" y1="503.1192322" x2="657.0705566" y2="169.6360321"/>
				<line class="st2" x1="334.008667" y1="513.5405884" x2="667.4918823" y2="180.0573883"/>
				<line class="st2" x1="344.4300232" y1="523.9619141" x2="677.913208" y2="190.4787292"/>
				<line class="st2" x1="354.8513794" y1="534.3833008" x2="688.3345947" y2="200.9000854"/>
				<line class="st2" x1="365.2727356" y1="544.8046265" x2="698.7559204" y2="211.3214264"/>
			</g>
			<g>
				<line class="st2" x1="375.6940308" y1="534.3831177" x2="42.210968" y2="200.9000702"/>
				<line class="st2" x1="365.2726746" y1="544.8044434" x2="31.7896194" y2="211.3214264"/>
				<line class="st2" x1="386.1153564" y1="523.961792" x2="52.6323166" y2="190.4787292"/>
				<line class="st2" x1="396.5367126" y1="513.5404053" x2="63.0536652" y2="180.057373"/>
				<line class="st2" x1="406.9580688" y1="503.1190796" x2="73.4750137" y2="169.6360321"/>
				<line class="st2" x1="417.379425" y1="492.6977234" x2="83.8963623" y2="159.2146759"/>
				<line class="st2" x1="427.8007507" y1="482.2763977" x2="94.3177109" y2="148.793335"/>
				<line class="st2" x1="438.2221069" y1="471.8550415" x2="104.7390594" y2="138.3719788"/>
				<line class="st2" x1="448.6434631" y1="461.4336853" x2="115.160408" y2="127.9506302"/>
				<line class="st2" x1="459.0648193" y1="451.0123291" x2="125.5817566" y2="117.5292816"/>
				<line class="st2" x1="448.6434631" y1="461.4336853" x2="115.160408" y2="127.9506302"/>
				<line class="st2" x1="469.486145" y1="440.5910034" x2="136.0030975" y2="107.1079407"/>
				<line class="st2" x1="479.9075012" y1="430.1696472" x2="146.4244537" y2="96.6865921"/>
				<line class="st2" x1="490.3288574" y1="419.748291" x2="156.8457947" y2="86.2652435"/>
				<line class="st2" x1="500.7502136" y1="409.3269348" x2="167.2671509" y2="75.843895"/>
				<line class="st2" x1="511.1715393" y1="398.9056091" x2="177.6884918" y2="65.4225464"/>
				<line class="st2" x1="521.5928955" y1="388.4842529" x2="188.109848" y2="55.001194"/>
				<line class="st2" x1="532.0142212" y1="378.0628967" x2="198.531189" y2="44.5798454"/>
				<line class="st2" x1="542.4356079" y1="367.6415405" x2="208.9525452" y2="34.1584969"/>
				<line class="st2" x1="532.0142212" y1="378.0628967" x2="198.531189" y2="44.5798454"/>
				<line class="st2" x1="552.8569336" y1="357.2202148" x2="219.3738861" y2="23.7371502"/>
				<line class="st2" x1="563.2783203" y1="346.7988586" x2="229.7952423" y2="13.3158016"/>
				<line class="st2" x1="573.699646" y1="336.3775024" x2="240.2165833" y2="2.8944533"/>
				<line class="st2" x1="584.1209717" y1="325.9561462" x2="250.6379395" y2="-7.526895"/>
				<line class="st2" x1="594.5423584" y1="315.5348206" x2="261.0592957" y2="-17.9482441"/>
				<line class="st2" x1="604.9636841" y1="305.1134644" x2="271.4806213" y2="-28.3695927"/>
				<line class="st2" x1="615.3850098" y1="294.6921082" x2="281.9019775" y2="-38.7909393"/>
				<line class="st2" x1="625.8063965" y1="284.270752" x2="292.3233337" y2="-49.2122879"/>
				<line class="st2" x1="615.3850098" y1="294.6921082" x2="281.9019775" y2="-38.7909393"/>
				<line class="st2" x1="636.2277222" y1="273.8494263" x2="302.7446899" y2="-59.6336365"/>
				<line class="st2" x1="646.6491089" y1="263.4280701" x2="313.1660156" y2="-70.054985"/>
				<line class="st2" x1="657.0704346" y1="253.0067139" x2="323.5873718" y2="-80.4763336"/>
				<line class="st2" x1="667.4917603" y1="242.5853729" x2="334.008728" y2="-90.8976822"/>
				<line class="st2" x1="677.913147" y1="232.1640167" x2="344.4300842" y2="-101.3190308"/>
				<line class="st2" x1="688.3344727" y1="221.7426758" x2="354.8514099" y2="-111.7403793"/>
				<line class="st2" x1="698.7557983" y1="211.3213196" x2="365.2727661" y2="-122.1617279"/>
			</g>
		</g>
		<g class="st3">
			<rect x="204.1932526" y="39.8205605" class="st4" width="322.1589355" height="322.1589355"/>
		</g>
	</g>
	<g id="Wet_Floor_2_">
		<defs>
			<rect id="SVGID_3_" x="302.0184021" y="65.9570541" width="51.60812" height="53.6637344"/>
		</defs>
		<clipPath id="SVGID_4_">
			<use xlink:href="#SVGID_3_"  style="overflow:visible;"/>
		</clipPath>
		<g class="st5">
			<g>
				<line class="st2" x1="67.9717712" y1="60.0566826" x2="401.4549561" y2="-273.4265137"/>
				<line class="st2" x1="57.5504227" y1="49.635334" x2="391.0336304" y2="-283.8478699"/>
				<line class="st2" x1="78.3931198" y1="70.478035" x2="411.8763123" y2="-263.0051575"/>
				<line class="st2" x1="88.8144684" y1="80.8993835" x2="422.2976685" y2="-252.5838165"/>
				<line class="st2" x1="99.235817" y1="91.3207321" x2="432.7190247" y2="-242.1624756"/>
				<line class="st2" x1="109.6571655" y1="101.7420807" x2="443.1403503" y2="-231.7411194"/>
				<line class="st2" x1="120.0785141" y1="112.1634293" x2="453.5617065" y2="-221.3197784"/>
				<line class="st2" x1="130.4998627" y1="122.5847778" x2="463.9830627" y2="-210.8984222"/>
				<line class="st2" x1="140.9212036" y1="133.0061188" x2="474.4044189" y2="-200.4770813"/>
				<line class="st2" x1="151.3425598" y1="143.427475" x2="484.8257446" y2="-190.0557251"/>
				<line class="st2" x1="140.9212036" y1="133.0061188" x2="474.4044189" y2="-200.4770813"/>
				<line class="st2" x1="161.7639008" y1="153.8488159" x2="495.2471008" y2="-179.6343842"/>
				<line class="st2" x1="172.185257" y1="164.2701721" x2="505.668457" y2="-169.213028"/>
				<line class="st2" x1="182.6065979" y1="174.6915131" x2="516.0897827" y2="-158.791687"/>
				<line class="st2" x1="193.0279541" y1="185.1128693" x2="526.5111694" y2="-148.3703308"/>
				<line class="st2" x1="203.449295" y1="195.5342102" x2="536.9324951" y2="-137.9489899"/>
				<line class="st2" x1="213.8706512" y1="205.9555664" x2="547.3538208" y2="-127.5276337"/>
				<line class="st2" x1="224.2919922" y1="216.3769073" x2="557.7752075" y2="-117.1062851"/>
				<line class="st2" x1="234.7133484" y1="226.7982635" x2="568.1965332" y2="-106.6849365"/>
				<line class="st2" x1="224.2919922" y1="216.3769073" x2="557.7752075" y2="-117.1062851"/>
				<line class="st2" x1="245.1346893" y1="237.2196045" x2="578.6179199" y2="-96.263588"/>
				<line class="st2" x1="255.5560455" y1="247.6409607" x2="589.0392456" y2="-85.8422394"/>
				<line class="st2" x1="265.9773865" y1="258.0623169" x2="599.4605713" y2="-75.4208984"/>
				<line class="st2" x1="276.3987427" y1="268.4836426" x2="609.881958" y2="-64.9995499"/>
				<line class="st2" x1="286.8200989" y1="278.9049988" x2="620.3032837" y2="-54.5781975"/>
				<line class="st2" x1="297.2414246" y1="289.326355" x2="630.7246094" y2="-44.1568489"/>
				<line class="st2" x1="307.6627808" y1="299.7477112" x2="641.1459961" y2="-33.7355003"/>
				<line class="st2" x1="318.084137" y1="310.1690369" x2="651.5673218" y2="-23.3141537"/>
				<line class="st2" x1="307.6627808" y1="299.7477112" x2="641.1459961" y2="-33.7355003"/>
				<line class="st2" x1="328.5054932" y1="320.5903931" x2="661.9887085" y2="-12.8928041"/>
				<line class="st2" x1="338.9268188" y1="331.0117493" x2="672.4100342" y2="-2.4714563"/>
				<line class="st2" x1="349.348175" y1="341.433075" x2="682.8313599" y2="7.949892"/>
				<line class="st2" x1="359.7695313" y1="351.8544312" x2="693.2527466" y2="18.3712406"/>
				<line class="st2" x1="370.1908875" y1="362.2757874" x2="703.6740723" y2="28.7925892"/>
				<line class="st2" x1="380.6122131" y1="372.6971436" x2="714.0953979" y2="39.2139359"/>
				<line class="st2" x1="391.0335693" y1="383.1184692" x2="724.5167847" y2="49.6352844"/>
			</g>
			<g>
				<line class="st2" x1="401.4548645" y1="372.696991" x2="67.971817" y2="39.2139282"/>
				<line class="st2" x1="391.0335083" y1="383.1183167" x2="57.5504646" y2="49.6352768"/>
				<line class="st2" x1="411.8762207" y1="362.2756348" x2="78.3931656" y2="28.7925816"/>
				<line class="st2" x1="422.2975769" y1="351.8542786" x2="88.8145065" y2="18.371233"/>
				<line class="st2" x1="432.7189026" y1="341.4329224" x2="99.2358551" y2="7.9498849"/>
				<line class="st2" x1="443.1402588" y1="331.0115967" x2="109.6572037" y2="-2.4714634"/>
				<line class="st2" x1="453.561615" y1="320.5902405" x2="120.0785522" y2="-12.8928118"/>
				<line class="st2" x1="463.9829407" y1="310.1688843" x2="130.4999084" y2="-23.3141594"/>
				<line class="st2" x1="474.4042969" y1="299.7475586" x2="140.9212494" y2="-33.735508"/>
				<line class="st2" x1="484.8256531" y1="289.3262024" x2="151.3426056" y2="-44.1568565"/>
				<line class="st2" x1="474.4042969" y1="299.7475586" x2="140.9212494" y2="-33.735508"/>
				<line class="st2" x1="495.2470093" y1="278.9048462" x2="161.7639465" y2="-54.5782051"/>
				<line class="st2" x1="505.668335" y1="268.48349" x2="172.1853027" y2="-64.9995575"/>
				<line class="st2" x1="516.0897217" y1="258.0621643" x2="182.6066437" y2="-75.4208984"/>
				<line class="st2" x1="526.5110474" y1="247.6408081" x2="193.0279999" y2="-85.842247"/>
				<line class="st2" x1="536.932373" y1="237.2194519" x2="203.4493408" y2="-96.2635956"/>
				<line class="st2" x1="547.3537598" y1="226.798111" x2="213.870697" y2="-106.6849442"/>
				<line class="st2" x1="557.7750854" y1="216.3767548" x2="224.292038" y2="-117.1062927"/>
				<line class="st2" x1="568.1964111" y1="205.9554138" x2="234.7133942" y2="-127.5276413"/>
				<line class="st2" x1="557.7750854" y1="216.3767548" x2="224.292038" y2="-117.1062927"/>
				<line class="st2" x1="578.6177979" y1="195.5340576" x2="245.1347351" y2="-137.9489899"/>
				<line class="st2" x1="589.0391235" y1="185.1127167" x2="255.5560913" y2="-148.3703461"/>
				<line class="st2" x1="599.4605103" y1="174.6913605" x2="265.9774475" y2="-158.791687"/>
				<line class="st2" x1="609.8818359" y1="164.2700195" x2="276.3987732" y2="-169.2130432"/>
				<line class="st2" x1="620.3031616" y1="153.8486633" x2="286.8201294" y2="-179.6343842"/>
				<line class="st2" x1="630.7245483" y1="143.4273224" x2="297.2414856" y2="-190.0557404"/>
				<line class="st2" x1="641.145874" y1="133.0059662" x2="307.6628113" y2="-200.4770813"/>
				<line class="st2" x1="651.5671997" y1="122.5846176" x2="318.0841675" y2="-210.8984375"/>
				<line class="st2" x1="641.145874" y1="133.0059662" x2="307.6628113" y2="-200.4770813"/>
				<line class="st2" x1="661.9885864" y1="112.163269" x2="328.5055237" y2="-221.3197784"/>
				<line class="st2" x1="672.4099121" y1="101.7419205" x2="338.9268799" y2="-231.7411346"/>
				<line class="st2" x1="682.8312988" y1="91.3205795" x2="349.3482056" y2="-242.1624756"/>
				<line class="st2" x1="693.2526245" y1="80.899231" x2="359.7695618" y2="-252.5838318"/>
				<line class="st2" x1="703.6739502" y1="70.4778824" x2="370.190918" y2="-263.005188"/>
				<line class="st2" x1="714.0953369" y1="60.05653" x2="380.6122742" y2="-273.4265137"/>
				<line class="st2" x1="724.5166626" y1="49.6351814" x2="391.0335999" y2="-283.8478699"/>
			</g>
		</g>
		<g class="st6">
			<rect x="229.9541016" y="-121.8655777" class="st4" width="322.1589355" height="322.1589355"/>
		</g>
	</g>
</g>
<g id="Doors">
	<path class="st7" d="M343.3437805,329.5432434c0,2.741272-0.4568176,4.7969666-1.3706055,7.0813599
		c-0.9138184,2.2841797-2.2844849,4.5684509-4.1116638,6.1675415c-1.5990906,1.8273926-3.8833618,3.4263-6.1675415,4.3401489
		c-2.2841797,0.9136047-4.796936,1.3706055-7.538147,1.3706055v-19.1877136"/>
	<path class="st7" d="M380.1204834,324.7463074c2.7412415,0,4.796936-0.4567871,7.3096313-1.3706055
		c2.5126953-0.9135742,4.5684509-2.5126953,6.3958435-4.1116333c1.8273926-1.5991211,3.4262695-3.8833618,4.3401489-6.3958435
		c0.9137878-2.5126953,1.3706055-4.7969666,1.3706055-7.5379333h-19.4162292"/>
	<path class="st7" d="M380.1204834,251.4212494c2.7412415,0,4.796936-0.4567871,7.3096313-1.3705902
		c2.5126953-0.9135895,4.5684509-2.5126953,6.3958435-4.1116486c1.8273926-1.5989685,3.4262695-3.8830872,4.3401489-6.3958435
		c0.9137878-2.5126953,1.3706055-4.7969513,1.3706055-7.5379333h-19.4162292"/>
	<path class="st7" d="M318.445282,322.0050354c-2.741272,0-4.796936-0.4570007-7.3096313-1.370575
		c-2.5126953-0.9138184-4.5684509-2.5126953-6.3958435-4.1116638c-1.8273926-1.5990906-3.4262695-3.8833618-4.3401489-6.3958435
		c-0.9138184-2.5126953-1.3706055-4.796936-1.3706055-7.538147h19.4162292"/>
	<path class="st7" d="M351.3387146,254.6193237c-2.5126953,0-4.7969666,0.4567871-7.0811462,1.3705902
		s-4.5686646,2.2841949-6.1675415,4.1116486c-1.8273926,1.5990906-3.4263,3.8833618-4.3401489,6.1675415
		c-0.9138184,2.2842102-1.3706055,4.7969666-1.3706055,7.3096619h18.9594421"/>
	<path class="st7" d="M266.1356506,283.8578796c0,2.2841797,0.4570007,4.5686646,1.370575,6.6243286
		c0.9138184,2.0559082,2.0559082,4.3401794,3.8833618,5.9390564c1.5990906,1.5990906,3.6548462,2.9694824,5.7107544,3.8833618
		c2.0559082,0.9137878,4.5684509,1.3706055,6.8528442,1.3706055v-17.8173523"/>
	<path class="st7" d="M329.8665161,117.3353119c0-2.5127258,0.4567871-4.3401184,1.370575-6.6243439
		c0.9138184-2.2842178,2.2844849-4.1116104,3.6548767-5.7107468c1.5990906-1.8274307,3.4262695-3.1980286,5.7107544-3.8833237
		c2.2841797-0.9135895,4.3401489-1.370636,6.8528442-1.370636v17.5888062"/>
	<path class="st7" d="M298.8007507,132.8682251c-3.1980591,0-6.395813,0.6852875-9.3656006,2.0559235
		c-2.9694824,1.370636-5.9390259,2.9695282-8.2234497,5.482254c-2.2841797,2.2842255-4.3401489,5.0254517-5.4822388,7.9949646
		c-1.3706055,2.9695282-2.0558777,6.3960571-2.0558777,9.5938721h25.1269531"/>
	<path class="st7" d="M351.3387146,192.9440613c-2.2842102,0-4.3401489,0.4568024-6.6243591,1.3705902
		c-2.0558777,0.9136047-4.3401489,2.0559082-5.7107544,3.8833618c-1.5990906,1.5988922-2.9694824,3.4262848-3.8833618,5.7105408
		c-0.9135742,2.0558929-1.370575,4.3401642-1.370575,6.6243439h17.5888367"/>
</g>
<g id="Windows">
	<path class="st7" d="M264.5367432,404.0103455l35.6343994,8.2232056l-0.6853027,3.4263l-35.6343994-8.2234497
		L264.5367432,404.0103455z"/>
	<path class="st7" d="M336.7194214,401.2691345l57.7919006,13.2486877l-0.6853027,3.4262695l-57.7919006-13.2486572
		L336.7194214,401.2691345z"/>
	<polygon class="st7" points="482.684082,371.5737 479.2575989,370.8883972 469.8922119,412.6903687 414.8413391,401.7259216 
		414.384552,405.1524353 472.6332397,416.8022156 472.8617554,415.203125 	"/>
	
		<rect x="456.3022461" y="163.4211731" transform="matrix(0.2514896 -0.96786 0.96786 0.2514896 197.1169434 585.1456909)" class="st8" width="41.1340027" height="3.4216156"/>
	
		<rect x="456.30896" y="313.3901672" transform="matrix(0.2514896 -0.96786 0.96786 0.2514896 51.9728355 697.4053955)" class="st8" width="41.133728" height="3.4216614"/>
	
		<rect x="456.3052368" y="242.5949402" transform="matrix(0.2514896 -0.96786 0.96786 0.2514896 120.4900436 644.4109497)" class="st8" width="41.1340027" height="3.4216461"/>
	
		<rect x="458.6077271" y="89.9973373" transform="matrix(0.2514896 -0.96786 0.96786 0.2514896 268.5387268 530.6497803)" class="st8" width="37.4790039" height="3.4216156"/>
</g>
<g id="Walls">
	<polygon class="st9" points="320.2728882,329.7714844 324.2415771,329.7714844 324.2415771,327.4873047 320.2728882,327.4873047 
		320.2728882,322.0050659 317.9884644,322.0050659 317.9884644,395.5584106 301.0849609,395.5584106 301.0849609,404.9239502 
		298.5722656,416.1166992 305.1965942,417.7158203 307.0938721,409.2640991 337.6332397,409.2640991 337.6332397,395.5584106 
		320.2728882,395.5584106 	"/>
	<polygon class="st9" points="397.0239868,327.4873047 380.1204834,327.4873047 380.1204834,324.7463379 377.8363037,324.7463379 
		377.8363037,327.4873047 343.34375,327.4873047 343.34375,329.7714844 394.7398071,329.7714844 394.7398071,409.2434082 
		392.6838379,418.401123 399.3084717,420 401.7183838,409.2640991 429.0038452,409.2640991 429.0038452,395.5584106 
		397.0239868,395.5584106 	"/>
	<path class="st9" d="M283.9530029,282.2589722v2.2843018h34.0354614v18.2740479h2.2844238v-18.2740479h31.0657959v13.7054443
		h2.2844238v-24.6699829h-2.2844238v8.6802368h-56.192749v-47.05896h16.1540527v-8.4486694h40.0386963v27.867981h2.2844238
		v-44.0862427h-2.2844238v13.934021H312.5v-10.3671265l-6.8466187-0.0294189v-25.0095825h45.6853027v3.8830566h2.2844238v-3.8830566
		v-2.2841797v-32.2081299h-2.2844238v32.2081299h-45.6853027v-29.0101318h-6.8526001v62.1318359h-63.9594727v189.5940552h23.5609131
		l5.6777344,1.3704224l2.5126953-11.1928101l-6.6243286-1.598877h-13.7056885V284.5432739h19.8729858v-2.2843018h-12.9356079V274
		h-6.9373779v-47.2486572h46.5990601v55.5076294H283.9530029z M250.9000244,276.2999878v5.9589844h-4.6373901v-5.9589844
		H250.9000244z M310.1000366,216.3999634v8.0671387h-4.4466553v-8.0671387H310.1000366z M308.9000244,226.7513428v6.1486206
		h-13.7540894v-6.1486206H308.9000244z"/>
	<path class="st9" d="M305.6533813,119.6195068h24.2131348v-2.2844238h-24.2131348V66.8528442h36.0466309V73h9.6386719v44.335083
		h-3.8831177v2.2844238h6.1675415V66.8528442h107.3306885l-0.0020752,5.4383545h11.4001465l11.1929932,2.5124512
		l1.5990601-6.6240845l-10.5076904-2.3591309L474.6212769,60H298.8007813v73.0964966h6.8526001V119.6195068z
		 M351.3386841,70.7000122H344v-3.847168h7.3386841V70.7000122z"/>
	<polygon class="st9" points="460.949646,219.6704102 377.8363037,219.6704102 377.8363037,232.0050049 380.1204834,232.0050049 
		380.1204834,226.5230713 477.8814697,226.5195923 483.5512085,227.8927612 483.5521851,227.8883667 483.5595093,227.8901978 
		485.1586914,221.2658691 478.5343628,219.666748 474.6912231,219.666748 474.6912231,183.1246948 474.6362305,183.1246948 
		474.6362305,183.1212158 460.9517212,183.1212158 	"/>
	<polygon class="st9" points="474.6362305,332.3419189 460.930542,332.3419189 460.930542,370.7982788 473.369812,370.7982788 
		483.5448608,373.0825195 485.1439209,366.4578857 474.6362305,364.0991821 	"/>
	<polygon class="st9" points="474.6362305,264.637085 476.006897,258.9589844 464.8139038,256.4459839 463.2681274,263.0706177 
		463.2147217,263.0706177 463.2147217,300.5331421 380.1204834,300.5331421 380.1204834,251.4210205 377.8363037,251.4210205 
		377.8363037,305.3300781 380.1204834,305.3300781 380.1204834,302.8173218 470.067688,302.8173218 470.067688,296.286377 
		473.369812,296.286377 483.5448608,298.5705566 485.1439209,291.946228 474.6362305,289.5872803 	"/>
	<polygon class="st9" points="476.3928223,109.3845215 465.2593994,106.871582 463.2034912,115.552063 463.2034912,146.5633545 
		474.5654297,146.5633545 474.5654297,146.5447388 482.7890015,148.3907471 484.3878784,141.7664185 474.5654297,139.5615234 
		474.5654297,117.3033447 	"/>
</g>
<g id="Furniture_3_">
	<g>
		<g>
			<rect x="380.6000061" y="270.1656494" class="st10" width="47.8999939" height="29.8999939"/>
			<path class="st11" d="M381.1000061,270.6656494H428v28.8999939h-46.8999939V270.6656494 M380.1000061,269.6656494v30.8999939H429
				v-30.8999939H380.1000061L380.1000061,269.6656494z"/>
		</g>
		<rect x="383.6000061" y="272.2656555" class="st12" width="12.1000061" height="12.1000061"/>
		<rect x="383.6000061" y="285.8656616" class="st12" width="12.1000061" height="12.1000061"/>
		<polygon class="st13" points="390.7000122,273.7656555 387.6000061,282.4656372 399.2999878,284.8656616 402.3999939,276.0656433 
					"/>
		<polygon class="st13" points="399.2999878,285.4656372 387.6000061,287.7656555 390.7999878,296.5656433 402.3999939,294.1656494 
					"/>
		<g>
			<polygon class="st10" points="390.7999878,300.0656433 389.7999878,288.2656555 393.2999878,270.1656494 
				428.8999939,270.1656494 428.8999939,300.0656433 			"/>
			<path class="st11" d="M428.3999939,270.6656494v28.8999939h-37.2000122l-0.8999939-11.2999878l3.3999939-17.6000061H428.3999939
				 M429.3999939,269.6656494h-36.2999878h-0.2999878l-3.6000061,18.6000061l1,12.3999939H391h38.2999878v-31H429.3999939z"/>
		</g>
		<polyline class="st14" points="391.6000061,300.1656494 391.6000061,288.0656433 393.6000061,269.9656372 		"/>
	</g>
	<g>
		<g>
			<rect x="246.6999969" y="350.3999939" class="st10" width="43.1999969" height="35.8999939"/>
			<path class="st11" d="M247.1999969,350.8999939h42.1999969v34.8999939h-42.1999969V350.8999939 M246.1999969,349.8999939
				v36.8999939h44.1999969v-36.8999939H246.1999969L246.1999969,349.8999939z"/>
		</g>
		<rect x="249.3999939" y="353.1000061" class="st12" width="10.8999939" height="14.3999939"/>
		<rect x="249.3999939" y="369.2999878" class="st12" width="10.8999939" height="14.3999939"/>
		<polygon class="st13" points="255.8999939,354.8999939 253,365.2999878 263.6000061,368.1000061 266.3999939,357.7000122 		"/>
		<polygon class="st13" points="263.6000061,368.7999878 253,371.6000061 255.8999939,382 266.3999939,379.2000122 		"/>
		<g>
			<polygon class="st10" points="256,386.2999878 255.1000061,372.1000061 258.2999878,350.5 290.3999939,350.5 
				290.3999939,386.2999878 			"/>
			<path class="st11" d="M258.7000122,351h31.2000122v34.8999939h-33.5l-0.8999939-13.7000122L258.7000122,351 M258.1000061,350
				h-0.2000122l-3.3000031,22.1000061l0.8999939,14.7999878h0.6999969h34.7000122V350H258.1000061L258.1000061,350z"/>
		</g>
		<polyline class="st14" points="256.6000061,386.2999878 256.6000061,371.8999939 258.3999939,350.3999939 		"/>
	</g>
	<g>
		<g>
			<rect x="359.3999939" y="330.2000122" class="st10" width="29.8999939" height="47.8999939"/>
			<path class="st11" d="M388.7999878,330.7000122v46.8999939h-28.8999939v-46.8999939H388.7999878 M389.7999878,329.7000122
				h-30.8999939v48.8999939h30.8999939V329.7000122L389.7999878,329.7000122z"/>
		</g>
		<rect x="361.5" y="333.2000122" class="st12" width="12.1000061" height="12.1000061"/>
		<rect x="375.1000061" y="333.2000122" class="st12" width="12.1000061" height="12.1000061"/>
		<polygon class="st13" points="363,340.2999878 371.7000122,337.2000122 374.1000061,348.8999939 365.2999878,352 		"/>
		<polygon class="st13" points="374.7000122,348.8999939 377,337.2000122 385.7999878,340.2999878 383.3999939,352 		"/>
		<g>
			<polygon class="st10" points="359.3999939,378.5 359.3999939,342.8999939 377.5,339.3999939 389.2999878,340.3999939 
				389.2999878,378.5 			"/>
			<path class="st11" d="M377.5,339.8999939l11.2999878,0.8999939V378h-28.8999939v-34.7000122L377.5,339.8999939
				 M377.3999939,338.8999939L358.7999878,342.5v0.2999878V379h30.8999939v-38.2999878v-0.7999878L377.3999939,338.8999939
				L377.3999939,338.8999939z"/>
		</g>
		<polyline class="st14" points="389.3999939,341.2000122 377.2999878,341.2000122 359.2000122,343.2000122 		"/>
	</g>
	<g>
		<g>
			<rect x="397.5" y="347.1828308" class="st10" width="31" height="47.8999939"/>
			<path class="st11" d="M428,347.6828308v46.8999939h-30v-46.8999939H428 M429,346.6828308h-32v48.8999939h32V346.6828308
				L429,346.6828308z"/>
		</g>
		<rect x="399.7000122" y="379.9828186" class="st12" width="12.5" height="12.1000061"/>
		<rect x="413.7999878" y="379.9828186" class="st12" width="12.5" height="12.1000061"/>
		<polygon class="st13" points="401.2999878,384.8828125 410.2999878,388.0828247 412.7000122,376.3828125 403.7000122,373.2828369 
					"/>
		<polygon class="st13" points="413.3999939,376.3828125 415.7999878,388.0828247 424.7999878,384.8828125 422.3999939,373.2828369 
					"/>
		<g>
			<polygon class="st10" points="397.5,382.3828125 397.5,346.6828308 428.5,346.6828308 428.5,384.8828125 
				416.2000122,385.8828125 			"/>
			<path class="st11" d="M398,347.1828308h30v37.2000122l-11.7000122,0.8999939l-18.2000122-3.3999939v-34.7000122 M397,346.1828308
				v36.2999878v0.2999878l19.2000122,3.6000061l12.7999878-1v-0.7999878v-38.2999878L397,346.1828308L397,346.1828308z"/>
		</g>
		<polyline class="st14" points="428.6000061,384.0828247 416.1000061,384.0828247 397.3999939,382.0828247 		"/>
	</g>
	<g>
		<g>
			<rect x="250.7727509" y="227.2513428" class="st10" width="41.5999908" height="16.6999969"/>
			<path class="st11" d="M291.8727417,227.7513428v15.6999969h-40.6000061v-15.6999969H291.8727417 M292.8727417,226.7513428
				h-42.6000061v17.6999969h42.6000061V226.7513428L292.8727417,226.7513428z"/>
		</g>
		<g>
			<g>
				<path class="st15" d="M288.9727478,235.6513519c0-3.3000031-2.7999878-5.8000031-6-5.5
					c-3.6000061,0.3000031-8,0.6000061-11.3999939,0.6000061c-3.2999878,0-7.7999878-0.3000031-11.3999939-0.6000061
					c-3.2000122-0.3000031-6,2.3000031-6,5.5s2.7999878,5.8000031,6,5.5c3.6000061-0.3000031,8-0.6000061,11.3999939-0.6000061
					c3.2999878,0,7.7999878,0.3000031,11.3999939,0.6000061C286.17276,241.4513397,288.9727478,238.8513489,288.9727478,235.6513519
					z"/>
				<ellipse class="st15" cx="283.2727661" cy="235.6513519" rx="0.8999939" ry="0.8999939"/>
			</g>
		</g>
	</g>
	<g>
		<g>
			<rect x="295.6000061" y="235.6999969" class="st10" width="16" height="40.0000153"/>
			<path class="st11" d="M311.1000061,236.1999969v39.0000153h-15v-39h15 M312.1000061,235.1999969h-17v41.0000153h17V235.1999969
				L312.1000061,235.1999969z"/>
		</g>
		<g>
			<g>
				<path class="st15" d="M303.6000061,239C300.5,239,298,241.6999969,298.3000183,244.8000031
					c0.2999878,3.3999939,0.6000061,7.6999969,0.6000061,10.8999939s-0.2999878,7.5000153-0.6000061,10.9000092
					c-0.2999878,3.1000061,2.2000122,5.7999878,5.2999878,5.7999878s5.6000061-2.7000122,5.2999878-5.7999878
					c-0.2999878-3.3999939-0.6000061-7.7000122-0.6000061-10.8999939c0-3.1999969,0.2999878-7.5,0.6000061-10.8999939
					C309.2000122,241.6999969,306.7000122,239,303.6000061,239z"/>
				<ellipse class="st15" cx="303.6000061" cy="244.5" rx="0.8999939" ry="0.8999939"/>
			</g>
		</g>
	</g>
	<g>
		<g>
			<rect x="306.1483154" y="189.5614166" class="st10" width="9.3999939" height="14.1000061"/>
			<path class="st11" d="M315.0483093,190.0614166v13.1000061h-8.3999939v-13.1000061H315.0483093 M316.0483093,189.0614166
				h-10.3999939v15.1000061h10.3999939V189.0614166L316.0483093,189.0614166z"/>
		</g>
		<g>
			<circle class="st10" cx="310.8482971" cy="196.5614166" r="2.8999939"/>
			<path class="st11" d="M310.8482971,194.1614227c1.2999878,0,2.3999939,1.1000061,2.3999939,2.3999939
				c0,1.3000031-1.1000061,2.3999939-2.3999939,2.3999939s-2.3999939-1.1000061-2.3999939-2.3999939
				C308.4483032,195.2614136,309.5483093,194.1614227,310.8482971,194.1614227 M310.8482971,193.1614227
				c-1.8999939,0-3.3999939,1.5-3.3999939,3.3999939s1.5,3.3999939,3.3999939,3.3999939s3.3999939-1.5,3.3999939-3.3999939
				C314.2483215,194.7614136,312.7483215,193.1614227,310.8482971,193.1614227L310.8482971,193.1614227z"/>
		</g>
	</g>
	<g>
		<path class="st12" d="M385.2999878,152.6000061h31.7999878v23.1999969h-31.7999878V152.6000061z"/>
		<path class="st12" d="M383.2000122,157.8000031h-0.5c-3.5,0-6.3999939,2.8999939-6.3999939,6.3999939
			s2.8999939,6.3999939,6.3999939,6.3999939h0.5V157.8000031z"/>
		<path class="st12" d="M385.2999878,159.3000031h-2.3999939c-2.7000122,0-4.7999878,2.1999969-4.7999878,4.8000031
			c0,2.6999969,2.2000122,4.8000031,4.7999878,4.8000031h2.3999939V159.3000031z"/>
		<path class="st12" d="M419.2000122,157.8000031h0.5c3.5,0,6.3999939,2.8999939,6.3999939,6.3999939
			s-2.8999939,6.3999939-6.3999939,6.3999939h-0.5V157.8000031z"/>
		<path class="st12" d="M417.1000061,159.3000031H419.5c2.7000122,0,4.7999878,2.1999969,4.7999878,4.8000031
			c0,2.6999969-2.2000122,4.8000031-4.7999878,4.8000031h-2.3999939V159.3000031z"/>
		<path class="st12" d="M407.6000061,177.8000031v0.5c0,3.5-2.8999939,6.3999939-6.3999939,6.3999939
			s-6.3999939-2.8999939-6.3999939-6.3999939v-0.5H407.6000061z"/>
		<path class="st12" d="M406,175.6999969v2.3999939c0,2.6999969-2.2000122,4.8000031-4.7999878,4.8000031
			s-4.7999878-2.1999969-4.7999878-4.8000031v-2.3999939H406z"/>
		<path class="st12" d="M407.6000061,150.5V150c0-3.5-2.8999939-6.3999939-6.3999939-6.3999939S394.8000183,146.5,394.8000183,150
			v0.5H407.6000061z"/>
		<path class="st12" d="M406,152.6000061v-2.3999939c0-2.6999969-2.2000122-4.8000031-4.7999878-4.8000031
			s-4.7999878,2.1999969-4.7999878,4.8000031v2.3999939H406z"/>
	</g>
	<g>
		<path class="st12" d="M454.6000061,250.7251434h-10.3999939l-1.3999939-9.5h13.2000122L454.6000061,250.7251434z"/>
		<g>
			<rect x="432.7999878" y="227.0251465" class="st10" width="33.2999878" height="15.1000061"/>
			<path class="st11" d="M465.7000122,227.5251465v14.1000061h-32.2999878v-14.1000061H465.7000122 M466.7000122,226.5251465
				h-34.2999878v16.1000061h34.2999878V226.5251465L466.7000122,226.5251465z"/>
		</g>
		<path class="st14" d="M453.5,238.1251526h-8 M454.2000122,239.7251434h-9.3999939v-2.8000031h9.3999939V239.7251434z"/>
		<path class="st12" d="M458.1000061,239.8251495L458.1000061,239.8251495c-0.3999939,0-0.7000122-0.3000031-0.7000122-0.6999969
			v-0.8999939c0-0.3999939,0.2999878-0.6999969,0.7000122-0.6999969l0,0c0.3999939,0,0.7000122,0.3000031,0.7000122,0.6999969
			v0.8999939C458.7999878,239.5251465,458.3999939,239.8251495,458.1000061,239.8251495z"/>
		<path class="st12" d="M451.7999878,232.9251556c0,1.1999969-1.1000061,2.1999969-2.3999939,2.1999969
			S447,234.1251526,447,232.9251556v-2.1999969h4.7000122L451.7999878,232.9251556z"/>
		<g>
			<rect x="444.6000061" y="242.6251526" class="st10" width="9.7000122" height="8.1000061"/>
			<path class="st11" d="M453.7999878,243.1251526v7.1000061h-8.7000122v-7.1000061H453.7999878 M454.7999878,242.1251526
				h-10.7000122v9.1000061h10.7000122V242.1251526L454.7999878,242.1251526z"/>
		</g>
		<g>
			<rect x="444.2999878" y="250.8251495" class="st10" width="10.2999878" height="1.8000031"/>
			<path class="st11" d="M454,251.3251495v0.8000031h-9.2999878v-0.8000031H454 M455,250.3251495h-11.2999878v2.8000031H455
				V250.3251495L455,250.3251495z"/>
		</g>
		<g>
			<path class="st11" d="M461.2000122,229.4251556v0.8000031h-23.6000061v-0.8000031H461.2000122 M462.2000122,228.4251556
				h-25.6000061v2.8000031h25.6000061V228.4251556L462.2000122,228.4251556z"/>
		</g>
	</g>
	<g>
		<path class="st12" d="M458.1000061,385l-10.2000122-2l-3.2000122,9l13,2.6000061L458.1000061,385z"/>
		<g>
			
				<rect x="443.2918701" y="380.2273254" transform="matrix(0.1967891 -0.9804459 0.9804459 0.1967891 -30.4279137 763.6147461)" class="st10" width="15.100831" height="40.3022194"/>
			<path class="st11" d="M433,389.6000061l38.5,7.7000122l-2.7999878,13.7999878l-38.5-7.7000122L433,389.6000061
				 M432.2000122,388.5L429,404.2999878l40.5,8.1000061l3.2000122-15.7999878L432.2000122,388.5L432.2000122,388.5z"/>
		</g>
		<path class="st14" d="M454,397l-7.8999939-1.6000061 M455,395.6000061l-9.2999878-1.7999878l-0.6000061,2.7999878
			l9.2999878,1.7999878L455,395.6000061z"/>
		<path class="st12" d="M458.7999878,396.2999878L458.7999878,396.2999878C458.3999939,396.1999817,458,396.5,458,396.8999939
			l-0.2000122,0.8999939c-0.1000061,0.3999939,0.2000122,0.7999878,0.6000061,0.7999878l0,0
			c0.3999939,0.1000061,0.7999878-0.2000122,0.7999878-0.6000061l0.2000122-0.8999939
			C459.5,396.7000122,459.2000122,396.2999878,458.7999878,396.2999878z"/>
		<path class="st12" d="M451.2999878,401.7999878c0.2000122-1.2000122-0.6000061-2.3999939-1.8999939-2.6000061
			c-1.2999878-0.2999878-2.5,0.5-2.7000122,1.7000122l-0.3999939,2.2000122L450.8999939,404L451.2999878,401.7999878z"/>
		<g>
			
				<rect x="448.2418213" y="383.0745239" transform="matrix(0.196693 -0.9804651 0.9804651 0.196693 -17.017334 755.0791016)" class="st10" width="8.1002808" height="9.7003479"/>
			<path class="st11" d="M448.7000122,383.6000061l8.6000061,1.7000122l-1.3999939,7l-8.6000061-1.7000122L448.7000122,383.6000061
				 M447.8999939,382.3999939l-1.7999878,9l10.5,2.1000061l1.7999878-9L447.8999939,382.3999939L447.8999939,382.3999939z"/>
		</g>
		<g>
			
				<rect x="452.3013916" y="377.9332886" transform="matrix(0.1964046 -0.9805229 0.9805229 0.1964046 -11.4313049 752.2182007)" class="st10" width="1.7999572" height="10.2997427"/>
			<path class="st11" d="M448.7999878,381.7000122L457.8999939,383.5l-0.2000122,0.7999878L448.5999756,382.5
				L448.7999878,381.7000122 M448,380.6000061l-0.6000061,2.7999878L458.5,385.6000061l0.6000061-2.7999878L448,380.6000061
				L448,380.6000061z"/>
		</g>
		<g>
			<path class="st11" d="M436.8999939,401.7000122L460,406.3000183l-0.2000122,0.7999878L436.6999817,402.5L436.8999939,401.7000122
				 M436.1000061,400.5L435.5,403.2999878l25.1000061,5L461.2000122,405.5L436.1000061,400.5L436.1000061,400.5z"/>
		</g>
	</g>
	<g id="Sink_2_3_">
		<g id="Rectangle_16_x5F_11_4_">
			<rect x="331.1000061" y="227.1999969" class="st10" width="19.8999939" height="12.1999969"/>
			<path class="st11" d="M350.3999939,227.6999969v11.1999969H331.5v-11.1999969H350.3999939 M351.3999939,226.6999969H330.5
				v13.1999969h20.8999939V226.6999969L351.3999939,226.6999969z"/>
		</g>
		<path id="Rectangle_19_x5F_5_3_" class="st12" d="M347.8999939,233.3000031L347.8999939,233.3000031c0,2.1999969-1.7999878,4-4,4
			h-5.7999878c-2.2000122,0-4-1.8000031-4-4l0,0c0-2.1999969,1.7999878-4,4-4h5.7999878
			C346.1000061,229.3000031,347.8999939,231.1000061,347.8999939,233.3000031z"/>
		<circle id="Ellipse_7_x5F_2_3_" class="st12" cx="341" cy="232.1000061" r="0.8999939"/>
	</g>
	<g id="Sink_2_5_">
		<g id="Rectangle_16_x5F_11_9_">
			<rect x="326.1000061" y="67.3000031" class="st10" width="15.2000122" height="9.1999969"/>
			<path class="st11" d="M340.7999878,67.8000031V76h-14.2000122v-8.1999969H340.7999878 M341.7999878,66.8000031h-16.2000122V77
				h16.2000122V66.8000031L341.7999878,66.8000031z"/>
		</g>
		<path id="Rectangle_19_x5F_5_5_" class="st12" d="M339.1000061,71.9000015L339.1000061,71.9000015
			C339.1000061,73.5999985,337.7000122,75,336,75h-4.5c-1.7000122,0-3.1000061-1.4000015-3.1000061-3.0999985l0,0
			c0-1.6999969,1.3999939-3.0999985,3.1000061-3.0999985h4.5C337.7000122,68.8000031,339.1000061,70.1999969,339.1000061,71.9000015
			z"/>
		<circle id="Ellipse_7_x5F_2_6_" class="st12" cx="333.7000122" cy="71.3000031" r="0.8999939"/>
	</g>
	<g id="Sink_2_4_">
		<g id="Rectangle_16_x5F_11_5_">
			<rect x="280.1644287" y="250" class="st10" width="12.2000122" height="19.8999939"/>
			<path class="st11" d="M291.8644104,250.5v18.8999939h-11.2000122V250.5H291.8644104 M292.8644104,249.5h-13.2000122v20.8999939
				h13.2000122V249.5L292.8644104,249.5z"/>
		</g>
		<path id="Rectangle_19_x5F_5_4_" class="st12" d="M286.2644348,266.8999939L286.2644348,266.8999939c-2.2000122,0-4-1.7999878-4-4
			v-5.7999878c0-2.1999969,1.7999878-4,4-4l0,0c2.2000122,0,4,1.8000031,4,4v5.7999878
			C290.3644104,265.1000061,288.5644226,266.8999939,286.2644348,266.8999939z"/>
		<circle id="Ellipse_7_x5F_2_5_" class="st12" cx="287.4644165" cy="260" r="0.8999939"/>
	</g>
	<g id="Toilet_4_">
		<g id="Rectangle_21_5_">
			<rect x="316" y="232.8000031" class="st10" width="10.6000061" height="2.8999939"/>
			<path class="st11" d="M326.1000061,233.3000031v1.8999939H316.5v-1.8999939H326.1000061 M327.1000061,232.3000031H315.5
				v3.8999939h11.6000061V232.3000031L327.1000061,232.3000031z"/>
		</g>
		<path id="Rectangle_19_x5F_2_4_" class="st12" d="M317.5,242.8000031
			c-0.1000061,2.1999969,1.6000061,4.1000061,3.7999878,4.1000061l0,0c2.2000122,0,3.8999939-1.8999939,3.7999878-4.1000061l-0.5-7
			H318L317.5,242.8000031z"/>
		<path id="Rectangle_18_x5F_13_4_" class="st12" d="M318.8999939,242.3000031
			c-0.1000061,1.3999939,1,2.6000061,2.2999878,2.6000061l0,0c1.3999939,0,2.5-1.1999969,2.2999878-2.6000061l-0.2999878-3.6999969
			h-4L318.8999939,242.3000031z"/>
		<ellipse id="Ellipse_6_x5F_2_4_" class="st12" cx="321.2999878" cy="241.1000061" rx="0.8999939" ry="0.8999939"/>
	</g>
	<g id="Toilet_5_">
		<g id="Rectangle_21_4_">
			<rect x="249.1999969" y="254" class="st10" width="2.8999939" height="10.6000061"/>
			<path class="st11" d="M251.6000061,254.5v9.6000061h-1.8999939V254.5H251.6000061 M252.6000061,253.5h-3.8999939v11.6000061
				h3.8999939V253.5L252.6000061,253.5z"/>
		</g>
		<path id="Rectangle_19_x5F_2_5_" class="st12" d="M259.2000122,263.1000061
			c2.2000122,0.1000061,4.1000061-1.6000061,4.1000061-3.7999878l0,0c0-2.2000122-1.8999939-3.8999939-4.1000061-3.8000031
			l-7,0.4999847v6.6000061L259.2000122,263.1000061z"/>
		<path id="Rectangle_18_x5F_13_5_" class="st12" d="M258.7999878,261.7000122c1.3999939,0.1000061,2.6000061-1,2.6000061-2.2999878
			l0,0c0-1.3999939-1.2000122-2.5-2.6000061-2.2999878l-3.6999969,0.2999878v4L258.7999878,261.7000122z"/>
		<ellipse id="Ellipse_6_x5F_2_5_" class="st12" cx="257.2999878" cy="259.2999878" rx="0.8999939" ry="0.8999939"/>
	</g>
	<g id="TV">
		<g id="Rectangle_16">
			<rect x="309.510437" y="351.2999878" class="st10" width="1.7999878" height="34.8999939"/>
			<path class="st11" d="M310.8104553,351.7999878v33.8999939h-0.7999878v-33.8999939H310.8104553 M311.8104553,350.7999878
				h-2.7999878v35.8999939h2.7999878V350.7999878L311.8104553,350.7999878z"/>
		</g>
		<g id="Rectangle_15">
			<rect x="311.3104553" y="351.2999878" class="st10" width="6.1000061" height="34.8999939"/>
			<path class="st11" d="M317.010437,351.7999878v33.8999939h-5.1000061v-33.8999939H317.010437 M318.010437,350.7999878h-7.1000061
				v35.8999939h7.1000061V350.7999878L318.010437,350.7999878z"/>
		</g>
		<g id="Rectangle_17">
			<rect x="314.010437" y="356.3999939" class="st10" width="1.7999878" height="24.6000061"/>
			<path class="st11" d="M315.4104309,356.8999939V380.5h-0.7999878v-23.6000061H315.4104309 M316.4104309,355.8999939h-2.7999878
				V381.5h2.7999878V355.8999939L316.4104309,355.8999939z"/>
		</g>
		<path id="Rectangle_18_x5F_2" class="st12" d="M315.9104309,363.7000122v10.1000061l1.7999878-0.8999939v-8.2999878
			L315.9104309,363.7000122z"/>
	</g>
	<g id="Kitchen">
		<g>
			<rect x="424.5265198" y="80.6528397" class="st10" width="16.1000061" height="1.8000031"/>
			<path class="st11" d="M440.1265259,81.1528397v0.8000031h-15.1000061v-0.8000031H440.1265259 M441.1265259,80.1528397
				h-17.1000061v2.8000031h17.1000061V80.1528397L441.1265259,80.1528397z"/>
		</g>
		<g id="Rectangle_24">
			<rect x="354.1265259" y="67.3528442" class="st10" width="100.8999939" height="13.4000015"/>
			<path class="st11" d="M454.5265198,67.8528442v12.4000015h-99.8999939V67.8528442H454.5265198 M455.5265198,66.8528442
				H353.6265259v14.4000015h101.8999939V66.8528442L455.5265198,66.8528442z"/>
		</g>
		<g id="Rectangle_27_1_">
			<rect x="442.3265076" y="67.3528442" class="st10" width="13.3999939" height="13.4000015"/>
			<path class="st11" d="M455.226532,67.8528442v12.4000015h-12.3999939V67.8528442H455.226532 M456.226532,66.8528442h-14.3999939
				v14.4000015h14.3999939V66.8528442L456.226532,66.8528442z"/>
		</g>
		<g id="Sink_3">
			<rect id="Rectangle_28_x5F_2" x="355.9265137" y="69.2528458" class="st12" width="14.7999878" height="9.4000015"/>
			<path id="Rectangle_29_x5F_2" class="st12" d="M361.726532,73.9528427L361.726532,73.9528427c0-1.9000015,1.6000061-3.5,3.5-3.5
				h0.7999878c1.8999939,0,3.5,1.5999985,3.5,3.5l0,0c0,1.9000015-1.6000061,3.5-3.5,3.5h-0.7999878
				C363.3265076,77.4528427,361.726532,75.8528442,361.726532,73.9528427z"/>
			<ellipse id="Ellipse_7_x5F_3" class="st12" cx="365.6265259" cy="75.0528412" rx="0.8999939" ry="0.9000015"/>
			<line class="st14" x1="356.726532" y1="77.0528412" x2="360.6265259" y2="77.0528412"/>
			<line class="st14" x1="356.726532" y1="75.4528427" x2="360.6265259" y2="75.4528427"/>
			<line class="st14" x1="356.726532" y1="73.9528427" x2="360.6265259" y2="73.9528427"/>
			<line class="st14" x1="356.726532" y1="72.3528442" x2="360.6265259" y2="72.3528442"/>
			<line class="st14" x1="356.726532" y1="70.7528458" x2="360.6265259" y2="70.7528458"/>
		</g>
		<g id="Stove_1_">
			<g id="Rectangle_25_1_">
				<rect x="409.8265076" y="67.3528442" class="st10" width="13" height="13.4000015"/>
				<path class="st11" d="M422.3265076,67.8528442v12.4000015h-12V67.8528442H422.3265076 M423.3265076,66.8528442h-14v14.4000015
					h14V66.8528442L423.3265076,66.8528442z"/>
			</g>
			<g id="Rectangle_28_x5F_3_1_">
				<rect x="409.8265076" y="79.0528412" class="st10" width="13" height="1.6999969"/>
				<path class="st11" d="M422.3265076,79.5528412v0.6999969h-12v-0.6999969H422.3265076 M423.3265076,78.5528412h-14v2.6999969h14
					V78.5528412L423.3265076,78.5528412z"/>
			</g>
			<g id="Ellipse_7_x5F_4_1_">
				<path class="st10" d="M413.6265259,76.6528397c-0.6000061,0-1-0.5-1-1s0.5-1,1-1c0.6000061,0,1,0.5,1,1
					S414.1265259,76.6528397,413.6265259,76.6528397z"/>
				<path class="st11" d="M413.6265259,75.0528412c0.2999878,0,0.5,0.1999969,0.5,0.5s-0.2000122,0.5-0.5,0.5
					s-0.5-0.1999969-0.5-0.5S413.3265076,75.0528412,413.6265259,75.0528412 M413.6265259,74.0528412
					c-0.7999878,0-1.5,0.6999969-1.5,1.5s0.7000122,1.5,1.5,1.5s1.5-0.6999969,1.5-1.5
					S414.4265137,74.0528412,413.6265259,74.0528412L413.6265259,74.0528412z"/>
			</g>
			<g id="Ellipse_9_1_">
				<path class="st10" d="M413.6265259,72.4528427c-0.7999878,0-1.3999939-0.5999985-1.3999939-1.4000015
					s0.6000061-1.4000015,1.3999939-1.4000015s1.3999939,0.5999985,1.3999939,1.4000015
					C414.9265137,71.8528442,414.3265076,72.4528427,413.6265259,72.4528427z"/>
				<path class="st11" d="M413.6265259,70.2528381c0.5,0,0.8999939,0.4000015,0.8999939,0.9000015
					s-0.3999939,0.9000015-0.8999939,0.9000015s-0.8999939-0.4000015-0.8999939-0.9000015
					S413.1265259,70.2528381,413.6265259,70.2528381 M413.6265259,69.2528381c-1,0-1.8999939,0.8000031-1.8999939,1.9000015
					s0.7999878,1.9000015,1.8999939,1.9000015s1.8999939-0.8000031,1.8999939-1.9000015
					S414.6265259,69.2528381,413.6265259,69.2528381L413.6265259,69.2528381z"/>
			</g>
			<g id="Ellipse_10_1_">
				<path class="st10" d="M418.8265076,76.9528427c-0.7999878,0-1.3999939-0.5999985-1.3999939-1.4000015
					s0.6000061-1.4000015,1.3999939-1.4000015s1.3999939,0.5999985,1.3999939,1.4000015
					S419.6265259,76.9528427,418.8265076,76.9528427z"/>
				<path class="st11" d="M418.8265076,74.7528381c0.5,0,0.8999939,0.4000015,0.8999939,0.9000015
					s-0.3999939,0.9000015-0.8999939,0.9000015s-0.7999878-0.5-0.7999878-0.9000015S418.3265076,74.7528381,418.8265076,74.7528381
					 M418.8265076,73.7528381c-1,0-1.8999939,0.8000031-1.8999939,1.9000015s0.7999878,1.9000015,1.8999939,1.9000015
					s1.8999939-0.8000031,1.8999939-1.9000015S419.9265137,73.7528381,418.8265076,73.7528381L418.8265076,73.7528381z"/>
			</g>
			<g id="Ellipse_8_1_">
				<path class="st10" d="M418.8265076,71.7528381c-0.6000061,0-1-0.5-1-1s0.5-1,1-1c0.6000061,0,1,0.5,1,1
					S419.4265137,71.7528381,418.8265076,71.7528381z"/>
				<path class="st11" d="M418.8265076,70.2528381c0.2999878,0,0.5,0.1999969,0.5,0.5s-0.2000122,0.5-0.5,0.5
					s-0.5-0.1999969-0.5-0.5S418.6265259,70.2528381,418.8265076,70.2528381 M418.8265076,69.2528381
					c-0.7999878,0-1.5,0.6999969-1.5,1.5s0.7000122,1.5,1.5,1.5s1.5-0.6999969,1.5-1.5
					C420.3265076,69.8528442,419.726532,69.2528381,418.8265076,69.2528381L418.8265076,69.2528381z"/>
			</g>
		</g>
		<path id="Vector_3_1_" class="st14" d="M446.3265076,72.8771286h5.3999939 M447.6265259,70.4771271l2.7000122,4.8000031
			 M447.6265259,75.2771301l2.7000122-4.8000031"/>
	</g>
	<g>
		<path class="st12" d="M430.2138062,201.7033844c-0.6000061,0-1.2000122,0.5-1.2000122,1.1999969v11.6999969h26.7999878
			v-12.8999939H430.2138062z"/>
		<path class="st12" d="M444.1138,180.9033813c-0.6000061,0-1.2000122,0.5-1.2000122,1.1999969v18.3000031
			c0,0.6999969,0.5,1.1999969,1.2000122,1.1999969h11.7999878v-20.6999969H444.1138z"/>
		<path class="st12" d="M444.1138,160.9033813c-0.6000061,0-1.2000122,0.5-1.2000122,1.1999969v17.6000061
			c0,0.6000061,0.5,1.1999969,1.2000122,1.1999969h11.7999878v-20H444.1138z"/>
		<path class="st12" d="M442.0137939,160.9033813v-4.3999939h18.5v62.6999969h-36v-18.6000061H429.1138v13.8999939h26.7999878
			v-53.6999969L442.0137939,160.9033813z"/>
	</g>
	<g>
		<g>
			<rect x="306.1483154" y="171.8792877" class="st10" width="36.2999878" height="1.8000031"/>
			<path class="st11" d="M341.9483032,172.3792877v0.8000031h-35.2999878v-0.8000031H341.9483032 M342.9483032,171.3792877
				h-37.2999878v2.8000031h37.2999878V171.3792877L342.9483032,171.3792877z"/>
		</g>
		<g>
			<rect x="306.1483154" y="173.6792908" class="st10" width="36.2999878" height="12.6000061"/>
			<path class="st11" d="M341.9483032,174.1792908v11.6000061h-35.2999878v-11.6000061H341.9483032 M342.9483032,173.1792908
				h-37.2999878v13.6000061h37.2999878V173.1792908L342.9483032,173.1792908z"/>
		</g>
		<path class="st12" d="M342.7483215,186.3792877l-36.8999939-12.6999969"/>
	</g>
	<g>
		<g>
			<rect x="448.198761" y="263.7429504" class="st10" width="1.7999878" height="36.2999878"/>
			<path class="st11" d="M449.4987793,264.2429504v35.2999878h-0.7999878v-35.2999878H449.4987793 M450.4987793,263.2429504
				h-2.7999878v37.2999878h2.7999878V263.2429504L450.4987793,263.2429504z"/>
		</g>
		<g>
			<rect x="449.9987793" y="263.7429504" class="st10" width="12.6000061" height="36.2999878"/>
			<path class="st11" d="M462.198761,264.2429504v35.2999878h-11.6000061v-35.2999878H462.198761 M463.198761,263.2429504
				h-13.6000061v37.2999878h13.6000061V263.2429504L463.198761,263.2429504z"/>
		</g>
		<path class="st12" d="M462.698761,263.5429382l-12.7000122,36.8999939"/>
	</g>
	<g>
		<g>
			<rect x="431.7000122" y="315.9035034" class="st10" width="36.2999878" height="1.7999878"/>
			<path class="st11" d="M432.2000122,316.4035034H467.5v0.7999878h-35.2999878V316.4035034 M431.2000122,315.4035034v2.7999878
				H468.5v-2.7999878H431.2000122L431.2000122,315.4035034z"/>
		</g>
		<g>
			<rect x="431.7000122" y="303.3035278" class="st10" width="36.2999878" height="12.6000061"/>
			<path class="st11" d="M467.5,303.8035278v11.6000061h-35.2999878v-11.6000061H467.5 M468.5,302.8035278h-37.2999878v13.6000061
				H468.5V302.8035278L468.5,302.8035278z"/>
		</g>
		<path class="st12" d="M431.5,303.2035217l36.8999939,12.7000122"/>
	</g>
	<g>
		<g>
			<rect x="320.7000122" y="297.5" class="st10" width="30.1000061" height="1.7999878"/>
			<path class="st11" d="M321.2000122,298h29.1000061v0.7999878h-29.1000061V298 M320.2000122,297v2.7999878h31.1000061V297
				H320.2000122L320.2000122,297z"/>
		</g>
		<g>
			<rect x="320.7000122" y="284.8999939" class="st10" width="30.1000061" height="12.6000061"/>
			<path class="st11" d="M350.2999878,285.3999939V297h-29.1000061v-11.6000061H350.2999878 M351.2999878,284.3999939h-31.1000061
				V298h31.1000061V284.3999939L351.2999878,284.3999939z"/>
		</g>
		<path class="st12" d="M320.6000061,285L351,297.6000061"/>
	</g>
	<g>
		<g>
			<rect x="246.7626343" y="297.6437683" class="st10" width="16.7999878" height="1.7999878"/>
			<path class="st11" d="M247.2626343,298.1437683h15.7999878v0.7999878h-15.7999878V298.1437683 M246.2626343,297.1437683
				v2.7999878h17.7999878v-2.7999878H246.2626343L246.2626343,297.1437683z"/>
		</g>
		<g>
			<rect x="246.6626282" y="285.0437622" class="st10" width="16.8000183" height="12.6000061"/>
			<path class="st11" d="M263.0626221,285.5437622v11.6000061h-15.7999878v-11.6000061H263.0626221 M264.0626221,284.5437622
				h-17.7999878v13.6000061h17.7999878V284.5437622L264.0626221,284.5437622z"/>
		</g>
		<path class="st12" d="M246.6626282,285.2437744l17.0000305,12.2999878"/>
	</g>
	<g>
		<g>
			<rect x="285.5" y="297.5" class="st10" width="31.8999939" height="1.7999878"/>
			<path class="st11" d="M316.8999939,298v0.7999878H286V298H316.8999939 M317.8999939,297H285v2.7999878h32.8999939V297
				L317.8999939,297z"/>
		</g>
		<g>
			<rect x="285.5" y="284.8999939" class="st10" width="31.8999939" height="12.6000061"/>
			<path class="st11" d="M316.8999939,285.3999939V297H286v-11.6000061H316.8999939 M317.8999939,284.3999939H285V298h32.8999939
				V284.3999939L317.8999939,284.3999939z"/>
		</g>
		<path class="st12" d="M285.3999939,285L317.5,297.6000061"/>
	</g>
	<g>
		<g>
			<rect x="313.5306396" y="212.17276" class="st10" width="37.2999878" height="1.8000031"/>
			<path class="st11" d="M350.3306274,212.67276v0.8000031h-36.2999878V212.67276H350.3306274 M351.3306274,211.67276h-38.2999878
				v2.8000031h38.2999878V211.67276L351.3306274,211.67276z"/>
		</g>
		<g>
			<rect x="313.5306396" y="213.9727478" class="st10" width="37.2999878" height="10"/>
			<path class="st11" d="M350.3306274,214.4727478v9h-36.2999878v-9H350.3306274 M351.3306274,213.4727478h-38.2999878v11
				h38.2999878V213.4727478L351.3306274,213.4727478z"/>
		</g>
		<path class="st12" d="M350.8306274,224.0727539l-37.2999878-10.1000061"/>
	</g>
	<g>
		<g>
			<rect x="313.144165" y="120.1207886" class="st10" width="1.7999878" height="10.5"/>
			<path class="st11" d="M314.4441528,120.6207886v9.5h-0.7999878v-9.4999924h0.7999878 M315.4441528,119.6207886h-2.7999878v11.5
				h2.7999878V119.6207886L315.4441528,119.6207886z"/>
		</g>
		<g>
			<rect x="306.144165" y="120.1207886" class="st10" width="7" height="10.5"/>
			<path class="st11" d="M312.644165,120.6207886v9.5h-6v-9.4999924h6 M313.644165,119.6207886h-8v11.5h8V119.6207886
				L313.644165,119.6207886z"/>
		</g>
		<path class="st12" d="M306.2441711,120.1207886l6.8999939,10.5"/>
	</g>
	<g>
		<g>
			<path class="st10" d="M306.0510864,86.5V69.8000031h16.6000061V81.5c0,2.6999969-2.2000122,5-5,5H306.0510864z"/>
			<path class="st11" d="M322.2510681,70.3000031V81.5c0,2.5-2,4.5-4.5,4.5h-11.2000122V70.3000031H322.2510681
				 M323.2510681,69.3000031H305.651062V87h12.2000122c3,0,5.5-2.5,5.5-5.5V69.3000031H323.2510681z"/>
		</g>
		<g>
			<path class="st10" d="M307.5510864,85V71.3000031h13.7999878V81.5c0,2-1.6000061,3.5999985-3.6000061,3.5999985h-10.1999817V85z"
				/>
			<path class="st11" d="M320.7510681,71.8000031V81.5c0,0.8000031-0.2999878,1.5999985-0.8999939,2.1999969
				s-1.3999939,0.9000015-2.2000122,0.9000015h-9.7000122V71.8000031H320.7510681 M321.7510681,70.8000031h-14.7999878v14.8000031
				h10.7000122c2.2999878,0,4.1000061-1.8000031,4.1000061-4.0999985V70.8000031H321.7510681z"/>
		</g>
		<ellipse class="st12" cx="310.1510925" cy="73.8000031" rx="0.8999939" ry="0.9000015"/>
	</g>
	<g>
		<rect x="311.7999878" y="227.1999969" class="st10" width="19.2000122" height="5.5"/>
		<path class="st11" d="M330.5,227.6999969v4.5h-18.2000122v-4.5H330.5 M331.5,226.6999969h-20.2000122v6.5H331.5V226.6999969
			L331.5,226.6999969z"/>
	</g>
	<g>
		<rect x="246.6999969" y="245" class="st10" width="2.5" height="28.6000061"/>
		<path class="st11" d="M248.6999969,245.5V273h-1.5v-27.6000061h1.5 M249.6999969,244.5h-3.5V274h3.5V244.5L249.6999969,244.5z"/>
	</g>
	<g id="Toilet_6_">
		<g id="Rectangle_21_9_">
			<rect x="308.644165" y="100.8389816" class="st10" width="2.8999939" height="10.5999985"/>
			<path class="st11" d="M311.0441589,101.3389816v9.5999985h-1.8999939v-9.5999985H311.0441589 M312.0441589,100.3389816
				h-3.8999939v11.5999985h3.8999939V100.3389816L312.0441589,100.3389816z"/>
		</g>
		<path id="Rectangle_19_x5F_2_6_" class="st12" d="M318.644165,109.9389801
			c2.2000122,0.0999985,4.1000061-1.5999985,4.1000061-3.8000031l0,0c0-2.1999969-1.8999939-3.9000015-4.1000061-3.8000031l-7,0.5
			v6.5999985L318.644165,109.9389801z"/>
		<path id="Rectangle_18_x5F_13_6_" class="st12" d="M318.2441711,108.5389786c1.3999939,0.0999985,2.6000061-1,2.6000061-2.3000031
			l0,0c0-1.4000015-1.2000122-2.5-2.6000061-2.3000031l-3.7000122,0.3000031v4L318.2441711,108.5389786z"/>
		<ellipse id="Ellipse_6_x5F_2_6_" class="st12" cx="316.8441467" cy="106.1389771" rx="0.8999939" ry="0.9000015"/>
	</g>
	<g>
		<rect x="306.144165" y="89.0389786" class="st10" width="2.5" height="27.8000031"/>
		<path class="st11" d="M308.144165,89.5389786v26.8000031h-1.5V89.5389786H308.144165 M309.144165,88.5389786h-3.5v28.8000031h3.5
			V88.5389786L309.144165,88.5389786z"/>
	</g>
	<g>
		<rect x="306.151062" y="67.3000031" class="st10" width="19.9489441" height="2.5"/>
		<path class="st11" d="M325.6000061,67.8000031v1.5H306.651062v-1.5H325.6000061 M326.6000061,66.8000031H305.651062v3.5
			h20.9489441V66.8000031L326.6000061,66.8000031z"/>
	</g>
</g>
<g id="Numbers">
	<g>
		<path class="st9" d="M327.5,91.5999985c0.6000061,0,1.2000122,0.1999969,1.6000061,0.5999985
			s0.6000061,0.9000015,0.6000061,1.5999985S329.5,94.9999924,329,95.3999939c-0.3999939,0.4000015-1,0.5999985-1.7000122,0.5999985
			c-0.7999878,0-1.5-0.3000031-2.2000122-0.8000031l0.5-0.8000031c0.6000061,0.4000015,1.1000061,0.5999985,1.7000122,0.5999985
			c0.3999939,0,0.7000122-0.0999985,1-0.4000015c0.2999878-0.1999969,0.3999939-0.5,0.3999939-0.9000015
			s-0.1000061-0.6999969-0.3999939-0.9000015c-0.2000122-0.1999969-0.6000061-0.4000015-1-0.4000015
			c-0.5,0-0.8999939,0.1999969-1.2000122,0.5l-0.6000061-0.4000015l0.3999939-3.3000031h3.3999939v0.9000015h-2.6000061
			l-0.2000122,1.5999985C326.7999878,91.6999969,327.2000122,91.5999985,327.5,91.5999985z"/>
		<path class="st9" d="M331.2000122,96.0999985c-0.2000122,0-0.2999878-0.0999985-0.5-0.1999969
			c-0.1000061-0.0999985-0.2000122-0.3000031-0.2000122-0.5S330.6000061,95.0999985,330.7000122,95
			s0.2999878-0.1999969,0.5-0.1999969S331.5,94.9000015,331.6000061,95s0.2000122,0.3000031,0.2000122,0.4000015
			c0,0.1999969-0.1000061,0.3000031-0.2000122,0.5C331.5,96,331.3999939,96.0999985,331.2000122,96.0999985z"/>
		<path class="st9" d="M334.7000122,96c-0.7000122,0-1.3999939-0.1999969-2.1000061-0.6999969l0.5-0.8000031
			c0.6000061,0.4000015,1.1000061,0.5,1.6000061,0.5c0.3999939,0,0.7000122-0.0999985,0.8999939-0.3000031
			c0.2000122-0.1999969,0.2999878-0.4000015,0.2999878-0.8000031c0-0.3000031-0.1000061-0.5999985-0.3999939-0.8000031
			c-0.2000122-0.1999969-0.5-0.3000031-0.8999939-0.3000031h-0.7999878V92h0.7999878
			c0.2999878,0,0.6000061-0.0999985,0.7999878-0.3000031C335.6000061,91.5,335.6999817,91.2999954,335.6999817,91
			c0-0.3000031-0.1000061-0.5-0.2999878-0.6999969S334.8999939,90,334.6000061,90
			c-0.3999939,0-0.8999939,0.1999969-1.3999939,0.5999985l-0.5-0.6999969
			c0.2000122-0.1999969,0.6000061-0.4000015,0.8999939-0.5999985c0.3999939-0.0999985,0.7000122-0.1999969,1.1000061-0.1999969
			c0.6000061,0,1.1000061,0.1999969,1.5,0.5s0.6000061,0.8000031,0.6000061,1.1999969
			c0,0.4000015-0.1000061,0.6999969-0.2999878,0.9000015c-0.2000122,0.3000031-0.5,0.5-0.7999878,0.5999985l0,0
			c0.3999939,0.0999985,0.7000122,0.3000031,1,0.5999985C336.9000549,93.2000046,337.0000305,93.5,337.0000305,94
			c0,0.5999985-0.2000122,1-0.6000061,1.4000015C335.8999939,95.8000031,335.3999939,96,334.7000122,96z"/>
	</g>
	<g>
		<path class="st9" d="M324.1000061,147.1999969C323.3999939,147.1999969,322.7000122,147,322,146.5l0.5-0.8000031
			c0.6000061,0.3999939,1.1000061,0.5,1.6000061,0.5c0.3999939,0,0.7000122-0.1000061,0.8999939-0.3000031
			c0.2000122-0.1999969,0.2999878-0.3999939,0.2999878-0.8000031c0-0.3000031-0.1000061-0.6000061-0.3999939-0.8000031
			c-0.2000122-0.1999969-0.5-0.3000031-0.8999939-0.3000031h-0.7999878v-0.8999939H324
			c0.2999878,0,0.6000061-0.1000061,0.7999878-0.3000031c0.2000122-0.1999969,0.2999878-0.3999939,0.2999878-0.6999969
			s-0.1000061-0.5-0.2999878-0.6999969s-0.5-0.3000031-0.7999878-0.3000031c-0.3999939,0-0.8999939,0.1999969-1.3999939,0.6000061
			l-0.5-0.6999969c0.2000122-0.1999969,0.6000061-0.3999939,0.8999939-0.6000061
			c0.3999939-0.1000061,0.7000122-0.1999969,1.1000061-0.1999969c0.6000061,0,1.1000061,0.1999969,1.5,0.5
			s0.6000061,0.8000031,0.6000061,1.1999969s-0.1000061,0.6999969-0.2999878,0.8999939
			c-0.2000122,0.3000031-0.5,0.5-0.7999878,0.6000061l0,0c0.3999939,0.1000061,0.7000122,0.3000031,1,0.6000061
			c0.2000122,0.3000031,0.2999878,0.6000061,0.2999878,1.1000061c0,0.6000061-0.2000122,1-0.6000061,1.3999939
			C325.2999878,147,324.7999878,147.1999969,324.1000061,147.1999969z"/>
		<path class="st9" d="M327.8999939,147.1999969c-0.2000122,0-0.2999878-0.1000061-0.5-0.1999969
			c-0.1000061-0.1000061-0.2000122-0.3000031-0.2000122-0.5s0.1000061-0.3000031,0.2000122-0.3999939
			c0.1000061-0.1000061,0.2999878-0.1999969,0.5-0.1999969s0.2999878,0.1000061,0.3999939,0.1999969
			C328.3999939,146.2000122,328.5,146.4000092,328.5,146.5c0,0.1999969-0.1000061,0.3000031-0.2000122,0.5
			C328.2000122,147.1999969,328.1000061,147.1999969,327.8999939,147.1999969z"/>
		<path class="st9" d="M329,141.3999939V140.5h4.2000122v0.6999969l-2.5,6h-1.1000061l2.5-5.6999969H329V141.3999939z"/>
	</g>
	<g>
		<path class="st9" d="M322.5,201.5l-1.6000061,1.8000031h2.7000122v1h-4.2000122v-0.8999939L321.5,201.1000061L322,200.5
			c0.1000061-0.1000061,0.2000122-0.3000031,0.2999878-0.5s0.1000061-0.3999939,0.1000061-0.6000061
			c0-0.3000031-0.1000061-0.5-0.2999878-0.6999969c-0.2000122-0.1999969-0.5-0.3000031-0.7999878-0.3000031
			c-0.5,0-1,0.1999969-1.6000061,0.6999969l-0.6000061-0.6999969c0.7000122-0.6000061,1.3999939-1,2.2000122-1
			c0.6000061,0,1.1000061,0.1999969,1.5,0.6000061c0.3999939,0.3999939,0.6000061,0.8999939,0.6000061,1.3999939
			C323.5,200.1000061,323.2000122,200.8000031,322.5,201.5z"/>
		<path class="st9" d="M325.1000061,204.3999939c-0.2000122,0-0.2999878-0.1000061-0.5-0.1999969
			c-0.1000061-0.1000061-0.2000122-0.3000031-0.2000122-0.5s0.1000061-0.3000031,0.2000122-0.3999939
			c0.1000061-0.1000061,0.2999878-0.1999969,0.5-0.1999969s0.2999878,0.1000061,0.3999939,0.1999969
			c0.1000061,0.1000061,0.2000122,0.3000031,0.2000122,0.3999939c0,0.1999969-0.1000061,0.3000031-0.2000122,0.5
			S325.2999878,204.3999939,325.1000061,204.3999939z"/>
		<path class="st9" d="M329.1000061,200c0.6000061,0,1.1000061,0.1999969,1.5,0.6000061
			C331,201,331.2000122,201.5,331.2000122,202.1000061S331,203.3000031,330.5,203.7000122
			c-0.3999939,0.3999939-1,0.6000061-1.7000122,0.6000061c-0.7999878,0-1.3999939-0.3000031-1.7999878-0.8999939
			c-0.3999939-0.6000061-0.6000061-1.3999939-0.6000061-2.3000031c0-0.6000061,0.1000061-1.1999969,0.2999878-1.8000031
			c0.2000122-0.5,0.5-1,0.8999939-1.3000031c0.3999939-0.3999939,1-0.5,1.6000061-0.5
			c0.7000122,0,1.2999878,0.1999969,1.7000122,0.6000061L330.5,198.9000244
			c-0.3999939-0.3000031-0.7999878-0.3999939-1.2000122-0.3999939c-0.3999939,0-0.7000122,0.1000061-1,0.3999939
			c-0.5,0.5-0.7999878,1.1999969-0.7999878,2.1000061c0.1000061-0.3000031,0.3999939-0.5,0.7000122-0.6999969
			S328.7000122,200,329.1000061,200z M328.8999939,203.5c0.3999939,0,0.7000122-0.1000061,0.8999939-0.3999939
			C330,202.8000031,330.1999817,202.5,330.1999817,202.2000122c0-0.3999939-0.1000061-0.6999969-0.3999939-0.8999939
			c-0.2000122-0.1999969-0.5-0.3999939-0.8999939-0.3999939S328.1999817,201.0000305,328,201.3000183
			c-0.2000122,0.1999969-0.3999939,0.6000061-0.3999939,0.8999939c0,0.3999939,0.1000061,0.6999969,0.3999939,0.8999939
			C328.2000122,203.3000031,328.5,203.5,328.8999939,203.5z"/>
	</g>
	<g>
		<path class="st9" d="M406.7999878,122.4000015c-0.7000122,0-1.3999939-0.1999969-2.1000061-0.6999969l0.5-0.8000031
			c0.6000061,0.4000015,1.1000061,0.5,1.6000061,0.5c0.3999939,0,0.7000122-0.0999985,0.8999939-0.3000031
			c0.2000122-0.1999969,0.2999878-0.4000015,0.2999878-0.8000031c0-0.3000031-0.1000061-0.5999985-0.3999939-0.8000031
			c-0.2000122-0.1999969-0.5-0.3000031-0.8999939-0.3000031h-0.7999878v-0.9000015h0.7999878
			c0.2999878,0,0.6000061-0.0999985,0.7999878-0.3000031c0.2000122-0.1999969,0.2999878-0.4000015,0.2999878-0.6999969
			c0-0.3000031-0.1000061-0.5-0.2999878-0.6999969s-0.5-0.3000031-0.7999878-0.3000031
			c-0.3999939,0-0.8999939,0.1999969-1.3999939,0.5999985l-0.5-0.6999969c0.2000122-0.1999969,0.5-0.4000015,0.8999939-0.5999985
			c0.3999939-0.0999985,0.7000122-0.1999969,1.1000061-0.1999969c0.6000061,0,1.1000061,0.1999969,1.5,0.5
			s0.6000061,0.8000031,0.6000061,1.1999969c0,0.4000015-0.1000061,0.6999969-0.2999878,0.9000015
			c-0.2000122,0.3000031-0.5,0.5-0.7999878,0.5999985l0,0c0.3999939,0.0999985,0.7000122,0.3000031,1,0.5999985
			c0.2000122,0.3000031,0.2999878,0.5999985,0.2999878,1.0999985c0,0.5999985-0.2000122,1-0.6000061,1.4000015
			C408,122.1999969,407.5,122.4000015,406.7999878,122.4000015z"/>
		<path class="st9" d="M409.6000061,117.1999969L411.5,115.5999985h0.7999878v6.6999969h-1V117l-1.2000122,0.9000015
			L409.6000061,117.1999969z"/>
		<path class="st9" d="M414.2000122,122.4000015c-0.2000122,0-0.2999878-0.0999985-0.5-0.1999969
			s-0.2000122-0.3000031-0.2000122-0.5s0.1000061-0.3000031,0.2000122-0.4000015s0.2999878-0.1999969,0.5-0.1999969
			s0.2999878,0.0999985,0.3999939,0.1999969s0.2000122,0.3000031,0.2000122,0.4000015
			c0,0.1999969-0.1000061,0.3000031-0.2000122,0.5S414.3999939,122.4000015,414.2000122,122.4000015z"/>
		<path class="st9" d="M414.7999878,117.1999969l1.8999939-1.5999985h0.7999878v6.6999969h-1V117l-1.2000122,0.9000015
			L414.7999878,117.1999969z"/>
	</g>
	<g>
		<path class="st9" d="M407.6000061,246.8000031L409.5,245.1999969h0.7999878v6.6999969h-1v-5.3000031l-1.2000122,0.8999939
			L407.6000061,246.8000031z"/>
		<path class="st9" d="M415.3999939,251.6999969C415,251.8999939,414.6000061,252,414.1999817,252
			c-0.3999939,0-0.8999939-0.1000061-1.2000122-0.3000031c-0.6000061-0.3999939-1-1-1.2999878-1.8999939
			C411.5999756,249.4000092,411.5999756,249,411.5999756,248.5c0-0.3999939,0-0.8000031,0.1000061-1.1999969
			s0.2000122-0.8000031,0.5-1.1000061c0.2000122-0.3000031,0.5-0.6000061,0.7999878-0.8000031
			s0.7999878-0.3000031,1.2000122-0.3000031c0.5,0,0.8999939,0.1000061,1.2000122,0.3000031
			c0.6000061,0.3000031,1.1000061,1,1.2999878,1.8999939c0.2000122,0.8000031,0.2000122,1.6999969,0,2.5
			C416.5,250.6999969,416,251.3000031,415.3999939,251.6999969z M414.2000122,251c0.5,0,0.8999939-0.1999969,1.2000122-0.6999969
			c0.2999878-0.5,0.3999939-1.1000061,0.3999939-1.8000031s-0.1000061-1.3000031-0.3999939-1.8000031
			S414.7000122,246,414.2000122,246S413.3000183,246.1999969,413,246.6999969c-0.2999878,0.5-0.3999939,1-0.3999939,1.8000031
			c0,0.6999969,0.1000061,1.3000031,0.3999939,1.8000031S413.7000122,251,414.2000122,251z"/>
		<path class="st9" d="M418.2000122,252c-0.2000122,0-0.2999878-0.1000061-0.5-0.1999969
			C417.6000061,251.6999969,417.5,251.5,417.5,251.3000031s0.1000061-0.3000031,0.2000122-0.3999939
			c0.1000061-0.1000061,0.2999878-0.1999969,0.5-0.1999969s0.2999878,0.1000061,0.3999939,0.1999969
			c0.1000061,0.1000061,0.2000122,0.3000031,0.2000122,0.3999939c0,0.1999969-0.1000061,0.3000031-0.2000122,0.5
			S418.2999878,252,418.2000122,252z"/>
		<path class="st9" d="M421.8999939,245.1000061c0.7999878,0,1.3999939,0.3000031,1.7999878,0.8999939
			c0.3999939,0.6000061,0.6000061,1.3999939,0.6000061,2.3000031c0,0.5-0.1000061,1-0.2000122,1.3999939
			s-0.2999878,0.8000031-0.5,1.1999969c-0.2000122,0.3000031-0.5,0.6000061-0.8999939,0.8000031S421.8999939,252,421.4999695,252
			c-0.7000122,0-1.2999878-0.1999969-1.7999878-0.6000061l0.3999939-0.8000031c0.3999939,0.3000031,0.8999939,0.5,1.2999878,0.5
			c0.6000061,0,1-0.1999969,1.2999878-0.6999969s0.5-1,0.5-1.6999969c-0.2000122,0.3000031-0.3999939,0.5-0.7000122,0.6000061
			s-0.6000061,0.1999969-1,0.1999969c-0.6000061,0-1.1000061-0.1999969-1.5-0.6000061
			c-0.3999939-0.3999939-0.6000061-0.8999939-0.6000061-1.5s0.2000122-1.1999969,0.6000061-1.6000061
			C420.7000122,245.3000031,421.2000122,245.1000061,421.8999939,245.1000061z M423.1000061,247.3000031
			c0-0.3999939-0.1000061-0.6999969-0.3999939-0.8999939c-0.2000122-0.3000031-0.5-0.3999939-0.8999939-0.3999939
			s-0.7000122,0.1000061-0.8999939,0.3999939c-0.2000122,0.3000031-0.3999939,0.6000061-0.3999939,0.8999939
			c0,0.3999939,0.1000061,0.6999969,0.3999939,0.8999939c0.2000122,0.1999969,0.5,0.3999939,0.8999939,0.3999939
			s0.7000122-0.1000061,0.8999939-0.3999939C423,248,423.1000061,247.6999969,423.1000061,247.3000031z"/>
	</g>
	<g>
		<path class="st9" d="M323.2000122,256.5h0.7000122v0.8999939h-0.7000122V259h-1v-1.6000061h-3L319,256.7999878
			l3.6000061-4.3999939h0.7000122V256.5H323.2000122z M322.2999878,254.1000061l-2,2.3999939h2V254.1000061z"/>
		<path class="st9" d="M325.3999939,259.2000122c-0.2000122,0-0.2999878-0.1000061-0.5-0.2000122
			c-0.1000061-0.1000061-0.2000122-0.2999878-0.2000122-0.5s0.1000061-0.2999878,0.2000122-0.3999939
			s0.2999878-0.2000122,0.5-0.2000122s0.2999878,0.1000061,0.3999939,0.2000122S326,258.3999939,326,258.5
			c0,0.2000122-0.1000061,0.2999878-0.2000122,0.5C325.7000122,259.1000061,325.6000061,259.2000122,325.3999939,259.2000122z"/>
		<path class="st9" d="M329.2000122,252.3000031c0.7999878,0,1.3999939,0.3000031,1.7999878,0.8999939
			c0.3999939,0.6000061,0.6000061,1.3999939,0.6000061,2.3000031c0,0.5-0.1000061,1-0.2000122,1.3999939
			s-0.2999878,0.7999878-0.5,1.2000122c-0.2000122,0.2999878-0.5,0.6000061-0.8999939,0.7999878
			c-0.3999939,0.2000122-0.7999878,0.2999878-1.2000122,0.2999878c-0.7000122,0-1.2999878-0.2000122-1.7999878-0.6000061
			l0.3999939-0.7999878c0.3999939,0.2999878,0.8999939,0.5,1.2999878,0.5c0.6000061,0,1-0.2000122,1.2999878-0.7000122
			s0.5-1,0.5-1.6999969c-0.2000122,0.3000031-0.3999939,0.4999847-0.7000122,0.5999908s-0.6000061,0.2000122-1,0.2000122
			c-0.6000061,0-1.1000061-0.2000122-1.5-0.6000061s-0.6000061-0.8999939-0.6000061-1.5s0.2000122-1.1999969,0.6000061-1.6000061
			C327.8999939,252.5,328.5,252.3000031,329.2000122,252.3000031z M330.3999939,254.5
			c0-0.3999939-0.1000061-0.6999969-0.3999939-0.8999939c-0.2000122-0.3000031-0.5-0.3999939-0.8999939-0.3999939
			s-0.7000122,0.1000061-0.8999939,0.3999939C328,253.9000092,327.8000183,254.2000122,327.8000183,254.5
			c0,0.3999939,0.1000061,0.6999969,0.3999939,0.8999939c0.2000122,0.1999969,0.5,0.3999939,0.8999939,0.3999939
			s0.7000122-0.1000061,0.8999939-0.3999939C330.2999878,255.1999969,330.3999939,254.8999939,330.3999939,254.5z"/>
	</g>
	<g>
		<path class="st9" d="M266.2000122,269.8999939h0.7000122v0.8999939h-0.7000122v1.6000061h-1v-1.6000061h-3L262,270.1999817
			l3.6000061-4.3999939h0.7000122v4.1000061H266.2000122z M265.2000122,267.5l-2,2.3999939h2V267.5z"/>
		<path class="st9" d="M268.3999939,272.6000061c-0.2000122,0-0.2999878-0.1000061-0.5-0.2000122
			c-0.1000061-0.1000061-0.2000122-0.2999878-0.2000122-0.5s0.1000061-0.2999878,0.2000122-0.3999939
			s0.2999878-0.2000122,0.5-0.2000122s0.2999878,0.1000061,0.3999939,0.2000122S269,271.7999878,269,271.8999939
			c0,0.2000122-0.1000061,0.2999878-0.2000122,0.5C268.7000122,272.5,268.6000061,272.6000061,268.3999939,272.6000061z"/>
		<path class="st9" d="M273,269.7000122L271.3999939,271.5h2.7000122v1h-4.2000122v-0.8999939L272,269.3000183l0.5-0.6000061
			c0.1000061-0.1000061,0.2000122-0.2999878,0.2999878-0.5s0.1000061-0.3999939,0.1000061-0.6000061
			c0-0.2999878-0.1000061-0.5-0.2999878-0.7000122c-0.2000122-0.2000122-0.5-0.2999878-0.7999878-0.2999878
			c-0.5,0-1,0.2000122-1.6000061,0.7000122l-0.6000061-0.7000122c0.7000122-0.6000061,1.3999939-1,2.2000122-1
			c0.6000061,0,1.1000061,0.2000122,1.5,0.6000061s0.6000061,0.8999939,0.6000061,1.3999939
			C274,268.2999878,273.7000122,268.8999939,273,269.7000122z"/>
	</g>
	<g>
		<path class="st9" d="M265.7000122,327.7000122l1.8999939-1.6000061h0.7999878v6.7000122h-1v-5.2999878l-1.2000122,0.8999939
			L265.7000122,327.7000122z"/>
		<path class="st9" d="M273.6000061,330.2000122h0.7000122v0.8999939h-0.7000122v1.6000061h-1v-1.6000061h-3L269.3999939,330.5
			L273,326.1000061h0.7000122v4.1000061H273.6000061z M272.6000061,327.7999878l-2,2.3999939h2V327.7999878z"/>
		<path class="st9" d="M275.7000122,332.8999939c-0.2000122,0-0.2999878-0.1000061-0.5-0.2000122
			c-0.1000061-0.1000061-0.2000122-0.2999878-0.2000122-0.5s0.1000061-0.2999878,0.2000122-0.3999939
			s0.2999878-0.2000122,0.5-0.2000122s0.2999878,0.1000061,0.3999939,0.2000122s0.2000122,0.2999878,0.2000122,0.3999939
			c0,0.2000122-0.1000061,0.2999878-0.2000122,0.5C276,332.7999878,275.8999939,332.8999939,275.7000122,332.8999939z"/>
		<path class="st9" d="M279.5,326c0.7999878,0,1.3999939,0.2999878,1.7999878,0.8999939s0.6000061,1.3999939,0.6000061,2.2999878
			c0,0.5-0.1000061,1-0.2000122,1.3999939s-0.2999878,0.7999878-0.5,1.2000122
			c-0.2000122,0.2999878-0.5,0.6000061-0.8999939,0.7999878c-0.3999939,0.2000122-0.7999878,0.2999878-1.2000122,0.2999878
			c-0.7000122,0-1.2999878-0.2000122-1.7999878-0.6000061l0.3999939-0.7999878c0.3999939,0.2999878,0.8999939,0.5,1.2999878,0.5
			c0.6000061,0,1-0.2000122,1.2999878-0.7000122s0.5-1,0.5-1.7000122c-0.2000122,0.2999878-0.3999939,0.5-0.7000122,0.6000061
			s-0.6000061,0.2000122-1,0.2000122c-0.6000061,0-1.1000061-0.2000122-1.5-0.6000061s-0.6000061-0.8999939-0.6000061-1.5
			s0.2000122-1.2000122,0.6000061-1.6000061C278.2000122,326.2000122,278.7999878,326,279.5,326z M280.7000122,328.2000122
			c0-0.3999939-0.1000061-0.7000122-0.3999939-0.8999939c-0.2000122-0.2999878-0.5-0.3999939-0.8999939-0.3999939
			s-0.7000122,0.1000061-0.8999939,0.3999939c-0.2000122,0.2999878-0.3999939,0.6000061-0.3999939,0.8999939
			c0,0.3999939,0.1000061,0.7000122,0.3999939,0.8999939c0.2000122,0.2000122,0.5,0.3999939,0.8999939,0.3999939
			s0.7000122-0.1000061,0.8999939-0.3999939C280.6000061,328.7999878,280.7000122,328.5,280.7000122,328.2000122z"/>
	</g>
	<g>
		<path class="st9" d="M347.2000122,312c0.6000061,0,1.1000061,0.2000122,1.5,0.6000061s0.6000061,0.8999939,0.6000061,1.5
			s-0.2000122,1.2000122-0.7000122,1.6000061c-0.3999939,0.3999939-1,0.6000061-1.7000122,0.6000061
			c-0.7999878,0-1.3999939-0.2999878-1.7999878-0.8999939S344.5,314.0000305,344.5,313.1000366
			c0-0.6000061,0.1000061-1.2000122,0.2999878-1.7999878c0.2000122-0.5,0.5-1,0.8999939-1.2999878
			c0.3999939-0.3999939,1-0.5,1.6000061-0.5c0.7000122,0,1.2999878,0.2000122,1.7000122,0.6000061l-0.3999939,0.7999878
			c-0.3999939-0.2999878-0.7999878-0.3999939-1.2000122-0.3999939c-0.3999939,0-0.7000122,0.1000061-1,0.3999939
			c-0.5,0.5-0.7999878,1.2000122-0.7999878,2.1000061c0.1000061-0.2999878,0.3999939-0.5,0.7000122-0.7000122
			S346.7999878,312,347.2000122,312z M347,315.5c0.3999939,0,0.7000122-0.1000061,0.8999939-0.3999939
			c0.2000122-0.2999878,0.3999939-0.6000061,0.3999939-0.8999939c0-0.3999939-0.1000061-0.7000122-0.3999939-0.8999939
			c-0.2000122-0.2000122-0.5-0.3999939-0.8999939-0.3999939s-0.7000122,0.1000061-0.8999939,0.3999939
			c-0.2000122,0.2000122-0.3999939,0.6000061-0.3999939,0.8999939c0,0.3999939,0.1000061,0.7000122,0.3999939,0.8999939
			C346.2999878,315.3999939,346.7000122,315.5,347,315.5z"/>
		<path class="st9" d="M350.7999878,316.5c-0.2000122,0-0.2999878-0.1000061-0.5-0.2000122
			c-0.1000061-0.1000061-0.2000122-0.2999878-0.2000122-0.5s0.1000061-0.2999878,0.2000122-0.3999939
			s0.2999878-0.2000122,0.5-0.2000122s0.2999878,0.1000061,0.3999939,0.2000122s0.2000122,0.2999878,0.2000122,0.3999939
			c0,0.2000122-0.1000061,0.2999878-0.2000122,0.5C351.1000061,316.3999939,350.8999939,316.5,350.7999878,316.5z"/>
		<path class="st9" d="M351.7999878,310.6000061v-0.8999939H356v0.7000122l-2.5,6h-1.1000061l2.5-5.7000122h-3.1000061V310.6000061z
			"/>
	</g>
	<g>
		<path class="st9" d="M335.7999878,363.7000122c0.7999878,0,1.3999939,0.2999878,1.7999878,0.8999939
			s0.6000061,1.3999939,0.6000061,2.2999878c0,0.5-0.1000061,1-0.2000122,1.3999939s-0.2999878,0.7999878-0.5,1.2000122
			c-0.2000122,0.2999878-0.5,0.6000061-0.8999939,0.7999878c-0.3999939,0.2000122-0.7999878,0.2999878-1.2000122,0.2999878
			c-0.7000122,0-1.2999878-0.2000122-1.7999878-0.6000061l0.3999939-0.7999878c0.3999939,0.2999878,0.8999939,0.5,1.2999878,0.5
			c0.6000061,0,1-0.2000122,1.2999878-0.7000122s0.5-1,0.5-1.7000122c-0.2000122,0.2999878-0.3999939,0.5-0.7000122,0.6000061
			s-0.6000061,0.2000122-1,0.2000122c-0.6000061,0-1.1000061-0.2000122-1.5-0.6000061s-0.6000061-0.8999939-0.6000061-1.5
			s0.2000122-1.2000122,0.6000061-1.6000061C334.6000061,363.8999939,335.2000122,363.7000122,335.7999878,363.7000122z
			 M337.1000061,365.8999939C337.1000061,365.5,337,365.1999817,336.7000122,365
			c-0.2000122-0.2999878-0.5-0.3999939-0.8999939-0.3999939S335.1000061,364.7000122,334.9000244,365
			c-0.2000122,0.2999878-0.3999939,0.6000061-0.3999939,0.8999939c0,0.3999939,0.1000061,0.7000122,0.3999939,0.8999939
			c0.2000122,0.2000122,0.5,0.3999939,0.8999939,0.3999939s0.7000122-0.1000061,0.8999939-0.3999939
			C337,366.6000061,337.1000061,366.2999878,337.1000061,365.8999939z"/>
		<path class="st9" d="M339.6000061,370.6000061c-0.2000122,0-0.2999878-0.1000061-0.5-0.2000122
			c-0.1000061-0.1000061-0.2000122-0.2999878-0.2000122-0.5S339,369.6000061,339.1000061,369.5s0.2999878-0.2000122,0.5-0.2000122
			S339.8999939,369.3999939,340,369.5s0.2000122,0.2999878,0.2000122,0.3999939c0,0.2000122-0.1000061,0.2999878-0.2000122,0.5
			C339.8999939,370.5,339.7000122,370.6000061,339.6000061,370.6000061z"/>
		<path class="st9" d="M343.2000122,366.1000061c0.6000061,0,1.2000122,0.2000122,1.6000061,0.6000061
			s0.6000061,0.8999939,0.6000061,1.6000061s-0.2000122,1.2000122-0.7000122,1.6000061
			c-0.3999939,0.3999939-1,0.6000061-1.7000122,0.6000061c-0.7999878,0-1.5-0.2999878-2.2000122-0.7999878l0.5-0.7999878
			c0.6000061,0.3999939,1.1000061,0.6000061,1.7000122,0.6000061c0.3999939,0,0.7000122-0.1000061,1-0.3999939
			c0.2999878-0.2000122,0.3999939-0.5,0.3999939-0.8999939S344.2999878,367.500061,344,367.3000793
			c-0.2000122-0.2000122-0.6000061-0.3999939-1-0.3999939c-0.5,0-0.8999939,0.2000122-1.2000122,0.5l-0.6000061-0.3999939
			l0.3999939-3.2999878h3.3999939v0.8999939h-2.6000061l-0.2000122,1.6000061
			C342.5,366.2000122,342.8999939,366.1000061,343.2000122,366.1000061z"/>
	</g>
	<g>
		<path class="st9" d="M433.7000122,348l1.8999939-1.6000061h0.7999878v6.7000122h-1v-5.2999878l-1.2000122,0.8999939
			L433.7000122,348z"/>
		<path class="st9" d="M439.5,353.2000122c-0.7000122,0-1.3999939-0.2000122-2.1000061-0.7000122l0.5-0.7999878
			c0.6000061,0.3999939,1.1000061,0.5,1.6000061,0.5c0.3999939,0,0.7000122-0.1000061,0.8999939-0.2999878
			c0.2000122-0.2000122,0.2999878-0.3999939,0.2999878-0.7999878c0-0.2999878-0.1000061-0.6000061-0.3999939-0.7999878
			c-0.2000122-0.2000122-0.5-0.2999878-0.8999939-0.2999878h-0.7999878v-0.8999939h0.7999878
			c0.2999878,0,0.6000061-0.1000061,0.7999878-0.2999878c0.2000122-0.2000122,0.2999878-0.3999939,0.2999878-0.7000122
			c0-0.2999878-0.1000061-0.5-0.2999878-0.7000122s-0.5-0.2999878-0.7999878-0.2999878
			C439,347.1000671,438.5,347.3000793,438,347.7000732l-0.5-0.7000122c0.2000122-0.2000122,0.6000061-0.3999939,0.8999939-0.6000061
			c0.3999939-0.1000061,0.7000122-0.2000122,1.1000061-0.2000122c0.6000061,0,1.1000061,0.2000122,1.5,0.5
			s0.6000061,0.7999878,0.6000061,1.2000122c0,0.3999939-0.1000061,0.7000122-0.2999878,0.8999939
			c-0.2000122,0.2999878-0.5,0.5-0.7999878,0.6000061l0,0c0.3999939,0.1000061,0.7000122,0.2999878,1,0.6000061
			c0.2000122,0.2999878,0.2999878,0.6000061,0.2999878,1.1000061c0,0.6000061-0.2000122,1-0.6000061,1.3999939
			C440.7999878,353,440.2000122,353.2000122,439.5,353.2000122z"/>
		<path class="st9" d="M443.2999878,353.2000122c-0.2000122,0-0.2999878-0.1000061-0.5-0.2000122
			s-0.2000122-0.2999878-0.2000122-0.5s0.1000061-0.2999878,0.2000122-0.3999939s0.2999878-0.2000122,0.5-0.2000122
			s0.2999878,0.1000061,0.3999939,0.2000122s0.2000122,0.2999878,0.2000122,0.3999939
			c0,0.2000122-0.1000061,0.2999878-0.2000122,0.5S443.5,353.2000122,443.2999878,353.2000122z"/>
		<path class="st9" d="M447,348.7999878c0.6000061,0,1.2000122,0.2000122,1.6000061,0.6000061
			s0.6000061,0.8999939,0.6000061,1.6000061S449,352.2000122,448.5,352.6000061
			c-0.3999939,0.3999939-1,0.6000061-1.7000122,0.6000061c-0.7999878,0-1.5-0.2999878-2.2000122-0.7999878l0.5-0.7999878
			c0.6000061,0.3999939,1.1000061,0.6000061,1.7000122,0.6000061c0.3999939,0,0.7000122-0.1000061,1-0.3999939
			c0.2999878-0.2000122,0.3999939-0.5,0.3999939-0.8999939s-0.1000061-0.7000122-0.3999939-0.8999939
			c-0.2000122-0.2000122-0.6000061-0.3999939-1-0.3999939c-0.5,0-0.8999939,0.2000122-1.2000122,0.5l-0.6000061-0.3999939
			l0.3999939-3.2999878h3.3999939v0.8999939h-2.6000061L446,349C446.2999878,348.7999878,446.7000122,348.7999878,447,348.7999878z"
			/>
	</g>
</g>
<g id="street_anchors" class="st16">
	<rect id="street_anchor_01" x="355" y="450" class="st17" width="10" height="10"/>
	<rect id="street_anchor_02" x="515.2000122" y="235" class="st17" width="10" height="10"/>
</g>
</svg>
