<?xml version="1.0" encoding="utf-8"?>
<!-- Generator: Adobe Illustrator 24.2.0, SVG Export Plug-In . SVG Version: 6.00 Build 0)  -->
<!DOCTYPE svg PUBLIC "-//W3C//DTD SVG 1.1//EN" "http://www.w3.org/Graphics/SVG/1.1/DTD/svg11.dtd" [
	<!ENTITY ns_extend "http://ns.adobe.com/Extensibility/1.0/">
	<!ENTITY ns_ai "http://ns.adobe.com/AdobeIllustrator/10.0/">
	<!ENTITY ns_graphs "http://ns.adobe.com/Graphs/1.0/">
	<!ENTITY ns_vars "http://ns.adobe.com/Variables/1.0/">
	<!ENTITY ns_imrep "http://ns.adobe.com/ImageReplacement/1.0/">
	<!ENTITY ns_sfw "http://ns.adobe.com/SaveForWeb/1.0/">
	<!ENTITY ns_custom "http://ns.adobe.com/GenericCustomNamespace/1.0/">
	<!ENTITY ns_adobe_xpath "http://ns.adobe.com/XPath/1.0/">
]>
<svg version="1.1" id="_x31__x5F_2" xmlns:x="&ns_extend;" xmlns:i="&ns_ai;" xmlns:graph="&ns_graphs;"
	 xmlns="http://www.w3.org/2000/svg" xmlns:xlink="http://www.w3.org/1999/xlink" x="0px" y="0px" viewBox="0 0 720 480"
	 style="enable-background:new 0 0 720 480;" xml:space="preserve">
<style type="text/css">
	.st0{fill:#DBD4CA;}
	.st1{opacity:0.3;}
	.st2{opacity:0.7;fill:#C49F8A;enable-background:new    ;}
	.st3{fill:#C49F8A;}
	.st4{fill:#E9E4DC;}
	.st5{fill:#E9E4DC;stroke:#C49F8A;}
	.st6{fill:none;stroke:#C49F8A;}
	.st7{fill:#E9E4DC;stroke:#C49F8A;stroke-width:0.9999701;stroke-miterlimit:3.9996815;}
	.st8{fill:#565440;}
	.st9{opacity:0;}
	.st10{fill:none;}
	.st11{fill:none;stroke:#565440;}
	.st12{fill:none;stroke:#565440;stroke-width:1.0000414;stroke-miterlimit:4.0001655;}
</style>
<metadata>
	<sfw  xmlns="&ns_sfw;">
		<slices></slices>
		<sliceSourceBounds  bottomLeftOrigin="true" height="360" width="492.2370605" x="108.9820023" y="60"></sliceSourceBounds>
	</sfw>
</metadata>
<polygon id="Floor" class="st0" points="536.019043,70.1999283 536.019043,103.3999329 550.6841431,112.6365051 
	529.2454224,195.0858917 528.6190186,260.5999146 549.0797729,273.1239014 528.4539795,351.4723816 529.1190186,419.524292 
	159.1963196,419.7362061 158.9190216,70.1999283 "/>
<g id="Wet_floor">
	<g class="st1">
		<rect x="168.2190094" y="240.5999603" class="st2" width="106.6000214" height="171.3000641"/>
	</g>
	<polygon class="st3" points="274.8190308,407.0999146 270.7190247,411.0999146 271.4190369,411.7998962 274.8190308,408.4999084 	
		"/>
	<path class="st3" d="M274.6190186,240.5999603h-1.3999939l-4.3999939,4.3999939l-4.3999939-4.3999939h-1.3999939
		l5.1000061,5.1000061l-9.7000122,9.6999969l-9.8000031-9.8000031l5.1000061-5.1000061h-1.3999939l-4.3999939,4.3999939
		l-4.3999939-4.3999939h-1.3999939l5.1000061,5.1000061l-9.8000031,9.8000031l-9.6999969-9.6999969l5.1000061-5.1000061h-1.500061
		l-4.3999939,4.3999939l-4.3999939-4.3999939h-1.3999939l5.1000061,5.1000061l-10,10l-9.8000031-9.8000031l5.3000031-5.3000031
		h-1.4000244l-4.6000061,4.6000061l-4.6000061-4.6000061h-1.3999939l5.3000031,5.3000031l-9.8000031,9.8000031l-10-10
		l5.1000061-5.1000061h-1.3999939l-4.3999939,4.3999939l-4.3999939-4.3999939h-1.3999939l5.1000061,5.1000061l-9.6999969,9.6999969
		l-5.8999939-5.8999939v1.3999939l5.1999969,5.1999512l-5.1999969,5.2000122v1.3999939l5.8999939-5.8999939l10,10
		l-9.8000031,9.7999878l-6.1000061-6.1000061v1.3999939l5.3999939,5.3999939l-5.3999939,5.3999939v1.3999939l6.1000061-6.1000061
		l9.8000031,9.7999878l-9.8000031,9.7999878l-6.1000061-6.1000061v1.3999939l5.3999939,5.3999939l-5.3999939,5.3999939v1.3999939
		l6.1000061-6.1000061l9.6999969,9.7000122l-9.8000031,9.7999878l-6-6v1.3999939l5.3000031,5.2999878l-5.3000031,5.2999878
		v1.3999939l6-6l9.8000031,9.7999878l-9.6999969,9.7000122l-6.1000061-6.1000061v1.3999939l5.3999939,5.3999939
		l-5.3999939,5.3999939v1.3999939l6.1000061-6.1000061l9.8000031,9.7999878l-9.8000031,9.7999878l-6.1000061-6.1000061v1.3999939
		l5.3999939,5.3999939l-5.3999939,5.3999939v1.3999939l6.1000061-6.1000061l9.6999969,9.7000122l-10,10l-5.8000031-5.7999878
		v1.3999939l5.1000061,5.1000061l-5.1000061,5.1000061v1.3999939l5.8000031-5.7999878l9.8000031,9.7999878l-9.8000031,9.7999878
		l-5.8000031-5.7999878v1.3999939l5.1000061,5.1000061l-5.1000061,5.1000061v1.3999939l5.8000031-5.7999878l7.8000031,7.7999878
		l0.6999969-0.7000122l-7.8000031-7.7999878l9.8000031-9.7999878l10,10l-7.6000061,7.6000061l0.6999969,0.7000122
		l7.6000061-7.6000061l7.6000061,7.6000061l0.6999969-0.7000122l-7.6000061-7.6000061l10-10l9.8000031,9.7999878
		l-7.8000031,7.7999878l0.6999969,0.7000122l7.8000031-7.7999878l7.8000031,7.7999878l0.6999969-0.7000122l-7.8000031-7.7999878
		l9.8000031-9.7999878l9.6999969,9.7000122l-7.8999939,7.8999939l0.6999969,0.7000122l7.8999939-7.8999939l7.8999939,7.8999939
		l0.6999969-0.7000122l-7.8999939-7.8999939l9.6999969-9.7000122l9.8000183,9.7999878l-7.8000183,7.7999878l0.6999969,0.7000122
		l7.8000031-7.7999878l7.8000183,7.7999878l0.7000122-0.7000122l-7.8000183-7.7999878l9.8000183-9.7999878l6.1000061,6.1000061
		v-1.3999939l-5.2999878-5.2999878l5.2999878-5.2999878v-1.4998474l-6.1000061,6.1000061l-9.8000183-9.7999878l9.8000183-9.7999878
		l6,6v-1.3999939l-5.2999878-5.2999878l5.2999878-5.2999878v-1.3999939l-6,6l-9.7000122-9.7000122l9.8000183-9.7999878l6,6
		v-1.3999939l-5.2999878-5.2999878l5.2999878-5.2999878v-1.3999939l-6,6l-9.8000183-9.7999878l9.7000122-9.7000122l6,6v-1.3999939
		l-5.2999878-5.2999878l5.2999878-5.2999878v-1.3999939l-6,6l-10-10l9.7999878-9.7999878l6.2000122,6.2000122v-1.3999939l-5.5-5.5
		l5.5-5.5v-1.3999939l-6.2000122,6.2000122l-9.8000183-9.7999878l10.0000305-10l6,6v-1.3999939l-5.2999878-5.2999878
		l5.2999878-5.2999878v-1.3999939l-6,6l-9.7000122-9.7000122l9.8000183-9.7999878l6,6v-1.3999939l-5.2999878-5.2999878
		l5.2999878-5.2999878v-1.4002686l-6,6l-9.8000183-9.7999878l9.7000122-9.6999512l6,6v-1.3999939l-5.2999878-5.3000031
		L274.6190186,240.5999603z M247.8190155,246.3999481l9.8000031,9.799942l-9.8000031,9.7999878l-9.8000031-9.7999878
		L247.8190155,246.3999481z M216.9190216,319.2998962l9.8000031-9.7999878l9.6999969,9.7000122l-9.8000031,9.7999878
		L216.9190216,319.2998962z M225.9190216,329.6999207l-9.8000031,9.7999878l-9.6999969-9.7000122l9.8000031-9.7999878
		L225.9190216,329.6999207z M216.9190216,298.2998962l9.6999969-9.7000122l9.8000031,9.7999878l-9.6999969,9.7000122
		L216.9190216,298.2998962z M226.0190125,308.7998962l-9.8000031,9.7999878l-9.8000031-9.7999878l9.8000031-9.7999878
		L226.0190125,308.7998962z M205.7190094,308.0999146l-9.8000031-9.7999878l9.8000031-9.7999878l9.8000031,9.7999878
		L205.7190094,308.0999146z M215.5190125,319.2998962l-9.8000031,9.7999878l-9.8000031-9.7999878l9.8000031-9.7999878
		L215.5190125,319.2998962z M215.4190216,340.1999207l-9.8000031,9.7999878l-9.6999969-9.7000122l9.8000031-9.7999878
		L215.4190216,340.1999207z M216.1190186,340.8999023l9.8000031,9.7999878l-9.8000031,9.7999878l-9.8000031-9.7999878
		L216.1190186,340.8999023z M216.8190155,340.1999207l9.8000031-9.7999878l9.8000031,9.7999878l-9.8000031,9.7999878
		L216.8190155,340.1999207z M237.1190186,340.8999023l10,10l-9.8000031,9.7999878l-10-10L237.1190186,340.8999023z
		 M227.3190155,329.6999207l9.8000031-9.7999878l9.8000031,9.7999878l-9.8000031,9.7999878L227.3190155,329.6999207z
		 M227.4190216,308.7998962l9.6999969-9.7000122l9.6999969,9.7000122l-9.6999969,9.7000122L227.4190216,308.7998962z
		 M227.3190155,287.8999023l9.8000031-9.7999878l9.8000031,9.7999878l-9.8000031,9.7999878L227.3190155,287.8999023z
		 M226.6190186,287.1999207l-9.8000031-9.7999878l9.8000031-9.7999878l9.8000031,9.7999878L226.6190186,287.1999207z
		 M225.9190216,287.8999023l-9.6999969,9.7000122l-9.8000031-9.7999878l9.6999969-9.7000122L225.9190216,287.8999023z
		 M205.7190094,287.0999146l-9.6999969-9.7000122l9.6999969-9.7000122l9.6999969,9.7000122L205.7190094,287.0999146z
		 M205.0190125,287.7998962l-9.8000031,9.7999878l-9.6999969-9.7000122l9.8000031-9.7999878L205.0190125,287.7998962z
		 M205.0190125,308.7998962l-9.8000031,9.7999878l-9.8000031-9.7999878l9.8000031-9.7999878L205.0190125,308.7998962z
		 M205.0190125,329.7998962l-9.8000031,9.7999878l-9.8000031-9.7999878l9.8000031-9.7999878L205.0190125,329.7998962z
		 M204.9190216,350.6999207l-9.6999969,9.7000122l-9.6999969-9.7000122l9.6999969-9.7000122L204.9190216,350.6999207z
		 M205.0190125,371.5999146l-9.8000031,9.7999878l-9.8000031-9.7999878l9.8000031-9.7999878L205.0190125,371.5999146z
		 M195.9190216,361.0999146l9.6999969-9.7000122l9.8000031,9.7999878l-9.6999969,9.7000122L195.9190216,361.0999146z
		 M216.1190186,361.8999023l10,10l-9.6999969,9.7000122l-10-10L216.1190186,361.8999023z M216.8190155,361.1999207
		l9.8000031-9.7999878l10,10l-9.8000031,9.7999878L216.8190155,361.1999207z M237.3190155,362.0999146l9.8000031,9.7999878
		l-9.8000031,9.7999878l-9.8000031-9.7999878L237.3190155,362.0999146z M238.0190125,361.3999023l9.8000031-9.7999878
		l9.8000031,9.7999878l-9.8000031,9.7999878L238.0190125,361.3999023z M237.8190155,340.1999207l9.8000031-9.7999878l10,10
		l-9.8000031,9.7999878L237.8190155,340.1999207z M237.8190155,319.1999207l9.6999969-9.7000122l9.8000183,9.7999878
		l-9.7000122,9.7000122L237.8190155,319.1999207z M237.8190155,298.3999023l9.8000031-9.7999878l9.7000122,9.7000122
		l-9.8000183,9.7999878L237.8190155,298.3999023z M237.8190155,277.3999023l10-10l9.8000031,9.7999878l-10,10
		L237.8190155,277.3999023z M247.1190186,266.6999207l-10,10l-9.8000031-9.7999878l10-10L247.1190186,266.6999207z
		 M226.9190216,246.4999542l9.6999969,9.6999664l-10,10l-9.6999969-9.7000122L226.9190216,246.4999542z M225.9190216,266.8999023
		l-9.8000031,9.7999878l-9.6999969-9.7000122l9.8000031-9.7999878L225.9190216,266.8999023z M205.7190094,246.6999512
		l9.8000031,9.7999573l-9.8000031,9.7999878l-9.8000031-9.7999878L205.7190094,246.6999512z M205.0190125,266.8999023
		l-9.6999969,9.7000122l-9.8000031-9.7999878l9.6999969-9.7000122L205.0190125,266.8999023z M174.8190155,256.1999207
		l9.6999969-9.6999512l10,9.999939l-9.6999969,9.7000122L174.8190155,256.1999207z M175.0190125,277.3999023l9.8000031-9.7999878
		l9.8000031,9.7999878l-9.8000031,9.7999878L175.0190125,277.3999023z M175.0190125,298.3999023l9.8000031-9.7999878
		l9.6999969,9.7000122l-9.8000031,9.7999878L175.0190125,298.3999023z M174.9190216,319.2998962l9.8000031-9.7999878
		l9.8000031,9.7999878l-9.8000031,9.7999878L174.9190216,319.2998962z M175.0190125,340.1999207l9.6999969-9.7000122
		l9.8000031,9.7999878l-9.6999969,9.7000122L175.0190125,340.1999207z M175.0190125,361.1999207l9.8000031-9.7999878
		l9.6999969,9.7000122l-9.8000031,9.7999878L175.0190125,361.1999207z M174.7190094,382.2998962l10-10l9.8000031,9.7999878l-10,10
		L174.7190094,382.2998962z M195.2190094,402.7998962l-10-10l10-10l10,10L195.2190094,402.7998962z M195.9190216,382.0999146
		l9.8000031-9.7999878l10,10l-9.8000031,9.7999878L195.9190216,382.0999146z M216.4190216,402.5999146l-9.8000031-9.7999878
		l9.8000031-9.7999878l9.8000031,9.7999878L216.4190216,402.5999146z M217.1190186,382.2998962l9.6999969-9.7000122
		l9.8000031,9.7999878l-9.6999969,9.7000122L217.1190186,382.2998962z M237.3190155,402.4999084l-9.6999969-9.7000122
		l9.6999969-9.7000122l9.6999969,9.7000122L237.3190155,402.4999084z M238.0190125,382.3999023l9.8000031-9.7999878
		l9.6999969,9.7000122l-9.8000031,9.7999878L238.0190125,382.3999023z M268.019043,392.7998962l-9.8000183,9.7999878
		l-9.8000031-9.7999878l9.8000031-9.7999878L268.019043,392.7998962z M268.019043,371.7998962l-9.8000183,9.7999878
		l-9.6999969-9.7000122l9.8000031-9.7999878L268.019043,371.7998962z M268.1190186,350.8999023l-9.8000183,9.7999878
		l-9.8000031-9.7999878l9.8000031-9.7999878L268.1190186,350.8999023z M268.019043,329.9999084l-9.7000122,9.7000122l-10-10
		l9.7000122-9.7000122L268.019043,329.9999084z M267.8190308,308.7998962l-9.8000183,9.7999878l-9.8000031-9.7999878
		l9.8000031-9.7999878L267.8190308,308.7998962z M268.019043,287.5999146l-10,10l-9.7000122-9.7000122l10-10L268.019043,287.5999146
		z M268.1190186,266.6999207l-9.8000183,9.7999878l-9.8000031-9.7999878l9.8000031-9.7999878L268.1190186,266.6999207z"/>
</g>
<g id="Furniture_2_">
	<g>
		<path class="st4" d="M421.2947998,111.3999329c-5.7999878,0-10.5-4.6999969-10.5-10.5s4.7000122-10.5,10.5-10.5
			s10.5,4.6999969,10.5,10.5S426.9947815,111.3999329,421.2947998,111.3999329z"/>
		<path class="st3" d="M421.2947998,90.8999329c2.7000122,0,5.2000122,1,7,2.9000015s2.8999939,4.4000015,2.8999939,7
			c0,5.5-4.5,10-10,10s-10-4.5-10-10C411.2947998,95.3999329,415.7947998,90.8999329,421.2947998,90.8999329
			 M421.2947998,89.8999329c-6.1000061,0-11,4.9000015-11,11s4.8999939,11,11,11s11-4.9000015,11-11
			C432.1947937,94.7999344,427.2947998,89.8999329,421.2947998,89.8999329L421.2947998,89.8999329z"/>
	</g>
	<g>
		<circle class="st4" cx="421.7947998" cy="128.7999573" r="10.5"/>
		<path class="st3" d="M421.7947998,118.8999329c2.7000122,0,5.2000122,1,7,2.9000015s2.8999939,4.4000015,2.8999939,7.0000229
			c0,5.5-4.5,10-10,10s-10-4.5-10-10C411.7947998,123.2999344,416.2947998,118.8999329,421.7947998,118.8999329
			 M421.7947998,117.8999329c-6.1000061,0-11,4.9000015-11,11.0000153c0,6.1000061,4.8999939,11,11,11s11-4.8999939,11-11
			C432.6947937,122.7999344,427.7947998,117.8999329,421.7947998,117.8999329L421.7947998,117.8999329z"/>
	</g>
	<g>
		<path class="st4" d="M383.4947815,163.9999542c-5.7999878,0-10.5-4.6999969-10.5-10.5s4.7000122-10.5,10.5-10.5
			s10.5,4.6999969,10.5,10.5S389.1947937,163.9999542,383.4947815,163.9999542z"/>
		<path class="st3" d="M383.4947815,143.5999603c2.7000122,0,5.2000122,1,7,2.8999939s2.8999939,4.3999939,2.8999939,7
			c0,5.5-4.5,10-10,10s-10-4.5-10-10C373.4947815,148.0999603,377.9947815,143.5999603,383.4947815,143.5999603
			 M383.4947815,142.5999603c-6.1000061,0-11,4.8999939-11,11s4.8999939,11,11,11s11-4.8999939,11-11
			C394.3948059,147.4999542,389.4947815,142.5999603,383.4947815,142.5999603L383.4947815,142.5999603z"/>
	</g>
	<g>
		<g>
			<rect x="359.4947815" y="75.0999298" class="st4" width="44.1000061" height="62.5999908"/>
			<path class="st3" d="M403.1947937,75.4999313v61.9000168h-43.1000061V75.4999313H403.1947937 M404.1947937,74.7999344
				h-45.1000061v63.3000259h45.1000061V74.7999344L404.1947937,74.7999344z"/>
		</g>
		<g>
			<rect x="386.3948059" y="75.0999298" class="st4" width="3.7000122" height="62.5999908"/>
			<path class="st3" d="M389.5947876,75.4999313v61.9000168h-2.7000122V75.4999313H389.5947876 M390.5947876,74.7999344h-4.7000122
				v63.3000259h4.7000122V74.7999344L390.5947876,74.7999344z"/>
		</g>
	</g>
	<g id="Kitchen_1_">
		<g id="Rectangle_24_1_">
			<rect x="277.7947998" y="75.2999344" class="st4" width="81.8000183" height="31.3000031"/>
			<path class="st3" d="M359.0947876,75.7999344v30.3000031h-80.8000183V75.7999344H359.0947876 M360.0947876,74.7999344
				h-82.8000183v32.3000031h82.7999878V74.7999344H360.0947876z"/>
		</g>
		<g id="Rectangle_24_2_">
			<rect x="277.6947937" y="75.2999344" class="st4" width="30.2999878" height="54.9999924"/>
			<path class="st3" d="M307.4947815,75.7999344v54.0000229h-29.2999878V75.7999344H307.4947815 M308.4947815,74.7999344
				h-31.2999878v56.0000229h31.2999878V74.7999344L308.4947815,74.7999344z"/>
		</g>
		<g id="Rectangle_27">
			<rect x="277.6947937" y="127.0999298" class="st4" width="30.2999878" height="30.2999725"/>
			<path class="st3" d="M307.4947815,127.5999298v29.3000183h-29.2999878v-29.3000259L307.4947815,127.5999298
				 M308.4947815,126.5999298h-31.2999878v31.3000183h31.2999878V126.5999298L308.4947815,126.5999298z"/>
		</g>
		<g id="Rectangle_27_2_">
			<rect x="306.3948059" y="127.0999298" class="st4" width="1.6000061" height="30.2999725"/>
			<path class="st3" d="M307.4947815,127.5999298v29.3000183h-0.6000061v-29.3000259L307.4947815,127.5999298
				 M308.4947815,126.5999298h-2.6000061v31.3000183h2.6000061V126.5999298L308.4947815,126.5999298z"/>
		</g>
		<g id="Sink_3_1_">
			<rect id="Rectangle_28_x5F_2_1_" x="281.3948059" y="84.0999298" class="st5" width="22" height="34.9000015"/>
			<path id="Rectangle_29_x5F_2_1_" class="st5" d="M292.3948059,97.8999329L292.3948059,97.8999329
				c4.6000061,0,8.2999878,3.6999969,8.2999878,8.3000031v1.8000031c0,4.5999985-3.7000122,8.3000031-8.2999878,8.3000031l0,0
				c-4.6000061,0-8.2999878-3.6999969-8.2999878-8.3000031v-1.8000031
				C284.1947937,101.5999298,287.7947998,97.8999329,292.3948059,97.8999329z"/>
			<ellipse id="Ellipse_7_x5F_3_1_" class="st5" cx="288.6947937" cy="107.0999298" rx="1.3999939" ry="1.4000015"/>
			<path id="Vector_2_1_" class="st6" d="M284.1947937,85.9999313v9.1999969 M286.8948059,85.9999313v9.1999969
				 M289.6947937,85.9999313v9.1999969 M292.3948059,85.9999313v9.1999969 M295.1947937,85.9999313v9.1999969
				 M297.8948059,85.9999313v9.1999969 M300.6947937,85.9999313v9.1999969"/>
		</g>
		<g id="Stove_1_">
			<g id="Rectangle_25_1_">
				<rect x="329.0947876" y="75.2999344" class="st4" width="30.5" height="31.3000031"/>
				<path class="st3" d="M359.0947876,75.7999344v30.3000031h-29.5V75.7999344H359.0947876 M360.0947876,74.7999344h-31.5
					v32.3000031h31.5V74.7999344L360.0947876,74.7999344z"/>
			</g>
			<g id="Rectangle_28_x5F_3_1_">
				<rect x="329.0947876" y="75.2999344" class="st4" width="30.5" height="1.8000031"/>
				<path class="st3" d="M359.0947876,75.7999344v0.8000031h-29.5v-0.8000031H359.0947876 M360.0947876,74.7999344h-31.5v2.8000031
					h31.5V74.7999344L360.0947876,74.7999344z"/>
			</g>
			<g id="Ellipse_7_x5F_4_1_">
				<circle class="st4" cx="351.4947815" cy="85.5999298" r="3.5"/>
				<path class="st3" d="M351.4947815,82.5999298c1.7000122,0,3,1.4000015,3,3s-1.3999939,3-3,3s-3-1.4000015-3-3
					S349.8948059,82.5999298,351.4947815,82.5999298 M351.4947815,81.5999298c-2.2000122,0-4,1.8000031-4,4s1.7999878,4,4,4
					s4-1.8000031,4-4C355.5947876,83.3999329,353.7947998,81.5999298,351.4947815,81.5999298L351.4947815,81.5999298z"/>
			</g>
			<g id="Ellipse_9_1_">
				<path class="st4" d="M351.4947815,102.2999344c-2.5,0-4.6000061-2-4.6000061-4.5999985s2-4.5999985,4.6000061-4.5999985
					c2.5,0,4.6000061,2,4.6000061,4.5999985S353.9947815,102.2999344,351.4947815,102.2999344z"/>
				<path class="st3" d="M351.4947815,93.6999283c2.2000122,0,4.1000061,1.8000031,4.1000061,4.0999985
					s-1.7999878,4.0999985-4.1000061,4.0999985c-2.2999878,0-4.1000061-1.8000031-4.1000061-4.0999985
					S349.2947998,93.6999283,351.4947815,93.6999283 M351.4947815,92.6999283c-2.7999878,0-5.1000061,2.3000031-5.1000061,5.0999985
					s2.2999878,5.0999985,5.1000061,5.0999985c2.7999878,0,5.1000061-2.3000031,5.1000061-5.0999985
					S354.2947998,92.6999283,351.4947815,92.6999283L351.4947815,92.6999283z"/>
			</g>
			<g id="Ellipse_10_1_">
				<circle class="st4" cx="337.3948059" cy="85.5999298" r="4.6000061"/>
				<path class="st3" d="M337.3948059,81.5999298c2.2000122,0,4.1000061,1.8000031,4.1000061,4.0999985
					c0,2.1999969-1.7999878,4.0999985-4.1000061,4.0999985c-2.2999878,0-4.1000061-1.8000031-4.1000061-4.0999985
					S335.1947937,81.5999298,337.3948059,81.5999298 M337.3948059,80.5999298c-2.7999878,0-5.1000061,2.3000031-5.1000061,5.0999985
					c0,2.8000031,2.2999878,5.0999985,5.1000061,5.0999985c2.7999878,0,5.1000061-2.3000031,5.1000061-5.0999985
					C342.3948059,82.7999344,340.1947937,80.5999298,337.3948059,80.5999298L337.3948059,80.5999298z"/>
			</g>
			<g id="Ellipse_8_1_">
				<circle class="st4" cx="337.3948059" cy="98.7999344" r="3.5"/>
				<path class="st3" d="M337.3948059,95.6999283c1.7000122,0,3,1.4000015,3,3s-1.3999939,3-3,3s-3-1.4000015-3-3
					S335.6947937,95.6999283,337.3948059,95.6999283 M337.3948059,94.6999283c-2.2000122,0-4,1.8000031-4,4s1.7999878,4,4,4
					s4-1.8000031,4-4S339.5947876,94.6999283,337.3948059,94.6999283L337.3948059,94.6999283z"/>
			</g>
		</g>
		<path id="Vector_3_1_" class="st6" d="M295.9947815,142.2999573h-7.7999878 M293.9947815,145.6999512l-3.8999939-6.8000031
			 M293.9947815,138.7999573l-3.8999939,6.8000031"/>
	</g>
	<g>
		<g>
			<rect x="427.6190186" y="309.0999146" class="st4" width="81.1000061" height="95.8999939"/>
			<path class="st3" d="M428.1190186,309.5999146h80.1000061v94.8999939h-80.1000061V309.5999146 M427.1190186,308.5999146
				v96.8999939h82.1000061v-96.8999939H427.1190186L427.1190186,308.5999146z"/>
		</g>
		<rect x="434.2190247" y="374.6999207" class="st5" width="32" height="24"/>
		<rect x="470.2190247" y="374.6999207" class="st5" width="32" height="24"/>
		
			<rect x="440.7501526" y="363.8917236" transform="matrix(0.2588077 -0.9659289 0.9659289 0.2588077 -27.5096588 715.9318848)" class="st7" width="23.9993" height="23.9993"/>
		
			<rect x="471.7974243" y="363.8855896" transform="matrix(0.9659289 -0.2588077 0.2588077 0.9659289 -80.7984695 138.0172272)" class="st7" width="23.9992695" height="23.9993"/>
		<g>
			<polygon class="st4" points="427.7190247,379.6999207 427.7190247,308.1999207 508.7190247,308.1999207 508.7190247,384.6999207 
				476.4190369,386.7998962 			"/>
			<path class="st3" d="M428.2190247,308.6999207h80v75v0.6000061l-31.7999878,2l-48.2000122-7V308.6999207
				 M427.2190247,307.6999207v72v0.5l49.2000122,7.1000061l32.7999878-2v-1.5v-76L427.2190247,307.6999207L427.2190247,307.6999207z
				"/>
		</g>
		<polyline class="st6" points="508.1190186,382.6999207 476.1190186,382.6999207 428.1190186,378.7998962 		"/>
	</g>
	<g>
		<g>
			<rect x="296.2625732" y="245.8895721" class="st4" width="13.6000061" height="158.8161469"/>
			<path class="st3" d="M296.7625732,246.3895721h12.6000061v157.8160553h-12.6000061V246.3895721 M295.7625732,245.3895721
				v159.8160553h14.6000061V245.3895721H295.7625732L295.7625732,245.3895721z"/>
		</g>
		<g>
			<rect x="277.6625671" y="245.8895721" class="st4" width="29.5" height="158.8161469"/>
			<path class="st3" d="M278.1625671,246.3895721h28.5v157.8160553h-28.5V246.3895721 M277.1625671,245.3895721v159.8160553h30.5
				v-159.81604L277.1625671,245.3895721L277.1625671,245.3895721z"/>
		</g>
		<path class="st5" d="M277.7625732,245.789566l29,158.8160248"/>
	</g>
	<g>
		<g>
			<rect x="174.2190094" y="85.6999283" class="st4" width="81.8000031" height="13.5999985"/>
			<path class="st3" d="M174.7190094,86.1999283h80.8000031v12.5999985h-80.8000031V86.1999283 M173.7190094,85.1999283v14.5999985
				h82.8000031V85.1999283H173.7190094L173.7190094,85.1999283z"/>
		</g>
		<g>
			<rect x="174.2190094" y="75.2999344" class="st4" width="81.8000031" height="21.4000015"/>
			<path class="st3" d="M174.7190094,75.7999344h80.8000031v20.4000015h-80.8000031V75.7999344 M173.7190094,74.7999344v22.4000015
				h82.8000031V74.7999344H173.7190094L173.7190094,74.7999344z"/>
		</g>
		<g>
			<rect x="174.2190094" y="75.2999344" class="st4" width="81.8000031" height="21.4000015"/>
			<path class="st3" d="M174.7190094,75.7999344h80.8000031v20.4000015h-80.8000031V75.7999344 M173.7190094,74.7999344v22.4000015
				h82.8000031V74.7999344H173.7190094L173.7190094,74.7999344z"/>
		</g>
		<path class="st5" d="M255.9190216,75.4999313l-81.8999939,20.9000015"/>
	</g>
	<g>
		<g>
			<rect x="175.7901917" y="150.0563202" class="st4" width="13.6000061" height="27.8000031"/>
			<path class="st3" d="M188.7901917,150.5563202v26.8000031h-12.6000061v-26.8000031H188.7901917 M189.7901917,149.5563202
				h-14.6000061v28.8000031h14.6000061V149.5563202L189.7901917,149.5563202z"/>
		</g>
		<g>
			<rect x="178.2901917" y="150.0563202" class="st4" width="8.3999939" height="27.8000031"/>
			<path class="st3" d="M186.2901917,150.5563202v26.8000031h-7.3999939v-26.8000031H186.2901917 M187.2901917,149.5563202
				h-9.3999939v28.8000031h9.3999939V149.5563202L187.2901917,149.5563202z"/>
		</g>
		<g>
			<rect x="174.0901794" y="150.0563202" class="st4" width="12.6999969" height="27.8000031"/>
			<path class="st3" d="M186.2901917,150.5563202v26.8000031h-11.6999969v-26.8000031H186.2901917 M187.2901917,149.5563202
				h-13.6999969v28.8000031h13.6999969V149.5563202L187.2901917,149.5563202z"/>
		</g>
		<path class="st5" d="M174.1901855,150.1563263l12.5,27.8000031"/>
	</g>
	<g>
		<g>
			<rect x="174.1208496" y="245.9711151" class="st4" width="20.6000061" height="30.6000519"/>
			<path class="st3" d="M194.2208557,246.4711151v29.5999908h-19.6000061v-29.5999908H194.2208557 M195.2208557,245.4711151
				h-21.6000061v31.5999908h21.6000061V245.4711151L195.2208557,245.4711151z"/>
		</g>
		<g>
			<circle class="st4" cx="184.4208527" cy="261.1710815" r="6.5"/>
			<path class="st3" d="M184.4208527,255.1711121c3.3000031,0,6,2.6999817,6,5.9999695s-2.6999969,6-6,6s-6-2.7000122-6-6
				C178.3208618,257.8710938,181.0208588,255.1711121,184.4208527,255.1711121 M184.4208527,254.1711121
				c-3.8999939,0-7,3.0999756-7,6.9999695s3.1000061,7,7,7s7-3.1000061,7-7
				C191.4208527,257.3710938,188.2208557,254.1711121,184.4208527,254.1711121L184.4208527,254.1711121z"/>
		</g>
	</g>
	<g>
		<g>
			<rect x="440.019043" y="85.4999313" class="st4" width="64.2000122" height="2.8000031"/>
			<path class="st3" d="M440.519043,85.9999313h63.2000122v1.8000031H440.519043V85.9999313 M439.519043,84.9999313v3.8000031
				h65.2000122v-3.8000031H439.519043L439.519043,84.9999313z"/>
		</g>
		<g>
			<rect x="440.019043" y="75.2999344" class="st4" width="64.2000122" height="10.5"/>
			<path class="st3" d="M503.7190247,75.7999344v9.5h-63.2000122v-9.5H503.7190247 M504.7190247,74.7999344H439.519043v11.5
				h65.2000122v-11.5H504.7190247z"/>
		</g>
		<rect x="449.7190247" y="77.2999344" class="st5" width="46.1000061" height="1.6999969"/>
		<path class="st5" d="M463.019043,77.2999344h19.5l-1.7999878-1.8000031h-16L463.019043,77.2999344z"/>
	</g>
	<g id="Sink_2">
		<g id="Rectangle_16_x5F_11_1_">
			<rect x="174.0947723" y="321.2998962" class="st4" width="22.8999939" height="36.8999939"/>
			<path class="st3" d="M196.4947815,321.7998962v35.8999939h-21.8999939v-35.8999939H196.4947815 M197.4947815,320.7998962
				h-23.8999939v37.8999939h23.8999939V320.7998962L197.4947815,320.7998962z"/>
		</g>
		<path id="Rectangle_19_x5F_5" class="st5" d="M185.4947815,352.2998962L185.4947815,352.2998962
			c4,0,7.3000031-3.2999878,7.3000031-7.2999878v-10.5c0-4-3.3000031-7.2999878-7.3000031-7.2999878l0,0
			c-4,0-7.3000031,3.2999878-7.3000031,7.2999878v10.5C178.1947784,348.9999084,181.4947815,352.2998962,185.4947815,352.2998962z"
			/>
		<circle id="Ellipse_7_x5F_2_1_" class="st5" cx="181.2947845" cy="339.6999207" r="1.3999939"/>
	</g>
	<g id="Toilet_2_">
		<g id="Rectangle_21_2_">
			<rect x="184.1328278" y="292.5999146" class="st4" width="7.3000031" height="21.5"/>
			<path class="st3" d="M190.9328308,293.0999146v20.5h-6.3000031v-20.5H190.9328308 M191.9328308,292.0999146h-8.3000031v22.5
				h8.3000031V292.0999146L191.9328308,292.0999146z"/>
		</g>
		<path id="Rectangle_19_x5F_2_2_" class="st5" d="M206.3328247,311.3999023c4.6000061,0.2999878,8.6000061-3.3999939,8.6000061-8
			l0,0c0-4.6000061-3.8999939-8.2999878-8.6000061-8l-14.8000031,1v14L206.3328247,311.3999023z"/>
		<path id="Rectangle_18_x5F_13_2_" class="st5" d="M206.3328247,309.6999207c3.8000031,0.2999878,7-2.6000061,7-6.3999939l0,0
			c0-3.7999878-3.1999969-6.7000122-7-6.3999939l-10.1999969,0.8999939v10.8999939L206.3328247,309.6999207z"/>
		<ellipse id="Ellipse_6_x5F_2_2_" class="st5" cx="200.8328247" cy="303.3999023" rx="1.3999939" ry="1.3999939"/>
	</g>
	<g id="Shower">
		<path id="Rectangle_22" class="st5" d="M271.7503052,366.4057312v38.2999878h-38.2999878v-26.3999939
			c0-6.6000061,5.3000031-11.8999939,11.8999939-11.8999939H271.7503052z"/>
		<path id="Rectangle_23" class="st5" d="M269.7503052,368.4057312v34.3999939h-34.3999786v-24.7999878
			c0-5.2999878,4.3000031-9.5,9.5-9.5h24.8999786V368.4057312z"/>
		<ellipse id="Ellipse_6_x5F_4" class="st5" cx="261.9503174" cy="394.9057312" rx="1.3999939" ry="1.3999939"/>
	</g>
	<g id="TV_2_">
		<g id="Rectangle_16_2_">
			<rect x="428.9190369" y="250.1221008" class="st4" width="76.5" height="10.8000183"/>
			<path class="st3" d="M504.9190369,250.6221008v9.7999573h-75.5v-9.7999573H504.9190369 M505.9190369,249.6221008h-77.5
				v11.7999573h77.5V249.6221008L505.9190369,249.6221008z"/>
		</g>
		<g id="Rectangle_15_2_">
			<rect x="428.9190369" y="245.9221039" class="st4" width="76.5" height="12.9000397"/>
			<path class="st3" d="M504.9190369,246.4221039v11.8999481h-75.5v-11.8999481H504.9190369 M505.9190369,245.4221039h-77.5
				v13.8999481h77.5V245.4221039L505.9190369,245.4221039z"/>
		</g>
		<rect id="Rectangle_17_2_" x="441.4190369" y="247.9221039" class="st5" width="51.5" height="2"/>
		<path id="Rectangle_18_x5F_2_2_" class="st5" d="M478.019043,247.9221039h-21.7999878l2-2h17.7999878L478.019043,247.9221039z"/>
	</g>
	<g>
		<path class="st5" d="M458.4190369,205.5999908c0-1.5-1.2000122-2.6999969-2.7000122-2.6999969h-39.8999939
			c-1.5,0-2.7000122,1.1999969-2.7000122,2.6999969v26.1999969h45.2000122v-26.1999969H458.4190369z"/>
		<path class="st5" d="M501.519043,205.5999908c0-1.5-1.2000122-2.6999969-2.7000122-2.6999969h-37.8999939
			c-1.5,0-2.7000122,1.1999969-2.7000122,2.6999969v26.1999969h43.2000122v-26.1999969H501.519043z"/>
		<polygon class="st5" points="501.519043,200.6999969 501.519043,231.6999969 457.4190369,231.6999969 413.2190247,231.6999969 
			413.2190247,200.6999969 404.9190369,200.6999969 404.9190369,240 509.9190369,240 509.9190369,200.6999969 		"/>
	</g>
	<g>
		<rect x="174.1947784" y="279.9999084" class="st4" width="9.8999939" height="41.2999878"/>
		<path class="st3" d="M183.4947815,280.4999084v40.2999878h-8.8999939v-40.2999878H183.4947815 M184.4947815,279.4999084
			h-10.8999939v42.2999878h10.8999939V279.4999084L184.4947815,279.4999084z"/>
	</g>
	<g>
		<rect x="174.0947723" y="358.1999207" class="st4" width="22.8999939" height="29"/>
		<path class="st3" d="M196.4947815,358.6999207v28h-21.8999939v-28H196.4947815 M197.4947815,357.6999207h-23.8999939v30
			h23.8999939V357.6999207L197.4947815,357.6999207z"/>
	</g>
</g>
<g id="Numbers">
	<g>
		<path class="st8" d="M195.0190125,205.6999512c0.6000061,0,1.1000061,0.1999969,1.5,0.6000061
			c0.3999939,0.3999939,0.6000061,0.8999939,0.6000061,1.5s-0.1999969,1.1999969-0.6999969,1.6000061
			c-0.3999939,0.3999939-1,0.6000061-1.6999969,0.6000061c-0.8000031,0-1.3999939-0.3000031-1.8000031-0.8999939
			c-0.3999939-0.6000061-0.6000061-1.3999939-0.6000061-2.3000031c0-0.6000061,0.1000061-1.1999969,0.3000031-1.8000031
			c0.1999969-0.5,0.5-1,0.8999939-1.3000031c0.3999939-0.3999939,1-0.5,1.6000061-0.5
			c0.6999969,0,1.3000031,0.1999969,1.6999969,0.6000061l-0.3999939,0.8000031
			c-0.3999939-0.3000031-0.8000031-0.3999939-1.1999969-0.3999939s-0.6999969,0.1000061-1,0.3999939
			c-0.5,0.5-0.8000031,1.1999969-0.8000031,2.1000061c0.1000061-0.3000031,0.3999939-0.5,0.6999969-0.6999969
			S194.6190186,205.6999512,195.0190125,205.6999512z M194.8190155,209.1999512
			c0.3999939,0,0.6999969-0.1000061,0.8999939-0.3999939c0.1999969-0.3000031,0.3999939-0.6000061,0.3999939-0.8999939
			c0-0.3999939-0.1000061-0.6999969-0.3999939-0.8999939c-0.1999969-0.1999969-0.5-0.3999939-0.8999939-0.3999939
			s-0.6999969,0.1000061-0.8999939,0.3999939c-0.1999969,0.1999969-0.3999939,0.6000061-0.3999939,0.8999939
			c0,0.3999939,0.1000061,0.6999969,0.3999939,0.8999939C194.1190186,208.9999542,194.4190216,209.1999512,194.8190155,209.1999512z
			"/>
		<path class="st8" d="M198.5190125,210.0999603c-0.1999969,0-0.3000031-0.1000061-0.5-0.1999969
			c-0.1000061-0.1000061-0.1999969-0.3000031-0.1999969-0.5s0.1000061-0.3000031,0.1999969-0.3999939
			c0.1000061-0.1000061,0.3000031-0.1999969,0.5-0.1999969s0.3000031,0.1000061,0.3999939,0.1999969
			c0.1000061,0.1000061,0.1999969,0.3000031,0.1999969,0.3999939c0,0.1999969-0.1000061,0.3000031-0.1999969,0.5
			C198.9190216,210.0999603,198.7190094,210.0999603,198.5190125,210.0999603z"/>
		<path class="st8" d="M203.1190186,207.1999512l-1.6000061,1.8000031h2.6999969v1h-4.1999969v-0.8999939l2.1000061-2.3000031
			l0.5-0.6000061c0.1000061-0.1000061,0.1999969-0.3000031,0.3000031-0.5s0.1000061-0.3999939,0.1000061-0.6000061
			c0-0.3000031-0.1000061-0.5-0.3000031-0.6999969s-0.5-0.3000031-0.8000031-0.3000031c-0.5,0-1,0.1999969-1.6000061,0.6999969
			l-0.6000061-0.6999969c0.6999969-0.6000061,1.3999939-1,2.1999969-1c0.6000061,0,1.1000061,0.1999969,1.5,0.6000061
			c0.3999939,0.3999939,0.6000061,0.8999939,0.6000061,1.3999939
			C204.2190094,205.7999573,203.8190155,206.4999542,203.1190186,207.1999512z"/>
	</g>
	<g>
		<path class="st8" d="M230.6190186,328.7998962c0.6000061,0,1.1999969,0.2000122,1.6000061,0.6000061
			c0.3999939,0.3999939,0.6000061,0.8999939,0.6000061,1.6000061s-0.1999969,1.2000122-0.6999969,1.6000061
			c-0.3999939,0.3999939-1,0.6000061-1.6999969,0.6000061c-0.8000031,0-1.5-0.2999878-2.1999969-0.7999878l0.5-0.7999878
			c0.6000061,0.3999939,1.1000061,0.6000061,1.6999969,0.6000061c0.3999939,0,0.6999969-0.1000061,1-0.3999939
			c0.3000031-0.2000122,0.3999939-0.5,0.3999939-0.8999939s-0.1000061-0.7000122-0.3999939-0.8999939
			c-0.1999969-0.2000122-0.6000061-0.3999939-1-0.3999939c-0.5,0-0.8999939,0.2000122-1.1999969,0.5l-0.6000061-0.3999939
			l0.3999939-3.2999878h3.3999939v0.8999939h-2.6000061l-0.1999969,1.6000061
			C229.9190216,328.8999023,230.3190155,328.7998962,230.6190186,328.7998962z"/>
		<path class="st8" d="M234.3190155,333.2998962c-0.1999969,0-0.3000031-0.1000061-0.5-0.2000122
			c-0.1000061-0.1000061-0.1999969-0.2999878-0.1999969-0.5s0.1000061-0.2999878,0.1999969-0.3999939
			c0.1000061-0.1000061,0.3000031-0.2000122,0.5-0.2000122s0.3000031,0.1000061,0.3999939,0.2000122
			c0.1000061,0.1000061,0.1999969,0.2999878,0.1999969,0.3999939c0,0.2000122-0.1000061,0.2999878-0.1999969,0.5
			C234.6190186,333.1999207,234.5190125,333.2998962,234.3190155,333.2998962z"/>
		<path class="st8" d="M238.3190155,328.8999023c0.6000061,0,1.1000061,0.2000122,1.5,0.6000061s0.6000061,0.8999939,0.6000061,1.5
			s-0.1999969,1.2000122-0.6999969,1.6000061c-0.3999939,0.3999939-1,0.6000061-1.6999969,0.6000061
			c-0.8000031,0-1.3999939-0.2999878-1.8000031-0.8999939c-0.3999939-0.6000061-0.6000061-1.3999939-0.6000061-2.2999878
			c0-0.6000061,0.1000061-1.2000122,0.3000031-1.7999878c0.1999969-0.5,0.5-1,0.8999939-1.2999878
			c0.3999939-0.3999939,1-0.5,1.6000061-0.5c0.6999969,0,1.3000031,0.2000122,1.6999969,0.6000061l-0.3999939,0.7999878
			c-0.3999939-0.2999878-0.8000031-0.3999939-1.1999969-0.3999939s-0.6999969,0.1000061-1,0.3999939
			c-0.5,0.5-0.8000031,1.2000122-0.8000031,2.1000061c0.1000061-0.2999878,0.3999939-0.5,0.6999969-0.7000122
			S237.9190216,328.8999023,238.3190155,328.8999023z M238.1190186,332.2998962
			c0.3999939,0,0.6999969-0.1000061,0.8999939-0.3999939s0.3999939-0.6000061,0.3999939-0.8999939
			c0-0.3999939-0.1000061-0.7000122-0.3999939-0.8999939c-0.1999969-0.2000122-0.5-0.3999939-0.8999939-0.3999939
			s-0.6999969,0.1000061-0.8999939,0.3999939c-0.1999969,0.2000122-0.3999939,0.6000061-0.3999939,0.8999939
			c0,0.3999939,0.1000061,0.7000122,0.3999939,0.8999939C237.4190216,332.1999207,237.7190094,332.2998962,238.1190186,332.2998962z
			"/>
	</g>
	<g>
		<path class="st8" d="M367.7190247,334.7998962l1.8999939-1.6000061h0.7999878v6.7000122h-1v-5.2999878l-1.2000122,0.8999939
			L367.7190247,334.7998962z"/>
		<path class="st8" d="M375.6190186,337.2998962h0.7000122v0.8999939h-0.7000122v1.6000061h-1v-1.6000061h-3l-0.2000122-0.6000061
			l3.6000061-4.3999939h0.7000122v4.1000061H375.6190186z M374.6190186,334.8999023l-2,2.3999939h2V334.8999023z"/>
		<path class="st8" d="M377.8190308,339.8999023c-0.2000122,0-0.2999878-0.1000061-0.5-0.2000122
			c-0.1000061-0.1000061-0.2000122-0.2999878-0.2000122-0.5s0.1000061-0.2999878,0.2000122-0.3999939
			s0.2999878-0.2000122,0.5-0.2000122s0.2999878,0.1000061,0.3999939,0.2000122s0.2000122,0.2999878,0.2000122,0.3999939
			c0,0.2000122-0.1000061,0.2999878-0.2000122,0.5S377.9190369,339.8999023,377.8190308,339.8999023z"/>
		<path class="st8" d="M381.7190247,335.4999084c0.6000061,0,1.1000061,0.2000122,1.5,0.6000061s0.6000061,0.8999939,0.6000061,1.5
			s-0.2000122,1.2000122-0.7000122,1.6000061c-0.3999939,0.3999939-1,0.6000061-1.7000122,0.6000061
			c-0.7999878,0-1.3999939-0.2999878-1.7999878-0.8999939s-0.6000061-1.3999939-0.6000061-2.2999878
			c0-0.6000061,0.1000061-1.2000122,0.2999878-1.7999878c0.2000122-0.5,0.5-1,0.8999939-1.2999878
			c0.3999939-0.3999939,1-0.5,1.6000061-0.5c0.7000122,0,1.2999878,0.2000122,1.7000122,0.6000061l-0.3999939,0.7999878
			c-0.3999939-0.2999878-0.7999878-0.3999939-1.2000122-0.3999939c-0.3999939,0-0.7000122,0.1000061-1,0.3999939
			c-0.5,0.5-0.7999878,1.2000122-0.7999878,2.1000061c0.1000061-0.2999878,0.3999939-0.5,0.7000122-0.7000122
			S381.4190369,335.4999084,381.7190247,335.4999084z M381.6190186,338.9999084
			c0.3999939,0,0.7000122-0.1000061,0.8999939-0.3999939c0.2000122-0.2999878,0.3999939-0.6000061,0.3999939-0.8999939
			c0-0.3999939-0.1000061-0.7000122-0.3999939-0.8999939c-0.2000122-0.2000122-0.5-0.3999939-0.8999939-0.3999939
			s-0.7000122,0.1000061-0.8999939,0.3999939c-0.2000122,0.2000122-0.3999939,0.6000061-0.3999939,0.8999939
			c0,0.3999939,0.1000061,0.7000122,0.3999939,0.8999939C380.9190369,338.7998962,381.2190247,338.9999084,381.6190186,338.9999084z
			"/>
	</g>
	<g>
		<path class="st8" d="M418.019043,180.8999481l1.8999939-1.6000061h0.7999878v6.6999969h-1v-5.3000031l-1.2000122,0.8999939
			L418.019043,180.8999481z"/>
		<path class="st8" d="M424.2190247,181.5999603c0.6000061,0,1.2000122,0.1999969,1.6000061,0.6000061
			c0.3999939,0.3999939,0.6000061,0.8999939,0.6000061,1.6000061c0,0.6999969-0.2000122,1.1999969-0.7000122,1.6000061
			c-0.3999939,0.3999939-1,0.6000061-1.7000122,0.6000061c-0.7999878,0-1.5-0.3000031-2.2000122-0.8000031l0.5-0.8000031
			c0.6000061,0.3999939,1.1000061,0.6000061,1.7000122,0.6000061c0.3999939,0,0.7000122-0.1000061,1-0.3999939
			c0.2999878-0.1999969,0.3999939-0.5,0.3999939-0.8999939S425.3190002,183,425.0190125,182.8000031
			c-0.2000122-0.1999969-0.6000061-0.3999939-1-0.3999939c-0.5,0-0.8999939,0.1999969-1.2000122,0.5l-0.6000061-0.3999939
			l0.3999939-3.3000031h3.3999939v0.8999939h-2.6000061l-0.2000122,1.6000061
			C423.519043,181.6999512,423.8190308,181.5999603,424.2190247,181.5999603z"/>
		<path class="st8" d="M427.9190369,185.9999542c-0.2000122,0-0.2999878-0.1000061-0.5-0.1999969
			s-0.2000122-0.3000031-0.2000122-0.5s0.1000061-0.3000031,0.2000122-0.3999939s0.2999878-0.1999969,0.5-0.1999969
			s0.2999878,0.1000061,0.3999939,0.1999969s0.2000122,0.3000031,0.2000122,0.3999939
			c0,0.1999969-0.1000061,0.3000031-0.2000122,0.5S428.019043,185.9999542,427.9190369,185.9999542z"/>
		<path class="st8" d="M428.519043,180.8999481l1.8999939-1.6000061h0.7999878v6.6999969h-1v-5.3000031l-1.2000122,0.8999939
			L428.519043,180.8999481z"/>
	</g>
</g>
<g id="street_anchors" class="st9">
	<rect id="street_anchor_01" x="591.2190552" y="234.9999542" class="st10" width="10" height="10"/>
</g>
<path id="Doors" class="st11" d="M226.3591919,245.4248047c0,5.4248047,0.9861908,9.8628998,2.9590302,14.7943726
	c1.9723816,4.931488,4.9313965,9.3700256,8.3838959,12.8220215c3.4519043,3.945282,7.8905945,6.9042969,12.8215485,8.8766785
	c4.9320221,1.9723816,9.8634186,2.9591064,15.2877045,2.9591064V245.424881 M354.5779419,245.4248047
	c0,5.4248047-0.9861755,9.8628998-2.9585571,14.7943726c-1.9728394,4.931488-4.931427,9.3700256-8.3839111,12.8220215
	c-3.4519043,3.945282-7.8905945,6.9042969-12.821991,8.8766785c-4.931427,1.9723816-9.8629761,2.9591064-15.2877197,2.9591064
	V245.424881 M158.7974548,227.671402c-6.4109192,0-12.3286743-1.4795074-18.2467346-3.9452972
	c-5.9175873-2.4656982-11.8353424-5.9176788-16.2738876-10.8490906c-4.4380875-4.4386139-8.3833084-9.8628845-10.849617-15.7810211
	c-2.4657059-5.9176788-3.9452133-12.328598-3.9452133-18.7395935h49.3149948"/>
<g id="Windows">
	<polygon class="st11" points="536.8377075,195.7385712 529.6881104,193.8807678 550.8820801,111.8705978 558.0310669,113.7283249 	
		"/>
	
		<rect x="498.8234863" y="306.1474609" transform="matrix(0.2514896 -0.96786 0.96786 0.2514896 106.7277832 757.6861572)" class="st12" width="88.805542" height="7.3870544"/>
</g>
<g id="Walls_1_">
	<polygon class="st8" points="538.3442993,257.0194092 538.3442993,210.7219696 542.2895508,193.6251678 518.2525635,188.2003632 
		513.8145142,206.9404907 513.8145142,240.4849091 354.6621094,240.5037689 354.6621094,245.435257 513.8145142,245.4168549 
		513.8145142,272.1358643 538.3442993,272.1358643 538.3442993,272.0956726 556.0977173,276.0810852 559.5500488,261.7795715 	"/>
	<path class="st8" d="M538.4712524,404.7107544h-0.0048828l-0.013916-42.3143311h-0.0158691v-11.9529419h-29.4790039
		l-0.0204468,54.762146h-231.732605V245.4248047h37.9726563v-4.9314575h-49.3150024v4.9314575h6.4109497v159.7808228h-78.5841675
		v-12.5742798v-4.9314575h-4.9314575h-15.0164185l-0.0985718-142.2750854h52.7675171v-4.9314575h-52.7675171v-12.8224487
		h-14.7941895V420h379.6229248l-0.0033569-8.9818726h0.0033569V404.7107544z M173.7445068,392.6313477h15.0130005v12.5742798
		h-15.0042725L173.7445068,392.6313477z"/>
	<path class="st8" d="M538.4668579,96.7858887l0.0015259-4.7056274h0.0009155v-1.0894775l0.0045166-11.6282959h0.0113525v-4.5686646
		V66.836853V60H158.8483276v118.3563232h14.7941895V74.7943726h83.8974609v10.3876953v4.9314575h4.9314575h9.8016968v81.8318481
		h4.9313965v-97.151001h231.7365723v4.5681152V111.24823h26.7672729l21.9750366,4.932373l0.0010376-0.0044556l0.0153198,0.003479
		l3.4519043-14.3015137L538.4668579,96.7858887z M262.4714355,85.1820679V74.7943726h9.8016968v10.3876953H262.4714355z"/>
</g>
</svg>
