<?xml version="1.0" encoding="utf-8"?>
<!-- Generator: Adobe Illustrator 24.2.0, SVG Export Plug-In . SVG Version: 6.00 Build 0)  -->
<!DOCTYPE svg PUBLIC "-//W3C//DTD SVG 1.1//EN" "http://www.w3.org/Graphics/SVG/1.1/DTD/svg11.dtd" [
	<!ENTITY ns_extend "http://ns.adobe.com/Extensibility/1.0/">
	<!ENTITY ns_ai "http://ns.adobe.com/AdobeIllustrator/10.0/">
	<!ENTITY ns_graphs "http://ns.adobe.com/Graphs/1.0/">
	<!ENTITY ns_vars "http://ns.adobe.com/Variables/1.0/">
	<!ENTITY ns_imrep "http://ns.adobe.com/ImageReplacement/1.0/">
	<!ENTITY ns_sfw "http://ns.adobe.com/SaveForWeb/1.0/">
	<!ENTITY ns_custom "http://ns.adobe.com/GenericCustomNamespace/1.0/">
	<!ENTITY ns_adobe_xpath "http://ns.adobe.com/XPath/1.0/">
]>
<svg version="1.1" id="_x31__x5F_2" xmlns:x="&ns_extend;" xmlns:i="&ns_ai;" xmlns:graph="&ns_graphs;"
	 xmlns="http://www.w3.org/2000/svg" xmlns:xlink="http://www.w3.org/1999/xlink" x="0px" y="0px" viewBox="0 0 720 480"
	 style="enable-background:new 0 0 720 480;" xml:space="preserve">
<style type="text/css">
	.st0{fill:#DBD4CA;}
	.st1{clip-path:url(#SVGID_2_);}
	.st2{fill:none;stroke:#C49F8A;stroke-miterlimit:10;}
	.st3{opacity:0.3;clip-path:url(#SVGID_2_);}
	.st4{opacity:0.7;fill:#C49F8A;}
	.st5{clip-path:url(#SVGID_4_);}
	.st6{opacity:0.3;clip-path:url(#SVGID_4_);}
	.st7{clip-path:url(#SVGID_6_);}
	.st8{opacity:0.3;clip-path:url(#SVGID_6_);}
	.st9{fill:#565440;}
	.st10{fill:none;stroke:#565440;}
	.st11{fill:#E9E4DC;}
	.st12{fill:#C49F8A;}
	.st13{fill:#E9E4DC;stroke:#C49F8A;}
	.st14{fill:#E9E4DC;stroke:#C49F8A;stroke-width:0.9999701;stroke-miterlimit:3.9996805;}
	.st15{fill:none;stroke:#C49F8A;}
	.st16{fill:#E9E4DC;stroke:#C49F8A;stroke-miterlimit:3.9998;}
	.st17{fill:#E9E4DC;stroke:#C49F8A;stroke-linejoin:round;}
	.st18{fill:#E9E4DC;stroke:#C49F8A;stroke-width:1.0000014;stroke-miterlimit:4.0000057;}
	.st19{opacity:0;}
	.st20{fill:none;}
</style>
<metadata>
	<sfw  xmlns="&ns_sfw;">
		<slices></slices>
		<sliceSourceBounds  bottomLeftOrigin="true" height="827.7351685" width="718.1519775" x="105.2246246" y="-135.6833496">
			</sliceSourceBounds>
	</sfw>
</metadata>
<polygon id="Floor_1_" class="st0" points="233.1000061,65 233.1000061,416.5 429.1000061,416.5 429.1000061,258.5 491.5,258.5
	491.5,94.5999985 486.5,94.5999985 486.5,64.5999985 "/>
<g id="Wet_Floor">
	<g id="Wet_Floor_1_">
		<defs>
			<rect id="SVGID_1_" x="370.9263916" y="386.6257629" width="53.1165657" height="29.1717796"/>
		</defs>
		<clipPath id="SVGID_2_">
			<use xlink:href="#SVGID_1_"  style="overflow:visible;"/>
		</clipPath>
		<g class="st1">
			<g>
				<line class="st2" x1="115.999527" y1="292.2680054" x2="449.4827271" y2="-41.2151947"/>
				<line class="st2" x1="105.5781784" y1="281.8466492" x2="439.0613708" y2="-51.6365433"/>
				<line class="st2" x1="126.4208755" y1="302.6893616" x2="459.9040833" y2="-30.7938461"/>
				<line class="st2" x1="136.8422241" y1="313.1106873" x2="470.3254089" y2="-20.3724976"/>
				<line class="st2" x1="147.2635651" y1="323.5320435" x2="480.7467651" y2="-9.9511499"/>
				<line class="st2" x1="157.6849213" y1="333.9533997" x2="491.1681213" y2="0.4701984"/>
				<line class="st2" x1="168.1062622" y1="344.3747559" x2="501.5894775" y2="10.8915472"/>
				<line class="st2" x1="178.5276184" y1="354.7960815" x2="512.0108032" y2="21.3128948"/>
				<line class="st2" x1="188.9489594" y1="365.2174377" x2="522.4321899" y2="31.7342434"/>
				<line class="st2" x1="199.3703156" y1="375.6387939" x2="532.8535156" y2="42.1555901"/>
				<line class="st2" x1="188.9489594" y1="365.2174377" x2="522.4321899" y2="31.7342434"/>
				<line class="st2" x1="209.7916565" y1="386.0601501" x2="543.2748413" y2="52.5769386"/>
				<line class="st2" x1="220.2130127" y1="396.4814758" x2="553.696228" y2="62.9982872"/>
				<line class="st2" x1="230.6343536" y1="406.902832" x2="564.1175537" y2="73.4196396"/>
				<line class="st2" x1="241.0557098" y1="417.3241882" x2="574.5388794" y2="83.8409882"/>
				<line class="st2" x1="251.4770508" y1="427.7455444" x2="584.9602661" y2="94.2623367"/>
				<line class="st2" x1="261.898407" y1="438.1668701" x2="595.3815918" y2="104.6836853"/>
				<line class="st2" x1="272.3197632" y1="448.5882263" x2="605.8029785" y2="115.1050339"/>
				<line class="st2" x1="282.7410889" y1="459.0095825" x2="616.2243042" y2="125.5263824"/>
				<line class="st2" x1="272.3197632" y1="448.5882263" x2="605.8029785" y2="115.1050339"/>
				<line class="st2" x1="293.1624451" y1="469.4309387" x2="626.6456299" y2="135.9477234"/>
				<line class="st2" x1="303.5838013" y1="479.8522644" x2="637.0670166" y2="146.3690796"/>
				<line class="st2" x1="314.0051575" y1="490.2736206" x2="647.4883423" y2="156.7904205"/>
				<line class="st2" x1="324.4264832" y1="500.6949768" x2="657.909668" y2="167.2117767"/>
				<line class="st2" x1="334.8478394" y1="511.116333" x2="668.3310547" y2="177.6331177"/>
				<line class="st2" x1="345.2691956" y1="521.5376587" x2="678.7523804" y2="188.0544739"/>
				<line class="st2" x1="355.6905518" y1="531.9590454" x2="689.1737061" y2="198.4758148"/>
				<line class="st2" x1="366.1118774" y1="542.3803711" x2="699.5950928" y2="208.897171"/>
				<line class="st2" x1="355.6905518" y1="531.9590454" x2="689.1737061" y2="198.4758148"/>
				<line class="st2" x1="376.5332336" y1="552.8016968" x2="710.0164185" y2="219.318512"/>
				<line class="st2" x1="386.9545898" y1="563.2230835" x2="720.4378052" y2="229.7398682"/>
				<line class="st2" x1="397.375946" y1="573.6444092" x2="730.8591309" y2="240.1612091"/>
				<line class="st2" x1="407.7972717" y1="584.0657349" x2="741.2804565" y2="250.5825653"/>
				<line class="st2" x1="418.2186279" y1="594.4871216" x2="751.7018433" y2="261.0039063"/>
				<line class="st2" x1="428.6399841" y1="604.9084473" x2="762.1231689" y2="271.4252625"/>
				<line class="st2" x1="439.0613098" y1="615.3297729" x2="772.5444946" y2="281.8466187"/>
			</g>
			<g>
				<line class="st2" x1="449.482605" y1="604.9083252" x2="115.9995651" y2="271.4252625"/>
				<line class="st2" x1="439.0612793" y1="615.3296509" x2="105.5782166" y2="281.8465881"/>
				<line class="st2" x1="459.9039612" y1="594.4869385" x2="126.4209137" y2="261.0039063"/>
				<line class="st2" x1="470.3253174" y1="584.0656128" x2="136.8422699" y2="250.58255"/>
				<line class="st2" x1="480.7466736" y1="573.6442261" x2="147.2636108" y2="240.1612091"/>
				<line class="st2" x1="491.1679993" y1="563.2229004" x2="157.684967" y2="229.7398529"/>
				<line class="st2" x1="501.5893555" y1="552.8015747" x2="168.106308" y2="219.318512"/>
				<line class="st2" x1="512.0106812" y1="542.380188" x2="178.5276642" y2="208.8971558"/>
				<line class="st2" x1="522.4320679" y1="531.9588623" x2="188.9490051" y2="198.4758148"/>
				<line class="st2" x1="532.8533936" y1="521.5375366" x2="199.3703613" y2="188.0544586"/>
				<line class="st2" x1="522.4320679" y1="531.9588623" x2="188.9490051" y2="198.4758148"/>
				<line class="st2" x1="543.2747803" y1="511.1161804" x2="209.7917023" y2="177.6331177"/>
				<line class="st2" x1="553.696106" y1="500.6948242" x2="220.2130585" y2="167.2117615"/>
				<line class="st2" x1="564.1174316" y1="490.273468" x2="230.6343994" y2="156.7904205"/>
				<line class="st2" x1="574.5388184" y1="479.8521118" x2="241.0557556" y2="146.3690643"/>
				<line class="st2" x1="584.960144" y1="469.4307861" x2="251.4770966" y2="135.9477234"/>
				<line class="st2" x1="595.3814697" y1="459.0094299" x2="261.8984375" y2="125.5263748"/>
				<line class="st2" x1="605.8028564" y1="448.5880737" x2="272.3197937" y2="115.1050262"/>
				<line class="st2" x1="616.2241821" y1="438.1667175" x2="282.7411499" y2="104.6836777"/>
				<line class="st2" x1="605.8028564" y1="448.5880737" x2="272.3197937" y2="115.1050262"/>
				<line class="st2" x1="626.6455688" y1="427.7453918" x2="293.1624756" y2="94.2623291"/>
				<line class="st2" x1="637.0668945" y1="417.3240356" x2="303.5838318" y2="83.8409805"/>
				<line class="st2" x1="647.4882202" y1="406.9026794" x2="314.005188" y2="73.419632"/>
				<line class="st2" x1="657.9096069" y1="396.4813232" x2="324.4265442" y2="62.9982796"/>
				<line class="st2" x1="668.3309326" y1="386.0599976" x2="334.8478699" y2="52.5769348"/>
				<line class="st2" x1="678.7522583" y1="375.6386414" x2="345.2692261" y2="42.1555862"/>
				<line class="st2" x1="689.173645" y1="365.2172852" x2="355.6905823" y2="31.7342358"/>
				<line class="st2" x1="699.5949707" y1="354.795929" x2="366.1119385" y2="21.3128872"/>
				<line class="st2" x1="689.173645" y1="365.2172852" x2="355.6905823" y2="31.7342358"/>
				<line class="st2" x1="710.0163574" y1="344.3746033" x2="376.5332642" y2="10.8915396"/>
				<line class="st2" x1="720.4376831" y1="333.9532471" x2="386.9546204" y2="0.4701911"/>
				<line class="st2" x1="730.8590088" y1="323.5318909" x2="397.3759766" y2="-9.9511576"/>
				<line class="st2" x1="741.2803955" y1="313.1105347" x2="407.7973328" y2="-20.3725052"/>
				<line class="st2" x1="751.7017212" y1="302.689209" x2="418.2186584" y2="-30.7938538"/>
				<line class="st2" x1="762.1230469" y1="292.2678528" x2="428.6400146" y2="-41.2152023"/>
				<line class="st2" x1="772.5444336" y1="281.8464966" x2="439.0613708" y2="-51.6365509"/>
			</g>
		</g>
		<g class="st3">
			<rect x="277.981842" y="110.3457413" class="st4" width="322.1589355" height="322.1589355"/>
		</g>
	</g>
	<g id="Wet_Floor_2_">
		<defs>
			<rect id="SVGID_3_" x="373.8000488" y="262.4478455" width="50.242897" height="48.7380447"/>
		</defs>
		<clipPath id="SVGID_4_">
			<use xlink:href="#SVGID_3_"  style="overflow:visible;"/>
		</clipPath>
		<g class="st5">
			<g>
				<line class="st2" x1="115.999527" y1="187.6563568" x2="449.4827271" y2="-145.8268433"/>
				<line class="st2" x1="105.5781784" y1="177.2350006" x2="439.0613708" y2="-156.2481995"/>
				<line class="st2" x1="126.4208755" y1="198.0776978" x2="459.9040833" y2="-135.4055023"/>
				<line class="st2" x1="136.8422241" y1="208.499054" x2="470.3254089" y2="-124.9841461"/>
				<line class="st2" x1="147.2635651" y1="218.9203949" x2="480.7467651" y2="-114.5627975"/>
				<line class="st2" x1="157.6849213" y1="229.3417511" x2="491.1681213" y2="-104.141449"/>
				<line class="st2" x1="168.1062622" y1="239.763092" x2="501.5894775" y2="-93.7201004"/>
				<line class="st2" x1="178.5276184" y1="250.1844482" x2="512.0108032" y2="-83.2987518"/>
				<line class="st2" x1="188.9489594" y1="260.6058044" x2="522.4321899" y2="-72.8774033"/>
				<line class="st2" x1="199.3703156" y1="271.0271301" x2="532.8535156" y2="-62.4560585"/>
				<line class="st2" x1="188.9489594" y1="260.6058044" x2="522.4321899" y2="-72.8774033"/>
				<line class="st2" x1="209.7916565" y1="281.4484863" x2="543.2748413" y2="-52.0347099"/>
				<line class="st2" x1="220.2130127" y1="291.8698425" x2="553.696228" y2="-41.6133614"/>
				<line class="st2" x1="230.6343536" y1="302.2911987" x2="564.1175537" y2="-31.1920128"/>
				<line class="st2" x1="241.0557098" y1="312.7125244" x2="574.5388794" y2="-20.7706642"/>
				<line class="st2" x1="251.4770508" y1="323.1338806" x2="584.9602661" y2="-10.3493166"/>
				<line class="st2" x1="261.898407" y1="333.5552368" x2="595.3815918" y2="0.0720318"/>
				<line class="st2" x1="272.3197632" y1="343.976593" x2="605.8029785" y2="10.4933805"/>
				<line class="st2" x1="282.7410889" y1="354.3979187" x2="616.2243042" y2="20.9147282"/>
				<line class="st2" x1="272.3197632" y1="343.976593" x2="605.8029785" y2="10.4933805"/>
				<line class="st2" x1="293.1624451" y1="364.8192749" x2="626.6456299" y2="31.3360767"/>
				<line class="st2" x1="303.5838013" y1="375.2406311" x2="637.0670166" y2="41.7574234"/>
				<line class="st2" x1="314.0051575" y1="385.6619568" x2="647.4883423" y2="52.178772"/>
				<line class="st2" x1="324.4264832" y1="396.083313" x2="657.909668" y2="62.6001205"/>
				<line class="st2" x1="334.8478394" y1="406.5046692" x2="668.3310547" y2="73.0214691"/>
				<line class="st2" x1="345.2691956" y1="416.9260254" x2="678.7523804" y2="83.4428177"/>
				<line class="st2" x1="355.6905518" y1="427.3473511" x2="689.1737061" y2="93.8641663"/>
				<line class="st2" x1="366.1118774" y1="437.7687073" x2="699.5950928" y2="104.2855148"/>
				<line class="st2" x1="355.6905518" y1="427.3473511" x2="689.1737061" y2="93.8641663"/>
				<line class="st2" x1="376.5332336" y1="448.1900635" x2="710.0164185" y2="114.7068634"/>
				<line class="st2" x1="386.9545898" y1="458.6114197" x2="720.4378052" y2="125.128212"/>
				<line class="st2" x1="397.375946" y1="469.0327454" x2="730.8591309" y2="135.5495605"/>
				<line class="st2" x1="407.7972717" y1="479.4541016" x2="741.2804565" y2="145.9709015"/>
				<line class="st2" x1="418.2186279" y1="489.8754578" x2="751.7018433" y2="156.3922577"/>
				<line class="st2" x1="428.6399841" y1="500.296814" x2="762.1231689" y2="166.8135986"/>
				<line class="st2" x1="439.0613098" y1="510.7181396" x2="772.5444946" y2="177.2349548"/>
			</g>
			<g>
				<line class="st2" x1="449.482605" y1="500.2966614" x2="115.9995651" y2="166.8135986"/>
				<line class="st2" x1="439.0612793" y1="510.7179871" x2="105.5782166" y2="177.2349396"/>
				<line class="st2" x1="459.9039612" y1="489.8753052" x2="126.4209137" y2="156.3922577"/>
				<line class="st2" x1="470.3253174" y1="479.453949" x2="136.8422699" y2="145.9709015"/>
				<line class="st2" x1="480.7466736" y1="469.0325928" x2="147.2636108" y2="135.5495605"/>
				<line class="st2" x1="491.1679993" y1="458.6112671" x2="157.684967" y2="125.1282043"/>
				<line class="st2" x1="501.5893555" y1="448.1899109" x2="168.106308" y2="114.7068558"/>
				<line class="st2" x1="512.0106812" y1="437.7685547" x2="178.5276642" y2="104.2855072"/>
				<line class="st2" x1="522.4320679" y1="427.3471985" x2="188.9490051" y2="93.8641586"/>
				<line class="st2" x1="532.8533936" y1="416.9258728" x2="199.3703613" y2="83.4428101"/>
				<line class="st2" x1="522.4320679" y1="427.3471985" x2="188.9490051" y2="93.8641586"/>
				<line class="st2" x1="543.2747803" y1="406.5045166" x2="209.7917023" y2="73.0214615"/>
				<line class="st2" x1="553.696106" y1="396.0831604" x2="220.2130585" y2="62.6001129"/>
				<line class="st2" x1="564.1174316" y1="385.6618042" x2="230.6343994" y2="52.1787682"/>
				<line class="st2" x1="574.5388184" y1="375.2404785" x2="241.0557556" y2="41.7574196"/>
				<line class="st2" x1="584.960144" y1="364.8191223" x2="251.4770966" y2="31.3360691"/>
				<line class="st2" x1="595.3814697" y1="354.3977661" x2="261.8984375" y2="20.9147205"/>
				<line class="st2" x1="605.8028564" y1="343.9764099" x2="272.3197937" y2="10.4933729"/>
				<line class="st2" x1="616.2241821" y1="333.5550842" x2="282.7411499" y2="0.0720245"/>
				<line class="st2" x1="605.8028564" y1="343.9764099" x2="272.3197937" y2="10.4933729"/>
				<line class="st2" x1="626.6455688" y1="323.133728" x2="293.1624756" y2="-10.3493242"/>
				<line class="st2" x1="637.0668945" y1="312.7123718" x2="303.5838318" y2="-20.7706718"/>
				<line class="st2" x1="647.4882202" y1="302.2910461" x2="314.005188" y2="-31.1920204"/>
				<line class="st2" x1="657.9096069" y1="291.8696899" x2="324.4265442" y2="-41.613369"/>
				<line class="st2" x1="668.3309326" y1="281.4483337" x2="334.8478699" y2="-52.0347176"/>
				<line class="st2" x1="678.7522583" y1="271.0269775" x2="345.2692261" y2="-62.4560661"/>
				<line class="st2" x1="689.173645" y1="260.6056519" x2="355.6905823" y2="-72.8774109"/>
				<line class="st2" x1="699.5949707" y1="250.1842957" x2="366.1119385" y2="-83.2987595"/>
				<line class="st2" x1="689.173645" y1="260.6056519" x2="355.6905823" y2="-72.8774109"/>
				<line class="st2" x1="710.0163574" y1="239.7629395" x2="376.5332642" y2="-93.720108"/>
				<line class="st2" x1="720.4376831" y1="229.3415985" x2="386.9546204" y2="-104.1414566"/>
				<line class="st2" x1="730.8590088" y1="218.9202423" x2="397.3759766" y2="-114.5628052"/>
				<line class="st2" x1="741.2803955" y1="208.4989014" x2="407.7973328" y2="-124.9841537"/>
				<line class="st2" x1="751.7017212" y1="198.0775452" x2="418.2186584" y2="-135.4055023"/>
				<line class="st2" x1="762.1230469" y1="187.6562042" x2="428.6400146" y2="-145.8268585"/>
				<line class="st2" x1="772.5444336" y1="177.234848" x2="439.0613708" y2="-156.2481995"/>
			</g>
		</g>
		<g class="st6">
			<rect x="277.981842" y="5.7340875" class="st4" width="322.1589355" height="322.1589355"/>
		</g>
	</g>
	<g id="Wet_Floor_3_">
		<defs>
			<rect id="SVGID_5_" x="423.2999878" y="199.5000153" width="58.8691444" height="56.2358055"/>
		</defs>
		<clipPath id="SVGID_6_">
			<use xlink:href="#SVGID_5_"  style="overflow:visible;"/>
		</clipPath>
		<g class="st7">
			<g>
				<line class="st2" x1="166.4780579" y1="132.2062836" x2="499.9612427" y2="-201.2769165"/>
				<line class="st2" x1="156.0567017" y1="121.7849274" x2="489.539917" y2="-211.6982727"/>
				<line class="st2" x1="176.8993988" y1="142.6276245" x2="510.3825989" y2="-190.8555756"/>
				<line class="st2" x1="187.320755" y1="153.0489807" x2="520.8039551" y2="-180.4342194"/>
				<line class="st2" x1="197.7420959" y1="163.4703217" x2="531.2252808" y2="-170.0128784"/>
				<line class="st2" x1="208.1634521" y1="173.8916779" x2="541.6466675" y2="-159.5915222"/>
				<line class="st2" x1="218.5847931" y1="184.3130188" x2="552.0679932" y2="-149.1701813"/>
				<line class="st2" x1="229.0061493" y1="194.734375" x2="562.4893188" y2="-138.7488251"/>
				<line class="st2" x1="239.4274902" y1="205.1557159" x2="572.9107056" y2="-128.3274841"/>
				<line class="st2" x1="249.8488464" y1="215.5770721" x2="583.3320313" y2="-117.9061356"/>
				<line class="st2" x1="239.4274902" y1="205.1557159" x2="572.9107056" y2="-128.3274841"/>
				<line class="st2" x1="260.2702026" y1="225.9984131" x2="593.7533569" y2="-107.484787"/>
				<line class="st2" x1="270.6915283" y1="236.4197693" x2="604.1747437" y2="-97.0634384"/>
				<line class="st2" x1="281.1128845" y1="246.8411102" x2="614.5960693" y2="-86.6420898"/>
				<line class="st2" x1="291.5342407" y1="257.2624512" x2="625.0174561" y2="-76.2207413"/>
				<line class="st2" x1="301.9555664" y1="267.6838074" x2="635.4387817" y2="-65.7993927"/>
				<line class="st2" x1="312.3769226" y1="278.1051636" x2="645.8601074" y2="-55.3780403"/>
				<line class="st2" x1="322.7982788" y1="288.5264893" x2="656.2814941" y2="-44.9566917"/>
				<line class="st2" x1="333.219635" y1="298.9478455" x2="666.7028198" y2="-34.535347"/>
				<line class="st2" x1="322.7982788" y1="288.5264893" x2="656.2814941" y2="-44.9566917"/>
				<line class="st2" x1="343.6409607" y1="309.3692017" x2="677.1241455" y2="-24.1139965"/>
				<line class="st2" x1="354.0623169" y1="319.7905579" x2="687.5455322" y2="-13.6926489"/>
				<line class="st2" x1="364.4836731" y1="330.2118835" x2="697.9668579" y2="-3.2713001"/>
				<line class="st2" x1="374.9050293" y1="340.6332397" x2="708.3882446" y2="7.1500483"/>
				<line class="st2" x1="385.326355" y1="351.0545959" x2="718.8095703" y2="17.5713959"/>
				<line class="st2" x1="395.7477112" y1="361.4759521" x2="729.230896" y2="27.9927444"/>
				<line class="st2" x1="406.1690674" y1="371.8972778" x2="739.6522827" y2="38.414093"/>
				<line class="st2" x1="416.5904236" y1="382.318634" x2="750.0736084" y2="48.8354416"/>
				<line class="st2" x1="406.1690674" y1="371.8972778" x2="739.6522827" y2="38.414093"/>
				<line class="st2" x1="427.0117493" y1="392.7399902" x2="760.4949341" y2="59.2567902"/>
				<line class="st2" x1="437.4331055" y1="403.1613464" x2="770.9163208" y2="69.6781387"/>
				<line class="st2" x1="447.8544617" y1="413.5826721" x2="781.3376465" y2="80.0994873"/>
				<line class="st2" x1="458.2758179" y1="424.0040283" x2="791.7590332" y2="90.5208359"/>
				<line class="st2" x1="468.6971436" y1="434.4253845" x2="802.1803589" y2="100.9421844"/>
				<line class="st2" x1="479.1184998" y1="444.8467407" x2="812.6016846" y2="111.363533"/>
				<line class="st2" x1="489.539856" y1="455.2680664" x2="823.0230713" y2="121.7848816"/>
			</g>
			<g>
				<line class="st2" x1="499.9611511" y1="444.8465881" x2="166.4780884" y2="111.3635254"/>
				<line class="st2" x1="489.5397949" y1="455.2679138" x2="156.0567474" y2="121.784874"/>
				<line class="st2" x1="510.3825073" y1="434.4252319" x2="176.8994446" y2="100.9421768"/>
				<line class="st2" x1="520.803833" y1="424.0038757" x2="187.3207855" y2="90.5208282"/>
				<line class="st2" x1="531.2252197" y1="413.5825195" x2="197.7421417" y2="80.0994797"/>
				<line class="st2" x1="541.6465454" y1="403.1611938" x2="208.1634827" y2="69.6781311"/>
				<line class="st2" x1="552.0678711" y1="392.7398376" x2="218.5848389" y2="59.2567825"/>
				<line class="st2" x1="562.4892578" y1="382.3184814" x2="229.0061798" y2="48.835434"/>
				<line class="st2" x1="572.9105835" y1="371.8971252" x2="239.427536" y2="38.4140854"/>
				<line class="st2" x1="583.3319092" y1="361.4757996" x2="249.848877" y2="27.9927368"/>
				<line class="st2" x1="572.9105835" y1="371.8971252" x2="239.427536" y2="38.4140854"/>
				<line class="st2" x1="593.7532959" y1="351.0544434" x2="260.2702332" y2="17.5713902"/>
				<line class="st2" x1="604.1746216" y1="340.6330872" x2="270.6915894" y2="7.1500411"/>
				<line class="st2" x1="614.5960083" y1="330.211731" x2="281.112915" y2="-3.2713075"/>
				<line class="st2" x1="625.017334" y1="319.7904053" x2="291.5342712" y2="-13.6926556"/>
				<line class="st2" x1="635.4386597" y1="309.3690491" x2="301.9556274" y2="-24.1140041"/>
				<line class="st2" x1="645.8600464" y1="298.9476929" x2="312.3769836" y2="-34.5353508"/>
				<line class="st2" x1="656.2813721" y1="288.5263367" x2="322.7983093" y2="-44.9566994"/>
				<line class="st2" x1="666.7026978" y1="278.105011" x2="333.2196655" y2="-55.3780479"/>
				<line class="st2" x1="656.2813721" y1="288.5263367" x2="322.7983093" y2="-44.9566994"/>
				<line class="st2" x1="677.1240845" y1="267.6836548" x2="343.6410217" y2="-65.7994003"/>
				<line class="st2" x1="687.5454102" y1="257.2622986" x2="354.0623779" y2="-76.2207489"/>
				<line class="st2" x1="697.9667969" y1="246.8409576" x2="364.4837036" y2="-86.6420975"/>
				<line class="st2" x1="708.3881226" y1="236.4196167" x2="374.9050598" y2="-97.063446"/>
				<line class="st2" x1="718.8094482" y1="225.9982605" x2="385.326416" y2="-107.4847946"/>
				<line class="st2" x1="729.230835" y1="215.5769196" x2="395.7477722" y2="-117.9061432"/>
				<line class="st2" x1="739.6521606" y1="205.1555634" x2="406.1690979" y2="-128.3274841"/>
				<line class="st2" x1="750.0734863" y1="194.7342224" x2="416.5904541" y2="-138.7488403"/>
				<line class="st2" x1="739.6521606" y1="205.1555634" x2="406.1690979" y2="-128.3274841"/>
				<line class="st2" x1="760.494873" y1="184.3128662" x2="427.0118103" y2="-149.1701813"/>
				<line class="st2" x1="770.9161987" y1="173.8915253" x2="437.4331665" y2="-159.5915375"/>
				<line class="st2" x1="781.3375244" y1="163.4701691" x2="447.8544922" y2="-170.0128784"/>
				<line class="st2" x1="791.7589111" y1="153.0488281" x2="458.2758484" y2="-180.4342346"/>
				<line class="st2" x1="802.1802368" y1="142.6274719" x2="468.6972046" y2="-190.8555756"/>
				<line class="st2" x1="812.6016235" y1="132.206131" x2="479.1185608" y2="-201.2769318"/>
				<line class="st2" x1="823.0229492" y1="121.7847748" x2="489.5398865" y2="-211.6982727"/>
			</g>
		</g>
		<g class="st8">
			<rect x="328.4603882" y="-49.7159843" class="st4" width="322.1589355" height="322.1589355"/>
		</g>
	</g>
</g>
<g id="Walls">
	<polygon class="st9" points="228.5,258.5 344.7000122,258.5 344.7000122,251.5 344,251.5 344,248.6999969 341.7000122,248.6999969
		341.7000122,251.5 242.3000031,251.5 242.3000031,240 228.5,240 228.5,251.5 228.5,251.5 	"/>
	<polygon class="st9" points="242.3000031,191.5 240,191.5 240,172.1999969 341.7000122,172.1999969 341.7000122,230.8000031
		344,230.8000031 344,172.1999969 348.7000122,172.1999969 348.7000122,169.8999939 344,169.8999939 341.7000122,169.8999939
		240,169.8999939 240,143.1000061 228.5,143.1000061 228.5,191.5 228.5,191.5 228.5,207.6999969 242.3000031,207.6999969 	"/>
	<rect x="228.5" y="94.5999985" class="st9" width="13.8999939" height="16.2000046"/>
	<polygon class="st9" points="297.7000122,71.5 346,71.5 346,60 297.7000122,60 297.7000122,60 281.5,60 281.5,73.9000015
		297.7000122,73.9000015 	"/>
	<path class="st9" d="M480,94.5999985v104.0999985h-54.3999939h-2.2999878h-6.3999939V201h6.3999939v6.6999969h2.2999878V201h45
		v7.3999939h2h0.2999878H480V251.5h-50.7999878H425.5V228h-2.2999878v15.5h-8.5l0,0h-2.2999878l0,0l0,0v2.3000031l0,0v15.8000031
		h-36.2999878V201h2.2999878h2.2999878H399.5v-2.3000031h-18.7999878v-2.6000061h-2.2999878v2.6000061h-2.2999878h-2.2999878V201
		v82.7999878h2.2999878v-19.8999939h46.2000122v45.8999939h-46.2000122v-8h-2.2999878v39.6000061v2.2999878h2.2999878h1.8999939
		v-2.2999878h-1.8999939v-29.2999878h46.2000122v29.2999878H394v2.2999878h28.2999878v2.2999878h6.8999939v-87.6000061h62.2999878
		v-6.8999939V94.5999985H480z M422.2999878,261.6000061h-7.5v-15.8000031h8.5V251.5h-0.8999939v6.8999939v3.2000122H422.2999878z
		 M472.8999939,206.1000061V201H480v5.1000061H472.8999939z"/>
	<polygon class="st9" points="378.5,178 380.7999878,178 380.7999878,73.9000015 394.6000061,73.9000015 394.6000061,71.5
		439.8999939,71.5 439.8999939,60 394.6000061,60 394.6000061,60 378.5,60 378.5,71.5 378.5,73.9000015 378.5,169.8999939
		365.7999878,169.8999939 365.7999878,172.1999969 378.5,172.1999969 	"/>
	<rect x="228.5" y="288.5" class="st9" width="11.5" height="16.2000122"/>
	<rect x="228.5" y="336.8999939" class="st9" width="13.8999939" height="16.2000122"/>
	<path class="st9" d="M422.2999878,386.6000061h-30.8999939v2.2999878h30.8999939v24.2000122h-39.6000061v-6.3999939v-0.3999939
		v-1.8999939h-9.7999878v-15.5h1.2999878v-2.2999878h-1.2999878h-2.2999878v2.2999878v15.5v2.2999878v6.3999939H242.3000031
		v-7.8999939H240v-20.3999939h-11.5v20.3999939l0,0V420h12.3000031h1.6000061h186.8999786v-6.8999939v-44.2000122h-6.8999939
		v17.7000122H422.2999878z M372.8999939,406.7000122h7.5v6.3999939h-7.5V406.7000122z"/>
</g>
<g id="Windows">
	<polygon id="Windows_1_" class="st10" points="486.8999939,61.2000008 229.6000061,61.2000008 229.6000061,241.1999969
		233.1000061,241.1999969 233.1000061,64.5999985 486.8999939,64.5999985 486.8999939,95.8000031 490.3999939,95.8000031
		490.3999939,61.2000008 	"/>
	<path id="Windows_1" class="st10" d="M229.6000061,257.2999878h3.5V386.5h-3.5V257.2999878z"/>
</g>
<g id="Doors">
	<path class="st10" d="M374,302.2000122c-2.5,0-4.6000061-0.5-6.8999939-1.3999939s-4.3999939-2.2999878-6-3.8999939
		c-1.7999878-1.6000061-3.2000122-3.7000122-4.2000122-6C356,288.6000366,355.5,286.3000183,355.5,283.7000122H374"/>
	<path class="st10" d="M394.7999878,343c0,2.5-0.5,4.6000061-1.3999939,6.8999939s-2.2999878,4.3999939-3.8999939,6
		c-1.6000061,1.7999878-3.7000122,3.2000122-6,4.2000122C381.2000122,361,378.8999939,361.5,376.2999878,361.5V343"/>
	<path class="st10" d="M392.7000122,386.7999878c0-2.5-0.5-4.6000061-1.3999939-6.8999939s-2.2999878-4.3999939-3.8999939-6
		c-1.6000061-1.7999878-3.7000122-3.2000122-6-4.2000122c-2.2999878-0.8999939-4.6000061-1.3999939-7.2000122-1.3999939v18.5"/>
	<path class="st10" d="M429.1000061,369.1000061c3,0,5.7999878-0.7000122,8.5-1.7999878
		c2.7999878-1.2000122,5.5-2.7999878,7.6000061-5.1000061c2.1000061-2.1000061,3.8999939-4.6000061,5.1000061-7.3999939
		s1.7999878-5.7999878,1.7999878-8.7999878H429"/>
	<path class="st10" d="M347.7999878,170.6000061c0-2.5,0.5-4.6000061,1.3999939-6.8999939s2.2999878-4.3999939,3.8999939-6
		c1.6000061-1.8000031,3.7000122-3.1999969,6-4.1999969c2.2999878-0.8999939,4.6000061-1.3999939,7.2000122-1.3999939v18.5"/>
	<path class="st10" d="M378.5,196.3000031c-2.5,0-4.6000061-0.5-6.8999939-1.3999939s-4.3999939-2.3000031-6-3.8999939
		c-1.7999878-1.6000061-3.2000122-3.6999969-4.2000122-6C360.5,182.7000122,360,180.4000092,360,177.8000183h18.5"/>
	<path class="st10" d="M342.1000061,248.8999939c-2.5,0-4.6000061-0.5-6.8999939-1.3999939s-4.3999939-2.3000031-6-3.8999939
		C327.4000244,242,326,239.9000092,325,237.6000061S323.6000061,233,323.6000061,230.4000092h18.5"/>
	<path class="st10" d="M399.2999878,199.5c0-2.5,0.5-4.6000061,1.3999939-6.8999939
		c0.8999939-2.3000031,2.2999878-4.3999939,3.8999939-6c1.6000061-1.8000031,3.7000122-3.1999969,6-4.1999969
		s4.6000061-1.3999939,7.2000122-1.3999939v18.5"/>
</g>
<g id="Furniture_3_">
	<g>
		<g>
			<rect x="293.7999878" y="122.3000031" class="st11" width="39.7000122" height="47"/>
			<path class="st12" d="M333,122.8000031v46h-38.7000122v-46H333 M334,121.8000031h-40.7000122v48H334V121.8000031L334,121.8000031
				z"/>
		</g>
		<rect x="314.6000061" y="154.6000061" class="st13" width="15.8999939" height="11.8999939"/>
		<rect x="296.7999878" y="154.6000061" class="st13" width="15.8999939" height="11.8999939"/>

			<rect x="315.3036499" y="149.2992554" transform="matrix(0.9659289 -0.2588077 0.2588077 0.9659289 -29.23419 88.4323959)" class="st14" width="11.8996382" height="11.8996382"/>

			<rect x="299.9761353" y="149.3013916" transform="matrix(0.2588077 -0.9659289 0.9659289 0.2588077 76.7883377 410.5737)" class="st14" width="11.8996382" height="11.8996382"/>
		<g>
			<polygon class="st11" points="293.7999878,159.3000031 293.7999878,121.8000031 333.3999939,121.8000031
				333.3999939,156.8000031 309.5,160.3000031 			"/>
			<path class="st12" d="M332.8999939,122.3000031v34.0999908L309.5,159.7999878l-15.2000122-0.8999939v-36.5
				L332.8999939,122.3000031 M333.8999939,121.3000031h-40.7000122V159v0.8000031l16.2999878,1l24.3999939-3.5V157v-35.6999969
				H333.8999939z"/>
		</g>
		<polyline class="st15" points="293.7999878,158.6000061 309.7000122,158.6000061 333.5,156.6000061 		"/>
	</g>
	<g>
		<g>
			<rect x="289.5" y="172.6999969" class="st11" width="51.7000122" height="33.3000031"/>
			<path class="st12" d="M340.7000122,173.1999969V205.5H290v-32.3000031H340.7000122 M341.7000122,172.1999969H289V206.5
				h52.7000122V172.1999969L341.7000122,172.1999969z"/>
		</g>
		<rect x="324.8999939" y="175.1000061" class="st13" width="13" height="13.3999939"/>
		<rect x="324.8999939" y="190.1999969" class="st13" width="13" height="13.3999939"/>
		<polygon class="st16" points="330.2000122,176.8000031 333.6000061,186.3999939 321,189 317.6000061,179.3000031 		"/>
		<polygon class="st16" points="321,189.6999969 333.6000061,192.3000031 330.2000122,202 317.6000061,199.3999939 		"/>
		<g>
			<polygon class="st11" points="289,206 289,172.6999969 327.5,172.6999969 331.2999878,192.8000031 330.2000122,206 			"/>
			<path class="st12" d="M327.1000061,173.1999969l3.7000122,19.6000061l-1,12.6999969h-40.2999878v-32.3000031H327.1000061
				 M327.8999939,172.1999969h-0.2999878H288.5V206.5h41.3999939h0.7999878l1.1000061-13.6999969L327.8999939,172.1999969
				L327.8999939,172.1999969z"/>
		</g>
		<polyline class="st15" points="329.2999878,206 329.2999878,192.6000061 327.1000061,172.6000061 		"/>
	</g>
	<g>
		<g>
			<rect x="427.7999878" y="119.4000015" class="st11" width="51.7000122" height="33.2999954"/>
			<path class="st12" d="M479,119.9000015v32.2999954h-50.7000122v-32.3000031H479 M480,118.9000015h-52.7000122v34.2999954H480
				V118.9000015L480,118.9000015z"/>
		</g>
		<rect x="463.2000122" y="121.9000015" class="st13" width="13" height="13.4000015"/>
		<rect x="463.2000122" y="136.8999939" class="st13" width="13" height="13.3999939"/>
		<polygon class="st16" points="468.5,123.5 471.8999939,133.1999969 459.2999878,135.8000031 455.8999939,126.0999985 		"/>
		<polygon class="st16" points="459.2999878,136.5 471.8999939,139.1000061 468.5,148.8000031 455.8999939,146.1999969 		"/>
		<g>
			<polygon class="st11" points="427.2999878,152.8000031 427.2999878,119.5 465.7999878,119.5 469.6000061,139.6000061
				468.5,152.8000031 			"/>
			<path class="st12" d="M465.3999939,120l3.7000122,19.6000061l-1,12.6999969h-40.2999878V120H465.3999939 M466.2000122,119
				h-0.2999878h-39.1000061v34.3000031h41.3999939H469l1.1000061-13.6999969L466.2000122,119L466.2000122,119z"/>
		</g>
		<polyline class="st15" points="467.6000061,152.8000031 467.6000061,139.3999939 465.3999939,119.3000031 		"/>
	</g>
	<g>
		<g>
			<rect x="440.3999939" y="78.1999969" class="st11" width="38.5" height="1.8000031"/>
			<path class="st12" d="M478.3999939,78.6999969V79.5h-37.5v-0.8000031H478.3999939 M479.3999939,77.6999969h-39.5V80.5h39.5
				V77.6999969L479.3999939,77.6999969z"/>
		</g>
		<g>
			<rect x="440.3999939" y="65.5999985" class="st11" width="38.5" height="12.5999985"/>
			<path class="st12" d="M478.3999939,66.0999985v11.5999985h-37.5V66.0999985H478.3999939 M479.3999939,65.0999985h-39.5
				v13.5999985h39.5V65.0999985L479.3999939,65.0999985z"/>
		</g>
		<path class="st13" d="M479.2000122,65.5l-39.1000061,12.6999969"/>
	</g>
	<g>
		<g>
			<rect x="437.8999939" y="234.3000031" class="st11" width="41.6000061" height="16.6999969"/>
			<path class="st12" d="M479,234.8000031V250.5h-40.6000061v-15.6999969H479 M480,233.8000031h-42.6000061V251.5H480V233.8000031
				L480,233.8000031z"/>
		</g>
		<g>
			<g>
				<path class="st17" d="M476.1000061,242.6999969c0-3.3000031-2.7999878-5.8000031-6-5.5
					c-3.6000061,0.3000031-8,0.6000061-11.3999939,0.6000061c-3.2999878,0-7.7999878-0.3000031-11.3999939-0.6000061
					c-3.2000122-0.3000031-6,2.3000031-6,5.5s2.7999878,5.8000031,6,5.5c3.6000061-0.3000031,8-0.6000061,11.3999939-0.6000061
					c3.2999878,0,7.7999878,0.3000031,11.3999939,0.6000061C473.2999878,248.5,476.1000061,245.8999939,476.1000061,242.6999969z"/>
				<ellipse class="st17" cx="470.3999939" cy="242.6999969" rx="0.8999939" ry="0.8999939"/>
			</g>
		</g>
	</g>
	<g>
		<g>
			<rect x="380.2000122" y="292.6000061" class="st11" width="41.6000061" height="16.7000122"/>
			<path class="st12" d="M421.2999878,293.1000061v15.7000122h-40.6000061v-15.7000122H421.2999878 M422.2999878,292.1000061
				h-42.6000061v17.7000122h42.6000061V292.1000061L422.2999878,292.1000061z"/>
		</g>
		<g>
			<g>
				<path class="st17" d="M418.3999939,301c0-3.2999878-2.7999878-5.7999878-6-5.5
					c-3.6000061,0.2999878-8,0.6000061-11.3999939,0.6000061c-3.2999878,0-7.7999878-0.2999878-11.3999939-0.6000061
					c-3.2000122-0.2999878-6,2.2999878-6,5.5s2.7999878,5.7999878,6,5.5c3.6000061-0.2999878,8-0.6000061,11.3999939-0.6000061
					c3.2999878,0,7.7999878,0.2999878,11.3999939,0.6000061C415.6000061,306.7999878,418.3999939,304.2000122,418.3999939,301z"/>
				<ellipse class="st17" cx="412.7000122" cy="301" rx="0.8999939" ry="0.8999939"/>
			</g>
		</g>
	</g>
	<g>
		<g>
			<rect x="443.8999939" y="201.5" class="st11" width="14.1000061" height="9.3999939"/>
			<path class="st12" d="M457.5,202v8.3999939h-13.1000061V202H457.5 M458.5,201h-15.1000061v10.3999939H458.5V201L458.5,201z"/>
		</g>
		<g>
			<path class="st11" d="M451,209.1000061c-1.6000061,0-2.8999939-1.3000031-2.8999939-2.8999939
				s1.2999878-2.8999939,2.8999939-2.8999939s2.8999939,1.3000031,2.8999939,2.8999939S452.5,209.1000061,451,209.1000061z"/>
			<path class="st12" d="M451,203.8000031c1.2999878,0,2.3999939,1.1000061,2.3999939,2.3999939
				S452.2999878,208.5999908,451,208.5999908s-2.3999939-1.1000061-2.3999939-2.3999939S449.7000122,203.8000031,451,203.8000031
				 M451,202.8000031c-1.8999939,0-3.3999939,1.5-3.3999939,3.3999939s1.5,3.3999939,3.3999939,3.3999939
				s3.3999939-1.5,3.3999939-3.3999939C454.2999878,204.3000031,452.7999878,202.8000031,451,202.8000031L451,202.8000031z"/>
		</g>
	</g>
	<g>
		<path class="st13" d="M273,322.5h31.7999878v23.2000122H273V322.5z"/>
		<path class="st13" d="M270.8999939,327.7000122h-0.5c-3.5,0-6.3999939,2.8999939-6.3999939,6.3999939
			S266.8999939,340.5,270.3999939,340.5h0.5V327.7000122z"/>
		<path class="st13" d="M273,329.2999878h-2.3999939c-2.7000122,0-4.7999878,2.2000122-4.7999878,4.7999878
			c0,2.7000122,2.2000122,4.7999878,4.7999878,4.7999878H273V329.2999878z"/>
		<path class="st13" d="M306.8999939,327.7000122h0.5c3.5,0,6.3999939,2.8999939,6.3999939,6.3999939
			S310.8999939,340.5,307.3999939,340.5h-0.5V327.7000122z"/>
		<path class="st13" d="M304.7999878,329.2999878h2.3999939c2.7000122,0,4.7999878,2.2000122,4.7999878,4.7999878
			c0,2.7000122-2.2000122,4.7999878-4.7999878,4.7999878h-2.3999939V329.2999878z"/>
		<path class="st13" d="M295.2999878,347.7000122v0.5c0,3.5-2.8999939,6.3999939-6.3999939,6.3999939
			S282.5,351.7000122,282.5,348.2000122v-0.5H295.2999878z"/>
		<path class="st13" d="M293.7000122,345.6000061V348c0,2.7000122-2.2000122,4.7999878-4.7999878,4.7999878
			c-2.7000122,0-4.7999878-2.2000122-4.7999878-4.7999878v-2.3999939H293.7000122z"/>
		<path class="st13" d="M295.2999878,320.3999939v-0.5c0-3.5-2.8999939-6.3999939-6.3999939-6.3999939
			S282.5,316.3999939,282.5,319.8999939v0.5H295.2999878z"/>
		<path class="st13" d="M293.7000122,322.5v-2.3999939c0-2.7000122-2.2000122-4.7999878-4.7999878-4.7999878
			c-2.7000122,0-4.7999878,2.2000122-4.7999878,4.7999878V322.5H293.7000122z"/>
	</g>
	<g>
		<path class="st13" d="M269.2000122,88.8000031h-10.3999939l-1.3999939-9.5h13.2000122L269.2000122,88.8000031z"/>
		<g>
			<rect x="234" y="65.0999985" class="st11" width="47" height="15.0999985"/>
			<path class="st12" d="M280.5,65.5999985v14.0999985h-46V65.5999985H280.5 M281.5,64.5999985h-48v16.0999985h48V64.5999985
				L281.5,64.5999985z"/>
		</g>
		<path class="st15" d="M267.3999939,76.1999969h-8 M268.1000061,77.8000031h-9.3999939V75h9.3999939V77.8000031z"/>
		<path class="st13" d="M272,77.9000015L272,77.9000015c-0.3999939,0-0.7000122-0.3000031-0.7000122-0.6999969v-0.9000015
			c0-0.4000015,0.2999878-0.6999969,0.7000122-0.6999969l0,0c0.3999939,0,0.7000122,0.3000031,0.7000122,0.6999969v0.9000015
			C272.7999878,77.5999985,272.3999939,77.9000015,272,77.9000015z"/>
		<path class="st13" d="M265.7999878,70.4000015c0,1.3000031-1.1000061,2.4000015-2.3999939,2.4000015
			S261,71.7000046,261,70.4000015V68h4.7000122L265.7999878,70.4000015z"/>

			<rect x="263.0108948" y="56.1429482" transform="matrix(0.0016959 -0.9999986 0.9999986 0.0016959 194.5712128 331.7874146)" class="st18" width="0.8999952" height="24.6000385"/>
		<g>
			<rect x="259.1000061" y="80.6999969" class="st11" width="9.7000122" height="8.0999985"/>
			<path class="st12" d="M268.2999878,81.1999969v7.0999985h-8.7000122v-7.0999985H268.2999878 M269.2999878,80.1999969h-10.7000122
				v9.0999985h10.7000122V80.1999969L269.2999878,80.1999969z"/>
		</g>
		<g>
			<rect x="258.7999878" y="88.9000015" class="st11" width="10.2999878" height="1.8000031"/>
			<path class="st12" d="M268.6000061,89.4000015v0.8000031h-9.2999878v-0.8000031H268.6000061 M269.6000061,88.4000015h-11.2999878
				v2.8000031h11.2999878V88.4000015L269.6000061,88.4000015z"/>
		</g>
	</g>
	<g id="Sink_2_1_">
		<g id="Rectangle_16_x5F_11_1_">
			<rect x="380.3999939" y="264.3999939" class="st11" width="17.7999878" height="10.8999939"/>
			<path class="st12" d="M397.7000122,264.8999939v9.8999939h-16.7999878v-9.8999939H397.7000122 M398.7000122,263.8999939
				h-18.7999878v11.8999939h18.7999878V263.8999939L398.7000122,263.8999939z"/>
		</g>
		<path id="Rectangle_19_x5F_5_1_" class="st13" d="M383.1000061,269.8999939L383.1000061,269.8999939
			c0,2,1.6000061,3.6000061,3.6000061,3.6000061h5.2000122c2,0,3.6000061-1.6000061,3.6000061-3.6000061l0,0
			c0-2-1.6000061-3.6000061-3.6000061-3.6000061h-5.2000122
			C384.7000122,266.2000122,383.1000061,267.8999939,383.1000061,269.8999939z"/>
		<circle id="Ellipse_7_x5F_2_1_" class="st13" cx="389.2999878" cy="268.7999878" r="0.8999939"/>
	</g>
	<g id="Sink_2_2_">
		<g id="Rectangle_16_x5F_11_2_">
			<rect x="426.1000061" y="201.5" class="st11" width="17.7999878" height="10.8999939"/>
			<path class="st12" d="M443.3999939,202v9.8999939h-16.7999878V202H443.3999939 M444.3999939,201h-18.7999878v11.8999939
				h18.7999878V201L444.3999939,201z"/>
		</g>
		<path id="Rectangle_19_x5F_5_2_" class="st13" d="M428.7000122,207L428.7000122,207c0,2,1.6000061,3.6000061,3.6000061,3.6000061
			h5.2000122c2,0,3.6000061-1.6000061,3.6000061-3.6000061l0,0c0-2-1.6000061-3.6000061-3.6000061-3.6000061h-5.2000122
			C430.3999939,203.3000031,428.7000122,204.8999939,428.7000122,207z"/>
		<circle id="Ellipse_7_x5F_2_2_" class="st13" cx="435" cy="205.8999939" r="0.8999939"/>
	</g>
	<g id="Toilet_2_">
		<g id="Rectangle_21_2_">
			<rect x="476.6000061" y="208.8999939" class="st11" width="2.8999939" height="10.6000061"/>
			<path class="st12" d="M479,209.3999939V219h-1.8999939v-9.6000061H479 M480,208.3999939h-3.8999939V220H480V208.3999939
				L480,208.3999939z"/>
		</g>
		<path id="Rectangle_19_x5F_2_2_" class="st13" d="M469.2999878,218c-2.2000122,0.1000061-4.1000061-1.6000061-4.1000061-3.8000031
			l0,0c0-2.1999969,1.8999939-3.8999939,4.1000061-3.8000031l7,0.5V217.5L469.2999878,218z"/>
		<path id="Rectangle_18_x5F_13_2_" class="st13" d="M469.7999878,216.5c-1.3999939,0.1000061-2.6000061-1-2.6000061-2.3000031l0,0
			c0-1.3999939,1.2000122-2.5,2.6000061-2.3000031L473.5,212.1999969v4L469.7999878,216.5z"/>
		<ellipse id="Ellipse_6_x5F_2_2_" class="st13" cx="471.3999939" cy="214.1999969" rx="0.8999939" ry="0.8999939"/>
	</g>
	<g id="Sink_2_3_">
		<g id="Rectangle_16_x5F_11_4_">
			<rect x="411" y="394.7999878" class="st11" width="10.8999939" height="17.7999878"/>
			<path class="st12" d="M421.2999878,395.2999878v16.7999878h-9.8999939v-16.7999878H421.2999878 M422.2999878,394.2999878
				h-11.8999939v18.7999878h11.8999939V394.2999878L422.2999878,394.2999878z"/>
		</g>
		<path id="Rectangle_19_x5F_5_3_" class="st13" d="M416.3999939,409.8999939L416.3999939,409.8999939
			c-2,0-3.6000061-1.6000061-3.6000061-3.6000061v-5.2000122c0-2,1.6000061-3.6000061,3.6000061-3.6000061l0,0
			c2,0,3.6000061,1.6000061,3.6000061,3.6000061v5.2000122C420,408.2999878,418.3999939,409.8999939,416.3999939,409.8999939z"/>
		<circle id="Ellipse_7_x5F_2_3_" class="st13" cx="417.5" cy="403.7000122" r="0.8999939"/>
	</g>
	<g id="Toilet_4_">
		<g id="Rectangle_21_5_">
			<rect x="387.6000061" y="409.6000061" class="st11" width="10.6000061" height="2.8999939"/>
			<path class="st12" d="M397.7000122,410.1000061V412h-9.6000061v-1.8999939H397.7000122 M398.7000122,409.1000061h-11.6000061V413
				h11.6000061V409.1000061L398.7000122,409.1000061z"/>
		</g>
		<path id="Rectangle_19_x5F_2_4_" class="st13" d="M389.1000061,402.3999939
			c-0.1000061-2.2000122,1.6000061-4.1000061,3.7999878-4.1000061l0,0c2.2000122,0,3.8999939,1.8999939,3.7999878,4.1000061l-0.5,7
			h-6.6000061L389.1000061,402.3999939z"/>
		<path id="Rectangle_18_x5F_13_4_" class="st13" d="M390.6000061,402.7999878
			c-0.1000061-1.3999939,1-2.6000061,2.2999878-2.6000061l0,0c1.3999939,0,2.5,1.2000122,2.2999878,2.6000061L394.8999939,406.5h-4
			L390.6000061,402.7999878z"/>
		<ellipse id="Ellipse_6_x5F_2_4_" class="st13" cx="392.8999939" cy="404.3999939" rx="0.8999939" ry="0.8999939"/>
	</g>
	<g id="Toilet_1_">
		<g id="Rectangle_21_1_">
			<rect x="418.8999939" y="265.7999878" class="st11" width="2.8999939" height="10.6000061"/>
			<path class="st12" d="M421.2999878,266.2999878v9.6000061h-1.8999939v-9.6000061H421.2999878 M422.2999878,265.2999878
				h-3.8999939v11.6000061h3.8999939V265.2999878L422.2999878,265.2999878z"/>
		</g>
		<path id="Rectangle_19_x5F_2_1_" class="st13" d="M411.6000061,274.8999939C409.3999939,275,407.5,273.2999878,407.5,271.1000061
			l0,0c0-2.2000122,1.8999939-3.8999939,4.1000061-3.7999878l7,0.5v6.6000061L411.6000061,274.8999939z"/>
		<path id="Rectangle_18_x5F_13_1_" class="st13" d="M412.1000061,273.5c-1.3999939,0.1000061-2.6000061-1-2.6000061-2.2999878l0,0
			c0-1.3999939,1.2000122-2.5,2.6000061-2.2999878l3.7000122,0.2999878v4L412.1000061,273.5z"/>
		<ellipse id="Ellipse_6_x5F_2_1_" class="st13" cx="413.7000122" cy="271.1000061" rx="0.8999939" ry="0.8999939"/>
	</g>
	<g id="TV">
		<g id="Rectangle_16">
			<rect x="299.3999939" y="78.1999969" class="st11" width="34.8999939" height="1.8000031"/>
			<path class="st12" d="M333.7999878,78.6999969V79.5h-33.8999939v-0.8000031H333.7999878 M334.7999878,77.6999969h-35.8999939
				V80.5h35.8999939V77.6999969L334.7999878,77.6999969z"/>
		</g>
		<g id="Rectangle_15">
			<rect x="299.3999939" y="72" class="st11" width="34.8999939" height="6.0999985"/>
			<path class="st12" d="M333.7999878,72.5v5.0999985h-33.8999939V72.5H333.7999878 M334.7999878,71.5h-35.8999939v7.0999985
				h35.8999939V71.5L334.7999878,71.5z"/>
		</g>
		<g id="Rectangle_17">
			<rect x="304.5" y="73.5999985" class="st11" width="24.6000061" height="1.8000031"/>
			<path class="st12" d="M328.6000061,74.0999985V75H305v-0.8000031h23.6000061 M329.6000061,73.0999985H304V76h25.6000061
				V73.0999985L329.6000061,73.0999985z"/>
		</g>
		<path id="Rectangle_18_x5F_2" class="st13" d="M311.7999878,73.6999969h10.1000061L321,71.8999939h-8.2999878
			L311.7999878,73.6999969z"/>
	</g>
	<g id="Kitchen">
		<g id="Rectangle_24">
			<rect x="242.8000031" y="398.5" class="st11" width="127.3000031" height="14.1000061"/>
			<path class="st12" d="M369.6000061,399v13.1000061H243.3000031V399H369.6000061 M370.6000061,398H242.3000031v15.1000061
				h128.3000031V398L370.6000061,398z"/>
		</g>
		<g id="Rectangle_27_1_">
			<rect x="345.7999878" y="398.5" class="st11" width="14.1000061" height="14.1000061"/>
			<path class="st12" d="M359.3999939,399v13.1000061h-13.1000061V399H359.3999939 M360.3999939,398h-15.1000061v15.1000061
				h15.1000061V398L360.3999939,398z"/>
		</g>
		<g id="Sink_3">
			<rect id="Rectangle_28_x5F_2" x="271.7999878" y="399.8999939" class="st13" width="17.8999939" height="11.2999878"/>
			<path id="Rectangle_29_x5F_2" class="st13" d="M278.7999878,405.5L278.7999878,405.5
				c0-2.2999878,1.8999939-4.2000122,4.2000122-4.2000122h0.8999939c2.2999878,0,4.2000122,1.8999939,4.2000122,4.2000122l0,0
				c0,2.2999878-1.8999939,4.2000122-4.2000122,4.2000122H283C280.7000122,409.7999878,278.7999878,407.8999939,278.7999878,405.5z"
				/>
			<ellipse id="Ellipse_7_x5F_3" class="st13" cx="283.5" cy="407.3999939" rx="0.8999939" ry="0.8999939"/>
			<line class="st15" x1="272.7000122" y1="409.2999878" x2="277.3999939" y2="409.2999878"/>
			<line class="st15" x1="272.7000122" y1="407.3999939" x2="277.3999939" y2="407.3999939"/>
			<line class="st15" x1="272.7000122" y1="405.5" x2="277.3999939" y2="405.5"/>
			<line class="st15" x1="272.7000122" y1="403.6000061" x2="277.3999939" y2="403.6000061"/>
			<line class="st15" x1="272.7000122" y1="401.7000122" x2="277.3999939" y2="401.7000122"/>
		</g>
		<g id="Stove_1_">
			<g id="Rectangle_25_1_">
				<rect x="302.2000122" y="398.5" class="st11" width="13.7000122" height="14.1000061"/>
				<path class="st12" d="M315.3999939,399v13.1000061h-12.7000122V399H315.3999939 M316.3999939,398h-14.7000122v15.1000061
					h14.7000122V398L316.3999939,398z"/>
			</g>
			<g id="Rectangle_28_x5F_3_2_">
				<rect x="302.2000122" y="410.7000122" class="st11" width="13.7000122" height="1.7999878"/>
				<path class="st12" d="M315.3999939,411.2000122V412h-12.7000122v-0.7999878H315.3999939 M316.3999939,410.2000122h-14.7000122
					V413h14.7000122V410.2000122L316.3999939,410.2000122z"/>
			</g>
			<g id="Ellipse_7_x5F_4_1_">
				<circle class="st11" cx="306.2000122" cy="407.2000122" r="1.1000061"/>
				<path class="st12" d="M306.2000122,406.6000061c0.2999878,0,0.6000061,0.2999878,0.6000061,0.6000061
					s-0.2999878,0.6000061-0.6000061,0.6000061s-0.6000061-0.2999878-0.6000061-0.6000061
					S305.8999939,406.6000061,306.2000122,406.6000061 M306.2000122,405.6000061
					c-0.8999939,0-1.6000061,0.7000122-1.6000061,1.6000061s0.7000122,1.6000061,1.6000061,1.6000061
					s1.6000061-0.7000122,1.6000061-1.6000061S307.1000061,405.6000061,306.2000122,405.6000061L306.2000122,405.6000061z"/>
			</g>
			<g id="Ellipse_9_1_">
				<circle class="st11" cx="306.2000122" cy="402.3999939" r="1.5"/>
				<path class="st12" d="M306.2000122,401.3999939c0.5,0,1,0.3999939,1,1s-0.3999939,1-1,1c-0.5,0-1-0.3999939-1-1
					S305.7000122,401.3999939,306.2000122,401.3999939 M306.2000122,400.3999939c-1.1000061,0-2,0.8999939-2,2s0.8999939,2,2,2
					s2-0.8999939,2-2S307.2999878,400.3999939,306.2000122,400.3999939L306.2000122,400.3999939z"/>
			</g>
			<g id="Ellipse_10_1_">
				<circle class="st11" cx="311.7000122" cy="407.2000122" r="1.5"/>
				<path class="st12" d="M311.7000122,406.2000122c0.5,0,1,0.3999939,1,1s-0.3999939,1-1,1s-1-0.3999939-1-1
					S311.2000122,406.2000122,311.7000122,406.2000122 M311.7000122,405.2000122c-1.1000061,0-2,0.8999939-2,2s0.8999939,2,2,2
					s2-0.8999939,2-2S312.7999878,405.2000122,311.7000122,405.2000122L311.7000122,405.2000122z"/>
			</g>
			<g id="Ellipse_8_1_">
				<circle class="st11" cx="311.7000122" cy="402" r="1.1000061"/>
				<path class="st12" d="M311.7000122,401.3999939c0.2999878,0,0.6000061,0.2999878,0.6000061,0.6000061
					c0,0.2999878-0.2999878,0.6000061-0.6000061,0.6000061S311.1000061,402.3000183,311.1000061,402
					C311.1000061,401.7000122,311.3999939,401.3999939,311.7000122,401.3999939 M311.7000122,400.3999939
					c-0.8999939,0-1.6000061,0.7000122-1.6000061,1.6000061s0.7000122,1.6000061,1.6000061,1.6000061
					s1.6000061-0.7000122,1.6000061-1.6000061S312.6000061,400.3999939,311.7000122,400.3999939L311.7000122,400.3999939z"/>
			</g>
		</g>
		<path id="Vector_3_1_" class="st15" d="M350,405.5h5.7000122 M351.3999939,403l2.8999939,5 M351.3999939,408l2.8999939-5"/>
	</g>
	<g>
		<path class="st13" d="M259.6000061,289.2000122c0,0.6000061-0.5,1.2000122-1.2000122,1.2000122h-11.6999969v-26.7999878
			h12.9000092V289.2000122z"/>
		<path class="st13" d="M280.3999939,275.2999878c0,0.6000061-0.5,1.2000122-1.2000122,1.2000122h-18.2999878
			c-0.7000122,0-1.2000122-0.5-1.2000122-1.2000122V263.5h20.7999878v11.7999878H280.3999939z"/>
		<path class="st13" d="M300.3999939,275.2999878c0,0.6000061-0.5,1.2000122-1.2000122,1.2000122h-17.6000061
			c-0.6000061,0-1.2000122-0.5-1.2000122-1.2000122V263.5h20v11.7999878H300.3999939z"/>
		<path class="st13" d="M300.3999939,277.3999939h4.3999939v-18.5h-62.6999969v36h18.5999908v-4.6000061h-13.8999939V263.5H300.5
			v13.8999939H300.3999939z"/>
	</g>
	<circle class="st13" cx="459.6000061" cy="89.5999985" r="7.7999954"/>
	<g>
		<g>
			<rect x="240.5" y="185.3000031" class="st11" width="38.5" height="1.8000031"/>
			<path class="st12" d="M241,185.8000031h37.5v0.8000031H241V185.8000031 M240,184.8000031v2.8000031h39.5v-2.8000031H240
				L240,184.8000031z"/>
		</g>
		<g>
			<rect x="240.5" y="172.6999969" class="st11" width="38.5" height="12.6000061"/>
			<path class="st12" d="M241,173.1999969h37.5v11.6000061H241V173.1999969 M240,172.1999969v13.6000061h39.5v-13.6000061H240
				L240,172.1999969z"/>
		</g>
		<path class="st13" d="M279.2000122,172.6000061l-39.1000061,12.6999969"/>
	</g>
	<g>
		<g>
			<rect x="240.5" y="154.8999939" class="st11" width="46" height="1.8000031"/>
			<path class="st12" d="M286,155.3999939v0.8000031h-45v-0.8000031H286 M287,154.3999939h-47v2.8000031h47V154.3999939
				L287,154.3999939z"/>
		</g>
		<g>
			<rect x="240.5" y="156.6999969" class="st11" width="46" height="12.6000061"/>
			<path class="st12" d="M286,157.1999969v11.6000061h-45v-11.6000061H286 M287,156.1999969h-47v13.6000061h47V156.1999969
				L287,156.1999969z"/>
		</g>
		<path class="st13" d="M286.7000122,169.3999939l-46.5-12.6999969"/>
	</g>
	<g>
		<g>
			<rect x="242.8000031" y="236.6000061" class="st11" width="56.9999847" height="1.8000031"/>
			<path class="st12" d="M299.3999939,237.1000061v0.8000031h-56v-0.8000031H299.3999939 M300.3999939,236.1000061h-58v2.8000031h58
				V236.1000061L300.3999939,236.1000061z"/>
		</g>
		<g>
			<rect x="242.8000031" y="238.3999939" class="st11" width="56.9999847" height="12.6000061"/>
			<path class="st12" d="M299.3999939,238.8999939V250.5h-56v-11.6000061H299.3999939 M300.3999939,237.8999939h-58V251.5h58
				V237.8999939L300.3999939,237.8999939z"/>
		</g>
		<path class="st13" d="M300,251.1000061l-57.3999939-12.6999969"/>
	</g>
	<g>
		<g>
			<rect x="376.7000122" y="246.6999969" class="st11" width="35.2999878" height="1.8000031"/>
			<path class="st12" d="M411.5,247.1999969V248h-34.2999878v-0.8000031H411.5 M412.5,246.1999969h-36.2999878V249H412.5
				V246.1999969L412.5,246.1999969z"/>
		</g>
		<g>
			<rect x="376.7000122" y="248.5" class="st11" width="35.2999878" height="12.6000061"/>
			<path class="st12" d="M411.5,249v11.6000061h-34.2999878V249H411.5 M412.5,248h-36.2999878v13.6000061H412.5V248L412.5,248z"/>
		</g>
		<path class="st13" d="M412.2000122,261.2000122l-35.8999939-12.6999969"/>
	</g>
	<g>
		<g>
			<rect x="376.7000122" y="325.2999878" class="st11" width="45.2000122" height="1.7999878"/>
			<path class="st12" d="M421.2999878,325.7999878v0.7999878h-44.2000122v-0.7999878H421.2999878 M422.2999878,324.7999878
				h-46.2000122v2.7999878h46.2000122V324.7999878L422.2999878,324.7999878z"/>
		</g>
		<g>
			<rect x="376.7000122" y="312.7000122" class="st11" width="45.2000122" height="12.6000061"/>
			<path class="st12" d="M377.2000122,313.2000122h44.2000122v11.6000061h-44.2000122V313.2000122 M376.2000122,312.2000122
				v13.6000061h46.2000122v-13.6000061H376.2000122L376.2000122,312.2000122z"/>
		</g>
		<path class="st13" d="M422,312.6000061l-45.7000122,12.7000122"/>
	</g>
	<g>
		<g>
			<rect x="411.7000122" y="374.2999878" class="st11" width="1.7999878" height="12"/>
			<path class="st12" d="M413,374.7999878v11h-0.7999878v-11H413 M414,373.7999878h-2.7999878v13H414V373.7999878L414,373.7999878z"
				/>
		</g>
		<g>
			<rect x="413.5" y="374.2999878" class="st11" width="8.2999878" height="12"/>
			<path class="st12" d="M414,374.7999878h7.2999878v11H414V374.7999878 M413,373.7999878v13h9.2999878v-13H413L413,373.7999878z"/>
		</g>
		<path class="st13" d="M421.7999878,386.3999939L413.5,374.1000061"/>
	</g>

		<ellipse transform="matrix(0.1601823 -0.9870874 0.9870874 0.1601823 24.0392628 421.4547729)" class="st13" cx="259.7000122" cy="196.6000061" rx="7.8000035" ry="7.7999911"/>
</g>
<g id="Numbers_1_">
	<g>
		<path class="st9" d="M265.5,125.5l-1.6000061,1.8000031h2.7000122v1h-4.2000122v-0.9000015L264.5,125.0999985L265,124.5
			c0.1000061-0.0999985,0.2000122-0.3000031,0.2999878-0.5s0.1000061-0.4000015,0.1000061-0.5999985
			c0-0.3000031-0.1000061-0.5-0.2999878-0.6999969c-0.2000122-0.1999969-0.5-0.3000031-0.7999878-0.3000031
			c-0.5,0-1,0.1999969-1.6000061,0.6999969l-0.6000061-0.6999969c0.7000122-0.5999985,1.3999939-1,2.2000122-1
			c0.6000061,0,1.1000061,0.1999969,1.5,0.5999985s0.6000061,0.9000015,0.6000061,1.4000015
			C266.5,124.0999985,266.2000122,124.6999969,265.5,125.5z"/>
		<path class="st9" d="M267.1000061,123.1999969L269,121.5999985h0.7999878v6.7000046h-1V123l-1.2000122,0.9000015
			L267.1000061,123.1999969z"/>
	</g>
	<g>
		<path class="st9" d="M270.3999939,216.3999939l1.8999939-1.6000061h0.7999878v6.6999969h-1v-5.3000031l-1.2000122,0.8999939
			L270.3999939,216.3999939z"/>
		<path class="st9" d="M274.2000122,215.6999969v-0.8999939h4.2000122V215.5l-2.5,6h-1.1000061l2.5-5.6999969h-3.1000061
			V215.6999969z"/>
	</g>
	<g>
		<path class="st9" d="M394.5,221.8999939c0.6000061,0,1.2000122,0.1999969,1.6000061,0.6000061
			s0.6000061,0.8999939,0.6000061,1.6000061c0,0.6999969-0.2000122,1.1999969-0.7000122,1.6000061
			c-0.3999939,0.3999939-1,0.6000061-1.7000122,0.6000061c-0.7999878,0-1.5-0.3000031-2.2000122-0.8000031l0.5-0.8000031
			c0.6000061,0.3999939,1.1000061,0.6000061,1.7000122,0.6000061c0.3999939,0,0.7000122-0.1000061,1-0.3999939
			c0.2999878-0.1999969,0.3999939-0.5,0.3999939-0.8999939s-0.1000061-0.6999969-0.3999939-0.8999939
			c-0.2000122-0.1999969-0.6000061-0.3999939-1-0.3999939c-0.5,0-0.8999939,0.1999969-1.2000122,0.5l-0.6000061-0.3999939
			l0.3999939-3.3000031h3.3999939v0.8999939h-2.6000061l-0.2000122,1.6000061
			C393.7999878,221.8999939,394.1000061,221.8999939,394.5,221.8999939z"/>
		<path class="st9" d="M398.1000061,226.3000031c-0.2000122,0-0.2999878-0.1000061-0.5-0.1999969
			c-0.1000061-0.1000061-0.2000122-0.3000031-0.2000122-0.5s0.1000061-0.3000031,0.2000122-0.3999939
			c0.1000061-0.1000061,0.2999878-0.1999969,0.5-0.1999969s0.2999878,0.1000061,0.3999939,0.1999969
			c0.1000061,0.1000061,0.2000122,0.3000031,0.2000122,0.3999939c0,0.1999969-0.1000061,0.3000031-0.2000122,0.5
			S398.2999878,226.3000031,398.1000061,226.3000031z"/>
		<path class="st9" d="M401.8999939,219.3999939c0.7999878,0,1.3999939,0.3000031,1.7999878,0.8999939
			c0.3999939,0.6000061,0.6000061,1.3999939,0.6000061,2.3000031c0,0.5-0.1000061,1-0.2000122,1.3999939
			s-0.2999878,0.8000031-0.5,1.1999969c-0.2000122,0.3000031-0.5,0.6000061-0.8999939,0.8000031
			s-0.7999878,0.3000031-1.2000122,0.3000031c-0.7000122,0-1.2999878-0.1999969-1.7999878-0.6000061l0.3999939-0.8000031
			c0.3999939,0.3000031,0.8999939,0.5,1.2999878,0.5c0.6000061,0,1-0.1999969,1.2999878-0.6999969s0.5-1,0.5-1.6999969
			c-0.2000122,0.3000031-0.3999939,0.5-0.7000122,0.6000061s-0.6000061,0.1999969-1,0.1999969
			c-0.6000061,0-1.1000061-0.1999969-1.5-0.6000061c-0.3999939-0.3999939-0.6000061-0.8999939-0.6000061-1.5
			s0.2000122-1.1999969,0.6000061-1.6000061C400.6000061,219.6000061,401.2000122,219.3999939,401.8999939,219.3999939z
			 M403.1000061,221.6000061c0-0.3999939-0.1000061-0.6999969-0.3999939-0.8999939
			c-0.2000122-0.3000031-0.5-0.3999939-0.8999939-0.3999939s-0.7000122,0.1000061-0.8999939,0.3999939
			c-0.2000122,0.3000031-0.3999939,0.6000061-0.3999939,0.8999939c0,0.3999939,0.1000061,0.6999969,0.3999939,0.8999939
			c0.2000122,0.1999969,0.5,0.3999939,0.8999939,0.3999939s0.7000122-0.1000061,0.8999939-0.3999939
			C403,222.3000031,403.1000061,222,403.1000061,221.6000061z"/>
	</g>
	<g>
		<path class="st9" d="M447.2000122,221.8999939c0.6000061,0,1.2000122,0.1999969,1.6000061,0.6000061
			s0.6000061,0.8999939,0.6000061,1.6000061c0,0.6999969-0.2000122,1.1999969-0.7000122,1.6000061
			c-0.3999939,0.3999939-1,0.6000061-1.7000122,0.6000061c-0.7999878,0-1.5-0.3000031-2.2000122-0.8000031l0.5-0.8000031
			c0.6000061,0.3999939,1.1000061,0.6000061,1.7000122,0.6000061c0.3999939,0,0.7000122-0.1000061,1-0.3999939
			c0.2999878-0.1999969,0.3999939-0.5,0.3999939-0.8999939S448.2999878,223.3000336,448,223.1000366
			c-0.2000122-0.1999969-0.6000061-0.3999939-1-0.3999939c-0.5,0-0.8999939,0.1999969-1.2000122,0.5l-0.6000061-0.3999939
			l0.3999939-3.3000031h3.3999939v0.8999939h-2.6000061l-0.2000122,1.6000061
			C446.5,222,446.7999878,221.8999939,447.2000122,221.8999939z"/>
		<path class="st9" d="M450.8999939,226.3999939c-0.2000122,0-0.2999878-0.1000061-0.5-0.1999969
			c-0.1000061-0.1000061-0.2000122-0.3000031-0.2000122-0.5s0.1000061-0.3000031,0.2000122-0.3999939
			c0.1000061-0.1000061,0.2999878-0.1999969,0.5-0.1999969s0.2999878,0.1000061,0.3999939,0.1999969
			c0.1000061,0.1000061,0.2000122,0.3000031,0.2000122,0.3999939c0,0.1999969-0.1000061,0.3000031-0.2000122,0.5
			C451.2000122,226.3000031,451,226.3999939,450.8999939,226.3999939z"/>
		<path class="st9" d="M454.6000061,219.5c0.7999878,0,1.3999939,0.3000031,1.7999878,0.8999939
			C456.7999878,221,457,221.7999878,457,222.6999969c0,0.5-0.1000061,1-0.2000122,1.3999939s-0.2999878,0.8000031-0.5,1.1999969
			c-0.2000122,0.3000031-0.5,0.6000061-0.8999939,0.8000031s-0.7999878,0.3000031-1.2000122,0.3000031
			c-0.7000122,0-1.2999878-0.1999969-1.7999878-0.6000061l0.3999939-0.8000031c0.3999939,0.3000031,0.8999939,0.5,1.2999878,0.5
			c0.6000061,0,1-0.1999969,1.2999878-0.6999969s0.5-1,0.5-1.6999969c-0.2000122,0.3000031-0.3999939,0.5-0.7000122,0.6000061
			s-0.6000061,0.1999969-1,0.1999969c-0.6000061,0-1.1000061-0.1999969-1.5-0.6000061
			c-0.3999939-0.3999939-0.6000061-0.8999939-0.6000061-1.5s0.2000122-1.1999969,0.6000061-1.6000061
			C453.3999939,219.6999969,453.8999939,219.5,454.6000061,219.5z M455.8999939,221.6999969
			c0-0.3999939-0.1000061-0.6999969-0.3999939-0.8999939c-0.2000122-0.3000031-0.5-0.3999939-0.8999939-0.3999939
			s-0.7000122,0.1000061-0.8999939,0.3999939c-0.2000122,0.3000031-0.3999939,0.6000061-0.3999939,0.8999939
			c0,0.3999939,0.1000061,0.6999969,0.3999939,0.8999939c0.2000122,0.1999969,0.5,0.3999939,0.8999939,0.3999939
			s0.7000122-0.1000061,0.8999939-0.3999939C455.7000122,222.3999939,455.8999939,222,455.8999939,221.6999969z"/>
	</g>
	<g>
		<path class="st9" d="M399.1000061,138.3000031L397.5,140.1000061h2.7000122v1H396v-0.8999939l2.1000061-2.3000031l0.5-0.6000061
			c0.1000061-0.1000061,0.2000122-0.3000031,0.2999878-0.5C399,136.6000061,399,136.4000092,399,136.1999969
			c0-0.3000031-0.1000061-0.5-0.2999878-0.6999969c-0.2000122-0.1999969-0.5-0.3000031-0.7999878-0.3000031
			c-0.5,0-1,0.1999969-1.6000061,0.6999969l-0.6000061-0.6999969c0.7000122-0.6000061,1.3999939-1,2.2000122-1
			c0.6000061,0,1.1000061,0.1999969,1.5,0.6000061c0.3999939,0.3999939,0.6000061,0.8999939,0.6000061,1.3999939
			C400.1000061,136.8999939,399.7999878,137.6000061,399.1000061,138.3000031z"/>
		<path class="st9" d="M404.8999939,140.8999939c-0.3999939,0.1999969-0.7999878,0.3000031-1.2000122,0.3000031
			c-0.3999939,0-0.8999939-0.1000061-1.2000122-0.3000031c-0.6000061-0.3999939-1-1-1.2999878-1.8999939
			c-0.1000061-0.3999939-0.1000061-0.8000031-0.1000061-1.3000031c0-0.3999939,0-0.8000031,0.1000061-1.1999969
			s0.2000122-0.8000031,0.5-1.1000061c0.2000122-0.3000031,0.5-0.6000061,0.7999878-0.8000031
			s0.7999878-0.3000031,1.2000122-0.3000031c0.5,0,0.8999939,0.1000061,1.2000122,0.3000031
			c0.6000061,0.3000031,1.1000061,1,1.2999878,1.8999939c0.2000122,0.8000031,0.2000122,1.6999969,0,2.5
			C406,139.8999939,405.5,140.5,404.8999939,140.8999939z M403.7000122,140.1999969c0.5,0,0.8999939-0.1999969,1.2000122-0.6999969
			c0.2999878-0.5,0.3999939-1.1000061,0.3999939-1.8000031s-0.1000061-1.3000031-0.3999939-1.8000031
			s-0.7000122-0.6999969-1.2000122-0.6999969s-0.8999939,0.1999969-1.2000122,0.6999969
			c-0.2999878,0.5-0.3999939,1-0.3999939,1.8000031c0,0.6999969,0.1000061,1.3000031,0.3999939,1.8000031
			S403.2000122,140.1999969,403.7000122,140.1999969z"/>
		<path class="st9" d="M407.6000061,141.1999969c-0.2000122,0-0.2999878-0.1000061-0.5-0.1999969
			s-0.2000122-0.3000031-0.2000122-0.5s0.1000061-0.3000031,0.2000122-0.3999939s0.2999878-0.1999969,0.5-0.1999969
			s0.2999878,0.1000061,0.3999939,0.1999969s0.2000122,0.3000031,0.2000122,0.3999939
			c0,0.1999969-0.1000061,0.3000031-0.2000122,0.5S407.7999878,141.1999969,407.6000061,141.1999969z"/>
		<path class="st9" d="M411.2999878,136.8000031c0.6000061,0,1.2000122,0.1999969,1.6000061,0.6000061
			S413.5,138.3000031,413.5,139.0000153c0,0.6999969-0.2000122,1.1999969-0.7000122,1.6000061
			c-0.3999939,0.3999939-1,0.6000061-1.7000122,0.6000061c-0.7999878,0-1.5-0.3000031-2.2000122-0.8000031l0.5-0.8000031
			c0.6000061,0.3999939,1.1000061,0.6000061,1.7000122,0.6000061c0.3999939,0,0.7000122-0.1000061,1-0.3999939
			c0.2999878-0.1999969,0.3999939-0.5,0.3999939-0.8999939s-0.1000061-0.6999969-0.3999939-0.8999939
			c-0.2000122-0.1999969-0.6000061-0.3999939-1-0.3999939c-0.5,0-0.8999939,0.1999969-1.2000122,0.5l-0.6000061-0.3999939
			l0.3999939-3.3000031h3.3999939v0.8999939h-2.6000061l-0.2000122,1.6000061
			C410.6000061,136.8000031,411,136.8000031,411.2999878,136.8000031z"/>
	</g>
	<g>
		<path class="st9" d="M295,377.6000061c-0.7000122,0-1.3999939-0.2000122-2.1000061-0.7000122l0.5-0.7999878
			C294,376.5,294.5,376.6000061,295,376.6000061c0.3999939,0,0.7000122-0.1000061,0.8999939-0.2999878
			c0.2000122-0.2000122,0.2999878-0.3999939,0.2999878-0.7999878c0-0.2999878-0.1000061-0.6000061-0.3999939-0.7999878
			c-0.2000122-0.2000122-0.5-0.2999878-0.8999939-0.2999878h-0.7999878v-0.8999939h0.7999878
			c0.2999878,0,0.6000061-0.1000061,0.7999878-0.2999878c0.2000122-0.2000122,0.2999878-0.3999939,0.2999878-0.7000122
			c0-0.2999878-0.1000061-0.5-0.2999878-0.7000122s-0.5-0.2999878-0.7999878-0.2999878
			C294.5,371.500061,294,371.7000732,293.5,372.1000671l-0.5-0.7000122
			c0.2000122-0.2000122,0.6000061-0.3999939,0.8999939-0.6000061c0.3999939-0.1000061,0.7000122-0.2000122,1.1000061-0.2000122
			c0.6000061,0,1.1000061,0.2000122,1.5,0.5s0.6000061,0.7999878,0.6000061,1.2000122
			c0,0.3999939-0.1000061,0.7000122-0.2999878,0.8999939c-0.2000122,0.2999878-0.5,0.5-0.7999878,0.6000061l0,0
			c0.3999939,0.1000061,0.7000122,0.2999878,1,0.6000061c0.2000122,0.2999878,0.2999878,0.6000061,0.2999878,1.1000061
			c0,0.6000061-0.2000122,1-0.6000061,1.3999939C296.2000122,377.3999939,295.7000122,377.6000061,295,377.6000061z"/>
		<path class="st9" d="M297.8999939,371.7999878v-0.8999939h4.2000122v0.7000122l-2.5,6H298.5l2.5-5.7000122h-3.1000061V371.7999878
			z"/>
	</g>
	<g>
		<path class="st9" d="M396.5,335l-1.6000061,1.7999878h2.7000122v1h-4.2000122v-0.8999939L395.5,334.6000061L396,334
			c0.1000061-0.1000061,0.2000122-0.2999878,0.2999878-0.5c0.1000061-0.2000122,0.1000061-0.3999939,0.1000061-0.6000061
			c0-0.2999878-0.1000061-0.5-0.2999878-0.7000122c-0.2000122-0.2000122-0.5-0.2999878-0.7999878-0.2999878
			c-0.5,0-1,0.2000122-1.6000061,0.7000122l-0.6000061-0.7000122c0.7000122-0.6000061,1.3999939-1,2.2000122-1
			c0.6000061,0,1.1000061,0.2000122,1.5,0.6000061s0.6000061,0.8999939,0.6000061,1.3999939
			C397.5,333.6000061,397.2000122,334.2000122,396.5,335z"/>
		<path class="st9" d="M399.1000061,337.8999939c-0.2000122,0-0.2999878-0.1000061-0.5-0.2000122
			s-0.2000122-0.2999878-0.2000122-0.5s0.1000061-0.2999878,0.2000122-0.3999939s0.2999878-0.2000122,0.5-0.2000122
			s0.2999878,0.1000061,0.3999939,0.2000122s0.2000122,0.2999878,0.2000122,0.3999939
			c0,0.2000122-0.1000061,0.2999878-0.2000122,0.5S399.2999878,337.8999939,399.1000061,337.8999939z"/>
		<path class="st9" d="M402.7999878,331c0.7999878,0,1.3999939,0.2999878,1.7999878,0.8999939
			s0.6000061,1.3999939,0.6000061,2.2999878c0,0.5-0.1000061,1-0.2000122,1.3999939s-0.2999878,0.7999878-0.5,1.2000122
			c-0.2000122,0.2999878-0.5,0.6000061-0.8999939,0.7999878c-0.3999939,0.2000122-0.7999878,0.2999878-1.2000122,0.2999878
			c-0.7000122,0-1.2999878-0.2000122-1.7999878-0.6000061l0.3999939-0.7999878c0.3999939,0.2999878,0.8999939,0.5,1.2999878,0.5
			c0.6000061,0,1-0.2000122,1.2999878-0.7000122s0.5-1,0.5-1.7000122c-0.2000122,0.2999878-0.3999939,0.5-0.7000122,0.6000061
			s-0.6000061,0.2000122-1,0.2000122c-0.6000061,0-1.1000061-0.2000122-1.5-0.6000061s-0.6000061-0.8999939-0.6000061-1.5
			s0.2000122-1.2000122,0.6000061-1.6000061C401.6000061,331.2000122,402.2000122,331,402.7999878,331z M404.1000061,333.2000122
			c0-0.3999939-0.1000061-0.7000122-0.3999939-0.8999939c-0.2000122-0.2999878-0.5-0.3999939-0.8999939-0.3999939
			s-0.7000122,0.1000061-0.8999939,0.3999939c-0.2000122,0.2999878-0.3999939,0.6000061-0.3999939,0.8999939
			c0,0.3999939,0.1000061,0.7000122,0.3999939,0.8999939c0.2000122,0.2000122,0.5,0.3999939,0.8999939,0.3999939
			s0.7000122-0.1000061,0.8999939-0.3999939C404,333.8999939,404.1000061,333.5,404.1000061,333.2000122z"/>
	</g>
	<g>
		<path class="st9" d="M392.8999939,286.3999939c-0.7000122,0-1.3999939-0.2000122-2.1000061-0.7000122l0.5-0.7999878
			c0.6000061,0.3999939,1.1000061,0.5,1.6000061,0.5c0.3999939,0,0.7000122-0.1000061,0.8999939-0.2999878
			c0.2000122-0.2000122,0.2999878-0.3999939,0.2999878-0.7999878c0-0.2999878-0.1000061-0.6000061-0.3999939-0.7999878
			c-0.2000122-0.2000122-0.5-0.2999878-0.8999939-0.2999878H392v-0.8999939h0.7999878
			c0.2999878,0,0.6000061-0.1000061,0.7999878-0.2999878c0.2000122-0.2000122,0.2999878-0.3999939,0.2999878-0.7000122
			c0-0.2999878-0.1000061-0.5-0.2999878-0.7000122s-0.5-0.2999878-0.7999878-0.2999878
			c-0.3999939,0-0.8999939,0.2000122-1.3999939,0.6000061l-0.5-0.7000122
			c0.2000122-0.2000122,0.6000061-0.3999939,0.8999939-0.6000061c0.3999939-0.1000061,0.7000122-0.2000122,1.1000061-0.2000122
			c0.6000061,0,1.1000061,0.2000122,1.5,0.5S395,280.7000122,395,281.1000366c0,0.3999939-0.1000061,0.7000122-0.2999878,0.8999939
			c-0.2000122,0.2999878-0.5,0.5-0.7999878,0.6000061l0,0c0.3999939,0.1000061,0.7000122,0.2999878,1,0.6000061
			c0.2000122,0.2999878,0.2999878,0.6000061,0.2999878,1.1000061c0,0.6000061-0.2000122,1-0.6000061,1.3999939
			C394.2000122,286.2000122,393.6000061,286.3999939,392.8999939,286.3999939z"/>
		<path class="st9" d="M396.7999878,286.3999939c-0.2000122,0-0.2999878-0.1000061-0.5-0.2000122
			s-0.2000122-0.2999878-0.2000122-0.5s0.1000061-0.2999878,0.2000122-0.3999939s0.2999878-0.2000122,0.5-0.2000122
			s0.2999878,0.1000061,0.3999939,0.2000122s0.2000122,0.2999878,0.2000122,0.3999939
			c0,0.2000122-0.1000061,0.2999878-0.2000122,0.5S397,286.3999939,396.7999878,286.3999939z"/>
		<path class="st9" d="M400.5,279.5c0.7999878,0,1.3999939,0.2999878,1.7999878,0.8999939s0.6000061,1.3999939,0.6000061,2.2999878
			c0,0.5-0.1000061,1-0.2000122,1.3999939s-0.2999878,0.7999878-0.5,1.2000122
			c-0.2000122,0.2999878-0.5,0.6000061-0.8999939,0.7999878c-0.3999939,0.2000122-0.7999878,0.2999878-1.2000122,0.2999878
			c-0.7000122,0-1.2999878-0.2000122-1.7999878-0.6000061l0.3999939-0.7999878c0.3999939,0.2999878,0.8999939,0.5,1.2999878,0.5
			c0.6000061,0,1-0.2000122,1.2999878-0.7000122s0.5-1,0.5-1.7000122c-0.2000122,0.2999878-0.3999939,0.5-0.7000122,0.6000061
			s-0.6000061,0.2000122-1,0.2000122c-0.6000061,0-1.1000061-0.2000122-1.5-0.6000061s-0.6000061-0.8999939-0.6000061-1.5
			s0.2000122-1.2000122,0.6000061-1.6000061C399.2999878,279.7000122,399.8999939,279.5,400.5,279.5z M401.7999878,281.7000122
			c0-0.3999939-0.1000061-0.7000122-0.3999939-0.8999939c-0.2000122-0.2999878-0.5-0.3999939-0.8999939-0.3999939
			s-0.7000122,0.1000061-0.8999939,0.3999939c-0.2000122,0.2999878-0.3999939,0.6000061-0.3999939,0.8999939
			c0,0.3999939,0.1000061,0.7000122,0.3999939,0.8999939C399.8000183,282.8000183,400.1000061,283,400.5,283
			s0.7000122-0.1000061,0.8999939-0.3999939C401.6000061,282.3999939,401.7999878,282.1000061,401.7999878,281.7000122z"/>
	</g>
	<g>
		<path class="st9" d="M398.2000122,362.8999939c0.6000061,0,1.1000061,0.2000122,1.5,0.6000061s0.6000061,0.8999939,0.6000061,1.5
			s-0.2000122,1.2000122-0.7000122,1.6000061c-0.3999939,0.3999939-1,0.6000061-1.7000122,0.6000061
			c-0.7999878,0-1.3999939-0.2999878-1.7999878-0.8999939S395.5,364.9000244,395.5,364.0000305
			c0-0.6000061,0.1000061-1.2000122,0.2999878-1.7999878c0.2000122-0.5,0.5-1,0.8999939-1.2999878
			c0.3999939-0.3999939,1-0.5,1.6000061-0.5c0.7000122,0,1.2999878,0.2000122,1.7000122,0.6000061l-0.3999939,0.7999878
			c-0.3999939-0.2999878-0.7999878-0.3999939-1.2000122-0.3999939c-0.3999939,0-0.7000122,0.1000061-1,0.3999939
			c-0.5,0.5-0.7999878,1.2000122-0.7999878,2.1000061c0.1000061-0.2999878,0.3999939-0.5,0.7000122-0.7000122
			S397.8999939,362.8999939,398.2000122,362.8999939z M398.1000061,366.2999878
			c0.3999939,0,0.7000122-0.1000061,0.8999939-0.3999939c0.2000122-0.2999878,0.3999939-0.6000061,0.3999939-0.8999939
			c0-0.3999939-0.1000061-0.7000122-0.3999939-0.8999939c-0.2000122-0.2000122-0.5-0.3999939-0.8999939-0.3999939
			s-0.7000122,0.1000061-0.8999939,0.3999939C397,364.3000183,396.8000183,364.7000122,396.8000183,365
			c0,0.3999939,0.1000061,0.7000122,0.3999939,0.8999939C397.3999939,366.2000122,397.7000122,366.2999878,398.1000061,366.2999878z
			"/>
		<path class="st9" d="M401.7999878,367.2999878c-0.2000122,0-0.2999878-0.1000061-0.5-0.2000122
			s-0.2000122-0.2999878-0.2000122-0.5s0.1000061-0.2999878,0.2000122-0.3999939s0.2999878-0.2000122,0.5-0.2000122
			s0.2999878,0.1000061,0.3999939,0.2000122s0.2000122,0.2999878,0.2000122,0.3999939
			c0,0.2000122-0.1000061,0.2999878-0.2000122,0.5S402,367.2999878,401.7999878,367.2999878z"/>
		<path class="st9" d="M405.7999878,362.8999939c0.6000061,0,1.1000061,0.2000122,1.5,0.6000061s0.6000061,0.8999939,0.6000061,1.5
			s-0.2000122,1.2000122-0.7000122,1.6000061c-0.3999939,0.3999939-1,0.6000061-1.7000122,0.6000061
			c-0.7999878,0-1.3999939-0.2999878-1.7999878-0.8999939s-0.6000061-1.3999939-0.6000061-2.2999878
			c0-0.6000061,0.1000061-1.2000122,0.2999878-1.7999878s0.5-1,0.8999939-1.2999878c0.3999939-0.3999939,1-0.5,1.6000061-0.5
			c0.7000122,0,1.2999878,0.2000122,1.7000122,0.6000061l-0.3999939,0.7999878
			c-0.3999939-0.2999878-0.7999878-0.3999939-1.2000122-0.3999939c-0.3999939,0-0.7000122,0.1000061-1,0.3999939
			c-0.5,0.5-0.7999878,1.2000122-0.7999878,2.1000061c0.2000122-0.2999878,0.3999939-0.5,0.7000122-0.7000122
			S405.3999939,362.8999939,405.7999878,362.8999939z M405.6000061,366.2999878
			c0.3999939,0,0.7000122-0.1000061,0.8999939-0.3999939c0.2000122-0.2999878,0.3999939-0.6000061,0.3999939-0.8999939
			c0-0.3999939-0.1000061-0.7000122-0.3999939-0.8999939c-0.2000122-0.2000122-0.5-0.3999939-0.8999939-0.3999939
			s-0.7000122,0.1000061-0.8999939,0.3999939C404.5,364.3000183,404.3000183,364.7000122,404.3000183,365
			c0,0.3999939,0.1000061,0.7000122,0.3999939,0.8999939C404.8999939,366.2000122,405.2000122,366.2999878,405.6000061,366.2999878z
			"/>
	</g>
	<g>
		<path class="st9" d="M379.8999939,395.6000061l-1.6000061,1.7999878H381v1h-4.2000122V397.5l2.1000061-2.2999878l0.5-0.6000061
			c0.1000061-0.1000061,0.2000122-0.2999878,0.2999878-0.5c0.1000061-0.2000122,0.1000061-0.3999939,0.1000061-0.6000061
			c0-0.2999878-0.1000061-0.5-0.2999878-0.7000122C379.2999878,392.5999756,379,392.5,378.7000122,392.5
			c-0.5,0-1,0.2000122-1.6000061,0.7000122L376.5,392.5c0.7000122-0.6000061,1.3999939-1,2.2000122-1
			c0.6000061,0,1.1000061,0.2000122,1.5,0.6000061S380.8000183,393,380.8000183,393.5
			C381,394.2000122,380.6000061,394.8999939,379.8999939,395.6000061z"/>
		<path class="st9" d="M382.6000061,398.5c-0.2000122,0-0.2999878-0.1000061-0.5-0.2000122
			c-0.1000061-0.1000061-0.2000122-0.2999878-0.2000122-0.5S382,397.5,382.1000061,397.3999939s0.2999878-0.2000122,0.5-0.2000122
			s0.2999878,0.1000061,0.3999939,0.2000122s0.2000122,0.2999878,0.2000122,0.3999939
			c0,0.2000122-0.1000061,0.2999878-0.2000122,0.5S382.7000122,398.5,382.6000061,398.5z"/>
		<path class="st9" d="M386.2999878,391.6000061c0.7999878,0,1.3999939,0.2999878,1.7999878,0.8999939
			s0.6000061,1.3999939,0.6000061,2.2999878c0,0.5-0.1000061,1-0.2000122,1.3999939s-0.2999878,0.7999878-0.5,1.2000122
			c-0.2000122,0.2999878-0.5,0.6000061-0.8999939,0.7999878c-0.3999939,0.2000122-0.7999878,0.2999878-1.2000122,0.2999878
			c-0.7000122,0-1.2999878-0.2000122-1.7999878-0.6000061l0.3999939-0.7999878c0.3999939,0.2999878,0.8999939,0.5,1.2999878,0.5
			c0.6000061,0,1-0.2000122,1.2999878-0.7000122s0.5-1,0.5-1.7000122c-0.2000122,0.2999878-0.3999939,0.5-0.7000122,0.6000061
			s-0.6000061,0.2000122-1,0.2000122c-0.6000061,0-1.1000061-0.2000122-1.5-0.6000061s-0.6000061-0.8999939-0.6000061-1.5
			s0.2000122-1.2000122,0.6000061-1.6000061C385.1000061,391.7999878,385.6000061,391.6000061,386.2999878,391.6000061z
			 M387.5,393.7999878c0-0.3999939-0.1000061-0.7000122-0.3999939-0.8999939
			c-0.2000122-0.2999878-0.5-0.3999939-0.8999939-0.3999939s-0.7000122,0.1000061-0.8999939,0.3999939
			c-0.2000122,0.2999878-0.3999939,0.6000061-0.3999939,0.8999939c0,0.3999939,0.1000061,0.7000122,0.3999939,0.8999939
			c0.2000122,0.2000122,0.5,0.3999939,0.8999939,0.3999939s0.7000122-0.1000061,0.8999939-0.3999939
			C387.3999939,394.5,387.5,394.2000122,387.5,393.7999878z"/>
	</g>
</g>
<g id="street_anchors" class="st19">
	<rect id="street_x5F_anchor_x5F_03" x="521.5" y="235" class="st20" width="10" height="10"/>
	<rect id="street_x5F_anchor_x5F_02" x="188.5" y="235" class="st20" width="10" height="10"/>
	<rect id="street_x5F_anchor_x5F_01_1_" x="355" y="20" class="st20" width="10" height="10"/>
</g>
</svg>
