<?xml version="1.0" encoding="utf-8"?>
<!-- Generator: Adobe Illustrator 24.2.0, SVG Export Plug-In . SVG Version: 6.00 Build 0)  -->
<!DOCTYPE svg PUBLIC "-//W3C//DTD SVG 1.1//EN" "http://www.w3.org/Graphics/SVG/1.1/DTD/svg11.dtd" [
	<!ENTITY ns_extend "http://ns.adobe.com/Extensibility/1.0/">
	<!ENTITY ns_ai "http://ns.adobe.com/AdobeIllustrator/10.0/">
	<!ENTITY ns_graphs "http://ns.adobe.com/Graphs/1.0/">
	<!ENTITY ns_vars "http://ns.adobe.com/Variables/1.0/">
	<!ENTITY ns_imrep "http://ns.adobe.com/ImageReplacement/1.0/">
	<!ENTITY ns_sfw "http://ns.adobe.com/SaveForWeb/1.0/">
	<!ENTITY ns_custom "http://ns.adobe.com/GenericCustomNamespace/1.0/">
	<!ENTITY ns_adobe_xpath "http://ns.adobe.com/XPath/1.0/">
]>
<svg version="1.1" id="_x31__x5F_2" xmlns:x="&ns_extend;" xmlns:i="&ns_ai;" xmlns:graph="&ns_graphs;"
	 xmlns="http://www.w3.org/2000/svg" xmlns:xlink="http://www.w3.org/1999/xlink" x="0px" y="0px" viewBox="0 0 720 480"
	 style="enable-background:new 0 0 720 480;" xml:space="preserve">
<style type="text/css">
	.st0{fill:#DBD4CA;}
	.st1{opacity:0.3;}
	.st2{opacity:0.7;fill:#C49F8A;enable-background:new    ;}
	.st3{fill:#C49F8A;}
	.st4{fill:none;stroke:#565440;}
	.st5{fill:#565440;}
	.st6{fill:#E9E4DC;}
	.st7{fill:#E9E4DC;stroke:#C49F8A;stroke-linejoin:round;}
	.st8{fill:#E9E4DC;stroke:#C49F8A;}
	.st9{fill:#E9E4DC;stroke:#C49F8A;stroke-miterlimit:3.9998;}
	.st10{fill:none;stroke:#C49F8A;}
	.st11{fill:#E9E4DC;stroke:#C49F8A;stroke-width:1.0000015;stroke-miterlimit:4.0000062;}
	.st12{fill:none;}
</style>
<metadata>
	<sfw  xmlns="&ns_sfw;">
		<slices></slices>
		<sliceSourceBounds  bottomLeftOrigin="true" height="400" width="303.9134521" x="228.0432739" y="60"></sliceSourceBounds>
	</sfw>
</metadata>
<polygon id="Floor_1_" class="st0" points="244.1000061,80 247.8000031,68.3000031 302,80.8000031 403.2000122,80.8000031 
	407.5,67.3000031 480.7999878,84.1999969 472.5,120.8000031 472.5,230.1999969 485.1000061,233.3999939 470.5,294.6000061 
	470.5,331.7999878 484.5,335.7000122 471.1000061,392.7000122 471.1000061,415.2000122 228.3000031,415.2000122 228.3000031,80 "/>
<g id="Wet_Floor_1_">
	<g class="st1">
		<rect x="234.3999939" y="198.1999969" class="st2" width="71.8000183" height="140.6999969"/>
	</g>
	<path class="st3" d="M242.6000061,338.8999939H244l-6-6l10-10l9.7999878,9.7999878l-6.1999969,6.2000122h1.3999939l5.5000153-5.5
		l5.5,5.5h1.3999939l-6.2000122-6.2000122l9.7999878-9.7999878l9.7000122,9.7000122l-6.2999878,6.2999878h1.3999939
		l5.6000061-5.6000061L285,338.8999939h1.3999939l-6.2999878-6.2999878l9.7000122-9.7000122l9.7999878,9.7999878
		l-6.2000122,6.2000122h1.3999939l5.5-5.5l5.5,5.5h0.3999939v-1l-5.2000122-5.2000122l5.2000122-5.2000122v-1.3999939
		l-5.8999939,5.8999939L290.5,322.1999817l9.7999878-9.7999878l5.8999939,5.8999939v-1.3999939l-5.2000122-5.2000122
		l5.2000122-5.2000122v-1.3999939l-5.8999939,5.8999939l-9.7000122-9.7000122l9.7999878-9.7999878l5.7999878,5.7999878v-1.3999939
		l-5.1000061-5.1000061l5.1000061-5.1000061v-1.3999939l-5.7999878,5.7999878l-9.7999878-9.7999878l9.7999878-9.7999878
		l5.7999878,5.7999878v-1.3999939l-5.1000061-5.1000061l5.1000061-5.1000061v-1.3999939l-5.7999878,5.7999878l-10-10
		l9.7000122-9.6999969l6.1000061,6.1000061V254l-5.3999939-5.3999939l5.3999939-5.3999939v-1.3999939l-6.1000061,6.1000061
		l-9.7999878-9.8000031l9.7999878-9.8000031l6.1000061,6.1000061V233l-5.3999939-5.3999939l5.3999939-5.3999939v-1.3999939
		l-6.1000061,6.1000061l-9.7000122-9.6999969l10-10l5.7999878,5.8000031v-1.3999939l-5.1000061-5.1000061l5.1000061-5.1000061V200
		l-5.7999878,5.8000031l-7.6000061-7.6000061h-1.3999939L299.6999512,206.5l-10,10l-9.7999878-9.8000031l8.5-8.5H287
		L279.2000122,206l-7.7999878-7.8000031H270l8.5,8.5L268.7000122,216.5l-9.7999878-9.8000031l8.5-8.5H266L258.2000122,206
		l-7.8000031-7.8000031H249l8.5,8.5l-9.6999969,9.6999969l-9.6999969-9.6999969l8.5-8.5h-1.3999939L237.4000092,206
		l-2.8999939-2.8999939V204.5l2.1999969,2.1999969l-2.1999969,2.1999969v1.3999939l2.8999939-2.8999939l9.6999969,9.6999969
		l-9.8000031,9.8000031L234.4000092,224v1.3999939l2.1999969,2.1999969l-2.1999969,2.1999969v1.3999939l2.8999939-2.8999939
		l9.8000031,9.8000031l-9.8000031,9.8000031L234.5,245.0999908v1.3999939l2.1000061,2.1000061L234.5,250.6999969v1.3999939
		l2.8000031-2.8000031l9.8000031,9.7999878l-9.8000031,9.7999878L234.5,266.0999756v1.3999939l2.1000061,2.1000061
		L234.5,271.6999817v1.3999939l2.8000031-2.7999878L247,280l-9.6999969,9.7000122L234.5,286.9000244v1.3999939l2.1000061,2.1000061
		L234.5,292.5000305v1.3999939l2.8000031-2.7999878l9.8000031,9.7999878l-9.8000031,9.7999878L234.5,307.9000244v1.3999939
		l2.1000061,2.1000061L234.5,313.5000305v1.3999939l2.8000031-2.7999878l10,10l-10,10L234.5,329.3000488v1.3999939
		l2.1000061,2.1000061L234.5,334.9000549v1.3999939l2.8000031-2.7999878L242.6000061,338.8999939z M258.5,332l-9.8000031-9.7999878
		L258.5,312.4000244l9.7999878,9.7999878L258.5,332z M278.7000122,290.7999878l-9.7999878,9.7999878l-10-10l9.7999878-9.7999878
		L278.7000122,290.7999878z M258.8999939,269.6000061l9.7999878-9.7999878l9.7999878,9.7999878l-9.7999878,9.7999878
		L258.8999939,269.6000061z M279.3999939,291.5l9.7999878,9.7999878l-9.7999878,9.7999878l-9.7999878-9.7999878L279.3999939,291.5z
		 M269.3999939,280.1000061l9.7999878-9.7999878l10,10l-9.7999878,9.7999878L269.3999939,280.1000061z M269.3999939,259.1000061
		l9.7999878-9.8000031l9.7999878,9.8000031l-9.7999878,9.7999878L269.3999939,259.1000061z M269.5,238.1999969L279.2000122,228.5
		l9.7000122,9.6999969l-9.7000122,9.6999969L269.5,238.1999969z M278.5,248.6000061l-9.7999878,9.7999878L259,248.6999969
		l9.7999878-9.8000031L278.5,248.6000061z M258.2999878,247.8999939l-9.8000031-9.8000031l9.8000031-9.8000031l9.7999878,9.8000031
		L258.2999878,247.8999939z M268,259.1000061l-9.7999878,9.7999878l-9.6999969-9.7000122l9.8000031-9.8000031L268,259.1000061z
		 M268,280.1000061l-9.7999878,9.7999878l-9.8000031-9.7999878l9.8000031-9.7999878L268,280.1000061z M268.2000122,301.2999878
		L258.5,311l-10-10l9.7000122-9.7000122L268.2000122,301.2999878z M259.2000122,311.7000122L268.9000244,302l9.7999878,9.7999878
		L269,321.5L259.2000122,311.7000122z M279.3999939,331.8999939l-9.7000122-9.7000122l9.7000122-9.7000122l9.7000122,9.7000122
		L279.3999939,331.8999939z M299.6000061,311.7000122L289.8000183,321.5l-9.7000122-9.7000122L289.8999939,302
		L299.6000061,311.7000122z M299.7000122,290.7999878l-9.7999878,9.7999878l-9.7999878-9.7999878L289.9000244,281
		L299.7000122,290.7999878z M299.7000122,269.7999878l-9.7999878,9.7999878l-10-10l9.7999878-9.7999878L299.7000122,269.7999878z
		 M299.3999939,248.6999969l-9.7000122,9.6999969l-9.7999878-9.8000031l9.7000122-9.6999969L299.3999939,248.6999969z
		 M299.3999939,227.6999969L289.6000061,237.5l-9.7000122-9.6999969L289.6999817,218L299.3999939,227.6999969z
		 M279.2000122,207.3999939L289,217.1999969L279.2000122,227l-9.7999878-9.8000031L279.2000122,207.3999939z M278.5,227.6999969
		l-9.7000122,9.6999969L259,227.5999908l9.7000122-9.6999969L278.5,227.6999969z M258.2000122,207.5L268,217.3000031
		L258.2999878,227l-9.8000031-9.8000031L258.2000122,207.5z M238,227.6999969l9.8000031-9.8000031l9.8000031,9.8000031
		L247.8000031,237.5L238,227.6999969z M238,248.6999969l9.8000031-9.8000031l9.8000031,9.8000031L247.8000031,258.5L238,248.6999969
		z M238,269.6000061l9.8000031-9.7999878L257.5,269.5000305l-9.8000031,9.7999878L238,269.6000061z M238,290.5l9.6999969-9.7000122
		L257.5,290.5999756l-9.6999969,9.7000122L238,290.5z M238,311.5l9.8000031-9.7999878l9.9999847,10L247.9999847,321.5L238,311.5z"/>
</g>
<path id="Doors" class="st4" d="M270.3220215,335.596283c0-3.5708313,0.6491394-6.4924927,1.9477539-9.7385864
	c1.2983093-3.2460938,3.2460632-6.1677551,5.5186157-8.4399414c2.2721863-2.5969238,5.1939087-4.5447083,8.4399719-5.8430176
	c3.24646-1.2986145,6.4925232-1.9477539,10.0632935-1.9477539v25.9692993 M302.7835693,228.4729004
	c-3.5707703,0-6.492218-0.6491394-9.7385559-1.9477692c-3.2463684-1.2986298-6.1677856-3.2460785-8.4399719-5.5186157
	c-2.5968933-2.2722015-4.5447693-5.1938477-5.8430481-8.4399261c-1.2986145-3.2460938-1.9477539-6.4924927-1.9477539-10.0630035
	h25.9693298 M309.2760925,196.0114288c0-3.5708313,0.6491394-6.4924774,1.9477234-9.7385864
	c1.2983093-3.2460785,3.2460632-6.1677551,5.5186462-8.4399414c2.2724915-2.5969238,5.1939087-4.5447083,8.4399719-5.8430023
	c3.2460327-1.2983093,6.4921875-1.9477844,10.0629883-1.9477844v25.9693146 M367.587616,202.5035858
	c3.5708008,0,6.492218,0.6491547,9.7385559,1.9477844c3.2463684,1.2986298,6.1677856,3.2460785,8.4399719,5.5186005
	c2.5968933,2.2722168,4.5447693,5.1938629,5.8430481,8.4399414c1.2983093,3.2460785,1.9477539,6.4924927,1.9477539,10.0629883
	H367.587616 M237.8602753,374.5502625c4.2199249,0,8.1155396,0.9739075,12.0107422,2.5969238
	c3.8952026,1.6230469,7.7908173,3.8952637,10.7124481,7.1416626c2.9216309,2.9216919,5.5186157,6.4925232,7.1416626,10.3877258
	c1.6230164,3.8955383,2.5968933,8.1155396,2.5968933,12.3355103h-32.4614563"/>
<g id="Walls">
	<path class="st5" d="M237.7817993,338.8456421h32.4615479v-3.2460938h-32.4615479v-32.2995605h11.1182251v-13.1466064h53.8050537
		v45.446167h-6.4923706v3.2460938h9.7385254v-3.2460938V228.4761963h-3.2461548v58.4307861h-64.9232788v-87.6461792h64.9232788
		v3.2460327h3.2461548v-3.2460327h3.2460938v-3.24646h-71.4155273V85.6448975l9.8140259,0.0036011l5.1184692-21.7529297
		l-9.4138794-2.272522l-3.3606567,14.2832642h-2.157959h-9.7385254v298.6472168h9.7385254V338.8456421z M245.7000122,300.0999756
		h-7.9182129v-9.8999634h7.9182129V300.0999756z"/>
	<polygon class="st5" points="477.9978638,296.9578857 480.5951538,285.7044067 464.6888428,282.133606 461.7672119,294.4690552 
		461.7672119,336.8602905 477.9978638,336.8602905 477.9978638,336.8338013 489.6842651,339.4572144 491.9567261,330.043335 
		477.9978638,326.9099731 	"/>
	<path class="st5" d="M455.2749634,410.2614136H305v-12.161438h-12.7999878v12.161438h-54.4182129v-3.2460938h-9.7385254v3.2460938
		V420h249.9545898v-9.7385864v-21.0064087h-22.7229004V410.2614136z M295.4000244,401.3999634l6.3999634-0.0999756v8.9614258
		h-6.3999634V401.3999634z"/>
	<polygon class="st5" points="367.628479,228.4729004 364.3823242,228.4729004 364.3823242,233.2717896 341.6591797,233.2717896 
		341.6591797,236.5181885 455.2749634,236.5181885 477.9978638,236.491394 489.6842651,239.1151123 491.9567261,229.7009888 
		477.9978638,226.567627 477.9978638,178.5032959 455.2749634,178.5032959 455.2749634,233.2717896 367.628479,233.2717896 	"/>
	<polygon class="st5" points="364.3823242,196.0143433 335.166626,196.0143433 335.166626,199.2608032 364.3823242,199.2608032 
		364.3823242,202.5036011 367.628479,202.5036011 367.628479,199.2608032 367.628479,196.0143433 367.628479,92.137085 
		409.8284912,92.137085 409.8284912,92.064209 410.1532593,92.137085 416.645752,63.5708008 400.7393799,60 397.1241455,75.906311 
		367.628479,75.906311 296.2127075,75.906311 296.2127075,85.6448975 364.3823242,85.6448975 	"/>
</g>
<path id="Windows" class="st4" d="M486.4378357,80.4510422l-77.9079285-18.1785278l-0.973877,4.8691177l73.3632507,16.8799057
	l-8.4399414,36.6817856v61.0277252h4.8690796v-61.0277252L486.4378357,80.4510422z M485.1395264,332.3534851l4.8690796,0.973877
	l-13.8033752,60.3789368l-4.8690796-0.973877L485.1395264,332.3534851z M485.1395264,231.7222443l4.8690796,0.9739075
	l-12.9846191,56.8077545l-4.8690796-0.9739075L485.1395264,231.7222443z M245.5726166,62.9216728l61.0276947,13.9585533
	l-0.973877,4.8691177l-61.0277863-13.9585571L245.5726166,62.9216728z"/>
<g id="Furniture_2_">
	<g>
		<g>
			<rect x="245.0915527" y="263.1000061" class="st6" width="57.4084473" height="23.3999939"/>
			<path class="st3" d="M302,263.6000061V286h-56.4084473v-22.3999939H302 M303,262.6000061h-58.4084473V287H303V262.6000061
				L303,262.6000061z"/>
		</g>
		<g>
			<g>
				<path class="st7" d="M249.8000031,274.7999878c0,4.5,3.8999939,8,8.3000031,7.6000061
					c4.8999939-0.3999939,11-0.7999878,15.6000061-0.7999878c4.5,0,10.7000122,0.3999939,15.6000061,0.7999878
					c4.3999939,0.3999939,8.2999878-3.1000061,8.2999878-7.6000061s-3.8999939-8-8.2999878-7.6000061
					c-4.8999939,0.3999939-11,0.7999878-15.6000061,0.7999878c-4.5,0-10.7000122-0.3999939-15.6000061-0.7999878
					C253.6000061,266.7999878,249.8000031,270.2999878,249.8000031,274.7999878z"/>
				<ellipse class="st7" cx="257.5" cy="274.7999878" rx="1" ry="1"/>
			</g>
		</g>
	</g>
	<g id="Sink_2">
		<g>
			<rect x="249.3999939" y="290.6454468" class="st6" width="31.2999878" height="12.1000061"/>
			<path class="st3" d="M280.2000122,291.1454468v11.1000061h-30.3000031v-11.1000061H280.2000122 M281.2000122,290.1454468
				h-32.3000031v13.1000061h32.3000031V290.1454468L281.2000122,290.1454468z"/>
		</g>
		<path id="Rectangle_19_x5F_5" class="st8" d="M262.8999939,296.7454224L262.8999939,296.7454224
			c0,2.1000061,1.5,3.7000122,3.5,3.7000122h4.8999939c1.8999939,0,3.5-1.7000122,3.5-3.7000122l0,0
			c0-2.1000061-1.5-3.7000122-3.5-3.7000122h-4.8999939C264.3999939,292.9454346,262.8999939,294.6454468,262.8999939,296.7454224z"
			/>
		<ellipse class="st8" cx="268.7999878" cy="295.7454224" rx="1" ry="1"/>
	</g>
	<g id="Sink_2_1_">
		<g id="Rectangle_16_x5F_11_1_">
			<rect x="241.0869446" y="199.8000031" class="st6" width="14.1999969" height="30.1000061"/>
			<path class="st3" d="M254.7869415,200.3000031v29.1000061h-13.1999969v-29.1000061H254.7869415 M255.7869415,199.3000031
				h-15.1999969v31.1000061h15.1999969V199.3000031L255.7869415,199.3000031z"/>
		</g>
		<path id="Rectangle_19_x5F_5_1_" class="st8" d="M248.1869354,222.3999939L248.1869354,222.3999939
			c2.3999939,0,4.3000031-1.8000031,4.3000031-4v-5.6999969c0-2.1999969-1.8999939-4-4.3000031-4l0,0
			c-2.3999939,0-4.3000031,1.8000031-4.3000031,4v5.6999969
			C243.8869476,220.6999969,245.7869415,222.3999939,248.1869354,222.3999939z"/>
		<ellipse class="st8" cx="246.9869385" cy="215.6000061" rx="1" ry="1"/>
	</g>
	<g>
		<g>
			<rect x="368.3999939" y="92.8000031" class="st6" width="44.1000061" height="69.3000031"/>
			<path class="st3" d="M368.8999939,93.3000031H412v68.3000031h-43.1000061V93.3000031 M367.8999939,92.3000031v70.3000031H413
				V92.3000031H367.8999939L367.8999939,92.3000031z"/>
		</g>
		<rect x="391.5" y="97.3000031" class="st8" width="17.6000061" height="17.4000015"/>
		<rect x="371.7000122" y="97.3000031" class="st8" width="17.6000061" height="17.4000015"/>
		<polygon class="st9" points="406.8999939,107.5999985 394.2000122,103.0999985 390.7999878,119.9000015 403.5,124.4000015 		"/>
		<polygon class="st9" points="389.8999939,119.9000015 386.5,103.0999985 373.7999878,107.5999985 377.2000122,124.4000015 		"/>
		<g>
			<polygon class="st6" points="368.3999939,162.6999969 368.3999939,107.5 385.8999939,106 412.3999939,111.0999985 
				412.3999939,162.6999969 			"/>
			<path class="st3" d="M385.7999878,106.5l26.1000061,5v50.6999969h-43.1000061v-54.0999985v-0.1999969L385.7999878,106.5
				 M385.8999939,105.5l-18,1.5v1.0999985v55.0999985H413V111v-0.4000015L385.8999939,105.5L385.8999939,105.5z"/>
		</g>
		<polyline class="st10" points="368.5,108.8000031 386.1000061,108.8000031 412.3999939,111.6999969 		"/>
	</g>
	<g>
		<g>
			<rect x="238.2789917" y="100.9000015" class="st6" width="64.1999817" height="51.5999985"/>
			<path class="st3" d="M238.7789917,101.4000015h63.2000122V152H238.779007L238.7789917,101.4000015 M237.7789917,100.4000015V153
				h65.1999817v-52.5999985H237.7789917L237.7789917,100.4000015z"/>
		</g>
		<rect x="242.3789825" y="104.8000031" class="st8" width="16.0999908" height="20.5"/>
		<rect x="242.3789825" y="127.9000015" class="st8" width="16.0999908" height="20.4999924"/>
		<polygon class="st9" points="251.9789886,107.4000015 247.7789917,122.1999969 263.3789978,126.1999969 267.4789734,111.3000031 
					"/>
		<polygon class="st9" points="263.3789978,127.1999969 247.7789917,131.1999969 251.9789886,146.1000061 267.5789795,142.1000061 
					"/>
		<g>
			<polygon class="st6" points="251.8789825,152.5 250.4789886,131.8999939 255.2789917,100.9000015 303.0789795,100.9000015 
				303.0789795,152.5 			"/>
			<path class="st3" d="M255.6789856,101.4000015h46.8999939V152h-50.1999969h-0.1000061l-1.3000031-20L255.6789856,101.4000015
				 M255.1789856,100.4000015h-0.3000031l-4.8000031,31.4999924l1.3999939,21h1h51.2000122v-52.5999985L255.1789856,100.4000015
				L255.1789856,100.4000015z"/>
		</g>
		<polyline class="st10" points="253.0789795,152.3000031 253.0789795,131.6999969 255.7789917,100.9000015 		"/>
	</g>
	<g>
		<g>
			<rect x="278.0092163" y="392.1614075" class="st6" width="9" height="17.6000061"/>
			<path class="st3" d="M286.5092163,392.6614075v16.6000061h-8v-16.6000061H286.5092163 M287.5092163,391.6614075h-10v18.6000061
				h10V391.6614075L287.5092163,391.6614075z"/>
		</g>
		<g>
			<rect x="279.6092224" y="392.1614075" class="st6" width="12.1000061" height="17.6000061"/>
			<path class="st3" d="M291.2092285,392.6614075v16.6000061h-11.1000061v-16.6000061H291.2092285 M292.2092285,391.6614075
				h-13.1000061v18.6000061h13.1000061V391.6614075L292.2092285,391.6614075z"/>
		</g>
		<path class="st8" d="M291.7092285,409.8613892l-12-17.8999939"/>
	</g>
	<g id="Toilet_1_">
		<g id="Rectangle_21_1_">
			<rect x="245.0869446" y="239.1999969" class="st6" width="4" height="12.6000061"/>
			<path class="st3" d="M248.5869446,239.6999969v11.6000061h-3v-11.6000061H248.5869446 M249.5869446,238.6999969h-5v13.6000061h5
				V238.6999969L249.5869446,238.6999969z"/>
		</g>
		<path id="Rectangle_19_x5F_2_1_" class="st8" d="M258.2869263,250.3999939c2.7999878,0.1999969,5.1000061-2,5.1000061-4.8000031
			l0,0c0-2.8000031-2.2999878-5-5.1000061-4.8000031l-8.8999786,0.6000061v8.5L258.2869263,250.3999939z"/>
		<path id="Rectangle_18_x5F_13_1_" class="st8" d="M257.7869263,248.8999939c2.1000061,0.1999969,4-1.3999939,4-3.3999939l0,0
			c0-2-1.7999878-3.5-4-3.3999939l-5.7999878,0.5v5.8000031L257.7869263,248.8999939z"/>
		<ellipse id="Ellipse_6_x5F_2_1_" class="st8" cx="254.8869476" cy="245.5" rx="1" ry="1"/>
	</g>
	<g id="Toilet_2_">
		<g id="Rectangle_21_2_">
			<rect x="245.0869446" y="313.7999878" class="st6" width="4" height="12.6000061"/>
			<path class="st3" d="M248.5869446,314.2999878v11.6000061h-3v-11.6000061H248.5869446 M249.5869446,313.2999878h-5v13.6000061h5
				V313.2999878L249.5869446,313.2999878z"/>
		</g>
		<path id="Rectangle_19_x5F_2_2_" class="st8" d="M258.2869263,324.8999939c2.7999878,0.2000122,5.1000061-2,5.1000061-4.7999878
			l0,0c0-2.7999878-2.2999878-5-5.1000061-4.7999878l-8.8999786,0.6000061v8.5L258.2869263,324.8999939z"/>
		<path id="Rectangle_18_x5F_13_2_" class="st8" d="M257.7869263,323.3999939c2.1000061,0.2000122,4-1.3999939,4-3.3999939l0,0
			c0-2-1.7999878-3.5-4-3.3999939l-5.7999878,0.5v5.7999878L257.7869263,323.3999939z"/>
		<ellipse id="Ellipse_6_x5F_2_2_" class="st8" cx="254.8869476" cy="320.1000061" rx="1" ry="1"/>
	</g>
	<g>
		<g>
			<rect x="280.7000122" y="290.6454468" class="st6" width="21.7999878" height="11.1000061"/>
			<path class="st3" d="M302,291.1454468v10.1000061h-20.7999878v-10.1000061H302 M303,290.1454468h-22.7999878v12.1000061H303
				V290.1454468L303,290.1454468z"/>
		</g>
		<g>
			<circle class="st6" cx="291.6000061" cy="296.2454224" r="3.3999939"/>
			<path class="st3" d="M291.6000061,293.2454224c1.6000061,0,2.8999939,1.2999878,2.8999939,2.8999939
				s-1.2999878,2.8999939-2.8999939,2.8999939s-2.8999939-1.2999878-2.8999939-2.8999939
				C288.6000061,294.5454407,289.8999939,293.2454224,291.6000061,293.2454224 M291.6000061,292.2454224
				c-2.2000122,0-3.8999939,1.7999878-3.8999939,3.8999939c0,2.2000122,1.7999878,3.8999939,3.8999939,3.8999939
				c2.2000122,0,3.8999939-1.7999878,3.8999939-3.8999939C295.5,294.0454407,293.7000122,292.2454224,291.6000061,292.2454224
				L291.6000061,292.2454224z"/>
		</g>
	</g>
	<g>
		<path class="st8" d="M380.5,296.8999939H423v30.8999939h-42.5V296.8999939z"/>
		<path class="st8" d="M425.6000061,304.6000061h0.6000061c4.2999878,0,7.7000122,3.5,7.7000122,7.7000122
			c0,4.2999878-3.5,7.7000122-7.7000122,7.7000122h-0.6000061V304.6000061z"/>
		<path class="st8" d="M423,305.8999939h3.2000122c3.6000061,0,6.3999939,2.8999939,6.3999939,6.3999939
			s-2.8999939,6.3999939-6.3999939,6.3999939H423V305.8999939z"/>
		<path class="st8" d="M377.8999939,304.6000061h-0.6000061c-4.2999878,0-7.7000122,3.5-7.7000122,7.7000122
			c0,4.2999878,3.5,7.7000122,7.7000122,7.7000122h0.6000061V304.6000061z"/>
		<path class="st8" d="M380.5,305.8999939h-3.2000122c-3.6000061,0-6.3999939,2.8999939-6.3999939,6.3999939
			s2.8999939,6.3999939,6.3999939,6.3999939H380.5V305.8999939z"/>
		<path class="st8" d="M409.5,294.2999878v-0.6000061c0-4.2999878-3.5-7.7000122-7.7000122-7.7000122
			c-4.2999878,0-7.7000122,3.5-7.7000122,7.7000122v0.6000061H409.5z"/>
		<path class="st8" d="M408.2000122,296.8999939v-3.2000122c0-3.6000061-2.8999939-6.3999939-6.3999939-6.3999939
			c-3.6000061,0-6.3999939,2.8999939-6.3999939,6.3999939v3.2000122H408.2000122z"/>
		<path class="st8" d="M409.5,330.3999939V331c0,4.2999878-3.5,7.7000122-7.7000122,7.7000122
			c-4.2999878,0-7.7000122-3.5-7.7000122-7.7000122v-0.6000061H409.5z"/>
		<path class="st8" d="M408.2000122,327.7999878V331c0,3.6000061-2.8999939,6.3999939-6.3999939,6.3999939
			c-3.6000061,0-6.3999939-2.8999939-6.3999939-6.3999939v-3.2000122H408.2000122z"/>
	</g>
	<g>
		<path class="st8" d="M434.1000061,279.1365051c0,0.8999939,0.7000122,1.6000061,1.6000061,1.6000061H452V243.536499h-17.8999939
			V279.1365051z"/>
		<path class="st8" d="M405.2000122,259.9364929c0,0.8999939,0.7999878,1.6000061,1.7000122,1.6000061h25.5
			c0.8999939,0,1.7000122-0.7000122,1.7000122-1.6000061v-16.4000092h-28.8999939L405.2000122,259.9364929L405.2000122,259.9364929z
			"/>
		<path class="st8" d="M377.3999939,259.9364929c0,0.8999939,0.7000122,1.6000061,1.6000061,1.6000061h24.5
			c0.8999939,0,1.6000061-0.7000122,1.6000061-1.6000061v-16.4000092h-27.7999878L377.3999939,259.9364929z"/>
		<path class="st8" d="M377.3999939,262.71698h-6V237.016983h87.3000183v49.9999847h-25.7999878v-6.3999939H452v-37.3000031
			h-74.6000061V262.71698z"/>
	</g>
	<g>
		<g>
			<rect x="343" y="153.5" class="st6" width="13.6000061" height="42.1999969"/>
			<path class="st3" d="M356.1000061,154v41.1999969H343.5V154H356.1000061 M357.1000061,153H342.5v43.1999969h14.6000061V153
				L357.1000061,153z"/>
		</g>
		<g>
			<rect x="345.1000061" y="153.5" class="st6" width="19" height="42.1999969"/>
			<path class="st3" d="M363.6000061,154v41.1999969h-18V154H363.6000061 M364.6000061,153h-20v43.1999969h20V153L364.6000061,153z"
				/>
		</g>
		<path class="st8" d="M364,195.8000031l-18.7000122-42.6999969"/>
	</g>
	<g>
		<g>
			<rect x="404.8727112" y="211.6907959" class="st6" width="49.7999878" height="13.6000061"/>
			<path class="st3" d="M454.2727051,212.1907959v12.6000061h-48.7999878v-12.6000061H454.2727051 M455.2727051,211.1907959
				h-50.7999878v14.6000061h50.7999878V211.1907959L455.2727051,211.1907959z"/>
		</g>
		<g>
			<rect x="404.8727112" y="213.790802" class="st6" width="49.7999878" height="19"/>
			<path class="st3" d="M454.2727051,214.290802v18h-48.7999878v-18H454.2727051 M455.2727051,213.290802h-50.7999878v20h50.7999878
				V213.290802L455.2727051,213.290802z"/>
		</g>
		<path class="st8" d="M404.7727051,232.6907959l50.2999878-18.6999969"/>
	</g>
	<g>
		<g>
			<rect x="238.2849579" y="341.1355896" class="st6" width="31.5000153" height="13.6000061"/>
			<path class="st3" d="M238.7849579,341.6355896h30.4999847v12.6000061h-30.4999847V341.6355896 M237.7849579,340.6355896
				v14.6000061h32.4999847v-14.6000061H237.7849579L237.7849579,340.6355896z"/>
		</g>
		<g>
			<rect x="238.2849579" y="339.3355713" class="st6" width="31.5000153" height="13.2000122"/>
			<path class="st3" d="M238.7849579,339.8355713h30.4999847v12.2000122h-30.4999847V339.8355713 M237.7849579,338.8355713
				v14.2000122h32.4999847v-14.2000122H237.7849579L237.7849579,338.8355713z"/>
		</g>
		<path class="st8" d="M269.9849243,339.3355713l-32.0999908,13.2999878"/>
	</g>
	<g>
		<g>
			<rect x="352.8999939" y="97.1999969" class="st6" width="2.2999878" height="48.5999908"/>
			<path class="st3" d="M354.7000122,97.6999969v47.5999908h-1.2999878V97.6999969H354.7000122 M355.7000122,96.6999969h-3.2999878
				v49.5999908h3.2999878V96.6999969L355.7000122,96.6999969z"/>
		</g>
		<g>
			<rect x="355" y="97.1999969" class="st6" width="9.1000061" height="48.5999908"/>
			<path class="st3" d="M363.6000061,97.6999969v47.5999908H355.5V97.6999969H363.6000061 M364.6000061,96.6999969H354.5v49.5999908
				h10.1000061V96.6999969L364.6000061,96.6999969z"/>
		</g>
		<rect x="360.7000122" y="104.4000015" class="st8" width="1.7000122" height="35.0999985"/>
		<path class="st8" d="M362.3999939,114.5v14.8999939L364,127.9999924v-12.1999969L362.3999939,114.5z"/>
	</g>
	<g>
		<rect x="238.3869476" y="303.7999878" class="st6" width="6.8000031" height="31.2999878"/>
		<path class="st3" d="M244.5869446,304.2999878v30.2999878h-5.8000031v-30.2999878H244.5869446 M245.5869446,303.2999878
			h-7.8000031v32.2999878h7.8000031V303.2999878L245.5869446,303.2999878z"/>
	</g>
	<g>
		<polygon class="st6" points="238.2869415,286.5 238.2869415,199.8000031 241.0869446,199.8000031 241.0869446,229.8999939 
			245.0869446,229.8999939 245.0869446,286.5 		"/>
		<path class="st3" d="M240.5869446,200.3000031v29.1000061v1h1h3V286h-5.8999939v-47.3000031v-9.3000031v-29.1000061h1.8999939
			 M241.5869446,199.3000031h-3.8000031v30.1000061v9.3000031V287h7.8999939v-57.6000061h-4v-30.1000061h-0.0999908V199.3000031z"/>
	</g>
	<g>
		<g>
			<polygon class="st6" points="437.2999878,158.2033081 437.2999878,143.9033051 449.3999939,141.9033051 449.3999939,160.103302 
							"/>
			<path class="st3" d="M448.8999939,142.5032959v17l-11.1000061-1.8000031V144.303299L448.8999939,142.5032959
				 M449.8999939,141.303299l-13.1000061,2.1000061v15.1999969l13.1000061,2.1000061V141.303299L449.8999939,141.303299z"/>
		</g>
		<g>
			<rect x="449.7999878" y="122.603302" class="st6" width="21.7000122" height="55.3999939"/>
			<path class="st3" d="M471,123.103302v54.3999939h-20.7000122v-54.4000015L471,123.103302 M472,122.103302h-22.7000122v56.3999939
				H472V122.103302L472,122.103302z"/>
		</g>
		<path class="st10" d="M455.8999939,156.0032959V144.603302 M453.3999939,157.0032959V143.603302h4v13.3999939H453.3999939z"/>
		<path class="st8" d="M453.2000122,162.5032959L453.2000122,162.5032959c0-0.6000061,0.5-1,1-1H455.5c0.6000061,0,1,0.5,1,1l0,0
			c0,0.6000061-0.5,1-1,1h-1.2999878C453.6000061,163.5032959,453.2000122,163.0032959,453.2000122,162.5032959z"/>
		<path class="st8" d="M463.8999939,153.603302c-1.7999878,0-3.2999878-1.5-3.2999878-3.3000031s1.5-3.3000031,3.2999878-3.3000031
			h3.2999878v6.6999969L463.8999939,153.603302z"/>
		
			<rect x="449.6795349" y="149.3579559" transform="matrix(0.0016959 -0.9999986 0.9999986 0.0016959 315.9298096 617.0819092)" class="st11" width="34.7000771" height="1.899994"/>
		<g>
			<rect x="437.2999878" y="144.0032959" class="st6" width="12.1000061" height="14.1999969"/>
			<path class="st3" d="M448.8999939,144.5032959v13.1000061h-11.1000061v-13.1999969L448.8999939,144.5032959
				 M449.8999939,143.5032959h-13.1000061v15.1000061h13.1000061V143.5032959L449.8999939,143.5032959z"/>
		</g>
		<g>
			<rect x="435.3999939" y="143.9033051" class="st6" width="1.8999939" height="14.1999969"/>
			<path class="st3" d="M436.7999878,144.4033051v13.1999969h-0.8999939v-13.1999969H436.7999878 M437.7999878,143.4033051
				h-2.8999939v15.1999969h2.8999939V143.4033051L437.7999878,143.4033051z"/>
		</g>
	</g>
	<g id="Kitchen">
		<g id="Rectangle_24">
			<rect x="305.6000061" y="389.6000061" class="st6" width="82.1000061" height="20.2000122"/>
			<path class="st3" d="M387.1000061,390.1000061v19.2000122H306v-19.2000122H387.1000061 M388.1000061,389.1000061H305v21.2000122
				h83.1000061V389.1000061L388.1000061,389.1000061z"/>
		</g>
		<g id="Oven">
			<g id="Rectangle_28">
				<rect x="409.1000061" y="388.1000061" class="st6" width="22.6000061" height="20.3999939"/>
				<path class="st3" d="M431.2000122,388.6000061V408h-21.6000061v-19.3999939H431.2000122 M432.2000122,387.6000061h-23.6000061
					V409h23.6000061V387.6000061L432.2000122,387.6000061z"/>
			</g>
		</g>
		<g id="Rectangle_26_1_">
			<rect x="405.1000061" y="389.6000061" class="st6" width="28.7000122" height="20.2000122"/>
			<path class="st3" d="M433.2999878,390.1000061v19.2000122h-27.7000122v-19.2000122H433.2999878 M434.2999878,389.1000061
				h-29.7000122v21.2000122h29.7000122V389.1000061L434.2999878,389.1000061z"/>
		</g>
		<g id="Rectangle_27_1_">
			<rect x="434.7999878" y="389.6000061" class="st6" width="20.2000122" height="20.2000122"/>
			<path class="st3" d="M454.5,390.1000061v19.2000122h-19.2000122v-19.2000122H454.5 M455.5,389.1000061h-21.2000122v21.2000122
				H455.5V389.1000061L455.5,389.1000061z"/>
		</g>
		<g id="Sink_3">
			<rect id="Rectangle_28_x5F_2" x="309" y="391.7999878" class="st8" width="25.1000061" height="15.8999939"/>
			<path id="Rectangle_29_x5F_2" class="st8" d="M318.8999939,399.7000122L318.8999939,399.7000122
				c0-3.2999878,2.7000122-5.8999939,5.8999939-5.8999939h1.2999878c3.2999878,0,5.8999939,2.7000122,5.8999939,5.8999939l0,0
				c0,3.2999878-2.7000122,5.8999939-5.8999939,5.8999939h-1.2999878
				C321.6000061,405.7000122,318.8999939,403,318.8999939,399.7000122z"/>
			<ellipse id="Ellipse_7_x5F_3" class="st8" cx="325.3999939" cy="402.3999939" rx="1" ry="1"/>
			<path id="Vector_2" class="st10" d="M310.2999878,405.7000122h6.6000061 M310.2999878,403.7000122h6.6000061
				 M310.2999878,401.7000122h6.6000061 M310.2999878,399.7000122h6.6000061 M310.2999878,397.7000122h6.6000061
				 M310.2999878,395.7000122h6.6000061 M310.2999878,393.7999878h6.6000061"/>
		</g>
		<g id="Stove">
			<g id="Rectangle_25">
				<rect x="387.7000122" y="389.6000061" class="st6" width="19.6000061" height="20.2000122"/>
				<path class="st3" d="M406.7999878,390.1000061v19.2000122h-18.6000061v-19.2000122H406.7999878 M407.7999878,389.1000061
					h-20.6000061v21.2000122h20.6000061V389.1000061L407.7999878,389.1000061z"/>
			</g>
			<g id="Rectangle_28_x5F_3">
				<rect x="387.7000122" y="408.1000061" class="st6" width="19.6000061" height="1.6000061"/>
				<path class="st3" d="M406.7999878,408.6000061v0.6000061h-18.6000061v-0.6000061H406.7999878 M407.7999878,407.6000061
					h-20.6000061v2.6000061h20.6000061V407.6000061L407.7999878,407.6000061z"/>
			</g>
			<g id="Ellipse_7_x5F_4">
				<path class="st6" d="M392.5,405.2000122c-1.2000122,0-2.1000061-1-2.1000061-2.1000061
					c0-1.2000122,1-2.1000061,2.1000061-2.1000061c1.2000122,0,2.1000061,1,2.1000061,2.1000061
					S393.6000061,405.2000122,392.5,405.2000122z"/>
				<path class="st3" d="M392.5,401.3999939c0.8999939,0,1.6000061,0.7000122,1.6000061,1.6000061
					s-0.7000122,1.6000061-1.6000061,1.6000061S390.8999939,403.8999939,390.8999939,403
					C390.7999878,402.1000061,391.6000061,401.3999939,392.5,401.3999939 M392.5,400.3999939
					c-1.5,0-2.6000061,1.2000122-2.6000061,2.6000061s1.2000122,2.6000061,2.6000061,2.6000061
					c1.5,0,2.6000061-1.2000122,2.6000061-2.6000061S393.8999939,400.3999939,392.5,400.3999939L392.5,400.3999939z"/>
			</g>
			<g id="Ellipse_9">
				<path class="st6" d="M392.5,397.8999939c-1.5,0-2.7999878-1.2999878-2.7999878-2.7999878S391,392.3000183,392.5,392.3000183
					s2.7999878,1.2999878,2.7999878,2.7999878S394,397.8999939,392.5,397.8999939z"/>
				<path class="st3" d="M392.5,392.7999878c1.2999878,0,2.2999878,1,2.2999878,2.2999878s-1,2.2999878-2.2999878,2.2999878
					s-2.2999878-1-2.2999878-2.2999878S391.2000122,392.7999878,392.5,392.7999878 M392.5,391.7999878
					c-1.7999878,0-3.2999878,1.5-3.2999878,3.2999878s1.5,3.2999878,3.2999878,3.2999878s3.2999878-1.5,3.2999878-3.2999878
					S394.2999878,391.7999878,392.5,391.7999878L392.5,391.7999878z"/>
			</g>
			<g id="Ellipse_10">
				<path class="st6" d="M401.7000122,405.7999878c-1.5,0-2.7999878-1.2999878-2.7999878-2.7999878
					s1.2999878-2.7999878,2.7999878-2.7999878S404.5,401.5,404.5,403S403.2999878,405.7999878,401.7000122,405.7999878z"/>
				<path class="st3" d="M401.7000122,400.7000122C403,400.7000122,404,401.7000122,404,403s-1,2.2999878-2.2999878,2.2999878
					s-2.2999878-1-2.2999878-2.2999878S400.5,400.7000122,401.7000122,400.7000122 M401.7000122,399.7000122
					c-1.7999878,0-3.2999878,1.5-3.2999878,3.2999878s1.5,3.2999878,3.2999878,3.2999878S405,404.7999878,405,403
					S403.5,399.7000122,401.7000122,399.7000122L401.7000122,399.7000122z"/>
			</g>
			<g id="Ellipse_8">
				<path class="st6" d="M401.7000122,396.6000061c-1.2000122,0-2.1000061-1-2.1000061-2.1000061
					c0-1.2000122,1-2.1000061,2.1000061-2.1000061c1.2000122,0,2.1000061,1,2.1000061,2.1000061
					C403.8999939,395.6000061,402.8999939,396.6000061,401.7000122,396.6000061z"/>
				<path class="st3" d="M401.7000122,392.7999878c0.8999939,0,1.6000061,0.7000122,1.6000061,1.6000061
					S402.6000061,396,401.7000122,396s-1.6000061-0.7000122-1.6000061-1.6000061S400.7999878,392.7999878,401.7000122,392.7999878
					 M401.7000122,391.7999878c-1.5,0-2.6000061,1.2000122-2.6000061,2.6000061S400.3000183,397,401.7000122,397
					c1.5,0,2.6000061-1.2000122,2.6000061-2.6000061S403.2000122,391.7999878,401.7000122,391.7999878L401.7000122,391.7999878z"/>
			</g>
		</g>
		<path id="Vector_3" class="st10" d="M442.2000122,399.3999939H447.5 M443.6000061,397.1000061l2.6000061,4.6000061
			 M443.6000061,401.7000122l2.6000061-4.6000061"/>
	</g>
</g>
<g id="Numbers">
	<g>
		<path class="st5" d="M268.7000122,311.8999939l-1.6000061,1.7999878h2.7000122v1h-4.2000122v-0.8999939L267.7000122,311.5
			l0.5-0.6000061c0.1000061-0.1000061,0.2000122-0.2999878,0.2999878-0.5s0.1000061-0.3999939,0.1000061-0.6000061
			c0-0.2999878-0.1000061-0.5-0.2999878-0.7000122c-0.2000122-0.2000122-0.5-0.2999878-0.7999878-0.2999878
			c-0.5,0-1,0.2000122-1.6000061,0.7000122l-0.6000061-0.7000122c0.7000122-0.6000061,1.3999939-1,2.2000122-1
			c0.6000061,0,1.1000061,0.2000122,1.5,0.6000061s0.6000061,0.8999939,0.6000061,1.3999939
			C269.7999878,310.3999939,269.3999939,311.1000061,268.7000122,311.8999939z"/>
		<path class="st5" d="M271.3999939,314.7000122c-0.2000122,0-0.2999878-0.1000061-0.5-0.2000122
			c-0.1000061-0.1000061-0.2000122-0.2999878-0.2000122-0.5s0.1000061-0.2999878,0.2000122-0.3999939
			s0.2999878-0.2000122,0.5-0.2000122s0.2999878,0.1000061,0.3999939,0.2000122S272,313.8999939,272,314
			c0,0.2000122-0.1000061,0.2999878-0.2000122,0.5C271.7000122,314.7000122,271.5,314.7000122,271.3999939,314.7000122z"/>
		<path class="st5" d="M274.8999939,314.7000122C274.1999817,314.7000122,273.5,314.5,272.7999878,314l0.5-0.7999878
			c0.6000061,0.3999939,1.1000061,0.5,1.6000061,0.5c0.3999939,0,0.7000122-0.1000061,0.8999939-0.2999878
			c0.2000122-0.2000122,0.2999878-0.3999939,0.2999878-0.7999878c0-0.2999878-0.1000061-0.6000061-0.3999939-0.7999878
			c-0.2000122-0.2000122-0.5-0.2999878-0.8999939-0.2999878H274v-0.8999939h0.7999878
			c0.2999878,0,0.6000061-0.1000061,0.7999878-0.2999878c0.2000122-0.2000122,0.2999878-0.3999939,0.2999878-0.7000122
			c0-0.2999878-0.1000061-0.5-0.2999878-0.7000122s-0.5-0.2999878-0.7999878-0.2999878
			c-0.3999939,0-0.8999939,0.2000122-1.3999939,0.6000061l-0.5-0.7000122
			c0.2000122-0.2000122,0.6000061-0.3999939,0.8999939-0.6000061c0.3999939-0.1000061,0.7000122-0.2000122,1.1000061-0.2000122
			c0.6000061,0,1.1000061,0.2000122,1.5,0.5S277,309.0000305,277,309.4000549c0,0.3999939-0.1000061,0.7000122-0.2999878,0.8999939
			c-0.2000122,0.2999878-0.5,0.5-0.7999878,0.6000061l0,0c0.3999939,0.1000061,0.7000122,0.2999878,1,0.6000061
			c0.2000122,0.2999878,0.2999878,0.6000061,0.2999878,1.1000061c0,0.6000061-0.2000122,1-0.6000061,1.3999939
			C276.1000061,314.5,275.6000061,314.7000122,274.8999939,314.7000122z"/>
	</g>
	<g>
		<path class="st5" d="M320.2999878,130.5l1.8999939-1.6000061h0.7999878v6.6999969h-1v-5.3000031l-1.2000122,0.8999939
			L320.2999878,130.5z"/>
		<path class="st5" d="M323.8999939,130.5l1.8999939-1.6000061h0.7999878v6.6999969h-1v-5.3000031l-1.2000122,0.8999939
			L323.8999939,130.5z"/>
		<path class="st5" d="M328.5,135.6999969c-0.2000122,0-0.2999878-0.1000061-0.5-0.1999969
			c-0.1000061-0.1000061-0.2000122-0.3000031-0.2000122-0.5s0.1000061-0.3000031,0.2000122-0.3999939
			c0.1000061-0.1000061,0.2999878-0.1999969,0.5-0.1999969s0.2999878,0.1000061,0.3999939,0.1999969
			C329,134.7000122,329.1000061,134.9000092,329.1000061,135c0,0.1999969-0.1000061,0.3000031-0.2000122,0.5
			C328.7999878,135.6000061,328.7000122,135.6999969,328.5,135.6999969z"/>
		<path class="st5" d="M332.3999939,135.6999969c-0.7000122,0-1.2999878-0.1999969-1.7000122-0.5
			c-0.3999939-0.3999939-0.7000122-0.8000031-0.7000122-1.3999939c0-0.3999939,0.1000061-0.6999969,0.3999939-1
			c0.2000122-0.3000031,0.5-0.5,0.8999939-0.6999969l0,0C330.9999695,132,330.6999512,131.7000122,330.5999451,131.5
			c-0.2000122-0.3000031-0.2999878-0.5-0.2999878-0.8999939c0-0.5,0.2000122-0.8999939,0.6000061-1.3000031
			c0.3999939-0.3000031,0.8999939-0.5,1.5-0.5s1.1000061,0.1999969,1.5,0.5s0.6000061,0.8000031,0.6000061,1.3000031
			c0,0.3000031-0.1000061,0.6000061-0.2999878,0.8999939s-0.3999939,0.5-0.7000122,0.6000061l0,0
			c0.3999939,0.1000061,0.7000122,0.3999939,0.8999939,0.6999969c0.2000122,0.3000031,0.3999939,0.6999969,0.3999939,1
			c0,0.6000061-0.2000122,1-0.7000122,1.3999939C333.7000122,135.5,333.1000061,135.6999969,332.3999939,135.6999969z
			 M332.3999939,134.6999969c0.3999939,0,0.7000122-0.1000061,1-0.3000031s0.3999939-0.5,0.3999939-0.8000031
			s-0.1000061-0.6000061-0.3999939-0.8000031s-0.6000061-0.3000031-1-0.3000031s-0.7000122,0.1000061-1,0.3000031
			S331,133.2999878,331,133.5999908s0.1000061,0.6000061,0.3999939,0.8000031
			C331.6000061,134.6000061,332,134.6999969,332.3999939,134.6999969z M333.2000122,131.3000031
			c0.2000122-0.1999969,0.2999878-0.3999939,0.2999878-0.6999969s-0.1000061-0.5-0.2999878-0.6999969
			c-0.2000122-0.1999969-0.5-0.3000031-0.7999878-0.3000031s-0.6000061,0.1000061-0.7999878,0.3000031
			c-0.2000122,0.1999969-0.2999878,0.3999939-0.2999878,0.6999969s0.1000061,0.5,0.2999878,0.6999969
			c0.2000122,0.1999969,0.5,0.3000031,0.7999878,0.3000031S333,131.5,333.2000122,131.3000031z"/>
	</g>
	<g>
		<path class="st5" d="M316.6000061,212L318.5,210.3999939h0.7999878v6.6999969h-1v-5.3000031l-1.2000122,0.8999939L316.6000061,212
			z"/>
		<path class="st5" d="M321.2999878,217.1000061c-0.2000122,0-0.2999878-0.1000061-0.5-0.1999969
			c-0.1000061-0.1000061-0.2000122-0.3000031-0.2000122-0.5s0.1000061-0.3000031,0.2000122-0.3999939
			c0.1000061-0.1000061,0.2999878-0.1999969,0.5-0.1999969s0.2999878,0.1000061,0.3999939,0.1999969
			c0.1000061,0.1000061,0.2000122,0.3000031,0.2000122,0.3999939c0,0.1999969-0.1000061,0.3000031-0.2000122,0.5
			C321.6000061,217.1000061,321.3999939,217.1000061,321.2999878,217.1000061z"/>
		<path class="st5" d="M325.2000122,217.1000061c-0.7000122,0-1.2999878-0.1999969-1.7000122-0.5
			c-0.3999939-0.3999939-0.7000122-0.8000031-0.7000122-1.3999939c0-0.3999939,0.1000061-0.6999969,0.3999939-1
			c0.2000122-0.3000031,0.5-0.5,0.8999939-0.6999969l0,0c-0.2999878-0.1000061-0.6000061-0.3999939-0.7000122-0.6000061
			c-0.2000122-0.3000031-0.2999878-0.5-0.2999878-0.8999939c0-0.5,0.2000122-0.8999939,0.6000061-1.3000031
			c0.3999939-0.3000031,0.8999939-0.5,1.5-0.5s1.1000061,0.1999969,1.5,0.5s0.6000061,0.8000031,0.6000061,1.3000031
			c0,0.3000031-0.1000061,0.6000061-0.2999878,0.8999939s-0.3999939,0.5-0.7000122,0.6000061l0,0
			c0.3999939,0.1000061,0.7000122,0.3999939,0.8999939,0.6999969c0.2000122,0.3000031,0.3999939,0.6999969,0.3999939,1
			c0,0.6000061-0.2000122,1-0.7000122,1.3999939C326.3999939,216.8999939,325.8999939,217.1000061,325.2000122,217.1000061z
			 M325.2000122,216.1999969c0.3999939,0,0.7000122-0.1000061,1-0.3000031s0.3999939-0.5,0.3999939-0.8000031
			s-0.1000061-0.6000061-0.3999939-0.8000031s-0.6000061-0.3000031-1-0.3000031s-0.7000122,0.1000061-1,0.3000031
			s-0.3999939,0.5-0.3999939,0.8000031s0.1000061,0.6000061,0.3999939,0.8000031
			C324.3999939,216.1000061,324.7000122,216.1999969,325.2000122,216.1999969z M326,212.8000031
			c0.2000122-0.1999969,0.2999878-0.3999939,0.2999878-0.6999969s-0.1000061-0.5-0.2999878-0.6999969
			c-0.2000122-0.1999969-0.5-0.3000031-0.7999878-0.3000031s-0.6000061,0.1000061-0.7999878,0.3000031
			c-0.2000122,0.1999969-0.2999878,0.3999939-0.2999878,0.6999969s0.1000061,0.5,0.2999878,0.6999969
			c0.2000122,0.1999969,0.5,0.3000031,0.7999878,0.3000031S325.7999878,213,326,212.8000031z"/>
	</g>
	<g>
		<path class="st5" d="M276.6000061,239.6000061h0.7000122V240.5h-0.7000122v1.6000061h-1V240.5h-3l-0.2000122-0.6000061L276,235.5
			h0.7000122v4.1000061H276.6000061z M275.6000061,237.1999969l-2,2.3999939h2V237.1999969z"/>
		<path class="st5" d="M278.7999878,242.1999969c-0.2000122,0-0.2999878-0.1000061-0.5-0.1999969
			c-0.1000061-0.1000061-0.2000122-0.3000031-0.2000122-0.5s0.1000061-0.3000031,0.2000122-0.3999939
			c0.1000061-0.1000061,0.2999878-0.1999969,0.5-0.1999969s0.2999878,0.1000061,0.3999939,0.1999969
			c0.1000061,0.1000061,0.2000122,0.3000031,0.2000122,0.3999939c0,0.1999969-0.1000061,0.3000031-0.2000122,0.5
			C279.1000061,242.1999969,279,242.1999969,278.7999878,242.1999969z"/>
		<path class="st5" d="M282.5,235.3000031c0.7999878,0,1.3999939,0.3000031,1.7999878,0.8999939
			c0.3999939,0.6000061,0.6000061,1.3999939,0.6000061,2.3000031c0,0.5-0.1000061,1-0.2000122,1.3999939
			s-0.2999878,0.8000031-0.5,1.1999969c-0.2000122,0.3000031-0.5,0.6000061-0.8999939,0.8000031
			s-0.7999878,0.3000031-1.2000122,0.3000031c-0.7000122,0-1.2999878-0.1999969-1.7999878-0.6000061l0.3999939-0.8000031
			c0.3999939,0.3000031,0.8999939,0.5,1.2999878,0.5c0.6000061,0,1-0.1999969,1.2999878-0.6999969s0.5-1,0.5-1.6999969
			c-0.2000122,0.3000031-0.3999939,0.5-0.7000122,0.6000061s-0.6000061,0.1999969-1,0.1999969
			c-0.6000061,0-1.1000061-0.1999969-1.5-0.6000061c-0.3999939-0.3999939-0.6000061-0.8999939-0.6000061-1.5
			s0.2000122-1.1999969,0.6000061-1.6000061C281.2999878,235.5,281.8999939,235.3000031,282.5,235.3000031z
			 M283.7999878,237.6000061c0-0.3999939-0.1000061-0.6999969-0.3999939-0.8999939
			c-0.2000122-0.3000031-0.5-0.3999939-0.8999939-0.3999939s-0.7000122,0.1000061-0.8999939,0.3999939
			c-0.2000122,0.3000031-0.3999939,0.6000061-0.3999939,0.8999939c0,0.3999939,0.1000061,0.6999969,0.3999939,0.8999939
			c0.2000122,0.1999969,0.5,0.3999939,0.8999939,0.3999939s0.7000122-0.1000061,0.8999939-0.3999939
			C283.6000061,238.1999969,283.7999878,237.8999939,283.7999878,237.6000061z"/>
	</g>
	<g>
		<path class="st5" d="M404.7000122,183.8999939l1.8999939-1.6000061h0.7999878v6.6999969h-1v-5.3000031l-1.2000122,0.8999939
			L404.7000122,183.8999939z"/>
		<path class="st5" d="M411.7999878,186.1999969L410.1999817,188h2.7000122v1h-4.2000122v-0.8999939l2.1000061-2.3000031
			l0.5-0.6000061c0.1000061-0.1000061,0.2000122-0.3000031,0.2999878-0.5
			c0.1000061-0.1999969,0.1000061-0.3999939,0.1000061-0.6000061c0-0.3000031-0.1000061-0.5-0.2999878-0.6999969
			c-0.2000122-0.1999969-0.5-0.3000031-0.7999878-0.3000031c-0.5,0-1,0.1999969-1.6000061,0.6999969l-0.6000061-0.6999969
			c0.7000122-0.6000061,1.3999939-1,2.2000122-1c0.6000061,0,1.1000061,0.1999969,1.5,0.6000061
			c0.3999939,0.3999939,0.6000061,0.8999939,0.6000061,1.3999939C412.7999878,184.8000031,412.5,185.5,411.7999878,186.1999969z"/>
		<path class="st5" d="M414.3999939,189.1000061c-0.2000122,0-0.2999878-0.1000061-0.5-0.1999969
			c-0.1000061-0.1000061-0.2000122-0.3000031-0.2000122-0.5s0.1000061-0.3000031,0.2000122-0.3999939
			c0.1000061-0.1000061,0.2999878-0.1999969,0.5-0.1999969s0.2999878,0.1000061,0.3999939,0.1999969
			C414.8999939,188.1000214,415,188.3000183,415,188.4000092c0,0.1999969-0.1000061,0.3000031-0.2000122,0.5
			C414.7999878,189,414.6000061,189.1000061,414.3999939,189.1000061z"/>
		<path class="st5" d="M418.3999939,184.6000061c0.6000061,0,1.1000061,0.1999969,1.5,0.6000061
			c0.3999939,0.3999939,0.6000061,0.8999939,0.6000061,1.5s-0.2000122,1.1999969-0.7000122,1.6000061
			c-0.3999939,0.3999939-1,0.6000061-1.7000122,0.6000061c-0.7999878,0-1.3999939-0.3000031-1.7999878-0.8999939
			c-0.3999939-0.6000061-0.6000061-1.3999939-0.6000061-2.3000031c0-0.6000061,0.1000061-1.1999969,0.2999878-1.8000031
			s0.5-1,0.8999939-1.3000031c0.3999939-0.3999939,1-0.5,1.6000061-0.5c0.7000122,0,1.2999878,0.1999969,1.7000122,0.6000061
			l-0.3999939,0.8000031c-0.3999939-0.3000031-0.7999878-0.3999939-1.2000122-0.3999939
			c-0.3999939,0-0.7000122,0.1000061-1,0.3999939c-0.5,0.5-0.7999878,1.1999969-0.7999878,2.1000061
			c0.2000122-0.3000031,0.3999939-0.5,0.7000122-0.6999969S418,184.6000061,418.3999939,184.6000061z M418.2000122,188.1000061
			c0.3999939,0,0.7000122-0.1000061,0.8999939-0.3999939c0.2000122-0.3000031,0.3999939-0.6000061,0.3999939-0.8999939
			c0-0.3999939-0.1000061-0.6999969-0.3999939-0.8999939c-0.2000122-0.1999969-0.5-0.3999939-0.8999939-0.3999939
			s-0.7000122,0.1000061-0.8999939,0.3999939c-0.2000122,0.1999969-0.3999939,0.6000061-0.3999939,0.8999939
			c0,0.3999939,0.1000061,0.6999969,0.3999939,0.8999939C417.6000061,188,417.8999939,188.1000061,418.2000122,188.1000061z"/>
	</g>
	<g>
		<path class="st5" d="M281.3999939,372.1000061h0.7000122V373h-0.7000122v1.6000061h-1V373h-3l-0.2000122-0.6000061
			L280.7999878,368H281.5v4.1000061H281.3999939z M280.3999939,369.7000122l-2,2.3999939h2V369.7000122z"/>
		<path class="st5" d="M283.6000061,374.7000122c-0.2000122,0-0.2999878-0.1000061-0.5-0.2000122
			c-0.1000061-0.1000061-0.2000122-0.2999878-0.2000122-0.5s0.1000061-0.2999878,0.2000122-0.3999939
			s0.2999878-0.2000122,0.5-0.2000122S283.8999939,373.5,284,373.6000061s0.2000122,0.2999878,0.2000122,0.3999939
			c0,0.2000122-0.1000061,0.2999878-0.2000122,0.5S283.7999878,374.7000122,283.6000061,374.7000122z"/>
		<path class="st5" d="M284.2000122,369.6000061L286.1000061,368h0.7999878v6.7000122h-1v-5.2999878l-1.2000122,0.8999939
			L284.2000122,369.6000061z"/>
	</g>
	<g>
		<path class="st5" d="M355.2000122,355.3999939l-1.6000061,1.7999878h2.7000122v1h-4.2000122v-0.8999939L354.2000122,355
			l0.5-0.6000061c0.1000061-0.1000061,0.2000122-0.2999878,0.2999878-0.5s0.1000061-0.3999939,0.1000061-0.6000061
			c0-0.2999878-0.1000061-0.5-0.2999878-0.7000122c-0.2000122-0.2000122-0.5-0.2999878-0.7999878-0.2999878
			c-0.5,0-1,0.2000122-1.6000061,0.7000122l-0.6000061-0.7000122c0.7000122-0.6000061,1.3999939-1,2.2000122-1
			c0.6000061,0,1.1000061,0.2000122,1.5,0.6000061s0.6000061,0.8999939,0.6000061,1.3999939
			C356.2000122,354,355.8999939,354.6000061,355.2000122,355.3999939z"/>
		<path class="st5" d="M360.8999939,355.6000061h0.7000122V356.5h-0.7000122v1.6000061h-1V356.5h-3l-0.2000122-0.6000061
			L360.2999878,351.5H361v4.1000061H360.8999939z M359.8999939,353.2000122l-2,2.3999939h2V353.2000122z"/>
		<path class="st5" d="M363.1000061,358.2999878c-0.2000122,0-0.2999878-0.1000061-0.5-0.2000122
			s-0.2000122-0.2999878-0.2000122-0.5s0.1000061-0.2999878,0.2000122-0.3999939s0.2999878-0.2000122,0.5-0.2000122
			s0.2999878,0.1000061,0.3999939,0.2000122s0.2000122,0.2999878,0.2000122,0.3999939
			c0,0.2000122-0.1000061,0.2999878-0.2000122,0.5S363.2999878,358.2999878,363.1000061,358.2999878z"/>
		<path class="st5" d="M366.8999939,351.2999878c0.7999878,0,1.3999939,0.2999878,1.7999878,0.8999939
			s0.6000061,1.3999939,0.6000061,2.2999878c0,0.5-0.1000061,1-0.2000122,1.3999939s-0.2999878,0.7999878-0.5,1.2000122
			c-0.2000122,0.2999878-0.5,0.6000061-0.8999939,0.7999878c-0.3999939,0.2000122-0.7999878,0.2999878-1.2000122,0.2999878
			c-0.7000122,0-1.2999878-0.2000122-1.7999878-0.6000061l0.3999939-0.7999878c0.3999939,0.2999878,0.8999939,0.5,1.2999878,0.5
			c0.6000061,0,1-0.2000122,1.2999878-0.7000122s0.5-1,0.5-1.7000122c-0.2000122,0.2999878-0.3999939,0.5-0.7000122,0.6000061
			s-0.6000061,0.2000122-1,0.2000122c-0.6000061,0-1.1000061-0.2000122-1.5-0.6000061s-0.6000061-0.8999939-0.6000061-1.5
			s0.2000122-1.2000122,0.6000061-1.6000061C365.6000061,351.6000061,366.2000122,351.2999878,366.8999939,351.2999878z
			 M368.1000061,353.6000061c0-0.3999939-0.1000061-0.7000122-0.3999939-0.8999939
			c-0.2000122-0.2999878-0.5-0.3999939-0.8999939-0.3999939s-0.7000122,0.1000061-0.8999939,0.3999939
			c-0.2000122,0.2999878-0.3999939,0.6000061-0.3999939,0.8999939c0,0.3999939,0.1000061,0.7000122,0.3999939,0.8999939
			c0.2000122,0.2000122,0.5,0.3999939,0.8999939,0.3999939s0.7000122-0.1000061,0.8999939-0.3999939
			C368,354.2000122,368.1000061,353.8999939,368.1000061,353.6000061z"/>
	</g>
</g>
<g id="street_anchors">
	<rect id="street_anchor_01" x="355" y="20" class="st12" width="10" height="10"/>
	<rect id="street_anchor_02" x="521.9567261" y="235" class="st12" width="10" height="10"/>
</g>
</svg>
