<?xml version="1.0" encoding="utf-8"?>
<!-- Generator: Adobe Illustrator 24.2.0, SVG Export Plug-In . SVG Version: 6.00 Build 0)  -->
<!DOCTYPE svg PUBLIC "-//W3C//DTD SVG 1.1//EN" "http://www.w3.org/Graphics/SVG/1.1/DTD/svg11.dtd" [
	<!ENTITY ns_extend "http://ns.adobe.com/Extensibility/1.0/">
	<!ENTITY ns_ai "http://ns.adobe.com/AdobeIllustrator/10.0/">
	<!ENTITY ns_graphs "http://ns.adobe.com/Graphs/1.0/">
	<!ENTITY ns_vars "http://ns.adobe.com/Variables/1.0/">
	<!ENTITY ns_imrep "http://ns.adobe.com/ImageReplacement/1.0/">
	<!ENTITY ns_sfw "http://ns.adobe.com/SaveForWeb/1.0/">
	<!ENTITY ns_custom "http://ns.adobe.com/GenericCustomNamespace/1.0/">
	<!ENTITY ns_adobe_xpath "http://ns.adobe.com/XPath/1.0/">
]>
<svg version="1.1" id="_x31__x5F_2" xmlns:x="&ns_extend;" xmlns:i="&ns_ai;" xmlns:graph="&ns_graphs;"
	 xmlns="http://www.w3.org/2000/svg" xmlns:xlink="http://www.w3.org/1999/xlink" x="0px" y="0px" viewBox="0 0 720 480"
	 style="enable-background:new 0 0 720 480;" xml:space="preserve">
<style type="text/css">
	.st0{fill:#DBD4CA;}
	.st1{opacity:0.3;}
	.st2{opacity:0.7;fill:#C49F8A;}
	.st3{fill:#C49F8A;}
	.st4{fill:none;stroke:#565440;}
	.st5{fill:none;stroke:#565440;stroke-width:1.0000414;stroke-miterlimit:4.0001655;}
	.st6{fill:#565440;}
	.st7{fill:#E9E4DC;}
	.st8{fill:#E9E4DC;stroke:#C49F8A;stroke-linejoin:round;}
	.st9{fill:#E9E4DC;stroke:#C49F8A;}
	.st10{fill:#E9E4DC;stroke:#C49F8A;stroke-miterlimit:3.9998;}
	.st11{fill:none;stroke:#C49F8A;}
	.st12{fill:none;}
</style>
<metadata>
	<sfw  xmlns="&ns_sfw;">
		<slices></slices>
		<sliceSourceBounds  bottomLeftOrigin="true" height="360" width="492.1857605" x="109.0175476" y="60"></sliceSourceBounds>
	</sfw>
</metadata>
<polygon id="Floor" class="st0" points="535.913208,70.1999741 535.913208,103.3999786 550.7972412,112.610527 
	529.0613403,195.7484741 528.0582886,260.5999756 549.9810791,267.602478 527.5153198,357.8220825 528.0675049,420 158.8303833,420 
	158.8132019,70.1999741 "/>
<g id="Wet_Floor_1_">
	<g class="st1">
		<rect x="165.4171753" y="281.9999695" class="st2" width="128.539856" height="125.0061646"/>
	</g>
	<path class="st3" d="M180.8180542,402.7729187l-4.2332153,4.2332153h1.4140625l3.5261841-3.5261841l3.526123,3.5261841h1.4140625
		l-4.2331543-4.2332153l9.9926147-9.9926147l9.9921875,9.9921875l-4.2336426,4.2336426h1.4140625l3.5266113-3.5266113
		l3.5266113,3.5266113h1.4140625l-4.2336426-4.2336426l9.788147-9.788147l9.7885132,9.7885132l-4.2332153,4.2332764h1.4140625
		l3.5261841-3.5262451l3.5262451,3.5262451h1.4140625l-4.2332764-4.2332764l9.7142944-9.7142944l9.7143555,9.7143555
		l-4.2332153,4.2332153h1.4140625l3.5261841-3.5261841l3.5261841,3.5261841h1.4140625l-4.2332153-4.2332153l9.7885742-9.7885742
		l9.788147,9.788147l-4.2336426,4.2336426h1.4140625l3.5266113-3.5266113l3.5266113,3.5266113h1.4140625l-4.2336426-4.2336426
		l9.796875-9.796875l9.796875,9.796875l-4.2336426,4.2336426h1.4140625l3.5266113-3.5266113l3.5266113,3.5266113h1.4140625
		l-4.2336426-4.2336426l6.4940186-6.4940186v-1.4140625l-7.2010498,7.2010498l-9.796875-9.796875l9.7880859-9.7880859
		l7.2098389,7.2098389v-1.4140625l-6.5028076-6.5028076l6.5028076-6.5028076v-1.4140625l-7.2098389,7.2098389l-9.788208-9.788208
		l9.7142944-9.7144165l7.2837524,7.2837524v-1.4140625l-6.5767212-6.5767212l6.5767212-6.5767212v-1.4140625l-7.2837524,7.2837524
		l-9.7143555-9.7143555l9.7885132-9.7886353l7.2095947,7.2095947v-1.4140625l-6.5025635-6.5025635l6.5025635-6.5025635v-1.4140625
		l-7.2095947,7.2095947l-9.7883301-9.7883301l9.9921875-9.9921875l7.0057373,7.0057373v-1.4140625l-6.2987061-6.2987061
		l6.2987061-6.2987061v-1.4140625l-7.0057373,7.0057373l-9.9921875-9.9921875l9.7884521-9.7884521l7.2094727,7.2095337v-1.4140625
		l-6.5024414-6.5025024l6.5024414-6.5024414v-1.4140625l-7.2094727,7.2094727l-9.7885742-9.7885742l5.0548706-5.0548706h-1.4140625
		l-4.3478394,4.3478394l-4.3477783-4.3478394h-1.4140625l5.0548096,5.0548706l-9.7884521,9.7884521l-9.7143555-9.7143555
		l5.1289673-5.1289673h-1.4140625l-4.421936,4.421936l-4.421936-4.421936h-1.4140625l5.1289673,5.1289673l-9.9921875,9.9921875
		l-9.7884521-9.7884521l5.3326416-5.3327026h-1.4140625l-4.6256104,4.6256714l-4.6256714-4.6256714h-1.4140625l5.3327026,5.3327026
		l-9.7885742,9.7885742l-9.7877197-9.7877197l5.3335571-5.3335571h-1.4140625l-4.6265259,4.6265259l-4.6265259-4.6265259h-1.4140625
		l5.3335571,5.3335571l-9.7143555,9.7143555l-9.7143555-9.7143555l5.3335571-5.3335571h-1.4140625l-4.6265259,4.6265259
		l-4.6265259-4.6265259h-1.4140625l5.3335571,5.3335571l-9.7880859,9.7880859l-9.7884521-9.7884521l5.3331299-5.3331909h-1.4140625
		l-4.6260986,4.6261597l-4.6261597-4.6261597h-1.2733154v0.1407471l5.1924438,5.1924438l-5.1924438,5.1924438v1.4140625
		l5.8994751-5.8994751l9.7884521,9.7884521l-9.796875,9.796875l-5.8910522-5.8910522v1.4140625l5.184021,5.184021
		l-5.184021,5.184021v1.4140625l5.8910522-5.8910522l9.7143555,9.7143555l-9.7885742,9.7885742l-5.8168335-5.8168335v1.4140625
		l5.1098022,5.1098022l-5.1098022,5.1098022v1.4140625l5.8168335-5.8168335l9.7878418,9.7878418l-9.7141113,9.7142334
		l-5.890564-5.890625v1.4140625l5.1835327,5.1835938l-5.1835327,5.1835327v1.4140625l5.890564-5.890564l9.788269,9.788269
		l-9.788269,9.788269l-5.890564-5.890564v1.4140625l5.1835327,5.1835327l-5.1835327,5.1835327v1.4140625l5.890564-5.890564
		l9.7143555,9.7143555l-9.9926147,9.9926147l-5.6123047-5.6123657v1.4140625l4.9052734,4.9053345l-4.9052734,4.9052734v1.4140625
		l5.6123047-5.6123047L180.8180542,402.7729187z M182.4361572,381.5776672l9.788208-9.788208l9.7885742,9.7885742
		l-9.788208,9.788208L182.4361572,381.5776672z M254.6280518,350.3613586l-9.7880859,9.7880859l-9.9921875-9.9921875
		l9.7880859-9.7880859L254.6280518,350.3613586z M245.3428955,339.6621399l9.7143555-9.7143555l9.9921875,9.9921875
		l-9.7143555,9.7143555L245.3428955,339.6621399z M234.1407471,349.4502258l-9.7885742-9.7885742l9.7880859-9.7880859
		l9.7885742,9.7885742L234.1407471,349.4502258z M233.4337158,350.1572571l-9.796875,9.796875l-9.7885742-9.7885742
		l9.796875-9.796875L233.4337158,350.1572571z M213.1412354,349.4585266l-9.7143555-9.7143555l9.796875-9.796875
		l9.7143555,9.7143555L213.1412354,349.4585266z M212.4342041,350.1655579l-9.7885742,9.7885742l-9.7143555-9.7143555
		l9.7885742-9.7885742L212.4342041,350.1655579z M212.4342041,371.1567688l-9.7142334,9.7142334l-9.7885742-9.7885742
		l9.7142334-9.7142334L212.4342041,371.1567688z M203.3526611,360.6611633l9.7885742-9.7885742l9.7885742,9.7885742
		l-9.7885742,9.7885742L203.3526611,360.6611633z M223.6368408,361.3681946l9.9921875,9.9921875l-9.7885742,9.7885742
		l-9.9921875-9.9921875L223.6368408,361.3681946z M224.3438721,360.6611633l9.796875-9.796875l9.9921875,9.9921875
		l-9.796875,9.796875L224.3438721,360.6611633z M244.8399658,361.5635071l9.7884521,9.7884521l-9.796875,9.796875
		l-9.7884521-9.7884521L244.8399658,361.5635071z M245.5469971,360.8564758l9.7880859-9.7880859l9.7883911,9.7883911
		l-9.7880249,9.788147L245.5469971,360.8564758z M265.8305054,361.5638123l9.7144165,9.7144165l-9.7880859,9.7880859
		l-9.7143555-9.7143555L265.8305054,361.5638123z M256.0421143,350.3613586l9.7143555-9.7143555l9.7883911,9.7883911
		l-9.7143555,9.7143555L256.0421143,350.3613586z M255.7642822,329.2407532l9.7885742-9.7885742l9.9921875,9.9921875
		l-9.7885742,9.7885742L255.7642822,329.2407532z M255.057251,328.5337219l-9.7885742-9.7885742l9.7885742-9.7885742
		l9.7885742,9.7885742L255.057251,328.5337219z M254.3502197,329.2407532l-9.7143555,9.7143555l-9.7885742-9.7885742
		l9.7143555-9.7143555L254.3502197,329.2407532z M234.1402588,328.4595032l-9.7143555-9.7143555l9.7143555-9.7143555
		l9.7143555,9.7143555L234.1402588,328.4595032z M233.4332275,329.1665344l-9.7880859,9.7880859l-9.7143555-9.7143555
		l9.7880859-9.7880859L233.4332275,329.1665344z M213.2237549,328.5332336l-9.7883911-9.7883911l9.7880859-9.7880859
		l9.7883911,9.7883911L213.2237549,328.5332336z M212.5167236,329.2402649l-9.796875,9.796875l-9.7883301-9.7883301
		l9.796814-9.796936L212.5167236,329.2402649z M192.2244873,328.5417786l-9.7878418-9.7878418l9.796875-9.796875
		l9.7877808,9.7877808L192.2244873,328.5417786z M202.0128174,339.7441711l-9.7885742,9.7885742l-9.7883301-9.7883301
		l9.7885742-9.7885742L202.0128174,339.7441711z M201.9385986,360.6611633l-9.7142334,9.7142334l-9.7142944-9.7144165
		l9.7141724-9.7141724L201.9385986,360.6611633z M202.9239502,402.0654602l-9.9921875-9.9921875l9.788208-9.788208
		l9.9921265,9.9922485L202.9239502,402.0654602z M203.427002,381.5780334l9.7142334-9.7142334l9.9921875,9.9921875
		l-9.7142944,9.7142944L203.427002,381.5780334z M223.9146729,402.0658264l-9.7885132-9.7885132l9.7142944-9.7142944
		l9.7885132,9.7885132L223.9146729,402.0658264z M224.5474854,381.8559875l9.7885742-9.7885742l9.7884521,9.7884521
		l-9.7885132,9.7886353L224.5474854,381.8559875z M244.7573853,402.0658875l-9.7143555-9.7143555l9.7885132-9.7886353
		l9.7144165,9.7144165L244.7573853,402.0658875z M245.5385742,381.8558655l9.796875-9.796875l9.7143555,9.7143555
		l-9.796814,9.796936L245.5385742,381.8558655z M265.7481689,402.0654602l-9.788147-9.788147l9.796814-9.796936l9.788208,9.788208
		L265.7481689,402.0654602z M286.0401611,381.773468l-9.7880859,9.7880859l-9.788208-9.788208l9.7880859-9.7880859
		L286.0401611,381.773468z M285.9662476,360.856781l-9.7142944,9.7144165l-9.7144165-9.7144165l9.7143555-9.7143555
		L285.9662476,360.856781z M286.0404053,339.9397278l-9.7885132,9.7886353l-9.7883911-9.7883911l9.7885742-9.7885742
		L286.0404053,339.9397278z M286.2442627,318.7451477l-9.9921875,9.9921875l-9.9921875-9.9921875l9.9921875-9.9921875
		L286.2442627,318.7451477z M276.2519531,287.7618713l9.7885742,9.7885742l-9.7884521,9.7884521l-9.7885742-9.7885742
		L276.2519531,287.7618713z M275.5450439,308.045929l-9.9921875,9.9921875l-9.7885742-9.7885742l9.9921875-9.9921875
		L275.5450439,308.045929z M255.335083,287.835968l9.7143555,9.7143555l-9.9921875,9.9921875l-9.7143555-9.7143555
		L255.335083,287.835968z M254.3502197,308.2495422l-9.7885742,9.7885742l-9.7143555-9.7143555l9.7885742-9.7885742
		L254.3502197,308.2495422z M234.1403809,288.0397034l9.7884521,9.7884521l-9.7885742,9.7885742l-9.7884521-9.7884521
		L234.1403809,288.0397034z M233.4332275,308.323761l-9.7143555,9.7143555l-9.7883911-9.7883911l9.7142944-9.7144165
		L233.4332275,308.323761z M213.1500244,288.0405579l9.7877197,9.7877197l-9.7142944,9.7144165l-9.7877808-9.7877808
		L213.1500244,288.0405579z M212.5164185,308.2497253l-9.7880859,9.7880859l-9.7877808-9.7877808l9.7880859-9.7880859
		L212.5164185,308.2497253z M192.307251,288.0405579l9.7143555,9.7143555l-9.7880859,9.7880859l-9.7143555-9.7143555
		L192.307251,288.0405579z M172.0152588,308.33255l9.796875-9.796875l9.7143555,9.7143555l-9.796875,9.796875L172.0152588,308.33255
		z M171.94104,329.2495422l9.7885742-9.7885742l9.7878418,9.7878418l-9.7885742,9.7885742L171.94104,329.2495422z
		 M172.0147705,350.1656799l9.7141113-9.7142334l9.7883301,9.7883301l-9.7141724,9.7141724L172.0147705,350.1656799z
		 M172.0147705,371.1562805l9.788269-9.788269l9.7142944,9.7144165l-9.788208,9.788208L172.0147705,371.1562805z
		 M181.729126,382.2846985l9.7885742,9.7885742l-9.9926147,9.9926147l-9.7885742-9.7885742L181.729126,382.2846985z"/>
</g>
<path id="Doors_1_" class="st4" d="M242.6623383,286.8555908c0,5.424469,0.9861298,9.8622742,2.958847,14.7939148
	c1.9727173,4.9311829,4.9311066,9.3694458,8.3833923,12.8211975c3.4521179,3.9450684,7.8900757,6.9039001,12.8211975,8.8761597
	c4.9310913,1.9722595,9.8623657,2.9589233,15.2867432,2.9589233v-39.4501953 M370.8752747,247.4053955
	c0,5.4244843-0.986145,9.8628235-2.9588623,14.7939148c-1.9722595,4.9311829-4.9310913,9.3694458-8.382782,12.8211975
	c-3.4521179,3.9450684-7.8900757,6.9039001-12.8211975,8.8761597c-4.9310913,1.9722595-9.8623657,2.9589233-15.2872009,2.9589233
	v-39.4501953 M159.0572815,242.4743042c-6.4105225,0-12.5550842-1.4794312-18.4724731-3.9450531
	c-5.9178467-2.4655609-11.835083-5.9173126-16.2733459-10.848938c-4.4382629-4.4383545-8.3833923-9.8622894-10.8489456-15.7800446
	c-2.4655457-5.9173126-3.9449692-12.3283691-3.9449692-18.7389679h49.5392914"/>
<g id="Windows_1_">
	
		<rect x="498.9433899" y="306.6490784" transform="matrix(0.2514896 -0.96786 0.96786 0.2514896 106.3302078 758.1748657)" class="st5" width="88.8000488" height="7.3865967"/>
	<polygon class="st4" points="536.9411011,195.7484741 529.7925415,193.8908539 550.9845581,111.885788 558.133728,113.7433929 	"/>
</g>
<g id="Walls">
	<path class="st6" d="M538.5038452,362.8942871v-11.9521484h-34.4539795l-0.0302734,54.2644653H296.9060059V286.8561401h29.5878296
		v-39.4501953h4.9312134v-4.9316406h-34.519043v4.9316406h24.65625v34.5184937h-39.4501953v4.9317017h9.862854V405.206604
		H190.913208v-17.5066528h-17.2888794v-100.843811h69.0380249v-4.9317017h-69.0380249v-39.4501343h-14.7939453V420h379.7077026
		l-0.0183105-57.1057129H538.5038452z M173.6243286,392.5999756h12.388855v12.6066284h-12.388855V392.5999756z"/>
	<path class="st6" d="M173.6243286,162.7838745h29.0921021v-4.8984375h-29.0921021V74.8113403h82.7888794v17.2886353
		c0,0,0.2999878,0,0.7999878,0h20.2000122V74.8113403h226.6063843v36.4520264h31.7423096l21.9732056,4.9321899l0.0010986-0.0044556
		l0.0152588,0.003479l3.4518433-14.3006592l-22.6835327-5.0919189l0.0183105-36.7846069h-0.0183105V60h-34.5001831v0.017395
		h-345.189209v133.1444092h14.7939453V162.7838745z M272.5131836,87.1999512h-11.2000122V74.8113403h11.2000122V87.1999512z"/>
	<polygon class="st6" points="538.5361328,209.8883057 542.4812622,192.7926025 518.3182373,187.368103 513.8800049,206.1070557 
		513.8800049,242.4743042 370.8909912,242.4743042 370.8909912,247.4053955 513.8800049,247.4053955 513.8800049,272.1227417 
		538.5361328,272.1227417 538.5361328,272.0825195 556.2890015,276.067688 559.7407227,261.7670898 538.5361328,257.0072021 	"/>
</g>
<g id="Furniture_2_">
	<g>
		<g>
			<rect x="204.0131989" y="371.8999634" class="st7" width="87.4999847" height="32.8999939"/>
			<path class="st3" d="M291.0131836,372.3999634v31.8999939h-86.5v-31.8999939H291.0131836 M292.0131836,371.3999634h-88.5
				v33.8999939h88.5V371.3999634L292.0131836,371.3999634z"/>
		</g>
		<g>
			<g>
				<path class="st8" d="M211.0131989,388.3999634c0,6.7999878,5.8999939,12.1000061,12.6000061,11.5
					c7.3999939-0.7000122,16.8000031-1.2999878,23.8000031-1.2999878c6.8999939,0,16.2999878,0.7000122,23.7999878,1.2999878
					c6.7999878,0.6000061,12.6000061-4.7000122,12.6000061-11.5s-5.8999939-12.1000061-12.6000061-11.5
					c-7.3999939,0.7000122-16.8000031,1.2999878-23.8000031,1.2999878c-6.8999939,0-16.3000031-0.7000122-23.8000031-1.2999878
					C216.9131927,376.1999817,211.0131989,381.5999756,211.0131989,388.3999634z"/>
				<ellipse class="st8" cx="222.9131927" cy="388.3999634" rx="1.3999939" ry="1.3999939"/>
			</g>
		</g>
	</g>
	<g>
		<g>
			<rect x="423.913208" y="305.6999817" class="st7" width="79.7000122" height="99.1000061"/>
			<path class="st3" d="M424.413208,306.1999817h78.7000122v98.1000061H424.413208V306.1999817 M423.413208,305.1999817v100.1000061
				h80.7000122V305.1999817H423.413208L423.413208,305.1999817z"/>
		</g>
		<rect x="430.3132019" y="373.3999634" class="st9" width="31.5" height="24.7000122"/>
		<rect x="465.7131958" y="373.3999634" class="st9" width="31.5" height="24.7000122"/>
		<polygon class="st10" points="434.2131958,383.4999695 456.913208,389.8999634 463.0131836,365.9999695 440.3132019,359.5999756 
					"/>
		<polygon class="st10" points="464.7131958,365.9999695 470.8132019,389.8999634 493.5131836,383.4999695 487.413208,359.5999756 
					"/>
		<g>
			<polygon class="st7" points="423.913208,378.6999817 423.913208,304.7999573 503.6131897,304.7999573 503.6131897,383.8999634 
				471.8132019,385.9999695 			"/>
			<path class="st3" d="M424.413208,305.2999573h78.7000122v77.5v0.6000061l-31.2000122,2l-47.3999939-7.2000122
				L424.413208,305.2999573 M423.413208,304.2999573v74.2999878v0.5l48.3999939,7.3999939l32.2999878-2.1000061v-1.6000061v-78.5
				L423.413208,304.2999573L423.413208,304.2999573z"/>
		</g>
		<polyline class="st11" points="503.0131836,381.7999573 471.5131836,381.7999573 424.3132019,377.6999817 		"/>
	</g>
	<g>
		<rect x="174.1131897" y="287.3434143" class="st7" width="10.8000031" height="48.1000061"/>
		<path class="st3" d="M184.4131927,287.8434143v47.1000061h-9.8000031v-47.1000061H184.4131927 M185.4131927,286.8434143
			h-11.8000031v49.1000061h11.8000031V286.8434143L185.4131927,286.8434143z"/>
	</g>
	<g>
		<polygon class="st7" points="191.4141235,404.7999573 191.4141235,387.1974182 174.0241547,387.1974182 174.0241547,370.8999634 
			204.0131989,370.8999634 204.0131989,404.7999573 		"/>
		<path class="st3" d="M203.5131989,371.3999634v16.2999878v16.6000061h-11.5990753v-16.6025696v-1h-1h-16.2899628v-15.2974243
			h16.3890381H203.5131989 M204.5131989,370.3999634h-13.5h-17.3890381v17.2974243h17.2899628v17.6025696h13.5990753v-17.6000061
			V370.3999634L204.5131989,370.3999634z"/>
	</g>
	<g>
		<path class="st9" d="M452.6131897,109.4999771c0,1.5-1.2000122,2.5999985-2.6000061,2.5999985h-39.6000061
			c-1.5,0-2.6000061-1.1999969-2.6000061-2.5999985v-26h44.7999878L452.6131897,109.4999771L452.6131897,109.4999771z"/>
		<path class="st9" d="M495.413208,109.4999771c0,1.5-1.2000122,2.5999985-2.6000061,2.5999985h-37.6000061
			c-1.5,0-2.6000061-1.1999969-2.6000061-2.5999985v-26h42.7999878L495.413208,109.4999771L495.413208,109.4999771z"/>
		<polygon class="st9" points="495.413208,114.2999802 495.413208,83.5999756 451.6131897,83.5999756 407.8132019,83.5999756 
			407.8132019,114.2999802 399.6131897,114.2999802 399.6131897,75.2999802 503.6131897,75.2999802 503.6131897,114.2999802 		"/>
	</g>
	<g>
		<path class="st7" d="M340.413208,98.9999771c-5.7999878,0-10.5-4.6999969-10.5-10.5s4.6999817-10.5,10.5-10.5
			s10.5,4.6999969,10.5,10.5S346.1131897,98.9999771,340.413208,98.9999771z"/>
		<path class="st3" d="M340.413208,78.4999771c2.7000122,0,5.2000122,1,7,2.9000015s2.8999939,4.4000015,2.8999939,7
			c0,5.5-4.5,10-10,10s-10-4.5-10-10C330.413208,82.9999771,334.913208,78.4999771,340.413208,78.4999771 M340.413208,77.4999771
			c-6.1000061,0-11,4.9000015-11,11s4.8999939,11,11,11s11-4.9000015,11-11
			C351.3132019,82.3999786,346.413208,77.4999771,340.413208,77.4999771L340.413208,77.4999771z"/>
	</g>
	<g>
		<circle class="st7" cx="340.413208" cy="122.5999756" r="10.5"/>
		<path class="st3" d="M340.413208,112.6999741c2.7000122,0,5.2000122,1,7,2.9000015s2.8999939,4.4000015,2.8999939,7
			c0,5.5000153-4.5,10.0000153-10,10.0000153s-10-4.5-10-10.0000076
			C330.413208,117.0999756,334.913208,112.6999741,340.413208,112.6999741 M340.413208,111.6999741c-6.1000061,0-11,4.9000015-11,11
			c0,6.1000137,4.8999939,11.0000076,11,11.0000076s11-4.8999939,11-11.0000076
			C351.3132019,116.5999756,346.413208,111.6999741,340.413208,111.6999741L340.413208,111.6999741z"/>
	</g>
	<g>
		<path class="st7" d="M340.413208,167.5999908c-5.7999878,0-10.5-4.6999969-10.5-10.5s4.7000122-10.5,10.5-10.5
			s10.5,4.6999969,10.5,10.5S346.1131897,167.5999908,340.413208,167.5999908z"/>
		<path class="st3" d="M340.413208,147.1999817c2.7000122,0,5.2000122,1,7,2.8999939s2.8999939,4.3999939,2.8999939,7
			c0,5.5-4.5,10-10,10s-10-4.5-10-10C330.413208,151.6999817,334.913208,147.1999817,340.413208,147.1999817
			 M340.413208,146.1999817c-6.1000061,0-11,4.8999939-11,11s4.8999939,11,11,11s11-4.8999939,11-11
			C351.3132019,151.0999908,346.413208,146.1999817,340.413208,146.1999817L340.413208,146.1999817z"/>
	</g>
	<g>
		<g>
			<rect x="277.913208" y="75.2999802" class="st7" width="44.1000061" height="93.5999832"/>
			<path class="st3" d="M321.6131897,75.7999802v92.5999985h-43.1000061V75.7999802H321.6131897 M322.6131897,74.7999802
				h-45.1000061v94.5999985h45.1000061V74.7999802L322.6131897,74.7999802z"/>
		</g>
		<g>
			<rect x="304.8132019" y="75.2999802" class="st7" width="3.7000122" height="93.5999832"/>
			<path class="st3" d="M308.0131836,75.7999802v92.5999985h-2.7000122V75.7999802H308.0131836 M309.0131836,74.7999802h-4.7000122
				v94.5999985h4.7000122V74.7999802L309.0131836,74.7999802z"/>
		</g>
	</g>
	<g>
		<g>
			<rect x="314.7131958" y="287.3561401" class="st7" width="11.2999878" height="117.4438171"/>
			<path class="st3" d="M315.2131958,287.8561401h10.2999878v116.4438171h-10.2999878V287.8561401 M314.2131958,286.8561401
				v118.4438171h12.2999878V286.8561401H314.2131958L314.2131958,286.8561401z"/>
		</g>
		<g>
			<rect x="297.413208" y="287.3561401" class="st7" width="26.7999878" height="117.4438171"/>
			<path class="st3" d="M297.913208,287.8561401h25.7999878v116.4438171H297.913208V287.8561401 M296.913208,286.8561401
				v118.4438171h27.7999878V286.8561401H296.913208L296.913208,286.8561401z"/>
		</g>
		<path class="st9" d="M297.8132019,287.3561401l26,117.8438416"/>
	</g>
	<g>
		<g>
			<rect x="174.1218414" y="169.2119293" class="st7" width="24" height="11.3000031"/>
			<path class="st3" d="M174.6218414,169.7119293h23v10.3000031h-23V169.7119293 M173.6218414,168.7119293v12.3000031h25
				v-12.3000031H173.6218414L173.6218414,168.7119293z"/>
		</g>
		<g>
			<rect x="174.1218414" y="163.3119202" class="st7" width="24" height="15.3999939"/>
			<path class="st3" d="M174.6218414,163.8119202h23v14.3999939h-23V163.8119202 M173.6218414,162.8119202v16.3999939h25
				v-16.3999939H173.6218414L173.6218414,162.8119202z"/>
		</g>
		<path class="st9" d="M198.1218414,163.5603027l-24.0000153,14.9032288"/>
	</g>
	<g>
		<g>
			<rect x="174.1131897" y="253.2999878" class="st7" width="66.8000031" height="11.2999878"/>
			<path class="st3" d="M174.6131897,253.7999878h65.8000031v10.2999878h-65.8000031V253.7999878 M173.6131897,252.7999878
				v12.2999878h67.8000031v-12.2999878H173.6131897L173.6131897,252.7999878z"/>
		</g>
		<g>
			<rect x="174.1131897" y="254.9999847" class="st7" width="66.8000031" height="26.5000153"/>
			<path class="st3" d="M174.6131897,255.4999847h65.8000031v25.4999847h-65.8000031V255.4999847 M173.6131897,254.4999847
				v27.4999847h67.8000031v-27.4999847H173.6131897L173.6131897,254.4999847z"/>
		</g>
		<path class="st9" d="M173.9131927,281.0999756l67.4000092-25.6999817"/>
	</g>
	<g>
		<g>
			<rect x="297.413208" y="247.9999847" class="st7" width="23.7000122" height="33.5000153"/>
			<path class="st3" d="M320.6131897,248.4999847v32.4999847h-22.7000122v-32.4999847H320.6131897 M321.6131897,247.4999847
				h-24.7000122v34.4999847h24.7000122V247.4999847L321.6131897,247.4999847z"/>
		</g>
		<g>
			<line class="st11" x1="297.7131958" y1="248.0999908" x2="305.413208" y2="259.1999817"/>
		</g>
		<g>
			<line class="st11" x1="320.913208" y1="248.0999908" x2="313.2131958" y2="259.1999817"/>
		</g>
		<g>
			<line class="st11" x1="297.7131958" y1="281.2999573" x2="305.413208" y2="270.2999573"/>
		</g>
		<g>
			<line class="st11" x1="320.913208" y1="281.2999573" x2="313.2131958" y2="270.2999573"/>
		</g>
	</g>
	<g id="Toilet_3_">
		<g id="Rectangle_21_3_">
			<rect x="185.1131897" y="297.0999756" class="st7" width="8.6000061" height="26.8999939"/>
			<path class="st3" d="M193.2131958,297.5999756v25.8999939h-7.6000061v-25.8999939H193.2131958 M194.2131958,296.5999756
				h-9.6000061v27.8999939h9.6000061V296.5999756L194.2131958,296.5999756z"/>
		</g>
		<path id="Rectangle_19_x5F_2_3_" class="st9" d="M206.8132019,319.9999695c4.1000061,0.2999878,7.5-2.8999939,7.5-7l0,0
			c0-4.1000061-3.3999939-7.2999878-7.5-7l-13,0.8999939v12.2999878L206.8132019,319.9999695z"/>
		<path id="Rectangle_18_x5F_13_3_" class="st9" d="M206.8132019,318.5999756
			c3.3000031,0.2999878,6.1000061-2.2999878,6.1000061-5.6000061l0,0c0-3.2999878-2.8000031-5.8999939-6.1000061-5.6000061
			l-8.8999939,0.7999878v9.5L206.8132019,318.5999756z"/>
		<ellipse id="Ellipse_6_x5F_2_3_" class="st9" cx="202.0131989" cy="312.9999695" rx="1.3999939" ry="1.3999939"/>
	</g>
	<g id="Sink_2_2_">
		<g id="Rectangle_16_x5F_11">
			<rect x="174.0131836" y="335.4999695" class="st7" width="23.8999939" height="35.3999939"/>
			<path class="st3" d="M197.5131836,335.9999695v34.3999939h-22.8999939v-34.3999939H197.5131836 M198.5131836,334.9999695
				h-24.8999939v36.3999939h24.8999939V334.9999695L198.5131836,334.9999695z"/>
		</g>
		<path id="Rectangle_19_x5F_5_2_" class="st9" d="M186.0131836,366.1999817L186.0131836,366.1999817
			c4.1999969,0,7.6000061-3.3999939,7.6000061-7.6000061v-10.7999878c0-4.2000122-3.3999939-7.6000061-7.6000061-7.6000061l0,0
			c-4.1999969,0-7.6000061,3.3999939-7.6000061,7.6000061v10.7999878
			C178.4131927,362.7999573,181.8131866,366.1999817,186.0131836,366.1999817z"/>
		<circle id="Ellipse_7_x5F_2" class="st9" cx="181.9131927" cy="353.1999817" r="1.3999939"/>
	</g>
	<g id="TV">
		<g id="Rectangle_16">
			<rect x="420.5131836" y="227.8999786" class="st7" width="74.8999939" height="10.1000061"/>
			<path class="st3" d="M494.913208,228.3999786v9.1000061h-73.8999939v-9.1000061H494.913208 M495.913208,227.3999786h-75.8999939
				v11.1000061h75.8999939V227.3999786L495.913208,227.3999786z"/>
		</g>
		<g id="Rectangle_15">
			<rect x="420.5131836" y="229.8999786" class="st7" width="74.8999939" height="12.1000061"/>
			<path class="st3" d="M494.913208,230.3999786v11.1000061h-73.8999939v-11.1000061H494.913208 M495.913208,229.3999786
				h-75.8999939v13.1000061h75.8999939V229.3999786L495.913208,229.3999786z"/>
		</g>
		<rect id="Rectangle_17" x="433.7131958" y="238.1999817" class="st9" width="48.6000061" height="1.8999939"/>
		<path id="Rectangle_18_x5F_2" class="st9" d="M447.7131958,240.0999908h20.5l-1.8999939,1.8999939h-16.7999878
			L447.7131958,240.0999908z"/>
	</g>
	<g id="TV_1_">
		<g id="Rectangle_16_1_">
			<rect x="424.5131836" y="251.8956909" class="st7" width="74.8999939" height="10.0999908"/>
			<path class="st3" d="M498.913208,252.3956909v9.0999756h-73.8999939v-9.0999756H498.913208 M499.913208,251.3956909h-75.8999939
				v11.0999756h75.8999939V251.3956909L499.913208,251.3956909z"/>
		</g>
		<g id="Rectangle_15_1_">
			<rect x="424.5131836" y="247.8956909" class="st7" width="74.8999939" height="12.0999908"/>
			<path class="st3" d="M498.913208,248.3956909v11.0999756h-73.8999939v-11.0999756H498.913208 M499.913208,247.3956909
				h-75.8999939v13.0999756h75.8999939V247.3956909L499.913208,247.3956909z"/>
		</g>
		<rect id="Rectangle_17_1_" x="437.7131958" y="249.7956848" class="st9" width="48.6000061" height="1.8999939"/>
		<path id="Rectangle_18_x5F_2_1_" class="st9" d="M451.7131958,249.7956848h20.5l-1.8999939-1.8999939h-16.7999878
			L451.7131958,249.7956848z"/>
	</g>
	<g id="Kitchen_1_">
		<g id="Rectangle_24_1_">
			<rect x="174.2131958" y="75.2999802" class="st7" width="81.8000031" height="31.3000031"/>
			<path class="st3" d="M255.5131989,75.7999802v30.3000031h-80.8000031V75.7999802H255.5131989 M256.5131836,74.7999802
				h-82.7999878v32.3000031h82.7999878V74.7999802L256.5131836,74.7999802z"/>
		</g>
		<g id="Rectangle_24_2_">
			<rect x="174.1131897" y="75.2999802" class="st7" width="30.3000031" height="55.0000076"/>
			<path class="st3" d="M203.9131927,75.7999802v54.0000076h-29.3000031V75.7999802H203.9131927 M204.9131927,74.7999802
				h-31.3000031v56.0000076h31.3000031V74.7999802L204.9131927,74.7999802z"/>
		</g>
		<g id="Rectangle_27">
			<rect x="174.1131897" y="127.0999756" class="st7" width="30.3000031" height="30.2999878"/>
			<path class="st3" d="M203.9131927,127.5999756v29.3000031h-29.3000031V127.599968L203.9131927,127.5999756
				 M204.9131927,126.5999756h-31.3000031v31.3000031h31.3000031V126.5999756L204.9131927,126.5999756z"/>
		</g>
		<g id="Rectangle_27_2_">
			<rect x="202.8132019" y="127.0999756" class="st7" width="1.6000061" height="30.2999878"/>
			<path class="st3" d="M203.9131927,127.5999756v29.3000031h-0.6000061V127.599968L203.9131927,127.5999756
				 M204.9131927,126.5999756h-2.6000061v31.3000031h2.6000061V126.5999756L204.9131927,126.5999756z"/>
		</g>
		<g id="Sink_3_1_">
			<rect id="Rectangle_28_x5F_2_1_" x="177.8132019" y="84.0999756" class="st9" width="22" height="34.9000015"/>
			<path id="Rectangle_29_x5F_2_1_" class="st9" d="M188.8132019,97.8999786L188.8132019,97.8999786
				c4.6000061,0,8.3000031,3.6999969,8.3000031,8.3000031v1.8000031c0,4.5999985-3.6999969,8.3000031-8.3000031,8.3000031l0,0
				c-4.6000061,0-8.3000031-3.6999969-8.3000031-8.3000031v-1.8000031
				C180.6131897,101.5999756,184.2131958,97.8999786,188.8132019,97.8999786z"/>
			<ellipse id="Ellipse_7_x5F_3_1_" class="st9" cx="185.1131897" cy="107.0999756" rx="1.3999939" ry="1.4000015"/>
			<path id="Vector_2_1_" class="st11" d="M180.6131897,85.9999771v9.1999969 M183.3132019,85.9999771v9.1999969
				 M186.1131897,85.9999771v9.1999969 M188.8132019,85.9999771v9.1999969 M191.6131897,85.9999771v9.1999969
				 M194.3132019,85.9999771v9.1999969 M197.1131897,85.9999771v9.1999969"/>
		</g>
		<g id="Stove_1_">
			<g id="Rectangle_25_1_">
				<rect x="225.5131989" y="75.2999802" class="st7" width="30.5" height="31.3000031"/>
				<path class="st3" d="M255.5131989,75.7999802v30.3000031h-29.5V75.7999802H255.5131989 M256.5131836,74.7999802h-31.4999847
					v32.3000031h31.4999847V74.7999802L256.5131836,74.7999802z"/>
			</g>
			<g id="Rectangle_28_x5F_3_1_">
				<rect x="225.5131989" y="75.2999802" class="st7" width="30.5" height="1.8000031"/>
				<path class="st3" d="M255.5131989,75.7999802v0.8000031h-29.5v-0.8000031H255.5131989 M256.5131836,74.7999802h-31.4999847
					v2.8000031h31.4999847V74.7999802L256.5131836,74.7999802z"/>
			</g>
			<g id="Ellipse_7_x5F_4_1_">
				<circle class="st7" cx="247.9131927" cy="85.5999756" r="3.5"/>
				<path class="st3" d="M247.9131927,82.5999756c1.6999969,0,3,1.4000015,3,3s-1.3999939,3-3,3s-3-1.4000015-3-3
					S246.3132019,82.5999756,247.9131927,82.5999756 M247.9131927,81.5999756c-2.1999969,0-4,1.8000031-4,4s1.8000031,4,4,4
					s4-1.8000031,4-4C252.0131989,83.3999786,250.2131958,81.5999756,247.9131927,81.5999756L247.9131927,81.5999756z"/>
			</g>
			<g id="Ellipse_9_1_">
				<path class="st7" d="M247.9131927,102.2999802c-2.5,0-4.6000061-2-4.6000061-4.5999985s2-4.5999985,4.6000061-4.5999985
					c2.5,0,4.6000061,2,4.6000061,4.5999985S250.4131927,102.2999802,247.9131927,102.2999802z"/>
				<path class="st3" d="M247.9131927,93.6999741c2.1999969,0,4.1000061,1.8000031,4.1000061,4.0999985
					s-1.8000031,4.0999985-4.1000061,4.0999985s-4.1000061-1.8000031-4.1000061-4.0999985
					S245.7131958,93.6999741,247.9131927,93.6999741 M247.9131927,92.6999741c-2.8000031,0-5.1000061,2.3000031-5.1000061,5.0999985
					s2.3000031,5.0999985,5.1000061,5.0999985s5.1000061-2.3000031,5.1000061-5.0999985
					S250.7131958,92.6999741,247.9131927,92.6999741L247.9131927,92.6999741z"/>
			</g>
			<g id="Ellipse_10_1_">
				<circle class="st7" cx="233.8132019" cy="85.5999756" r="4.6000061"/>
				<path class="st3" d="M233.8132019,81.5999756c2.1999969,0,4.1000061,1.8000031,4.1000061,4.0999985
					c0,2.1999969-1.8000031,4.0999985-4.1000061,4.0999985s-4.1000061-1.8000031-4.1000061-4.0999985
					S231.6131897,81.5999756,233.8132019,81.5999756 M233.8132019,80.5999756c-2.8000031,0-5.1000061,2.3000031-5.1000061,5.0999985
					c0,2.8000031,2.3000031,5.0999985,5.1000061,5.0999985s5.1000061-2.3000031,5.1000061-5.0999985
					C238.8132019,82.7999802,236.6131897,80.5999756,233.8132019,80.5999756L233.8132019,80.5999756z"/>
			</g>
			<g id="Ellipse_8_1_">
				<circle class="st7" cx="233.8132019" cy="98.7999802" r="3.5"/>
				<path class="st3" d="M233.8132019,95.6999741c1.6999969,0,3,1.4000015,3,3s-1.3999939,3-3,3s-3-1.4000015-3-3
					S232.1131897,95.6999741,233.8132019,95.6999741 M233.8132019,94.6999741c-2.1999969,0-4,1.8000031-4,4s1.8000031,4,4,4
					s4-1.8000031,4-4S236.0131989,94.6999741,233.8132019,94.6999741L233.8132019,94.6999741z"/>
			</g>
		</g>
		<path id="Vector_3_1_" class="st11" d="M193.2131958,142.7999878h-7.8000031 M191.2131958,146.1999817l-3.8999939-6.8000031
			 M191.2131958,139.2999878l-3.8999939,6.8000031"/>
	</g>
</g>
<g id="Numbers">
	<g>
		<path class="st6" d="M367.6131897,334.6999817l1.8999939-1.6000061h0.7999878v6.7000122h-1V334.5l-1.2000122,0.8999939
			L367.6131897,334.6999817z"/>
		<path class="st6" d="M374.7131958,336.9999695l-1.6000061,1.7999878h2.7000122v1h-4.2000122v-0.8999939l2.1000061-2.2999878
			l0.5-0.6000061c0.1000061-0.1000061,0.2000122-0.2999878,0.2999878-0.5
			c0.1000061-0.2000122,0.1000061-0.3999939,0.1000061-0.6000061c0-0.2999878-0.1000061-0.5-0.2999878-0.7000122
			c-0.2000122-0.2000122-0.5-0.2999878-0.7999878-0.2999878c-0.5,0-1,0.2000122-1.6000061,0.7000122l-0.6000061-0.7000122
			c0.7000122-0.6000061,1.3999939-1,2.2000122-1c0.6000061,0,1.1000061,0.2000122,1.5,0.6000061
			s0.6000061,0.8999939,0.6000061,1.3999939C375.7131958,335.5999756,375.413208,336.1999817,374.7131958,336.9999695z"/>
		<path class="st6" d="M377.3132019,339.8999634c-0.2000122,0-0.2999878-0.1000061-0.5-0.2000122
			s-0.2000122-0.2999878-0.2000122-0.5s0.1000061-0.2999878,0.2000122-0.3999939s0.2999878-0.2000122,0.5-0.2000122
			s0.2999878,0.1000061,0.3999939,0.2000122s0.2000122,0.2999878,0.2000122,0.3999939
			c0,0.2000122-0.1000061,0.2999878-0.2000122,0.5S377.5131836,339.8999634,377.3132019,339.8999634z"/>
		<path class="st6" d="M381.1131897,332.8999634c0.7999878,0,1.3999939,0.2999878,1.7999878,0.8999939
			s0.6000061,1.3999939,0.6000061,2.2999878c0,0.5-0.1000061,1-0.2000122,1.3999939s-0.2999878,0.7999878-0.5,1.2000122
			c-0.2000122,0.2999878-0.5,0.6000061-0.8999939,0.7999878c-0.3999939,0.2000122-0.7999878,0.2999878-1.2000122,0.2999878
			c-0.7000122,0-1.2999878-0.2000122-1.7999878-0.6000061l0.3999939-0.7999878c0.3999939,0.2999878,0.8999939,0.5,1.2999878,0.5
			c0.6000061,0,1-0.2000122,1.2999878-0.7000122s0.5-1,0.5-1.7000122c-0.2000122,0.2999878-0.3999939,0.5-0.7000122,0.6000061
			s-0.6000061,0.2000122-1,0.2000122c-0.6000061,0-1.1000061-0.2000122-1.5-0.6000061s-0.6000061-0.8999939-0.6000061-1.5
			s0.2000122-1.2000122,0.6000061-1.6000061C379.913208,333.1999817,380.413208,332.8999634,381.1131897,332.8999634z
			 M382.3132019,335.1999817c0-0.3999939-0.1000061-0.7000122-0.3999939-0.8999939
			c-0.2000122-0.2999878-0.5-0.3999939-0.8999939-0.3999939S380.3132019,334,380.1132202,334.2999878
			c-0.2000122,0.2999878-0.3999939,0.6000061-0.3999939,0.8999939c0,0.3999939,0.1000061,0.7000122,0.3999939,0.8999939
			c0.2000122,0.2000122,0.5,0.3999939,0.8999939,0.3999939s0.7000122-0.1000061,0.8999939-0.3999939
			C382.2131958,335.7999573,382.3132019,335.4999695,382.3132019,335.1999817z"/>
	</g>
	<g>
		<path class="st6" d="M239.8132019,339.1999817c0.6000061,0,1.1999969,0.2000122,1.6000061,0.6000061
			c0.3999939,0.3999939,0.6000061,0.8999939,0.6000061,1.6000061S241.8132172,342.6000061,241.3132172,343
			c-0.3999939,0.3999939-1,0.6000061-1.6999969,0.6000061c-0.8000031,0-1.5-0.2999878-2.1999969-0.7999878l0.5-0.7999878
			c0.6000061,0.3999939,1.1000061,0.6000061,1.6999969,0.6000061c0.3999939,0,0.6999969-0.1000061,1-0.3999939
			c0.3000031-0.2000122,0.3999939-0.5,0.3999939-0.8999939s-0.1000061-0.7000122-0.3999939-0.8999939
			c-0.1999969-0.2000122-0.6000061-0.3999939-1-0.3999939c-0.5,0-0.8999939,0.2000122-1.1999969,0.5l-0.6000061-0.3999939
			l0.3999939-3.2999878h3.3999939v0.8999939h-2.6000061l-0.1999969,1.6000061
			C239.0131989,339.2999573,239.4131927,339.1999817,239.8132019,339.1999817z"/>
	</g>
	<g>
		<path class="st6" d="M263.1131897,263.1999817l1.8999939-1.6000061h0.7999878v6.7000122h-1v-5.3000183l-1.2000122,0.8999939
			L263.1131897,263.1999817z"/>
		<path class="st6" d="M267.8132019,268.3999634c-0.2000122,0-0.2999878-0.1000061-0.5-0.2000122
			c-0.1000061-0.1000061-0.2000122-0.2999878-0.2000122-0.5s0.1000061-0.2999878,0.2000122-0.3999939
			s0.2999878-0.2000122,0.5-0.2000122s0.2999878,0.1000061,0.3999939,0.2000122s0.2000122,0.2999878,0.2000122,0.3999939
			c0,0.2000122-0.1000061,0.2999878-0.2000122,0.5S267.913208,268.3999634,267.8132019,268.3999634z"/>
		<path class="st6" d="M268.413208,263.1999817l1.8999939-1.6000061h0.7999878v6.7000122h-1v-5.3000183l-1.2000122,0.8999939
			L268.413208,263.1999817z"/>
	</g>
	<g>
		<path class="st6" d="M195.5131989,217.9999847l-1.6000061,1.8000031h2.6999969v1h-4.1999969v-0.8999939l2.1000061-2.3000031
			l0.5-0.6000061c0.1000061-0.1000061,0.1999969-0.3000031,0.3000031-0.5s0.1000061-0.3999939,0.1000061-0.6000061
			c0-0.3000031-0.1000061-0.5-0.3000031-0.6999969s-0.5-0.3000031-0.8000031-0.3000031c-0.5,0-1,0.1999969-1.6000061,0.6999969
			l-0.6000061-0.6999969c0.6999969-0.6000061,1.3999939-1,2.1999969-1c0.6000061,0,1.1000061,0.1999969,1.5,0.6000061
			c0.3999939,0.3999939,0.6000061,0.8999939,0.6000061,1.3999939
			C196.5131989,216.5999908,196.2131958,217.1999817,195.5131989,217.9999847z"/>
		<path class="st6" d="M198.1131897,220.8999786c-0.1999969,0-0.3000031-0.1000061-0.5-0.1999969
			c-0.1000061-0.1000061-0.1999969-0.3000031-0.1999969-0.5s0.1000061-0.3000031,0.1999969-0.3999939
			c0.1000061-0.1000061,0.3000031-0.1999969,0.5-0.1999969s0.3000031,0.1000061,0.3999939,0.1999969
			c0.1000061,0.1000061,0.1999969,0.3000031,0.1999969,0.3999939c0,0.1999969-0.1000061,0.3000031-0.1999969,0.5
			C198.4131927,220.7999878,198.3132019,220.8999786,198.1131897,220.8999786z"/>
		<path class="st6" d="M199.2131958,214.9999847v-0.8999939h4.1999969v0.6999969l-2.5,6h-1.1000061l2.5-5.6999969h-3.0999908
			V214.9999847z"/>
	</g>
	<g>
		<path class="st6" d="M417.913208,180.7999878l1.8999939-1.6000061h0.7999878v6.6999969h-1v-5.3000031l-1.2000122,0.8999939
			L417.913208,180.7999878z"/>
		<path class="st6" d="M424.2131958,178.9999847c0.7999878,0,1.3999939,0.3000031,1.7999878,0.8999939
			c0.3999939,0.6000061,0.6000061,1.3999939,0.6000061,2.3000031c0,0.5-0.1000061,1-0.2000122,1.3999939
			s-0.2999878,0.8000031-0.5,1.1999969c-0.2000122,0.3000031-0.5,0.6000061-0.8999939,0.8000031
			s-0.7999878,0.3000031-1.2000122,0.3000031c-0.7000122,0-1.2999878-0.1999969-1.7999878-0.6000061l0.3999939-0.8000031
			c0.3999939,0.3000031,0.8999939,0.5,1.2999878,0.5c0.6000061,0,1-0.1999969,1.2999878-0.6999969s0.5-1,0.5-1.6999969
			c-0.2000122,0.3000031-0.3999939,0.5-0.7000122,0.6000061s-0.6000061,0.1999969-1,0.1999969
			c-0.6000061,0-1.1000061-0.1999969-1.5-0.6000061c-0.3999939-0.3999939-0.6000061-0.8999939-0.6000061-1.5
			s0.2000122-1.1999969,0.6000061-1.6000061C422.913208,179.2999878,423.5131836,178.9999847,424.2131958,178.9999847z
			 M425.413208,181.2999878c0-0.3999939-0.1000061-0.6999969-0.3999939-0.8999939
			c-0.2000122-0.3000031-0.5-0.3999939-0.8999939-0.3999939s-0.7000122,0.1000061-0.8999939,0.3999939
			c-0.2000122,0.3000031-0.3999939,0.6000061-0.3999939,0.8999939c0,0.3999939,0.1000061,0.6999969,0.3999939,0.8999939
			c0.2000122,0.1999969,0.5,0.3999939,0.8999939,0.3999939s0.7000122-0.1000061,0.8999939-0.3999939
			C425.3132019,181.8999786,425.413208,181.5999908,425.413208,181.2999878z"/>
		<path class="st6" d="M427.913208,185.9999847c-0.2000122,0-0.2999878-0.1000061-0.5-0.1999969
			c-0.1000061-0.1000061-0.2000122-0.3000031-0.2000122-0.5s0.1000061-0.3000031,0.2000122-0.3999939
			c0.1000061-0.1000061,0.2999878-0.1999969,0.5-0.1999969s0.2999878,0.1000061,0.3999939,0.1999969
			c0.1000061,0.1000061,0.2000122,0.3000031,0.2000122,0.3999939c0,0.1999969-0.1000061,0.3000031-0.2000122,0.5
			C428.2131958,185.8999786,428.0131836,185.9999847,427.913208,185.9999847z"/>
		<path class="st6" d="M431.5131836,181.4999847c0.6000061,0,1.2000122,0.1999969,1.6000061,0.6000061
			s0.6000061,0.8999939,0.6000061,1.6000061c0,0.6999969-0.2000122,1.1999969-0.7000122,1.6000061
			c-0.3999939,0.3999939-1,0.6000061-1.7000122,0.6000061c-0.7999878,0-1.5-0.3000031-2.2000122-0.8000031l0.5-0.8000031
			c0.6000061,0.3999939,1.1000061,0.6000061,1.7000122,0.6000061c0.3999939,0,0.7000122-0.1000061,1-0.3999939
			c0.2999878-0.1999969,0.3999939-0.5,0.3999939-0.8999939s-0.1000061-0.6999969-0.3999939-0.8999939
			c-0.2000122-0.1999969-0.6000061-0.3999939-1-0.3999939c-0.5,0-0.8999939,0.1999969-1.2000122,0.5l-0.6000061-0.3999939
			l0.3999939-3.3000031h3.3999939v0.8999939h-2.6000061l-0.2000122,1.6000061
			C430.8132019,181.5999908,431.2131958,181.4999847,431.5131836,181.4999847z"/>
	</g>
</g>
<g id="street_anchors">
	<rect id="street_anchor_01" x="591.2033081" y="234.9999847" class="st12" width="10" height="10"/>
</g>
</svg>
