<?xml version="1.0" encoding="utf-8"?>
<!-- Generator: Adobe Illustrator 24.2.0, SVG Export Plug-In . SVG Version: 6.00 Build 0)  -->
<!DOCTYPE svg PUBLIC "-//W3C//DTD SVG 1.1//EN" "http://www.w3.org/Graphics/SVG/1.1/DTD/svg11.dtd" [
	<!ENTITY ns_extend "http://ns.adobe.com/Extensibility/1.0/">
	<!ENTITY ns_ai "http://ns.adobe.com/AdobeIllustrator/10.0/">
	<!ENTITY ns_graphs "http://ns.adobe.com/Graphs/1.0/">
	<!ENTITY ns_vars "http://ns.adobe.com/Variables/1.0/">
	<!ENTITY ns_imrep "http://ns.adobe.com/ImageReplacement/1.0/">
	<!ENTITY ns_sfw "http://ns.adobe.com/SaveForWeb/1.0/">
	<!ENTITY ns_custom "http://ns.adobe.com/GenericCustomNamespace/1.0/">
	<!ENTITY ns_adobe_xpath "http://ns.adobe.com/XPath/1.0/">
]>
<svg version="1.1" id="_x31__x5F_2" xmlns:x="&ns_extend;" xmlns:i="&ns_ai;" xmlns:graph="&ns_graphs;"
	 xmlns="http://www.w3.org/2000/svg" xmlns:xlink="http://www.w3.org/1999/xlink" x="0px" y="0px" viewBox="0 0 720 480"
	 style="enable-background:new 0 0 720 480;" xml:space="preserve">
<style type="text/css">
	.st0{fill:#DBD4CA;}
	.st1{opacity:0.3;}
	.st2{opacity:0.7;fill:#C49F8A;enable-background:new    ;}
	.st3{fill:#C49F8A;}
	.st4{fill:none;stroke:#565440;}
	.st5{fill:#565440;}
	.st6{fill:#E9E4DC;}
	.st7{fill:#E9E4DC;stroke:#C49F8A;}
	.st8{fill:#E9E4DC;stroke:#C49F8A;stroke-width:1;stroke-miterlimit:3.9998;}
	.st9{fill:none;stroke:#C49F8A;}
	.st10{fill:#E9E4DC;stroke:#C49F8A;stroke-linejoin:round;}
	.st11{fill:#E9E4DC;stroke:#C49F8A;stroke-width:1;stroke-miterlimit:4;}
	.st12{fill:none;stroke:#C49F8A;stroke-width:1;stroke-miterlimit:4;}
	.st13{opacity:0;}
	.st14{fill:none;}
</style>
<metadata>
	<sfw  xmlns="&ns_sfw;">
		<slices></slices>
		<sliceSourceBounds  bottomLeftOrigin="true" height="400" width="295.7" x="212.2" y="60"></sliceSourceBounds>
	</sfw>
</metadata>
<path id="Floor" class="st0" d="M308.9,63.7L464.1,64l0.3,158.8h-47.9c0,0-0.3,197.3,0,197.3s-160.6,0-160.6,0l0-356.3h51.9"/>
<g id="Wet_Floor">
	<g>
		<g class="st1">
			<rect x="374" y="376.9" class="st2" width="39.1" height="40.2"/>
		</g>
		<path class="st3" d="M388.8,415.8l-1.3,1.3h1.4l0.6-0.6l0.6,0.6h1.4l-1.3-1.3l9.8-9.8l9.7,9.7l-1.4,1.4h1.4l0.7-0.7l0.7,0.7h1.4
			l-1.4-1.4l1.9-1.9v-1.4l-2.6,2.6l-9.7-9.7l9.7-9.7l2.6,2.6v-1.4l-1.9-1.9l1.9-1.9v-1.4l-2.6,2.6l-9.8-9.8l7.5-7.5h-1.4l-6.8,6.8
			l-6.8-6.8h-1.4l7.5,7.5l-9.7,9.7l-10-10l7.2-7.2h-1.4l-6.5,6.5l-4.8-4.8v1.4l4.1,4.1l-4.1,4.1v1.4l4.8-4.8l10,10l-9.8,9.8l-5-5
			v1.4l4.3,4.3l-4.3,4.3v1.4l5-5L388.8,415.8z M400,385.1l9.8,9.8l-9.7,9.7l-9.8-9.8L400,385.1z M389.5,395.5l9.8,9.8l-9.8,9.8
			l-9.8-9.8L389.5,395.5z"/>
	</g>
	<g>
		<g class="st1">
			<polygon class="st2" points="413.1,217.8 459.9,217.8 459.9,173.7 371.4,173.7 371.4,266.1 413.1,266.1 			"/>
		</g>
		<path class="st3" d="M413.1,255.8v-1.4l-1.6-1.6l1.6-1.6v-1.4l-2.3,2.3l-9.8-9.8l9.8-9.8l2.3,2.3v-1.4l-1.6-1.6l1.6-1.6v-1.4
			l-2.3,2.3l-9.7-9.7l10-10l6.4,6.4h1.4l-7.1-7.1l9.8-9.8l9.7,9.7l-7.2,7.2h1.4l6.5-6.5l6.5,6.5h1.4l-7.2-7.2l9.7-9.7l9.8,9.8
			l-7.1,7.1h1.4l6.4-6.4l6.4,6.4h0.7v-0.7l-6.4-6.4l6.4-6.4v-1.4l-7.1,7.1l-9.8-9.8l9.8-9.8l7.1,7.1v-1.4l-6.4-6.4l6.4-6.4v-1.4
			l-7.1,7.1l-9.7-9.7l5.6-5.6h-1.4l-4.9,4.9l-4.9-4.9h-1.4l5.6,5.6l-9.8,9.8l-9.8-9.8l5.6-5.6h-1.4l-4.9,4.9l-4.9-4.9h-1.4l5.6,5.6
			L411,189l-10-10l5.3-5.3h-1.4l-4.6,4.6l-4.6-4.6h-1.4l5.3,5.3l-9.8,9.8L380,179l5.3-5.3h-1.4l-4.6,4.6l-4.6-4.6h-1.4l5.3,5.3
			l-7.2,7.2v1.4l7.9-7.9l9.8,9.8l-10,10l-7.7-7.7v1.4l7,7l-7,7v1.4l7.7-7.7l10,10l-9.8,9.8l-7.9-7.9v1.4l7.2,7.2l-7.2,7.2v1.4
			l7.9-7.9l9.8,9.8l-9.7,9.7l-8-8v1.4l7.3,7.3l-7.3,7.3v1.4l8-8l9.7,9.7l-9.8,9.8l-7.9-7.9v1.4l7.2,7.2l-2.9,2.9h1.4l2.1-2.1
			l2.1,2.1h1.4l-2.9-2.9l9.8-9.8l9.8,9.8l-2.9,2.9h1.4l2.1-2.1l2.1,2.1h1.4l-2.9-2.9l9.7-9.7L413.1,255.8z M410,231.8l-9.8,9.8
			l-9.7-9.7l9.8-9.8L410,231.8z M400.3,220.7l-9.8-9.8l10-10l9.8,9.8L400.3,220.7z M442.4,180l9.7,9.7l-9.8,9.8l-9.7-9.7L442.4,180z
			 M441.6,200.2l-9.7,9.7l-9.7-9.7l9.7-9.7L441.6,200.2z M421.4,180l9.8,9.8l-9.7,9.7l-9.8-9.8L421.4,180z M420.8,200.2L411,210
			l-9.8-9.8l9.8-9.8L420.8,200.2z M400.3,179.7l10,10l-9.8,9.8l-10-10L400.3,179.7z M379.8,200.2l10-10l10,10l-10,10L379.8,200.2z
			 M380,221.4l9.8-9.8l9.8,9.8l-9.8,9.8L380,221.4z M380.1,242.3l9.7-9.7l9.7,9.7l-9.7,9.7L380.1,242.3z M400.3,262.5l-9.8-9.8
			l9.7-9.7l9.8,9.8L400.3,262.5z"/>
	</g>
</g>
<g id="Windows_1_">
	<polygon id="Windows" class="st4" points="464.1,60.9 253.1,60.9 253.1,208.5 255.9,208.5 255.9,63.7 464.1,63.7 464.1,89.3
		466.9,89.3 466.9,60.9 	"/>
	<path id="Windows_1_3_" class="st4" d="M253.1,221.8h2.8v105.9h-2.8V221.8z"/>
	<path id="Windows_2" class="st4" d="M253.1,351.4h2.8v65.2h-2.8V351.4z"/>
</g>
<g id="Walls">
	<polygon class="st5" points="347.6,217 347,217 347,214.8 345,214.8 345,217 263.5,217 263.5,207.6 252.2,207.6 252.2,217
		252.2,222.7 347.6,222.7 	"/>
	<polygon class="st5" points="263.5,167.8 261.6,167.8 261.6,152 345,152 345,200 347,200 347,152 350.7,152 350.7,150 347,150
		345,150 261.6,150 261.6,128.1 252.2,128.1 252.2,167.8 252.2,178.8 252.2,181.1 263.5,181.1 	"/>
	<polygon class="st5" points="263.5,88.4 252.2,88.4 252.2,101.6 252.2,101.7 263.5,101.7 	"/>
	<polygon class="st5" points="309,69.4 348.6,69.4 348.6,60 309,60 304.8,60 295.7,60 295.7,71.4 309,71.4 	"/>
	<path class="st5" d="M458.4,88.4v85.3h-44.7h-1.9h-5.2v1.9h5.2v5.5h1.9v-5.5h38.8v3.8v1.9h1.9h4V217h-41.6h-3.1v-19.3h-1.9V210
		h-6.9h-1.9v1.9v13.5h-29.6v-49.8h1.8h1.9h15.3v-1.9h-15.3v-2.1h-1.9v2.1h-1.8h-1.9v1.9v67.9h1.9v-16.2h37.8v37.5h-37.8v-6.6h-1.9
		v32.5v1.9h1.9h1.5v-1.9h-1.5v-23.9h37.8v23.9h-23.3v1.9h23.3v12.4h5.7v-82.4h51v-4.3V217V88.4H458.4z M411.2,225.4h-6.3v-13.5h6.9
		v5.1h-0.6v5.7V225.4z M454.4,179.4v-3.8h4v3.8H454.4z"/>
	<polygon class="st5" points="375.1,156.6 377.1,156.6 377.1,71.4 388.4,71.4 388.4,69.4 425.5,69.4 425.5,60 388.4,60 387.2,60
		375.1,60 375.1,69.4 375.1,71.4 375.1,150 364.8,150 364.8,152 375.1,152 	"/>
	<rect x="252.2" y="247.3" class="st5" width="9.4" height="13.3"/>
	<rect x="252.2" y="287" class="st5" width="11.4" height="13.3"/>
	<path class="st5" d="M411.2,353.3h-14.4v1.9h6.8v4.6v1.9v0l7.5,0v15.1H401v1.9h10.2v35.4h-36.5v-35.4h11.8v-1.9h-11.8h-1.9v1.9
		v35.4H261.6v-8.1h-9.4v8.1v5.7v0h9.4v0h155.2v-2.7v-3V324h-5.7V353.3z M405.6,359.8v-4.6h5.6v4.6H405.6z"/>
	<path class="st5" d="M261.6,361.1h1.9v-5.8h114.3h0.9h4v-1.9h-4v-2.5v-1.3v-5.1v-1.9v0h-10.1v0v1.9v5.1H263.5v-6.4h-1.9v-16.9h-9.4
		v16.9v1.2v5.2v5.5v0.1v3v2.8v17.8h9.4V361.1z M370.5,344.4h6.2v5.1h-6.2V344.4z"/>
</g>
<g id="Doors">
	<path class="st4" d="M371.5,258.6c-2.1,0-3.7-0.4-5.7-1.2c-1.9-0.7-3.6-1.9-4.9-3.3c-1.5-1.3-2.7-3-3.4-4.9
		c-0.7-1.9-1.2-3.7-1.2-5.8h15.1"/>
	<path class="st4" d="M388.6,292c0,2.1-0.4,3.7-1.2,5.7c-0.7,1.9-1.9,3.6-3.3,4.9c-1.3,1.5-3,2.7-4.9,3.4c-1.9,0.7-3.7,1.2-5.8,1.2
		v-15.1"/>
	<path class="st4" d="M396.8,353.9c0-1.9-0.3-3.4-1-5.2c-0.7-1.8-1.8-3.3-3-4.5c-1.2-1.3-2.8-2.4-4.5-3.1c-1.8-0.7-3.4-1-5.4-1V354"
		/>
	<path class="st4" d="M416.5,305.1c2.4,0,4.8,0.6,7,1.5c2.2,0.9,4.5,2.2,6.3,4.2c1.6,1.6,3.3,3.7,4.2,6c0.9,2.2,1.5,4.8,1.5,7.2h-19
		"/>
	<path class="st4" d="M350,150.6c0-2.1,0.4-3.7,1.2-5.7c0.7-1.9,1.9-3.6,3.3-4.9c1.3-1.5,3-2.7,4.9-3.4s3.7-1.2,5.8-1.2v15.1"/>
	<path class="st4" d="M375.1,171.6c-2.1,0-3.7-0.4-5.7-1.2s-3.6-1.9-4.9-3.3c-1.5-1.3-2.7-3-3.4-4.9c-0.7-1.9-1.2-3.7-1.2-5.8h15.3"
		/>
	<path class="st4" d="M345.3,214.9c-2.1,0-3.7-0.4-5.7-1.2s-3.6-1.9-4.9-3.3c-1.5-1.3-2.7-3-3.4-4.9c-0.7-1.9-1.2-3.7-1.2-5.8h15.1"
		/>
	<path class="st4" d="M392.2,174.4c0-2.1,0.4-3.7,1.2-5.7s1.9-3.6,3.3-4.9c1.3-1.5,3-2.7,4.9-3.4s3.7-1.2,5.8-1.2v15.1"/>
	<path class="st4" d="M386.5,377.4c0-1.9,0.3-3.6,1-5.5c0.7-1.8,1.8-3.4,3.1-4.8c1.3-1.5,3-2.5,4.8-3.3c1.8-0.7,3.6-1,5.7-1v14.7"/>
</g>
<g id="Furniture_3_">
	<g>
		<g>
			<rect x="305.8" y="111.2" class="st6" width="32.3" height="38.3"/>
			<path class="st3" d="M337.6,111.7V149h-31.3l0-37.3H337.6 M338.6,110.7h-33.3l0,39.3h33.3V110.7L338.6,110.7z"/>
		</g>
		<rect x="322.8" y="137.5" class="st7" width="13" height="9.7"/>
		<rect x="308.1" y="137.5" class="st7" width="13" height="9.7"/>

			<rect x="323.3" y="133.2" transform="matrix(0.9659 -0.2588 0.2588 0.9659 -24.5402 89.6456)" class="st8" width="9.7" height="9.7"/>

			<rect x="310.8" y="133.2" transform="matrix(0.2588 -0.9659 0.9659 0.2588 100.616 407.1708)" class="st8" width="9.7" height="9.7"/>
		<g>
			<polygon class="st6" points="305.8,141.3 305.8,110.8 338.1,110.8 338.1,139.3 318.6,142.1 			"/>
			<path class="st3" d="M337.6,111.3v27.5l-19,2.8l-12.3-0.8v-29.5H337.6 M338.6,110.3h-33.3v30.9v0.6l13.3,0.8l20-2.9v-0.2V110.3
				L338.6,110.3z"/>
		</g>
		<polyline class="st9" points="305.7,140.8 318.7,140.8 338.2,139.2 		"/>
	</g>
	<g>
		<g>
			<rect x="291.6" y="375.5" class="st6" width="32.3" height="38.3"/>
			<path class="st3" d="M323.4,376v37.3h-31.3l0-37.3H323.4 M324.4,375h-33.3l0,39.3h33.3V375L324.4,375z"/>
		</g>
		<rect x="308.6" y="401.8" class="st7" width="13" height="9.7"/>
		<rect x="294" y="401.8" class="st7" width="13" height="9.7"/>

			<rect x="309.2" y="397.4" transform="matrix(0.9659 -0.2588 0.2588 0.9659 -93.4204 94.9833)" class="st8" width="9.7" height="9.7"/>

			<rect x="296.6" y="397.4" transform="matrix(0.2588 -0.9659 0.9659 0.2588 -165.1596 589.3679)" class="st8" width="9.7" height="9.7"/>
		<g>
			<polygon class="st6" points="291.6,405.6 291.6,375.1 323.9,375.1 323.9,403.6 304.4,406.4 			"/>
			<path class="st3" d="M323.4,375.6v27.5l-19,2.8l-12.3-0.8v-29.5H323.4 M324.4,374.6h-33.3v30.9v0.6l13.3,0.8l20-2.9v-0.2V374.6
				L324.4,374.6z"/>
		</g>
		<polyline class="st9" points="291.6,405.1 304.6,405.1 324.1,403.5 		"/>
	</g>
	<g>
		<g>
			<rect x="302.4" y="152.5" class="st6" width="42.2" height="27.1"/>
			<path class="st3" d="M344,153l0,26.1l-41.2,0V153L344,153 M345,152l-43.2,0v28.1l43.2,0L345,152L345,152z"/>
		</g>
		<rect x="331.3" y="154.4" class="st7" width="10.7" height="11"/>
		<rect x="331.3" y="166.7" class="st7" width="10.7" height="11"/>
		<polygon class="st8" points="335.6,155.7 338.4,163.7 328.1,165.8 325.3,157.9 		"/>
		<polygon class="st8" points="328.1,166.3 338.4,168.5 335.6,176.4 325.3,174.3 		"/>
		<g>
			<polygon class="st6" points="302,179.6 302,152.5 333.3,152.5 336.4,168.9 335.5,179.6 			"/>
			<path class="st3" d="M332.9,153l3,15.9l-0.8,10.2h-32.6l0-26.1H332.9 M333.7,152h-0.2h-32l0,28.1h33.9h0.7l0.9-11.2L333.7,152
				L333.7,152z"/>
		</g>
		<polyline class="st9" points="334.9,179.7 334.9,168.7 333.1,152.3 		"/>
	</g>
	<g>
		<g>
			<rect x="415.8" y="109.2" class="st6" width="42.2" height="27.1"/>
			<path class="st3" d="M457.4,109.7l0,26.1h-41.2v-26.1H457.4 M458.4,108.7h-43.2v28.1h43.2L458.4,108.7L458.4,108.7z"/>
		</g>
		<rect x="444.7" y="111.1" class="st7" width="10.7" height="11"/>
		<rect x="444.7" y="123.4" class="st7" width="10.7" height="11"/>
		<polygon class="st8" points="449,112.5 451.8,120.4 441.5,122.5 438.7,114.6 		"/>
		<polygon class="st8" points="441.5,123.1 451.8,125.2 449,133.1 438.7,131 		"/>
		<g>
			<polygon class="st6" points="415.3,136.3 415.3,109.2 446.7,109.2 449.8,125.6 448.9,136.3 			"/>
			<path class="st3" d="M446.3,109.7l3,15.9l-0.8,10.2h-32.6v-26.1H446.3 M447.1,108.7h-0.2h-32v28.1h33.9h0.7l0.9-11.2L447.1,108.7
				L447.1,108.7z"/>
		</g>
		<polyline class="st9" points="448.3,136.4 448.3,125.5 446.5,109 		"/>
	</g>
	<g>
		<g>
			<rect x="424" y="203" class="st6" width="33.9" height="13.5"/>
			<path class="st3" d="M457.4,203.5V216h-32.9v-12.5H457.4 M458.4,202.5h-34.9V217h34.9V202.5L458.4,202.5z"/>
		</g>
		<g>
			<g>
				<path class="st10" d="M455.2,209.8c0-2.7-2.3-4.7-4.9-4.5c-2.9,0.3-6.6,0.5-9.3,0.5c-2.7,0-6.4-0.3-9.3-0.5
					c-2.6-0.2-4.9,1.9-4.9,4.5c0,2.6,2.3,4.7,4.9,4.5c2.9-0.3,6.6-0.5,9.3-0.5c2.7,0,6.4,0.3,9.3,0.5
					C452.9,214.5,455.2,212.4,455.2,209.8z"/>
				<ellipse class="st10" cx="450.6" cy="209.8" rx="0.9" ry="0.9"/>
			</g>
		</g>
	</g>
	<g>
		<g>
			<rect x="376.8" y="250.9" class="st6" width="33.9" height="13.5"/>
			<path class="st3" d="M410.2,251.4v12.5h-32.9v-12.5H410.2 M411.2,250.4h-34.9v14.5h34.9V250.4L411.2,250.4z"/>
		</g>
		<g>
			<g>
				<path class="st10" d="M407.9,257.6c0-2.7-2.3-4.7-4.9-4.5c-2.9,0.3-6.6,0.5-9.3,0.5c-2.7,0-6.4-0.3-9.3-0.5
					c-2.6-0.2-4.9,1.9-4.9,4.5s2.3,4.7,4.9,4.5c2.9-0.3,6.6-0.5,9.3-0.5c2.7,0,6.4,0.3,9.3,0.5C405.6,262.4,407.9,260.3,407.9,257.6
					z"/>
				<ellipse class="st10" cx="403.3" cy="257.6" rx="0.9" ry="0.9"/>
			</g>
		</g>
	</g>
	<g>
		<g>
			<rect x="375.2" y="401.7" class="st6" width="35.5" height="12.1"/>
			<path class="st3" d="M410.2,402.2v11.1h-34.5v-11.1H410.2 M411.2,401.2h-36.5v13.1h36.5V401.2L411.2,401.2z"/>
		</g>
		<g>
			<g>
				<path class="st10" d="M404.8,407.7c0-2.2-1.9-3.9-4.1-3.8c-2.4,0.2-5.5,0.4-7.7,0.4c-2.3,0-5.3-0.2-7.7-0.4
					c-2.2-0.2-4.1,1.5-4.1,3.8c0,2.2,1.9,3.9,4.1,3.8c2.4-0.2,5.5-0.4,7.7-0.4c2.3,0,5.3,0.2,7.7,0.4
					C402.8,411.7,404.8,410,404.8,407.7z"/>
				<ellipse class="st10" cx="400.9" cy="407.7" rx="0.9" ry="0.9"/>
			</g>
		</g>
	</g>
	<g>
		<g>
			<rect x="428.6" y="176.1" class="st6" width="11.4" height="7.5"/>
			<path class="st3" d="M439.5,176.6v6.5h-10.4v-6.5H439.5 M440.5,175.6h-12.4v8.5h12.4V175.6L440.5,175.6z"/>
		</g>
		<g>
			<path class="st6" d="M434.3,182.1c-1.2,0-2.3-1-2.3-2.3s1-2.3,2.3-2.3s2.3,1,2.3,2.3S435.6,182.1,434.3,182.1z"/>
			<path class="st3" d="M434.3,178.1c1,0,1.8,0.8,1.8,1.8s-0.8,1.8-1.8,1.8s-1.8-0.8-1.8-1.8S433.3,178.1,434.3,178.1 M434.3,177.1
				c-1.5,0-2.8,1.2-2.8,2.8c0,1.5,1.2,2.8,2.8,2.8s2.8-1.2,2.8-2.8C437.1,178.3,435.8,177.1,434.3,177.1L434.3,177.1z"/>
		</g>
	</g>
	<g>
		<path class="st7" d="M288.7,275.3h26.1v19h-26.1V275.3z"/>
		<path class="st7" d="M287,279.6h-0.4c-2.9,0-5.2,2.3-5.2,5.2c0,2.9,2.3,5.2,5.2,5.2h0.4V279.6z"/>
		<path class="st7" d="M288.7,280.9h-2c-2.2,0-3.9,1.8-3.9,3.9c0,2.2,1.8,3.9,3.9,3.9h2V280.9z"/>
		<path class="st7" d="M316.5,279.6h0.4c2.9,0,5.2,2.3,5.2,5.2c0,2.9-2.3,5.2-5.2,5.2h-0.4V279.6z"/>
		<path class="st7" d="M314.8,280.9h2c2.2,0,3.9,1.8,3.9,3.9c0,2.2-1.8,3.9-3.9,3.9h-2V280.9z"/>
		<path class="st7" d="M307,296v0.4c0,2.9-2.3,5.2-5.2,5.2c-2.9,0-5.2-2.3-5.2-5.2V296H307z"/>
		<path class="st7" d="M305.7,294.3v2c0,2.2-1.8,3.9-3.9,3.9c-2.2,0-3.9-1.8-3.9-3.9v-2H305.7z"/>
		<path class="st7" d="M307,273.7v-0.4c0-2.9-2.3-5.2-5.2-5.2c-2.9,0-5.2,2.3-5.2,5.2v0.4L307,273.7z"/>
		<path class="st7" d="M305.7,275.3v-2c0-2.2-1.8-3.9-3.9-3.9c-2.2,0-3.9,1.8-3.9,3.9v2H305.7z"/>
	</g>
	<g>
		<path class="st7" d="M285.5,84.1l-8.5,0l-1.1-7.7l10.8,0L285.5,84.1z"/>
		<g>
			<rect x="256.9" y="64.7" class="st6" width="38.3" height="12.2"/>
			<path class="st3" d="M294.7,65.2v11.2h-37.3V65.2L294.7,65.2 M295.7,64.2l-39.3,0v13.2h39.3V64.2L295.7,64.2z"/>
		</g>
		<path class="st11" d="M287.9,75.2L287.9,75.2c-0.4,0-0.7-0.3-0.7-0.7l0-0.9c0-0.4,0.3-0.7,0.7-0.7l0,0c0.4,0,0.7,0.3,0.7,0.7
			l0,0.9C288.6,74.9,288.3,75.2,287.9,75.2z"/>
		<path class="st7" d="M282.8,68.9c0,1.1-0.9,1.9-1.9,1.9c-1.1,0-1.9-0.9-1.9-1.9l0-1.9l3.9,0L282.8,68.9z"/>
		<g>
			<rect x="277.4" y="77.5" class="st6" width="7.8" height="6.5"/>
			<path class="st3" d="M284.7,78v5.5h-6.8V78H284.7 M285.7,77h-8.8v7.5h8.8V77L285.7,77z"/>
		</g>
		<g>
			<rect x="277.2" y="84.2" class="st6" width="8.2" height="1.3"/>
			<path class="st3" d="M284.9,84.7V85h-7.2v-0.3H284.9 M285.9,83.7h-9.2V86h9.2V83.7L285.9,83.7z"/>
		</g>
		<g>
			<rect x="270.8" y="66.6" class="st6" width="20.1" height="1.8"/>
			<path class="st3" d="M290.4,67.1v0.8h-19.1v-0.8H290.4 M291.4,66.1h-21.1v2.8h21.1V66.1L291.4,66.1z"/>
		</g>
		<g>
			<rect x="277" y="72.4" class="st6" width="7.8" height="3"/>
			<path class="st3" d="M284.2,72.9v2h-6.8v-2H284.2 M285.2,71.9h-8.8v4h8.8V71.9L285.2,71.9z"/>
		</g>
		<g>
			<line class="st12" x1="278.3" y1="73.9" x2="283.5" y2="73.9"/>
		</g>
	</g>
	<g>
		<path class="st7" d="M276.2,388.2l0,8.5l-7.7,1.1l0-10.8L276.2,388.2z"/>
		<g>
			<rect x="256.9" y="379.4" class="st6" width="12.2" height="26.4"/>
			<path class="st3" d="M268.6,379.9l0,25.4h-11.2v-25.4H268.6 M269.6,378.9h-13.2v27.4h13.2L269.6,378.9L269.6,378.9z"/>
		</g>
		<path class="st11" d="M267.3,385.9L267.3,385.9c0,0.4-0.3,0.7-0.7,0.7l-0.9,0c-0.4,0-0.7-0.3-0.7-0.7l0,0c0-0.4,0.3-0.7,0.7-0.7
			l0.9,0C267,385.2,267.3,385.5,267.3,385.9z"/>
		<path class="st7" d="M261.1,391c1.1,0,1.9,0.9,1.9,1.9c0,1.1-0.9,1.9-1.9,1.9l-1.9,0l0-3.9L261.1,391z"/>
		<g>
			<rect x="269.7" y="388.6" class="st6" width="6.5" height="7.8"/>
			<path class="st3" d="M275.7,389.1v6.8h-5.5v-6.8H275.7 M276.7,388.1h-7.5v8.8h7.5V388.1L276.7,388.1z"/>
		</g>
		<g>
			<rect x="276.3" y="388.4" class="st6" width="1.3" height="8.2"/>
			<path class="st3" d="M277.2,388.9v7.2h-0.3v-7.2H277.2 M278.2,387.9h-2.3v9.2h2.3V387.9L278.2,387.9z"/>
		</g>
		<g>
			<rect x="258.8" y="382.9" class="st6" width="1.8" height="20.1"/>
			<path class="st3" d="M260.1,383.4v19.1h-0.8v-19.1H260.1 M261.1,382.4h-2.8v21.1h2.8V382.4L261.1,382.4z"/>
		</g>
		<g>
			<rect x="264.5" y="389.1" class="st6" width="3" height="7.8"/>
			<path class="st3" d="M267,389.6v6.8h-2v-6.8H267 M268,388.6h-4v8.8h4V388.6L268,388.6z"/>
		</g>
		<g>
			<line class="st12" x1="266" y1="395.5" x2="266" y2="390.3"/>
		</g>
	</g>
	<g id="Sink_2_1_">
		<g id="Rectangle_16_x5F_11_1_">
			<rect x="376.7" y="227.9" class="st6" width="14.4" height="8.7"/>
			<path class="st3" d="M390.6,228.4v7.7h-13.4v-7.7H390.6 M391.6,227.4h-15.4v9.7h15.4V227.4L391.6,227.4z"/>
		</g>
		<path id="Rectangle_19_x5F_5_1_" class="st7" d="M378.8,232.2L378.8,232.2c0,1.6,1.3,3,3,3h4.2c1.6,0,3-1.3,3-3l0,0
			c0-1.6-1.3-3-3-3h-4.2C380.1,229.2,378.8,230.6,378.8,232.2z"/>
		<circle id="Ellipse_7_x5F_2_1_" class="st7" cx="383.9" cy="231.3" r="0.9"/>
	</g>
	<g id="Sink_2_2_">
		<g id="Rectangle_16_x5F_11_2_">
			<rect x="414.2" y="176.1" class="st6" width="14.4" height="8.7"/>
			<path class="st3" d="M428.1,176.6v7.7h-13.4v-7.7H428.1 M429.1,175.6h-15.4v9.7h15.4V175.6L429.1,175.6z"/>
		</g>
		<path id="Rectangle_19_x5F_5_2_" class="st7" d="M416.3,180.5L416.3,180.5c0,1.6,1.3,3,3,3h4.2c1.6,0,3-1.3,3-3l0,0
			c0-1.6-1.3-3-3-3h-4.2C417.6,177.5,416.3,178.8,416.3,180.5z"/>
		<circle id="Ellipse_7_x5F_2_2_" class="st7" cx="421.4" cy="179.7" r="0.9"/>
	</g>
	<g id="Sink_2_3_">
		<g id="Rectangle_16_x5F_11_4_">
			<rect x="403.8" y="390.3" class="st6" width="6.8" height="11.4"/>
			<path class="st3" d="M410.2,390.8v10.4h-5.8v-10.4H410.2 M411.2,389.8h-7.8v12.4h7.8V389.8L411.2,389.8z"/>
		</g>
		<path id="Rectangle_19_x5F_5_3_" class="st7" d="M407.2,399.1L407.2,399.1c-1,0-1.8-0.8-1.8-1.8v-2.6c0-1,0.8-1.8,1.8-1.8l0,0
			c1,0,1.8,0.8,1.8,1.8v2.6C409.1,398.3,408.3,399.1,407.2,399.1z"/>
		<circle id="Ellipse_7_x5F_2_3_" class="st7" cx="407.8" cy="396" r="0.9"/>
	</g>
	<g id="Toilet_4_">
		<g id="Rectangle_21_5_">
			<rect x="408.2" y="379.4" class="st6" width="2.4" height="9.4"/>
			<path class="st3" d="M410.2,379.9v8.4h-1.4l0-8.4L410.2,379.9 M411.2,378.9l-3.4,0l0,10.4h3.4V378.9L411.2,378.9z"/>
		</g>
		<path id="Rectangle_19_x5F_2_4_" class="st7" d="M401.9,387.5c-2,0.1-3.7-1.4-3.7-3.4l0,0c0-2,1.7-3.6,3.7-3.4l6.4,0.4v6
			L401.9,387.5z"/>
		<path id="Rectangle_18_x5F_13_4_" class="st7" d="M401.9,385.9c-1.1,0.1-2-0.8-2-1.8l0,0c0-1.1,0.9-1.9,2-1.8l2.9,0.3v3.2
			L401.9,385.9z"/>
		<ellipse id="Ellipse_6_x5F_2_4_" class="st7" cx="403.1" cy="384.1" rx="0.9" ry="0.9"/>
	</g>
	<g id="Toilet_3_">
		<g id="Rectangle_21_3_">
			<rect x="408.2" y="227.9" class="st6" width="2.4" height="9.4"/>
			<path class="st3" d="M410.2,228.4v8.4l-1.4,0l0-8.4H410.2 M411.2,227.4h-3.4l0,10.4l3.4,0V227.4L411.2,227.4z"/>
		</g>
		<path id="Rectangle_19_x5F_2_3_" class="st7" d="M401.9,236c-2,0.1-3.7-1.4-3.7-3.4l0,0c0-2,1.7-3.6,3.7-3.4l6.4,0.4v6L401.9,236z
			"/>
		<path id="Rectangle_18_x5F_13_3_" class="st7" d="M401.9,234.4c-1.1,0.1-2-0.8-2-1.8l0,0c0-1.1,0.9-1.9,2-1.8l2.9,0.3v3.2
			L401.9,234.4z"/>
		<ellipse id="Ellipse_6_x5F_2_3_" class="st7" cx="403.1" cy="232.6" rx="0.9" ry="0.9"/>
	</g>
	<g id="Toilet_1_">
		<g id="Rectangle_21_1_">
			<rect x="455.5" y="181.8" class="st6" width="2.4" height="9.4"/>
			<path class="st3" d="M457.4,182.3v8.4H456l0-8.4H457.4 M458.4,181.3H455l0,10.4h3.4V181.3L458.4,181.3z"/>
		</g>
		<path id="Rectangle_19_x5F_2_1_" class="st7" d="M449.1,190c-2,0.1-3.7-1.4-3.7-3.4l0,0c0-2,1.7-3.6,3.7-3.4l6.4,0.4v6L449.1,190z
			"/>
		<path id="Rectangle_18_x5F_13_1_" class="st7" d="M449.2,188.4c-1.1,0.1-2-0.8-2-1.8l0,0c0-1.1,0.9-1.9,2-1.8l2.9,0.3v3.2
			L449.2,188.4z"/>
		<ellipse id="Ellipse_6_x5F_2_1_" class="st7" cx="450.4" cy="186.5" rx="0.9" ry="0.9"/>
	</g>
	<g id="TV">
		<g id="Rectangle_16">
			<rect x="309.5" y="74.8" class="st6" width="28.4" height="1.8"/>
			<path class="st3" d="M337.4,75.3v0.8H310v-0.8H337.4 M338.4,74.3H309v2.8h29.4V74.3L338.4,74.3z"/>
		</g>
		<g id="Rectangle_15">
			<rect x="309.5" y="69.9" class="st6" width="28.4" height="4.8"/>
			<path class="st3" d="M337.4,70.4v3.8H310v-3.8H337.4 M338.4,69.4H309v5.8h29.4V69.4L338.4,69.4z"/>
		</g>
		<g id="Rectangle_17">
			<rect x="313.7" y="71.3" class="st6" width="20" height="1.8"/>
			<path class="st3" d="M333.2,71.8v0.8h-19v-0.8H333.2 M334.2,70.8h-21v2.8h21V70.8L334.2,70.8z"/>
		</g>
		<path id="Rectangle_18_x5F_2" class="st7" d="M319.6,71.3h8.3l-0.8-1.5h-6.8L319.6,71.3z"/>
	</g>
	<g id="TV_1_">
		<g id="Rectangle_16_1_">
			<rect x="293.6" y="360.6" class="st6" width="28.4" height="1.8"/>
			<path class="st3" d="M321.5,361.1v0.8h-27.4v-0.8H321.5 M322.5,360.1h-29.4v2.8h29.4V360.1L322.5,360.1z"/>
		</g>
		<g id="Rectangle_15_1_">
			<rect x="293.6" y="355.7" class="st6" width="28.4" height="4.8"/>
			<path class="st3" d="M321.5,356.2v3.8h-27.4v-3.8H321.5 M322.5,355.2h-29.4v5.8h29.4V355.2L322.5,355.2z"/>
		</g>
		<g id="Rectangle_17_1_">
			<rect x="297.8" y="357.1" class="st6" width="20" height="1.8"/>
			<path class="st3" d="M317.3,357.6v0.8h-19v-0.8H317.3 M318.3,356.6h-21v2.8h21V356.6L318.3,356.6z"/>
		</g>
		<path id="Rectangle_18_x5F_2_1_" class="st7" d="M303.6,357.1h8.3l-0.8-1.5h-6.8L303.6,357.1z"/>
	</g>
	<g id="Kitchen">
		<g id="Rectangle_24">
			<rect x="264" y="337.7" class="st6" width="104.1" height="11.3"/>
			<path class="st3" d="M367.6,338.2v10.3H264.5v-10.3H367.6 M368.6,337.2H263.5v12.3h105.1V337.2L368.6,337.2z"/>
		</g>
		<g id="Rectangle_27_1_">
			<rect x="348.4" y="337.7" class="st6" width="11.3" height="11.3"/>
			<path class="st3" d="M359.2,338.2v10.3h-10.3v-10.3H359.2 M360.2,337.2h-12.3v12.3h12.3V337.2L360.2,337.2z"/>
		</g>
		<g id="Sink_3">
			<rect id="Rectangle_28_x5F_2" x="288.3" y="339.5" class="st7" width="13.6" height="7.7"/>
			<path id="Rectangle_29_x5F_2" class="st7" d="M294.1,343.4L294.1,343.4c0-1.4,1.1-2.5,2.5-2.5h0.6c1.4,0,2.5,1.1,2.5,2.5l0,0
				c0,1.4-1.1,2.5-2.5,2.5h-0.6C295.2,345.9,294.1,344.8,294.1,343.4z"/>
			<ellipse id="Ellipse_7_x5F_3" class="st7" cx="296.9" cy="344.2" rx="0.9" ry="0.9"/>
			<line class="st9" x1="289.5" y1="345.2" x2="292.7" y2="345.2"/>
			<line class="st9" x1="289.5" y1="343.4" x2="292.7" y2="343.4"/>
			<line class="st9" x1="289.5" y1="341.6" x2="292.7" y2="341.6"/>
		</g>
		<g id="Stove_1_">
			<g id="Rectangle_25_1_">
				<rect x="312.7" y="337.7" class="st6" width="11" height="11.3"/>
				<path class="st3" d="M323.2,338.2v10.3h-10v-10.3H323.2 M324.2,337.2h-12v12.3h12V337.2L324.2,337.2z"/>
			</g>
			<g id="Rectangle_28_x5F_3_2_">
				<rect x="312.7" y="347.2" class="st6" width="11" height="1.8"/>
				<path class="st3" d="M323.2,347.7v0.8h-10v-0.8H323.2 M324.2,346.7h-12v2.8h12V346.7L324.2,346.7z"/>
			</g>
			<g id="Ellipse_7_x5F_4_1_">
				<path class="st6" d="M315.8,345.5c-0.4,0-0.8-0.4-0.8-0.8c0-0.4,0.4-0.8,0.8-0.8s0.8,0.4,0.8,0.8
					C316.6,345.1,316.3,345.5,315.8,345.5z"/>
				<path class="st3" d="M315.8,344.4c0.2,0,0.3,0.1,0.3,0.3c0,0.2-0.1,0.3-0.3,0.3s-0.3-0.1-0.3-0.3
					C315.5,344.5,315.7,344.4,315.8,344.4 M315.8,343.4c-0.7,0-1.3,0.6-1.3,1.3c0,0.7,0.6,1.3,1.3,1.3c0.7,0,1.3-0.6,1.3-1.3
					C317.1,344,316.6,343.4,315.8,343.4L315.8,343.4z"/>
			</g>
			<g id="Ellipse_9_1_">
				<path class="st6" d="M315.8,341.9c-0.6,0-1.1-0.5-1.1-1.1s0.5-1.1,1.1-1.1c0.6,0,1.1,0.5,1.1,1.1S316.5,341.9,315.8,341.9z"/>
				<path class="st3" d="M315.8,340.2c0.3,0,0.6,0.3,0.6,0.6c0,0.3-0.3,0.6-0.6,0.6s-0.6-0.3-0.6-0.6
					C315.2,340.5,315.5,340.2,315.8,340.2 M315.8,339.2c-0.9,0-1.6,0.7-1.6,1.6c0,0.9,0.7,1.6,1.6,1.6s1.6-0.7,1.6-1.6
					C317.5,339.9,316.7,339.2,315.8,339.2L315.8,339.2z"/>
			</g>
			<g id="Ellipse_10_1_">
				<path class="st6" d="M320.4,345.8c-0.6,0-1.1-0.5-1.1-1.1s0.5-1.1,1.1-1.1c0.6,0,1.1,0.5,1.1,1.1S321,345.8,320.4,345.8z"/>
				<path class="st3" d="M320.4,344.1c0.3,0,0.6,0.3,0.6,0.6c0,0.3-0.3,0.6-0.6,0.6s-0.6-0.3-0.6-0.6
					C319.7,344.4,320,344.1,320.4,344.1 M320.4,343.1c-0.9,0-1.6,0.7-1.6,1.6c0,0.9,0.7,1.6,1.6,1.6c0.9,0,1.6-0.7,1.6-1.6
					C322,343.8,321.3,343.1,320.4,343.1L320.4,343.1z"/>
			</g>
			<g id="Ellipse_8_1_">
				<path class="st6" d="M320.4,341.3c-0.4,0-0.8-0.4-0.8-0.8s0.4-0.8,0.8-0.8s0.8,0.4,0.8,0.8S320.8,341.3,320.4,341.3z"/>
				<path class="st3" d="M320.4,340.2c0.2,0,0.3,0.1,0.3,0.3s-0.1,0.3-0.3,0.3s-0.3-0.1-0.3-0.3S320.2,340.2,320.4,340.2
					 M320.4,339.2c-0.7,0-1.3,0.6-1.3,1.3s0.6,1.3,1.3,1.3s1.3-0.6,1.3-1.3S321.1,339.2,320.4,339.2L320.4,339.2z"/>
			</g>
		</g>
		<path id="Vector_3_1_" class="st9" d="M351.7,343.4h4.7 M352.9,341.3l2.3,4.1 M352.9,345.4l2.3-4.1"/>
	</g>
	<g>
		<path class="st7" d="M280.2,246.7c0,0.5-0.4,0.9-0.9,0.9h-9.1v-20.8h10V246.7z"/>
		<path class="st7" d="M296.3,235.9c0,0.5-0.4,0.9-0.9,0.9l-14.2,0c-0.5,0-0.9-0.4-0.9-0.9v-9.1h16.1L296.3,235.9z"/>
		<path class="st7" d="M311.8,235.9c0,0.5-0.4,0.9-0.9,0.9h-13.7c-0.5,0-0.9-0.4-0.9-0.9l0-9.1h15.5V235.9z"/>
		<path class="st7" d="M311.8,237.6h3.4v-14.3l-48.7,0l0,27.9H281v-3.6h-10.8v-20.8h41.6V237.6z"/>
	</g>
	<circle class="st7" cx="441.6" cy="85" r="6.4"/>
	<g>
		<g>
			<rect x="373.8" y="277.5" class="st6" width="36.8" height="1.8"/>
			<path class="st3" d="M410.2,278v0.8h-35.8V278H410.2 M411.2,277h-37.8v2.8h37.8V277L411.2,277z"/>
		</g>
		<g>
			<rect x="373.8" y="267.3" class="st6" width="36.8" height="10.2"/>
			<path class="st3" d="M410.2,267.8v9.2h-35.8v-9.2H410.2 M411.2,266.8h-37.8V278h37.8V266.8L411.2,266.8z"/>
		</g>
		<path class="st7" d="M410.5,267.3l-36.7,10.2"/>
	</g>
	<g>
		<g>
			<rect x="373.8" y="212.9" class="st6" width="28.6" height="1.8"/>
			<path class="st3" d="M401.9,213.4v0.8h-27.6v-0.8H401.9 M402.9,212.4h-29.6v2.8h29.6V212.4L402.9,212.4z"/>
		</g>
		<g>
			<rect x="373.8" y="214.7" class="st6" width="28.6" height="10.2"/>
			<path class="st3" d="M401.9,215.2v9.2h-27.6v-9.2H401.9 M402.9,214.2h-29.6v11.2h29.6V214.2L402.9,214.2z"/>
		</g>
		<path class="st7" d="M373.8,224.9l28.6-10.2"/>
	</g>
	<g>
		<g>
			<rect x="264" y="204.5" class="st6" width="46.6" height="1.8"/>
			<path class="st3" d="M310.1,205l0,0.8h-45.6V205H310.1 M311.1,204h-47.6v2.8h47.6L311.1,204L311.1,204z"/>
		</g>
		<g>
			<rect x="264" y="206.4" class="st6" width="46.6" height="10.2"/>
			<path class="st3" d="M310.1,206.9v9.2h-45.6v-9.2L310.1,206.9 M311.1,205.9l-47.6,0V217h47.6V205.9L311.1,205.9z"/>
		</g>
		<path class="st7" d="M264.4,216.6l46.1-10.2"/>
	</g>
	<g>
		<g>
			<rect x="262.1" y="162.7" class="st6" width="31.1" height="1.8"/>
			<path class="st3" d="M262.6,163.2l30.1,0v0.8l-30.1,0L262.6,163.2 M261.6,162.2l0,2.8l32.1,0v-2.8L261.6,162.2L261.6,162.2z"/>
		</g>
		<g>
			<rect x="262.1" y="152.5" class="st6" width="31.1" height="10.2"/>
			<path class="st3" d="M262.6,153l30.1,0v9.2l-30.1,0L262.6,153 M261.6,152l0,11.2l32.1,0V152L261.6,152L261.6,152z"/>
		</g>
		<path class="st7" d="M293.1,152.5L262,162.7"/>
	</g>
	<g>
		<g>
			<rect x="262.1" y="137.5" class="st6" width="37.5" height="1.8"/>
			<path class="st3" d="M299.1,138v0.8l-36.5,0V138H299.1 M300.1,137h-38.5v2.8l38.5,0V137L300.1,137z"/>
		</g>
		<g>
			<rect x="262.1" y="139.4" class="st6" width="37.5" height="10.2"/>
			<path class="st3" d="M262.6,139.9l36.5,0v9.2l-36.5,0V139.9 M261.6,138.9V150l38.5,0v-11.2L261.6,138.9L261.6,138.9z"/>
		</g>
		<path class="st7" d="M262.3,149.6l37.3-10.2"/>
	</g>
	<g>
		<g>
			<rect x="426" y="74.9" class="st6" width="31" height="1.8"/>
			<path class="st3" d="M426.5,75.4l30,0l0,0.8l-30,0V75.4 M425.5,74.4v2.8l32,0l0-2.8L425.5,74.4L425.5,74.4z"/>
		</g>
		<g>
			<rect x="426" y="64.7" class="st6" width="31" height="10.2"/>
			<path class="st3" d="M426.5,65.2l30,0l0,9.2l-30,0L426.5,65.2 M425.5,64.2l0,11.2l32,0l0-11.2L425.5,64.2L425.5,64.2z"/>
		</g>
		<path class="st7" d="M457,64.7l-31,10.2"/>
	</g>
	<circle class="st7" cx="277.7" cy="173.2" r="6.4"/>
</g>
<g id="Numbers_1_">
	<g>
		<path class="st5" d="M354.6,96.5l-1.6,1.8h2.7v1h-4.2v-0.9l2.1-2.3l0.5-0.6c0.1-0.1,0.2-0.3,0.3-0.5s0.1-0.4,0.1-0.6
			c0-0.3-0.1-0.5-0.3-0.7c-0.2-0.2-0.5-0.3-0.8-0.3c-0.5,0-1,0.2-1.6,0.7l-0.6-0.7c0.7-0.6,1.4-1,2.2-1c0.6,0,1.1,0.2,1.5,0.6
			c0.4,0.4,0.6,0.9,0.6,1.4C355.7,95.1,355.3,95.8,354.6,96.5z"/>
		<path class="st5" d="M356.2,94.2l1.9-1.6h0.8v6.7h-1V94l-1.2,0.9L356.2,94.2z"/>
	</g>
	<g>
		<path class="st5" d="M390,121.5l-1.6,1.8h2.7v1h-4.2v-0.9l2.1-2.3l0.5-0.6c0.1-0.1,0.2-0.3,0.3-0.5c0.1-0.2,0.1-0.4,0.1-0.6
			c0-0.3-0.1-0.5-0.3-0.7c-0.2-0.2-0.5-0.3-0.8-0.3c-0.5,0-1,0.2-1.6,0.7l-0.6-0.7c0.7-0.6,1.4-1,2.2-1c0.6,0,1.1,0.2,1.5,0.6
			c0.4,0.4,0.6,0.9,0.6,1.4C391,120.1,390.7,120.8,390,121.5z"/>
		<path class="st5" d="M395.8,124.1c-0.4,0.2-0.8,0.3-1.2,0.3c-0.4,0-0.9-0.1-1.2-0.3c-0.6-0.4-1-1-1.3-1.9
			c-0.1-0.4-0.1-0.8-0.1-1.3c0-0.4,0-0.8,0.1-1.2c0.1-0.4,0.2-0.8,0.5-1.1c0.2-0.3,0.5-0.6,0.8-0.8c0.3-0.2,0.8-0.3,1.2-0.3
			c0.5,0,0.9,0.1,1.2,0.3c0.6,0.3,1.1,1,1.3,1.9c0.2,0.8,0.2,1.7,0,2.5C396.9,123.1,396.5,123.7,395.8,124.1z M394.6,123.4
			c0.5,0,0.9-0.2,1.2-0.7c0.3-0.5,0.4-1.1,0.4-1.8c0-0.7-0.1-1.3-0.4-1.8c-0.3-0.5-0.7-0.7-1.2-0.7c-0.5,0-0.9,0.2-1.2,0.7
			c-0.3,0.5-0.4,1-0.4,1.8c0,0.7,0.1,1.3,0.4,1.8C393.7,123.1,394.1,123.4,394.6,123.4z"/>
		<path class="st5" d="M398.6,124.4c-0.2,0-0.3-0.1-0.5-0.2s-0.2-0.3-0.2-0.5c0-0.2,0.1-0.3,0.2-0.4s0.3-0.2,0.5-0.2
			c0.2,0,0.3,0.1,0.4,0.2s0.2,0.3,0.2,0.4c0,0.2-0.1,0.3-0.2,0.5S398.7,124.4,398.6,124.4z"/>
		<path class="st5" d="M402.3,119.9c0.6,0,1.2,0.2,1.6,0.6s0.6,0.9,0.6,1.6c0,0.7-0.2,1.2-0.7,1.6c-0.4,0.4-1,0.6-1.7,0.6
			c-0.8,0-1.5-0.3-2.2-0.8l0.5-0.8c0.6,0.4,1.1,0.6,1.7,0.6c0.4,0,0.7-0.1,1-0.4c0.3-0.2,0.4-0.5,0.4-0.9c0-0.4-0.1-0.7-0.4-0.9
			c-0.2-0.2-0.6-0.4-1-0.4c-0.5,0-0.9,0.2-1.2,0.5l-0.6-0.4l0.4-3.3h3.4v0.9h-2.6l-0.2,1.6C401.5,120,401.9,119.9,402.3,119.9z"/>
	</g>
	<g>
		<path class="st5" d="M285.5,188.1l1.9-1.6h0.8v6.7h-1v-5.3l-1.2,0.9L285.5,188.1z"/>
		<path class="st5" d="M289.2,187.5v-0.9h4.2v0.7l-2.5,6h-1.1l2.5-5.7H289.2z"/>
	</g>
	<g>
		<path class="st5" d="M388.6,194.2c0.6,0,1.2,0.2,1.6,0.6c0.4,0.4,0.6,0.9,0.6,1.6c0,0.7-0.2,1.2-0.7,1.6c-0.4,0.4-1,0.6-1.7,0.6
			c-0.8,0-1.5-0.3-2.2-0.8l0.5-0.8c0.6,0.4,1.1,0.6,1.7,0.6c0.4,0,0.7-0.1,1-0.4c0.3-0.2,0.4-0.5,0.4-0.9c0-0.4-0.1-0.7-0.4-0.9
			c-0.2-0.2-0.6-0.4-1-0.4c-0.5,0-0.9,0.2-1.2,0.5l-0.6-0.4l0.4-3.3h3.4v0.9h-2.6l-0.2,1.6C387.9,194.2,388.2,194.2,388.6,194.2z"/>
		<path class="st5" d="M392.2,198.6c-0.2,0-0.3-0.1-0.5-0.2s-0.2-0.3-0.2-0.5c0-0.2,0.1-0.3,0.2-0.4s0.3-0.2,0.5-0.2
			c0.2,0,0.3,0.1,0.4,0.2s0.2,0.3,0.2,0.4c0,0.2-0.1,0.3-0.2,0.5S392.4,198.6,392.2,198.6z"/>
		<path class="st5" d="M396,191.7c0.8,0,1.4,0.3,1.8,0.9c0.4,0.6,0.6,1.4,0.6,2.3c0,0.5-0.1,1-0.2,1.4c-0.1,0.4-0.3,0.8-0.5,1.2
			c-0.2,0.3-0.5,0.6-0.9,0.8c-0.4,0.2-0.8,0.3-1.2,0.3c-0.7,0-1.3-0.2-1.8-0.6l0.4-0.8c0.4,0.3,0.9,0.5,1.3,0.5c0.6,0,1-0.2,1.3-0.7
			c0.3-0.5,0.5-1,0.5-1.7c-0.2,0.3-0.4,0.5-0.7,0.6s-0.6,0.2-1,0.2c-0.6,0-1.1-0.2-1.5-0.6c-0.4-0.4-0.6-0.9-0.6-1.5
			c0-0.6,0.2-1.2,0.6-1.6C394.7,191.9,395.3,191.7,396,191.7z M397.2,193.9c0-0.4-0.1-0.7-0.4-0.9c-0.2-0.3-0.5-0.4-0.9-0.4
			c-0.4,0-0.7,0.1-0.9,0.4c-0.2,0.3-0.4,0.6-0.4,0.9c0,0.4,0.1,0.7,0.4,0.9c0.2,0.2,0.5,0.4,0.9,0.4c0.4,0,0.7-0.1,0.9-0.4
			C397.1,194.6,397.2,194.3,397.2,193.9z"/>
	</g>
	<g>
		<path class="st5" d="M387.8,247.3c-0.7,0-1.4-0.2-2.1-0.7l0.5-0.8c0.6,0.4,1.1,0.5,1.6,0.5c0.4,0,0.7-0.1,0.9-0.3
			c0.2-0.2,0.3-0.4,0.3-0.8c0-0.3-0.1-0.6-0.4-0.8c-0.2-0.2-0.5-0.3-0.9-0.3h-0.8v-0.9h0.8c0.3,0,0.6-0.1,0.8-0.3
			c0.2-0.2,0.3-0.4,0.3-0.7c0-0.3-0.1-0.5-0.3-0.7s-0.5-0.3-0.8-0.3c-0.4,0-0.9,0.2-1.4,0.6l-0.5-0.7c0.2-0.2,0.5-0.4,0.9-0.6
			c0.4-0.1,0.7-0.2,1.1-0.2c0.6,0,1.1,0.2,1.5,0.5s0.6,0.8,0.6,1.2c0,0.4-0.1,0.7-0.3,0.9c-0.2,0.3-0.5,0.5-0.8,0.6v0
			c0.4,0.1,0.7,0.3,1,0.6c0.2,0.3,0.3,0.6,0.3,1.1c0,0.6-0.2,1-0.6,1.4C389,247.1,388.5,247.3,387.8,247.3z"/>
		<path class="st5" d="M391.6,247.3c-0.2,0-0.3-0.1-0.5-0.2c-0.1-0.1-0.2-0.3-0.2-0.5c0-0.2,0.1-0.3,0.2-0.4
			c0.1-0.1,0.3-0.2,0.5-0.2c0.2,0,0.3,0.1,0.4,0.2c0.1,0.1,0.2,0.3,0.2,0.4c0,0.2-0.1,0.3-0.2,0.5
			C392,247.2,391.8,247.3,391.6,247.3z"/>
		<path class="st5" d="M395.4,240.4c0.8,0,1.4,0.3,1.8,0.9c0.4,0.6,0.6,1.4,0.6,2.3c0,0.5-0.1,1-0.2,1.4c-0.1,0.4-0.3,0.8-0.5,1.2
			c-0.2,0.3-0.5,0.6-0.9,0.8c-0.4,0.2-0.8,0.3-1.2,0.3c-0.7,0-1.3-0.2-1.8-0.6l0.4-0.8c0.4,0.3,0.9,0.5,1.3,0.5c0.6,0,1-0.2,1.3-0.7
			c0.3-0.5,0.5-1,0.5-1.7c-0.2,0.3-0.4,0.5-0.7,0.6s-0.6,0.2-1,0.2c-0.6,0-1.1-0.2-1.5-0.6c-0.4-0.4-0.6-0.9-0.6-1.5
			c0-0.6,0.2-1.2,0.6-1.6C394.1,240.6,394.7,240.4,395.4,240.4z M396.6,242.6c0-0.4-0.1-0.7-0.4-0.9c-0.2-0.3-0.5-0.4-0.9-0.4
			c-0.4,0-0.7,0.1-0.9,0.4c-0.2,0.3-0.4,0.6-0.4,0.9c0,0.4,0.1,0.7,0.4,0.9c0.2,0.2,0.5,0.4,0.9,0.4s0.7-0.1,0.9-0.4
			C396.5,243.3,396.6,243,396.6,242.6z"/>
	</g>
	<g>
		<path class="st5" d="M332.4,288.7c-0.7,0-1.4-0.2-2.1-0.7l0.5-0.8c0.6,0.4,1.1,0.5,1.6,0.5c0.4,0,0.7-0.1,0.9-0.3
			c0.2-0.2,0.3-0.4,0.3-0.8c0-0.3-0.1-0.6-0.4-0.8c-0.2-0.2-0.5-0.3-0.9-0.3h-0.8v-0.9h0.8c0.3,0,0.6-0.1,0.8-0.3
			c0.2-0.2,0.3-0.4,0.3-0.7c0-0.3-0.1-0.5-0.3-0.7s-0.5-0.3-0.8-0.3c-0.4,0-0.9,0.2-1.4,0.6l-0.5-0.7c0.2-0.2,0.6-0.4,0.9-0.6
			c0.4-0.1,0.7-0.2,1.1-0.2c0.6,0,1.1,0.2,1.5,0.5c0.4,0.3,0.6,0.8,0.6,1.2c0,0.4-0.1,0.7-0.3,0.9c-0.2,0.3-0.5,0.5-0.8,0.6v0
			c0.4,0.1,0.7,0.3,1,0.6c0.2,0.3,0.3,0.6,0.3,1.1c0,0.6-0.2,1-0.6,1.4C333.6,288.5,333.1,288.7,332.4,288.7z"/>
		<path class="st5" d="M337.4,288.7c-0.7,0-1.4-0.2-2.1-0.7l0.5-0.8c0.6,0.4,1.1,0.5,1.6,0.5c0.4,0,0.7-0.1,0.9-0.3
			c0.2-0.2,0.3-0.4,0.3-0.8c0-0.3-0.1-0.6-0.4-0.8c-0.2-0.2-0.5-0.3-0.9-0.3h-0.8v-0.9h0.8c0.3,0,0.6-0.1,0.8-0.3
			c0.2-0.2,0.3-0.4,0.3-0.7c0-0.3-0.1-0.5-0.3-0.7s-0.5-0.3-0.8-0.3c-0.4,0-0.9,0.2-1.4,0.6l-0.5-0.7c0.2-0.2,0.6-0.4,0.9-0.6
			c0.4-0.1,0.7-0.2,1.1-0.2c0.6,0,1.1,0.2,1.5,0.5c0.4,0.3,0.6,0.8,0.6,1.2c0,0.4-0.1,0.7-0.3,0.9c-0.2,0.3-0.5,0.5-0.8,0.6v0
			c0.4,0.1,0.7,0.3,1,0.6c0.2,0.3,0.3,0.6,0.3,1.1c0,0.6-0.2,1-0.6,1.4C338.6,288.5,338.1,288.7,337.4,288.7z"/>
		<path class="st5" d="M341.2,288.8c-0.2,0-0.3-0.1-0.5-0.2c-0.1-0.1-0.2-0.3-0.2-0.5c0-0.2,0.1-0.3,0.2-0.4
			c0.1-0.1,0.3-0.2,0.5-0.2c0.2,0,0.3,0.1,0.4,0.2c0.1,0.1,0.2,0.3,0.2,0.4c0,0.2-0.1,0.3-0.2,0.5
			C341.6,288.7,341.4,288.8,341.2,288.8z"/>
		<path class="st5" d="M346.6,286.1h0.7v0.9h-0.7v1.6h-1V287h-3l-0.2-0.6l3.6-4.4h0.7V286.1z M345.7,283.7l-2,2.4h2V283.7z"/>
	</g>
	<g>
		<path class="st5" d="M391.5,313.1c0.6,0,1.1,0.2,1.5,0.6c0.4,0.4,0.6,0.9,0.6,1.5c0,0.6-0.2,1.2-0.7,1.6c-0.4,0.4-1,0.6-1.7,0.6
			c-0.8,0-1.4-0.3-1.8-0.9c-0.4-0.6-0.6-1.4-0.6-2.3c0-0.6,0.1-1.2,0.3-1.8s0.5-1,0.9-1.3c0.4-0.4,1-0.5,1.6-0.5
			c0.7,0,1.3,0.2,1.7,0.6l-0.4,0.8c-0.4-0.3-0.8-0.4-1.2-0.4c-0.4,0-0.7,0.1-1,0.4c-0.5,0.5-0.8,1.2-0.8,2.1
			c0.2-0.3,0.4-0.5,0.7-0.7S391.1,313.1,391.5,313.1z M391.3,316.5c0.4,0,0.7-0.1,0.9-0.4c0.2-0.3,0.4-0.6,0.4-0.9
			c0-0.4-0.1-0.7-0.4-0.9c-0.2-0.2-0.5-0.4-0.9-0.4c-0.4,0-0.7,0.1-0.9,0.4c-0.2,0.2-0.4,0.6-0.4,0.9c0,0.4,0.1,0.7,0.4,0.9
			C390.7,316.4,391,316.5,391.3,316.5z"/>
		<path class="st5" d="M395.1,317.5c-0.2,0-0.3-0.1-0.5-0.2c-0.1-0.1-0.2-0.3-0.2-0.5c0-0.2,0.1-0.3,0.2-0.4
			c0.1-0.1,0.3-0.2,0.5-0.2c0.2,0,0.3,0.1,0.4,0.2c0.1,0.1,0.2,0.3,0.2,0.4c0,0.2-0.1,0.3-0.2,0.5
			C395.4,317.5,395.2,317.5,395.1,317.5z"/>
		<path class="st5" d="M399.1,313.1c0.6,0,1.1,0.2,1.5,0.6c0.4,0.4,0.6,0.9,0.6,1.5c0,0.6-0.2,1.2-0.7,1.6c-0.4,0.4-1,0.6-1.7,0.6
			c-0.8,0-1.4-0.3-1.8-0.9c-0.4-0.6-0.6-1.4-0.6-2.3c0-0.6,0.1-1.2,0.3-1.8c0.2-0.5,0.5-1,0.9-1.3c0.4-0.4,1-0.5,1.6-0.5
			c0.7,0,1.3,0.2,1.7,0.6l-0.4,0.8c-0.4-0.3-0.8-0.4-1.2-0.4c-0.4,0-0.7,0.1-1,0.4c-0.5,0.5-0.8,1.2-0.8,2.1
			c0.1-0.3,0.4-0.5,0.7-0.7S398.7,313.1,399.1,313.1z M398.9,316.5c0.4,0,0.7-0.1,0.9-0.4c0.2-0.3,0.4-0.6,0.4-0.9
			c0-0.4-0.1-0.7-0.4-0.9c-0.2-0.2-0.5-0.4-0.9-0.4c-0.4,0-0.7,0.1-0.9,0.4c-0.2,0.2-0.4,0.6-0.4,0.9c0,0.4,0.1,0.7,0.4,0.9
			C398.2,316.4,398.5,316.5,398.9,316.5z"/>
	</g>
	<g>
		<path class="st5" d="M383.7,392.6c-0.7,0-1.4-0.2-2.1-0.7l0.5-0.8c0.6,0.4,1.1,0.5,1.6,0.5c0.4,0,0.7-0.1,0.9-0.3
			c0.2-0.2,0.3-0.4,0.3-0.8c0-0.3-0.1-0.6-0.4-0.8c-0.2-0.2-0.5-0.3-0.9-0.3h-0.8v-0.9h0.8c0.3,0,0.6-0.1,0.8-0.3
			c0.2-0.2,0.3-0.4,0.3-0.7c0-0.3-0.1-0.5-0.3-0.7s-0.5-0.3-0.8-0.3c-0.4,0-0.9,0.2-1.4,0.6l-0.5-0.7c0.2-0.2,0.6-0.4,0.9-0.6
			c0.4-0.1,0.7-0.2,1.1-0.2c0.6,0,1.1,0.2,1.5,0.5c0.4,0.3,0.6,0.8,0.6,1.2c0,0.4-0.1,0.7-0.3,0.9c-0.2,0.3-0.5,0.5-0.8,0.6v0
			c0.4,0.1,0.7,0.3,1,0.6c0.2,0.3,0.3,0.6,0.3,1.1c0,0.6-0.2,1-0.6,1.4C385,392.4,384.4,392.6,383.7,392.6z"/>
		<path class="st5" d="M387.5,392.6c-0.2,0-0.3-0.1-0.5-0.2s-0.2-0.3-0.2-0.5c0-0.2,0.1-0.3,0.2-0.4s0.3-0.2,0.5-0.2
			c0.2,0,0.3,0.1,0.4,0.2s0.2,0.3,0.2,0.4c0,0.2-0.1,0.3-0.2,0.5S387.7,392.6,387.5,392.6z"/>
		<path class="st5" d="M391.3,385.7c0.8,0,1.4,0.3,1.8,0.9c0.4,0.6,0.6,1.4,0.6,2.3c0,0.5-0.1,1-0.2,1.4c-0.1,0.4-0.3,0.8-0.5,1.2
			c-0.2,0.3-0.5,0.6-0.9,0.8c-0.4,0.2-0.8,0.3-1.2,0.3c-0.7,0-1.3-0.2-1.8-0.6l0.4-0.8c0.4,0.3,0.9,0.5,1.3,0.5c0.6,0,1-0.2,1.3-0.7
			c0.3-0.5,0.5-1,0.5-1.7c-0.2,0.3-0.4,0.5-0.7,0.6s-0.6,0.2-1,0.2c-0.6,0-1.1-0.2-1.5-0.6c-0.4-0.4-0.6-0.9-0.6-1.5
			c0-0.6,0.2-1.2,0.6-1.6C390.1,385.9,390.6,385.7,391.3,385.7z M392.5,387.9c0-0.4-0.1-0.7-0.4-0.9c-0.2-0.3-0.5-0.4-0.9-0.4
			c-0.4,0-0.7,0.1-0.9,0.4c-0.2,0.3-0.4,0.6-0.4,0.9c0,0.4,0.1,0.7,0.4,0.9c0.2,0.2,0.5,0.4,0.9,0.4c0.4,0,0.7-0.1,0.9-0.4
			C392.4,388.6,392.5,388.3,392.5,387.9z"/>
	</g>
	<g>
		<path class="st5" d="M341.2,383.8l-1.6,1.8h2.7v1h-4.2v-0.9l2.1-2.3l0.5-0.6c0.1-0.1,0.2-0.3,0.3-0.5s0.1-0.4,0.1-0.6
			c0-0.3-0.1-0.5-0.3-0.7c-0.2-0.2-0.5-0.3-0.8-0.3c-0.5,0-1,0.2-1.6,0.7l-0.6-0.7c0.7-0.6,1.4-1,2.2-1c0.6,0,1.1,0.2,1.5,0.6
			c0.4,0.4,0.6,0.9,0.6,1.4C342.2,382.4,341.8,383,341.2,383.8z"/>
		<path class="st5" d="M345.3,382.2c0.6,0,1.2,0.2,1.6,0.6c0.4,0.4,0.6,0.9,0.6,1.6c0,0.7-0.2,1.2-0.7,1.6c-0.4,0.4-1,0.6-1.7,0.6
			c-0.8,0-1.5-0.3-2.2-0.8l0.5-0.8c0.6,0.4,1.1,0.6,1.7,0.6c0.4,0,0.7-0.1,1-0.4c0.3-0.2,0.4-0.5,0.4-0.9c0-0.4-0.1-0.7-0.4-0.9
			c-0.2-0.2-0.6-0.4-1-0.4c-0.5,0-0.9,0.2-1.2,0.5l-0.6-0.4l0.4-3.3h3.4v0.9h-2.6l-0.2,1.6C344.6,382.3,345,382.2,345.3,382.2z"/>
		<path class="st5" d="M349,386.7c-0.2,0-0.3-0.1-0.5-0.2c-0.1-0.1-0.2-0.3-0.2-0.5c0-0.2,0.1-0.3,0.2-0.4c0.1-0.1,0.3-0.2,0.5-0.2
			c0.2,0,0.3,0.1,0.4,0.2c0.1,0.1,0.2,0.3,0.2,0.4c0,0.2-0.1,0.3-0.2,0.5C349.3,386.6,349.2,386.7,349,386.7z"/>
		<path class="st5" d="M352.5,386.6c-0.7,0-1.4-0.2-2.1-0.7l0.5-0.8c0.6,0.4,1.1,0.5,1.6,0.5c0.4,0,0.7-0.1,0.9-0.3
			c0.2-0.2,0.3-0.4,0.3-0.8c0-0.3-0.1-0.6-0.4-0.8c-0.2-0.2-0.5-0.3-0.9-0.3h-0.8v-0.9h0.8c0.3,0,0.6-0.1,0.8-0.3
			c0.2-0.2,0.3-0.4,0.3-0.7c0-0.3-0.1-0.5-0.3-0.7s-0.5-0.3-0.8-0.3c-0.4,0-0.9,0.2-1.4,0.6l-0.5-0.7c0.2-0.2,0.6-0.4,0.9-0.6
			c0.4-0.1,0.7-0.2,1.1-0.2c0.6,0,1.1,0.2,1.5,0.5c0.4,0.3,0.6,0.8,0.6,1.2c0,0.4-0.1,0.7-0.3,0.9c-0.2,0.3-0.5,0.5-0.8,0.6v0
			c0.4,0.1,0.7,0.3,1,0.6c0.2,0.3,0.3,0.6,0.3,1.1c0,0.6-0.2,1-0.6,1.4C353.7,386.4,353.2,386.6,352.5,386.6z"/>
	</g>
	<g>
		<path class="st5" d="M383.8,285.9l-1.6,1.8h2.7v1h-4.2v-0.9l2.1-2.3l0.5-0.6c0.1-0.1,0.2-0.3,0.3-0.5c0.1-0.2,0.1-0.4,0.1-0.6
			c0-0.3-0.1-0.5-0.3-0.7c-0.2-0.2-0.5-0.3-0.8-0.3c-0.5,0-1,0.2-1.6,0.7l-0.6-0.7c0.7-0.6,1.4-1,2.2-1c0.6,0,1.1,0.2,1.5,0.6
			c0.4,0.4,0.6,0.9,0.6,1.4C384.8,284.5,384.5,285.1,383.8,285.9z"/>
		<path class="st5" d="M386.4,288.8c-0.2,0-0.3-0.1-0.5-0.2s-0.2-0.3-0.2-0.5c0-0.2,0.1-0.3,0.2-0.4s0.3-0.2,0.5-0.2
			c0.2,0,0.3,0.1,0.4,0.2s0.2,0.3,0.2,0.4c0,0.2-0.1,0.3-0.2,0.5S386.6,288.8,386.4,288.8z"/>
		<path class="st5" d="M390.2,281.9c0.8,0,1.4,0.3,1.8,0.9c0.4,0.6,0.6,1.4,0.6,2.3c0,0.5-0.1,1-0.2,1.4c-0.1,0.4-0.3,0.8-0.5,1.2
			c-0.2,0.3-0.5,0.6-0.9,0.8c-0.4,0.2-0.8,0.3-1.2,0.3c-0.7,0-1.3-0.2-1.8-0.6l0.4-0.8c0.4,0.3,0.9,0.5,1.3,0.5c0.6,0,1-0.2,1.3-0.7
			c0.3-0.5,0.5-1,0.5-1.7c-0.2,0.3-0.4,0.5-0.7,0.6s-0.6,0.2-1,0.2c-0.6,0-1.1-0.2-1.5-0.6c-0.4-0.4-0.6-0.9-0.6-1.5
			c0-0.6,0.2-1.2,0.6-1.6C388.9,282.1,389.5,281.9,390.2,281.9z M391.4,284.1c0-0.4-0.1-0.7-0.4-0.9c-0.2-0.3-0.5-0.4-0.9-0.4
			c-0.4,0-0.7,0.1-0.9,0.4c-0.2,0.3-0.4,0.6-0.4,0.9c0,0.4,0.1,0.7,0.4,0.9c0.2,0.2,0.5,0.4,0.9,0.4c0.4,0,0.7-0.1,0.9-0.4
			C391.3,284.8,391.4,284.4,391.4,284.1z"/>
	</g>
	<g>
		<path class="st5" d="M430.2,192.7c0.6,0,1.2,0.2,1.6,0.6s0.6,0.9,0.6,1.6c0,0.7-0.2,1.2-0.7,1.6c-0.4,0.4-1,0.6-1.7,0.6
			c-0.8,0-1.5-0.3-2.2-0.8l0.5-0.8c0.6,0.4,1.1,0.6,1.7,0.6c0.4,0,0.7-0.1,1-0.4c0.3-0.2,0.4-0.5,0.4-0.9c0-0.4-0.1-0.7-0.4-0.9
			c-0.2-0.2-0.6-0.4-1-0.4c-0.5,0-0.9,0.2-1.2,0.5l-0.6-0.4l0.4-3.3h3.4v0.9h-2.6l-0.2,1.6C429.5,192.7,429.9,192.7,430.2,192.7z"/>
		<path class="st5" d="M433.9,197.1c-0.2,0-0.3-0.1-0.5-0.2c-0.1-0.1-0.2-0.3-0.2-0.5c0-0.2,0.1-0.3,0.2-0.4
			c0.1-0.1,0.3-0.2,0.5-0.2c0.2,0,0.3,0.1,0.4,0.2c0.1,0.1,0.2,0.3,0.2,0.4c0,0.2-0.1,0.3-0.2,0.5
			C434.2,197.1,434.1,197.1,433.9,197.1z"/>
		<path class="st5" d="M437.6,190.2c0.8,0,1.4,0.3,1.8,0.9c0.4,0.6,0.6,1.4,0.6,2.3c0,0.5-0.1,1-0.2,1.4c-0.1,0.4-0.3,0.8-0.5,1.2
			c-0.2,0.3-0.5,0.6-0.9,0.8c-0.4,0.2-0.8,0.3-1.2,0.3c-0.7,0-1.3-0.2-1.8-0.6l0.4-0.8c0.4,0.3,0.9,0.5,1.3,0.5c0.6,0,1-0.2,1.3-0.7
			c0.3-0.5,0.5-1,0.5-1.7c-0.2,0.3-0.4,0.5-0.7,0.6s-0.6,0.2-1,0.2c-0.6,0-1.1-0.2-1.5-0.6c-0.4-0.4-0.6-0.9-0.6-1.5
			c0-0.6,0.2-1.2,0.6-1.6C436.4,190.4,437,190.2,437.6,190.2z M438.9,192.4c0-0.4-0.1-0.7-0.4-0.9c-0.2-0.3-0.5-0.4-0.9-0.4
			c-0.4,0-0.7,0.1-0.9,0.4c-0.2,0.3-0.4,0.6-0.4,0.9c0,0.4,0.1,0.7,0.4,0.9c0.2,0.2,0.5,0.4,0.9,0.4s0.7-0.1,0.9-0.4
			C438.8,193.1,438.9,192.8,438.9,192.4z"/>
	</g>
</g>
<g id="street_anchors" class="st13">
	<rect id="street_x5F_anchor_x5F_03" x="497.8" y="235" class="st14" width="10" height="10"/>
	<rect id="street_x5F_anchor_x5F_02" x="212.2" y="235" class="st14" width="10" height="10"/>
	<rect id="street_x5F_anchor_x5F_01_1_" x="355" y="20" class="st14" width="10" height="10"/>
</g>
</svg>
