<?xml version="1.0" encoding="utf-8"?>
<!-- Generator: Adobe Illustrator 24.2.0, SVG Export Plug-In . SVG Version: 6.00 Build 0)  -->
<!DOCTYPE svg PUBLIC "-//W3C//DTD SVG 1.1//EN" "http://www.w3.org/Graphics/SVG/1.1/DTD/svg11.dtd" [
	<!ENTITY ns_extend "http://ns.adobe.com/Extensibility/1.0/">
	<!ENTITY ns_ai "http://ns.adobe.com/AdobeIllustrator/10.0/">
	<!ENTITY ns_graphs "http://ns.adobe.com/Graphs/1.0/">
	<!ENTITY ns_vars "http://ns.adobe.com/Variables/1.0/">
	<!ENTITY ns_imrep "http://ns.adobe.com/ImageReplacement/1.0/">
	<!ENTITY ns_sfw "http://ns.adobe.com/SaveForWeb/1.0/">
	<!ENTITY ns_custom "http://ns.adobe.com/GenericCustomNamespace/1.0/">
	<!ENTITY ns_adobe_xpath "http://ns.adobe.com/XPath/1.0/">
]>
<svg version="1.1" id="_x31__x5F_2" xmlns:x="&ns_extend;" xmlns:i="&ns_ai;" xmlns:graph="&ns_graphs;"
	 xmlns="http://www.w3.org/2000/svg" xmlns:xlink="http://www.w3.org/1999/xlink" x="0px" y="0px" viewBox="0 0 720 480"
	 style="enable-background:new 0 0 720 480;" xml:space="preserve">
<style type="text/css">
	.st0{fill:#DBD4CA;}
	.st1{clip-path:url(#SVGID_2_);}
	.st2{fill:none;stroke:#C49F8A;stroke-miterlimit:10;}
	.st3{opacity:0.3;clip-path:url(#SVGID_2_);}
	.st4{opacity:0.7;fill:#C49F8A;}
	.st5{fill:none;stroke:#565440;}
	.st6{fill:#565440;}
	.st7{fill:#E9E4DC;}
	.st8{fill:#C49F8A;}
	.st9{fill:#E9E4DC;stroke:#C49F8A;stroke-linejoin:round;}
	.st10{fill:#E9E4DC;stroke:#C49F8A;}
	.st11{fill:none;stroke:#C49F8A;}
	.st12{fill:#E9E4DC;stroke:#C49F8A;stroke-miterlimit:3.9998;}
	.st13{opacity:0;}
	.st14{fill:none;}
</style>
<metadata>
	<sfw  xmlns="&ns_sfw;">
		<slices></slices>
		<sliceSourceBounds  bottomLeftOrigin="true" height="667.6734619" width="750.2385864" x="102.5" y="-3.1128035">
			</sliceSourceBounds>
	</sfw>
</metadata>
<rect id="Floor" x="152.5" y="60" class="st0" width="425" height="360"/>
<g id="Wet_Floor_1_">
	<defs>
		<rect id="SVGID_1_" x="436.3006287" y="69.7116547" width="129.5337372" height="135.2484589"/>
	</defs>
	<clipPath id="SVGID_2_">
		<use xlink:href="#SVGID_1_"  style="overflow:visible;"/>
	</clipPath>
	<g class="st1">
		<g>
			<line class="st2" x1="195.8400116" y1="159.6974487" x2="529.3232422" y2="-173.7857513"/>
			<line class="st2" x1="185.4186707" y1="149.2761078" x2="518.9018555" y2="-184.2070923"/>
			<line class="st2" x1="206.2613678" y1="170.1188049" x2="539.7445679" y2="-163.3643951"/>
			<line class="st2" x1="216.6827087" y1="180.5401459" x2="550.1658936" y2="-152.9430542"/>
			<line class="st2" x1="227.1040649" y1="190.9615021" x2="560.5872803" y2="-142.521698"/>
			<line class="st2" x1="237.5254059" y1="201.382843" x2="571.008606" y2="-132.1003571"/>
			<line class="st2" x1="247.9467621" y1="211.8041992" x2="581.4299316" y2="-121.6790085"/>
			<line class="st2" x1="258.368103" y1="222.2255402" x2="591.8513184" y2="-111.2576599"/>
			<line class="st2" x1="268.7894592" y1="232.6468964" x2="602.272644" y2="-100.8363113"/>
			<line class="st2" x1="279.2108154" y1="243.0682373" x2="612.6940308" y2="-90.4149628"/>
			<line class="st2" x1="268.7894592" y1="232.6468964" x2="602.272644" y2="-100.8363113"/>
			<line class="st2" x1="289.6321411" y1="253.4895935" x2="623.1153564" y2="-79.9936142"/>
			<line class="st2" x1="300.0534973" y1="263.9109192" x2="633.5366821" y2="-69.5722656"/>
			<line class="st2" x1="310.4748535" y1="274.3322754" x2="643.9580688" y2="-59.1509132"/>
			<line class="st2" x1="320.8962097" y1="284.7536316" x2="654.3793945" y2="-48.7295685"/>
			<line class="st2" x1="331.3175354" y1="295.1749878" x2="664.8007202" y2="-38.3082199"/>
			<line class="st2" x1="341.7388916" y1="305.5963135" x2="675.2221069" y2="-27.8868694"/>
			<line class="st2" x1="352.1602478" y1="316.0176697" x2="685.6434326" y2="-17.4655209"/>
			<line class="st2" x1="362.581604" y1="326.4390259" x2="696.0647583" y2="-7.0441732"/>
			<line class="st2" x1="352.1602478" y1="316.0176697" x2="685.6434326" y2="-17.4655209"/>
			<line class="st2" x1="373.0029297" y1="336.8603821" x2="706.486145" y2="3.3771751"/>
			<line class="st2" x1="383.4242859" y1="347.2817078" x2="716.9074707" y2="13.7985239"/>
			<line class="st2" x1="393.8456421" y1="357.703064" x2="727.3288574" y2="24.2198715"/>
			<line class="st2" x1="404.2669983" y1="368.1244202" x2="737.7501831" y2="34.6412201"/>
			<line class="st2" x1="414.688324" y1="378.5457764" x2="748.1715088" y2="45.0625687"/>
			<line class="st2" x1="425.1096802" y1="388.9671021" x2="758.5928955" y2="55.4839172"/>
			<line class="st2" x1="435.5310364" y1="399.3884583" x2="769.0142212" y2="65.9052658"/>
			<line class="st2" x1="445.9523621" y1="409.8098145" x2="779.4355469" y2="76.3266144"/>
			<line class="st2" x1="435.5310364" y1="399.3884583" x2="769.0142212" y2="65.9052658"/>
			<line class="st2" x1="456.3737183" y1="420.2311707" x2="789.8569336" y2="86.747963"/>
			<line class="st2" x1="466.7950745" y1="430.6524963" x2="800.2782593" y2="97.1693115"/>
			<line class="st2" x1="477.2164307" y1="441.0738525" x2="810.699646" y2="107.5906601"/>
			<line class="st2" x1="487.6377563" y1="451.4952087" x2="821.1209717" y2="118.0120087"/>
			<line class="st2" x1="498.0591125" y1="461.9165649" x2="831.5422974" y2="128.4333496"/>
			<line class="st2" x1="508.4804688" y1="472.3378906" x2="841.9636841" y2="138.8547058"/>
			<line class="st2" x1="518.9017944" y1="482.7592468" x2="852.3850098" y2="149.2760468"/>
		</g>
		<g>
			<line class="st2" x1="529.3231201" y1="472.337738" x2="195.8400574" y2="138.8546906"/>
			<line class="st2" x1="518.9017334" y1="482.7590942" x2="185.4187164" y2="149.2760468"/>
			<line class="st2" x1="539.7444458" y1="461.9164124" x2="206.2614136" y2="128.4333496"/>
			<line class="st2" x1="550.1658325" y1="451.4950562" x2="216.6827545" y2="118.012001"/>
			<line class="st2" x1="560.5871582" y1="441.0737" x2="227.1041107" y2="107.5906525"/>
			<line class="st2" x1="571.0084839" y1="430.6523438" x2="237.5254517" y2="97.1693039"/>
			<line class="st2" x1="581.4298706" y1="420.2310181" x2="247.9468079" y2="86.7479553"/>
			<line class="st2" x1="591.8511963" y1="409.8096619" x2="258.3681641" y2="76.3266068"/>
			<line class="st2" x1="602.272522" y1="399.3883057" x2="268.7894897" y2="65.9052582"/>
			<line class="st2" x1="612.6939087" y1="388.9669495" x2="279.2108459" y2="55.4839096"/>
			<line class="st2" x1="602.272522" y1="399.3883057" x2="268.7894897" y2="65.9052582"/>
			<line class="st2" x1="623.1152344" y1="378.5456238" x2="289.6322021" y2="45.062561"/>
			<line class="st2" x1="633.5366211" y1="368.1242676" x2="300.0535278" y2="34.6412125"/>
			<line class="st2" x1="643.9579468" y1="357.7029114" x2="310.474884" y2="24.2198639"/>
			<line class="st2" x1="654.3792725" y1="347.2815552" x2="320.8962402" y2="13.7985163"/>
			<line class="st2" x1="664.8006592" y1="336.8602295" x2="331.3175964" y2="3.3771679"/>
			<line class="st2" x1="675.2219849" y1="326.4388733" x2="341.7389221" y2="-7.0441804"/>
			<line class="st2" x1="685.6433105" y1="316.0175171" x2="352.1602783" y2="-17.4655285"/>
			<line class="st2" x1="696.0646973" y1="305.5961609" x2="362.5816345" y2="-27.8868771"/>
			<line class="st2" x1="685.6433105" y1="316.0175171" x2="352.1602783" y2="-17.4655285"/>
			<line class="st2" x1="706.4860229" y1="295.1748352" x2="373.0029907" y2="-38.3082275"/>
			<line class="st2" x1="716.9074097" y1="284.753479" x2="383.4243164" y2="-48.7295723"/>
			<line class="st2" x1="727.3287354" y1="274.3321228" x2="393.8456726" y2="-59.1509209"/>
			<line class="st2" x1="737.750061" y1="263.9107666" x2="404.2670288" y2="-69.5722733"/>
			<line class="st2" x1="748.1714478" y1="253.4894257" x2="414.688385" y2="-79.9936218"/>
			<line class="st2" x1="758.5927734" y1="243.0680847" x2="425.1097107" y2="-90.4149704"/>
			<line class="st2" x1="769.0140991" y1="232.6467285" x2="435.5310669" y2="-100.836319"/>
			<line class="st2" x1="779.4354858" y1="222.2253876" x2="445.9524231" y2="-111.2576675"/>
			<line class="st2" x1="769.0140991" y1="232.6467285" x2="435.5310669" y2="-100.836319"/>
			<line class="st2" x1="789.8568115" y1="211.8040466" x2="456.3737793" y2="-121.6790161"/>
			<line class="st2" x1="800.2781982" y1="201.3826904" x2="466.795105" y2="-132.1003571"/>
			<line class="st2" x1="810.6995239" y1="190.9613495" x2="477.2164612" y2="-142.5217133"/>
			<line class="st2" x1="821.1208496" y1="180.5399933" x2="487.6378174" y2="-152.9430542"/>
			<line class="st2" x1="831.5422363" y1="170.1186523" x2="498.0591736" y2="-163.3644104"/>
			<line class="st2" x1="841.963562" y1="159.6972961" x2="508.4804993" y2="-173.7857513"/>
			<line class="st2" x1="852.3848877" y1="149.2759552" x2="518.9018555" y2="-184.2071075"/>
		</g>
	</g>
	<g class="st3">
		<rect x="357.8223572" y="-22.2248135" class="st4" width="322.1589355" height="322.1589355"/>
	</g>
</g>
<path id="Windows" class="st5" d="M144.9999237,64.9998398h7.4998322V317.499939h-7.4998322V64.9998398z"/>
<path id="Doors" class="st5" d="M357.499939,234.9998474c0-5.5,0.9998779-9.9998169,3.0001526-15.0001221
	c1.9997559-4.9998322,4.999939-9.5001221,8.5001831-12.9999084c3.4997864-3.9999695,8.0000916-7.0002136,12.9999084-8.9999542
	c4.9998474-2.0002136,9.9998474-3.0000916,15.4998474-3.0000916v40.0000763 M487.5003357,199.9997559
	c0-5.5-0.9998779-9.9998169-3.0000916-15.0001221c-2.0002136-4.9998322-4.9998474-9.5001221-8.5002441-12.9999237
	c-3.5002441-3.9999542-8.0000916-7.0001984-12.9999084-8.9999542c-4.9998474-1.9997406-9.9998474-3.0000763-15.4998474-3.0000763
	v40.0000763 M577.5003052,239.9998474c6.499939,0,12.5002441,1.5000458,18.499939,3.9999542
	c6.0003662,2.4999237,12.000061,6.0003357,16.5001831,11.0001678c4.5001221,4.5001221,8.4996338,9.9998474,11.0001831,16
	c2.4998779,6.0003357,3.999939,12.5002136,3.999939,19.0000916h-49.9997559"/>
<g id="Walls">
	<polygon class="st6" points="167.506958,240.0500488 357.5598145,240.0500488 357.5598145,235.0487061 167.506958,235.0487061 
		167.506958,210.0418091 142.5,210.0418091 142.5,245.0514526 167.506958,245.0514526 	"/>
	<path class="st6" d="M562.5172729,306.4957886h-31.8088379v5.0013428h31.8088379V388h-22.7172241v16.9958496H172.6085205
		v-90.0250244H142.5V420h435.0213623V289.9638062h-15.0040894V306.4957886z M544.7999878,404.9958496V393h17.7172852v11.9958496
		H544.7999878z"/>
	<path class="st6" d="M142.5,60v80.0218506h30.1085205V75.0036621h259.972229v125.03479h-30.0079346v35.0102539h-5.0018311
		v5.0013428h40.0115967v-5.0013428h-30.0088501v-30.0084229h40.0115967v-5.0018311h-10.0027466v-125.03479H547v15.2963257
		h15.5172729v109.7384644h-75.0209351v5.0018311h75.0209351v35.0097656h15.0040894V60H142.5z M552,85.2999878V75.0036621h10.5172729
		v10.2963257H552z"/>
</g>
<g id="Furniture_2_">
	<g>
		<rect x="450.7999878" y="373" class="st7" width="80.2000122" height="31.5"/>
		<path class="st8" d="M530.5,373.5V404h-79.2000122v-30.5H530.5 M531.5,372.5h-81.2000122V405H531.5V372.5L531.5,372.5z"/>
	</g>
	<g>
		<g>
			<rect x="438" y="75.5" class="st7" width="95.7000122" height="39"/>
			<path class="st8" d="M438.5,76h94.7000122v38H438.5V76 M437.5,75v40h96.7000122V75H437.5L437.5,75z"/>
		</g>
		<g>
			<g>
				<path class="st9" d="M525.2000122,95.0999985c0-7.4000015-6.4000244-13.0999985-13.6000061-12.5
					C503.5,83.2999954,493.3999939,84,485.8000183,84c-7.5,0-17.6000061-0.6999969-25.7999878-1.4000015
					c-7.2999878-0.6999969-13.6000061,5.0999985-13.6000061,12.5c0,7.3000031,6.3999939,13.0999985,13.6000061,12.5
					c8.1000061-0.6999969,18.2000122-1.4000015,25.7999878-1.4000015c7.5,0,17.6000061,0.6999969,25.7999878,1.4000015
					C518.7999878,108.1999969,525.2000122,102.4000015,525.2000122,95.0999985z"/>
				<path class="st9" d="M512.4000244,93.5C513.3000488,93.5,514,94.1999969,514,95.0999985
					s-0.7000122,1.5999985-1.5999756,1.5999985S510.8000183,96,510.8000183,95.0999985S511.5,93.5,512.4000244,93.5z"/>
			</g>
		</g>
	</g>
	<g>
		<g>
			<rect x="255.1999969" y="252.3000031" class="st7" width="76.0999908" height="4.4000092"/>
			<path class="st8" d="M330.7999878,252.8000031v3.4000092h-75.1000061v-3.3999939L330.7999878,252.8000031
				 M331.7999878,251.8000031h-77.1000061v5.4000092h77.1000061V251.8000031L331.7999878,251.8000031z"/>
		</g>
		<g>
			<rect x="255.1999969" y="240.5" class="st7" width="76.0999908" height="12.6999969"/>
			<path class="st8" d="M330.7999878,241v11.6999969h-75.1000061V241H330.7999878 M331.7999878,240h-77.1000061v13.6999969
				h77.1000061V240L331.7999878,240z"/>
		</g>
		<rect x="266.7000122" y="243.1999969" class="st10" width="54.5" height="2.3999939"/>
		<path class="st10" d="M282.3999939,243.1999969H305.5l-2.1000061-2.8999939H284.5L282.3999939,243.1999969z"/>
	</g>
	<g>
		<g>
			<rect x="255.1999969" y="218.1999969" class="st7" width="76.0999908" height="4.3999939"/>
			<path class="st8" d="M330.7999878,218.6999969v3.3999939h-75.1000061v-3.3999939H330.7999878 M331.7999878,217.6999969
				h-77.1000061v5.3999939h77.1000061V217.6999969L331.7999878,217.6999969z"/>
		</g>
		<g>
			<rect x="255.1999969" y="221.8000031" class="st7" width="76.0999908" height="12.6999969"/>
			<path class="st8" d="M330.7999878,222.3000031V234h-75.1000061v-11.6999969H330.7999878 M331.7999878,221.3000031h-77.1000061
				V235h77.1000061V221.3000031L331.7999878,221.3000031z"/>
		</g>
		<rect x="266.7000122" y="229.3000031" class="st10" width="54.5" height="2.3999939"/>
		<path class="st10" d="M282.3999939,231.6999969H305.5l-2.1000061,2.8999939H284.5L282.3999939,231.6999969z"/>
	</g>
	<g id="Sink_2">
		<g id="Rectangle_16_x5F_11_2_">
			<rect x="539.7208252" y="115.5999985" class="st7" width="22.2999878" height="31.0999985"/>
			<path class="st8" d="M561.520813,116.0999985v30.0999985h-21.2999878v-30.0999985H561.520813 M562.520813,115.0999985
				h-23.2999878v32.0999985h23.2999878V115.0999985L562.520813,115.0999985z"/>
		</g>
		<path id="Rectangle_19_x5F_5" class="st10" d="M550.8208008,120.5999985L550.8208008,120.5999985
			c-3.7000122,0-6.5999756,2.8000031-6.5999756,6.0999985V135.5c0,3.3999939,3,6.1000061,6.5999756,6.1000061l0,0
			c3.7000122,0,6.5999756-2.8000031,6.5999756-6.1000061v-8.8000031
			C557.520813,123.4000015,554.520813,120.5999985,550.8208008,120.5999985z"/>
		<circle id="Ellipse_7_x5F_2" class="st10" cx="553.7208252" cy="131.1000061" r="1.5999832"/>
	</g>
	<g id="Rectangle_24">
		<rect x="531" y="311.9971619" class="st7" width="30.9000244" height="60.5028381"/>
		<path class="st8" d="M561.5,312.4971619V372h-29.9000244v-59.402832L561.5,312.4971619 M562.5,311.4971619h-31.9000244v61.402832
			H562.5V311.4971619L562.5,311.4971619z"/>
	</g>
	<g id="Sink_3">
		<rect id="Rectangle_28_x5F_2" x="534.2999878" y="328.3999939" class="st10" width="24.4000244" height="38.7000122"/>
		<path id="Rectangle_29_x5F_2" class="st10" d="M546.5,351.7999878L546.5,351.7999878
			c-5.0999756,0-9.2000122-4.1000061-9.2000122-9.2000122v-2c0-5.1000061,4.0999756-9.2000122,9.2000122-9.2000122l0,0
			c5.0999756,0,9.2000122,4.1000061,9.2000122,9.2000122v2C555.7000122,347.7000122,551.5999756,351.7999878,546.5,351.7999878z"/>
		<ellipse id="Ellipse_7_x5F_3" class="st10" cx="550.5999756" cy="341.6000061" rx="1.5999756" ry="1.6000061"/>
		<path id="Vector_2" class="st11" d="M555.7000122,365.1000061v-10.2000122 M552.5999756,365.1000061v-10.2000122
			 M549.5999756,365.1000061v-10.2000122 M546.5,365.1000061v-10.2000122 M543.5,365.1000061v-10.2000122 M540.4000244,365.1000061
			v-10.2000122 M537.4000244,365.1000061v-10.2000122"/>
	</g>
	<g id="Stove">
		<g id="Rectangle_25">
			<rect x="460.7000122" y="373" class="st7" width="31.2000122" height="31"/>
			<path class="st8" d="M461.2000122,373.5h30.2000122v30h-30.2000122V373.5 M460.2000122,372.5v32h32.2000122v-32H460.2000122
				L460.2000122,372.5z"/>
		</g>
		<g id="Rectangle_28_x5F_3">
			<rect x="460.7000122" y="401.7999878" class="st7" width="31.2000122" height="2.7000122"/>
			<path class="st8" d="M461.2000122,402.2999878h30.2000122V404h-30.2000122V402.2999878 M460.2000122,401.2999878V405h32.2000122
				v-3.7000122H460.2000122L460.2000122,401.2999878z"/>
		</g>
		<g id="Ellipse_7_x5F_4">
			<path class="st7" d="M470,396.1000061c-1.7000122,0-3.1000061-1.3999939-3.1000061-3c0-1.7000122,1.3999939-3,3.1000061-3
				s3.1000061,1.3999939,3.1000061,3S471.7999878,396.1000061,470,396.1000061z"/>
			<path class="st8" d="M470,390.5c1.3999939,0,2.6000061,1.1000061,2.6000061,2.5S471.3999939,395.5,470,395.5
				s-2.6000061-1.1000061-2.6000061-2.5C467.3999939,391.7000122,468.6000061,390.5,470,390.5 M470,389.5
				c-2,0-3.6000061,1.6000061-3.6000061,3.5c0,2,1.6000061,3.5,3.6000061,3.5s3.6000061-1.6000061,3.6000061-3.5
				S472,389.5,470,389.5L470,389.5z"/>
		</g>
		<g id="Ellipse_9">
			<path class="st7" d="M470,386.3999939c-2.2000122,0-4-1.7999878-4-3.8999939s1.7999878-3.8999939,4-3.8999939
				s4,1.7999878,4,3.8999939S472.2999878,386.3999939,470,386.3999939z"/>
			<path class="st8" d="M470,379c1.8999939,0,3.5,1.5,3.5,3.3999939s-1.6000061,3.3999939-3.5,3.3999939s-3.5-1.5-3.5-3.3999939
				S468.1000061,379,470,379 M470,378c-2.5,0-4.5,2-4.5,4.3999939s2,4.3999939,4.5,4.3999939s4.5-2,4.5-4.3999939S472.5,378,470,378
				L470,378z"/>
		</g>
		<g id="Ellipse_10">
			<path class="st7" d="M482.7000122,397c-2.2000122,0-4-1.7999878-4-3.8999939s1.7999878-3.8999939,4-3.8999939
				s4,1.7999878,4,3.8999939S484.8999939,397,482.7000122,397z"/>
			<path class="st8" d="M482.7000122,389.6000061c1.8999939,0,3.5,1.5,3.5,3.3999939s-1.6000061,3.3999939-3.5,3.3999939
				s-3.5-1.5-3.5-3.3999939S480.7000122,389.6000061,482.7000122,389.6000061 M482.7000122,388.6000061c-2.5,0-4.5,2-4.5,4.3999939
				s2,4.3999939,4.5,4.3999939s4.5-2,4.5-4.3999939S485.1000061,388.6000061,482.7000122,388.6000061L482.7000122,388.6000061z"/>
		</g>
		<g id="Ellipse_8">
			<path class="st7" d="M482.7000122,384.6000061c-1.7000122,0-3.1000061-1.3999939-3.1000061-3
				c0-1.7000122,1.3999939-3,3.1000061-3s3.1000061,1.3999939,3.1000061,3
				C485.7999878,383.2000122,484.3999939,384.6000061,482.7000122,384.6000061z"/>
			<path class="st8" d="M482.7000122,379c1.3999939,0,2.6000061,1.1000061,2.6000061,2.5s-1.2000122,2.5-2.6000061,2.5
				s-2.6000061-1.1000061-2.6000061-2.5S481.2000122,379,482.7000122,379 M482.7000122,378c-2,0-3.6000061,1.6000061-3.6000061,3.5
				s1.6000061,3.5,3.6000061,3.5s3.6000061-1.6000061,3.6000061-3.5S484.6000061,378,482.7000122,378L482.7000122,378z"/>
		</g>
	</g>
	<g>
		<g>
			<rect x="252.1000061" y="75.5" class="st7" width="81.5" height="98.1999969"/>
			<path class="st8" d="M252.6000061,76h80.5v97.1999969h-80.5V76 M251.6000061,75v99.1999969h82.5V75H251.6000061L251.6000061,75z"
				/>
		</g>
		<rect x="294.8999939" y="82.0999985" class="st10" width="32.2000122" height="24.5"/>
		<rect x="258.7000122" y="82.0999985" class="st10" width="32.2000122" height="24.5"/>
		<polygon class="st12" points="323.2000122,96.5999985 299.8999939,90.3000031 293.6000061,114 316.8999939,120.3000031 		"/>
		<polygon class="st12" points="292,114 285.7000122,90.3000031 262.3999939,96.5999985 268.7000122,120.3000031 		"/>
		<g>
			<polygon class="st7" points="252.1000061,174.6999969 252.1000061,96.1999969 284.6000061,94.1999969 333.6000061,101.4000015 
				333.6000061,174.6999969 			"/>
			<path class="st8" d="M284.6000061,94.6999969l48.5,7.1999969v72.3000031h-80.5V97.4000015v-0.5999985L284.6000061,94.6999969
				 M284.6000061,93.6999969l-33,2.0999985v1.5999985v77.8000031h82.5v-73.5999985V101L284.6000061,93.6999969
				L284.6000061,93.6999969z"/>
		</g>
		<polyline class="st11" points="252.6999969,98.3000031 284.8999939,98.3000031 333.2000122,102.4000015 		"/>
	</g>
	<g>
		<g>
			<rect x="492.0345154" y="215.6444702" class="st7" width="70" height="18.6000061"/>
			<path class="st8" d="M492.5345154,216.1444702h68.9999695v17.6000061h-68.9999695V216.1444702 M491.5345154,215.1444702
				v19.6000061h70.9999695v-19.6000061H491.5345154L491.5345154,215.1444702z"/>
		</g>
		<g>
			<rect x="492.0345154" y="205.4444733" class="st7" width="70" height="25.8999939"/>
			<path class="st8" d="M492.5345154,206.0444794h68.9999695v24.8999939h-68.9999695V206.0444794 M491.5345154,205.0444794
				v26.8999939h70.9999695v-26.8999939H491.5345154L491.5345154,205.0444794z"/>
		</g>
		<path class="st10" d="M562.0344849,205.8444672l-70.1999817,25.1999969"/>
	</g>
	<g>
		<g>
			<rect x="403.2759399" y="75.5" class="st7" width="18.6000061" height="124"/>
			<path class="st8" d="M421.4759216,76v123h-17.6000061V76H421.4759216 M422.4759216,75h-19.6000061v125h19.6000061V75
				L422.4759216,75z"/>
		</g>
		<g>
			<rect x="406.1759338" y="75.5" class="st7" width="25.8999939" height="124"/>
			<path class="st8" d="M431.5759277,76v123h-24.8999939V76H431.5759277 M432.5759277,75h-26.8999939v125h26.8999939V75
				L432.5759277,75z"/>
		</g>
		<path class="st10" d="M431.9759216,199.8000031l-25.6000061-124.5"/>
	</g>
	<g>
		<g>
			<rect x="534.2000122" y="287.4079895" class="st7" width="27.7999878" height="18.6000061"/>
			<path class="st8" d="M561.5,287.9079895v17.6000061h-26.7999878v-17.6000061H561.5 M562.5,286.9079895h-28.7999878v19.6000061
				H562.5V286.9079895L562.5,286.9079895z"/>
		</g>
		<g>
			<rect x="534.2000122" y="290.2079773" class="st7" width="27.7999878" height="15.7999878"/>
			<path class="st8" d="M561.5,290.7079773v14.7999878h-26.7999878v-14.7999878H561.5 M562.5,289.7079773h-28.7999878v16.7999878
				H562.5V289.7079773L562.5,289.7079773z"/>
		</g>
		<path class="st10" d="M533.9000244,305.7079773l28.5-15.3999939"/>
	</g>
	<g>
		<g>
			<rect x="552.6207886" y="146.6999969" class="st7" width="9.4000244" height="52.8384552"/>
			<path class="st8" d="M553.1207886,147.1999969h8.4000244v51.8384552h-8.4000244V147.1999969 M552.1207886,146.1999969v53.8384552
				h10.4000244v-53.8384552H552.1207886L552.1207886,146.1999969z"/>
		</g>
	</g>
	<g>
		<g>
			<path class="st7" d="M248.5,396.8999939v-26.7999878C248.5,368.8999939,249.3999939,368,250.6000061,368H291
				c1.2000122,0,2.1000061,0.8999939,2.1000061,2.1000061v26.7999878H248.5z"/>
			<path class="st8" d="M250.6000061,367.5v1H291c0.8999939,0,1.6000061,0.7000122,1.6000061,1.6000061v26.2999878H249v-26.2999878
				c0-0.8999939,0.6999969-1.6000061,1.6000061-1.6000061V367.5 M250.6000061,367.5
				C249.2000122,367.5,248,368.7000122,248,370.1000061v27.2999878h45.6000061v-27.2999878
				c0-1.3999939-1.2000122-2.6000061-2.6000061-2.6000061H250.6000061L250.6000061,367.5z"/>
		</g>
		<g>
			<path class="st7" d="M293.3999939,396.8999939v-26.7999878C293.3999939,368.8999939,294.2999878,368,295.5,368h40
				c1.2000122,0,2.1000061,0.8999939,2.1000061,2.1000061v26.7999878H293.3999939z"/>
			<path class="st8" d="M295.5,367.5v1h40c0.8999939,0,1.6000061,0.7000122,1.6000061,1.6000061v26.2999878h-43.2000122v-26.2999878
				c0-0.8999939,0.7000122-1.6000061,1.6000061-1.6000061V367.5 M295.5,367.5c-1.3999939,0-2.6000061,1.2000122-2.6000061,2.6000061
				v27.2999878h45.2000122v-27.2999878c0-1.3999939-1.2000122-2.6000061-2.6000061-2.6000061H295.5L295.5,367.5z"/>
		</g>
		<g>
			<polygon class="st7" points="241,404.5 241,366.1000061 248.3000031,366.1000061 248.3000031,397.1000061 
				337.7999878,397.1000061 337.7999878,366.1000061 345.2000122,366.1000061 345.2000122,404.5 			"/>
			<path class="st8" d="M247.8000031,366.6000061v30v1h1h44.3000031h44.2999878h1v-1v-30h6.2999878V404H241.5v-37.3999939
				H247.8000031 M248.8000031,365.6000061H240.5V405h105.2000122v-39.3999939h-8.2999878v31h-44.2999878h-44.3000031
				L248.8000031,365.6000061L248.8000031,365.6000061z"/>
		</g>
	</g>
	<g>
		<rect x="405.8999939" y="310.3999939" class="st10" width="44.8999939" height="94.1000061"/>
		<rect x="418.7000122" y="310.3999939" class="st10" width="5" height="94.1000061"/>
	</g>
	<circle class="st10" cx="390.1000061" cy="323.5" r="10.6000061"/>
	<circle class="st10" cx="390.1000061" cy="357.7999878" r="10.6000061"/>
	<circle class="st10" cx="390.1000061" cy="391.6000061" r="10.6000061"/>
	<g id="Toilet_2_">
		<g id="Rectangle_21_2_">
			<rect x="545.020813" y="162.1000061" class="st7" width="7.5" height="21.8999939"/>
			<path class="st8" d="M552.020813,162.6000061V183.5h-6.5v-20.8999939H552.020813 M553.020813,161.6000061h-8.5V184.5h8.5
				V161.6000061L553.020813,161.6000061z"/>
		</g>
		<path id="Rectangle_19_x5F_2_2_" class="st10" d="M530.020813,164.8999939
			c-4.7000122-0.3000031-8.7000122,3.3999939-8.7000122,8.1999969l0,0c0,4.6999969,4,8.5,8.7000122,8.1999969l15-1V166
			L530.020813,164.8999939z"/>
		<path id="Rectangle_18_x5F_13_2_" class="st10" d="M530.3208008,166.6000061
			c-3.7999878-0.3000031-7.0999756,2.6999969-7.0999756,6.5l0,0c0,3.8000031,3.2999878,6.8999939,7.0999756,6.5
			l10.4000244-0.8999939v-11.1000061L530.3208008,166.6000061z"/>
		<ellipse id="Ellipse_6_x5F_2_2_" class="st10" cx="536.3208008" cy="173.1000061" rx="1.5999756" ry="1.6000061"/>
	</g>
	<g>
		<g>
			<rect x="408.1573181" y="205.4428406" class="st7" width="23.1000061" height="28.8999939"/>
			<path class="st8" d="M430.6573181,206.0428467v27.8999939H408.557312v-27.8999939H430.6573181 M431.6573181,205.0428467
				H407.557312v29.8999939h24.1000061V205.0428467L431.6573181,205.0428467z"/>
		</g>
		<line class="st11" x1="407.8572998" y1="205.4428406" x2="415.6573181" y2="215.2428436"/>
		<line class="st11" x1="431.057312" y1="205.4428406" x2="423.2572937" y2="215.2428436"/>
		<line class="st11" x1="407.8572998" y1="234.6428375" x2="415.6573181" y2="224.8428345"/>
		<line class="st11" x1="431.057312" y1="234.6428375" x2="423.2572937" y2="224.8428345"/>
	</g>
	<g>
		<polygon class="st7" points="533.7000122,115.5999985 533.7000122,75.5 546.5,75.5 546.5,90.8000031 562.017395,90.8000031 
			562.017395,115.5999985 		"/>
		<path class="st8" d="M546,76v14.3000031v1h1h14.517395v23.8000031H547h-12.7999878V90.3000031V76H546 M547,75h-13.7999878
			v15.3000031v25.8000031H547h15.517395V90.3000031H547V75L547,75z"/>
	</g>
	<g>
		<polygon class="st7" points="531,404.5 531,372.5 562,372.5 562,387.5 539.2999878,387.5 539.2999878,404.5 		"/>
		<path class="st8" d="M561.5,373v14h-21.7000122h-1v1v16H531.5v-16v-15h8.2999878H561.5 M562.5,372h-22.7000122H530.5v16v17
			h9.2999878v-17H562.5V372L562.5,372z"/>
	</g>
</g>
<g id="Numbers_1_">
	<g>
		<path class="st6" d="M362.2000122,149.8999939l1.8999939-1.6000061h0.7999878v6.6999969h-1v-5.3000031l-1.2000122,0.8999939
			L362.2000122,149.8999939z"/>
		<path class="st6" d="M368.3999939,150.6000061c0.6000061,0,1.2000122,0.1999969,1.6000061,0.6000061
			c0.3999939,0.3999939,0.6000061,0.8999939,0.6000061,1.6000061c0,0.6999969-0.2000122,1.1999969-0.7000122,1.6000061
			c-0.3999939,0.3999939-1,0.6000061-1.7000122,0.6000061c-0.7999878,0-1.5-0.3000031-2.2000122-0.8000031l0.5-0.8000031
			c0.6000061,0.3999939,1.1000061,0.6000061,1.7000122,0.6000061c0.3999939,0,0.7000122-0.1000061,1-0.3999939
			c0.2999878-0.1999969,0.3999939-0.5,0.3999939-0.8999939s-0.1000061-0.6999969-0.3999939-0.8999939
			c-0.2000122-0.1999969-0.6000061-0.3999939-1-0.3999939c-0.5,0-0.8999939,0.1999969-1.2000122,0.5l-0.6000061-0.3999939
			l0.3999939-3.3000031h3.3999939v0.8999939h-2.6000061l-0.2000122,1.6000061
			C367.7000122,150.6999969,368,150.6000061,368.3999939,150.6000061z"/>
		<path class="st6" d="M372,155c-0.2000122,0-0.2999878-0.1000061-0.5-0.1999969s-0.2000122-0.3000031-0.2000122-0.5
			S371.3999939,154,371.5,153.9000092s0.2999878-0.1999969,0.5-0.1999969s0.2999878,0.1000061,0.3999939,0.1999969
			s0.2000122,0.3000031,0.2000122,0.3999939c0,0.1999969-0.1000061,0.3000031-0.2000122,0.5S372.2000122,155,372,155z"/>
		<path class="st6" d="M375.5,155c-0.7000122,0-1.3999939-0.1999969-2.1000061-0.6999969l0.5-0.8000031
			C374.5,153.8999939,375,154,375.5,154c0.3999939,0,0.7000122-0.1000061,0.8999939-0.3000031
			c0.2000122-0.1999969,0.2999878-0.3999939,0.2999878-0.8000031c0-0.3000031-0.1000061-0.6000061-0.3999939-0.8000031
			c-0.2000122-0.1999969-0.5-0.3000031-0.8999939-0.3000031h-0.7999878V151h0.7999878
			c0.2999878,0,0.6000061-0.1000061,0.7999878-0.3000031C376.3999939,150.5,376.4999695,150.3000031,376.4999695,150
			s-0.1000061-0.5-0.2999878-0.6999969S375.6999817,149,375.3999939,149C375,149,374.5,149.1999969,374,149.6000061l-0.5-0.6999969
			c0.2000122-0.1999969,0.6000061-0.3999939,0.8999939-0.6000061c0.3999939-0.1000061,0.7000122-0.1999969,1.1000061-0.1999969
			c0.6000061,0,1.1000061,0.1999969,1.5,0.5s0.6000061,0.8000031,0.6000061,1.1999969S377.5,150.5,377.3000183,150.6999969
			c-0.2000122,0.3000031-0.5,0.5-0.7999878,0.6000061l0,0c0.3999939,0.1000061,0.7000122,0.3000031,1,0.6000061
			c0.2000122,0.3000031,0.2999878,0.6000061,0.2999878,1.1000061c0,0.6000061-0.2000122,1-0.6000061,1.3999939
			C376.7999878,154.8000031,376.2000122,155,375.5,155z"/>
	</g>
	<g>
		<path class="st6" d="M490.1000061,150.3999939c0.6000061,0,1.2000122,0.1999969,1.6000061,0.6000061
			c0.3999939,0.3999939,0.6000061,0.8999939,0.6000061,1.6000061c0,0.6999969-0.2000122,1.1999969-0.7000122,1.6000061
			c-0.3999939,0.3999939-1,0.6000061-1.7000122,0.6000061c-0.7999878,0-1.5-0.3000031-2.2000122-0.8000031l0.5-0.8000031
			c0.6000061,0.3999939,1.1000061,0.6000061,1.7000122,0.6000061c0.3999939,0,0.7000122-0.1000061,1-0.3999939
			c0.2999878-0.1999969,0.3999939-0.5,0.3999939-0.8999939s-0.1000061-0.6999969-0.3999939-0.8999939
			c-0.2000122-0.1999969-0.6000061-0.3999939-1-0.3999939c-0.5,0-0.8999939,0.1999969-1.2000122,0.5l-0.6000061-0.3999939
			l0.3999939-3.3000031h3.3999939v0.8999939h-2.6000061l-0.2000122,1.6000061
			C489.2999878,150.3999939,489.7000122,150.3999939,490.1000061,150.3999939z"/>
	</g>
	<g>
		<path class="st6" d="M521.2000122,263.7000122L519.6000366,265.5h2.7000122v1h-4.2000122v-0.8999939l2.0999756-2.2999878
			l0.5-0.6000061c0.0999756-0.1000061,0.2000122-0.2999878,0.2999878-0.5s0.0999756-0.3999939,0.0999756-0.6000061
			c0-0.2999878-0.0999756-0.5-0.2999878-0.7000122s-0.5-0.2999878-0.7999878-0.2999878c-0.5,0-1,0.2000122-1.5999756,0.7000122
			l-0.5999756-0.7000122c0.7000122-0.6000061,1.4000244-1,2.2000122-1c0.5999756,0,1.0999756,0.2000122,1.5,0.6000061
			s0.5999756,0.8999939,0.5999756,1.3999939C522.2000122,262.2000122,521.9000244,262.8999939,521.2000122,263.7000122z"/>
		<path class="st6" d="M523.7999878,266.5c-0.2000122,0-0.2999878-0.1000061-0.5-0.2000122
			c-0.0999756-0.1000061-0.2000122-0.2999878-0.2000122-0.5s0.0999756-0.2999878,0.2000122-0.3999939
			c0.0999756-0.1000061,0.2999878-0.2000122,0.5-0.2000122s0.2999878,0.1000061,0.4000244,0.2000122
			c0.0999756,0.1000061,0.2000122,0.2999878,0.2000122,0.3999939c0,0.2000122-0.0999756,0.2999878-0.2000122,0.5
			S524,266.5,523.7999878,266.5z"/>
		<path class="st6" d="M527.7999878,262.1000061c0.5999756,0,1.0999756,0.2000122,1.5,0.6000061s0.5999756,0.8999939,0.5999756,1.5
			s-0.2000122,1.2000122-0.7000122,1.6000061c-0.4000244,0.3999939-1,0.6000061-1.7000122,0.6000061
			c-0.7999878,0-1.4000244-0.2999878-1.7999878-0.8999939c-0.4000244-0.6000061-0.5999756-1.3999939-0.5999756-2.2999878
			c0-0.6000061,0.0999756-1.2000122,0.2999878-1.7999878s0.5-1,0.9000244-1.2999878c0.4000244-0.3999939,1-0.5,1.5999756-0.5
			c0.7000122,0,1.2999878,0.2000122,1.7000122,0.6000061l-0.4000244,0.7999878
			c-0.4000244-0.2999878-0.7999878-0.3999939-1.2000122-0.3999939s-0.7000122,0.1000061-1,0.3999939
			c-0.5,0.5-0.7999878,1.2000122-0.7999878,2.1000061c0.2000122-0.2999878,0.4000244-0.5,0.7000122-0.7000122
			S527.4000244,262.1000061,527.7999878,262.1000061z M527.5999756,265.6000061
			c0.4000244,0,0.7000122-0.1000061,0.9000244-0.3999939s0.4000244-0.6000061,0.4000244-0.8999939
			c0-0.3999939-0.0999756-0.7000122-0.4000244-0.8999939c-0.2000122-0.2000122-0.5-0.3999939-0.9000244-0.3999939
			s-0.7000122,0.1000061-0.9000244,0.3999939c-0.2000122,0.2000122-0.4000244,0.6000061-0.4000244,0.8999939
			c0,0.3999939,0.0999756,0.7000122,0.4000244,0.8999939S527.2999878,265.6000061,527.5999756,265.6000061z"/>
	</g>
	<g>
		<path class="st6" d="M285.8999939,314.7999878l-1.6000061,1.7999878H287v1h-4.2000122v-0.8999939l2.1000061-2.2999878
			l0.5-0.6000061c0.1000061-0.1000061,0.2000122-0.2999878,0.2999878-0.5s0.1000061-0.3999939,0.1000061-0.6000061
			c0-0.2999878-0.1000061-0.5-0.2999878-0.7000122c-0.2000122-0.2000122-0.5-0.2999878-0.7999878-0.2999878
			c-0.5,0-1,0.2000122-1.6000061,0.7000122L282.5,311.6999817c0.7000122-0.6000061,1.3999939-1,2.2000122-1
			c0.6000061,0,1.1000061,0.2000122,1.5,0.6000061s0.6000061,0.8999939,0.6000061,1.3999939
			C286.8999939,313.2999878,286.6000061,314,285.8999939,314.7999878z"/>
		<path class="st6" d="M287.3999939,312.5l1.8999939-1.6000061h0.7999878v6.7000122h-1v-5.2999878l-1.2000122,0.8999939
			L287.3999939,312.5z"/>
		<path class="st6" d="M292.1000061,317.6000061c-0.2000122,0-0.2999878-0.1000061-0.5-0.2000122
			c-0.1000061-0.1000061-0.2000122-0.2999878-0.2000122-0.5S291.5,316.6000061,291.6000061,316.5s0.2999878-0.2000122,0.5-0.2000122
			S292.3999939,316.3999939,292.5,316.5s0.2000122,0.2999878,0.2000122,0.3999939c0,0.2000122-0.1000061,0.2999878-0.2000122,0.5
			S292.2000122,317.6000061,292.1000061,317.6000061z"/>
		<path class="st6" d="M295.8999939,317.6000061c-0.7000122,0-1.2999878-0.2000122-1.7000122-0.5
			c-0.3999939-0.3999939-0.7000122-0.7999878-0.7000122-1.3999939c0-0.3999939,0.1000061-0.7000122,0.3999939-1
			c0.2000122-0.2999878,0.5-0.5,0.8999939-0.7000122l0,0c-0.2999878-0.1000061-0.6000061-0.3999939-0.7000122-0.6000061
			c-0.2000122-0.2999878-0.2999878-0.5-0.2999878-0.8999939c0-0.5,0.2000122-0.8999939,0.6000061-1.2999878
			c0.3999939-0.2999878,0.8999939-0.5,1.5-0.5s1.1000061,0.2000122,1.5,0.5S297.9999695,312,297.9999695,312.5
			c0,0.2999878-0.1000061,0.6000061-0.2999878,0.8999939s-0.3999939,0.5-0.7000122,0.6000061l0,0
			c0.3999939,0.1000061,0.7000122,0.3999939,0.8999939,0.7000122c0.2000122,0.2999878,0.3999939,0.7000122,0.3999939,1
			c0,0.6000061-0.2000122,1-0.7000122,1.3999939C297.2000122,317.3999939,296.7000122,317.6000061,295.8999939,317.6000061z
			 M295.8999939,316.7000122c0.3999939,0,0.7000122-0.1000061,1-0.2999878c0.2999878-0.2000122,0.3999939-0.5,0.3999939-0.7999878
			s-0.1000061-0.6000061-0.3999939-0.7999878c-0.2999878-0.2000122-0.6000061-0.2999878-1-0.2999878
			s-0.7000122,0.1000061-1,0.2999878c-0.2999878,0.2000122-0.3999939,0.5-0.3999939,0.7999878
			s0.1000061,0.6000061,0.3999939,0.7999878C295.2000122,316.6000061,295.5,316.7000122,295.8999939,316.7000122z
			 M296.7999878,313.2999878c0.2000122-0.2000122,0.2999878-0.3999939,0.2999878-0.7000122s-0.1000061-0.5-0.2999878-0.7000122
			c-0.2000122-0.2000122-0.5-0.2999878-0.7999878-0.2999878s-0.6000061,0.1000061-0.7999878,0.2999878
			c-0.2000122,0.2000122-0.2999878,0.3999939-0.2999878,0.7000122s0.1000061,0.5,0.2999878,0.7000122
			c0.2000122,0.2000122,0.5,0.2999878,0.7999878,0.2999878C296.2999878,313.6000061,296.6000061,313.5,296.7999878,313.2999878z"/>
	</g>
	<g>
		<path class="st6" d="M458.5,220l1.8999939-1.6000061h0.7999878v6.6999969h-1v-5.3000031l-1.2000122,0.8999939L458.5,220z"/>
		<path class="st6" d="M463.1000061,225.1000061c-0.2000122,0-0.2999878-0.1000061-0.5-0.1999969
			s-0.2000122-0.3000031-0.2000122-0.5s0.1000061-0.3000031,0.2000122-0.3999939s0.2999878-0.1999969,0.5-0.1999969
			s0.2999878,0.1000061,0.3999939,0.1999969s0.2000122,0.3000031,0.2000122,0.3999939
			c0,0.1999969-0.1000061,0.3000031-0.2000122,0.5S463.2999878,225.1000061,463.1000061,225.1000061z"/>
		<path class="st6" d="M463.7000122,220l1.8999939-1.6000061h0.7999878v6.6999969h-1v-5.3000031l-1.2000122,0.8999939
			L463.7000122,220z"/>
	</g>
</g>
<g id="street_anchors" class="st13">
	<rect id="street_x5F_anchor_x5F_01" x="102.5" y="235" class="st14" width="10" height="10"/>
</g>
</svg>
