<?xml version="1.0" encoding="utf-8"?>
<!-- Generator: Adobe Illustrator 24.2.0, SVG Export Plug-In . SVG Version: 6.00 Build 0)  -->
<!DOCTYPE svg PUBLIC "-//W3C//DTD SVG 1.1//EN" "http://www.w3.org/Graphics/SVG/1.1/DTD/svg11.dtd" [
	<!ENTITY ns_extend "http://ns.adobe.com/Extensibility/1.0/">
	<!ENTITY ns_ai "http://ns.adobe.com/AdobeIllustrator/10.0/">
	<!ENTITY ns_graphs "http://ns.adobe.com/Graphs/1.0/">
	<!ENTITY ns_vars "http://ns.adobe.com/Variables/1.0/">
	<!ENTITY ns_imrep "http://ns.adobe.com/ImageReplacement/1.0/">
	<!ENTITY ns_sfw "http://ns.adobe.com/SaveForWeb/1.0/">
	<!ENTITY ns_custom "http://ns.adobe.com/GenericCustomNamespace/1.0/">
	<!ENTITY ns_adobe_xpath "http://ns.adobe.com/XPath/1.0/">
]>
<svg version="1.1" id="_x31__x5F_2" xmlns:x="&ns_extend;" xmlns:i="&ns_ai;" xmlns:graph="&ns_graphs;"
	 xmlns="http://www.w3.org/2000/svg" xmlns:xlink="http://www.w3.org/1999/xlink" x="0px" y="0px" viewBox="0 0 720 480"
	 style="enable-background:new 0 0 720 480;" xml:space="preserve">
<style type="text/css">
	.st0{fill:#DBD4CA;}
	.st1{clip-path:url(#SVGID_2_);}
	.st2{fill:none;stroke:#C49F8A;stroke-miterlimit:10;}
	.st3{opacity:0.3;clip-path:url(#SVGID_2_);}
	.st4{opacity:0.7;fill:#C49F8A;}
	.st5{fill:none;stroke:#565440;}
	.st6{fill:#565440;}
	.st7{fill:#E9E4DC;}
	.st8{fill:#C49F8A;}
	.st9{fill:#E9E4DC;stroke:#C49F8A;stroke-linejoin:round;}
	.st10{fill:#E9E4DC;stroke:#C49F8A;}
	.st11{fill:none;stroke:#C49F8A;}
	.st12{fill:#E9E4DC;stroke:#C49F8A;stroke-miterlimit:3.9998;}
	.st13{fill:none;}
</style>
<metadata>
	<sfw  xmlns="&ns_sfw;">
		<slices></slices>
		<sliceSourceBounds  bottomLeftOrigin="true" height="667.6734619" width="763.4465332" x="105.4515305" y="12.7706318">
			</sliceSourceBounds>
	</sfw>
</metadata>
<rect id="Floor" x="155.3515472" y="64.8999786" class="st0" width="419.2000427" height="350.7000122"/>
<g id="Wet_Floor_1_">
	<defs>
		<rect id="SVGID_1_" x="432.0306702" y="70.7055206" width="131.0797577" height="127.3763885"/>
	</defs>
	<clipPath id="SVGID_2_">
		<use xlink:href="#SVGID_1_"  style="overflow:visible;"/>
	</clipPath>
	<g class="st1">
		<g>
			<line class="st2" x1="211.999527" y1="143.8140106" x2="545.4827271" y2="-189.6691895"/>
			<line class="st2" x1="201.5781708" y1="133.3926697" x2="535.0614014" y2="-200.0905304"/>
			<line class="st2" x1="222.4208679" y1="154.2353668" x2="555.9040527" y2="-179.2478333"/>
			<line class="st2" x1="232.8422241" y1="164.6567078" x2="566.3254395" y2="-168.8264923"/>
			<line class="st2" x1="243.2635651" y1="175.078064" x2="576.7467651" y2="-158.4051361"/>
			<line class="st2" x1="253.6849213" y1="185.4994049" x2="587.1680908" y2="-147.9837952"/>
			<line class="st2" x1="264.1062622" y1="195.9207611" x2="597.5894775" y2="-137.562439"/>
			<line class="st2" x1="274.5276184" y1="206.3421021" x2="608.0108032" y2="-127.1410904"/>
			<line class="st2" x1="284.9489746" y1="216.7634583" x2="618.4321899" y2="-116.7197418"/>
			<line class="st2" x1="295.3703003" y1="227.1847992" x2="628.8535156" y2="-106.2983932"/>
			<line class="st2" x1="284.9489746" y1="216.7634583" x2="618.4321899" y2="-116.7197418"/>
			<line class="st2" x1="305.7916565" y1="237.6061554" x2="639.2748413" y2="-95.8770447"/>
			<line class="st2" x1="316.2130127" y1="248.0274963" x2="649.696228" y2="-85.4556961"/>
			<line class="st2" x1="326.6343689" y1="258.4488525" x2="660.1175537" y2="-75.0343475"/>
			<line class="st2" x1="337.0556946" y1="268.8702087" x2="670.5388794" y2="-64.612999"/>
			<line class="st2" x1="347.4770508" y1="279.2915344" x2="680.9602661" y2="-54.1916542"/>
			<line class="st2" x1="357.898407" y1="289.7128906" x2="691.3815918" y2="-43.7703056"/>
			<line class="st2" x1="368.3197632" y1="300.1342468" x2="701.8029785" y2="-33.3489571"/>
			<line class="st2" x1="378.7410889" y1="310.555603" x2="712.2243042" y2="-22.9276085"/>
			<line class="st2" x1="368.3197632" y1="300.1342468" x2="701.8029785" y2="-33.3489571"/>
			<line class="st2" x1="389.1624451" y1="320.9769287" x2="722.6456299" y2="-12.5062609"/>
			<line class="st2" x1="399.5838013" y1="331.3982849" x2="733.0670166" y2="-2.0849121"/>
			<line class="st2" x1="410.0051575" y1="341.8196411" x2="743.4883423" y2="8.3364363"/>
			<line class="st2" x1="420.4264832" y1="352.2409973" x2="753.909668" y2="18.7577839"/>
			<line class="st2" x1="430.8478394" y1="362.662323" x2="764.3310547" y2="29.1791325"/>
			<line class="st2" x1="441.2691956" y1="373.0836792" x2="774.7523804" y2="39.6004829"/>
			<line class="st2" x1="451.6905518" y1="383.5050354" x2="785.1737061" y2="50.0218315"/>
			<line class="st2" x1="462.1118774" y1="393.9263611" x2="795.5950928" y2="60.4431763"/>
			<line class="st2" x1="451.6905518" y1="383.5050354" x2="785.1737061" y2="50.0218315"/>
			<line class="st2" x1="472.5332336" y1="404.3477173" x2="806.0164185" y2="70.8645248"/>
			<line class="st2" x1="482.9545898" y1="414.7690735" x2="816.4378052" y2="81.2858734"/>
			<line class="st2" x1="493.375946" y1="425.1904297" x2="826.8591309" y2="91.707222"/>
			<line class="st2" x1="503.7972717" y1="435.6117554" x2="837.2804565" y2="102.1285706"/>
			<line class="st2" x1="514.2186279" y1="446.0331116" x2="847.7018433" y2="112.5499191"/>
			<line class="st2" x1="524.6399536" y1="456.4544678" x2="858.1231689" y2="122.9712677"/>
			<line class="st2" x1="535.0613403" y1="466.875824" x2="868.5444946" y2="133.3926239"/>
		</g>
		<g>
			<line class="st2" x1="545.482605" y1="456.4543152" x2="211.9995728" y2="122.9712601"/>
			<line class="st2" x1="535.0612793" y1="466.8756714" x2="201.5782166" y2="133.3926086"/>
			<line class="st2" x1="555.9039917" y1="446.032959" x2="222.4209137" y2="112.5499115"/>
			<line class="st2" x1="566.3253174" y1="435.6116028" x2="232.8422699" y2="102.1285629"/>
			<line class="st2" x1="576.7466431" y1="425.1902771" x2="243.2636108" y2="91.7072144"/>
			<line class="st2" x1="587.1680298" y1="414.7689209" x2="253.684967" y2="81.2858658"/>
			<line class="st2" x1="597.5893555" y1="404.3475647" x2="264.1063232" y2="70.8645172"/>
			<line class="st2" x1="608.0106812" y1="393.9262085" x2="274.5276489" y2="60.4431725"/>
			<line class="st2" x1="618.4320679" y1="383.5048828" x2="284.9490051" y2="50.0218239"/>
			<line class="st2" x1="628.8533936" y1="373.0835266" x2="295.3703613" y2="39.6004753"/>
			<line class="st2" x1="618.4320679" y1="383.5048828" x2="284.9490051" y2="50.0218239"/>
			<line class="st2" x1="639.2747803" y1="362.6621704" x2="305.7917175" y2="29.1791248"/>
			<line class="st2" x1="649.696106" y1="352.2408142" x2="316.2130432" y2="18.7577782"/>
			<line class="st2" x1="660.1174316" y1="341.8194885" x2="326.6343994" y2="8.3364286"/>
			<line class="st2" x1="670.5388184" y1="331.3981323" x2="337.0557556" y2="-2.0849195"/>
			<line class="st2" x1="680.960144" y1="320.9767761" x2="347.4771118" y2="-12.5062675"/>
			<line class="st2" x1="691.3814697" y1="310.5554504" x2="357.8984375" y2="-22.9276161"/>
			<line class="st2" x1="701.8028564" y1="300.1340942" x2="368.3197937" y2="-33.3489647"/>
			<line class="st2" x1="712.2241821" y1="289.712738" x2="378.7411499" y2="-43.7703133"/>
			<line class="st2" x1="701.8028564" y1="300.1340942" x2="368.3197937" y2="-33.3489647"/>
			<line class="st2" x1="722.6455688" y1="279.2913818" x2="389.1624756" y2="-54.1916618"/>
			<line class="st2" x1="733.0668945" y1="268.8700562" x2="399.5838318" y2="-64.6130066"/>
			<line class="st2" x1="743.4882202" y1="258.4487" x2="410.005188" y2="-75.0343552"/>
			<line class="st2" x1="753.9096069" y1="248.0273438" x2="420.4265442" y2="-85.4557037"/>
			<line class="st2" x1="764.3309326" y1="237.6060028" x2="430.8478699" y2="-95.8770523"/>
			<line class="st2" x1="774.7522583" y1="227.1846466" x2="441.2692261" y2="-106.2984009"/>
			<line class="st2" x1="785.173645" y1="216.7633057" x2="451.6905823" y2="-116.7197495"/>
			<line class="st2" x1="795.5949707" y1="206.3419495" x2="462.1119385" y2="-127.141098"/>
			<line class="st2" x1="785.173645" y1="216.7633057" x2="451.6905823" y2="-116.7197495"/>
			<line class="st2" x1="806.0163574" y1="195.9206085" x2="472.5332642" y2="-137.5624542"/>
			<line class="st2" x1="816.4376831" y1="185.4992523" x2="482.9546204" y2="-147.9837952"/>
			<line class="st2" x1="826.8590088" y1="175.0779114" x2="493.3759766" y2="-158.4051514"/>
			<line class="st2" x1="837.2803955" y1="164.6565552" x2="503.7973328" y2="-168.8264923"/>
			<line class="st2" x1="847.7017212" y1="154.2352142" x2="514.218689" y2="-179.2478485"/>
			<line class="st2" x1="858.1230469" y1="143.813858" x2="524.6400146" y2="-189.6691895"/>
			<line class="st2" x1="868.5444336" y1="133.3925171" x2="535.0613403" y2="-200.0905457"/>
		</g>
	</g>
	<g class="st3">
		<rect x="373.981842" y="-38.1082497" class="st4" width="322.1589355" height="322.1589355"/>
	</g>
</g>
<path id="Windows_1_" class="st5" d="M147.9172211,72.3284454h7.39711v276.1643066h-7.39711V72.3284454z"/>
<path id="Doors_1_" class="st5" d="M357.5063171,227.6712952c0-5.4247437,0.9861755-9.8627777,2.9590759-14.7946625
	c1.9723511-4.9314117,4.931427-9.3699036,8.383728-12.8218384c3.4518433-3.9452362,7.8905029-6.9042358,12.8218384-8.8765869
	s9.862854-2.9590607,15.2875061-2.9590607v39.4521484 M485.7259216,193.1505585
	c0-5.4247284-0.9861755-9.8627625-2.9589844-14.7946472c-1.9728088-4.931427-4.931366-9.3699036-8.3838196-12.8218384
	c-3.452301-3.9452362-7.8904724-6.9042358-12.8218384-8.8765869c-4.9313354-1.9723663-9.862854-2.9590759-15.2875061-2.9590759
	v39.4521484 M574.493042,240.0002594c6.4108887,0,12.3289795,1.4795074,18.246521,3.9452515
	s11.8356323,5.9180603,16.2741699,10.8494873c4.4384766,4.4385529,8.3831787,9.8627777,10.8494873,15.7808075
	c2.4656372,5.9180603,3.9451294,12.3289795,3.9451294,18.7398987h-49.3148193"/>
<g id="Walls">
	<rect x="145.4515533" y="138.9037476" class="st6" width="24.6574097" height="34.520752"/>
	<polygon class="st6" points="175.0409088,242.4659424 175.0409088,232.6026611 357.5068359,232.6026611 357.5068359,227.6712646 
		175.0409088,227.6712646 170.108963,227.6712646 170.108963,232.6026611 170.108963,242.4659424 145.4515533,242.4659424 
		145.4515533,276.9862061 175.0409088,276.9862061 	"/>
	<path class="st6" d="M559.6988525,313.302063h-34.3237305v4.9006348h34.3237305v87.0026245h-87.0473022v-19.0053101h-22.2999878
		v19.0053101H175.0409088v-59.1781006h-29.5893555V420h26.1369629h3.4523926H574.493042v-14.7946777V288.3289795h-14.7941895
		V313.302063z M455.4515381,391.2999878h12.2000122v13.9053345h-12.2000122V391.2999878z"/>
	<path class="st6" d="M145.4515533,60v14.7941895H431.479126v118.3563843h-24.6573486h-4.9315186v34.5206909h-4.9313354v4.9313965
		h39.4521484v-4.9313965h-29.5892944v-29.5893555h39.4521484v-4.9313354h-9.862854V74.7941895h107.0404663V91h16.2473145
		v102.1505737h-73.9729614v4.9313354h73.9729614v42.904541h14.7941895V74.7941895V60H145.4515533z M548.5515747,85.8999634
		V74.7941895h11.1472778v11.1057739H548.5515747z"/>
</g>
<g id="Furniture_3_">
	<g>
		<polygon class="st7" points="473.1515198,404.7999573 473.1515198,385.7999573 449.9515381,385.7999573 449.9515381,404.7999573 
			446.351532,404.7999573 446.351532,373.4999695 528.7515259,373.4999695 528.7515259,404.7999573 		"/>
		<path class="st8" d="M528.2515259,373.9999695v30.2999878h-54.6000061v-18v-1h-1h-22.2000122h-1v1v18h-2.6000061v-18v-12.2999878
			h3.6000061h22.2000122h2.2000122H528.2515259 M529.2515259,372.9999695h-54.2999878h-2.2000122h-22.2000122h-4.6000061v13.2999878
			v19h4.6000061v-19h22.2000122v19h56.5V372.9999695L529.2515259,372.9999695z"/>
	</g>
	<g>
		<g>
			<rect x="436.9515381" y="75.2999802" class="st7" width="94.4000244" height="38.5"/>
			<path class="st8" d="M437.4515381,75.7999802h93.4000244v37.5h-93.3999939L437.4515381,75.7999802 M436.4515381,74.7999802v39.5
				h95.4000244v-39.5H436.4515381L436.4515381,74.7999802z"/>
		</g>
		<g>
			<g>
				<path class="st9" d="M523.0515137,94.5999756c0-7.3000031-6.2999878-13-13.5-12.3000031
					c-8,0.6999969-18,1.4000015-25.3999939,1.4000015s-17.3999939-0.6999969-25.3999939-1.4000015
					c-7.2000122-0.6999969-13.5,5.0999985-13.5,12.3000031s6.2999878,13,13.5,12.3000031
					c8-0.6999969,18-1.4000015,25.3999939-1.4000015s17.3999939,0.6999969,25.3999939,1.4000015
					C516.7515259,107.5999756,523.0515137,101.8999786,523.0515137,94.5999756z"/>
				<ellipse class="st9" cx="510.351532" cy="94.5999756" rx="1.6000061" ry="1.5999985"/>
			</g>
		</g>
	</g>
	<g>
		<g>
			<rect x="257.2515259" y="244.7999878" class="st7" width="74.8999939" height="4.3000031"/>
			<path class="st8" d="M331.6515198,245.2999878v3.3000031h-73.8999939v-3.3000031H331.6515198 M332.6515198,244.2999878
				h-75.8999939v5.3000031h75.8999939V244.2999878L332.6515198,244.2999878z"/>
		</g>
		<g>
			<rect x="257.2515259" y="233.1999817" class="st7" width="74.8999939" height="12.5"/>
			<path class="st8" d="M331.6515198,233.6999817v11.5h-73.8999939v-11.5H331.6515198 M332.6515198,232.6999817h-75.8999939v13.5
				h75.8999939V232.6999817L332.6515198,232.6999817z"/>
		</g>
		<rect x="268.5515137" y="235.7999878" class="st10" width="53.7000122" height="2.3999939"/>
		<path class="st10" d="M284.0515137,235.7999878h22.7000122l-2.1000061-2.8000031h-18.6000061L284.0515137,235.7999878z"/>
	</g>
	<g>
		<g>
			<rect x="257.2515259" y="211.1999817" class="st7" width="74.8999939" height="4.3000031"/>
			<path class="st8" d="M331.6515198,211.6999817v3.3000031h-73.8999939v-3.3000031H331.6515198 M332.6515198,210.6999817
				h-75.8999939v5.3000031h75.8999939V210.6999817L332.6515198,210.6999817z"/>
		</g>
		<g>
			<rect x="257.2515259" y="214.6999817" class="st7" width="74.8999939" height="12.5"/>
			<path class="st8" d="M331.6515198,215.1999817v11.5h-73.8999939v-11.5H331.6515198 M332.6515198,214.1999817h-75.8999939v13.5
				h75.8999939V214.1999817L332.6515198,214.1999817z"/>
		</g>
		<rect x="268.5515137" y="222.0999908" class="st10" width="53.7000122" height="2.3999939"/>
		<path class="st10" d="M284.0515137,224.4999847h22.7000122l-2.1000061,2.8000031h-18.6000061L284.0515137,224.4999847z"/>
	</g>
	<g id="Sink_2_2_">
		<g id="Rectangle_16_x5F_11_3_">
			<rect x="537.2515259" y="114.1999741" class="st7" width="22" height="30.6000137"/>
			<path class="st8" d="M558.7515259,114.6999741v29.6000137h-21v-29.6000061h21 M559.7515259,113.6999741h-23v31.6000137h23
				V113.6999741L559.7515259,113.6999741z"/>
		</g>
		<path id="Rectangle_19_x5F_5_2_" class="st10" d="M548.2515259,119.0999756L548.2515259,119.0999756
			c-3.5999756,0-6.5,2.6999969-6.5,6.0999985v8.7000046c0,3.3000031,2.9000244,6.1000061,6.5,6.1000061l0,0
			c3.5999756,0,6.5-2.6999969,6.5-6.1000061v-8.7000046C554.8515015,121.8999786,551.8515015,119.0999756,548.2515259,119.0999756z"
			/>
		<circle id="Ellipse_7_x5F_2_2_" class="st10" cx="551.1515503" cy="129.4999847" r="1.5999823"/>
	</g>
	<g id="Rectangle_24_2_">
		<rect x="528.7515259" y="318.6502991" class="st7" width="30.5" height="73.1496582"/>
		<path class="st8" d="M558.7515259,319.1502991v72.1496582h-29.5v-72.1496582H558.7515259 M559.7515259,318.1502991h-31.5
			v74.1496582h31.5V318.1502991L559.7515259,318.1502991z"/>
	</g>
	<g id="Rectangle_24_4_">
		<rect x="528.7515259" y="391.6999817" class="st7" width="30.5" height="13"/>
		<path class="st8" d="M558.7515259,392.1999817v12h-29.5v-12H558.7515259 M559.7515259,391.1999817h-31.5v14h31.5V391.1999817
			L559.7515259,391.1999817z"/>
	</g>
	<g id="Sink_3_2_">
		<rect id="Rectangle_28_x5F_2_2_" x="531.9515381" y="339.7999573" class="st10" width="24.0999756" height="38.1000061"/>
		<path id="Rectangle_29_x5F_2_2_" class="st10" d="M544.0515137,362.8999634L544.0515137,362.8999634c-5,0-9-4-9-9v-2c0-5,4-9,9-9
			l0,0c5,0,9,4,9,9v2C553.0515137,358.7999573,548.9515381,362.8999634,544.0515137,362.8999634z"/>
		<ellipse id="Ellipse_7_x5F_3_2_" class="st10" cx="548.0515137" cy="352.7999573" rx="1.5999756" ry="1.6000061"/>
		<path id="Vector_2_2_" class="st11" d="M553.0515137,375.8999634v-10 M550.0515137,375.8999634v-10 M547.0515137,375.8999634v-10
			 M544.0515137,375.8999634v-10 M540.9515381,375.8999634v-10 M537.9515381,375.8999634v-10 M534.9515381,375.8999634v-10"/>
	</g>
	<g id="Stove_2_">
		<g id="Rectangle_25_2_">
			<rect x="476.7515259" y="373.3999634" class="st7" width="30.7000122" height="30.8999939"/>
			<path class="st8" d="M477.2515259,373.8999634h29.7000122v29.8999939h-29.7000122V373.8999634 M476.2515259,372.8999634
				v31.8999939h31.7000122v-31.8999939H476.2515259L476.2515259,372.8999634z"/>
		</g>
		<g id="Rectangle_28_x5F_3_2_">
			<rect x="476.7515259" y="402.0999756" class="st7" width="30.7000122" height="2.6000061"/>
			<path class="st8" d="M477.2515259,402.5999756h29.7000122v1.6000061h-29.7000122V402.5999756 M476.2515259,401.5999756v3.6000061
				h31.7000122v-3.6000061H476.2515259L476.2515259,401.5999756z"/>
		</g>
		<g id="Ellipse_7_x5F_4_2_">
			<path class="st7" d="M485.9515381,396.4999695c-1.7000122,0-3.1000061-1.2999878-3.1000061-3s1.3999939-3,3.1000061-3
				s3,1.2999878,3,3S487.5515137,396.4999695,485.9515381,396.4999695z"/>
			<path class="st8" d="M485.9515381,390.9999695c1.3999939,0,2.6000061,1.1000061,2.6000061,2.5s-1.1000061,2.5-2.6000061,2.5
				c-1.3999939,0-2.6000061-1.1000061-2.6000061-2.5S484.4515381,390.9999695,485.9515381,390.9999695 M485.9515381,389.9999695
				c-2,0-3.6000061,1.6000061-3.6000061,3.5s1.6000061,3.5,3.6000061,3.5s3.6000061-1.6000061,3.6000061-3.5
				S487.851532,389.9999695,485.9515381,389.9999695L485.9515381,389.9999695z"/>
		</g>
		<g id="Ellipse_9_2_">
			<path class="st7" d="M485.9515381,386.8999634c-2.2000122,0-3.8999939-1.7000122-3.8999939-3.8999939
				s1.7999878-3.8999939,3.8999939-3.8999939c2.2000122,0,3.8999939,1.7000122,3.8999939,3.8999939
				S488.0515137,386.8999634,485.9515381,386.8999634z"/>
			<path class="st8" d="M485.9515381,379.5999756c1.8999939,0,3.3999939,1.5,3.3999939,3.3999939
				s-1.5,3.3999939-3.3999939,3.3999939s-3.3999939-1.5-3.3999939-3.3999939
				C482.4515381,381.0999756,484.0515137,379.5999756,485.9515381,379.5999756 M485.9515381,378.5999756
				c-2.5,0-4.3999939,2-4.3999939,4.3999939s2,4.3999939,4.3999939,4.3999939s4.3999939-2,4.3999939-4.3999939
				S488.351532,378.5999756,485.9515381,378.5999756L485.9515381,378.5999756z"/>
		</g>
		<g id="Ellipse_10_2_">
			<path class="st7" d="M498.351532,397.2999573c-2.2000122,0-3.8999939-1.7000122-3.8999939-3.8999939
				s1.7999878-3.8999939,3.8999939-3.8999939c2.2000122,0,3.8999939,1.7000122,3.8999939,3.8999939
				S500.5515137,397.2999573,498.351532,397.2999573z"/>
			<path class="st8" d="M498.351532,390.0999756c1.8999939,0,3.3999939,1.5,3.3999939,3.3999939
				c0,0.8999939-0.3999939,1.7000122-1,2.3999939c-0.7000122,0.6000061-1.5,1-2.3999939,1
				c-1.8999939,0-3.3999939-1.5-3.3999939-3.3999939C494.851532,391.5999756,496.4515381,390.0999756,498.351532,390.0999756
				 M498.351532,389.0999756c-2.5,0-4.3999939,2-4.3999939,4.3999939s2,4.3999939,4.3999939,4.3999939
				c2.5,0,4.3999939-2,4.3999939-4.3999939S500.7515259,389.0999756,498.351532,389.0999756L498.351532,389.0999756z"/>
		</g>
		<g id="Ellipse_8_2_">
			<path class="st7" d="M498.351532,385.0999756c-1.7000122,0-3-1.2999878-3-3s1.3999939-3,3-3
				c1.7000122,0,3.1000061,1.2999878,3.1000061,3S500.0515137,385.0999756,498.351532,385.0999756z"/>
			<path class="st8" d="M498.351532,379.5999756c1.3999939,0,2.6000061,1.1000061,2.6000061,2.5s-1.1000061,2.5-2.6000061,2.5
				c-0.7000122,0-1.2999878-0.2999878-1.7999878-0.7000122c-0.5-0.5-0.7000122-1.1000061-0.7000122-1.7999878
				C495.7515259,380.6999817,496.9515381,379.5999756,498.351532,379.5999756 M498.351532,378.5999756
				c-2,0-3.6000061,1.6000061-3.6000061,3.5s1.6000061,3.5,3.6000061,3.5s3.6000061-1.6000061,3.6000061-3.5
				S500.2515259,378.5999756,498.351532,378.5999756L498.351532,378.5999756z"/>
		</g>
	</g>
	<g>
		<g>
			<rect x="254.0515442" y="75.2889328" class="st7" width="80.3000031" height="96.6999893"/>
			<path class="st8" d="M254.5515442,75.7889328h79.2999878v95.7000046h-79.2999878V75.7889328 M253.5515442,74.7889328v97.7000046
				h81.2999878V74.7889328H253.5515442L253.5515442,74.7889328z"/>
		</g>
		<rect x="296.1515198" y="81.6889343" class="st10" width="31.7000122" height="24.2000046"/>
		<rect x="260.4515381" y="81.6889343" class="st10" width="31.7000122" height="24.2000046"/>
		<polygon class="st12" points="324.0515137,95.9889374 301.0515137,89.7889328 294.9515381,113.0889359 317.851532,119.3889389 		
			"/>
		<polygon class="st12" points="293.2515259,113.0889359 287.1515198,89.7889328 264.2515259,95.9889374 270.351532,119.3889389 		
			"/>
		<g>
			<polygon class="st7" points="254.0515442,172.8889465 254.0515442,95.6889343 286.0515137,93.6889343 334.351532,100.7889328 
				334.351532,172.8889465 			"/>
			<path class="st8" d="M286.0515137,94.1889343l47.7999878,7.0999985v71.2000046h-79.2999878V96.8889313v-0.5999985
				L286.0515137,94.1889343 M286.0515137,93.1889343l-32.4999847,2.0999985v1.5v76.5999985h81.2999725v-72.5000076v-0.5
				L286.0515137,93.1889343L286.0515137,93.1889343z"/>
		</g>
		<polyline class="st11" points="254.651535,97.6889343 286.351532,97.6889343 333.9515381,101.6889343 		"/>
	</g>
	<g>
		<g>
			<rect x="490.2515259" y="208.4999847" class="st7" width="68.9000244" height="18.3000031"/>
			<path class="st8" d="M490.7515259,208.9999847h67.9000244v17.3000031h-67.8999939v-17.3000031 M489.7515259,207.9999847
				v19.3000031h69.9000244v-19.3000031H489.7515259L489.7515259,207.9999847z"/>
		</g>
		<g>
			<rect x="490.2515259" y="198.4999847" class="st7" width="68.9000244" height="25.5"/>
			<path class="st8" d="M490.7515259,198.9999847h67.9000244v24.5h-67.8999939v-24.5 M489.7515259,197.9999847v26.5h69.9000244
				v-26.5H489.7515259L489.7515259,197.9999847z"/>
		</g>
		<path class="st10" d="M559.2515259,198.8999786l-69.2000122,24.8000031"/>
	</g>
	<g>
		<g>
			<rect x="402.6515198" y="75.2999802" class="st7" width="18.2999878" height="117.4000015"/>
			<path class="st8" d="M420.4515381,75.7999802v116.4000168h-17.2999878V75.7999802H420.4515381 M421.4515381,74.7999802
				h-19.2999878v118.4000168h19.2999878V74.7999802L421.4515381,74.7999802z"/>
		</g>
		<g>
			<rect x="405.4515381" y="75.2999802" class="st7" width="25.5" height="117.4000015"/>
			<path class="st8" d="M430.4515381,75.7999802v116.4000168h-24.5V75.7999802H430.4515381 M431.4515381,74.7999802h-26.5
				v118.4000168h26.5V74.7999802L431.4515381,74.7999802z"/>
		</g>
		<path class="st10" d="M430.9515381,192.8999786L405.6515198,75.0999756"/>
	</g>
	<g>
		<g>
			<rect x="531.8515015" y="294.4754333" class="st7" width="27.4000244" height="18.2999878"/>
			<path class="st8" d="M558.7515259,294.9754333v17.2999878h-26.4000244v-17.2999878H558.7515259 M559.7515259,293.9754333
				h-28.4000244v19.2999878h28.4000244V293.9754333L559.7515259,293.9754333z"/>
		</g>
		<g>
			<rect x="531.8515015" y="297.2754211" class="st7" width="27.4000244" height="15.5"/>
			<path class="st8" d="M558.7515259,297.7754211v14.5h-26.4000244v-14.5H558.7515259 M559.7515259,296.7754211h-28.4000244v16.5
				h28.4000244V296.7754211L559.7515259,296.7754211z"/>
		</g>
		<path class="st10" d="M531.5515137,312.4754333l28.0999756-15.2000122"/>
	</g>
	<g>
		<g>
			<rect x="549.9515381" y="144.7999878" class="st7" width="9.2999878" height="47.8000031"/>
			<path class="st8" d="M558.7515259,145.2999878v46.8000031h-8.2999878v-46.8000031H558.7515259 M559.7515259,144.2999878
				h-10.2999878v48.8000031h10.2999878V144.2999878L559.7515259,144.2999878z"/>
		</g>
	</g>
	<g>
		<g>
			<path class="st7" d="M250.5515442,397.1999817v-26.3999939c0-1.1000061,0.8999939-2.1000061,2.1000061-2.1000061h39.7999878
				c1.1000061,0,2.1000061,0.8999939,2.1000061,2.1000061v26.3999939H250.5515442z"/>
			<path class="st8" d="M252.5515442,368.1999817v1h39.7999878c0.8999939,0,1.6000061,0.7000122,1.6000061,1.6000061v25.8999939
				h-42.8999786v-25.8999939c0-0.8999939,0.6999969-1.6000061,1.6000061-1.6000061v-1 M252.5515442,368.1999817
				c-1.3999939,0-2.6000061,1.1000061-2.6000061,2.6000061v26.8999939h44.8999939v-26.8999939
				c0-1.3999939-1.1000061-2.6000061-2.6000061-2.6000061H252.5515442L252.5515442,368.1999817z"/>
		</g>
		<g>
			<path class="st7" d="M294.6515198,397.1999817v-26.3999939c0-1.1000061,0.8999939-2.1000061,2.1000061-2.1000061h39.3999939
				c1.1000061,0,2.1000061,0.8999939,2.1000061,2.1000061v26.3999939H294.6515198z"/>
			<path class="st8" d="M296.7515259,368.1999817v1h39.3999939c0.8999939,0,1.6000061,0.7000122,1.6000061,1.6000061v25.8999939
				h-42.5v-25.8999939c0-0.8999939,0.7000122-1.6000061,1.6000061-1.6000061v-1 M296.7515259,368.1999817
				c-1.3999939,0-2.6000061,1.1000061-2.6000061,2.6000061v26.8999939h44.5v-26.8999939
				c0-1.3999939-1.1000061-2.6000061-2.6000061-2.6000061H296.7515259L296.7515259,368.1999817z"/>
		</g>
		<g>
			<polygon class="st7" points="243.0515442,404.6999817 243.0515442,366.8999634 250.2515411,366.8999634 250.2515411,397.3999634 
				338.4515381,397.3999634 338.4515381,366.8999634 345.6515198,366.8999634 345.6515198,404.6999817 			"/>
			<path class="st8" d="M249.7515411,367.3999634v29.6000061v1h1h43.5999908h43.6000061h1v-1v-29.6000061h6.2000122v36.7999878
				H243.5515594v-36.7999878H249.7515411 M250.7515411,366.3999634h-8.1999969v38.7999878h103.5999756v-38.7999878h-8.2000122
				v30.6000061h-43.6000061h-43.5999908L250.7515411,366.3999634L250.7515411,366.3999634z"/>
		</g>
	</g>
	<g>
		<rect x="402.1515198" y="311.9999695" class="st10" width="44.2000122" height="92.7000122"/>
		<rect x="414.7515259" y="311.9999695" class="st10" width="4.8999939" height="92.7000122"/>
	</g>
	<circle class="st10" cx="386.6515198" cy="324.8999634" r="10.3999939"/>
	<circle class="st10" cx="386.6515198" cy="358.6999817" r="10.3999939"/>
	<circle class="st10" cx="386.6515198" cy="391.9999695" r="10.3999939"/>
	<g id="Toilet_3_">
		<g id="Rectangle_21_3_">
			<rect x="542.6515503" y="157.7999878" class="st7" width="7.4000244" height="21.6000061"/>
			<path class="st8" d="M549.5515137,158.2999878v20.6000061h-6.4000244v-20.6000061H549.5515137 M550.5515137,157.2999878
				h-8.4000244v22.6000061h8.4000244V157.2999878L550.5515137,157.2999878z"/>
		</g>
		<path id="Rectangle_19_x5F_2_3_" class="st10" d="M527.8515015,160.4999847c-4.5999756-0.3000031-8.5,3.3999939-8.5,8.1000061l0,0
			c0,4.6999969,3.9000244,8.3999939,8.5,8.1000061l14.7999878-1v-14.1000061L527.8515015,160.4999847z"/>
		<path id="Rectangle_18_x5F_13_3_" class="st10" d="M528.0515137,162.1999817c-3.7999878-0.3000031-7,2.6000061-7,6.3999939l0,0
			c0,3.8000031,3.2999878,6.8000031,7,6.3999939l10.2000122-0.8999939v-11L528.0515137,162.1999817z"/>
		<ellipse id="Ellipse_6_x5F_2_3_" class="st10" cx="533.9515381" cy="168.5999908" rx="1.5999756" ry="1.6000061"/>
	</g>
	<g>
		<g>
			<rect x="407.351532" y="198.5999908" class="st7" width="22.7000122" height="28.6000061"/>
			<path class="st8" d="M429.5515137,199.0999908v27.6000061h-21.7000122v-27.6000061H429.5515137 M430.5515137,198.0999908
				h-23.7000122v29.6000061h23.7000122V198.0999908L430.5515137,198.0999908z"/>
		</g>
		<line class="st11" x1="407.2515259" y1="198.4999847" x2="414.851532" y2="208.1999817"/>
		<line class="st11" x1="429.851532" y1="198.4999847" x2="422.2515259" y2="208.1999817"/>
		<line class="st11" x1="407.2515259" y1="227.3999786" x2="414.851532" y2="217.6999817"/>
		<line class="st11" x1="429.851532" y1="227.3999786" x2="422.2515259" y2="217.6999817"/>
	</g>
	<g>
		<polygon class="st7" points="531.3515015,114.2999802 531.3515015,75.2999802 543.0515137,75.2999802 543.0515137,91.4999771 
			559.2515259,91.4999771 559.2515259,114.2999802 		"/>
		<path class="st8" d="M542.5515137,75.7999802v15.1999969v1h1h15.2000122v21.6999969h-15.2000122h-11.7000122V90.9999771
			V75.7999802H542.5515137 M543.5515137,74.7999802h-12.7000122v16.1999969v23.6999969h12.7000122h16.2000122V90.9999771
			h-16.2000122V74.7999802L543.5515137,74.7999802z"/>
	</g>
</g>
<g id="Numbers_2_">
	<g>
		<path class="st6" d="M513.8515015,274.2999573l-1.5999756,1.7999878h2.6999512v1h-4.2000122v-0.8999939l2.1000366-2.2999878
			l0.5-0.6000061c0.0999756-0.1000061,0.2000122-0.2999878,0.2999878-0.5s0.0999756-0.3999939,0.0999756-0.6000061
			c0-0.2999878-0.0999756-0.5-0.2999878-0.7000122s-0.5-0.2999878-0.7999878-0.2999878c-0.5,0-1,0.2000122-1.6000061,0.7000122
			l-0.6000061-0.7000122c0.7000122-0.6000061,1.3999939-1,2.2000122-1c0.6000366,0,1.0999756,0.2000122,1.5,0.6000061
			s0.5999756,0.8999939,0.5999756,1.3999939C514.8515015,272.8999634,514.5515137,273.4999695,513.8515015,274.2999573z"/>
		<path class="st6" d="M516.4515381,277.1999817c-0.2000122,0-0.2999878-0.1000061-0.5-0.2000122
			s-0.2000122-0.2999878-0.2000122-0.5s0.0999756-0.2999878,0.2000122-0.3999939s0.2999878-0.2000122,0.5-0.2000122
			s0.2999878,0.1000061,0.4000244,0.2000122s0.2000122,0.2999878,0.2000122,0.3999939
			c0,0.2000122-0.0999756,0.2999878-0.2000122,0.5S516.6515503,277.1999817,516.4515381,277.1999817z"/>
		<path class="st6" d="M517.5515137,271.2999573v-0.8999939h4.2000122v0.7000122l-2.5,6h-1.0999756l2.5-5.7000122h-3.1000366
			V271.2999573z"/>
	</g>
	<g>
		<path class="st6" d="M457.6515198,220.8999786l1.8999939-1.6000061h0.7999878v6.6999969h-1v-5.3000031l-1.2000122,0.8999939
			L457.6515198,220.8999786z"/>
		<path class="st6" d="M462.2515259,226.0999908c-0.2000122,0-0.2999878-0.1000061-0.5-0.1999969
			c-0.1000061-0.1000061-0.2000122-0.3000031-0.2000122-0.3999939c0-0.1999969,0.1000061-0.3000031,0.2000122-0.3999939
			c0.1000061-0.1000061,0.2999878-0.1999969,0.5-0.1999969s0.2999878,0.1000061,0.3999939,0.1999969
			c0.1000061,0.1000061,0.2000122,0.3000031,0.2000122,0.3999939c0,0.1999969-0.1000061,0.3000031-0.2000122,0.3999939
			S462.4515381,226.0999908,462.2515259,226.0999908z"/>
		<path class="st6" d="M462.9515381,220.8999786l1.8999939-1.6000061h0.7999878v6.6999969h-1v-5.3000031l-1.2000122,0.8999939
			L462.9515381,220.8999786z"/>
	</g>
	<g>
		<path class="st6" d="M291.351532,318.2999573l-1.6000061,1.7999878h2.7000122v1h-4.2000122v-0.8999939l2.1000061-2.2999878
			l0.5-0.6000061c0.1000061-0.1000061,0.2000122-0.2999878,0.2999878-0.5s0.1000061-0.3999939,0.1000061-0.6000061
			c0-0.2999878-0.1000061-0.5-0.2999878-0.7000122c-0.2000122-0.2000122-0.5-0.2999878-0.7999878-0.2999878
			c-0.5,0-1,0.2000122-1.6000061,0.7000122l-0.6000061-0.7000122c0.7000122-0.6000061,1.3999939-1,2.2000122-1
			c0.6000061,0,1.1000061,0.2000122,1.5,0.6000061s0.6000061,0.8999939,0.6000061,1.3999939
			C292.4515381,316.8999634,292.0515137,317.5999756,291.351532,318.2999573z"/>
		<path class="st6" d="M296.4515381,318.2999573l-1.6000061,1.7999878h2.7000122v1h-4.2000122v-0.8999939l2.1000061-2.2999878
			l0.5-0.6000061c0.1000061-0.1000061,0.2000122-0.2999878,0.2999878-0.5s0.1000061-0.3999939,0.1000061-0.6000061
			c0-0.2999878-0.1000061-0.5-0.2999878-0.7000122c-0.2000122-0.2000122-0.5-0.2999878-0.7999878-0.2999878
			c-0.5,0-1,0.2000122-1.6000061,0.7000122l-0.6000061-0.7000122c0.7000122-0.6000061,1.3999939-1,2.2000122-1
			c0.6000061,0,1.1000061,0.2000122,1.5,0.6000061s0.6000061,0.8999939,0.6000061,1.3999939
			C297.5515137,316.8999634,297.1515198,317.5999756,296.4515381,318.2999573z"/>
		<path class="st6" d="M299.0515137,321.1999817c-0.2000122,0-0.2999878-0.1000061-0.5-0.2000122
			c-0.1000061-0.1000061-0.2000122-0.2999878-0.2000122-0.5s0.1000061-0.2999878,0.2000122-0.3999939
			s0.2999878-0.2000122,0.5-0.2000122s0.2999878,0.1000061,0.3999939,0.2000122s0.2000122,0.2999878,0.2000122,0.3999939
			c0,0.2000122-0.1000061,0.2999878-0.2000122,0.5C299.4515381,321.1999817,299.2515259,321.1999817,299.0515137,321.1999817z"/>
		<path class="st6" d="M302.9515381,321.1999817c-0.7000122,0-1.2999878-0.2000122-1.7000122-0.5
			c-0.3999939-0.3999939-0.7000122-0.7999878-0.7000122-1.3999939c0-0.3999939,0.1000061-0.7000122,0.3999939-1
			c0.2000122-0.2999878,0.5-0.5,0.8999939-0.7000122l0,0c-0.2999878-0.1000061-0.6000061-0.3999939-0.7000122-0.6000061
			c-0.2000122-0.2999878-0.2999878-0.5-0.2999878-0.8999939c0-0.5,0.2000122-0.8999939,0.6000061-1.2999878
			c0.3999939-0.2999878,0.8999939-0.5,1.5-0.5s1.1000061,0.2000122,1.5,0.5s0.6000061,0.7999878,0.6000061,1.2999878
			c0,0.2999878-0.1000061,0.6000061-0.2999878,0.8999939s-0.3999939,0.5-0.7000122,0.6000061l0,0
			c0.3999939,0.1000061,0.7000122,0.3999939,0.8999939,0.7000122c0.2000122,0.2999878,0.3999939,0.7000122,0.3999939,1
			c0,0.6000061-0.2000122,1-0.7000122,1.3999939C304.2515259,320.9999695,303.7515259,321.1999817,302.9515381,321.1999817z
			 M302.9515381,320.2999573c0.3999939,0,0.7000122-0.1000061,1-0.2999878c0.2999878-0.2000122,0.3999939-0.5,0.3999939-0.7999878
			s-0.1000061-0.6000061-0.3999939-0.7999878c-0.2999878-0.2000122-0.6000061-0.2999878-1-0.2999878
			s-0.7000122,0.1000061-1,0.2999878c-0.2999878,0.2000122-0.3999939,0.5-0.3999939,0.7999878
			s0.1000061,0.6000061,0.3999939,0.7999878C302.2515259,320.1999817,302.5515137,320.2999573,302.9515381,320.2999573z
			 M303.851532,316.8999634c0.2000122-0.2000122,0.2999878-0.3999939,0.2999878-0.7000122s-0.1000061-0.5-0.2999878-0.7000122
			c-0.2000122-0.2000122-0.5-0.2999878-0.7999878-0.2999878s-0.6000061,0.1000061-0.7999878,0.2999878
			c-0.2000122,0.2000122-0.2999878,0.3999939-0.2999878,0.7000122s0.1000061,0.5,0.2999878,0.7000122
			c0.2000122,0.2000122,0.5,0.2999878,0.7999878,0.2999878C303.351532,317.1999817,303.6515198,317.0999756,303.851532,316.8999634z
			"/>
	</g>
	<g>
		<path class="st6" d="M363.2515259,147.0999908l1.8999939-1.6000061h0.7999878v6.6999969h-1v-5.3000031l-1.2000122,0.8999939
			L363.2515259,147.0999908z"/>
		<path class="st6" d="M369.9515381,147.8999786c0.6000061,0,1.1000061,0.1999969,1.5,0.6000061
			c0.3999939,0.3999939,0.6000061,0.8999939,0.6000061,1.5s-0.2000122,1.1999969-0.7000122,1.6000061
			c-0.3999939,0.3999939-1,0.6000061-1.7000122,0.6000061c-0.7999878,0-1.3999939-0.3000031-1.7999878-0.8999939
			c-0.3999939-0.6000061-0.6000061-1.3999939-0.6000061-2.3000031c0-0.6000061,0.1000061-1.1999969,0.2999878-1.8000031
			c0.2000122-0.5,0.5-1,0.8999939-1.3000031c0.3999939-0.3999939,1-0.5,1.6000061-0.5
			c0.7000122,0,1.2999878,0.1999969,1.7000122,0.6000061l-0.3999939,0.8000031
			c-0.3999939-0.3000031-0.7999878-0.3999939-1.2000122-0.3999939c-0.3999939,0-0.7000122,0.1000061-1,0.3999939
			c-0.5,0.5-0.7999878,1.1999969-0.7999878,2.1000061c0.2000122-0.3000031,0.3999939-0.5,0.7000122-0.6999969
			C369.2515259,147.9999847,369.5515137,147.8999786,369.9515381,147.8999786z M369.7515259,151.3999786
			c0.3999939,0,0.7000122-0.1000061,0.8999939-0.3999939c0.2000122-0.3000031,0.3999939-0.6000061,0.3999939-0.8999939
			c0-0.3999939-0.1000061-0.6999969-0.3999939-0.8999939c-0.2000122-0.1999969-0.5-0.3999939-0.8999939-0.3999939
			s-0.7000122,0.1000061-0.8999939,0.3999939c-0.2000122,0.1999969-0.3999939,0.6000061-0.3999939,0.8999939
			c0,0.3999939,0.1000061,0.6999969,0.3999939,0.8999939C369.0515137,151.1999817,369.351532,151.3999786,369.7515259,151.3999786z"
			/>
	</g>
	<g>
		<path class="st6" d="M492.0515137,147.8999786c0.6000061,0,1.2000122,0.1999969,1.6000061,0.6000061
			c0.3999939,0.3999939,0.6000061,0.8999939,0.6000061,1.6000061c0,0.6999969-0.2000122,1.1999969-0.7000122,1.6000061
			c-0.3999939,0.3999939-1,0.6000061-1.7000122,0.6000061c-0.7999878,0-1.5-0.3000031-2.2000122-0.8000031l0.5-0.8000031
			c0.6000061,0.3999939,1.1000061,0.6000061,1.7000122,0.6000061c0.3999939,0,0.7000122-0.1000061,1-0.3999939
			c0.2999878-0.1999969,0.3999939-0.5,0.3999939-0.8999939s-0.1000061-0.6999969-0.3999939-0.8999939
			c-0.2000122-0.1999969-0.6000061-0.3999939-1-0.3999939c-0.5,0-0.8999939,0.1999969-1.2000122,0.5l-0.6000061-0.3999939
			l0.3999939-3.3000031h3.3999939v0.8999939h-2.5999451l-0.2000122,1.6000061
			C491.351532,147.9999847,491.6515198,147.8999786,492.0515137,147.8999786z"/>
		<path class="st6" d="M495.7515259,152.2999878c-0.2000122,0-0.2999878-0.1000061-0.5-0.1999969
			c-0.1000061-0.1000061-0.2000122-0.3000031-0.2000122-0.3999939c0-0.1999969,0.1000061-0.3000031,0.2000122-0.3999939
			c0.1000061-0.1000061,0.2999878-0.1999969,0.5-0.1999969s0.2999878,0.1000061,0.3999939,0.1999969
			c0.1000061,0.1000061,0.2000122,0.3000031,0.2000122,0.3999939c0,0.1999969-0.1000061,0.3000031-0.2000122,0.3999939
			C496.0515137,152.2999878,495.851532,152.2999878,495.7515259,152.2999878z"/>
		<path class="st6" d="M500.351532,149.4999847l-1.6000061,1.8000031h2.7000122v1h-4.2000122v-0.8999939l2.1000061-2.3000031
			l0.5-0.6000061c0.1000061-0.1000061,0.2000122-0.3000031,0.2999878-0.5
			c0.1000061-0.1999969,0.1000061-0.3999939,0.1000061-0.6000061c0-0.3000031-0.1000061-0.5-0.2999878-0.6999969
			c-0.2000122-0.1999969-0.5-0.3000031-0.7999878-0.3000031c-0.5,0-1,0.1999969-1.6000061,0.6999969l-0.6000061-0.6999969
			c0.7000122-0.6000061,1.3999939-1,2.2000122-1c0.6000061,0,1.1000061,0.1999969,1.5,0.6000061
			c0.3999939,0.3999939,0.6000061,0.8999939,0.6000061,1.3999939
			C501.351532,147.9999847,500.9515381,148.6999817,500.351532,149.4999847z"/>
	</g>
</g>
<g id="street_x5F_anchors">
	<rect id="street_x5F_anchor_x5F_01" x="105.4515305" y="234.9999847" class="st13" width="10" height="10"/>
</g>
</svg>
