<?xml version="1.0" encoding="utf-8"?>
<!-- Generator: Adobe Illustrator 24.2.0, SVG Export Plug-In . SVG Version: 6.00 Build 0)  -->
<!DOCTYPE svg PUBLIC "-//W3C//DTD SVG 1.1//EN" "http://www.w3.org/Graphics/SVG/1.1/DTD/svg11.dtd" [
	<!ENTITY ns_extend "http://ns.adobe.com/Extensibility/1.0/">
	<!ENTITY ns_ai "http://ns.adobe.com/AdobeIllustrator/10.0/">
	<!ENTITY ns_graphs "http://ns.adobe.com/Graphs/1.0/">
	<!ENTITY ns_vars "http://ns.adobe.com/Variables/1.0/">
	<!ENTITY ns_imrep "http://ns.adobe.com/ImageReplacement/1.0/">
	<!ENTITY ns_sfw "http://ns.adobe.com/SaveForWeb/1.0/">
	<!ENTITY ns_custom "http://ns.adobe.com/GenericCustomNamespace/1.0/">
	<!ENTITY ns_adobe_xpath "http://ns.adobe.com/XPath/1.0/">
]>
<svg version="1.1" id="_x31__x5F_2" xmlns:x="&ns_extend;" xmlns:i="&ns_ai;" xmlns:graph="&ns_graphs;"
	 xmlns="http://www.w3.org/2000/svg" xmlns:xlink="http://www.w3.org/1999/xlink" x="0px" y="0px" viewBox="0 0 720 480"
	 style="enable-background:new 0 0 720 480;" xml:space="preserve">
<style type="text/css">
	.st0{fill:#DBD4CA;}
	.st1{clip-path:url(#SVGID_2_);}
	.st2{fill:none;stroke:#C49F8A;stroke-miterlimit:10;}
	.st3{opacity:0.3;clip-path:url(#SVGID_2_);}
	.st4{opacity:0.7;fill:#C49F8A;}
	.st5{fill:none;stroke:#565440;}
	.st6{fill:#565440;}
	.st7{fill:none;stroke:#565440;stroke-width:1.0000414;stroke-miterlimit:4.0001655;}
	.st8{fill:#E9E4DC;}
	.st9{fill:#C49F8A;}
	.st10{fill:#E9E4DC;stroke:#C49F8A;stroke-linejoin:round;}
	.st11{fill:#E9E4DC;stroke:#C49F8A;}
	.st12{fill:#E9E4DC;stroke:#C49F8A;stroke-miterlimit:3.9998;}
	.st13{fill:none;stroke:#C49F8A;}
	.st14{fill:none;}
</style>
<metadata>
	<sfw  xmlns="&ns_sfw;">
		<slices></slices>
		<sliceSourceBounds  bottomLeftOrigin="true" height="667.6734619" width="667.6734619" x="-63.2907143" y="-182.4686279">
			</sliceSourceBounds>
	</sfw>
</metadata>
<polygon id="Floor" class="st0" points="534.4000244,60.5 534.4000244,83.1999969 549.1804199,89.5141068 528.5,169.8999939 
	527.7999878,239.5 547.5,247.3000031 526.815979,329.1558228 526.2269897,406.8999939 161.1999969,406.8999939 161.1999969,60.5 "/>
<g id="Wet_Floor_1_">
	<defs>
		<rect id="SVGID_1_" x="171.2335205" y="280.1173401" width="124.0486908" height="124.0486908"/>
	</defs>
	<clipPath id="SVGID_2_">
		<use xlink:href="#SVGID_1_"  style="overflow:visible;"/>
	</clipPath>
	<g class="st1">
		<g>
			<line class="st2" x1="-52.5158119" y1="339.0532837" x2="280.9673767" y2="5.5700808"/>
			<line class="st2" x1="-62.9371605" y1="328.6319275" x2="270.546051" y2="-4.8512673"/>
			<line class="st2" x1="-42.0944633" y1="349.4746399" x2="291.3887329" y2="15.9914293"/>
			<line class="st2" x1="-31.6731148" y1="359.8959656" x2="301.8100891" y2="26.4127769"/>
			<line class="st2" x1="-21.2517662" y1="370.3173218" x2="312.2314453" y2="36.8341255"/>
			<line class="st2" x1="-10.8304186" y1="380.738678" x2="322.652771" y2="47.2554741"/>
			<line class="st2" x1="-0.4090704" y1="391.1600342" x2="333.0741272" y2="57.6768227"/>
			<line class="st2" x1="10.0122776" y1="401.5813599" x2="343.4954834" y2="68.0981674"/>
			<line class="st2" x1="20.4336262" y1="412.0027161" x2="353.9168091" y2="78.519516"/>
			<line class="st2" x1="30.8549747" y1="422.4240723" x2="364.3381653" y2="88.9408646"/>
			<line class="st2" x1="20.4336262" y1="412.0027161" x2="353.9168091" y2="78.519516"/>
			<line class="st2" x1="41.2763214" y1="432.8454285" x2="374.7595215" y2="99.3622131"/>
			<line class="st2" x1="51.69767" y1="443.2667542" x2="385.1808777" y2="109.7835617"/>
			<line class="st2" x1="62.1190186" y1="453.6881104" x2="395.6022034" y2="120.2049103"/>
			<line class="st2" x1="72.5403671" y1="464.1094666" x2="406.0235596" y2="130.6262665"/>
			<line class="st2" x1="82.9617157" y1="474.5308228" x2="416.4449158" y2="141.0476074"/>
			<line class="st2" x1="93.3830643" y1="484.9521484" x2="426.866272" y2="151.4689636"/>
			<line class="st2" x1="103.8044128" y1="495.3735046" x2="437.2875977" y2="161.8903046"/>
			<line class="st2" x1="114.2257614" y1="505.7948608" x2="447.7089539" y2="172.3116608"/>
			<line class="st2" x1="103.8044128" y1="495.3735046" x2="437.2875977" y2="161.8903046"/>
			<line class="st2" x1="124.64711" y1="516.2161865" x2="458.1303101" y2="182.7330017"/>
			<line class="st2" x1="135.0684509" y1="526.6375732" x2="468.5516663" y2="193.1543579"/>
			<line class="st2" x1="145.4898071" y1="537.0588989" x2="478.9729919" y2="203.5756989"/>
			<line class="st2" x1="155.9111481" y1="547.4802246" x2="489.3943481" y2="213.9970551"/>
			<line class="st2" x1="166.3325043" y1="557.9016113" x2="499.8157043" y2="224.418396"/>
			<line class="st2" x1="176.7538452" y1="568.322937" x2="510.2370605" y2="234.8397522"/>
			<line class="st2" x1="187.1752014" y1="578.7442627" x2="520.6583862" y2="245.2610931"/>
			<line class="st2" x1="197.5965424" y1="589.1656494" x2="531.0797729" y2="255.6824493"/>
			<line class="st2" x1="187.1752014" y1="578.7442627" x2="520.6583862" y2="245.2610931"/>
			<line class="st2" x1="208.0178986" y1="599.5869751" x2="541.5010986" y2="266.1037903"/>
			<line class="st2" x1="218.4392395" y1="610.0083618" x2="551.9224243" y2="276.5251465"/>
			<line class="st2" x1="228.8605957" y1="620.4296875" x2="562.343811" y2="286.9464722"/>
			<line class="st2" x1="239.2819366" y1="630.8510132" x2="572.7651367" y2="297.3678284"/>
			<line class="st2" x1="249.7032928" y1="641.2723999" x2="583.1864624" y2="307.7891846"/>
			<line class="st2" x1="260.1246338" y1="651.6937256" x2="593.6078491" y2="318.2105408"/>
			<line class="st2" x1="270.54599" y1="662.1150513" x2="604.0291748" y2="328.6318665"/>
		</g>
		<g>
			<line class="st2" x1="280.9672852" y1="651.6936035" x2="-52.51577" y2="318.2105103"/>
			<line class="st2" x1="270.545929" y1="662.1149292" x2="-62.9371185" y2="328.6318665"/>
			<line class="st2" x1="291.3886414" y1="641.2722168" x2="-42.0944214" y2="307.7891846"/>
			<line class="st2" x1="301.809967" y1="630.8508911" x2="-31.6730728" y2="297.3678284"/>
			<line class="st2" x1="312.2313232" y1="620.4295044" x2="-21.2517242" y2="286.9464722"/>
			<line class="st2" x1="322.6526794" y1="610.0081787" x2="-10.8303757" y2="276.5251465"/>
			<line class="st2" x1="333.0740356" y1="599.586853" x2="-0.4090278" y2="266.1037903"/>
			<line class="st2" x1="343.4953613" y1="589.1654663" x2="10.0123205" y2="255.6824341"/>
			<line class="st2" x1="353.9167175" y1="578.7441406" x2="20.4336681" y2="245.2610931"/>
			<line class="st2" x1="364.3380737" y1="568.3228149" x2="30.8550167" y2="234.8397369"/>
			<line class="st2" x1="353.9167175" y1="578.7441406" x2="20.4336681" y2="245.2610931"/>
			<line class="st2" x1="374.7594299" y1="557.9014282" x2="41.2763672" y2="224.418396"/>
			<line class="st2" x1="385.1807556" y1="547.4801025" x2="51.6977158" y2="213.9970398"/>
			<line class="st2" x1="395.6021118" y1="537.0587158" x2="62.1190643" y2="203.5756989"/>
			<line class="st2" x1="406.023468" y1="526.6373901" x2="72.5404129" y2="193.1543427"/>
			<line class="st2" x1="416.4448242" y1="516.2160645" x2="82.9617615" y2="182.7330017"/>
			<line class="st2" x1="426.8661499" y1="505.7947083" x2="93.38311" y2="172.3116455"/>
			<line class="st2" x1="437.2875061" y1="495.3733521" x2="103.8044586" y2="161.8903046"/>
			<line class="st2" x1="447.7088623" y1="484.9519958" x2="114.2258072" y2="151.4689484"/>
			<line class="st2" x1="437.2875061" y1="495.3733521" x2="103.8044586" y2="161.8903046"/>
			<line class="st2" x1="458.1302185" y1="474.5306396" x2="124.6471558" y2="141.0476074"/>
			<line class="st2" x1="468.5515442" y1="464.109314" x2="135.0684967" y2="130.6262512"/>
			<line class="st2" x1="478.9729004" y1="453.6879578" x2="145.4898529" y2="120.2049026"/>
			<line class="st2" x1="489.3942566" y1="443.2666016" x2="155.9111938" y2="109.7835541"/>
			<line class="st2" x1="499.8156128" y1="432.8452759" x2="166.33255" y2="99.3622055"/>
			<line class="st2" x1="510.2369385" y1="422.4239197" x2="176.753891" y2="88.9408569"/>
			<line class="st2" x1="520.6583252" y1="412.0025635" x2="187.1752472" y2="78.519516"/>
			<line class="st2" x1="531.0796509" y1="401.5812073" x2="197.5965881" y2="68.0981674"/>
			<line class="st2" x1="520.6583252" y1="412.0025635" x2="187.1752472" y2="78.519516"/>
			<line class="st2" x1="541.5009766" y1="391.1598816" x2="208.0179443" y2="57.676815"/>
			<line class="st2" x1="551.9223633" y1="380.7385254" x2="218.4392853" y2="47.2554665"/>
			<line class="st2" x1="562.343689" y1="370.3171692" x2="228.8606415" y2="36.8341179"/>
			<line class="st2" x1="572.7650146" y1="359.895813" x2="239.2819824" y2="26.4127712"/>
			<line class="st2" x1="583.1864014" y1="349.4744873" x2="249.7033386" y2="15.9914217"/>
			<line class="st2" x1="593.6077271" y1="339.0531311" x2="260.1246948" y2="5.5700736"/>
			<line class="st2" x1="604.0290527" y1="328.6317749" x2="270.5460205" y2="-4.8512745"/>
		</g>
	</g>
	<g class="st3">
		<rect x="109.4665222" y="157.131012" class="st4" width="322.1589355" height="322.1589355"/>
	</g>
</g>
<path id="Doors" class="st5" d="M243.6819611,284.9946899c0,5.3805237,0.9781494,9.7823486,2.9348755,14.6741028
	c1.9567261,4.8911438,4.8911438,9.2936096,8.3154602,12.7173157c3.4241486,3.9125366,7.8261566,6.8474121,12.7173004,8.8042908
	c4.8911438,1.9567261,9.7824402,2.9348755,15.1628723,2.9348755v-39.1299744 M370.8557739,245.8641815
	c0,5.3805084-0.9781189,9.7823639-2.934845,14.6740265c-1.9562988,4.8912354-4.8911438,9.2935181-8.3154602,12.7173157
	c-3.4237061,3.9130859-7.8261719,6.8479309-12.7173157,8.8042297c-4.8917542,1.9562683-9.7828979,2.9349365-15.1633301,2.9349365
	v-39.1305084 M160.5293579,192.0601501c-6.3585815,0-12.2284698,1.4674377-18.0977478,3.9130859
	c-5.8692932,2.4456482-11.7391663,5.8693542-16.1410217,10.7610321c-4.402298,4.4023743-8.3154602,9.7828827-10.7610321,15.6521759
	c-2.4455719,5.869812-3.913002,12.2284546-3.913002,18.5871124h48.9128036"/>
<g id="Walls">
	<path class="st6" d="M545.3869019,402.3915405h-8.3286743v-78.2609863h-29.3028564v78.2609863H297.3846436V285.0001221h29.3474731
		v-4.8912354v-34.2393188h4.8912964v-4.8911133h-34.2387695v4.8911133h24.4562988v34.2393188h-39.1304932v4.8912354h9.7824097
		v117.3914185h-97.9943848v-19.6915283h-19.3970947v-97.6998901h68.4786987v-4.8912354h-68.4786987v-39.1304321h-14.6734619
		v161.4130859v14.673584h383.5623169L556.1479492,420l3.4241333-14.1847534L545.3869019,402.3915405z M175.1013794,387.5h14.3970947
		v14.8915405h-14.3970947V387.5z"/>
	<path class="st6" d="M175.1013794,168.9490356h28.1125488v-4.9152222h-28.1125488V74.673584h82.6970825v17.6264038h20.7000122
		V74.673584h229.2523804v12.1359253h24.4160767l23.9676514,5.3800049l3.4241333-14.1847534l-22.5004883-5.0511475V60H160.4279175
		v14.673584v117.3914795h14.6734619V168.9490356z M273.5985107,87.4000244h-10.9000244V74.673584h10.9000244V87.4000244z"/>
	<polygon class="st6" points="537.0576172,223.1159668 537.0576172,183.1879272 540.9707642,166.2312622 517.0036011,160.850769 
		512.6013184,179.4378662 512.6013184,199.0119629 512.597229,199.0119629 512.597229,240.9867554 370.7493896,240.9867554 
		370.7493896,245.8779297 532.1625977,245.8779297 556.130188,251.2584229 559.5539551,237.0736694 537.0537109,232.022583 
		537.0537109,223.1159668 	"/>
</g>
<g id="Windows">
	
		<rect x="497.8015747" y="281.9463501" transform="matrix(0.2514896 -0.96786 0.96786 0.2514896 129.1440125 738.2088623)" class="st7" width="88.0805054" height="7.3267212"/>
	
		<rect x="502.737793" y="124.7233124" transform="matrix(0.2514896 -0.96786 0.96786 0.2514896 282.0795898 621.5158691)" class="st7" width="80.2539368" height="7.3267365"/>
</g>
<g id="Furniture_2_">
	<g>
		<g>
			<rect x="205.4963226" y="366.1915283" class="st8" width="86.4999847" height="35.7000122"/>
			<path class="st9" d="M291.4963074,366.6915283v34.7000122h-85.5v-34.7000122H291.4963074 M292.4963074,365.6915283h-87.5
				v36.7000122h87.5V365.6915283L292.4963074,365.6915283z"/>
		</g>
		<g>
			<g>
				<path class="st10" d="M212.4963226,383.9915161c0,6.7999878,5.8000031,12,12.5,11.3999939
					c7.3999939-0.7000122,16.6000061-1.2999878,23.5-1.2999878c6.8000031,0,16.0999908,0.7000122,23.4999847,1.2999878
					c6.7000122,0.6000061,12.5-4.7000122,12.5-11.3999939s-5.7999878-12-12.5-11.3999939
					c-7.3999939,0.7000122-16.6000061,1.2999878-23.5,1.2999878c-6.8000031,0-16.1000061-0.7000122-23.5-1.2999878
					C218.2963257,372.0915222,212.4963226,377.2915039,212.4963226,383.9915161z"/>
				<ellipse class="st10" cx="224.1963196" cy="383.9915161" rx="1.6999969" ry="1.7000122"/>
			</g>
		</g>
	</g>
	<g>
		<g>
			<rect x="413.3236084" y="303.9969177" class="st8" width="78.7999878" height="97.8999939"/>
			<path class="st9" d="M413.8236084,304.4969177h77.7999878v96.8999939h-77.7999878V304.4969177 M412.8236084,303.4969177
				v98.8999939h79.7999878v-98.8999939H412.8236084L412.8236084,303.4969177z"/>
		</g>
		<rect x="419.6235962" y="370.8969116" class="st11" width="31.1000061" height="24.5"/>
		<rect x="454.6235962" y="370.8969116" class="st11" width="31.1000061" height="24.5"/>
		<polygon class="st12" points="423.4236145,380.7969055 445.9236145,387.1969299 452.0236206,363.4969177 429.5236206,357.1969299 
					"/>
		<polygon class="st12" points="453.6235962,363.4969177 459.6235962,387.1969299 482.1235962,380.7969055 476.1235962,357.1969299 
					"/>
		<g>
			<polygon class="st8" points="413.3236084,375.9969177 413.3236084,302.9969177 492.1235962,302.9969177 492.1235962,381.1969299 
				460.7236023,383.1969299 			"/>
			<path class="st9" d="M413.8236084,303.4969177h77.7000122v76.6000061v0.6000061l-30.8999939,2l-46.8999939-7.1000061
				L413.8236084,303.4969177 M412.8236084,302.4969177v73.3999939v0.5l47.7999878,7.2999878l31.8999939-2.1000061v-1.6000061
				v-77.4999695H412.8236084L412.8236084,302.4969177z"/>
		</g>
		<polyline class="st13" points="491.5236206,379.0969238 460.4236145,379.0969238 413.7236023,375.0969238 		"/>
	</g>
	<g>
		<rect x="175.5872498" y="285.4925842" class="st8" width="10.6999969" height="47.6000061"/>
		<path class="st9" d="M185.7872467,285.9925842v46.6000061h-9.6999969v-46.6000061H185.7872467 M186.7872467,284.9925842
			h-11.6999969v48.6000061h11.6999969V284.9925842L186.7872467,284.9925842z"/>
	</g>
	<g>
		<polygon class="st8" points="194.9907837,401.8915405 194.9907837,382.2073364 175.5870819,382.2073364 175.5870819,365.1915588 
			205.4963074,365.1915588 205.4963074,401.8915405 		"/>
		<path class="st9" d="M204.9963074,365.6915588v17.3999939v18.2999878h-9.5055084v-18.6842041v-1h-1h-18.403717v-16.0157776
			h18.0092316H204.9963074 M205.9963074,364.6915588h-11.8999939h-19.0092316v18.0157776h19.403717v19.6842041h11.5055084
			v-19.2999878V364.6915588L205.9963074,364.6915588z"/>
	</g>
	<g>
		<path class="st11" d="M456.8588867,108.9687119c0,1.4000015-1.2000122,2.5999985-2.6000061,2.5999985h-39.1000061
			c-1.3999939,0-2.6000061-1.1999969-2.6000061-2.5999985V83.3687057h44.2999878L456.8588867,108.9687119L456.8588867,108.9687119z"
			/>
		<path class="st11" d="M499.0588989,108.9687119c0,1.4000015-1.2000122,2.5999985-2.6000061,2.5999985h-37.1000061
			c-1.3999939,0-2.6000061-1.1999969-2.6000061-2.5999985V83.3687057h42.2999878v25.6000061H499.0588989z"/>
		<polygon class="st11" points="499.0588989,113.6687088 499.0588989,83.3687057 455.7588806,83.3687057 412.5588989,83.3687057 
			412.5588989,113.6687088 404.3588867,113.6687088 404.3588867,75.1687088 507.2588806,75.1687088 507.2588806,113.6687088 		"/>
	</g>
	<g>
		<path class="st8" d="M340.0236206,98.4754639c-5.7000122,0-10.2999878-4.5999985-10.2999878-10.3000031
			c0-5.6999969,4.6000061-10.3000031,10.2999878-10.3000031s10.2999878,4.6000061,10.2999878,10.3000031
			C350.4236145,93.8754654,345.7236023,98.4754639,340.0236206,98.4754639z"/>
		<path class="st9" d="M340.0236206,78.2754669c5.3999939,0,9.7999878,4.4000015,9.7999878,9.8000031
			s-4.3999939,9.8000031-9.7999878,9.8000031s-9.7999878-4.4000015-9.7999878-9.8000031
			S334.6235962,78.2754669,340.0236206,78.2754669 M340.0236206,77.2754669c-6,0-10.7999878,4.9000015-10.7999878,10.8000031
			c0,6,4.8999939,10.8000031,10.7999878,10.8000031s10.7999878-4.9000015,10.7999878-10.8000031
			S346.0236206,77.2754669,340.0236206,77.2754669L340.0236206,77.2754669z"/>
	</g>
	<g>
		<path class="st8" d="M340.0236206,132.1754608c-5.7000122,0-10.2999878-4.6000061-10.2999878-10.3000031
			s4.6000061-10.3000031,10.2999878-10.3000031s10.2999878,4.5999985,10.2999878,10.3000031
			C350.4236145,127.57547,345.7236023,132.1754608,340.0236206,132.1754608z"/>
		<path class="st9" d="M340.0236206,112.0754623c5.3999939,0,9.7999878,4.4000015,9.7999878,9.8000031
			s-4.3999939,9.7999954-9.7999878,9.7999954s-9.7999878-4.4000015-9.7999878-9.8000031
			S334.6235962,112.0754623,340.0236206,112.0754623 M340.0236206,111.0754623c-6,0-10.7999878,4.9000015-10.7999878,10.8000031
			s4.8999939,10.7999954,10.7999878,10.7999954s10.7999878-4.8999939,10.7999878-10.8000031
			C350.8236084,115.9754639,346.0236206,111.0754623,340.0236206,111.0754623L340.0236206,111.0754623z"/>
	</g>
	<g>
		<path class="st8" d="M340.0236206,166.3754578c-5.7000122,0-10.2999878-4.6000061-10.2999878-10.3000031
			s4.6000061-10.3000031,10.2999878-10.3000031s10.2999878,4.6000061,10.2999878,10.3000031
			C350.4236145,161.6754608,345.7236023,166.3754578,340.0236206,166.3754578z"/>
		<path class="st9" d="M340.0236206,146.1754608c5.3999939,0,9.7999878,4.3999939,9.7999878,9.8000031
			s-4.3999939,9.8000031-9.7999878,9.8000031s-9.7999878-4.3999939-9.7999878-9.8000031
			S334.6235962,146.1754608,340.0236206,146.1754608 M340.0236206,145.1754608c-6,0-10.7999878,4.8999939-10.7999878,10.8000031
			s4.8999939,10.8000031,10.7999878,10.8000031s10.7999878-4.8999939,10.7999878-10.8000031
			S346.0236206,145.1754608,340.0236206,145.1754608L340.0236206,145.1754608z"/>
	</g>
	<g>
		<g>
			<rect x="278.3236084" y="75.1754608" class="st8" width="43.6000061" height="92.5"/>
			<path class="st9" d="M321.4236145,75.6754608v91.5h-42.6000061v-91.5H321.4236145 M322.4236145,74.6754608h-44.6000061v93.5
				h44.6000061V74.6754608L322.4236145,74.6754608z"/>
		</g>
		<g>
			<rect x="304.8236084" y="75.1754608" class="st8" width="3.7000122" height="92.5"/>
			<path class="st9" d="M308.0236206,75.6754608v91.5h-2.7000122v-91.5H308.0236206 M309.0236206,74.6754608h-4.7000122v93.5
				h4.7000122V74.6754608L309.0236206,74.6754608z"/>
		</g>
	</g>
	<g>
		<g>
			<rect x="314.961792" y="285.4897156" class="st8" width="11.2000122" height="116.401825"/>
			<path class="st9" d="M315.461792,285.9897156h10.2000122v115.401825H315.461792V285.9897156 M314.461792,284.9897156v117.401825
				h12.2000122v-117.401825H314.461792L314.461792,284.9897156z"/>
		</g>
		<g>
			<rect x="297.8618164" y="285.4897156" class="st8" width="26.5" height="116.401825"/>
			<path class="st9" d="M323.8618164,285.9897156v115.401825h-25.5v-115.401825H323.8618164 M324.8618164,284.9897156h-27.5
				v117.401825h27.5V284.9897156L324.8618164,284.9897156z"/>
		</g>
		<path class="st11" d="M298.2618103,285.4897156l25.7000122,116.8018188"/>
	</g>
	<g>
		<g>
			<rect x="175.6236267" y="175.3171692" class="st8" width="23.6999969" height="11.1999969"/>
			<path class="st9" d="M176.1236267,175.8171692h22.6999969v10.1999969h-22.6999969V175.8171692 M175.1236267,174.8171692
				v12.1999969h24.6999969v-12.1999969H175.1236267L175.1236267,174.8171692z"/>
		</g>
		<g>
			<rect x="175.6236267" y="169.4171753" class="st8" width="23.6999969" height="15.1999969"/>
			<path class="st9" d="M176.1236267,169.9171753h22.6999969v14.1999969h-22.6999969V169.9171753 M175.1236267,168.9171753
				v16.1999969h24.6999969v-16.1999969H175.1236267L175.1236267,168.9171753z"/>
		</g>
		<path class="st11" d="M199.3236237,169.4171753l-23.6999969,15.3999939"/>
	</g>
	<g>
		<g>
			<rect x="175.5891113" y="251.6173248" class="st8" width="66.0999908" height="11.1999969"/>
			<path class="st9" d="M176.0891113,252.1173248h65.0999908v10.2000275h-65.1000061L176.0891113,252.1173248
				 M175.0891113,251.1173248v12.2000275h67.0999908v-12.2000275H175.0891113L175.0891113,251.1173248z"/>
		</g>
		<g>
			<rect x="175.5891113" y="253.4173279" class="st8" width="66.0999908" height="26.1999817"/>
			<path class="st9" d="M176.0891113,253.9173279h65.0999908v25.2000122h-65.1000061L176.0891113,253.9173279
				 M175.0891113,252.9173279v27.2000122h67.0999908v-27.2000122H175.0891113L175.0891113,252.9173279z"/>
		</g>
		<path class="st11" d="M175.3891144,279.2173462l66.8000031-25.4000092"/>
	</g>
	<g>
		<g>
			<rect x="297.9653625" y="246.4380341" class="st8" width="23.3999939" height="33.0999908"/>
			<path class="st9" d="M320.8653564,246.9380341v32.1999969h-22.3999939v-32.1000061L320.8653564,246.9380341
				 M321.8653564,245.9380341h-24.3999939v34.1999969h24.3999939V245.9380341L321.8653564,245.9380341z"/>
		</g>
		<g>
			<line class="st13" x1="298.1653442" y1="246.638031" x2="305.8653564" y2="257.5380249"/>
		</g>
		<g>
			<line class="st13" x1="321.1653442" y1="246.638031" x2="313.4653625" y2="257.5380249"/>
		</g>
		<g>
			<line class="st13" x1="298.1653442" y1="279.4380188" x2="305.8653564" y2="268.5380249"/>
		</g>
		<g>
			<line class="st13" x1="321.1653442" y1="279.4380188" x2="313.4653625" y2="268.5380249"/>
		</g>
	</g>
	<g id="Toilet_3_">
		<g id="Rectangle_21_3_">
			<rect x="186.4872437" y="295.0925903" class="st8" width="8.5" height="26.5"/>
			<path class="st9" d="M194.4872437,295.5925903v25.5h-7.5v-25.5H194.4872437 M195.4872437,294.5925903h-9.5v27.5h9.5V294.5925903
				L195.4872437,294.5925903z"/>
		</g>
		<path id="Rectangle_19_x5F_2_3_" class="st11" d="M207.9872437,317.6925964c4,0.2999878,7.3999939-2.8999939,7.3999939-6.8999939
			l0,0c0-4-3.3999939-7.2000122-7.3999939-6.8999939l-12.8000031,0.8999939v12.1000061L207.9872437,317.6925964z"/>
		<path id="Rectangle_18_x5F_13_3_" class="st11" d="M207.9872437,316.2926025c3.1999969,0.2999878,6-2.2999878,6-5.5l0,0
			c0-3.2999878-2.8000031-5.7999878-6-5.5l-8.8000031,0.7999878v9.3999939L207.9872437,316.2926025z"/>
		<ellipse id="Ellipse_6_x5F_2_3_" class="st11" cx="203.1872406" cy="310.7926025" rx="1.6999969" ry="1.7000122"/>
	</g>
	<g id="Sink_2_2_">
		<g id="Rectangle_16_x5F_11">
			<rect x="175.4870911" y="333.0926208" class="st8" width="23.6000061" height="32.098938"/>
			<path class="st9" d="M198.687088,333.5926208v31.098938h-22.6000061v-31.098938H198.687088 M199.687088,332.5926208h-24.6000061
				v33.098938h24.6000061V332.5926208L199.687088,332.5926208z"/>
		</g>
		<path id="Rectangle_19_x5F_5_2_" class="st11" d="M187.4870911,361.9920959L187.4870911,361.9920959
			c4.1000061,0,7.5-3.2999878,7.5-7.5v-10.7000122c0-4.1000061-3.3000031-7.5-7.5-7.5l0,0c-4.1000061,0-7.5,3.2999878-7.5,7.5
			v10.7000122C179.9870911,358.6920776,183.387085,361.9920959,187.4870911,361.9920959z"/>
		<path id="Ellipse_7_x5F_2" class="st11" d="M183.4870911,350.846344c0.8999939,0,1.6000061-0.7000122,1.6999969-1.7000122
			c0-0.8999939-0.6000061-1.6000061-1.6999969-1.7000122c-0.8999939-0.1000061-1.6999969,0.7000122-1.6999969,1.7000122
			C181.887085,350.0463257,182.5870819,350.846344,183.4870911,350.846344z"/>
	</g>
	<g id="TV">
		<g id="Rectangle_16">
			<rect x="423.7236023" y="226.4754639" class="st8" width="74" height="10"/>
			<path class="st9" d="M497.2236023,226.9754639v9h-73v-9H497.2236023 M498.2236023,225.9754639h-75v11h75V225.9754639
				L498.2236023,225.9754639z"/>
		</g>
		<g id="Rectangle_15">
			<rect x="423.7236023" y="228.4754639" class="st8" width="74" height="12"/>
			<path class="st9" d="M497.2236023,228.9754639v11h-73v-11H497.2236023 M498.2236023,227.9754639h-75v13h75V227.9754639
				L498.2236023,227.9754639z"/>
		</g>
		<rect id="Rectangle_17" x="436.7236023" y="236.6754608" class="st11" width="48" height="1.8000031"/>
		<path id="Rectangle_18_x5F_2" class="st11" d="M450.5236206,238.57547h20.2999878l-1.7999878,1.8000031h-16.6000061
			L450.5236206,238.57547z"/>
	</g>
	<g id="TV_1_">
		<g id="Rectangle_16_1_">
			<rect x="423.2236023" y="250.4012299" class="st8" width="74" height="9.9999847"/>
			<path class="st9" d="M496.7236023,250.9012299v8.9999847h-73v-9L496.7236023,250.9012299 M497.7236023,249.9012299h-75
				v10.9999847h75V249.9012299L497.7236023,249.9012299z"/>
		</g>
		<g id="Rectangle_15_1_">
			<rect x="423.2236023" y="246.4012299" class="st8" width="74" height="11.9999847"/>
			<path class="st9" d="M496.7236023,246.9012299v10.9999847h-73v-11L496.7236023,246.9012299 M497.7236023,245.9012299h-75
				v12.9999847h75V245.9012299L497.7236023,245.9012299z"/>
		</g>
		<rect id="Rectangle_17_1_" x="436.2236023" y="248.3012238" class="st11" width="48" height="1.8000031"/>
		<path id="Rectangle_18_x5F_2_1_" class="st11" d="M450.1235962,248.3012238h20.2999878l-1.7999878-1.8000031h-16.6000061
			L450.1235962,248.3012238z"/>
	</g>
	<g id="Kitchen_1_">
		<g id="Rectangle_24_1_">
			<rect x="175.7236176" y="75.1754608" class="st8" width="80.8000031" height="31"/>
			<path class="st9" d="M256.0236206,75.6754608v30h-79.7999878v-30H256.0236206 M257.0236206,74.6754608h-81.7999878v32h81.7999878
				V74.6754608L257.0236206,74.6754608z"/>
		</g>
		<g id="Rectangle_24_2_">
			<rect x="175.6236267" y="75.1754608" class="st8" width="29.8999939" height="55.2230225"/>
			<path class="st9" d="M205.0236206,75.6754608v54.2230225h-28.8999939V75.6754608H205.0236206 M206.0236206,74.6754608
				h-30.8999939v56.2230225h30.8999939V74.6754608L206.0236206,74.6754608z"/>
		</g>
		<g id="Rectangle_27">
			<rect x="175.6236267" y="130.3895721" class="st8" width="29.8999939" height="29.8999939"/>
			<path class="st9" d="M205.0236206,130.8895721v28.8999939h-28.8999939v-28.8999939H205.0236206 M206.0236206,129.8895721
				h-30.8999939v31h30.8999939V129.8895721L206.0236206,129.8895721z"/>
		</g>
		<g id="Rectangle_27_1_">
			<rect x="175.6236267" y="160.3895721" class="st8" width="29.8999939" height="3.1999969"/>
			<path class="st9" d="M205.0236206,160.8895721v2.1999969h-28.8999939v-2.1999969H205.0236206 M206.0236206,159.8895721
				h-30.8999939v4.1999969h30.8999939V159.8895721L206.0236206,159.8895721z"/>
		</g>
		<g id="Rectangle_27_2_">
			<rect x="203.7236176" y="130.3895721" class="st8" width="1.8000031" height="29.8999939"/>
			<path class="st9" d="M204.9236298,130.8895721v29h-0.6999969v-29H204.9236298 M205.9236298,129.8895721h-2.6999969v31h2.8000031
				v-31H205.9236298z"/>
		</g>
		<g id="Sink_3_1_">
			<rect id="Rectangle_28_x5F_2_1_" x="179.2236176" y="83.8754654" class="st11" width="21.8000031" height="34.5"/>
			<path id="Rectangle_29_x5F_2_1_" class="st11" d="M190.1236267,97.4754639L190.1236267,97.4754639
				c4.5,0,8.1999969,3.6999969,8.1999969,8.1999969v1.8000031c0,4.5-3.6999969,8.1999969-8.1999969,8.1999969l0,0
				c-4.5,0-8.1999969-3.6999969-8.1999969-8.1999969v-1.8000031
				C182.0236206,101.0754623,185.6236267,97.4754639,190.1236267,97.4754639z"/>
			<ellipse id="Ellipse_7_x5F_3_1_" class="st11" cx="186.5236206" cy="107.3754654" rx="1.6999969" ry="1.6999969"/>
			<path id="Vector_2_1_" class="st13" d="M182.0236206,85.6754608v9.0999985 M184.7236176,85.6754608v9.0999985
				 M187.4236298,85.6754608v9.0999985 M190.1236267,85.6754608v9.0999985 M192.8236237,85.6754608v9.0999985
				 M195.6236267,85.6754608v9.0999985 M198.3236237,85.6754608v9.0999985"/>
		</g>
		<g id="Stove_1_">
			<g id="Rectangle_25_1_">
				<rect x="227.1931" y="75.1754608" class="st8" width="30.0999908" height="31"/>
				<path class="st9" d="M256.7930908,75.6754608v30h-29.1000061v-30H256.7930908 M257.7930908,74.6754608h-31.1000061v32
					h31.1000061V74.6754608L257.7930908,74.6754608z"/>
			</g>
			<g id="Rectangle_28_x5F_3_1_">
				<rect x="227.1931" y="75.1754608" class="st8" width="30.0999908" height="1.8000031"/>
				<path class="st9" d="M256.7930908,75.6754608v0.8000031h-29.1000061v-0.8000031H256.7930908 M257.7930908,74.6754608
					h-31.1000061v2.8000031h31.1000061V74.6754608L257.7930908,74.6754608z"/>
			</g>
			<g id="Ellipse_7_x5F_4_1_">
				<path class="st8" d="M249.3930969,88.7754669c-1.8999939,0-3.5-1.5999985-3.5-3.5s1.6000061-3.5,3.5-3.5s3.5,1.5999985,3.5,3.5
					C252.8930969,87.2754669,251.2931061,88.7754669,249.3930969,88.7754669z"/>
				<path class="st9" d="M249.3930969,82.2754669c1.6999969,0,3,1.3000031,3,3s-1.3000031,3-3,3s-3-1.3000031-3-3
					S247.6931,82.2754669,249.3930969,82.2754669 M249.3930969,81.2754669c-2.1999969,0-4,1.8000031-4,4s1.8000031,4,4,4
					s4-1.8000031,4-4S251.5931091,81.2754669,249.3930969,81.2754669L249.3930969,81.2754669z"/>
			</g>
			<g id="Ellipse_9_1_">
				<circle class="st8" cx="249.3930969" cy="97.2754669" r="4.5"/>
				<path class="st9" d="M249.3930969,93.2754669c2.1999969,0,4,1.8000031,4,4s-1.8000031,4-4,4s-4-1.8000031-4-4
					S247.1931,93.2754669,249.3930969,93.2754669 M249.3930969,92.2754669c-2.8000031,0-5,2.1999969-5,5s2.1999969,5,5,5
					s5-2.1999969,5-5C254.2931061,94.5754623,252.0931091,92.2754669,249.3930969,92.2754669L249.3930969,92.2754669z"/>
			</g>
			<g id="Ellipse_10_1_">
				<path class="st8" d="M235.3930969,89.7754669c-2.5,0-4.5-2-4.5-4.5s2-4.5,4.5-4.5s4.5,2,4.5,4.5
					S237.8930969,89.7754669,235.3930969,89.7754669z"/>
				<path class="st9" d="M235.3930969,81.2754669c2.1999969,0,4,1.8000031,4,4s-1.8000031,4-4,4s-4-1.8000031-4-4
					S233.1931,81.2754669,235.3930969,81.2754669 M235.3930969,80.2754669c-2.8000031,0-5,2.1999969-5,5s2.1999969,5,5,5
					s5-2.1999969,5-5C240.3930969,82.5754623,238.0931091,80.2754669,235.3930969,80.2754669L235.3930969,80.2754669z"/>
			</g>
			<g id="Ellipse_8_1_">
				<circle class="st8" cx="235.3930969" cy="98.2754669" r="3.5"/>
				<path class="st9" d="M235.3930969,95.2754669c1.6999969,0,3,1.3000031,3,3s-1.3000031,3-3,3s-3-1.3000031-3-3
					S233.6931,95.2754669,235.3930969,95.2754669 M235.3930969,94.2754669c-2.1999969,0-4,1.8000031-4,4s1.8000031,4,4,4
					s4-1.8000031,4-4C239.3930969,96.0754623,237.5931091,94.2754669,235.3930969,94.2754669L235.3930969,94.2754669z"/>
			</g>
		</g>
		<path id="Vector_3_1_" class="st13" d="M194.0236206,145.8895721h-7.6999969 M192.1236267,149.289566l-3.8999939-6.8000031
			 M192.1236267,142.4895782l-3.8999939,6.8000031"/>
	</g>
</g>
<g id="Numbers">
	<g>
		<path class="st6" d="M367.3999939,333.5l1.8999939-1.6000061h0.7999878v6.7000122h-1v-5.2999878l-1.2000122,0.8999939
			L367.3999939,333.5z"/>
		<path class="st6" d="M373.2000122,338.6000061c-0.7000122,0-1.3999939-0.2000122-2.1000061-0.7000122l0.5-0.7999878
			c0.6000061,0.3999939,1.1000061,0.5,1.6000061,0.5c0.3999939,0,0.7000122-0.1000061,0.8999939-0.2999878
			c0.2000122-0.2000122,0.2999878-0.3999939,0.2999878-0.7999878c0-0.2999878-0.1000061-0.6000061-0.3999939-0.7999878
			c-0.2000122-0.2000122-0.5-0.2999878-0.8999939-0.2999878h-0.7999878v-0.8999939h0.7999878
			c0.2999878,0,0.6000061-0.1000061,0.7999878-0.2999878c0.2000122-0.2000122,0.2999878-0.3999939,0.2999878-0.7000122
			c0-0.2999878-0.1000061-0.5-0.2999878-0.7000122s-0.5-0.2999878-0.7999878-0.2999878
			c-0.3999939,0-0.8999939,0.2000122-1.3999939,0.6000061l-0.5-0.7000122c0.2000122-0.2000122,0.5-0.3999939,0.8999939-0.6000061
			c0.3999939-0.1000061,0.7000122-0.2000122,1.1000061-0.2000122c0.6000061,0,1.1000061,0.2000122,1.5,0.5
			s0.6000061,0.7999878,0.6000061,1.2000122c0,0.3999939-0.1000061,0.7000122-0.2999878,0.8999939
			c-0.2000122,0.2999878-0.5,0.5-0.7999878,0.6000061l0,0c0.3999939,0.1000061,0.7000122,0.2999878,1,0.6000061
			c0.2000122,0.2999878,0.2999878,0.6000061,0.2999878,1.1000061c0,0.6000061-0.2000122,1-0.6000061,1.3999939
			C374.3999939,338.3999939,373.7999878,338.6000061,373.2000122,338.6000061z"/>
		<path class="st6" d="M377,338.6000061c-0.2000122,0-0.2999878-0.1000061-0.5-0.2000122
			c-0.1000061-0.1000061-0.2000122-0.2999878-0.2000122-0.5S376.3999939,337.6000061,376.5,337.5s0.2999878-0.2000122,0.5-0.2000122
			s0.2999878,0.1000061,0.3999939,0.2000122s0.2000122,0.2999878,0.2000122,0.3999939
			c0,0.2000122-0.1000061,0.2999878-0.2000122,0.5S377.2000122,338.6000061,377,338.6000061z"/>
		<path class="st6" d="M381.6000061,335.7999878L380,337.5999756h2.7000122v1H378.5v-0.8999939l2.1000061-2.2999878l0.5-0.6000061
			c0.1000061-0.1000061,0.2000122-0.2999878,0.2999878-0.5C381.5,334.0999756,381.5,333.8999939,381.5,333.6999817
			c0-0.2999878-0.1000061-0.5-0.2999878-0.7000122c-0.2000122-0.2000122-0.5-0.2999878-0.7999878-0.2999878
			c-0.5,0-1,0.2000122-1.6000061,0.7000122l-0.6000061-0.7000122c0.7000122-0.6000061,1.3999939-1,2.2000122-1
			c0.6000061,0,1.1000061,0.2000122,1.5,0.6000061s0.6000061,0.8999939,0.6000061,1.3999939
			C382.6000061,334.2999878,382.2999878,335,381.6000061,335.7999878z"/>
	</g>
	<g>
		<path class="st6" d="M206.1000061,214.8000031L204.5,216.6000061h2.6999969v1H203v-0.8999939l2.1000061-2.3000031l0.5-0.6000061
			c0.1000061-0.1000061,0.1999969-0.3000031,0.3000031-0.5s0.1000061-0.3999939,0.1000061-0.6000061
			c0-0.3000031-0.1000061-0.5-0.3000031-0.6999969s-0.5-0.3000031-0.8000031-0.3000031c-0.5,0-1,0.1999969-1.6000061,0.6999969
			l-0.6000061-0.6999969c0.6999969-0.6000061,1.3999939-1,2.1999969-1c0.6000061,0,1.1000061,0.1999969,1.5,0.6000061
			C206.7999878,211.6999969,207,212.1999969,207,212.6999969C207.1000061,213.3000031,206.8000031,214,206.1000061,214.8000031z"/>
		<path class="st6" d="M208.6999969,217.6000061c-0.1999969,0-0.3000031-0.1000061-0.5-0.1999969
			C208.0999908,217.3000031,208,217.1000061,208,217.0000153c0-0.1999969,0.1000061-0.3000031,0.1999969-0.3999939
			c0.1000061-0.1000061,0.3000031-0.1999969,0.5-0.1999969s0.3000031,0.1000061,0.3999939,0.1999969
			c0.1000061,0.1000061,0.1999969,0.3000031,0.1999969,0.3999939c0,0.1999969-0.1000061,0.3000031-0.1999969,0.3999939
			C209.1000061,217.6000061,208.8999939,217.6000061,208.6999969,217.6000061z"/>
		<path class="st6" d="M209.8000031,211.8000031v-0.8999939H214v0.6999969l-2.5,6h-1.1000061l2.5-5.6999969h-3.1000061
			L209.8000031,211.8000031L209.8000031,211.8000031z"/>
	</g>
	<g>
		<path class="st6" d="M261.3999939,258.2000122l1.8999939-1.6000061h0.7999878v6.7000122h-1V258l-1.2000122,0.8999939
			L261.3999939,258.2000122z"/>
		<path class="st6" d="M266,263.2999878c-0.2000122,0-0.2999878-0.1000061-0.5-0.2000122
			c-0.1000061-0.1000061-0.2000122-0.2999878-0.2000122-0.5s0.1000061-0.2999878,0.2000122-0.3999939
			s0.2999878-0.2000122,0.5-0.2000122s0.2999878,0.1000061,0.3999939,0.2000122s0.2000122,0.2999878,0.2000122,0.3999939
			c0,0.2000122-0.1000061,0.2999878-0.2000122,0.5S266.2000122,263.2999878,266,263.2999878z"/>
		<path class="st6" d="M266.6000061,258.2000122L268.5,256.6000061h0.7999878v6.7000122h-1V258l-1.2000122,0.8999939
			L266.6000061,258.2000122z"/>
	</g>
	<g>
		<path class="st6" d="M431.8999939,172.1000061l-1.6000061,1.8000031H433v1h-4.2000122V174l2.1000061-2.3000031l0.5-0.6000061
			c0.1000061-0.1000061,0.2000122-0.3000031,0.2999878-0.5c0.1000061-0.1999969,0.1000061-0.3999939,0.1000061-0.6000061
			c0-0.3000031-0.1000061-0.5-0.2999878-0.6999969c-0.2000122-0.1999969-0.5-0.3000031-0.7999878-0.3000031
			c-0.5,0-1,0.1999969-1.6000061,0.6999969L428.5,168.9999847c0.7000122-0.6000061,1.3999939-1,2.2000122-1
			c0.6000061,0,1.1000061,0.1999969,1.5,0.6000061c0.3999939,0.3999939,0.6000061,0.8999939,0.6000061,1.3999939
			C432.8999939,170.6999969,432.6000061,171.3999939,431.8999939,172.1000061z"/>
		<path class="st6" d="M437.7000122,174.6999969C437.3000183,174.8999939,436.9000244,175,436.5,175
			c-0.3999939,0-0.8999939-0.1000061-1.2000122-0.3000031c-0.6000061-0.3999939-1-1-1.2999878-1.8999939
			C433.8999939,172.4000092,433.8999939,172,433.8999939,171.5c0-0.3999939,0-0.8000031,0.1000061-1.1999969
			s0.2000122-0.8000031,0.5-1.1000061c0.2000122-0.3000031,0.5-0.6000061,0.7999878-0.8000031
			s0.7999878-0.3000031,1.2000122-0.3000031c0.5,0,0.8999939,0.1000061,1.2000122,0.3000031
			c0.6000061,0.3000031,1.1000061,1,1.2999878,1.8999939c0.2000122,0.8000031,0.2000122,1.6999969,0,2.5
			C438.7999878,173.6999969,438.3999939,174.3999939,437.7000122,174.6999969z M436.5,174
			c0.5,0,0.8999939-0.1999969,1.2000122-0.6999969c0.2999878-0.5,0.3999939-1.1000061,0.3999939-1.8000031
			S438,170.1999969,437.7000122,169.6999969S437,169,436.5,169s-0.8999939,0.1999969-1.2000122,0.6999969
			c-0.2999878,0.5-0.3999939,1-0.3999939,1.8000031c0,0.6999969,0.1000061,1.3000031,0.3999939,1.8000031
			C435.6000061,173.8000031,436,174,436.5,174z"/>
		<path class="st6" d="M440.5,175c-0.2000122,0-0.2999878-0.1000061-0.5-0.1999969s-0.2000122-0.3000031-0.2000122-0.5
			S439.8999939,174,440,173.9000092s0.2999878-0.1999969,0.5-0.1999969s0.2999878,0.1000061,0.3999939,0.1999969
			s0.2000122,0.3000031,0.2000122,0.3999939c0,0.1999969-0.1000061,0.3000031-0.2000122,0.5S440.6000061,175,440.5,175z"/>
		<path class="st6" d="M444.2000122,170.6000061c0.6000061,0,1.2000122,0.1999969,1.6000061,0.6000061
			s0.6000061,0.8999939,0.6000061,1.6000061c0,0.6999969-0.2000122,1.1999969-0.7000122,1.6000061
			c-0.3999939,0.3999939-1,0.6000061-1.7000122,0.6000061c-0.7999878,0-1.5-0.3000031-2.2000122-0.8000031l0.5-0.8000031
			c0.6000061,0.3999939,1.1000061,0.6000061,1.7000122,0.6000061c0.3999939,0,0.7000122-0.1000061,1-0.3999939
			c0.2999878-0.1999969,0.3999939-0.5,0.3999939-0.8999939S445.2999878,172.0000458,445,171.8000488
			c-0.2000122-0.1999969-0.6000061-0.3999939-1-0.3999939c-0.5,0-0.8999939,0.1999969-1.2000122,0.5l-0.6000061-0.3999939
			l0.3999939-3.3000031h3.3999939v0.8999939h-2.6000061l-0.2000122,1.6000061
			C443.3999939,170.6000061,443.7999878,170.6000061,444.2000122,170.6000061z"/>
	</g>
	<g>
		<path class="st6" d="M238.1999969,333.7000122c0.6000061,0,1.1999969,0.2000122,1.6000061,0.6000061
			c0.3999939,0.3999939,0.6000061,0.8999939,0.6000061,1.6000061s-0.1999969,1.2000122-0.6999969,1.6000061
			c-0.3999939,0.3999939-1,0.6000061-1.6999969,0.6000061c-0.8000031,0-1.5-0.2999878-2.1999969-0.7999878l0.5-0.7999878
			c0.6000061,0.3999939,1.1000061,0.6000061,1.6999969,0.6000061c0.3999939,0,0.6999969-0.1000061,1-0.3999939
			c0.3000031-0.2000122,0.3999939-0.5,0.3999939-0.8999939s-0.1000061-0.7000122-0.3999939-0.8999939
			c-0.1999969-0.2000122-0.6000061-0.3999939-1-0.3999939c-0.5,0-0.8999939,0.2000122-1.1999969,0.5l-0.6000061-0.3999939
			l0.3999939-3.2999878H240v0.8999939h-2.6000061l-0.1999969,1.6000061
			C237.5,333.7999878,237.8000031,333.7000122,238.1999969,333.7000122z"/>
		<path class="st6" d="M241.8999939,338.1000061c-0.1999969,0-0.3000031-0.1000061-0.5-0.2000122
			s-0.1999969-0.2999878-0.1999969-0.5s0.1000061-0.2999878,0.1999969-0.3999939s0.3000031-0.2000122,0.5-0.2000122
			s0.3000031,0.1000061,0.3999939,0.2000122s0.1999969,0.2999878,0.1999969,0.3999939
			c0,0.2000122-0.1000061,0.2999878-0.1999969,0.5S242,338.1000061,241.8999939,338.1000061z"/>
		<path class="st6" d="M246.5,335.2999878l-1.6000061,1.7999878h2.6999969v1h-4.1999969v-0.8999939L245.5,334.8999939l0.5-0.6000061
			c0.1000061-0.1000061,0.1999969-0.2999878,0.3000031-0.5s0.1000061-0.3999939,0.1000061-0.6000061
			c0-0.2999878-0.1000061-0.5-0.3000031-0.7000122s-0.5-0.2999878-0.8000031-0.2999878c-0.5,0-1,0.2000122-1.6000061,0.7000122
			l-0.6000061-0.7000122c0.6999969-0.6000061,1.3999939-1,2.1999969-1c0.6000061,0,1.1000061,0.2000122,1.5,0.6000061
			s0.6000061,0.8999939,0.6000061,1.3999939C247.5,333.7999878,247.1999969,334.5,246.5,335.2999878z"/>
	</g>
</g>
<g id="street_anchors">
	<rect id="street_anchor_01" x="589.5736084" y="235" class="st14" width="10" height="10"/>
</g>
</svg>
