<?xml version="1.0" encoding="utf-8"?>
<!-- Generator: Adobe Illustrator 24.2.0, SVG Export Plug-In . SVG Version: 6.00 Build 0)  -->
<!DOCTYPE svg PUBLIC "-//W3C//DTD SVG 1.1//EN" "http://www.w3.org/Graphics/SVG/1.1/DTD/svg11.dtd" [
	<!ENTITY ns_extend "http://ns.adobe.com/Extensibility/1.0/">
	<!ENTITY ns_ai "http://ns.adobe.com/AdobeIllustrator/10.0/">
	<!ENTITY ns_graphs "http://ns.adobe.com/Graphs/1.0/">
	<!ENTITY ns_vars "http://ns.adobe.com/Variables/1.0/">
	<!ENTITY ns_imrep "http://ns.adobe.com/ImageReplacement/1.0/">
	<!ENTITY ns_sfw "http://ns.adobe.com/SaveForWeb/1.0/">
	<!ENTITY ns_custom "http://ns.adobe.com/GenericCustomNamespace/1.0/">
	<!ENTITY ns_adobe_xpath "http://ns.adobe.com/XPath/1.0/">
]>
<svg version="1.1" id="_x31__x5F_2" xmlns:x="&ns_extend;" xmlns:i="&ns_ai;" xmlns:graph="&ns_graphs;"
	 xmlns="http://www.w3.org/2000/svg" xmlns:xlink="http://www.w3.org/1999/xlink" x="0px" y="0px" viewBox="0 0 720 480"
	 style="enable-background:new 0 0 720 480;" xml:space="preserve">
<style type="text/css">
	.st0{fill:#DBD4CA;}
	.st1{clip-path:url(#SVGID_2_);}
	.st2{fill:none;stroke:#C49F8A;stroke-miterlimit:10;}
	.st3{opacity:0.3;clip-path:url(#SVGID_4_);}
	.st4{opacity:0.7;fill:#C49F8A;enable-background:new    ;}
	.st5{fill:none;stroke:#565440;}
	.st6{fill:none;stroke:#565440;stroke-width:1.0000414;stroke-miterlimit:4.0001655;}
	.st7{fill:#565440;}
	.st8{fill:#E9E4DC;}
	.st9{fill:#C49F8A;}
	.st10{fill:#E9E4DC;stroke:#C49F8A;}
	.st11{fill:#E9E4DC;stroke:#C49F8A;stroke-width:0.9999701;stroke-miterlimit:3.9992809;}
	.st12{fill:none;stroke:#C49F8A;}
	.st13{fill:#E9E4DC;stroke:#C49F8A;stroke-linejoin:round;}
	.st14{fill:#E9E4DC;stroke:#C49F8A;stroke-width:0.9999999;stroke-miterlimit:3.9999995;}
	.st15{fill:#E9E4DC;stroke:#C49F8A;stroke-width:1.0000017;stroke-miterlimit:4.0000067;}
	.st16{fill:none;}
</style>
<metadata>
	<sfw  xmlns="&ns_sfw;">
		<slices></slices>
		<sliceSourceBounds  bottomLeftOrigin="true" height="667.6734619" width="667.6734619" x="46.6970139" y="-27.1581669">
			</sliceSourceBounds>
	</sfw>
</metadata>
<polygon id="Floor_1_" class="st0" points="134.8000031,60.1000137 569.2999878,60.1000137 575.5999756,70.8289108 
	556.7000122,143.588974 556.2000122,190.0000153 575.5999756,195.7000122 558.8405151,264.2000427 558.7059937,327.0000305 
	574.7999878,331.8000183 557.9000244,407.4000244 482.3999939,392.5000305 431.2999878,392.5000305 426.2000122,411.5000305 
	319.2999878,386.9000244 259.1000061,386.9000244 253.6000061,406.7000427 180,389.7000427 134.8000031,389.7000427 "/>
<g id="Wet_Floor_1_">
	<g>
		<defs>
			<rect id="SVGID_1_" x="237.638031" y="67.0551758" width="165.7911682" height="112.2142487"/>
		</defs>
		<clipPath id="SVGID_2_">
			<use xlink:href="#SVGID_1_"  style="overflow:visible;"/>
		</clipPath>
		<g class="st1">
			<g>
				<line class="st2" x1="57.4719162" y1="183.7428131" x2="390.9551086" y2="-149.740387"/>
				<line class="st2" x1="47.0505676" y1="173.3214569" x2="380.5337524" y2="-160.1617279"/>
				<line class="st2" x1="67.8932648" y1="194.1641541" x2="401.3764648" y2="-139.319046"/>
				<line class="st2" x1="78.3146133" y1="204.5855103" x2="411.797821" y2="-128.8976898"/>
				<line class="st2" x1="88.7359619" y1="215.0068512" x2="422.2191467" y2="-118.4763412"/>
				<line class="st2" x1="99.1573105" y1="225.4282074" x2="432.6405029" y2="-108.0549927"/>
				<line class="st2" x1="109.5786591" y1="235.8495483" x2="443.0618591" y2="-97.6336441"/>
				<line class="st2" x1="120.0000076" y1="246.2709045" x2="453.4832153" y2="-87.2122955"/>
				<line class="st2" x1="130.4213562" y1="256.6922607" x2="463.904541" y2="-76.790947"/>
				<line class="st2" x1="140.8427124" y1="267.1136169" x2="474.3258972" y2="-66.3695984"/>
				<line class="st2" x1="130.4213562" y1="256.6922607" x2="463.904541" y2="-76.790947"/>
				<line class="st2" x1="151.2640533" y1="277.5349731" x2="484.7472534" y2="-55.9482498"/>
				<line class="st2" x1="161.6853943" y1="287.9562988" x2="495.1686096" y2="-45.5269012"/>
				<line class="st2" x1="172.1067505" y1="298.377655" x2="505.5899353" y2="-35.1055565"/>
				<line class="st2" x1="182.5280914" y1="308.7990112" x2="516.0112915" y2="-24.6842041"/>
				<line class="st2" x1="192.9494476" y1="319.2203674" x2="526.4326172" y2="-14.2628565"/>
				<line class="st2" x1="203.3707886" y1="329.6416931" x2="536.8540039" y2="-3.8415079"/>
				<line class="st2" x1="213.7921448" y1="340.0630493" x2="547.2753296" y2="6.5798402"/>
				<line class="st2" x1="224.2134857" y1="350.4844055" x2="557.6967163" y2="17.0011883"/>
				<line class="st2" x1="213.7921448" y1="340.0630493" x2="547.2753296" y2="6.5798402"/>
				<line class="st2" x1="234.6348419" y1="360.9057617" x2="568.118042" y2="27.4225368"/>
				<line class="st2" x1="245.0561829" y1="371.3270874" x2="578.5393677" y2="37.8438835"/>
				<line class="st2" x1="255.4775391" y1="381.7484436" x2="588.9607544" y2="48.2652321"/>
				<line class="st2" x1="265.8988953" y1="392.1697998" x2="599.3820801" y2="58.6865807"/>
				<line class="st2" x1="276.3202209" y1="402.591156" x2="609.8034058" y2="69.1079254"/>
				<line class="st2" x1="286.7415771" y1="413.0124817" x2="620.2247925" y2="79.529274"/>
				<line class="st2" x1="297.1629333" y1="423.4338379" x2="630.6461182" y2="89.9506226"/>
				<line class="st2" x1="307.5842896" y1="433.8551941" x2="641.0675049" y2="100.3719711"/>
				<line class="st2" x1="297.1629333" y1="423.4338379" x2="630.6461182" y2="89.9506226"/>
				<line class="st2" x1="318.0056152" y1="444.2765503" x2="651.4888306" y2="110.7933197"/>
				<line class="st2" x1="328.4269714" y1="454.697876" x2="661.9101563" y2="121.2146683"/>
				<line class="st2" x1="338.8483276" y1="465.1192322" x2="672.331543" y2="131.6360168"/>
				<line class="st2" x1="349.2696838" y1="475.5405884" x2="682.7528687" y2="142.057373"/>
				<line class="st2" x1="359.6910095" y1="485.9619141" x2="693.1741943" y2="152.478714"/>
				<line class="st2" x1="370.1123657" y1="496.3832703" x2="703.5955811" y2="162.9000702"/>
				<line class="st2" x1="380.5337219" y1="506.8046265" x2="714.0169067" y2="173.3214111"/>
			</g>
			<g>
				<line class="st2" x1="390.9550171" y1="496.3831177" x2="57.471962" y2="162.9000549"/>
				<line class="st2" x1="380.5336609" y1="506.8044739" x2="47.0506134" y2="173.3214111"/>
				<line class="st2" x1="401.3763733" y1="485.9617615" x2="67.8933105" y2="152.478714"/>
				<line class="st2" x1="411.797699" y1="475.5404358" x2="78.3146591" y2="142.0573578"/>
				<line class="st2" x1="422.2190552" y1="465.1190796" x2="88.7360077" y2="131.6360168"/>
				<line class="st2" x1="432.6404114" y1="454.6977234" x2="99.1573563" y2="121.2146606"/>
				<line class="st2" x1="443.0617676" y1="444.2763977" x2="109.5787048" y2="110.7933121"/>
				<line class="st2" x1="453.4830933" y1="433.8550415" x2="120.0000534" y2="100.3719635"/>
				<line class="st2" x1="463.9044495" y1="423.4336853" x2="130.421402" y2="89.9506149"/>
				<line class="st2" x1="474.3258057" y1="413.0123291" x2="140.8427429" y2="79.5292664"/>
				<line class="st2" x1="463.9044495" y1="423.4336853" x2="130.421402" y2="89.9506149"/>
				<line class="st2" x1="484.7471619" y1="402.5910034" x2="151.2640991" y2="69.1079254"/>
				<line class="st2" x1="495.1684875" y1="392.1696472" x2="161.6854401" y2="58.686573"/>
				<line class="st2" x1="505.5898438" y1="381.748291" x2="172.1067963" y2="48.2652245"/>
				<line class="st2" x1="516.0111694" y1="371.3269348" x2="182.5281372" y2="37.8438759"/>
				<line class="st2" x1="526.4325562" y1="360.9056091" x2="192.9494934" y2="27.4225311"/>
				<line class="st2" x1="536.8538818" y1="350.4842529" x2="203.3708344" y2="17.0011826"/>
				<line class="st2" x1="547.2752075" y1="340.0628967" x2="213.7921906" y2="6.579833"/>
				<line class="st2" x1="557.6965942" y1="329.6415405" x2="224.2135315" y2="-3.8415151"/>
				<line class="st2" x1="547.2752075" y1="340.0628967" x2="213.7921906" y2="6.579833"/>
				<line class="st2" x1="568.1179199" y1="319.2202148" x2="234.6348877" y2="-14.2628632"/>
				<line class="st2" x1="578.5393066" y1="308.7988586" x2="245.0562286" y2="-24.6842117"/>
				<line class="st2" x1="588.9606323" y1="298.3775024" x2="255.4775848" y2="-35.1055603"/>
				<line class="st2" x1="599.381958" y1="287.9561462" x2="265.8989258" y2="-45.5269089"/>
				<line class="st2" x1="609.8033447" y1="277.5348206" x2="276.320282" y2="-55.9482574"/>
				<line class="st2" x1="620.2246704" y1="267.1134644" x2="286.7416382" y2="-66.369606"/>
				<line class="st2" x1="630.6459961" y1="256.6921082" x2="297.1629639" y2="-76.7909546"/>
				<line class="st2" x1="641.0673828" y1="246.270752" x2="307.5843201" y2="-87.2123032"/>
				<line class="st2" x1="630.6459961" y1="256.6921082" x2="297.1629639" y2="-76.7909546"/>
				<line class="st2" x1="651.4887085" y1="235.8493958" x2="318.0056763" y2="-97.6336517"/>
				<line class="st2" x1="661.9100952" y1="225.4280548" x2="328.4270325" y2="-108.0550003"/>
				<line class="st2" x1="672.3314209" y1="215.0066986" x2="338.8483582" y2="-118.4763489"/>
				<line class="st2" x1="682.7527466" y1="204.5853577" x2="349.2697144" y2="-128.8976898"/>
				<line class="st2" x1="693.1741333" y1="194.1640015" x2="359.6910706" y2="-139.319046"/>
				<line class="st2" x1="703.595459" y1="183.7426605" x2="370.1124268" y2="-149.740387"/>
				<line class="st2" x1="714.0167847" y1="173.3213043" x2="380.5337524" y2="-160.1617432"/>
			</g>
		</g>
	</g>
	<g>
		<defs>
			<rect id="SVGID_3_" x="237.638031" y="67.0551758" width="165.7911682" height="112.2142487"/>
		</defs>
		<clipPath id="SVGID_4_">
			<use xlink:href="#SVGID_3_"  style="overflow:visible;"/>
		</clipPath>
		<g class="st3">
			<rect x="219.4542542" y="1.8205478" class="st4" width="322.158905" height="322.1589355"/>
		</g>
	</g>
</g>
<g id="Windows">
	<path class="st5" d="M188.2870331,391.6839905l64.0940247,14.7911377l-1.2326202,6.1626892l-64.0940094-14.7911377
		L188.2870331,391.6839905z"/>
	<path class="st5" d="M318.1188049,386.7539063l103.9477234,23.8298035l-1.232605,6.1627197L316.8862,392.9165955
		L318.1188049,386.7539063z"/>
	<polygon class="st5" points="580.6585693,333.342041 574.4959106,332.109436 557.6503906,407.2967529 458.6328735,387.5755005 
		457.8112793,393.7382202 562.5806274,414.6921692 562.9915771,411.8163452 	"/>
	
		<rect x="533.2290649" y="228.6951904" transform="matrix(0.2514896 -0.96786 0.96786 0.2514896 202.493866 725.3790894)" class="st6" width="73.9859009" height="6.1543732"/>
	
		<rect x="537.3762207" y="97.374527" transform="matrix(0.2514896 -0.96786 0.96786 0.2514896 330.2377014 627.916687)" class="st6" width="67.4118042" height="6.1543732"/>
</g>
<g id="Walls">
	<path class="st7" d="M155.4181519,380.591095V173.7000275H169.5v-18.3000488h-14.0818481V72.4455109h29.5819092V60.1195831
		h-29.5819092h-20.5429688v341.0144653h20.5429688h21.8338623l10.2128906,2.46521l4.5199585-20.1323242l-11.9152832-2.8758545
		H155.4181519z M165.4000244,159.5000153v10.0999756h-9.9818726v-10.0999756H165.4000244z"/>
	<polygon class="st7" points="254.0246582,392.9165955 249.505188,413.0489197 261.420105,415.9252014 264.8326416,400.723053 
		319.7624512,400.723053 319.7624512,376.0716248 254.0246582,376.0716248 	"/>
	<polygon class="st7" points="422.4775391,400.6858215 418.779541,417.1574402 430.694458,420.033783 435.0296021,400.723053 
		484.1063232,400.723053 484.1063232,376.0716248 422.4775391,376.0716248 	"/>
	<polygon class="st7" points="360.8482666,224.4638214 360.8482666,385.9317932 358.3833618,397.0250549 362.4920044,397.8471985 
		364.9568481,386.7538757 364.9568481,228.5727081 369.0656738,228.5727081 369.0656738,224.4638214 364.9568481,224.4638214 	"/>
	<path class="st7" d="M397.0040894,175.1604767v4.1089478h29.5819092v8.2171021h4.1084595v-8.2171021v-4.1089478h-24.6514282
		V72.4455109h165.9925537l10.2130127,2.46521l2.8762207-11.914917l-11.914917-2.8762207H226.4970093v12.3259277H237.5v13.15448
		h0.090271v14.7841797h4.1085205V85.5999298L255,85.5996857V72.4455109h68.8709106v102.7149658h-82.1721191v-41.49646h-4.1085205
		v45.6054077h4.1085205h122.8474121v-4.1089478h-36.5667114V72.4455109h73.9547119v102.7149658H397.0040894z
		 M250.9000244,81.5000153h-9.2012329v-9.0545044h9.2012329V81.5000153z"/>
	<polygon class="st7" points="567.1004639,231.0380402 567.9220581,226.9290924 558.0614014,224.4638214 430.694458,224.4638214 
		430.694458,220.3552399 426.5859985,220.3552399 426.5859985,224.4638214 401.9342041,224.4638214 401.9342041,228.5727081 
		557.2393799,228.5727081 	"/>
	<polygon class="st7" points="566.1941528,262.7833557 541.5427246,262.7833557 541.5427246,331.9530945 563.9165649,331.9530945 
		582.2178955,336.061676 585.0941772,324.1462708 566.1941528,319.9037781 	"/>
	<polygon class="st7" points="566.1941528,141.0052032 568.65979,130.7923126 548.5274048,126.2727203 545.7470703,138.1876373 
		545.6511841,138.1876373 545.6511841,197.931778 563.9165649,197.931778 582.2178955,202.0402985 585.0941772,190.1253815 
		566.1941528,185.8825226 	"/>
</g>
<path id="Doors" class="st5" d="M401.9341736,228.5726929c0,4.5194702-0.8215942,8.2170563-2.46521,12.3259125
	c-1.6436157,4.1084595-4.10849,7.8064423-6.9848328,10.6822815c-2.8762207,3.28685-6.573822,5.752243-10.6822815,7.395462
	c-4.10849,1.6432495-8.2170715,2.4652405-12.7365417,2.4652405v-32.8688965 M364.1352234,175.1604614
	c0-4.5194702,0.821991-8.2174377,2.4652405-12.3259125c1.643219-4.1084595,4.1084595-7.8064423,6.9848022-10.6822968
	c2.8762512-3.28685,6.573822-5.7521973,10.682312-7.3954315c4.1084595-1.6432495,8.217041-2.4652405,12.7365112-2.4652405
	v32.8688812 M241.698761,133.252655c4.5194702,0,8.2170563-0.8216248,12.3259125-2.4652405
	c4.1084747-1.6436157,7.8064423-4.1084671,10.6822968-6.9848251c3.2868347-2.8762283,5.7521973-6.573822,7.3954468-10.6822891
	c1.643219-4.1084671,2.46521-8.2170639,2.46521-12.7365265h-32.868866 M430.694458,187.486496
	c4.5194702,0,8.2170715,0.8216248,12.3259277,2.4652252c4.1084595,1.6436157,7.806427,4.1089783,10.6822815,6.9848328
	c3.2868652,2.876236,5.7522278,6.573822,7.3954468,10.6822968c1.6432495,4.1084595,2.4652405,8.2170563,2.4652405,12.7365265
	H430.694458 M185.410675,60.1195717c0-5.3410835,1.2326202-10.2716751,3.28685-15.2017593
	c2.054245-4.9300842,4.930603-9.8606758,9.0390625-13.5581436c3.6978455-3.6978493,8.2174377-6.9848251,13.147522-9.0390587
	c4.930603-2.0542336,10.2716827-3.28685,15.6127625-3.28685v41.0858154"/>
<g id="Furniture_2_">
	<g>
		<g>
			<rect x="484.5" y="72.9000168" class="st8" width="55.0999756" height="65.2000046"/>
			<path class="st9" d="M485,73.4000168h54.0999756v64.2000046H485V73.4000168 M484,72.4000168v66.2000046h56.0999756V72.4000168
				H484L484,72.4000168z"/>
		</g>
		<rect x="513.4000244" y="77.1000137" class="st10" width="21.9000244" height="16.4000015"/>
		<rect x="488.7999878" y="77.1000137" class="st10" width="21.8999939" height="16.4000015"/>
		
			<rect x="514.2910767" y="84.4811325" transform="matrix(0.2588077 -0.9659289 0.9659289 0.2588077 297.743042 573.3833618)" class="st11" width="16.3995361" height="16.3995132"/>
		
			<rect x="493.1853638" y="84.3975067" transform="matrix(0.9659289 -0.2588077 0.2588077 0.9659289 -6.8821273 132.9172058)" class="st11" width="16.3995056" height="16.3995132"/>
		<g>
			<polygon class="st8" points="484.5,163.4000092 484.5,86.7000122 506.3999939,85.4000168 539.5999756,90.2000122 
				539.5999756,163.4000092 			"/>
			<path class="st9" d="M506.3999939,85.9000168l32.6999817,4.6999969v72.2999954H485V87.3000183v-0.0999985L506.3999939,85.9000168
				 M506.3999939,84.9000168L484,86.3000183v1v76.5999908h56.0999756V90.1000137v-0.3000031L506.3999939,84.9000168
				L506.3999939,84.9000168z"/>
		</g>
		<polyline class="st12" points="484.7999878,88.0000153 506.6000061,88.0000153 539.5,90.7000122 		"/>
	</g>
	<g>
		<g>
			<rect x="455.1000061" y="229.1000214" class="st8" width="67.1999817" height="79.5"/>
			<path class="st9" d="M455.6000061,229.6000214h66.1999817v78.5000153h-66.2000122L455.6000061,229.6000214
				 M454.6000061,228.6000214v80.5000153h68.1999817v-80.5000153H454.6000061L454.6000061,228.6000214z"/>
		</g>
		<rect x="490.3999939" y="234.4000092" class="st10" width="26.6000061" height="19.8999939"/>
		<rect x="460.3999939" y="234.4000092" class="st10" width="26.6000061" height="19.8999939"/>
		
			<rect x="491.6140137" y="243.3851318" transform="matrix(0.2588077 -0.9659289 0.9659289 0.2588077 127.0517426 672.2446899)" class="st11" width="19.8994141" height="19.8993835"/>
		
			<rect x="465.7861328" y="243.2927551" transform="matrix(0.9659289 -0.2588077 0.2588077 0.9659289 -49.3322372 131.7523346)" class="st11" width="19.8993835" height="19.8994141"/>
		<g>
			<polygon class="st8" points="455.1000061,312.5000305 455.1000061,246.0000153 481.8999939,244.3000183 522.2999878,250.2000122 
				522.2999878,312.5000305 			"/>
			<path class="st9" d="M481.8999939,244.8000183l39.8999939,5.8000031v61.4000092h-66.1000061v-65.2000122v-0.3000031
				L481.8999939,244.8000183 M481.8999939,243.8000183l-27.2999878,1.6999969v1.3000031v66.2000122h68.1000061v-62.9000092
				v-0.3999939L481.8999939,243.8000183L481.8999939,243.8000183z"/>
		</g>
		<polyline class="st12" points="455.5,247.5000153 482.1000061,247.5000153 522,250.9000092 		"/>
	</g>
	<g>
		<g>
			<rect x="328.5" y="72.9000168" class="st8" width="73" height="29.7999954"/>
			<path class="st9" d="M401,73.4000168v28.7999954h-72V73.4000168H401 M402,72.4000168h-74v30.7999954h74V72.4000168
				L402,72.4000168z"/>
		</g>
		<g>
			<g>
				<path class="st13" d="M395.2000122,87.8000183c0-5.6999969-4.8999939-10.0999985-10.3999939-9.5
					c-6.2000122,0.5999985-13.8999939,1.0999985-19.7000122,1.0999985c-5.7000122,0-13.5-0.5999985-19.7000122-1.0999985
					c-5.6000061-0.5-10.3999939,3.9000015-10.3999939,9.5s4.8999939,10.0999985,10.3999939,9.5
					c6.2000122-0.5999985,13.8999939-1.0999985,19.7000122-1.0999985c5.7000122,0,13.5,0.5999985,19.7000122,1.0999985
					C390.2999878,97.8000183,395.2000122,93.4000168,395.2000122,87.8000183z"/>
				<ellipse class="st13" cx="385.3999939" cy="87.8000183" rx="1.2999878" ry="1.3000031"/>
			</g>
		</g>
	</g>
	<g>
		<path class="st10" d="M229.8000031,276.8000183H284v39.3999939h-54.1999969V276.8000183z"/>
		<path class="st10" d="M287.2999878,286.7000427h0.7999878c5.3999939,0,9.8999939,4.3999939,9.8999939,9.8999939
			c0,5.3999939-4.3999939,9.8999939-9.8999939,9.8999939h-0.7999878V286.7000427z"/>
		<path class="st10" d="M284,288.3000183h4.1000061c4.5,0,8.2000122,3.7000122,8.2000122,8.2000122
			s-3.7000122,8.2000122-8.2000122,8.2000122H284V288.3000183z"/>
		<path class="st10" d="M226.5,286.7000427h-0.8000031c-5.3999939,0-9.8999939,4.3999939-9.8999939,9.8999939
			c0,5.3999939,4.3999939,9.8999939,9.8999939,9.8999939H226.5V286.7000427z"/>
		<path class="st10" d="M229.8000031,288.3000183h-4.1000061c-4.5,0-8.1999969,3.7000122-8.1999969,8.2000122
			s3.6999969,8.2000122,8.1999969,8.2000122h4.1000061V288.3000183z"/>
		<path class="st10" d="M266.7999878,273.5000305v-0.7999878c0-5.3999939-4.3999939-9.8999939-9.8999939-9.8999939
			C251.5,262.8000488,247,267.2000427,247,272.7000427v0.7999878H266.7999878z"/>
		<path class="st10" d="M265.1000061,276.8000183v-4.1000061c0-4.5-3.7000122-8.2000122-8.2000122-8.2000122
			s-8.1999969,3.7000122-8.1999969,8.2000122v4.1000061H265.1000061z"/>
		<path class="st10" d="M266.7999878,319.5000305v0.7999878c0,5.3999939-4.3999939,9.8999939-9.8999939,9.8999939
			C251.5,330.2000122,247,325.8000183,247,320.3000183v-0.7999878H266.7999878z"/>
		<path class="st10" d="M265.1000061,316.2000427v4.1000061c0,4.5-3.7000122,8.2000122-8.2000122,8.2000122
			s-8.1999969-3.7000122-8.1999969-8.2000122v-4.1000061H265.1000061z"/>
	</g>
	<g>
		<path class="st10" d="M519.5,355.4000244l18.2000122,3.6000061l-0.7999878,17.1000061l-23.2000122-4.6000061L519.5,355.4000244z"
			/>
		<g>
			
				<rect x="510.0023193" y="349.2045288" transform="matrix(0.1918064 -0.9814328 0.9814328 0.1918064 44.7741203 825.9782104)" class="st8" width="27.7990723" height="73.1975708"/>
			<path class="st9" d="M491.1000061,365.7000427l70.8000183,13.7999878l-5.0999756,26.2999878L486,392.0000305
				L491.1000061,365.7000427 M490.2999878,364.5000305l-5.5,28.2000122l72.7999878,14.2000122l5.5-28.2000122
				L490.2999878,364.5000305L490.2999878,364.5000305z"/>
		</g>
		<path class="st12" d="M518,378.7000427l14.0999756,2.7999878 M517.5,375.1000366l16.5999756,3.2999878l-1,5L516.5,380.1000366
			L517.5,375.1000366z"/>
		<path class="st10" d="M510.7000122,373.5000305L510.7000122,373.5000305c0.7000122,0.1000061,1.1000061,0.7999878,1,1.5
			l-0.2999878,1.7000122c-0.1000061,0.7000122-0.7999878,1.1000061-1.5,1l0,0c-0.7000122-0.1000061-1.1000061-0.7999878-1-1.5
			l0.2999878-1.7000122C509.2999878,373.9000244,510,373.4000244,510.7000122,373.5000305z"/>
		<path class="st10" d="M519.0999756,389.0000305c0.5-2.2999878,2.7000122-3.7999878,5-3.2999878s3.7999878,2.7000122,3.2999878,5
			l-0.7999878,4.1000061l-8.2999878-1.6000061L519.0999756,389.0000305z"/>
		
			<rect x="521.6622925" y="371.028717" transform="matrix(0.1935 -0.9811003 0.9811003 0.1935 35.8055763 829.614624)" class="st14" width="1.7000123" height="44.0000038"/>
		<g>
			
				<rect x="519.4028931" y="355.2627258" transform="matrix(0.1918064 -0.9814328 0.9814328 0.1918064 68.3633423 811.7421265)" class="st8" width="15.2994995" height="18.1994019"/>
			<path class="st9" d="M520.0999756,355.5000305L537,358.8000183l-2.7999878,14.1000061l-16.9000244-3.2999878
				L520.0999756,355.5000305 M519.2999878,354.4000244l-3.0999756,16L535,374.1000366l3.0999756-16L519.2999878,354.4000244
				L519.2999878,354.4000244z"/>
		</g>
		<g>
			
				<rect x="528.0964355" y="346.7190247" transform="matrix(0.1914986 -0.9814929 0.9814929 0.1914986 78.2496948 806.7306519)" class="st8" width="1.4000244" height="18.3001099"/>
			<path class="st9" d="M520.4000244,354.1000366l16.9000244,3.2999878l-0.0999756,0.3999939l-16.9000244-3.2999878
				L520.4000244,354.1000366 M519.5999756,352.9000244l-0.5,2.3999939L538,359.0000305l0.5-2.3999939L519.5999756,352.9000244
				L519.5999756,352.9000244z"/>
		</g>
	</g>
	<g id="Sink_2_1_">
		<g id="Rectangle_16_x5F_11_3_">
			<rect x="328.5" y="130.8000183" class="st8" width="18.8999939" height="43.9000092"/>
			<path class="st9" d="M346.8999939,131.3000183v42.9000092H329v-42.8999939L346.8999939,131.3000183 M347.8999939,130.3000183H328
				v44.9000092h19.8999939V130.3000183L347.8999939,130.3000183z"/>
		</g>
		<path id="Rectangle_19_x5F_5_1_" class="st10" d="M338,166.1000214L338,166.1000214
			c3.3999939,0,6.1000061-2.6999969,6.1000061-6.1000061v-8.6999969c0-3.3999939-2.7000122-6.1000061-6.1000061-6.1000061l0,0
			c-3.3999939,0-6.1000061,2.6999969-6.1000061,6.1000061v8.6999969
			C331.8999939,163.4000092,334.6000061,166.1000214,338,166.1000214z"/>
		<circle id="Ellipse_7_x5F_2_2_" class="st10" cx="334.7999878" cy="155.6000214" r="1.2999878"/>
	</g>
	<g id="Toilet_2_">
		<g id="Rectangle_21_1_">
			<rect x="294.2000122" y="81.8000183" class="st8" width="17.7999878" height="5.9000015"/>
			<path class="st9" d="M311.3999939,82.3000183v4.9000015h-16.7999878v-4.9000015H311.3999939 M312.3999939,81.3000183h-18.7999878
				v6.9000015h18.7999878V81.3000183L312.3999939,81.3000183z"/>
		</g>
		<path id="Rectangle_19_x5F_2_2_" class="st10" d="M296.3999939,100.1000137
			c-0.2999878,3.9000015,2.7999878,7.0999985,6.7000122,7.0999985l0,0c3.8999939,0,6.8999939-3.3000031,6.7000122-7.0999985
			L309,87.7000122h-11.7000122L296.3999939,100.1000137z"/>
		<path id="Rectangle_18_x5F_13_2_" class="st10" d="M297.7000122,100.1000137
			c-0.2999878,3.0999985,2.2000122,5.8000031,5.2999878,5.8000031l0,0c3.1000061,0,5.6000061-2.6999969,5.2999878-5.8000031
			l-0.7999878-8.5h-9.1000061L297.7000122,100.1000137z"/>
		<ellipse id="Ellipse_6_x5F_2_2_" class="st10" cx="303.1000061" cy="95.5000153" rx="1.2999878" ry="1.3000031"/>
	</g>
	<g id="Toilet_1_">
		<g id="Rectangle_21_4_">
			<rect x="328.5" y="113.0000153" class="st8" width="5.8999939" height="17.8000031"/>
			<path class="st9" d="M334,113.5000153v16.8000031h-5v-16.8000031H334 M335,112.5000153h-7v18.8000031h6.8999939v-18.8000031H335z
				"/>
		</g>
		<path id="Rectangle_19_x5F_2_1_" class="st10" d="M346.7999878,128.6000214
			c3.8999939,0.3000031,7.1000061-2.8000031,7.1000061-6.6999969l0,0c0-3.9000015-3.2999878-6.9000015-7.1000061-6.6999969
			l-12.3999939,0.8000031v11.6999969L346.7999878,128.6000214z"/>
		<path id="Rectangle_18_x5F_13_1_" class="st10" d="M346.7999878,127.2000122
			c3.1000061,0.3000031,5.7999878-2.1999969,5.7999878-5.3000031l0,0c0-3.0999985-2.7000122-5.5999985-5.7999878-5.3000031
			l-8.5,0.8000031v9.0999985L346.7999878,127.2000122z"/>
		<ellipse id="Ellipse_6_x5F_2_1_" class="st10" cx="342.2999878" cy="121.9000168" rx="1.2999878" ry="1.3000031"/>
	</g>
	<g id="Shower">
		<path id="Rectangle_22" class="st10" d="M323.5,139.9000092v34.8000031h-34.7999878v-24
			c0-6,4.7999878-10.8000031,10.7999878-10.8000031H323.5z"/>
		<path id="Rectangle_23" class="st10" d="M321.7000122,141.7000122v31.1999969H290.5v-22.6000061
			c0-4.8000031,3.8999939-8.6999969,8.7000122-8.6999969h22.5V141.7000122z"/>
		<ellipse id="Ellipse_6_x5F_4" class="st10" cx="314.6000061" cy="165.8000183" rx="1.2999878" ry="1.3000031"/>
	</g>
	<g id="TV_2_">
		<g id="Rectangle_16_2_">
			<rect x="423.1000061" y="363.0000305" class="st8" width="60.7999878" height="8.7999878"/>
			<path class="st9" d="M483.3999939,363.5000305v7.7999878h-59.7999878v-7.7999878H483.3999939 M484.3999939,362.5000305
				h-61.7999878v9.7999878h61.7999878V362.5000305L484.3999939,362.5000305z"/>
		</g>
		<g id="Rectangle_15_2_">
			<rect x="423.1000061" y="364.8000183" class="st8" width="60.7999878" height="10.6000061"/>
			<path class="st9" d="M483.3999939,365.3000183v9.6000061h-59.7999878v-9.6000061H483.3999939 M484.3999939,364.3000183
				h-61.7999878v11.6000061h61.7999878V364.3000183L484.3999939,364.3000183z"/>
		</g>
		<rect id="Rectangle_17_2_" x="433" y="372.1000366" class="st10" width="41.1000061" height="1.7000122"/>
		<path id="Rectangle_18_x5F_2_2_" class="st10" d="M444.3999939,373.8000183H462.5l-1.6000061,1.6000061H446
			L444.3999939,373.8000183z"/>
	</g>
	<g id="Kitchen">
		<g id="Rectangle_24">
			<rect x="155.8999939" y="174.2000122" class="st8" width="25.6000061" height="81.5"/>
			<path class="st9" d="M180.8999939,174.7000122v80.5h-24.6000061v-80.5H180.8999939 M181.8999939,173.7000122h-26.6000061
				v82.5000305h26.6000061V173.7000122L181.8999939,173.7000122z"/>
		</g>
		<g id="Rectangle_26">
			<rect x="155.8999939" y="280.6000366" class="st8" width="25.6000061" height="36.3999939"/>
			<path class="st9" d="M180.8999939,281.1000366v35.3999939h-24.6000061v-35.3999939H180.8999939 M181.8999939,280.1000366
				h-26.6000061v37.3999939h26.6000061V280.1000366L181.8999939,280.1000366z"/>
		</g>
		<g id="Oven">
			<g id="Rectangle_28">
				<rect x="157.5" y="295.2000427" class="st8" width="25.6000061" height="18.8999939"/>
				<path class="st9" d="M182.6000061,295.7000427v17.8999939H158v-17.8999939H182.6000061 M183.6000061,294.7000427H157v19.8999939
					h26.6000061V294.7000427L183.6000061,294.7000427z"/>
			</g>
			<g id="Rectangle_29">
				<rect x="155.8999939" y="291.4000244" class="st8" width="25.6000061" height="26.5"/>
				<path class="st9" d="M180.8999939,291.9000244v25.5h-24.6000061v-25.5H180.8999939 M181.8999939,290.9000244h-26.6000061v27.5
					h26.6000061V290.9000244L181.8999939,290.9000244z"/>
			</g>
		</g>
		<g id="Rectangle_27_1_">
			<rect x="155.8999939" y="317.9000244" class="st8" width="25.6000061" height="25.6000061"/>
			<path class="st9" d="M180.8999939,318.4000244v24.6000061h-24.6000061v-24.6000061H180.8999939 M181.8999939,317.4000244
				h-26.6000061v26.6000061h26.6000061V317.4000244L181.8999939,317.4000244z"/>
		</g>
		<g id="Sink_3">
			<rect id="Rectangle_28_x5F_2" x="158.6999969" y="192.5000153" class="st10" width="19.8999939" height="31.6000061"/>
			<path id="Rectangle_29_x5F_2" class="st10" d="M168.6000061,204.9000092L168.6000061,204.9000092
				c4.1000061,0,7.5,3.3000031,7.5,7.5v1.6999969c0,4.1000061-3.3000031,7.5-7.5,7.5l0,0c-4.1000061,0-7.5-3.3000031-7.5-7.5
				v-1.6999969C161.1999969,208.3000183,164.5,204.9000092,168.6000061,204.9000092z"/>
			<ellipse id="Ellipse_7_x5F_3" class="st10" cx="165.3000031" cy="213.3000183" rx="1.3000031" ry="1.3000031"/>
			<path id="Vector_2" class="st12" d="M161.1999969,194.1000214v8.3000031 M163.6999969,194.1000214v8.3000031
				 M166.1999969,194.1000214v8.3000031 M168.6000061,194.1000214v8.3000031 M171.1000061,194.1000214v8.3000031
				 M173.6000061,194.1000214v8.3000031 M176.1000061,194.1000214v8.3000031"/>
		</g>
		<g id="Stove">
			<g id="Rectangle_25">
				<rect x="155.8999939" y="255.7000122" class="st8" width="25.6000061" height="24.9000092"/>
				<path class="st9" d="M180.8999939,256.2000427v23.8999939h-24.6000061v-23.8999939H180.8999939 M181.8999939,255.2000122
					h-26.6000061v25.9000244h26.6000061V255.2000122L181.8999939,255.2000122z"/>
			</g>
			<g id="Rectangle_28_x5F_3">
				<rect x="155.8999939" y="255.7000122" class="st8" width="1.8999939" height="24.9000092"/>
				<path class="st9" d="M157.1999969,256.2000427v23.8999939h-0.8999939v-23.8999939H157.1999969 M158.1999969,255.2000122
					h-2.8999939v25.9000244h2.8999939V255.2000122L158.1999969,255.2000122z"/>
			</g>
			<g id="Ellipse_7_x5F_4">
				<path class="st8" d="M164.5,264.7000427c-1.6000061,0-2.8000031-1.2999878-2.8000031-2.7999878
					c0-1.6000061,1.3000031-2.7999878,2.8000031-2.7999878s2.8000031,1.2999878,2.8000031,2.7999878
					S166,264.7000427,164.5,264.7000427z"/>
				<path class="st9" d="M164.5,259.5000305c1.3000031,0,2.3000031,1,2.3000031,2.2999878s-1,2.2999878-2.3000031,2.2999878
					s-2.3000031-1-2.3000031-2.2999878C162.1999969,260.6000366,163.1999969,259.5000305,164.5,259.5000305 M164.5,258.5000305
					c-1.8000031,0-3.3000031,1.5-3.3000031,3.2999878s1.5,3.2999878,3.3000031,3.2999878s3.3000031-1.5,3.3000031-3.2999878
					S166.3000031,258.5000305,164.5,258.5000305L164.5,258.5000305z"/>
			</g>
			<g id="Ellipse_9">
				<circle class="st8" cx="174.5" cy="261.9000244" r="3.7000122"/>
				<path class="st9" d="M174.5,258.7000427c1.6999969,0,3.1999969,1.3999939,3.1999969,3.2000122
					s-1.3999939,3.2000122-3.1999969,3.2000122s-3.1999969-1.3999939-3.1999969-3.2000122
					S172.6999969,258.7000427,174.5,258.7000427 M174.5,257.7000427c-2.3000031,0-4.1999969,1.8999939-4.1999969,4.2000122
					s1.8999939,4.2000122,4.1999969,4.2000122s4.1999969-1.8999939,4.1999969-4.2000122S176.8000031,257.7000427,174.5,257.7000427
					L174.5,257.7000427z"/>
			</g>
			<g id="Ellipse_10">
				<circle class="st8" cx="164.5" cy="273.5000305" r="3.7000122"/>
				<path class="st9" d="M164.5,270.3000183c1.6999969,0,3.1999969,1.3999939,3.1999969,3.2000122
					c0,1.7000122-1.3999939,3.2000122-3.1999969,3.2000122s-3.1999969-1.3999939-3.1999969-3.2000122
					C161.3000031,271.8000183,162.8000031,270.3000183,164.5,270.3000183 M164.5,269.3000183
					c-2.3000031,0-4.1999969,1.8999939-4.1999969,4.2000122c0,2.2999878,1.8999939,4.2000122,4.1999969,4.2000122
					s4.1999969-1.8999939,4.1999969-4.2000122C168.6000061,271.2000427,166.8000031,269.3000183,164.5,269.3000183
					L164.5,269.3000183z"/>
			</g>
			<g id="Ellipse_8">
				<path class="st8" d="M175.3000031,276.3000183c-1.6000061,0-2.8000031-1.2999878-2.8000031-2.7999878
					s1.3000031-2.7999878,2.8000031-2.7999878s2.8000031,1.2999878,2.8000031,2.7999878
					S176.8000031,276.3000183,175.3000031,276.3000183z"/>
				<path class="st9" d="M175.3000031,271.2000427c1.3000031,0,2.3000031,1,2.3000031,2.2999878s-1,2.2999878-2.3000031,2.2999878
					S173,274.8000183,173,273.5000305S174,271.2000427,175.3000031,271.2000427 M175.3000031,270.2000427
					c-1.8000031,0-3.3000031,1.5-3.3000031,3.2999878s1.5,3.2999878,3.3000031,3.2999878s3.3000031-1.5,3.3000031-3.2999878
					S177.1000061,270.2000427,175.3000031,270.2000427L175.3000031,270.2000427z"/>
			</g>
		</g>
		<path id="Vector_3" class="st12" d="M168.6000061,327.4000244v6.6000061 M171.5,329.1000366l-5.8000031,3.2999878
			 M165.6999969,329.1000366L171.5,332.4000244"/>
	</g>
	<g>
		<path class="st10" d="M306.7999878,331.9000244c-1.1000061,0-2.1000061,0.8999939-2.1000061,2.1000061v20.7999878h47.6000061
			v-22.8999939H306.7999878z"/>
		<path class="st10" d="M331.3999939,295.0000305c-1.1000061,0-2.1000061,1-2.1000061,2.2000122v32.6000061
			c0,1.2000122,0.8999939,2.2000122,2.1000061,2.2000122h20.8999939v-37L331.3999939,295.0000305L331.3999939,295.0000305z"/>
		<path class="st10" d="M331.3999939,259.5000305c-1.1000061,0-2.1000061,0.8999939-2.1000061,2.1000061v31.2999878
			c0,1.2000122,0.8999939,2.1000061,2.1000061,2.1000061h20.8999939v-35.5H331.3999939z"/>
		<path class="st10" d="M327.6000061,259.5000305v-7.7000122h32.7999878v111.5H296.5v-33h8.2000122v24.6000061h47.6000061
			v-95.3000183L327.6000061,259.5000305z"/>
	</g>
	<g>
		<g>
			<rect x="373.1000061" y="285.0000305" class="st8" width="13.6000061" height="66.8999939"/>
			<path class="st9" d="M386.1000061,285.5000305v65.8999939H373.5v-65.8999939H386.1000061 M387.1000061,284.5000305H372.5
				v67.8999939h14.6000061V284.5000305L387.1000061,284.5000305z"/>
		</g>
		<g>
			<rect x="365.5" y="285.0000305" class="st8" width="19" height="66.8999939"/>
			<path class="st9" d="M384,285.5000305v65.8999939h-18v-65.8999939H384 M385,284.5000305h-20v67.8999939h20V284.5000305
				L385,284.5000305z"/>
		</g>
		<path class="st10" d="M365.7000122,285.0000305l18.7000122,67.1000061"/>
	</g>
	<g>
		<g>
			<rect x="373.1000061" y="351.9000244" class="st8" width="13.6000061" height="20.6000061"/>
			<path class="st9" d="M386.1000061,352.4000244v19.6000061H373.5v-19.6000061H386.1000061 M387.1000061,351.4000244H372.5
				v21.6000061h14.6000061V351.4000244L387.1000061,351.4000244z"/>
		</g>
		<g>
			<rect x="365.5" y="351.9000244" class="st8" width="19" height="20.6000061"/>
			<path class="st9" d="M366,352.4000244h18v19.6000061h-18V352.4000244 M365,351.4000244v21.6000061h20v-21.6000061H365
				L365,351.4000244z"/>
		</g>
		<path class="st10" d="M365.7000122,351.5000305l18.7000122,21.3999939"/>
	</g>
	<g>
		<g>
			<rect x="163.3999939" y="72.9000168" class="st8" width="13.6000061" height="69.8000107"/>
			<path class="st9" d="M176.3999939,73.4000168v68.8000107h-12.6000061V73.4000168H176.3999939 M177.3999939,72.4000168
				h-14.6000061v70.8000107h14.6000061V72.4000168L177.3999939,72.4000168z"/>
		</g>
		<g>
			<rect x="155.8999939" y="72.9000168" class="st8" width="19" height="69.8000107"/>
			<path class="st9" d="M174.3000031,73.4000168v68.8000107h-18V73.4000168H174.3000031 M175.3000031,72.4000168h-20v70.8000107h20
				V72.4000168L175.3000031,72.4000168z"/>
		</g>
		<path class="st10" d="M156,72.9000168l18.6999969,69.9999924"/>
	</g>
	<g>
		<rect x="280.5921936" y="72.9000168" class="st8" width="42.8077965" height="8.9000015"/>
		<path class="st9" d="M322.8999939,73.4000168v7.9000015h-41.8078003v-7.9000015H322.8999939 M323.8999939,72.4000168h-43.8078003
			v9.9000015h43.8078003V72.4000168L323.8999939,72.4000168z"/>
	</g>
	<g>
		<path class="st10" d="M504.7999878,183.2000122h17.7999878L525,199.3000183h-22.6000061L504.7999878,183.2000122z"/>
		<g>
			<rect x="485.3999939" y="197.6000214" class="st8" width="58.3000183" height="26.3999939"/>
			<path class="st9" d="M543.2000122,198.1000214v25.3999939h-57.2999878v-25.3999939H543.2000122 M544.2000122,197.1000214
				h-59.2999878v27.3999939h59.2999878V197.1000214L544.2000122,197.1000214z"/>
		</g>
		<path class="st12" d="M507.7000122,205.3000183h13.7000122 M506.5,202.0000153h16.0999756v4.8000031h-16.1000061
			L506.5,202.0000153z"/>
		<path class="st10" d="M499.8999939,201.8000183L499.8999939,201.8000183c0.7000122,0,1.2000122,0.5,1.2000122,1.1999969v1.6000061
			c0,0.6999969-0.5,1.1999969-1.2000122,1.1999969l0,0c-0.7000122,0-1.2000122-0.5-1.2000122-1.1999969v-1.6000061
			C498.6000061,202.3000183,499.2000122,201.8000183,499.8999939,201.8000183z"/>
		<path class="st10" d="M510.6000061,214.7000122c0-2.1999969,1.8000183-4,3.9999695-4c2.2000122,0,4,1.8000031,4,4v4h-8.1000061
			L510.6000061,214.7000122z"/>
		
			<rect x="513.8762207" y="196.9580994" transform="matrix(0.0016959 -0.9999986 0.9999986 0.0016959 295.8455811 732.2639771)" class="st15" width="1.5999757" height="42.0000648"/>
		<g>
			<rect x="505" y="182.7000122" class="st8" width="17.2999878" height="14.6000061"/>
			<path class="st9" d="M521.7999878,183.2000122v13.6000061H505.5v-13.6000061H521.7999878 M522.7999878,182.2000122H504.5
				v15.6000061h18.2999878V182.2000122L522.7999878,182.2000122z"/>
		</g>
		<g>
			<rect x="504.8999939" y="181.1000214" class="st8" width="17.6000061" height="1.5"/>
			<path class="st9" d="M522,181.6000214v0.5h-16.6000061v-0.5H522 M523,180.6000214h-18.6000061v2.5H523V180.6000214
				L523,180.6000214z"/>
		</g>
	</g>
	<g>
		<g>
			<rect x="414.1000061" y="72.9000168" class="st8" width="13.6000061" height="101.8000107"/>
			<path class="st9" d="M427.2000122,73.4000168v100.8000107h-12.6000061V73.4000168H427.2000122 M428.2000122,72.4000168
				h-14.6000061v102.8000107h14.6000061V72.4000168L428.2000122,72.4000168z"/>
		</g>
		<g>
			<rect x="406.6000061" y="72.9000168" class="st8" width="19" height="101.8000107"/>
			<path class="st9" d="M425.1000061,73.4000168v100.8000107h-18V73.4000168H425.1000061 M426.1000061,72.4000168h-20v102.8000107
				h20V72.4000168L426.1000061,72.4000168z"/>
		</g>
		<path class="st10" d="M406.7999878,174.5000153L425.5,72.8000183"/>
	</g>
	<g>
		<g>
			<rect x="255.4921875" y="72.9487457" class="st8" width="25.1000061" height="16.8999939"/>
			<path class="st9" d="M280.0921936,73.4487457v15.8999939h-24.1000061V73.4487457H280.0921936 M281.0921936,72.4487457
				h-26.1000061v17.8999939h26.1000061V72.4487457L281.0921936,72.4487457z"/>
		</g>
		<g>
			<path class="st8" d="M267.9921875,86.7487488c-2.8999939,0-5.2999878-2.3999939-5.2999878-5.3000031
				c0-2.8999939,2.3999939-5.3000031,5.2999878-5.3000031s5.2999878,2.3999939,5.2999878,5.3000031
				C273.2921753,84.3487396,270.9921875,86.7487488,267.9921875,86.7487488z"/>
			<path class="st9" d="M267.9921875,76.5487366c2.7000122,0,4.7999878,2.1999969,4.7999878,4.8000031
				s-2.2000122,4.8000031-4.7999878,4.8000031s-4.7999878-2.1999969-4.7999878-4.8000031
				S265.3921814,76.5487366,267.9921875,76.5487366 M267.9921875,75.5487366c-3.2000122,0-5.7999878,2.6000061-5.7999878,5.8000031
				s2.5999756,5.8000031,5.7999878,5.8000031s5.7999878-2.6000061,5.7999878-5.8000031
				S271.1921997,75.5487366,267.9921875,75.5487366L267.9921875,75.5487366z"/>
		</g>
	</g>
	<g id="Sink_2">
		<g id="Rectangle_16_x5F_11_1_">
			<rect x="253.3282166" y="155.8000336" class="st8" width="29.5" height="18.9000015"/>
			<path class="st9" d="M282.3282166,174.2000275v-17.8999939h-28.5v17.8999939H282.3282166 M283.3282166,175.2000275h-30.5
				v-19.8999939h30.5V175.2000275L283.3282166,175.2000275z"/>
		</g>
		<path id="Rectangle_19_x5F_5" class="st10" d="M257.6282043,165.2000275L257.6282043,165.2000275
			c0-3.3999939,2.7000122-6.0999908,6.1000061-6.0999908h8.7000122c3.3999939,0,6.1000061,2.6999969,6.1000061,6.0999908l0,0
			c0,3.4000092-2.7000122,6.1000061-6.1000061,6.1000061h-8.7000122
			C260.3282166,171.3000336,257.6282043,168.6000366,257.6282043,165.2000275z"/>
		<circle id="Ellipse_7_x5F_2_1_" class="st10" cx="268.0282288" cy="168.4000397" r="1.2999878"/>
	</g>
</g>
<g id="Numbers">
	<g>
		<path class="st7" d="M207.1999969,352.8000183l-1.6000061,1.7999878h2.6999969v1h-4.1999969v-0.8999939l2.1000061-2.2999878
			l0.5-0.6000061c0.1000061-0.1000061,0.1999969-0.2999878,0.3000031-0.5s0.1000061-0.3999939,0.1000061-0.6000061
			c0-0.2999878-0.1000061-0.5-0.3000031-0.7000122s-0.5-0.2999878-0.8000031-0.2999878c-0.5,0-1,0.2000122-1.6000061,0.7000122
			l-0.6000061-0.7000122c0.6999969-0.6000061,1.3999939-1,2.1999969-1c0.6000061,0,1.1000061,0.2000122,1.5,0.6000061
			s0.6000061,0.8999939,0.6000061,1.3999939C208.1999969,351.3000183,207.8999939,352.0000305,207.1999969,352.8000183z"/>
		<path class="st7" d="M211,355.6000366c-0.6999969,0-1.3999939-0.2000122-2.1000061-0.7000122l0.5-0.7999878
			c0.6000061,0.3999939,1.1000061,0.5,1.6000061,0.5c0.3999939,0,0.6999969-0.1000061,0.8999939-0.2999878
			c0.1999969-0.2000122,0.3000031-0.3999939,0.3000031-0.7999878c0-0.2999878-0.1000061-0.6000061-0.3999939-0.7999878
			c-0.1999969-0.2000122-0.5-0.2999878-0.8999939-0.2999878h-0.8000031v-0.8999939h0.8000031
			c0.3000031,0,0.6000061-0.1000061,0.8000031-0.2999878c0.1999969-0.2000122,0.3000031-0.3999939,0.3000031-0.7000122
			c0-0.2999878-0.1000061-0.5-0.3000031-0.7000122s-0.5-0.2999878-0.8000031-0.2999878
			c-0.3999939,0-0.8999939,0.2000122-1.3999939,0.6000061l-0.5-0.7000122
			c0.1999969-0.2000122,0.6000061-0.3999939,0.8999939-0.6000061c0.3999939-0.1000061,0.6999969-0.2000122,1.1000061-0.2000122
			c0.6000061,0,1.1000061,0.2000122,1.5,0.5s0.6000061,0.7999878,0.6000061,1.2000122
			c0,0.3999939-0.1000061,0.7000122-0.3000031,0.8999939c-0.1999969,0.2999878-0.5,0.5-0.8000031,0.6000061l0,0
			c0.3999939,0.1000061,0.6999969,0.2999878,1,0.6000061c0.1999969,0.2999878,0.3000031,0.6000061,0.3000031,1.1000061
			c0,0.6000061-0.1999969,1-0.6000061,1.3999939C212.1999969,355.4000244,211.6999969,355.6000366,211,355.6000366z"/>
	</g>
	<g>
		<path class="st7" d="M409.2999878,293.0000305l1.8999939-1.6000061h0.7999878v6.7000122h-1v-5.2999878l-1.2000122,0.8999939
			L409.2999878,293.0000305z"/>
		<path class="st7" d="M416,293.7000427c0.6000061,0,1.1000061,0.2000122,1.5,0.6000061s0.6000061,0.8999939,0.6000061,1.5
			s-0.2000122,1.2000122-0.7000122,1.6000061c-0.3999939,0.3999939-1,0.6000061-1.7000122,0.6000061
			c-0.7999878,0-1.3999939-0.2999878-1.7999878-0.8999939s-0.6000061-1.3999939-0.6000061-2.2999878
			c0-0.6000061,0.1000061-1.2000122,0.2999878-1.7999878c0.2000122-0.5,0.5-1,0.8999939-1.2999878
			c0.3999939-0.3999939,1-0.5,1.6000061-0.5c0.7000122,0,1.2999878,0.2000122,1.7000122,0.6000061l-0.3999939,0.7999878
			c-0.3999939-0.2999878-0.7999878-0.3999939-1.2000122-0.3999939c-0.3999939,0-0.7000122,0.1000061-1,0.3999939
			c-0.5,0.5-0.7999878,1.2000122-0.7999878,2.1000061c0.1000061-0.2999878,0.3999939-0.5,0.7000122-0.7000122
			S415.6000061,293.7000427,416,293.7000427z M415.7999878,297.2000427c0.3999939,0,0.7000122-0.1000061,0.8999939-0.3999939
			c0.2000122-0.2999878,0.3999939-0.6000061,0.3999939-0.8999939c0-0.3999939-0.1000061-0.7000122-0.3999939-0.8999939
			c-0.2000122-0.2000122-0.5-0.3999939-0.8999939-0.3999939s-0.7000122,0.1000061-0.8999939,0.3999939
			C414.6999817,295.2000732,414.5,295.6000671,414.5,295.9000549c0,0.3999939,0.1000061,0.7000122,0.3999939,0.8999939
			C415.1000061,297.0000305,415.3999939,297.2000427,415.7999878,297.2000427z"/>
		<path class="st7" d="M419.5,298.1000366c-0.2000122,0-0.2999878-0.1000061-0.5-0.2000122s-0.2000122-0.2999878-0.2000122-0.5
			s0.1000061-0.2999878,0.2000122-0.3999939s0.2999878-0.2000122,0.5-0.2000122s0.2999878,0.1000061,0.3999939,0.2000122
			s0.2000122,0.2999878,0.2000122,0.3999939c0,0.2000122-0.1000061,0.2999878-0.2000122,0.5
			S419.7000122,298.1000366,419.5,298.1000366z"/>
		<path class="st7" d="M423.5,293.7000427c0.6000061,0,1.1000061,0.2000122,1.5,0.6000061s0.6000061,0.8999939,0.6000061,1.5
			s-0.2000122,1.2000122-0.7000122,1.6000061c-0.3999939,0.3999939-1,0.6000061-1.7000122,0.6000061
			c-0.7999878,0-1.3999939-0.2999878-1.7999878-0.8999939s-0.6000061-1.3999939-0.6000061-2.2999878
			c0-0.6000061,0.1000061-1.2000122,0.2999878-1.7999878s0.5-1,0.8999939-1.2999878c0.3999939-0.3999939,1-0.5,1.6000061-0.5
			c0.7000122,0,1.2999878,0.2000122,1.7000122,0.6000061l-0.3999939,0.7999878
			c-0.3999939-0.2999878-0.7999878-0.3999939-1.2000122-0.3999939c-0.3999939,0-0.7000122,0.1000061-1,0.3999939
			c-0.5,0.5-0.7999878,1.2000122-0.7999878,2.1000061c0.2000122-0.2999878,0.3999939-0.5,0.7000122-0.7000122
			S423.1000061,293.7000427,423.5,293.7000427z M423.2999878,297.2000427c0.3999939,0,0.7000122-0.1000061,0.8999939-0.3999939
			c0.2000122-0.2999878,0.3999939-0.6000061,0.3999939-0.8999939c0-0.3999939-0.1000061-0.7000122-0.3999939-0.8999939
			c-0.2000122-0.2000122-0.5-0.3999939-0.8999939-0.3999939s-0.7000122,0.1000061-0.8999939,0.3999939
			C422.1999817,295.2000732,422,295.6000671,422,295.9000549c0,0.3999939,0.1000061,0.7000122,0.3999939,0.8999939
			C422.6000061,297.0000305,423,297.2000427,423.2999878,297.2000427z"/>
	</g>
	<g>
		<path class="st7" d="M363,198.9000092l1.8999939-1.6000061h0.7999878V204h-1v-5.3000031l-1.2000122,0.8999939L363,198.9000092z"/>
		<path class="st7" d="M367.6000061,204.0000153c-0.2000122,0-0.2999878-0.1000061-0.5-0.1999969
			s-0.2000122-0.3000031-0.2000122-0.5s0.1000061-0.3000031,0.2000122-0.3999939s0.2999878-0.1999969,0.5-0.1999969
			s0.2999878,0.1000061,0.3999939,0.1999969s0.2000122,0.3000031,0.2000122,0.3999939
			c0,0.1999969-0.1000061,0.3000031-0.2000122,0.5S367.7999878,204.0000153,367.6000061,204.0000153z"/>
		<path class="st7" d="M368.7000122,198.2000122v-0.8999939h4.2000122v0.6999969l-2.5,6h-1.1000061l2.5-5.6999969h-3.1000061
			V198.2000122z"/>
	</g>
	<g>
		<path class="st7" d="M447.2999878,116.6000137l1.8999939-1.5999985h0.7999878v6.6999969h-1v-5.3000031l-1.2000122,0.9000015
			L447.2999878,116.6000137z"/>
		<path class="st7" d="M450.7999878,116.6000137l1.8999939-1.5999985h0.7999878v6.6999969h-1v-5.3000031l-1.2000122,0.9000015
			L450.7999878,116.6000137z"/>
		<path class="st7" d="M455.3999939,121.7000122c-0.2000122,0-0.2999878-0.0999985-0.5-0.1999969
			s-0.2000122-0.3000031-0.2000122-0.5s0.1000061-0.3000031,0.2000122-0.4000015s0.2999878-0.1999969,0.5-0.1999969
			s0.2999878,0.0999985,0.3999939,0.1999969S456,120.9000168,456,121.0000153c0,0.1999969-0.1000061,0.3000031-0.2000122,0.5
			S455.6000061,121.7000122,455.3999939,121.7000122z"/>
		<path class="st7" d="M459.1000061,117.3000183c0.6000061,0,1.2000122,0.1999969,1.6000061,0.5999985
			s0.6000061,0.9000015,0.6000061,1.5999985s-0.2000122,1.1999969-0.7000122,1.5999985
			c-0.3999939,0.4000015-1,0.5999985-1.7000122,0.5999985c-0.7999878,0-1.5-0.3000031-2.2000122-0.8000031l0.5-0.8000031
			c0.6000061,0.4000015,1.1000061,0.5999985,1.7000122,0.5999985c0.3999939,0,0.7000122-0.0999985,1-0.4000015
			c0.2999878-0.1999969,0.3999939-0.5,0.3999939-0.9000015s-0.1000061-0.6999969-0.3999939-0.9000015
			c-0.2000122-0.1999969-0.6000061-0.4000015-1-0.4000015c-0.5,0-0.8999939,0.1999969-1.2000122,0.5l-0.6000061-0.4000015
			l0.3999939-3.3000031h3.3999939v0.9000015h-2.6000061l-0.2000122,1.5999985
			C458.3999939,117.4000168,458.7999878,117.3000183,459.1000061,117.3000183z"/>
	</g>
	<g>
		<path class="st7" d="M203,120.7000122h0.6999969v0.9000015H203v1.5999985h-1v-1.5999985h-3l-0.1999969-0.5999985
			l3.6000061-4.4000015h0.6999969v4.0999985H203z M202,118.3000183l-2,2.4000015h2V118.3000183z"/>
		<path class="st7" d="M205.1000061,123.3000183c-0.1999969,0-0.3000031-0.0999985-0.5-0.1999969
			c-0.1000061-0.0999985-0.1999969-0.3000031-0.1999969-0.5s0.1000061-0.3000031,0.1999969-0.4000015
			c0.1000061-0.0999985,0.3000031-0.1999969,0.5-0.1999969s0.3000031,0.0999985,0.3999939,0.1999969
			c0.1000061,0.0999985,0.1999969,0.3000031,0.1999969,0.4000015c0,0.1999969-0.1000061,0.3000031-0.1999969,0.5
			C205.5,123.3000183,205.3000031,123.3000183,205.1000061,123.3000183z"/>
		<path class="st7" d="M208.6999969,123.3000183c-0.6999969,0-1.3999939-0.1999969-2.1000061-0.6999969l0.5-0.8000031
			c0.6000061,0.4000015,1.1000061,0.5,1.6000061,0.5c0.3999939,0,0.6999969-0.0999985,0.8999939-0.3000031
			c0.1999969-0.1999969,0.3000031-0.4000015,0.3000031-0.8000031c0-0.3000031-0.1000061-0.5999985-0.3999939-0.8000031
			c-0.1999969-0.1999969-0.5-0.3000031-0.8999939-0.3000031h-0.8000031v-0.9000015h0.8000031
			c0.3000031,0,0.6000061-0.0999985,0.8000031-0.3000031c0.1999969-0.1999969,0.3000031-0.4000015,0.3000031-0.6999969
			c0-0.3000031-0.1000061-0.5-0.3000031-0.6999969s-0.5-0.3000031-0.8000031-0.3000031
			c-0.3999939,0-0.8999939,0.1999969-1.3999939,0.5999985l-0.5-0.6999969
			c0.1999969-0.1999969,0.6000061-0.4000015,0.8999939-0.5999985c0.3999939-0.0999985,0.6999969-0.1999969,1.1000061-0.1999969
			c0.6000061,0,1.1000061,0.1999969,1.5,0.5s0.6000061,0.8000031,0.6000061,1.1999969
			c0,0.4000015-0.1000061,0.6999969-0.3000031,0.9000015c-0.1999969,0.3000031-0.5,0.5-0.8000031,0.5999985l0,0
			c0.3999939,0.0999985,0.6999969,0.3000031,1,0.5999985c0.1999969,0.3000031,0.3000031,0.5999985,0.3000031,1.0999985
			c0,0.5999985-0.1999969,1-0.6000061,1.4000015C209.8999939,123.1000137,209.3000031,123.3000183,208.6999969,123.3000183z"/>
	</g>
	<g>
		<path class="st7" d="M284.7000122,120.7000122h0.7000122v0.9000015h-0.7000122v1.5999985h-1v-1.5999985h-3L280.5,121.0000153
			l3.6000061-4.4000015h0.7000122v4.0999985H284.7000122z M283.7000122,118.3000183l-2,2.4000015h2V118.3000183z"/>
		<path class="st7" d="M286.8999939,123.3000183c-0.2000122,0-0.2999878-0.0999985-0.5-0.1999969
			c-0.1000061-0.0999985-0.2000122-0.3000031-0.2000122-0.5s0.1000061-0.3000031,0.2000122-0.4000015
			s0.2999878-0.1999969,0.5-0.1999969s0.2999878,0.0999985,0.3999939,0.1999969S287.5,122.5000229,287.5,122.6000214
			c0,0.1999969-0.1000061,0.3000031-0.2000122,0.5C287.2000122,123.3000183,287,123.3000183,286.8999939,123.3000183z"/>
		<path class="st7" d="M291.5,120.5000153l-1.6000061,1.8000031h2.7000122v1h-4.2000122v-0.9000015L290.5,120.1000137l0.5-0.5999985
			c0.1000061-0.0999985,0.2000122-0.3000031,0.2999878-0.5s0.1000061-0.4000015,0.1000061-0.5999985
			c0-0.3000031-0.1000061-0.5-0.2999878-0.6999969c-0.2000122-0.1999969-0.5-0.3000031-0.7999878-0.3000031
			c-0.5,0-1,0.1999969-1.6000061,0.6999969l-0.6000061-0.6999969c0.7000122-0.5999985,1.3999939-1,2.2000122-1
			c0.6000061,0,1.1000061,0.1999969,1.5,0.5999985s0.6000061,0.9000015,0.6000061,1.4000015
			C292.5,119.0000153,292.2000122,119.7000122,291.5,120.5000153z"/>
	</g>
	<g>
		<path class="st7" d="M373.5,124.7000122h0.7000122v0.9000015H373.5v1.5999985h-1v-1.5999985h-3l-0.2000122-0.5999985
			l3.6000061-4.4000015h0.7000122v4.0999985H373.5z M372.5,122.3000183l-2,2.4000015h2V122.3000183z"/>
	</g>
</g>
<g id="street_anchors">
	<rect id="street_anchor_01" x="355" y="450.0000305" class="st16" width="10" height="10"/>
	<rect id="street_anchor_02" x="615.2000122" y="235.0000153" class="st16" width="10" height="10"/>
</g>
</svg>
