<?xml version="1.0" encoding="utf-8"?>
<!-- Generator: Adobe Illustrator 24.2.0, SVG Export Plug-In . SVG Version: 6.00 Build 0)  -->
<!DOCTYPE svg PUBLIC "-//W3C//DTD SVG 1.1//EN" "http://www.w3.org/Graphics/SVG/1.1/DTD/svg11.dtd" [
	<!ENTITY ns_extend "http://ns.adobe.com/Extensibility/1.0/">
	<!ENTITY ns_ai "http://ns.adobe.com/AdobeIllustrator/10.0/">
	<!ENTITY ns_graphs "http://ns.adobe.com/Graphs/1.0/">
	<!ENTITY ns_vars "http://ns.adobe.com/Variables/1.0/">
	<!ENTITY ns_imrep "http://ns.adobe.com/ImageReplacement/1.0/">
	<!ENTITY ns_sfw "http://ns.adobe.com/SaveForWeb/1.0/">
	<!ENTITY ns_custom "http://ns.adobe.com/GenericCustomNamespace/1.0/">
	<!ENTITY ns_adobe_xpath "http://ns.adobe.com/XPath/1.0/">
]>
<svg version="1.1" id="_x31__x5F_2" xmlns:x="&ns_extend;" xmlns:i="&ns_ai;" xmlns:graph="&ns_graphs;"
	 xmlns="http://www.w3.org/2000/svg" xmlns:xlink="http://www.w3.org/1999/xlink" x="0px" y="0px" viewBox="0 0 720 480"
	 style="enable-background:new 0 0 720 480;" xml:space="preserve">
<style type="text/css">
	.st0{fill:#DBD4CA;}
	.st1{opacity:0.3;}
	.st2{opacity:0.7;fill:#C49F8A;enable-background:new    ;}
	.st3{fill:#C49F8A;}
	.st4{clip-path:url(#SVGID_2_);}
	.st5{fill:none;stroke:#C49F8A;stroke-miterlimit:10;}
	.st6{opacity:0.3;clip-path:url(#SVGID_4_);}
	.st7{fill:none;stroke:#565440;}
	.st8{fill:#565440;}
	.st9{fill:#E9E4DC;}
	.st10{fill:#E9E4DC;stroke:#C49F8A;stroke-linejoin:round;}
	.st11{fill:#E9E4DC;stroke:#C49F8A;}
	.st12{fill:none;stroke:#C49F8A;}
	.st13{fill:#E9E4DC;stroke:#C49F8A;stroke-width:0.9999701;stroke-miterlimit:3.9997807;}
	.st14{fill:#E9E4DC;stroke:#C49F8A;stroke-width:0.9999997;stroke-miterlimit:3.9999988;}
	.st15{opacity:0;}
	.st16{fill:#3F3F3F;fill-opacity:0;}
</style>
<metadata>
	<sfw  xmlns="&ns_sfw;">
		<slices></slices>
		<sliceSourceBounds  bottomLeftOrigin="true" height="667.6734619" width="667.6734009" x="157.7534332" y="-85.886467">
			</sliceSourceBounds>
	</sfw>
</metadata>
<polygon id="Floor_1_" class="st0" points="330.6000061,143.7000427 313.7999878,143.7000427 313.7999878,183.4000397 
	268.2999878,183.4000397 268.2999878,415.1000977 450.5,415.1000977 450.5,209.0000458 450.5,182.0000458 450.5,160.4000397 
	450.5,143.2000427 450.5,64.1000443 330.6000061,64.1000443 "/>
<g id="Wet_Floor_1_">
	<g id="Wet_Floor">
		<g class="st1">
			<rect x="271.2000122" y="240.4000397" class="st2" width="48.5" height="66"/>
		</g>
		<path class="st3" d="M319.7000122,295.5000916v-1.3999939l-7,7l-9.7999878-9.7999878l9.7999878-9.7999878l7,7v-1.3999939
			l-6.2999878-6.2999878l6.2999878-6.2999878v-1.3999939l-7,7L303,270.4001465l9.7000122-9.7000122l7,7v-1.3999939
			l-6.2999878-6.2999878l6.2999878-6.3000488v-1.5l-7.1000061,7.1000366l-9.7999878-9.8000488l9.1000061-9.1000061h-1.3999939
			l-8.3999939,8.3999939l-8.3999939-8.3999939h-1.3999939l9.1000061,9.1000061l-9.7000122,9.7000427l-10-10.0000458
			l8.7999878-8.8000031h-1.3999939l-8.1000061,8.1000061l-8.1000061-8.1000061h-1.3999939l8.7999878,8.8000031l-9.1000061,9.1000519
			v2.7999878L280.5,270.400116l-9.2999878,9.2999878v2.7999878l9.1000061,9.1000061l-9.1000061,9.1000061v2.7999878
			l2.8999939,2.8999939h1.5l-4.2999878-4.2999878l9.7999878-9.7999878l9.7000122,9.7000122l-4.3999939,4.3999939h1.3999939
			l3.7000122-3.7000122l3.7000122,3.7000122h1.3999939l-4.3999939-4.3999939l10-10l9.7999878,9.7999878l-4.6000061,4.6000061
			h1.3999939l3.8999939-3.8999939l3.8999939,3.8999939H318l-4.6000061-4.6000061L319.7000122,295.5000916z M302.2000122,250.2000427
			L312,260.0000916l-9.7000122,9.7000122L292.5,259.900116L302.2000122,250.2000427z M291.7999878,260.6000977l9.7999878,9.7999878
			l-9.7999878,9.7999878L282,270.4000854L291.7999878,260.6000977z M271.2000122,259.7001038L281,249.9000549l10,10.000061
			l-9.7999878,9.7999878L271.2000122,259.7001038z M271.2999878,281.1000977l10-10l9.7999878,9.7999878l-10,10
			L271.2999878,281.1000977z M291.5,301.3000793l-9.7000122-9.7000122l10-10L301.5,291.3000793L291.5,301.3000793z
			 M292.5,280.9000854l9.7999878-9.7999878L312,280.8001099l-9.7999878,9.7999878L292.5,280.9000854z"/>
		<polygon class="st3" points="319.7000122,245.4000397 314.7000122,240.4000397 313.2999878,240.4000397 319.7000122,246.8000488 
					"/>
	</g>
	<g id="Wet_Floor_2_">
		<g>
			<g>
				<defs>
					<rect id="SVGID_1_" x="330.5106506" y="60.5488358" width="69.237793" height="58.0012436"/>
				</defs>
				<clipPath id="SVGID_2_">
					<use xlink:href="#SVGID_1_"  style="overflow:visible;"/>
				</clipPath>
				<g class="st4">
					<g>
						<line class="st5" x1="168.5283356" y1="242.4710999" x2="502.0115356" y2="-91.0121002"/>
						<line class="st5" x1="158.1069794" y1="232.0497589" x2="491.5901794" y2="-101.4334488"/>
						<line class="st5" x1="178.9496765" y1="252.8924561" x2="512.4328613" y2="-80.5907516"/>
						<line class="st5" x1="189.3710327" y1="263.3138428" x2="522.854248" y2="-70.1694031"/>
						<line class="st5" x1="199.7923737" y1="273.7351685" x2="533.2755737" y2="-59.7480507"/>
						<line class="st5" x1="210.2137299" y1="284.1565247" x2="543.6968994" y2="-49.3267021"/>
						<line class="st5" x1="220.6350708" y1="294.5778809" x2="554.1182861" y2="-38.9053535"/>
						<line class="st5" x1="231.056427" y1="304.9992065" x2="564.5396118" y2="-28.4840031"/>
						<line class="st5" x1="241.4777679" y1="315.4205627" x2="574.9609375" y2="-18.0626545"/>
						<line class="st5" x1="251.8991241" y1="325.8419189" x2="585.3823242" y2="-7.6413069"/>
						<line class="st5" x1="241.4777679" y1="315.4205627" x2="574.9609375" y2="-18.0626545"/>
						<line class="st5" x1="262.3204651" y1="336.2632751" x2="595.8036499" y2="2.7800419"/>
						<line class="st5" x1="272.7418213" y1="346.6846008" x2="606.2250366" y2="13.2013903"/>
						<line class="st5" x1="283.1631775" y1="357.105957" x2="616.6463623" y2="23.6227398"/>
						<line class="st5" x1="293.5845032" y1="367.5273132" x2="627.067688" y2="34.0440826"/>
						<line class="st5" x1="304.0058594" y1="377.9486694" x2="637.4890747" y2="44.4654312"/>
						<line class="st5" x1="314.4272156" y1="388.3699951" x2="647.9104004" y2="54.8867798"/>
						<line class="st5" x1="324.8485413" y1="398.7913513" x2="658.3317261" y2="65.3081284"/>
						<line class="st5" x1="335.2698975" y1="409.2127075" x2="668.7531128" y2="75.7294769"/>
						<line class="st5" x1="324.8485413" y1="398.7913513" x2="658.3317261" y2="65.3081284"/>
						<line class="st5" x1="345.6912537" y1="419.6340637" x2="679.1744385" y2="86.1508255"/>
						<line class="st5" x1="356.1126099" y1="430.0553894" x2="689.5958252" y2="96.5721741"/>
						<line class="st5" x1="366.5339355" y1="440.4767456" x2="700.0171509" y2="106.9935226"/>
						<line class="st5" x1="376.9552917" y1="450.8981018" x2="710.4384766" y2="117.4148712"/>
						<line class="st5" x1="387.3766479" y1="461.319458" x2="720.8598633" y2="127.8362198"/>
						<line class="st5" x1="397.7980042" y1="471.7407837" x2="731.281189" y2="138.2575684"/>
						<line class="st5" x1="408.2193298" y1="482.1621399" x2="741.7025146" y2="148.6789093"/>
						<line class="st5" x1="418.640686" y1="492.5834961" x2="752.1239014" y2="159.1002655"/>
						<line class="st5" x1="408.2193298" y1="482.1621399" x2="741.7025146" y2="148.6789093"/>
						<line class="st5" x1="429.0620422" y1="503.0048523" x2="762.5452271" y2="169.5216064"/>
						<line class="st5" x1="439.4833984" y1="513.4261475" x2="772.9666138" y2="179.9429626"/>
						<line class="st5" x1="449.9047241" y1="523.8474731" x2="783.3879395" y2="190.3643036"/>
						<line class="st5" x1="460.3260803" y1="534.2687988" x2="793.8092651" y2="200.7856598"/>
						<line class="st5" x1="470.7474365" y1="544.6901855" x2="804.2306519" y2="211.2070007"/>
						<line class="st5" x1="481.1687927" y1="555.1115112" x2="814.6519775" y2="221.6283569"/>
						<line class="st5" x1="491.5901184" y1="565.5328979" x2="825.0733032" y2="232.0496979"/>
					</g>
					<g>
						<line class="st5" x1="502.0114136" y1="555.1113892" x2="168.5283661" y2="221.6283417"/>
						<line class="st5" x1="491.5900879" y1="565.5327148" x2="158.1070251" y2="232.0496979"/>
						<line class="st5" x1="512.4328003" y1="544.6900024" x2="178.9497223" y2="211.2070007"/>
						<line class="st5" x1="522.854126" y1="534.2686768" x2="189.3710632" y2="200.7856445"/>
						<line class="st5" x1="533.2754517" y1="523.8473511" x2="199.7924194" y2="190.3643036"/>
						<line class="st5" x1="543.6968384" y1="513.4259644" x2="210.2137604" y2="179.9429474"/>
						<line class="st5" x1="554.1181641" y1="503.0046997" x2="220.6351166" y2="169.5216064"/>
						<line class="st5" x1="564.5394897" y1="492.5833435" x2="231.0564575" y2="159.1002502"/>
						<line class="st5" x1="574.9608765" y1="482.1619873" x2="241.4778137" y2="148.6789093"/>
						<line class="st5" x1="585.3822021" y1="471.7406311" x2="251.8991547" y2="138.2575531"/>
						<line class="st5" x1="574.9608765" y1="482.1619873" x2="241.4778137" y2="148.6789093"/>
						<line class="st5" x1="595.8035889" y1="461.3193054" x2="262.3204956" y2="127.8362122"/>
						<line class="st5" x1="606.2249146" y1="450.8979492" x2="272.7418518" y2="117.4148636"/>
						<line class="st5" x1="616.6462402" y1="440.476593" x2="283.163208" y2="106.993515"/>
						<line class="st5" x1="627.067627" y1="430.0552368" x2="293.5845642" y2="96.5721664"/>
						<line class="st5" x1="637.4889526" y1="419.6339111" x2="304.0058899" y2="86.1508179"/>
						<line class="st5" x1="647.9102783" y1="409.2125549" x2="314.4272461" y2="75.7294693"/>
						<line class="st5" x1="658.331665" y1="398.7911987" x2="324.8486023" y2="65.3081207"/>
						<line class="st5" x1="668.7529907" y1="388.3698425" x2="335.2699585" y2="54.8867722"/>
						<line class="st5" x1="658.331665" y1="398.7911987" x2="324.8486023" y2="65.3081207"/>
						<line class="st5" x1="679.1743774" y1="377.9485168" x2="345.6912842" y2="44.4654236"/>
						<line class="st5" x1="689.5957031" y1="367.5271606" x2="356.1126404" y2="34.044075"/>
						<line class="st5" x1="700.0170288" y1="357.1058044" x2="366.5339966" y2="23.6227322"/>
						<line class="st5" x1="710.4384155" y1="346.6844482" x2="376.9553528" y2="13.2013836"/>
						<line class="st5" x1="720.8597412" y1="336.2631226" x2="387.3766785" y2="2.7800345"/>
						<line class="st5" x1="731.2810669" y1="325.8417664" x2="397.7980347" y2="-7.641314"/>
						<line class="st5" x1="741.7024536" y1="315.4204102" x2="408.2193909" y2="-18.0626621"/>
						<line class="st5" x1="752.1237793" y1="304.999054" x2="418.6407471" y2="-28.4840107"/>
						<line class="st5" x1="741.7024536" y1="315.4204102" x2="408.2193909" y2="-18.0626621"/>
						<line class="st5" x1="762.545105" y1="294.5777283" x2="429.0620728" y2="-38.9053612"/>
						<line class="st5" x1="772.9664917" y1="284.1563721" x2="439.483429" y2="-49.3267097"/>
						<line class="st5" x1="783.3878174" y1="273.7350159" x2="449.9047852" y2="-59.7480583"/>
						<line class="st5" x1="793.8092041" y1="263.3136902" x2="460.3261414" y2="-70.1694107"/>
						<line class="st5" x1="804.2305298" y1="252.8923035" x2="470.747467" y2="-80.5907593"/>
						<line class="st5" x1="814.6518555" y1="242.4709473" x2="481.1688232" y2="-91.0121078"/>
						<line class="st5" x1="825.0732422" y1="232.0496063" x2="491.5901794" y2="-101.4334488"/>
					</g>
				</g>
			</g>
		</g>
		<g>
			<g>
				<defs>
					<rect id="SVGID_3_" x="330.5106506" y="60.5488358" width="69.237793" height="58.0012436"/>
				</defs>
				<clipPath id="SVGID_4_">
					<use xlink:href="#SVGID_3_"  style="overflow:visible;"/>
				</clipPath>
				<g class="st6">
					<rect x="330.5106506" y="60.5488358" class="st2" width="322.158905" height="322.1589355"/>
				</g>
			</g>
		</g>
	</g>
</g>
<path id="Windows" class="st7" d="M450.5657654,414.911499H268.3276672v3.7755432h186.0137329V166.9767456h-3.7755432V414.911499
	H450.5657654z"/>
<g id="Walls">
	<polygon class="st8" points="377.5697021,407.3599854 354.9158325,407.3599854 352.3988037,407.3599854 324.7105713,407.3599854 
		324.7105713,419.9454956 377.5697021,419.9454956 395.18927,419.9454956 395.18927,402.3258667 377.5697021,402.3258667 	"/>
	<rect x="435.4631958" y="364.5693359" class="st8" width="20.1368408" height="17.619751"/>
	<polygon class="st8" points="443.0143433,203.4747009 443.0143433,207.3204041 359.4804688,207.3204041 359.4804688,209.8374329 
		360.8364868,209.8374329 360.8364868,249.3091125 363.3535767,249.3091125 363.3535767,209.8374329 443.0143433,209.8374329 
		443.0143433,221.0943298 455.6000366,221.0943298 455.6000366,203.4747009 	"/>
	<path class="st8" d="M334.7805786,209.837738h5.5292358v-2.5170288h-3.012207v-18.9369507h-0.0015259v-0.0117798h-17.6196289
		v-37.7564087h17.6196289v-7.5513916V118.5513h7.2402344v-2.5170288h-7.2402344V81.382782h6.8922424h1.258606h1.258606v-8.7975464
		h51.7644348v43.4478149h-34.7767334v2.5170288h50.5056763v-2.5170288h-13.211853V72.5852356h36.9931641v43.4481201h-4.5723877
		v2.5170288h4.5723877v49.6849365h17.6196289V60.0000305H329.7449341v83.0641479h-17.619873v40.2737427h-13.03302v7.5510864
		h35.6885376V209.837738z M344.188324,72.5852356v6.2803345h-6.8922424v-6.2803345H344.188324z"/>
	<path class="st8" d="M271.8514404,306.6757813h55.3761597v-2.5170288h-7.5511475v-23.1550903h-2.5172119v23.1550903H280.388031
		v-7.6203003h-1.258606h-1.258606h-6.0193787v-55.3073425h45.3078003v20.6089783h2.5172119v-23.1260071h-47.8250122v-47.8250732
		h3.0013428v-7.5510864h-10.5527954v236.6075745h22.6541748v-17.6196289h-15.1027222V306.6757813z M277.8708191,299.0556641
		v5.1030884h-6.0193787v-5.1030884H277.8708191z"/>
	<polygon class="st8" points="360.8364868,271.7094727 360.8364868,304.1587524 360.8364868,306.6757813 363.3535767,306.6757813 
		443.0143433,306.6757813 443.0143433,316.7444458 455.5998535,316.7444458 455.5998535,246.2652283 437.9802246,246.2652283 
		437.9802246,263.8853149 443.0143433,263.8853149 443.0143433,304.1587524 363.3535767,304.1587524 363.3535767,271.7094727 	"/>
</g>
<path id="Doors" class="st7" d="M319.6763916,261.3679504c2.7688293,0,5.0341492,0.5033569,7.5514221,1.5103149
	c2.5170593,1.006958,4.7822876,2.5170593,6.5444946,4.2792358c2.0136719,1.7619019,3.5240784,4.0274353,4.5307922,6.5444946
	c1.0067444,2.5170288,1.5103149,5.0341492,1.5103149,7.803009h-20.1367798 M363.3534851,272.1057739
	c2.6958313,0,4.9014893-0.582428,7.352417-1.7476501c2.4507141-1.1648865,4.6562805-2.9124756,6.3720093-4.9512024
	c1.9606628-2.0387268,3.4312439-4.6602173,4.411438-7.5726929c0.9801941-2.9125977,1.4704895-5.8251648,1.4704895-9.0290985
	h-19.6061401 M413.678772,118.5501556c0,2.7688446,0.5033569,5.0341644,1.5103149,7.5512085
	s2.5170593,4.7822876,4.2792358,6.5444794c1.7619019,2.0136871,4.0274353,3.5240784,6.5444946,4.5308075
	c2.5170288,1.0069427,5.0341492,1.5103149,7.803009,1.5103149v-20.1368103 M364.1885681,118.5501556
	c0,2.7688446-0.5033569,5.0341644-1.5103149,7.5512085s-2.5170593,4.7822876-4.2792358,6.5444794
	c-1.7619019,2.0136871-4.0274353,3.5240784-6.5444946,4.5308075c-2.5170288,1.0069427-5.0341492,1.5103149-7.8029785,1.5103149
	v-20.1368103 M359.9499207,207.3912048c0-2.7688293-0.5034485-5.0341492-1.5103149-7.5511932
	c-1.0070496-2.5170441-2.5170593-4.7822876-4.2792358-6.5444794c-1.7619019-2.0136871-4.0275269-3.5240784-6.5445557-4.5308075
	c-2.5170593-1.006958-5.0340881-1.5103149-7.803009-1.5103149v20.136795 M299.5395813,190.8891144
	c0,3.2722015-0.7551575,6.2926788-2.0136719,9.313324c-1.2585144,3.0207062-3.0207214,6.0411072-5.5377502,8.306366
	c-2.2654724,2.2652435-5.0341797,4.2789154-8.0548096,5.5375214c-3.0207214,1.2585144-6.2926941,2.0136719-9.5648804,2.0136719
	v-25.1711121"/>
<g id="Furniture_1_">
	<g>
		<rect x="280.8880005" y="298.7001038" class="st9" width="35.8119736" height="5"/>
		<path class="st3" d="M316.2000122,299.2001038v4H281.388031v-4H316.2000122 M317.2000122,298.2001038H280.388031v6h36.8119812
			V298.2001038L317.2000122,298.2001038z"/>
	</g>
	<g>
		<g>
			<rect x="272.3636169" y="241.7000427" class="st9" width="44.2999878" height="17.9000092"/>
			<path class="st3" d="M272.8636169,242.2000427h43.2999878v16.9000549h-43.2999878V242.2000427 M271.8636169,241.2000427
				v18.9000549h45.2999878V241.200058L271.8636169,241.2000427L271.8636169,241.2000427z"/>
		</g>
		<g>
			<g>
				<path class="st10" d="M276.0636292,250.6000519c0,3.5,3,6.200058,6.3999939,5.8000336
					c3.7999878-0.2999878,8.5-0.7000427,12.1000061-0.7000427c3.5,0,8.2999878,0.3000488,12.1000061,0.7000427
					c3.3999939,0.2999878,6.3999939-2.4000397,6.3999939-5.8000488c0-3.3999939-3-6.1999969-6.3999939-5.8000031
					c-3.7999878,0.3000031-8.5,0.6999969-12.1000061,0.6999969c-3.5,0-8.2999878-0.3000031-12.1000061-0.6999969
					C279.0636292,244.4000397,276.0636292,247.1000519,276.0636292,250.6000519z"/>
				<ellipse class="st10" cx="282.0636292" cy="250.6000519" rx="1.1000061" ry="1.1000061"/>
			</g>
		</g>
	</g>
	<g id="Sink_2_2_">
		<g id="Rectangle_16_x5F_11_2_">
			<rect x="272.3636169" y="259.6000977" class="st9" width="11.2000122" height="18.6000061"/>
			<path class="st3" d="M283.0636292,260.1000977v17.6000061h-10.2000122v-17.6000061H283.0636292 M284.0636292,259.1000977
				h-12.2000122v19.6000061h12.2000122V259.1000977L284.0636292,259.1000977z"/>
		</g>
		<path id="Rectangle_19_x5F_5_2_" class="st11" d="M277.963623,275.2001038L277.963623,275.2001038
			c2,0,3.6000061-1.6000061,3.6000061-3.6000061v-5.2000122c0-2-1.6000061-3.6000061-3.6000061-3.6000061l0,0
			c-2,0-3.6000061,1.6000061-3.6000061,3.6000061v5.2000122C274.2636108,273.5000916,275.963623,275.2001038,277.963623,275.2001038
			z"/>
		<circle id="Ellipse_7_x5F_2_2_" class="st11" cx="276.9085388" cy="268.9000854" r="1.1000061"/>
	</g>
	<g id="Toilet_2_">
		<g id="Rectangle_21_2_">
			<rect x="300" y="295.3001099" class="st9" width="12" height="3.3999939"/>
			<path class="st3" d="M311.5,295.8001099v2.3999939h-11v-2.3999939H311.5 M312.5,294.8001099h-13v4.3999939h13V294.8001099
				L312.5,294.8001099z"/>
		</g>
		<path id="Rectangle_19_x5F_2_2_" class="st11" d="M310.5,287.0000916c0.2000122-2.6000061-1.8999939-4.7999878-4.5-4.7999878l0,0
			c-2.6000061,0-4.7000122,2.2000122-4.5,4.7999878l0.6000061,8.2999878H310L310.5,287.0000916z"/>
		<path id="Rectangle_18_x5F_13_2_" class="st11" d="M309.1000061,287.1000977
			c0.2000122-1.8999939-1.2999878-3.3999939-3.1000061-3.3999939l0,0c-1.8999939,0-3.2999878,1.6000061-3.1000061,3.3999939l0.5,5
			h5.3999939L309.1000061,287.1000977z"/>
		<ellipse id="Ellipse_6_x5F_2_2_" class="st11" cx="306" cy="289.5000916" rx="1.1000061" ry="1.1000061"/>
	</g>
	<g>
		<g>
			<rect x="272.3635864" y="278.2001038" class="st9" width="11.2000122" height="17.8383484"/>
			<path class="st3" d="M283.0636292,278.7001038v16.8383484h-10.2000122v-16.8383484H283.0636292 M284.0636292,277.7001038
				h-12.2000122v18.8383484h12.2000122V277.7001038L284.0636292,277.7001038z"/>
		</g>
		<g>
			<path class="st9" d="M277.5136108,290.3192749c-1.7999878,0-3.2000122-1.3999939-3.2000122-3.2000122
				s1.3999939-3.2000122,3.2000122-3.2000122c1.7999878,0,3.2000122,1.3999939,3.2000122,3.2000122
				S279.3135986,290.3192749,277.5136108,290.3192749z"/>
			<path class="st3" d="M277.5136108,283.4192505v1c1.5,0,2.7000122,1.2000122,2.7000122,2.7000122
				s-1.2000122,2.7000122-2.7000122,2.7000122s-2.7000122-1.2000122-2.7000122-2.7000122s1.2000122-2.7000122,2.7000122-2.7000122
				V283.4192505 M277.5136108,283.4192505c-2,0-3.7000122,1.7000122-3.7000122,3.7000122s1.7000122,3.7000122,3.7000122,3.7000122
				s3.7000122-1.7000122,3.7000122-3.7000122S279.6136169,283.4192505,277.5136108,283.4192505L277.5136108,283.4192505z"/>
		</g>
	</g>
	<g>
		<g>
			<rect x="272.3480225" y="224.3156433" class="st9" width="42.1000061" height="7.6000061"/>
			<path class="st3" d="M313.9480286,224.8156433v6.6000061h-41.1000061v-6.6000061H313.9480286 M314.9480286,223.8156433
				h-43.1000061v8.6000061h43.1000061V223.8156433L314.9480286,223.8156433z"/>
		</g>
		<g>
			<rect x="272.3480225" y="226.0156403" class="st9" width="42.1000061" height="12.1999969"/>
			<path class="st3" d="M313.9480286,226.5156403v11.1999969h-41.1000061v-11.1999969H313.9480286 M314.9480286,225.5156403
				h-43.1000061v13.1999969h43.1000061V225.5156403L314.9480286,225.5156403z"/>
		</g>
		<path class="st11" d="M314.5480347,238.2156372l-42.6000061-12.3000031"/>
	</g>
	<g>
		<path class="st11" d="M383.3800049,358.980072h35.6400146v25.9199829h-35.6400146V358.980072z"/>
		<path class="st11" d="M408.361969,356.8789368v-0.5968323c0-3.9549866-3.2069702-7.1619568-7.1619568-7.1619568
			c-3.955719,0-7.1619568,3.2069702-7.1619568,7.1619568v0.5968323H408.361969z"/>
		<path class="st11" d="M406.6000061,358.980072v-2.7000122c0-2.9821167-2.4178772-5.3999939-5.3999939-5.3999939
			c-2.9827576,0-5.3999939,2.4178772-5.3999939,5.3999939v2.7000122H406.6000061z"/>
		<path class="st11" d="M408.361969,387.0011902v0.5968323c0,3.9549866-3.2069702,7.1619568-7.1619568,7.1619568
			c-3.955719,0-7.1619568-3.2069702-7.1619568-7.1619568v-0.5968323H408.361969z"/>
		<path class="st11" d="M406.6000061,384.9000549v2.7000122c0,2.9821167-2.4178772,5.3999939-5.3999939,5.3999939
			c-2.9827576,0-5.3999939-2.4178772-5.3999939-5.3999939v-2.7000122H406.6000061z"/>
		<path class="st11" d="M421.1211548,364.7781067h0.5968323c3.9549561,0,7.1619568,3.2069702,7.1619568,7.1619568
			c0,3.955719-3.2070007,7.1619568-7.1619568,7.1619568h-0.5968323V364.7781067z"/>
		<path class="st11" d="M419.0200195,366.5400696h2.6999817c2.9821167,0,5.4000244,2.4178772,5.4000244,5.3999939
			c0,2.9827576-2.4179077,5.3999939-5.4000244,5.3999939h-2.6999817V366.5400696z"/>
		<path class="st11" d="M381.2789001,364.7781067h-0.5968323c-3.9549866,0-7.1619568,3.2069702-7.1619568,7.1619568
			c0,3.955719,3.2069702,7.1619568,7.1619568,7.1619568h0.5968323V364.7781067z"/>
		<path class="st11" d="M383.3800049,366.5400696h-2.6999817c-2.9821167,0-5.3999939,2.4178772-5.3999939,5.3999939
			c0,2.9827576,2.4178772,5.3999939,5.3999939,5.3999939h2.6999817V366.5400696z"/>
	</g>
	<g id="TV">
		<g id="Rectangle_16">
			<rect x="373.2999573" y="122.6164398" class="st9" width="37.2255859" height="4.956543"/>
			<path class="st3" d="M410.0251465,123.116394v3.9567871h-36.2251282v-3.9567871H410.0251465 M411.0251465,122.116394h-38.2251282
				v5.9567871h38.2251282V122.116394L411.0251465,122.116394z"/>
		</g>
		<g id="Rectangle_15">
			<rect x="373.2999573" y="119.0500336" class="st9" width="37.2255859" height="6.7412109"/>
			<path class="st3" d="M410.0251465,119.5501099v5.7409973h-36.2251282v-5.7409973H410.0251465 M411.0251465,118.5501099
				h-38.2251282v7.7409973h38.2251282V118.5501099L411.0251465,118.5501099z"/>
		</g>
		<rect id="Rectangle_17" x="379.2129517" y="120.6994019" class="st11" width="25.3987122" height="1.6500244"/>
		<path id="Rectangle_18_x5F_2" class="st11" d="M397.2850952,120.6994324h-10.745636l0.9768982-1.6499939h8.7918701
			L397.2850952,120.6994324z"/>
	</g>
	<g>
		<g>
			<path class="st9" d="M365.5732422,341.8430481v-30.5458984h14.25v29.7275391
				c0,0.4511719-0.3681641,0.8183594-0.8203125,0.8183594H365.5732422z"/>
			<path class="st3" d="M379.3227539,311.7971191l0.0000305,29.227478c0,0.1756287-0.1436768,0.3185425-0.320282,0.3185425
				h-12.9288635l-0.0000305-29.5460205H379.3227539 M380.3227539,310.7971191h-15.2491455l0.0000305,31.5460205h13.9288635
				c0.7294617,0,1.320282-0.5900879,1.320282-1.3185425L380.3227539,310.7971191L380.3227539,310.7971191z"/>
		</g>
		<g>
			<path class="st9" d="M380.7265625,325.5090637c-0.4804688,0-0.8710938-0.3691406-0.8710938-0.8232422v-13.4619141h23.3134766
				v13.4619141c0,0.4541016-0.390625,0.8232422-0.8710938,0.8232422H380.7265625z"/>
			<path class="st3" d="M402.6687012,311.7235107v12.961853c0,0.1783142-0.1662903,0.3233948-0.370697,0.3233948
				l-21.5714722,0.0000305c-0.2044067,0-0.370697-0.1450806-0.370697-0.3234253v-12.961853H402.6687012 M403.6687012,310.7235107
				H379.355835v13.961853c0,0.7311707,0.6133728,1.3234253,1.370697,1.3234253l21.5714722-0.0000305
				c0.7572937,0,1.370697-0.5922241,1.370697-1.3233948V310.7235107L403.6687012,310.7235107z"/>
		</g>
		<g>
			<path class="st9" d="M404.0458984,325.5090637c-0.4599609,0-0.8339844-0.3691406-0.8339844-0.8232422v-13.4619141h22.6640625
				v13.4619141c0,0.4541016-0.3740234,0.8232422-0.8339844,0.8232422H404.0458984z"/>
			<path class="st3" d="M425.3757629,311.7235107v12.961853c0,0.1783142-0.1499023,0.3233948-0.334137,0.3233948h-20.9958496
				c-0.1842346,0-0.3341064-0.1450806-0.3341064-0.3233948v-12.961853H425.3757629 M426.3757629,310.7235107h-23.664093v13.961853
				c0,0.7311707,0.5970154,1.3233948,1.3341064,1.3233948h20.9958496c0.7364197,0,1.334137-0.5922546,1.334137-1.3233948
				V310.7235107L426.3757629,310.7235107z"/>
		</g>
		<g>
			<polygon class="st9" points="361.3359375,345.9153137 361.3359375,307.1487122 429.6962891,307.1487122 429.6962891,326.5696106 
				425.8876953,326.5696106 425.8876953,311.2239075 365.5625,311.2239075 365.5625,341.841095 380.8837891,341.841095 
				380.8837891,345.9153137 			"/>
			<path class="st3" d="M429.1961975,307.6491699v18.4207153h-2.8085022l-0.0000305-14.3460693v-1h-1l-59.3253174,0.0000305h-1v1
				l0.0000305,29.6167603v1h1h14.3215332v3.0746765l-18.5473938,0.0000305v-37.7661438H429.1961975 M430.1961975,306.6491699
				h-69.3596802v39.7661438l20.5473938-0.0000305v-5.0746765h-15.3215332l-0.0000305-29.6167603l59.3253174-0.0000305
				l0.0000305,15.3460693h4.8085022V306.6491699L430.1961975,306.6491699z"/>
		</g>
	</g>
	<g>
		<polygon class="st9" points="272.3637695,401.82547 272.3637695,307.1516418 326.7275391,307.1516418 326.7275391,324.0022278 
			289.2138672,324.0022278 289.2138672,401.82547 		"/>
		<path class="st3" d="M326.2276001,307.6518555v15.8500366h-36.513916h-1v1v76.8239746h-15.8500366v-76.8239746v-16.8500366
			H326.2276001 M327.2276001,306.6518555h-55.3639526v0.0239868v17.8260498v77.8239746h17.8500366v-77.8239746h37.513916
			V306.6518555L327.2276001,306.6518555z"/>
	</g>
	<g id="Rectangle_26">
		<rect x="272.3637695" y="330.2600403" class="st9" width="16.8500977" height="24.1015625"/>
		<path class="st3" d="M288.7137146,330.7600098v23.1017456h-15.8500671v-23.1017456H288.7137146 M289.7137146,329.7600098
			h-17.8500671v25.1017456h17.8500671V329.7600098L289.7137146,329.7600098z"/>
	</g>
	<g id="Oven">
		<g id="Rectangle_28">
			<rect x="289.2199402" y="372.8733215" class="st9" width="1.8349609" height="12.3876953"/>
			<path class="st3" d="M290.5547791,373.3736267v11.3875122h-0.8346252v-11.3875122H290.5547791 M291.5547791,372.3735962
				l-2.8346252,0.0000305v13.3875427l2.8346252-0.0000305V372.3735962L291.5547791,372.3735962z"/>
		</g>
		<g id="Rectangle_29">
			<rect x="272.3634033" y="370.32901" class="st9" width="16.8500977" height="17.4765625"/>
			<path class="st3" d="M288.7137146,370.8288574v16.4770203h-15.8500671v-16.4769897L288.7137146,370.8288574
				 M289.7137146,369.8288574l-17.8500671,0.0000305v18.4769897h17.8500671V369.8288574L289.7137146,369.8288574z"/>
		</g>
	</g>
	<g id="Sink_3">
		<rect id="Rectangle_28_x5F_2" x="293.6756897" y="308.8830566" class="st11" width="21.197052" height="13.3876038"/>
		<path id="Rectangle_29_x5F_2" class="st11" d="M306.5637817,315.5768433v0.0000305
			c0,2.7726746-2.2476807,5.0203552-5.0203552,5.0203552h-1.1156311c-2.7726746,0-5.0203552-2.2476807-5.0203552-5.0203552l0,0
			c0-2.7726746,2.2476807-5.0203552,5.0203247-5.0203552h1.1156616
			C304.3161011,310.5565186,306.5637817,312.8041992,306.5637817,315.5768433z"/>
		<ellipse id="Ellipse_7_x5F_3" class="st11" cx="300.9855957" cy="313.3456116" rx="1.0998535" ry="1.099823"/>
		<path id="Vector_2" class="st12" d="M313.7571106,310.5565186h-5.5781555 M313.7571106,312.22995l-5.5781555,0.0000305
			 M313.7571106,313.9034119h-5.5781555 M313.7571106,315.5768738h-5.5781555 M313.7571106,317.2503052h-5.5781555
			 M313.7571106,318.9237671h-5.5781555 M313.7571106,320.597229h-5.5781555"/>
	</g>
	<g id="Stove">
		<g id="Rectangle_25">
			<rect x="272.3637695" y="329.9729614" class="st9" width="16.8500977" height="16.3818359"/>
			<path class="st3" d="M288.7137146,330.473053v15.3815918h-15.8500671V330.473053H288.7137146 M289.7137146,329.473053
				h-17.8500671v17.3815918h17.8500671V329.473053L289.7137146,329.473053z"/>
		</g>
		<g id="Rectangle_28_x5F_3">
			<rect x="287.3789673" y="329.9729614" class="st9" width="1.8349609" height="16.3818359"/>
			<path class="st3" d="M288.7137451,330.473053v15.3815918h-0.8346558V330.473053H288.7137451 M289.7137451,329.473053h-2.8346558
				v17.3815918h2.8346558V329.473053L289.7137451,329.473053z"/>
		</g>
		<g id="Ellipse_7_x5F_4">
			<path class="st9" d="M283.0198364,336.6611633c-0.9545898,0-1.730957-0.7763672-1.730957-1.7314453
				s0.7763672-1.7314453,1.730957-1.7314453s1.7314453,0.7763672,1.7314453,1.7314453
				S283.9744263,336.6611633,283.0198364,336.6611633z"/>
			<path class="st3" d="M283.019928,333.6982117c0.6789246,0,1.2312622,0.5523376,1.2312622,1.2312317
				c0,0.6789246-0.5523376,1.2312622-1.2312622,1.2312622c-0.6789551,0-1.2312927-0.5523376-1.2312927-1.2312622
				C281.7886353,334.2505493,282.3409729,333.6982117,283.019928,333.6982117 M283.019928,332.6982117
				c-1.2322998,0-2.2312927,0.9989624-2.2312927,2.2312317c0,1.2322998,0.9989929,2.2312622,2.2312927,2.2312622
				c1.2322693,0,2.2312622-0.9989624,2.2312622-2.2312622C285.2511902,333.6971741,284.2521973,332.6982117,283.019928,332.6982117
				L283.019928,332.6982117z"/>
		</g>
		<g id="Ellipse_9">
			<circle class="st9" cx="276.8838196" cy="334.929718" r="2.2890625"/>
			<path class="st3" d="M276.8839417,333.1410828c0.9865112,0,1.789093,0.8025513,1.789093,1.789032
				s-0.8025818,1.789032-1.789093,1.789032s-1.789093-0.8025513-1.789093-1.789032S275.8974304,333.1410828,276.8839417,333.1410828
				 M276.8839417,332.1410828c-1.5403748,0-2.789093,1.2486877-2.789093,2.789032s1.2487183,2.789032,2.789093,2.789032
				s2.789093-1.2486877,2.789093-2.789032S278.4243164,332.1410828,276.8839417,332.1410828L276.8839417,332.1410828z"/>
		</g>
		<g id="Ellipse_10">
			<circle class="st9" cx="283.0198364" cy="341.6902161" r="2.2890625"/>
			<path class="st3" d="M283.019928,339.9007263c0.9864807,0,1.7890625,0.8025818,1.7890625,1.7890625
				c0,0.9865112-0.8025818,1.789093-1.7890625,1.789093c-0.9865112,0-1.789093-0.8025818-1.789093-1.789093
				C281.230835,340.7033081,282.0334167,339.9007263,283.019928,339.9007263 M283.019928,338.9007263
				c-1.5403748,0-2.789093,1.2487183-2.789093,2.7890625c0,1.5403748,1.2487183,2.789093,2.789093,2.789093
				c1.5403442,0,2.7890625-1.2487183,2.7890625-2.789093C285.8089905,340.1494446,284.5602722,338.9007263,283.019928,338.9007263
				L283.019928,338.9007263z"/>
		</g>
		<g id="Ellipse_8">
			<path class="st9" d="M276.3262024,343.4216614c-0.9545898,0-1.7314453-0.7763672-1.7314453-1.7314453
				s0.7768555-1.7314453,1.7314453-1.7314453s1.730957,0.7763672,1.730957,1.7314453
				S277.2807922,343.4216614,276.3262024,343.4216614z"/>
			<path class="st3" d="M276.3261108,340.4592285c0.6789551,0,1.2312927,0.5523376,1.2312927,1.2312622
				c0,0.678894-0.5523376,1.2312317-1.2312927,1.2312317c-0.6789246,0-1.2312622-0.5523376-1.2312622-1.2312317
				C275.0948486,341.0115662,275.6471863,340.4592285,276.3261108,340.4592285 M276.3261108,339.4592285
				c-1.2322693,0-2.2312622,0.9989624-2.2312622,2.2312622c0,1.2322693,0.9989624,2.2312317,2.2312622,2.2312317
				s2.2312927-0.9989624,2.2312927-2.2312317C278.5574036,340.4581909,277.5584106,339.4592285,276.3261108,339.4592285
				L276.3261108,339.4592285z"/>
		</g>
	</g>
	<g>
		<g id="Rectangle_27">
			<rect x="272.3637695" y="353.4970703" class="st9" width="16.8500977" height="16.8496094"/>
			<path class="st3" d="M288.7137146,353.9966125v15.8500977h-15.8500671v-15.8500671L288.7137146,353.9966125
				 M289.7137146,352.9966125l-17.8500671,0.0000305v17.8500671h17.8500671V352.9966125L289.7137146,352.9966125z"/>
		</g>
		<path id="Vector_3" class="st12" d="M280.7883606,359.6903992v4.4625244 M282.7410583,360.8060303l-3.9047241,2.2312622
			 M278.8363342,360.8060303l3.9040527,2.2312622"/>
	</g>
	<g>
		<g>
			<rect x="380.9003906" y="73.0886078" class="st9" width="17.0742188" height="42.4443359"/>
			<path class="st3" d="M397.4743652,73.5884094V115.03302h-16.0739746l0.0000305-41.4446106H397.4743652 M398.4743652,72.5884094
				h-18.0739441l-0.0000305,43.4446106h18.0739746V72.5884094L398.4743652,72.5884094z"/>
		</g>
		<g>
			<g>
				<path class="st10" d="M389.4375305,76.6028671c-3.3305359,0-5.9026184,2.8688736-5.6058655,6.1334457
					c0.3297729,3.6273041,0.6265564,8.1779251,0.6265564,11.5744095c0,3.3635101-0.3297729,7.9141235-0.6265564,11.5744019
					c-0.2967834,3.2975464,2.3082886,6.1334381,5.605835,6.1334381s5.9026184-2.8688736,5.605835-6.1334381
					c-0.3297424-3.6273041-0.6265259-8.1779251-0.6265259-11.5744095c0-3.3635025,0.3297729-7.9141235,0.6265564-11.5744095
					C395.3401489,79.4717407,392.7350769,76.6028671,389.4375305,76.6028671z"/>
				<ellipse class="st10" cx="389.4375" cy="82.3735809" rx="1.0998535" ry="1.0998459"/>
			</g>
		</g>
	</g>
	<g id="Sink_2_1_">
		<g id="Rectangle_16_x5F_11_1_">
			<rect x="361.9365234" y="73.0886078" class="st9" width="18.9589844" height="11.5825195"/>
			<path class="st3" d="M380.395813,73.5883789v10.5829468h-17.9592896V73.5883789H380.395813 M381.395813,72.5883789h-19.9592896
				v12.5829468h19.9592896V72.5883789L381.395813,72.5883789z"/>
		</g>
		<path id="Rectangle_19_x5F_5_1_" class="st11" d="M364.8126526,78.8797607L364.8126526,78.8797607
			c0,2.1274338,1.7246094,3.8520584,3.8520508,3.8520584h5.5029602c2.1274109,0,3.8520508-1.7246246,3.8520508-3.8520584l0,0
			c0-2.1274338-1.7246399-3.8520584-3.8520508-3.8520584l-5.5029602-0.0000076
			C366.537262,75.0276947,364.8126526,76.752327,364.8126526,78.8797607z"/>
		<circle id="Ellipse_7_x5F_2_1_" class="st11" cx="371.4161682" cy="77.6783829" r="1.0998497"/>
	</g>
	<g>
		<g>
			<rect x="401.4833984" y="87.1628418" class="st9" width="35.9970703" height="1.8344727"/>
			<path class="st3" d="M436.9802551,87.6627655v0.8346252h-34.9963989v-0.8346252H436.9802551 M437.9802551,86.6627655h-36.9963989
				v2.8346252h36.9963989V86.6627655L437.9802551,86.6627655z"/>
		</g>
		<g>
			<rect x="401.4833984" y="73.0632172" class="st9" width="35.9970703" height="14.1074219"/>
			<path class="st3" d="M401.9838562,73.5632019l34.9963684,0.0000305v13.1071777h-34.9963684V73.5632019 M400.9838562,72.5632019
				v15.1072083h36.9963684V72.5632324L400.9838562,72.5632019L400.9838562,72.5632019z"/>
		</g>
		<path class="st11" d="M437.7695923,73.2145767l-36.6763306,13.8184891"/>
	</g>
	<g>
		<g>
			<rect x="372.0667419" y="159.8195648" class="st9" width="39.6914063" height="47.0610352"/>
			<path class="st3" d="M372.5667419,160.3195801l38.6916809,0.0000305v46.0610962h-38.6916809V160.3195801
				 M371.5667419,159.3195801v48.0611267h40.6916809v-48.0610962L371.5667419,159.3195801L371.5667419,159.3195801z"/>
		</g>
		<rect x="375.0401001" y="192.0741577" class="st11" width="15.8820801" height="11.885025"/>
		<rect x="392.9029846" y="192.0741577" class="st11" width="15.8820496" height="11.885025"/>
		
			<rect x="378.32724" y="186.7638702" transform="matrix(0.258808 -0.9659288 0.9659288 0.258808 98.6770706 514.0093384)" class="st13" width="11.8846741" height="11.8846741"/>
		
			<rect x="393.7052307" y="186.7590942" transform="matrix(0.9659289 -0.2588075 0.2588075 0.9659289 -36.2561531 109.9973373)" class="st13" width="11.8846741" height="11.8846741"/>
		<g>
			<polygon class="st9" points="372.0813904,194.3517914 372.0813904,159.345932 411.7581482,159.3464203 411.7581482,196.8430023 
				396.0003357,197.8215179 			"/>
			<path class="st3" d="M372.5811157,159.8461609l38.6773071,0.0000305v36.5266418l-15.236969,0.9466553l-23.4403381-3.4005432
				V159.8461609 M371.5811157,158.8461609v35.6853333v0.2528381l24.3991394,3.5396423l16.2781677-1.011322v-0.7585144v-37.7079468
				L371.5811157,158.8461609L371.5811157,158.8461609z"/>
		</g>
		<polyline class="st12" points="411.7161865,196.0898743 395.8341064,196.0898895 372.0286865,194.1090698 		"/>
	</g>
	<g>
		<path class="st11" d="M348.0643005,162.8065643l-0.0206299,12.1889038l-11.0840454,1.6433563l0.0265503-15.5133362
			L348.0643005,162.8065643z"/>
		<g>
			<rect x="320.1733398" y="151.1232758" class="st9" width="17.84375" height="36.78125"/>
			<path class="st3" d="M337.5172424,151.6234131l0.0000305,35.7810364h-16.8439331v-35.7810364H337.5172424
				 M338.5172424,150.6234131h-18.8439026v37.7810364h18.8439331L338.5172424,150.6234131L338.5172424,150.6234131z"/>
		</g>
		<path class="st12" d="M333.2851563,164.8101196l-0.0162964,9.4185638 M335.1029663,163.9825134l-0.0187988,11.0814362
			l-3.3244629-0.0059204l0.0188904-11.0807343L335.1029663,163.9825134z"/>
		<path class="st14" d="M335.2796326,159.4094543L335.2796326,159.4094543
			c-0.0007629,0.4589844-0.3735046,0.8304443-0.832489,0.8296661l-1.1080627-0.0018921
			c-0.4589844-0.0007782-0.8304443-0.3735046-0.8296814-0.832489l0,0c0.0007935-0.4589996,0.3735046-0.8304596,0.832489-0.8296814
			l1.1080627,0.0018921C334.9089661,158.5777283,335.280426,158.9504547,335.2796326,159.4094543z"/>
		<path class="st11" d="M326.4021912,166.7530975c1.5297852,0.0023499,2.76828,1.2449036,2.7652893,2.7748108
			c-0.0023499,1.5298004-1.2449951,2.7675934-2.7748108,2.7652588l-2.7704163-0.0050507l0.0095215-5.5400391
			L326.4021912,166.7530975z"/>
		<g>
			<polygon class="st9" points="323.265625,183.424057 323.3818359,155.6135101 325.0966797,155.6144867 324.980957,183.4245453 			
				"/>
			<path class="st3" d="M323.8794556,156.1138306l0.7149353,0.0004883l-0.1114197,26.8102417l-0.7149353-0.0004883
				L323.8794556,156.1138306 M322.883606,155.1131287l-0.1197205,28.8102417l2.7149353,0.0018921l0.1197205-28.8102417
				L322.883606,155.1131287L322.883606,155.1131287z"/>
		</g>
		<g>
			<rect x="338.496582" y="163.0807953" class="st9" width="9.7124023" height="11.5722656"/>
			<path class="st3" d="M347.7089844,163.5807495v10.5721436h-8.7124634v-10.5721436H347.7089844 M348.7089844,162.5807495
				H337.996521v12.5721436h10.7124634V162.5807495L348.7089844,162.5807495z"/>
		</g>
		<g>
			<rect x="348.222168" y="162.8708344" class="st9" width="1.8344727" height="12.0488281"/>
			<path class="st3" d="M349.5566406,163.3707275v11.0490723h-0.8346558v-11.0490723H349.5566406 M350.5566406,162.3707275
				h-2.8346558v13.0490723h2.8346558V162.3707275L350.5566406,162.3707275z"/>
		</g>
	</g>
	<g>
		<g>
			<rect x="322.90625" y="191.3913422" class="st9" width="3.8466797" height="17.9462891"/>
			<path class="st3" d="M326.2529602,191.8914185l-0.0000305,16.9463501H323.40625v-16.9463501H326.2529602
				 M327.2529602,190.8914185H322.40625v18.9463501h4.8466797L327.2529602,190.8914185L327.2529602,190.8914185z"/>
		</g>
		<g>
			<rect x="325.0175781" y="191.3913422" class="st9" width="9.260498" height="17.9462891"/>
			<path class="st3" d="M333.7780762,191.8914185v16.9463196h-8.260498v-16.9463196H333.7780762 M334.7780762,190.8914185
				h-10.260498v18.9463196h10.260498V190.8914185L334.7780762,190.8914185z"/>
		</g>
		<path class="st11" d="M334.126709,209.6271057l-8.9717712-18.6262817"/>
	</g>
	<g>
		<g>
			<rect x="385.9541626" y="210.3375854" class="st9" width="39.6918945" height="47.0610504"/>
			<path class="st3" d="M425.1458435,210.8377533v46.061142l-38.6916809-0.0000305v-46.0611115H425.1458435
				 M426.1458435,209.8377533h-40.6916809v48.0611115l40.6916809,0.0000305V209.8377533L426.1458435,209.8377533z"/>
		</g>
		<rect x="406.7904053" y="213.2592773" class="st11" width="15.8820801" height="11.885025"/>
		<rect x="388.9275208" y="213.2592773" class="st11" width="15.8820496" height="11.885025"/>
		
			<rect x="407.5006409" y="218.5699615" transform="matrix(0.258808 -0.9659288 0.9659288 0.258808 89.5777435 565.7631836)" class="st13" width="11.8846741" height="11.8846741"/>
		
			<rect x="392.1226501" y="218.5746613" transform="matrix(0.9659289 -0.2588075 0.2588075 0.9659289 -44.5441818 110.6717453)" class="st13" width="11.8846741" height="11.8846741"/>
		<g>
			<polygon class="st9" points="385.9536743,257.8722839 385.9536743,220.3756714 401.7114868,219.3971558 425.6314087,222.8668823 
				425.6314087,257.8722839 			"/>
			<path class="st3" d="M401.6911316,219.8989716l23.4403381,3.4005432v34.0727997l-38.6773376-0.0000305l0.0000305-36.5266571
				L401.6911316,219.8989716 M401.7323303,218.8944855l-16.2781677,1.011322v0.7585144l-0.0000305,37.707962l40.6773376,0.0000305
				v-35.6853485v-0.2528381L401.7323303,218.8944855L401.7323303,218.8944855z"/>
		</g>
		<polyline class="st12" points="385.9963989,221.1285858 401.8784485,221.1285706 425.6838684,223.1093903 		"/>
	</g>
	<g>
		<path class="st11" d="M414.6412964,291.9669189l0.0206604-12.1888733l11.0840454-1.6433716l-0.0265808,15.5133362
			L414.6412964,291.9669189z"/>
		<g>
			<rect x="424.6883545" y="266.8688354" class="st9" width="17.8442383" height="36.78125"/>
			<path class="st3" d="M442.0322571,267.3690491l0.0000305,35.7810364h-16.8439331v-35.7810364H442.0322571
				 M443.0322571,266.3690491h-18.8439026v37.7810364h18.8439331L443.0322571,266.3690491L443.0322571,266.3690491z"/>
		</g>
		<path class="st12" d="M429.4204712,289.9633789l0.0162659-9.4185486 M427.6026306,290.7909851l0.0187988-11.0814209
			l3.3244934,0.0058899l-0.0189209,11.0807495L427.6026306,290.7909851z"/>
		<path class="st14" d="M427.4259644,295.3640442L427.4259644,295.3640442
			c0.0007629-0.4589844,0.3735046-0.8304443,0.832489-0.8296509l1.1080627,0.0018616
			c0.4590149,0.0007935,0.8304749,0.3735046,0.8296814,0.8325195l0,0c-0.0007629,0.4589844-0.3735046,0.8304443-0.832489,0.8296509
			l-1.1080627-0.0018616C427.7966309,296.1957703,427.4252014,295.8230591,427.4259644,295.3640442z"/>
		<path class="st11" d="M436.3034058,288.0203857c-1.5297852-0.0023193-2.7682495-1.244873-2.7652588-2.7748108
			c0.0023193-1.5297852,1.2449951-2.7675781,2.7747803-2.7652283l2.7704163,0.0050354l-0.0095215,5.5400391L436.3034058,288.0203857
			z"/>
		<g>
			<polygon class="st9" points="437.6087646,299.1588745 437.7249756,271.3483276 439.4398193,271.3502808 439.3236084,299.1608276 
							"/>
			<path class="st3" d="M438.2226257,271.848938l0.7149353,0.0004883l-0.1114197,26.8102417l-0.7149353-0.0004883
				L438.2226257,271.848938 M437.2267761,270.8482361l-0.1197205,28.8102417l2.7149353,0.0018921l0.1197205-28.8102417
				L437.2267761,270.8482361L437.2267761,270.8482361z"/>
		</g>
		<g>
			<rect x="414.49646" y="280.1207886" class="st9" width="9.7128906" height="11.5722656"/>
			<path class="st3" d="M423.7091064,280.6206055v10.5721436h-8.7124634v-10.5721436H423.7091064 M424.7091064,279.6206055
				h-10.7124634v12.5721436h10.7124634V279.6206055L424.7091064,279.6206055z"/>
		</g>
		<g>
			<rect x="412.6488037" y="279.854187" class="st9" width="1.8349609" height="12.0488281"/>
			<path class="st3" d="M413.9836121,280.3536987v11.0490723h-0.8346252v-11.0490723H413.9836121 M414.9836121,279.3536987
				h-2.8346252v13.0490723h2.8346252V279.3536987L414.9836121,279.3536987z"/>
		</g>
	</g>
	<g>
		<g>
			<rect x="363.8535156" y="287.7257996" class="st9" width="44.5791016" height="1.8349609"/>
			<path class="st3" d="M407.9321289,288.2261353v0.8346252h-43.5786743v-0.8346252H407.9321289 M408.9321289,287.2261353
				h-45.5786743v2.8346252h45.5786743V287.2261353L408.9321289,287.2261353z"/>
		</g>
		<g>
			<rect x="363.8535156" y="289.5617981" class="st9" width="44.5791016" height="14.1064453"/>
			<path class="st3" d="M364.3534546,290.0614624h43.5787048v13.1071777h-43.5787048V290.0614624 M363.3534546,289.0614624
				v15.1071777h45.5787048v-15.1071777H363.3534546L363.3534546,289.0614624z"/>
		</g>
		<path class="st11" d="M363.6129761,303.5173035l45.1843872-13.818512"/>
	</g>
	<g id="Toilet_1_">
		<g id="Rectangle_21_1_">
			<rect x="337.7987976" y="88.0363464" class="st9" width="3.3999939" height="12"/>
			<path class="st3" d="M340.6987915,99.5363464h-2.3999939v-11h2.3999939V99.5363464 M341.6987915,100.5363464v-13h-4.3999939v13
				H341.6987915L341.6987915,100.5363464z"/>
		</g>
		<path id="Rectangle_19_x5F_2_1_" class="st11" d="M349.4988098,98.5363388c2.6000061,0.2000122,4.7999878-1.8999939,4.7999878-4.5
			l0,0c0-2.6000061-2.2000122-4.7000122-4.7999878-4.5l-8.2999878,0.6000137v7.8999939L349.4988098,98.5363388z"/>
		<path id="Rectangle_18_x5F_13_1_" class="st11" d="M349.3988037,97.1363449
			c1.8999939,0.2000122,3.3999939-1.2999878,3.3999939-3.1000061l0,0c0-1.8999939-1.6000061-3.2999878-3.3999939-3.1000061l-5,0.5
			v5.3999939L349.3988037,97.1363449z"/>
		<ellipse id="Ellipse_6_x5F_2_1_" class="st11" cx="346.9988098" cy="94.0363388" rx="1.1000061" ry="1.1000061"/>
	</g>
</g>
<g id="Numbers">
	<g>
		<path class="st8" d="M328.3974609,369.6291199l-1.6376953,1.7910156h2.7446289v0.9541016h-4.2119141v-0.8642578l2.1152344-2.25
			l0.5039063-0.5576172c0.1259766-0.1445313,0.2382813-0.3212891,0.3374023-0.53125s0.1484375-0.3984375,0.1484375-0.5664063
			c0-0.3007813-0.1064453-0.5478516-0.3193359-0.7431641c-0.2128906-0.1943359-0.4785156-0.2919922-0.7963867-0.2919922
			c-0.5161133,0-1.0410156,0.2490234-1.5751953,0.7470703l-0.5668945-0.7382813
			c0.659668-0.6484375,1.3886719-0.9716797,2.1870117-0.9716797c0.6118164,0,1.112793,0.1855469,1.5029297,0.5576172
			c0.3959961,0.3720703,0.59375,0.8544922,0.59375,1.4492188
			C329.4233398,368.2189636,329.081543,368.8908386,328.3974609,369.6291199z"/>
		<path class="st8" d="M332.5644531,368.0539246c0.6357422,0,1.1669922,0.2041016,1.5927734,0.6123047
			c0.4262695,0.4082031,0.6391602,0.9296875,0.6391602,1.5664063c0,0.6601563-0.2250977,1.1992188-0.675293,1.6191406
			c-0.4379883,0.4208984-1.0136719,0.6308594-1.7275391,0.6308594c-0.7924805,0-1.512207-0.2617188-2.1601563-0.7832031
			l0.4589844-0.8105469c0.5639648,0.4267578,1.1186523,0.6396484,1.6650391,0.6396484
			c0.4077148,0,0.7436523-0.1230469,1.0078125-0.3691406c0.2578125-0.2402344,0.387207-0.5458984,0.387207-0.9179688
			c0-0.3544922-0.1259766-0.6542969-0.3779297-0.9003906c-0.2460938-0.2392578-0.5644531-0.359375-0.9541016-0.359375
			c-0.4682617,0-0.8642578,0.1650391-1.1879883,0.4941406l-0.6479492-0.4316406l0.3686523-3.3212891h3.3930664v0.9365234h-2.6010742
			l-0.1977539,1.6201172C331.8535156,368.1291199,332.1923828,368.0539246,332.5644531,368.0539246z"/>
		<path class="st8" d="M336.2182617,372.5177917c-0.1796875,0-0.331543-0.0595703-0.4541016-0.1796875
			c-0.1230469-0.1201172-0.1845703-0.2695313-0.1845703-0.4501953c0-0.1738281,0.0615234-0.3203125,0.1845703-0.4404297
			c0.1225586-0.1201172,0.2744141-0.1806641,0.4541016-0.1806641c0.1743164,0,0.3212891,0.0605469,0.4414063,0.1806641
			c0.1196289,0.1201172,0.1796875,0.2666016,0.1796875,0.4404297c0,0.1806641-0.0600586,0.3300781-0.1796875,0.4501953
			C336.5395508,372.4582214,336.3925781,372.5177917,336.2182617,372.5177917z"/>
		<path class="st8" d="M339.9624023,365.6066589c0.7856445,0,1.3857422,0.296875,1.7998047,0.890625
			c0.4140625,0.5820313,0.6210938,1.3623047,0.6210938,2.3398438c0,0.4921875-0.0541992,0.9511719-0.1621094,1.3769531
			s-0.2685547,0.8115234-0.4814453,1.15625c-0.2128906,0.3457031-0.4980469,0.6171875-0.8549805,0.8144531
			c-0.3569336,0.1982422-0.7695313,0.2978516-1.2373047,0.2978516c-0.7143555,0-1.3022461-0.1894531-1.7641602-0.5673828
			l0.387207-0.7919922c0.4194336,0.2998047,0.8637695,0.4501953,1.331543,0.4501953
			c0.5820313,0,1.0229492-0.2314453,1.3232422-0.6933594c0.2939453-0.4560547,0.4560547-1.0380859,0.4858398-1.7460938
			c-0.1616211,0.2578125-0.3916016,0.4648438-0.6884766,0.6210938s-0.6225586,0.234375-0.9765625,0.234375
			c-0.605957,0-1.1069336-0.2011719-1.5029297-0.6035156c-0.3959961-0.4072266-0.59375-0.9208984-0.59375-1.5390625
			c0-0.6416016,0.2158203-1.1757813,0.6479492-1.6015625C338.7353516,365.8195496,339.2900391,365.6066589,339.9624023,365.6066589z
			 M341.2041016,367.8293152c0-0.3662109-0.1230469-0.6777344-0.3686523-0.9365234
			c-0.2402344-0.2578125-0.5371094-0.3867188-0.8911133-0.3867188c-0.3720703,0-0.6782227,0.1259766-0.9179688,0.3779297
			c-0.2460938,0.2578125-0.3691406,0.5732422-0.3691406,0.9453125c0,0.3662109,0.1201172,0.6708984,0.3598633,0.9130859
			c0.2402344,0.2431641,0.5429688,0.3652344,0.9091797,0.3652344c0.3657227,0,0.6689453-0.1201172,0.9091797-0.3603516
			C341.0810547,368.5011902,341.2041016,368.1955261,341.2041016,367.8293152z"/>
	</g>
	<g>
		<path class="st8" d="M388.9453125,273.0851746l1.9355469-1.6025391h0.8007813v6.6513672h-1.0263672v-5.2558594
			l-1.1513672,0.9355469L388.9453125,273.0851746z"/>
		<path class="st8" d="M392.5097656,273.0851746l1.9345703-1.6025391h0.8007813v6.6513672h-1.0253906v-5.2558594
			l-1.1523438,0.9355469L392.5097656,273.0851746z"/>
		<path class="st8" d="M397.1259766,278.2775574c-0.1796875,0-0.3310547-0.0595703-0.4541016-0.1796875
			s-0.1845703-0.2695313-0.1845703-0.4501953c0-0.1738281,0.0615234-0.3203125,0.1845703-0.4404297
			s0.2744141-0.1806641,0.4541016-0.1806641c0.1748047,0,0.3212891,0.0605469,0.4414063,0.1806641
			s0.1796875,0.2666016,0.1796875,0.4404297c0,0.1806641-0.0595703,0.3300781-0.1796875,0.4501953
			S397.3007813,278.2775574,397.1259766,278.2775574z"/>
		<path class="st8" d="M400.6367188,278.2424011c-0.7324219,0-1.4287109-0.2197266-2.0878906-0.6572266l0.4589844-0.8369141
			c0.5693359,0.359375,1.1005859,0.5400391,1.5927734,0.5400391c0.3896484,0,0.6992188-0.0947266,0.9267578-0.2841797
			c0.2285156-0.1884766,0.3417969-0.4394531,0.3417969-0.7509766c0-0.3125-0.1162109-0.5654297-0.3505859-0.7607422
			c-0.234375-0.1943359-0.5371094-0.2919922-0.9091797-0.2919922h-0.828125v-0.9365234h0.7919922
			c0.3476563,0,0.6298828-0.0898438,0.8466797-0.2695313c0.2158203-0.1806641,0.3232422-0.4169922,0.3232422-0.7109375
			c0-0.2880859-0.1044922-0.5195313-0.3144531-0.6933594s-0.4746094-0.2607422-0.7919922-0.2607422
			c-0.4443359,0-0.9150391,0.1855469-1.4130859,0.5576172l-0.5224609-0.7285156
			c0.2460938-0.2460938,0.5507813-0.4394531,0.9140625-0.5810547c0.3623047-0.140625,0.7363281-0.2109375,1.1201172-0.2109375
			c0.59375,0,1.0859375,0.1679688,1.4765625,0.5039063c0.3896484,0.3359375,0.5849609,0.75,0.5849609,1.2412109
			c0,0.3544922-0.1054688,0.6679688-0.3154297,0.9414063c-0.2099609,0.2724609-0.4863281,0.4628906-0.828125,0.5712891v0.0361328
			c0.4082031,0.0957031,0.7255859,0.2890625,0.9541016,0.5800781c0.2275391,0.2910156,0.3417969,0.6435547,0.3417969,1.0576172
			c0,0.5644531-0.2158203,1.0322266-0.6474609,1.4042969C401.875,278.0617371,401.3203125,278.2424011,400.6367188,278.2424011z"/>
	</g>
	<g>
		<path class="st8" d="M386.0146484,143.2667999l1.9345703-1.6025391H388.75v6.6513672h-1.0253906v-5.2558594l-1.1523438,0.9355469
			L386.0146484,143.2667999z"/>
		<path class="st8" d="M393.8710938,145.7960968h0.7382813v0.890625h-0.7382813v1.6289063h-0.9902344v-1.6289063h-3.0419922
			l-0.2070313-0.6484375l3.5820313-4.3740234h0.6572266V145.7960968z M392.8808594,143.3927765l-1.9619141,2.4033203h1.9619141
			V143.3927765z"/>
	</g>
	<g>
		<path class="st8" d="M415.7374573,101.9337921l-1.6376953,1.7910156h2.7451172v0.9541016h-4.2119141v-0.8642578l2.1152344-2.25
			l0.5039063-0.5576172c0.1259766-0.1445313,0.2382813-0.3212891,0.3369141-0.53125
			c0.0996094-0.2099609,0.1484375-0.3984375,0.1484375-0.5664063c0-0.3007813-0.1064453-0.5478516-0.3193359-0.7431641
			c-0.2128906-0.1943359-0.4785156-0.2919922-0.7958984-0.2919922c-0.5166016,0-1.0410156,0.2490234-1.5751953,0.7470703
			l-0.5673828-0.7382813c0.6601563-0.6484375,1.3886719-0.9716797,2.1875-0.9716797
			c0.6113281,0,1.1123047,0.1855469,1.5029297,0.5576172c0.3955078,0.3720703,0.59375,0.8544922,0.59375,1.4492188
			C416.7638245,100.5236359,416.4220276,101.1955109,415.7374573,101.9337921z"/>
		<path class="st8" d="M418.3565979,104.822464c-0.1796875,0-0.3320313-0.0595703-0.4541016-0.1796875
			c-0.1230469-0.1201172-0.1845703-0.2695313-0.1845703-0.4501953c0-0.1738281,0.0615234-0.3203125,0.1845703-0.4404297
			c0.1220703-0.1201172,0.2744141-0.1806641,0.4541016-0.1806641c0.1738281,0,0.3212891,0.0605469,0.4414063,0.1806641
			c0.1191406,0.1201172,0.1796875,0.2666016,0.1796875,0.4404297c0,0.1806641-0.0605469,0.3300781-0.1796875,0.4501953
			C418.677887,104.7628937,418.530426,104.822464,418.3565979,104.822464z"/>
		<path class="st8" d="M421.8663635,104.7873077c-0.7314453,0-1.4277344-0.2197266-2.0878906-0.6572266l0.4589844-0.8369141
			c0.5703125,0.359375,1.1015625,0.5400391,1.5927734,0.5400391c0.390625,0,0.6992188-0.0947266,0.9277344-0.2841797
			c0.2275391-0.1884766,0.3417969-0.4394531,0.3417969-0.7509766c0-0.3125-0.1171875-0.5654297-0.3515625-0.7607422
			c-0.2333984-0.1943359-0.5371094-0.2919922-0.9082031-0.2919922h-0.828125v-0.9365234h0.7919922
			c0.3476563,0,0.6298828-0.0898438,0.8457031-0.2695313c0.2158203-0.1806641,0.3242188-0.4169922,0.3242188-0.7109375
			c0-0.2880859-0.1054688-0.5195313-0.3154297-0.6933594s-0.4736328-0.2607422-0.7919922-0.2607422
			c-0.4443359,0-0.9150391,0.1855469-1.4130859,0.5576172l-0.5214844-0.7285156
			c0.2460938-0.2460938,0.5498047-0.4394531,0.9130859-0.5810547c0.3632813-0.140625,0.7363281-0.2109375,1.1210938-0.2109375
			c0.59375,0,1.0859375,0.1679688,1.4755859,0.5039063s0.5849609,0.75,0.5849609,1.2412109
			c0,0.3544922-0.1044922,0.6679688-0.3144531,0.9414063c-0.2109375,0.2724609-0.4863281,0.4628906-0.828125,0.5712891v0.0361328
			c0.4072266,0.0957031,0.7255859,0.2890625,0.9541016,0.5800781c0.2275391,0.2910156,0.3417969,0.6435547,0.3417969,1.0576172
			c0,0.5644531-0.2158203,1.0322266-0.6484375,1.4042969C423.1056213,104.6066437,422.5509338,104.7873077,421.8663635,104.7873077z
			"/>
	</g>
	<g>
		<path class="st8" d="M296.3349609,280.9582825c-0.7319336,0-1.4282227-0.2197266-2.0878906-0.6572266l0.4589844-0.8369141
			c0.5698242,0.359375,1.1010742,0.5400391,1.5927734,0.5400391c0.3901367,0,0.6992188-0.0947266,0.9272461-0.2841797
			c0.2280273-0.1884766,0.3417969-0.4394531,0.3417969-0.7509766c0-0.3125-0.1166992-0.5654297-0.3510742-0.7607422
			c-0.2338867-0.1943359-0.5371094-0.2919922-0.9086914-0.2919922h-0.828125v-0.9365234h0.7919922
			c0.3476563,0,0.6298828-0.0898438,0.8461914-0.2695313c0.2158203-0.1806641,0.3237305-0.4169922,0.3237305-0.7109375
			c0-0.2880859-0.1049805-0.5195313-0.3149414-0.6933594s-0.4741211-0.2607422-0.7919922-0.2607422
			c-0.4443359,0-0.9150391,0.1855469-1.4130859,0.5576172l-0.5219727-0.7285156
			c0.2460938-0.2460938,0.550293-0.4394531,0.9135742-0.5810547c0.362793-0.140625,0.7363281-0.2109375,1.1206055-0.2109375
			c0.59375,0,1.0859375,0.1679688,1.4760742,0.5039063c0.3896484,0.3359375,0.5849609,0.75,0.5849609,1.2412109
			c0,0.3544922-0.1049805,0.6679688-0.3149414,0.9414063c-0.2104492,0.2724609-0.4863281,0.4628906-0.828125,0.5712891v0.0361328
			c0.4077148,0.0957031,0.7255859,0.2890625,0.9541016,0.5800781c0.2275391,0.2910156,0.3417969,0.6435547,0.3417969,1.0576172
			c0,0.5644531-0.2158203,1.0322266-0.6479492,1.4042969C297.5737305,280.7776184,297.019043,280.9582825,296.3349609,280.9582825z"
			/>
		<path class="st8" d="M300.168457,280.9934387c-0.1796875,0-0.331543-0.0595703-0.4541016-0.1796875
			c-0.1230469-0.1201172-0.1845703-0.2695313-0.1845703-0.4501953c0-0.1738281,0.0615234-0.3203125,0.1845703-0.4404297
			c0.1225586-0.1201172,0.2744141-0.1806641,0.4541016-0.1806641c0.1743164,0,0.3212891,0.0605469,0.4414063,0.1806641
			c0.1196289,0.1201172,0.1796875,0.2666016,0.1796875,0.4404297c0,0.1806641-0.0600586,0.3300781-0.1796875,0.4501953
			C300.4897461,280.9338684,300.3427734,280.9934387,300.168457,280.9934387z"/>
		<path class="st8" d="M303.9130859,274.0823059c0.7856445,0,1.3857422,0.296875,1.7998047,0.890625
			c0.4140625,0.5820313,0.6210938,1.3623047,0.6210938,2.3398438c0,0.4921875-0.0541992,0.9511719-0.1621094,1.3769531
			s-0.2685547,0.8115234-0.4814453,1.15625c-0.2128906,0.3457031-0.4980469,0.6171875-0.8549805,0.8144531
			c-0.3569336,0.1982422-0.7695313,0.2978516-1.2373047,0.2978516c-0.7143555,0-1.3022461-0.1894531-1.7641602-0.5673828
			l0.387207-0.7919922c0.4194336,0.2998047,0.8637695,0.4501953,1.331543,0.4501953
			c0.5820313,0,1.0229492-0.2314453,1.3232422-0.6933594c0.2939453-0.4560547,0.4560547-1.0380859,0.4858398-1.7460938
			c-0.1616211,0.2578125-0.3916016,0.4648438-0.6884766,0.6210938s-0.6225586,0.234375-0.9765625,0.234375
			c-0.605957,0-1.1069336-0.2011719-1.5029297-0.6035156c-0.3959961-0.4072266-0.59375-0.9208984-0.59375-1.5390625
			c0-0.6416016,0.2158203-1.1757813,0.6479492-1.6015625C302.6860352,274.2951965,303.2407227,274.0823059,303.9130859,274.0823059z
			 M305.1547852,276.3049622c0-0.3662109-0.1230469-0.6777344-0.3686523-0.9365234
			c-0.2402344-0.2578125-0.5371094-0.3867188-0.8911133-0.3867188c-0.3720703,0-0.6782227,0.1259766-0.9179688,0.3779297
			c-0.2460938,0.2578125-0.3691406,0.5732422-0.3691406,0.9453125c0,0.3662109,0.1201172,0.6708984,0.3598633,0.9130859
			c0.2402344,0.2431641,0.5429688,0.3652344,0.9091797,0.3652344c0.3657227,0,0.6689453-0.1201172,0.9091797-0.3603516
			C305.0317383,276.9768372,305.1547852,276.6711731,305.1547852,276.3049622z"/>
	</g>
	<g>
		<path class="st8" d="M336.5136719,245.580307c0.6357422,0,1.1669922,0.2041016,1.5927734,0.6123047
			c0.4262695,0.4082031,0.6391602,0.9296875,0.6391602,1.5664063c0,0.6601563-0.2250977,1.1992188-0.675293,1.6191406
			c-0.4379883,0.4208984-1.0136719,0.6308594-1.7275391,0.6308594c-0.7924805,0-1.512207-0.2617188-2.1601563-0.7832031
			l0.4589844-0.8105469c0.5639648,0.4267578,1.1186523,0.6396484,1.6650391,0.6396484
			c0.4077148,0,0.7436523-0.1230469,1.0078125-0.3691406c0.2578125-0.2402344,0.387207-0.5458984,0.387207-0.9179688
			c0-0.3544922-0.1259766-0.6542969-0.3779297-0.9003906c-0.2460938-0.2392578-0.5644531-0.359375-0.9541016-0.359375
			c-0.4682617,0-0.8642578,0.1650391-1.1879883,0.4941406l-0.6479492-0.4316406l0.3686523-3.3212891h3.3930664v0.9365234h-2.6010742
			l-0.1977539,1.6201172C335.8027344,245.6555023,336.1416016,245.580307,336.5136719,245.580307z"/>
		<path class="st8" d="M340.1669922,250.0441742c-0.1796875,0-0.331543-0.0595703-0.4541016-0.1796875
			c-0.1230469-0.1201172-0.1845703-0.2695313-0.1845703-0.4501953c0-0.1738281,0.0615234-0.3203125,0.1845703-0.4404297
			c0.1225586-0.1201172,0.2744141-0.1806641,0.4541016-0.1806641c0.1743164,0,0.3212891,0.0605469,0.4414063,0.1806641
			c0.1196289,0.1201172,0.1796875,0.2666016,0.1796875,0.4404297c0,0.1806641-0.0600586,0.3300781-0.1796875,0.4501953
			C340.4882813,249.9846039,340.3413086,250.0441742,340.1669922,250.0441742z"/>
		<path class="st8" d="M344.1455078,245.6076508c0.6000977,0,1.1040039,0.2041016,1.512207,0.6123047
			c0.4018555,0.4013672,0.6030273,0.9121094,0.6030273,1.5292969c0,0.6484375-0.2192383,1.1826172-0.6572266,1.6025391
			c-0.4262695,0.4199219-0.9780273,0.6298828-1.6557617,0.6298828c-0.7861328,0-1.3969727-0.3046875-1.831543-0.9130859
			c-0.4350586-0.609375-0.6435547-1.3730469-0.6254883-2.2910156c0-0.6357422,0.0957031-1.2236328,0.2875977-1.7636719
			c0.1923828-0.5400391,0.5043945-0.9873047,0.9360352-1.3408203c0.4443359-0.3603516,0.9692383-0.5400391,1.5751953-0.5400391
			c0.6777344,0,1.2568359,0.1884766,1.7368164,0.5664063l-0.440918,0.7744141
			c-0.3837891-0.2880859-0.7949219-0.4326172-1.2329102-0.4326172c-0.3959961,0-0.7441406,0.1357422-1.0439453,0.4052734
			c-0.5341797,0.4921875-0.8071289,1.1855469-0.8188477,2.0791016c0.1499023-0.2880859,0.3701172-0.5126953,0.6611328-0.6748047
			S343.7734375,245.6076508,344.1455078,245.6076508z M343.956543,249.0724945c0.3598633,0,0.6630859-0.1259766,0.9091797-0.3779297
			c0.2456055-0.2578125,0.3686523-0.5703125,0.3686523-0.9355469c0-0.3603516-0.1230469-0.6630859-0.3686523-0.9091797
			c-0.2402344-0.2402344-0.5400391-0.3603516-0.9003906-0.3603516c-0.3720703,0-0.6777344,0.1201172-0.9179688,0.3603516
			c-0.2460938,0.2460938-0.3686523,0.5517578-0.3686523,0.9179688c0,0.359375,0.1225586,0.6689453,0.3686523,0.9267578
			C343.293457,248.9465179,343.5966797,249.0724945,343.956543,249.0724945z"/>
	</g>
	<g>
		<path class="st8" d="M302.6665039,215.8786469c-0.7319336,0-1.4282227-0.2197266-2.0878906-0.6572266l0.4589844-0.8369141
			c0.5698242,0.359375,1.1010742,0.5400391,1.5927734,0.5400391c0.3901367,0,0.6992188-0.0947266,0.9272461-0.2841797
			c0.2280273-0.1884766,0.3417969-0.4394531,0.3417969-0.7509766c0-0.3125-0.1166992-0.5654297-0.3510742-0.7607422
			c-0.2338867-0.1943359-0.5371094-0.2919922-0.9086914-0.2919922h-0.828125v-0.9365234h0.7919922
			c0.3476563,0,0.6298828-0.0898438,0.8461914-0.2695313c0.2158203-0.1806641,0.3237305-0.4169922,0.3237305-0.7109375
			c0-0.2880859-0.1049805-0.5195313-0.3149414-0.6933594s-0.4741211-0.2607422-0.7919922-0.2607422
			c-0.4443359,0-0.9150391,0.1855469-1.4130859,0.5576172l-0.5219727-0.7285156
			c0.2460938-0.2460938,0.550293-0.4394531,0.9135742-0.5810547c0.362793-0.140625,0.7363281-0.2109375,1.1206055-0.2109375
			c0.59375,0,1.0859375,0.1679688,1.4760742,0.5039063c0.3896484,0.3359375,0.5849609,0.75,0.5849609,1.2412109
			c0,0.3544922-0.1049805,0.6679688-0.3149414,0.9414063c-0.2104492,0.2724609-0.4863281,0.4628906-0.828125,0.5712891v0.0361328
			c0.4077148,0.0957031,0.7255859,0.2890625,0.9541016,0.5800781c0.2275391,0.2910156,0.3417969,0.6435547,0.3417969,1.0576172
			c0,0.5644531-0.2158203,1.0322266-0.6479492,1.4042969C303.9052734,215.6979828,303.3505859,215.8786469,302.6665039,215.8786469z
			"/>
		<path class="st8" d="M306.5,215.9138031c-0.1796875,0-0.331543-0.0595703-0.4541016-0.1796875
			c-0.1230469-0.1201172-0.1845703-0.2695313-0.1845703-0.4501953c0-0.1738281,0.0615234-0.3203125,0.1845703-0.4404297
			c0.1225586-0.1201172,0.2744141-0.1806641,0.4541016-0.1806641c0.1743164,0,0.3212891,0.0605469,0.4414063,0.1806641
			c0.1196289,0.1201172,0.1796875,0.2666016,0.1796875,0.4404297c0,0.1806641-0.0600586,0.3300781-0.1796875,0.4501953
			C306.8212891,215.8542328,306.6743164,215.9138031,306.5,215.9138031z"/>
		<path class="st8" d="M311.909668,213.2507172h0.737793v0.890625h-0.737793v1.6289063h-0.9902344v-1.6289063h-3.0419922
			l-0.2070313-0.6484375l3.5820313-4.3740234h0.6572266V213.2507172z M310.9194336,210.8473969l-1.9619141,2.4033203h1.9619141
			V210.8473969z"/>
	</g>
	<g>
		<path class="st8" d="M363.3417969,102.1589203h0.7382813v0.890625h-0.7382813v1.6289063h-0.9902344v-1.6289063h-3.0419922
			l-0.2070313-0.6484375l3.5820313-4.3740234h0.6572266V102.1589203z M362.3515625,99.7556l-1.9619141,2.4033203h1.9619141V99.7556z
			"/>
	</g>
</g>
<g id="street_anchors" class="st15">
	<rect id="street_x5F_anchor_x5F_01" x="355" y="450.0000916" class="st16" width="10" height="10"/>
	<rect id="street_x5F_anchor_x5F_02" x="485.7000122" y="235.0000458" class="st16" width="10" height="10"/>
</g>
</svg>
