<?xml version="1.0" encoding="utf-8"?>
<!-- Generator: Adobe Illustrator 24.2.0, SVG Export Plug-In . SVG Version: 6.00 Build 0)  -->
<!DOCTYPE svg PUBLIC "-//W3C//DTD SVG 1.1//EN" "http://www.w3.org/Graphics/SVG/1.1/DTD/svg11.dtd" [
	<!ENTITY ns_extend "http://ns.adobe.com/Extensibility/1.0/">
	<!ENTITY ns_ai "http://ns.adobe.com/AdobeIllustrator/10.0/">
	<!ENTITY ns_graphs "http://ns.adobe.com/Graphs/1.0/">
	<!ENTITY ns_vars "http://ns.adobe.com/Variables/1.0/">
	<!ENTITY ns_imrep "http://ns.adobe.com/ImageReplacement/1.0/">
	<!ENTITY ns_sfw "http://ns.adobe.com/SaveForWeb/1.0/">
	<!ENTITY ns_custom "http://ns.adobe.com/GenericCustomNamespace/1.0/">
	<!ENTITY ns_adobe_xpath "http://ns.adobe.com/XPath/1.0/">
]>
<svg version="1.1" id="_x31__x5F_2" xmlns:x="&ns_extend;" xmlns:i="&ns_ai;" xmlns:graph="&ns_graphs;"
	 xmlns="http://www.w3.org/2000/svg" xmlns:xlink="http://www.w3.org/1999/xlink" x="0px" y="0px" viewBox="0 0 720 480"
	 style="enable-background:new 0 0 720 480;" xml:space="preserve">
<style type="text/css">
	.st0{fill:#DBD4CA;}
	.st1{clip-path:url(#SVGID_2_);}
	.st2{fill:none;stroke:#C49F8A;stroke-miterlimit:10;}
	.st3{opacity:0.3;clip-path:url(#SVGID_2_);}
	.st4{opacity:0.7;fill:#C49F8A;}
	.st5{fill:none;stroke:#565440;}
	.st6{fill:#565440;}
	.st7{fill:none;stroke:#565440;stroke-width:1.0000414;stroke-miterlimit:4.0001655;}
	.st8{fill:#E9E4DC;}
	.st9{fill:#C49F8A;}
	.st10{fill:#E9E4DC;stroke:#C49F8A;stroke-linejoin:round;}
	.st11{fill:#E9E4DC;stroke:#C49F8A;}
	.st12{fill:#E9E4DC;stroke:#C49F8A;stroke-miterlimit:3.9998;}
	.st13{fill:none;stroke:#C49F8A;}
	.st14{fill:none;}
</style>
<metadata>
	<sfw  xmlns="&ns_sfw;">
		<slices></slices>
		<sliceSourceBounds  bottomLeftOrigin="true" height="667.6734619" width="667.6734619" x="-54.4563599" y="-185.1189423">
			</sliceSourceBounds>
	</sfw>
</metadata>
<polygon id="Floor" class="st0" points="535.913208,70.1999741 535.913208,103.3999786 550.187561,111.760582 
	530.0131836,198.0319366 528.5131836,260.5999756 549.710144,270.9153748 528.3297729,352.3006287 529.0131836,420.0999756 
	158.8132019,420.0999756 158.8132019,70.1999741 "/>
<g id="Wet_Floor_1_">
	<defs>
		<rect id="SVGID_1_" x="164.0920258" y="282.1665649" width="128.7008362" height="132.3794403"/>
	</defs>
	<clipPath id="SVGID_2_">
		<use xlink:href="#SVGID_1_"  style="overflow:visible;"/>
	</clipPath>
	<g class="st1">
		<g>
			<line class="st2" x1="-43.6814575" y1="341.7035828" x2="289.8017273" y2="8.2203875"/>
			<line class="st2" x1="-54.1028061" y1="331.2822266" x2="279.3804016" y2="-2.2009606"/>
			<line class="st2" x1="-33.2601089" y1="352.124939" x2="300.2230835" y2="18.641737"/>
			<line class="st2" x1="-22.8387604" y1="362.5462952" x2="310.6444397" y2="29.0630836"/>
			<line class="st2" x1="-12.4174109" y1="372.9676208" x2="321.0657959" y2="39.4844322"/>
			<line class="st2" x1="-1.9960629" y1="383.3889771" x2="331.4871216" y2="49.9057808"/>
			<line class="st2" x1="8.4252853" y1="393.8103333" x2="341.9084778" y2="60.3271294"/>
			<line class="st2" x1="18.8466339" y1="404.2316895" x2="352.329834" y2="70.7484818"/>
			<line class="st2" x1="29.2679825" y1="414.6530151" x2="362.7511902" y2="81.1698227"/>
			<line class="st2" x1="39.6893311" y1="425.0743713" x2="373.1725159" y2="91.5911713"/>
			<line class="st2" x1="29.2679825" y1="414.6530151" x2="362.7511902" y2="81.1698227"/>
			<line class="st2" x1="50.1106796" y1="435.4957275" x2="383.5938721" y2="102.0125198"/>
			<line class="st2" x1="60.5320282" y1="445.9170837" x2="394.0152283" y2="112.4338684"/>
			<line class="st2" x1="70.9533768" y1="456.3384094" x2="404.4365845" y2="122.855217"/>
			<line class="st2" x1="81.3747253" y1="466.7597656" x2="414.8579102" y2="133.2765656"/>
			<line class="st2" x1="91.7960739" y1="477.1811218" x2="425.2792664" y2="143.6979218"/>
			<line class="st2" x1="102.2174225" y1="487.6024475" x2="435.7006226" y2="154.1192627"/>
			<line class="st2" x1="112.6387711" y1="498.0238037" x2="446.1219788" y2="164.5406189"/>
			<line class="st2" x1="123.0601196" y1="508.4451599" x2="456.5433044" y2="174.9619598"/>
			<line class="st2" x1="112.6387711" y1="498.0238037" x2="446.1219788" y2="164.5406189"/>
			<line class="st2" x1="133.4814606" y1="518.8665161" x2="466.9646606" y2="185.383316"/>
			<line class="st2" x1="143.9028168" y1="529.2878418" x2="477.3860168" y2="195.804657"/>
			<line class="st2" x1="154.3241577" y1="539.7092285" x2="487.807373" y2="206.2260132"/>
			<line class="st2" x1="164.7455139" y1="550.1305542" x2="498.2286987" y2="216.6473541"/>
			<line class="st2" x1="175.1668549" y1="560.5518799" x2="508.6500549" y2="227.0687103"/>
			<line class="st2" x1="185.5882111" y1="570.9732666" x2="519.0714111" y2="237.4900513"/>
			<line class="st2" x1="196.009552" y1="581.3945923" x2="529.4927368" y2="247.9114075"/>
			<line class="st2" x1="206.4309082" y1="591.815918" x2="539.9141235" y2="258.3327637"/>
			<line class="st2" x1="196.009552" y1="581.3945923" x2="529.4927368" y2="247.9114075"/>
			<line class="st2" x1="216.8522491" y1="602.2373047" x2="550.3354492" y2="268.7540894"/>
			<line class="st2" x1="227.2736053" y1="612.6586304" x2="560.7567749" y2="279.1754456"/>
			<line class="st2" x1="237.6949463" y1="623.0800171" x2="571.1781616" y2="289.5968018"/>
			<line class="st2" x1="248.1163025" y1="633.5013428" x2="581.5994873" y2="300.0181274"/>
			<line class="st2" x1="258.5376587" y1="643.9226685" x2="592.020874" y2="310.4394836"/>
			<line class="st2" x1="268.9589844" y1="654.3440552" x2="602.4421997" y2="320.8608398"/>
			<line class="st2" x1="279.3803406" y1="664.7653809" x2="612.8635254" y2="331.282196"/>
		</g>
		<g>
			<line class="st2" x1="289.8016357" y1="654.3438721" x2="-43.6814156" y2="320.8608398"/>
			<line class="st2" x1="279.3802795" y1="664.7652588" x2="-54.1027603" y2="331.2821655"/>
			<line class="st2" x1="300.2229919" y1="643.9225464" x2="-33.260067" y2="310.4394836"/>
			<line class="st2" x1="310.6443481" y1="633.5011597" x2="-22.8387165" y2="300.0181274"/>
			<line class="st2" x1="321.0656738" y1="623.079834" x2="-12.4173689" y2="289.5968018"/>
			<line class="st2" x1="331.48703" y1="612.6585083" x2="-1.9960203" y2="279.1754456"/>
			<line class="st2" x1="341.9083862" y1="602.2371216" x2="8.4253283" y2="268.7540894"/>
			<line class="st2" x1="352.3297424" y1="591.8157959" x2="18.8466759" y2="258.3327332"/>
			<line class="st2" x1="362.7510681" y1="581.3944702" x2="29.2680244" y2="247.9113922"/>
			<line class="st2" x1="373.1724243" y1="570.9730835" x2="39.689373" y2="237.4900513"/>
			<line class="st2" x1="362.7510681" y1="581.3944702" x2="29.2680244" y2="247.9113922"/>
			<line class="st2" x1="383.5937805" y1="560.5517578" x2="50.1107216" y2="227.0686951"/>
			<line class="st2" x1="394.0151367" y1="550.1303711" x2="60.5320702" y2="216.6473541"/>
			<line class="st2" x1="404.4364624" y1="539.7090454" x2="70.9534149" y2="206.2259979"/>
			<line class="st2" x1="414.8578186" y1="529.2877197" x2="81.3747635" y2="195.804657"/>
			<line class="st2" x1="425.2791748" y1="518.866333" x2="91.7961121" y2="185.3833008"/>
			<line class="st2" x1="435.7005005" y1="508.4450073" x2="102.2174606" y2="174.9619598"/>
			<line class="st2" x1="446.1218567" y1="498.0236511" x2="112.6388092" y2="164.5406036"/>
			<line class="st2" x1="456.5432129" y1="487.6022949" x2="123.0601578" y2="154.1192627"/>
			<line class="st2" x1="446.1218567" y1="498.0236511" x2="112.6388092" y2="164.5406036"/>
			<line class="st2" x1="466.9645691" y1="477.1809692" x2="133.4815063" y2="143.6979065"/>
			<line class="st2" x1="477.3858948" y1="466.759613" x2="143.9028625" y2="133.2765656"/>
			<line class="st2" x1="487.807251" y1="456.3382568" x2="154.3242035" y2="122.8552094"/>
			<line class="st2" x1="498.2286072" y1="445.9169312" x2="164.7455597" y2="112.4338608"/>
			<line class="st2" x1="508.6499634" y1="435.495575" x2="175.1669006" y2="102.0125122"/>
			<line class="st2" x1="519.0712891" y1="425.0742188" x2="185.5882568" y2="91.5911636"/>
			<line class="st2" x1="529.4926758" y1="414.6528625" x2="196.0095978" y2="81.1698227"/>
			<line class="st2" x1="539.9140015" y1="404.2315369" x2="206.430954" y2="70.7484741"/>
			<line class="st2" x1="529.4926758" y1="414.6528625" x2="196.0095978" y2="81.1698227"/>
			<line class="st2" x1="550.3353271" y1="393.8101807" x2="216.8522949" y2="60.3271217"/>
			<line class="st2" x1="560.7567139" y1="383.3888245" x2="227.2736511" y2="49.9057732"/>
			<line class="st2" x1="571.1780396" y1="372.9674683" x2="237.6949921" y2="39.4844246"/>
			<line class="st2" x1="581.5993652" y1="362.5461426" x2="248.1163483" y2="29.0630779"/>
			<line class="st2" x1="592.020752" y1="352.1247864" x2="258.5376892" y2="18.6417294"/>
			<line class="st2" x1="602.4420776" y1="341.7034302" x2="268.9590454" y2="8.2203808"/>
			<line class="st2" x1="612.8634644" y1="331.282074" x2="279.3803711" y2="-2.200968"/>
		</g>
	</g>
	<g class="st3">
		<rect x="118.3008728" y="159.7813263" class="st4" width="322.1589355" height="322.1589355"/>
	</g>
</g>
<path id="Doors" class="st5" d="M242.643631,286.8471069c0,5.424469,0.9861298,9.8622742,2.958847,14.7939148
	c1.9722595,4.9311829,4.9311066,9.3694458,8.382782,12.8211975c3.4521179,3.9450684,7.8901062,6.9039001,12.8211975,8.8761597
	c4.9311218,1.9722595,9.8623657,2.9589233,15.2872009,2.9589233v-39.4501953 M370.8564148,247.3970032
	c0,5.424469-0.986145,9.862793-2.9588623,14.7939148c-1.9722595,4.9311829-4.9310913,9.3694458-8.382782,12.8211975
	c-3.4521179,3.9450378-7.8900757,6.9039001-12.8211975,8.8761597c-4.9310913,1.9722595-9.8623657,2.9589233-15.2872009,2.9589233
	v-39.4501953 M159.0388794,242.4653625c-6.4105225,0-12.5550995-1.4794159-18.4724731-3.9450531
	c-5.9178467-2.4655457-11.835083-5.9173126-16.2728958-10.848938c-4.4382629-4.4383392-8.3833923-9.8628082-10.848938-15.7800446
	c-2.4655533-5.9177704-3.9449768-12.3283691-3.9449768-18.7389679h49.5392838"/>
<g id="Walls">
	<path class="st6" d="M538.4849854,362.8942871v-11.9521484h-29.4775391l-0.0303345,54.263916H296.8877563V286.8555908h29.5872192
		v-39.4501953h4.9312744v-4.9310913h-34.5184937v4.9310913h24.6561279v34.519043H282.093689v4.9311523h9.8623657v118.3504639
		h-101.041626l-0.0012207-17.5060425h-17.3077393V286.8555908h69.038147v-4.9311523h-69.038147v-39.4501343h-14.793335V420
		h379.7072144l-0.0184326-57.1057129H538.4849854z M173.6054688,392.5999756h12.4077148v12.6060791h-12.4077148V392.5999756z"/>
	<path class="st6" d="M173.6054688,162.7838745h29.0921021v-4.8984375h-29.0921021V74.8113403h82.8077393v17.2886353
		c0,0,0.2999878,0,0.7999878,0h20.2000122V74.8113403h231.5639038v36.4520264h26.7659302l21.9732056,4.9321899l0.0015259-0.0044556
		l0.0150146,0.003479l3.4516602-14.3006592l-22.6835327-5.0919189l0.0184326-36.7846069h-0.0184326V60h-34.5001831v0.017395
		H158.8121338v133.1444092h14.793335V162.7838745z M272.5131836,87.1999512h-11.2000122V74.8113403h11.2000122V87.1999512z"/>
	<polygon class="st6" points="538.359436,210.7126465 542.3049927,193.6174316 518.2697144,188.1925049 513.8317261,206.9313965 
		513.8317261,242.4558716 370.8568726,242.4743042 370.8568726,247.4059448 513.8317261,247.3875122 513.8317261,272.1227417 
		538.359436,272.1227417 538.359436,272.0825195 556.1123657,276.067688 559.5644531,261.7670898 538.359436,257.0072021 	"/>
</g>
<g id="Windows">
	
		<rect x="498.9249878" y="306.6398926" transform="matrix(0.2514896 -0.96786 0.96786 0.2514896 106.3253174 758.1501465)" class="st7" width="88.8000488" height="7.3865967"/>
	<polygon class="st5" points="536.9222412,195.7395325 529.7736816,193.8819275 550.9656982,111.87677 558.1148682,113.7349091 	"/>
</g>
<g id="Furniture_2_">
	<g>
		<g>
			<rect x="203.9131927" y="372.1999817" class="st8" width="87.5000153" height="32.8999939"/>
			<path class="st9" d="M291.1131897,372.6999817v31.8999939h-86.6999969v-31.8999939H291.1131897 M292.1131897,371.6999817
				h-88.6999969v33.8999939h88.6999969V371.6999817L292.1131897,371.6999817z"/>
		</g>
		<g>
			<g>
				<path class="st10" d="M211.0131989,388.6999817c0,6.7999878,5.8999939,12.1000061,12.6000061,11.5
					c7.3999939-0.7000122,16.8000031-1.2999878,23.8000031-1.2999878c6.8999939,0,16.2999878,0.7000122,23.7999878,1.2999878
					c6.7999878,0.6000061,12.6000061-4.7000122,12.6000061-11.5s-5.8999939-12.1000061-12.6000061-11.5
					c-7.3999939,0.7000122-16.8000031,1.2999878-23.8000031,1.2999878c-6.8999939,0-16.3000031-0.7000122-23.8000031-1.2999878
					C216.9131927,376.4999695,211.0131989,381.8999634,211.0131989,388.6999817z"/>
				<ellipse class="st10" cx="222.9131927" cy="388.6999817" rx="1.3999939" ry="1.3999939"/>
			</g>
		</g>
	</g>
	<g>
		<g>
			<rect x="423.913208" y="305.9999695" class="st8" width="79.7000122" height="99.1000061"/>
			<path class="st9" d="M424.413208,306.4999695h78.7000122v98.1000061H424.413208V306.4999695 M423.413208,305.4999695v100.1000061
				h80.7000122V305.4999695H423.413208L423.413208,305.4999695z"/>
		</g>
		<rect x="430.3132019" y="373.6999817" class="st11" width="31.5" height="24.7000122"/>
		<rect x="465.7131958" y="373.6999817" class="st11" width="31.5" height="24.7000122"/>
		<polygon class="st12" points="434.2131958,383.7999573 456.913208,390.1999817 463.0131836,366.2999573 440.3132019,359.8999634 
					"/>
		<polygon class="st12" points="464.7131958,366.2999573 470.8132019,390.1999817 493.5131836,383.7999573 487.413208,359.8999634 
					"/>
		<g>
			<polygon class="st8" points="423.913208,378.9999695 423.913208,305.0999756 503.6131897,305.0999756 503.6131897,384.1999817 
				471.8132019,386.2999573 			"/>
			<path class="st9" d="M424.413208,305.5999756h78.7000122v77.5v0.6000061l-31.2000122,2l-47.3999939-7.2000122
				L424.413208,305.5999756 M423.413208,304.5999756v74.3000183v0.5l48.3999939,7.3999939l32.2999878-2.1000061v-1.6000061v-78.5
				H423.413208L423.413208,304.5999756z"/>
		</g>
		<polyline class="st13" points="503.0131836,382.0999756 471.5131836,382.0999756 424.3132019,377.9999695 		"/>
	</g>
	<g>
		<rect x="174.1131897" y="287.5871582" class="st8" width="10.8000031" height="47.9128418"/>
		<path class="st9" d="M184.4131927,288.0871582v46.9128113h-9.8000031v-46.9128113H184.4131927 M185.4131927,287.0871582
			h-11.8000031v48.9128113h11.8000031V287.0871582L185.4131927,287.0871582z"/>
	</g>
	<g>
		<polygon class="st8" points="191.4171906,405.0999756 191.4171906,387.2159729 174.0131989,387.2159729 174.0131989,371.1999817 
			203.9131927,371.1999817 203.9131927,405.0999756 		"/>
		<path class="st9" d="M203.4131927,371.6999817v16.2999878v16.6000061h-11.4960022v-16.8840027v-1h-1h-16.3040009v-15.0159912
			h16.3000031H203.4131927 M204.4131927,370.6999817h-13.5h-17.3000031v17.0159912h17.3040009v17.8840027h13.4960022v-17.6000061
			V370.6999817L204.4131927,370.6999817z"/>
	</g>
	<g>
		<path class="st11" d="M457.8132019,109.4999771c0,1.5-1.2000122,2.5999985-2.6000061,2.5999985h-39.6000061
			c-1.5,0-2.6000061-1.1999969-2.6000061-2.5999985v-26h44.7999878L457.8132019,109.4999771L457.8132019,109.4999771z"/>
		<path class="st11" d="M500.6131897,109.4999771c0,1.5-1.2000122,2.5999985-2.6000061,2.5999985h-37.6000061
			c-1.5,0-2.6000061-1.1999969-2.6000061-2.5999985v-26h42.7999878L500.6131897,109.4999771L500.6131897,109.4999771z"/>
		<polygon class="st11" points="500.6131897,114.2999802 500.6131897,83.5999756 456.8132019,83.5999756 413.0131836,83.5999756 
			413.0131836,114.2999802 404.8132019,114.2999802 404.8132019,75.2999802 508.8132019,75.2999802 508.8132019,114.2999802 		"/>
	</g>
	<g>
		<path class="st8" d="M340.413208,98.9999771c-5.7999878,0-10.5-4.6999969-10.5-10.5s4.6999817-10.5,10.5-10.5
			s10.5,4.6999969,10.5,10.5S346.1131897,98.9999771,340.413208,98.9999771z"/>
		<path class="st9" d="M340.413208,78.4999771c2.7000122,0,5.2000122,1,7,2.9000015s2.8999939,4.4000015,2.8999939,7
			c0,5.5-4.5,10-10,10s-10-4.5-10-10C330.413208,82.9999771,334.913208,78.4999771,340.413208,78.4999771 M340.413208,77.4999771
			c-6.1000061,0-11,4.9000015-11,11s4.8999939,11,11,11s11-4.9000015,11-11
			C351.3132019,82.3999786,346.413208,77.4999771,340.413208,77.4999771L340.413208,77.4999771z"/>
	</g>
	<g>
		<circle class="st8" cx="340.413208" cy="122.5999756" r="10.5"/>
		<path class="st9" d="M340.413208,112.6999741c2.7000122,0,5.2000122,1,7,2.9000015s2.8999939,4.4000015,2.8999939,7
			c0,5.5000153-4.5,10.0000153-10,10.0000153s-10-4.5-10-10.0000076
			C330.413208,117.0999756,334.913208,112.6999741,340.413208,112.6999741 M340.413208,111.6999741c-6.1000061,0-11,4.9000015-11,11
			c0,6.1000137,4.8999939,11.0000076,11,11.0000076s11-4.8999939,11-11.0000076
			C351.3132019,116.5999756,346.413208,111.6999741,340.413208,111.6999741L340.413208,111.6999741z"/>
	</g>
	<g>
		<path class="st8" d="M340.413208,167.5999908c-5.7999878,0-10.5-4.6999969-10.5-10.5s4.7000122-10.5,10.5-10.5
			s10.5,4.6999969,10.5,10.5S346.1131897,167.5999908,340.413208,167.5999908z"/>
		<path class="st9" d="M340.413208,147.1999817c2.7000122,0,5.2000122,1,7,2.8999939s2.8999939,4.3999939,2.8999939,7
			c0,5.5-4.5,10-10,10s-10-4.5-10-10C330.413208,151.6999817,334.913208,147.1999817,340.413208,147.1999817
			 M340.413208,146.1999817c-6.1000061,0-11,4.8999939-11,11s4.8999939,11,11,11s11-4.8999939,11-11
			C351.3132019,151.0999908,346.413208,146.1999817,340.413208,146.1999817L340.413208,146.1999817z"/>
	</g>
	<g>
		<g>
			<rect x="277.913208" y="75.2999802" class="st8" width="44.1000061" height="93.5999832"/>
			<path class="st9" d="M321.6131897,75.7999802v92.5999985h-43.1000061V75.7999802H321.6131897 M322.6131897,74.7999802
				h-45.1000061v94.5999985h45.1000061V74.7999802L322.6131897,74.7999802z"/>
		</g>
		<g>
			<rect x="304.8132019" y="75.2999802" class="st8" width="3.7000122" height="93.5999832"/>
			<path class="st9" d="M308.0131836,75.7999802v92.5999985h-2.7000122V75.7999802H308.0131836 M309.0131836,74.7999802h-4.7000122
				v94.5999985h4.7000122V74.7999802L309.0131836,74.7999802z"/>
		</g>
	</g>
	<g>
		<g>
			<rect x="314.8132019" y="287.5999756" class="st8" width="11.2999878" height="117.3999939"/>
			<path class="st9" d="M315.3132019,288.0999756h10.2999878v116.3999939h-10.2999878V288.0999756 M314.3132019,287.0999756
				v118.3999939h12.2999878V287.0999756H314.3132019L314.3132019,287.0999756z"/>
		</g>
		<g>
			<rect x="297.5131836" y="287.5999756" class="st8" width="26.7999878" height="117.3999939"/>
			<path class="st9" d="M298.0131836,288.0999756h25.7999878v116.3999939h-25.7999878V288.0999756 M297.0131836,287.0999756
				v118.3999939h27.7999878V287.0999756H297.0131836L297.0131836,287.0999756z"/>
		</g>
		<path class="st11" d="M297.913208,287.5999756l26,117.8000183"/>
	</g>
	<g>
		<g>
			<rect x="174.0131989" y="169.2999878" class="st8" width="24" height="11.3000031"/>
			<path class="st9" d="M174.5131989,169.7999878h23v10.3000031h-23V169.7999878 M173.5131989,168.7999878v12.3000031h25
				v-12.3000031H173.5131989L173.5131989,168.7999878z"/>
		</g>
		<g>
			<rect x="174.0131989" y="163.3999786" class="st8" width="24" height="15.3999939"/>
			<path class="st9" d="M174.5131989,163.8999786h23v14.3999939h-23V163.8999786 M173.5131989,162.8999786v16.3999939h25
				v-16.3999939H173.5131989L173.5131989,162.8999786z"/>
		</g>
		<path class="st11" d="M198.4131927,163.3999786l-24.8000031,15.3999939"/>
	</g>
	<g>
		<g>
			<rect x="174.1287842" y="253.466568" class="st8" width="66.8000031" height="11.2999725"/>
			<path class="st9" d="M174.6287842,253.966568h65.8000031v10.2999725h-65.8000031V253.966568 M173.6287842,252.966568v12.2999725
				h67.8000031V252.966568H173.6287842L173.6287842,252.966568z"/>
		</g>
		<g>
			<rect x="174.1287842" y="255.1665649" class="st8" width="66.8000031" height="26.5"/>
			<path class="st9" d="M174.6287842,255.6665649h65.8000031v25.5h-65.8000031V255.6665649 M173.6287842,254.6665649v27.5
				h67.8000031v-27.4999847L173.6287842,254.6665649L173.6287842,254.6665649z"/>
		</g>
		<path class="st11" d="M173.9287872,281.2665405l67.4000092-25.6999817"/>
	</g>
	<g>
		<g>
			<rect x="297.5131836" y="248.0999908" class="st8" width="23.7000122" height="33.5653534"/>
			<path class="st9" d="M320.7131958,248.5999908v32.5653534h-22.7000122v-32.5653534H320.7131958 M321.7131958,247.5999908
				h-24.7000122v34.5653534h24.7000122V247.5999908L321.7131958,247.5999908z"/>
		</g>
		<g>
			<line class="st13" x1="297.8132019" y1="248.1999817" x2="305.5131836" y2="259.2999573"/>
		</g>
		<g>
			<line class="st13" x1="321.0131836" y1="248.1999817" x2="313.3132019" y2="259.2999573"/>
		</g>
		<g>
			<line class="st13" x1="297.8132019" y1="281.465332" x2="305.5131836" y2="270.3999634"/>
		</g>
		<g>
			<line class="st13" x1="321.0131836" y1="281.465332" x2="313.3132019" y2="270.3999634"/>
		</g>
	</g>
	<g id="Toilet_3_">
		<g id="Rectangle_21_3_">
			<rect x="185.1131897" y="297.0999756" class="st8" width="8.6000061" height="26.8999939"/>
			<path class="st9" d="M193.2131958,297.5999756v25.8999939h-7.6000061v-25.8999939H193.2131958 M194.2131958,296.5999756
				h-9.6000061v27.8999939h9.6000061V296.5999756L194.2131958,296.5999756z"/>
		</g>
		<path id="Rectangle_19_x5F_2_3_" class="st11" d="M206.8132019,319.9999695c4.1000061,0.2999878,7.5-2.8999939,7.5-7l0,0
			c0-4.1000061-3.3999939-7.2999878-7.5-7l-13,0.8999939v12.2999878L206.8132019,319.9999695z"/>
		<path id="Rectangle_18_x5F_13_3_" class="st11" d="M206.8132019,318.5999756
			c3.3000031,0.2999878,6.1000061-2.2999878,6.1000061-5.6000061l0,0c0-3.2999878-2.8000031-5.8999939-6.1000061-5.6000061
			l-8.8999939,0.7999878v9.5L206.8132019,318.5999756z"/>
		<ellipse id="Ellipse_6_x5F_2_3_" class="st11" cx="202.0131989" cy="312.9999695" rx="1.3999939" ry="1.3999939"/>
	</g>
	<g id="Sink_2_2_">
		<g id="Rectangle_16_x5F_11">
			<rect x="174.0131989" y="335.4999695" class="st8" width="23.8999939" height="35.7000122"/>
			<path class="st9" d="M197.5131989,335.9999695v34.7000122H174.613205v-34.7000122H197.5131989 M198.5131989,334.9999695
				H173.613205v36.7000122h24.8999939V334.9999695L198.5131989,334.9999695z"/>
		</g>
		<path id="Rectangle_19_x5F_5_2_" class="st11" d="M186.0131989,366.1999817L186.0131989,366.1999817
			c4.1999969,0,7.6000061-3.3999939,7.6000061-7.6000061v-10.7999878c0-4.2000122-3.3999939-7.6000061-7.6000061-7.6000061l0,0
			c-4.1999969,0-7.6000061,3.3999939-7.6000061,7.6000061v10.7999878
			C178.4131927,362.7999573,181.8132019,366.1999817,186.0131989,366.1999817z"/>
		<circle id="Ellipse_7_x5F_2" class="st11" cx="181.9131927" cy="353.1999817" r="1.3999939"/>
	</g>
	<g id="TV">
		<g id="Rectangle_16">
			<rect x="424.5131836" y="228.0999908" class="st8" width="74.8999939" height="10.1000061"/>
			<path class="st9" d="M498.913208,228.5999908v9.1000061h-73.8999939v-9.1000061H498.913208 M499.913208,227.5999908h-75.8999939
				v11.1000061h75.8999939V227.5999908L499.913208,227.5999908z"/>
		</g>
		<g id="Rectangle_15">
			<rect x="424.5131836" y="230.0999908" class="st8" width="74.8999939" height="12.1000061"/>
			<path class="st9" d="M498.913208,230.5999908v11.1000061h-73.8999939v-11.1000061H498.913208 M499.913208,229.5999908
				h-75.8999939v13.1000061h75.8999939V229.5999908L499.913208,229.5999908z"/>
		</g>
		<rect id="Rectangle_17" x="437.7131958" y="238.3999786" class="st11" width="48.6000061" height="1.8999939"/>
		<path id="Rectangle_18_x5F_2" class="st11" d="M451.7131958,240.2999878h20.5l-1.8999939,1.8999939h-16.7999878
			L451.7131958,240.2999878z"/>
	</g>
	<g id="TV_1_">
		<g id="Rectangle_16_1_">
			<rect x="424.5131836" y="252.0999908" class="st8" width="74.8999939" height="10.1000214"/>
			<path class="st9" d="M498.913208,252.5999908v9.0999908h-73.8999939v-9.0999908H498.913208 M499.913208,251.5999908h-75.8999939
				v11.0999908h75.8999939V251.5999908L499.913208,251.5999908z"/>
		</g>
		<g id="Rectangle_15_1_">
			<rect x="424.5131836" y="248.0999908" class="st8" width="74.8999939" height="12.1000214"/>
			<path class="st9" d="M498.913208,248.5999908v11.0999908h-73.8999939v-11.0999908H498.913208 M499.913208,247.5999908
				h-75.8999939v13.0999908h75.8999939V247.5999908L499.913208,247.5999908z"/>
		</g>
		<rect id="Rectangle_17_1_" x="437.7131958" y="249.9999847" class="st11" width="48.6000061" height="1.8999939"/>
		<path id="Rectangle_18_x5F_2_1_" class="st11" d="M451.7131958,249.9999847h20.5l-1.8999939-1.8999939h-16.7999878
			L451.7131958,249.9999847z"/>
	</g>
	<g id="Kitchen_1_">
		<g id="Rectangle_24_1_">
			<rect x="174.2131958" y="75.2999802" class="st8" width="81.8000031" height="31.3000031"/>
			<path class="st9" d="M255.5131989,75.7999802v30.3000031h-80.8000031V75.7999802H255.5131989 M256.5131836,74.7999802
				h-82.7999878v32.3000031h82.7999878V74.7999802L256.5131836,74.7999802z"/>
		</g>
		<g id="Rectangle_24_2_">
			<rect x="174.1131897" y="75.2999802" class="st8" width="30.3000031" height="55.0000076"/>
			<path class="st9" d="M203.9131927,75.7999802v54.0000076h-29.3000031V75.7999802H203.9131927 M204.9131927,74.7999802
				h-31.3000031v56.0000076h31.3000031V74.7999802L204.9131927,74.7999802z"/>
		</g>
		<g id="Rectangle_27">
			<rect x="174.1131897" y="127.0999756" class="st8" width="30.3000031" height="30.2999878"/>
			<path class="st9" d="M203.9131927,127.5999756v29.3000031h-29.3000031V127.599968L203.9131927,127.5999756
				 M204.9131927,126.5999756h-31.3000031v31.3000031h31.3000031V126.5999756L204.9131927,126.5999756z"/>
		</g>
		<g id="Rectangle_27_2_">
			<rect x="202.8132019" y="127.0999756" class="st8" width="1.6000061" height="30.2999878"/>
			<path class="st9" d="M203.9131927,127.5999756v29.3000031h-0.6000061V127.599968L203.9131927,127.5999756
				 M204.9131927,126.5999756h-2.6000061v31.3000031h2.6000061V126.5999756L204.9131927,126.5999756z"/>
		</g>
		<g id="Sink_3_1_">
			<rect id="Rectangle_28_x5F_2_1_" x="177.8132019" y="84.0999756" class="st11" width="22" height="34.9000015"/>
			<path id="Rectangle_29_x5F_2_1_" class="st11" d="M188.8132019,97.8999786L188.8132019,97.8999786
				c4.6000061,0,8.3000031,3.6999969,8.3000031,8.3000031v1.8000031c0,4.5999985-3.6999969,8.3000031-8.3000031,8.3000031l0,0
				c-4.6000061,0-8.3000031-3.6999969-8.3000031-8.3000031v-1.8000031
				C180.6131897,101.5999756,184.2131958,97.8999786,188.8132019,97.8999786z"/>
			<ellipse id="Ellipse_7_x5F_3_1_" class="st11" cx="185.1131897" cy="107.0999756" rx="1.3999939" ry="1.4000015"/>
			<path id="Vector_2_1_" class="st13" d="M180.6131897,85.9999771v9.1999969 M183.3132019,85.9999771v9.1999969
				 M186.1131897,85.9999771v9.1999969 M188.8132019,85.9999771v9.1999969 M191.6131897,85.9999771v9.1999969
				 M194.3132019,85.9999771v9.1999969 M197.1131897,85.9999771v9.1999969"/>
		</g>
		<g id="Stove_1_">
			<g id="Rectangle_25_1_">
				<rect x="225.5131989" y="75.2999802" class="st8" width="30.5" height="31.3000031"/>
				<path class="st9" d="M255.5131989,75.7999802v30.3000031h-29.5V75.7999802H255.5131989 M256.5131836,74.7999802h-31.4999847
					v32.3000031h31.4999847V74.7999802L256.5131836,74.7999802z"/>
			</g>
			<g id="Rectangle_28_x5F_3_1_">
				<rect x="225.5131989" y="75.2999802" class="st8" width="30.5" height="1.8000031"/>
				<path class="st9" d="M255.5131989,75.7999802v0.8000031h-29.5v-0.8000031H255.5131989 M256.5131836,74.7999802h-31.4999847
					v2.8000031h31.4999847V74.7999802L256.5131836,74.7999802z"/>
			</g>
			<g id="Ellipse_7_x5F_4_1_">
				<circle class="st8" cx="247.9131927" cy="85.5999756" r="3.5"/>
				<path class="st9" d="M247.9131927,82.5999756c1.6999969,0,3,1.4000015,3,3s-1.3999939,3-3,3s-3-1.4000015-3-3
					S246.3132019,82.5999756,247.9131927,82.5999756 M247.9131927,81.5999756c-2.1999969,0-4,1.8000031-4,4s1.8000031,4,4,4
					s4-1.8000031,4-4C252.0131989,83.3999786,250.2131958,81.5999756,247.9131927,81.5999756L247.9131927,81.5999756z"/>
			</g>
			<g id="Ellipse_9_1_">
				<path class="st8" d="M247.9131927,102.2999802c-2.5,0-4.6000061-2-4.6000061-4.5999985s2-4.5999985,4.6000061-4.5999985
					c2.5,0,4.6000061,2,4.6000061,4.5999985S250.4131927,102.2999802,247.9131927,102.2999802z"/>
				<path class="st9" d="M247.9131927,93.6999741c2.1999969,0,4.1000061,1.8000031,4.1000061,4.0999985
					s-1.8000031,4.0999985-4.1000061,4.0999985s-4.1000061-1.8000031-4.1000061-4.0999985
					S245.7131958,93.6999741,247.9131927,93.6999741 M247.9131927,92.6999741c-2.8000031,0-5.1000061,2.3000031-5.1000061,5.0999985
					s2.3000031,5.0999985,5.1000061,5.0999985s5.1000061-2.3000031,5.1000061-5.0999985
					S250.7131958,92.6999741,247.9131927,92.6999741L247.9131927,92.6999741z"/>
			</g>
			<g id="Ellipse_10_1_">
				<circle class="st8" cx="233.8132019" cy="85.5999756" r="4.6000061"/>
				<path class="st9" d="M233.8132019,81.5999756c2.1999969,0,4.1000061,1.8000031,4.1000061,4.0999985
					c0,2.1999969-1.8000031,4.0999985-4.1000061,4.0999985s-4.1000061-1.8000031-4.1000061-4.0999985
					S231.6131897,81.5999756,233.8132019,81.5999756 M233.8132019,80.5999756c-2.8000031,0-5.1000061,2.3000031-5.1000061,5.0999985
					c0,2.8000031,2.3000031,5.0999985,5.1000061,5.0999985s5.1000061-2.3000031,5.1000061-5.0999985
					C238.8132019,82.7999802,236.6131897,80.5999756,233.8132019,80.5999756L233.8132019,80.5999756z"/>
			</g>
			<g id="Ellipse_8_1_">
				<circle class="st8" cx="233.8132019" cy="98.7999802" r="3.5"/>
				<path class="st9" d="M233.8132019,95.6999741c1.6999969,0,3,1.4000015,3,3s-1.3999939,3-3,3s-3-1.4000015-3-3
					S232.1131897,95.6999741,233.8132019,95.6999741 M233.8132019,94.6999741c-2.1999969,0-4,1.8000031-4,4s1.8000031,4,4,4
					s4-1.8000031,4-4S236.0131989,94.6999741,233.8132019,94.6999741L233.8132019,94.6999741z"/>
			</g>
		</g>
		<path id="Vector_3_1_" class="st13" d="M193.2131958,142.7999878h-7.8000031 M191.2131958,146.1999817l-3.8999939-6.8000031
			 M191.2131958,139.2999878l-3.8999939,6.8000031"/>
	</g>
</g>
<g id="Numbers">
	<g>
		<path class="st6" d="M417.913208,180.8999786l1.8999939-1.6000061h0.7999878v6.6999969h-1v-5.3000031l-1.2000122,0.8999939
			L417.913208,180.8999786z"/>
		<path class="st6" d="M424.1131897,179.0999908c0.7999878,0,1.3999939,0.3000031,1.7999878,0.8999939
			c0.3999939,0.6000061,0.6000061,1.3999939,0.6000061,2.3000031c0,0.5-0.1000061,1-0.2000122,1.3999939
			s-0.2999878,0.8000031-0.5,1.1999969c-0.2000122,0.3000031-0.5,0.6000061-0.8999939,0.8000031
			s-0.7999878,0.3000031-1.2000122,0.3000031c-0.7000122,0-1.2999878-0.1999969-1.7999878-0.6000061l0.3999939-0.8000031
			c0.3999939,0.3000031,0.8999939,0.5,1.2999878,0.5c0.6000061,0,1-0.1999969,1.2999878-0.6999969s0.5-1,0.5-1.6999969
			c-0.2000122,0.3000031-0.3999939,0.5-0.7000122,0.6000061s-0.6000061,0.1999969-1,0.1999969
			c-0.6000061,0-1.1000061-0.1999969-1.5-0.6000061c-0.3999939-0.3999939-0.6000061-0.8999939-0.6000061-1.5
			s0.2000122-1.1999969,0.6000061-1.6000061C422.913208,179.2999878,423.5131836,179.0999908,424.1131897,179.0999908z
			 M425.413208,181.3999786c0-0.3999939-0.1000061-0.6999969-0.3999939-0.8999939
			c-0.2000122-0.3000031-0.5-0.3999939-0.8999939-0.3999939s-0.7000122,0.1000061-0.8999939,0.3999939
			c-0.2000122,0.3000031-0.3999939,0.6000061-0.3999939,0.8999939c0,0.3999939,0.1000061,0.6999969,0.3999939,0.8999939
			c0.2000122,0.1999969,0.5,0.3999939,0.8999939,0.3999939s0.7000122-0.1000061,0.8999939-0.3999939
			C425.3132019,181.9999847,425.413208,181.6999817,425.413208,181.3999786z"/>
		<path class="st6" d="M427.913208,185.9999847c-0.2000122,0-0.2999878-0.1000061-0.5-0.1999969
			c-0.1000061-0.1000061-0.2000122-0.3000031-0.2000122-0.5s0.1000061-0.3000031,0.2000122-0.3999939
			c0.1000061-0.1000061,0.2999878-0.1999969,0.5-0.1999969s0.2999878,0.1000061,0.3999939,0.1999969
			c0.1000061,0.1000061,0.2000122,0.3000031,0.2000122,0.3999939c0,0.1999969-0.1000061,0.3000031-0.2000122,0.5
			S428.0131836,185.9999847,427.913208,185.9999847z"/>
		<path class="st6" d="M431.8132019,181.5999908c0.6000061,0,1.1000061,0.1999969,1.5,0.6000061
			c0.3999939,0.3999939,0.6000061,0.8999939,0.6000061,1.5s-0.2000122,1.1999969-0.7000122,1.6000061
			c-0.3999939,0.3999939-1,0.6000061-1.7000122,0.6000061c-0.7999878,0-1.3999939-0.3000031-1.7999878-0.8999939
			c-0.3999939-0.6000061-0.6000061-1.3999939-0.6000061-2.3000031c0-0.6000061,0.1000061-1.1999969,0.2999878-1.8000031
			s0.5-1,0.8999939-1.3000031c0.3999939-0.3999939,1-0.5,1.6000061-0.5c0.7000122,0,1.2999878,0.1999969,1.7000122,0.6000061
			l-0.3999939,0.8000031c-0.3999939-0.3000031-0.7999878-0.3999939-1.2000122-0.3999939
			c-0.3999939,0-0.7000122,0.1000061-1,0.3999939c-0.5,0.5-0.7999878,1.1999969-0.7999878,2.1000061
			c0.2000122-0.3000031,0.3999939-0.5,0.7000122-0.6999969S431.5131836,181.5999908,431.8132019,181.5999908z
			 M431.6131897,185.0999908c0.3999939,0,0.7000122-0.1000061,0.8999939-0.3999939
			c0.2000122-0.3000031,0.3999939-0.6000061,0.3999939-0.8999939c0-0.3999939-0.1000061-0.6999969-0.3999939-0.8999939
			c-0.2000122-0.1999969-0.5-0.3999939-0.8999939-0.3999939s-0.7000122,0.1000061-0.8999939,0.3999939
			c-0.2000122,0.1999969-0.3999939,0.6000061-0.3999939,0.8999939c0,0.3999939,0.1000061,0.6999969,0.3999939,0.8999939
			C431.0131836,184.8999786,431.3132019,185.0999908,431.6131897,185.0999908z"/>
	</g>
	<g>
		<path class="st6" d="M367.6131897,334.7999573l1.8999939-1.6000061h0.7999878v6.7000122h-1v-5.2999878l-1.2000122,0.8999939
			L367.6131897,334.7999573z"/>
		<path class="st6" d="M373.413208,339.8999634c-0.7000122,0-1.3999939-0.2000122-2.1000061-0.7000122l0.5-0.7999878
			c0.6000061,0.3999939,1.1000061,0.5,1.6000061,0.5c0.3999939,0,0.7000122-0.1000061,0.8999939-0.2999878
			c0.2000122-0.2000122,0.2999878-0.3999939,0.2999878-0.7999878c0-0.2999878-0.1000061-0.6000061-0.3999939-0.7999878
			c-0.2000122-0.2000122-0.5-0.2999878-0.8999939-0.2999878h-0.7999878v-0.8999939h0.7999878
			c0.2999878,0,0.6000061-0.1000061,0.7999878-0.2999878c0.2000122-0.2000122,0.2999878-0.3999939,0.2999878-0.7000122
			c0-0.2999878-0.1000061-0.5-0.2999878-0.7000122s-0.5-0.2999878-0.7999878-0.2999878
			c-0.3999939,0-0.8999939,0.2000122-1.3999939,0.6000061l-0.5-0.7000122c0.2000122-0.2000122,0.5-0.3999939,0.8999939-0.6000061
			c0.3999939-0.1000061,0.7000122-0.2000122,1.1000061-0.2000122c0.6000061,0,1.1000061,0.2000122,1.5,0.5
			s0.6000061,0.7999878,0.6000061,1.2000122c0,0.3999939-0.1000061,0.7000122-0.2999878,0.8999939
			c-0.2000122,0.2999878-0.5,0.5-0.7999878,0.6000061l0,0c0.3999939,0.1000061,0.7000122,0.2999878,1,0.6000061
			c0.2000122,0.2999878,0.2999878,0.6000061,0.2999878,1.1000061c0,0.6000061-0.2000122,1-0.6000061,1.3999939
			C374.7131958,339.6999817,374.1131897,339.8999634,373.413208,339.8999634z"/>
	</g>
	<g>
		<path class="st6" d="M239.8132019,339.1999817c0.6000061,0,1.1999969,0.2000122,1.6000061,0.6000061
			c0.3999939,0.3999939,0.6000061,0.8999939,0.6000061,1.6000061S241.8132172,342.6000061,241.3132172,343
			c-0.3999939,0.3999939-1,0.6000061-1.6999969,0.6000061c-0.8000031,0-1.5-0.2999878-2.1999969-0.7999878l0.5-0.7999878
			c0.6000061,0.3999939,1.1000061,0.6000061,1.6999969,0.6000061c0.3999939,0,0.6999969-0.1000061,1-0.3999939
			c0.3000031-0.2000122,0.3999939-0.5,0.3999939-0.8999939s-0.1000061-0.7000122-0.3999939-0.8999939
			c-0.1999969-0.2000122-0.6000061-0.3999939-1-0.3999939c-0.5,0-0.8999939,0.2000122-1.1999969,0.5l-0.6000061-0.3999939
			l0.3999939-3.2999878h3.3999939v0.8999939h-2.6000061l-0.1999969,1.6000061
			C239.0131989,339.2999573,239.4131927,339.1999817,239.8132019,339.1999817z"/>
	</g>
	<g>
		<path class="st6" d="M263.1131897,263.1999817l1.8999939-1.6000061h0.7999878v6.7000122h-1v-5.3000183l-1.2000122,0.8999939
			L263.1131897,263.1999817z"/>
		<path class="st6" d="M267.8132019,268.3999634c-0.2000122,0-0.2999878-0.1000061-0.5-0.2000122
			c-0.1000061-0.1000061-0.2000122-0.2999878-0.2000122-0.5s0.1000061-0.2999878,0.2000122-0.3999939
			s0.2999878-0.2000122,0.5-0.2000122s0.2999878,0.1000061,0.3999939,0.2000122s0.2000122,0.2999878,0.2000122,0.3999939
			c0,0.2000122-0.1000061,0.2999878-0.2000122,0.5S267.913208,268.3999634,267.8132019,268.3999634z"/>
		<path class="st6" d="M268.413208,263.1999817l1.8999939-1.6000061h0.7999878v6.7000122h-1v-5.3000183l-1.2000122,0.8999939
			L268.413208,263.1999817z"/>
	</g>
	<g>
		<path class="st6" d="M195.5131989,217.9999847l-1.6000061,1.8000031h2.6999969v1h-4.1999969v-0.8999939l2.1000061-2.3000031
			l0.5-0.6000061c0.1000061-0.1000061,0.1999969-0.3000031,0.3000031-0.5s0.1000061-0.3999939,0.1000061-0.6000061
			c0-0.3000031-0.1000061-0.5-0.3000031-0.6999969s-0.5-0.3000031-0.8000031-0.3000031c-0.5,0-1,0.1999969-1.6000061,0.6999969
			l-0.6000061-0.6999969c0.6999969-0.6000061,1.3999939-1,2.1999969-1c0.6000061,0,1.1000061,0.1999969,1.5,0.6000061
			c0.3999939,0.3999939,0.6000061,0.8999939,0.6000061,1.3999939
			C196.5131989,216.5999908,196.2131958,217.1999817,195.5131989,217.9999847z"/>
		<path class="st6" d="M198.1131897,220.8999786c-0.1999969,0-0.3000031-0.1000061-0.5-0.1999969
			c-0.1000061-0.1000061-0.1999969-0.3000031-0.1999969-0.5s0.1000061-0.3000031,0.1999969-0.3999939
			c0.1000061-0.1000061,0.3000031-0.1999969,0.5-0.1999969s0.3000031,0.1000061,0.3999939,0.1999969
			c0.1000061,0.1000061,0.1999969,0.3000031,0.1999969,0.3999939c0,0.1999969-0.1000061,0.3000031-0.1999969,0.5
			C198.4131927,220.7999878,198.3132019,220.8999786,198.1131897,220.8999786z"/>
		<path class="st6" d="M199.2131958,214.9999847v-0.8999939h4.1999969v0.6999969l-2.5,6h-1.1000061l2.5-5.6999969h-3.0999908
			V214.9999847z"/>
	</g>
</g>
<g id="street_anchors">
	<rect id="street_anchor_01" x="591.1132202" y="234.9999847" class="st14" width="10" height="10"/>
</g>
</svg>
