<?xml version="1.0" encoding="utf-8"?>
<!-- DO NOT EDIT THIS, THIS FILE IS GENERATED FROM "1_13-22_10.original.svg" using transform-svgs.js script -->
<!-- Generator: Adobe Illustrator 24.2.0, SVG Export Plug-In . SVG Version: 6.00 Build 0)  -->
<!DOCTYPE svg PUBLIC "-//W3C//DTD SVG 1.1//EN" "http://www.w3.org/Graphics/SVG/1.1/DTD/svg11.dtd" [
	<!ENTITY ns_extend "http://ns.adobe.com/Extensibility/1.0/">
	<!ENTITY ns_ai "http://ns.adobe.com/AdobeIllustrator/10.0/">
	<!ENTITY ns_graphs "http://ns.adobe.com/Graphs/1.0/">
	<!ENTITY ns_vars "http://ns.adobe.com/Variables/1.0/">
	<!ENTITY ns_imrep "http://ns.adobe.com/ImageReplacement/1.0/">
	<!ENTITY ns_sfw "http://ns.adobe.com/SaveForWeb/1.0/">
	<!ENTITY ns_custom "http://ns.adobe.com/GenericCustomNamespace/1.0/">
	<!ENTITY ns_adobe_xpath "http://ns.adobe.com/XPath/1.0/">
]>
<svg version="1.1" id="Слой_1" xmlns:x="&ns_extend;" xmlns:i="&ns_ai;" xmlns:graph="&ns_graphs;"
	 xmlns="http://www.w3.org/2000/svg" xmlns:xlink="http://www.w3.org/1999/xlink" x="0px" y="0px" viewBox="0 0 150 100"
	 style="enable-background:new 0 0 150 100;" xml:space="preserve"><g transform="translate(25.355170729772176 16.90344715318145) scale(0.661931056936371)">
<style type="text/css">
	.st0{fill:#DBD4CA;}
	.st1{fill:none;stroke:#565440;}
	.st2{fill:none;stroke:#565440;stroke-width:1.0000414;stroke-miterlimit:4.0001655;}
	.st3{fill:#565440;}
</style>
<metadata>
	<sfw  xmlns="&ns_sfw;">
		<slices></slices>
		<sliceSourceBounds  bottomLeftOrigin="true" height="99.9578018" width="111.6796417" x="19.1578064" y="0.2711">
			</sliceSourceBounds>
	</sfw>
</metadata>
<polygon id="Floor_1_" class="st0" points="19.1578064,10.7407913 126.9822159,10.7407913 129.1866302,14.1031923 
	125.2760773,30.2282333 123.7313538,42.9764442 130.0613556,44.7312965 125.9662552,61.479763 125.7914124,76.9740067 
	129.7261658,78.4982834 125.2423859,98.6751709 105.1549072,94.6500092 92.7364883,94.8156509 90.6223984,99.1846848 
	64.6673279,93.3551407 50.0037766,93.2558365 48.0980911,98.137558 30.1871166,94.0199966 19.1578064,94.0199966 "/>
<g id="Windows">
	<path class="st1" d="M32.4140129,92.6999588l15.897316,3.668663L48.0056,97.8971634l-15.8973122-3.668663L32.4140129,92.6999588z"
		/>
	<path class="st1" d="M64.6163406,91.4770203L90.398613,97.387558l-0.3057251,1.5285416l-25.7822723-5.9105377
		L64.6163406,91.4770203z"/>
	<polygon class="st1" points="129.7344208,78.229248 128.2058411,77.9235229 124.0276642,96.5724106 99.4682083,91.6809311 
		99.2644196,93.2094727 125.2504807,98.4067078 125.352417,97.6933136 	"/>
	
		<rect x="117.9667816" y="52.2710495" transform="matrix(0.2514896 -0.96786 0.96786 0.2514896 43.8374901 162.7525635)" class="st2" width="18.3508377" height="1.5264767"/>
	
		<rect x="118.9952927" y="19.6993752" transform="matrix(0.2514896 -0.96786 0.96786 0.2514896 75.5219116 138.5786896)" class="st2" width="16.7202568" height="1.5264767"/>
</g>
<g id="Walls">
	<polygon class="st3" points="24.2578144,89.9459152 24.2578144,13.51618 33.1273155,13.51618 33.1273155,10.459096 
		24.2578144,10.459096 19.16255,10.459096 19.16255,95.0412064 24.2578144,95.0412064 29.6732998,95.0412064 32.20644,95.6526642 
		33.3275337,90.6592102 30.3721409,89.9459152 	"/>
	<polygon class="st3" points="48.715332,93.0031204 47.5943336,97.9964752 50.5496025,98.7098694 51.3960495,94.9393616 
		65.0203171,94.9393616 65.0203171,88.8249435 48.715332,88.8249435 	"/>
	<polygon class="st3" points="90.4968567,94.9300385 89.5796814,99.0156021 92.5349503,99.7288971 93.6100616,94.9393616 
		105.7828445,94.9393616 105.7828445,88.8249435 90.4968567,88.8249435 	"/>
	<polygon class="st3" points="75.210907,51.2215004 75.210907,91.2706985 74.5995483,94.0221786 75.618576,94.2259674 
		76.2299347,91.4744873 76.2299347,52.2406235 77.2489624,52.2406235 77.2489624,51.2215004 76.2299347,51.2215004 	"/>
	<polygon class="st3" points="84.1786575,38.9928513 84.1786575,40.011879 91.5158844,40.011879 91.5158844,42.0499344 
		92.5349503,42.0499344 92.5349503,40.011879 92.5349503,38.9928513 86.4206238,38.9928513 86.4206238,13.51618 
		127.5908813,13.51618 130.124115,14.127759 130.8374481,11.1723967 127.8821793,10.459096 43.3180008,10.459096 
		43.3180008,13.51618 44.6390648,13.51618 44.6390648,20.4458714 45.658123,20.4458714 45.658123,13.51618 66.0393753,13.51618 
		66.0393753,38.9928513 45.658123,38.9928513 45.658123,28.7003174 44.6390648,28.7003174 44.6390648,40.011879 
		45.658123,40.011879 76.1280899,40.011879 76.1280899,38.9928513 67.058403,38.9928513 67.058403,13.51618 85.4015656,13.51618 
		85.4015656,38.9928513 	"/>
	<polygon class="st3" points="126.3678818,52.8520775 126.5716705,51.8330498 124.1259155,51.2215004 92.5349503,51.2215004 
		92.5349503,50.2024422 91.5158844,50.2024422 91.5158844,51.2215004 85.4015656,51.2215004 85.4015656,52.2406235 
		123.9220276,52.2406235 	"/>
	<polygon class="st3" points="126.143158,60.7259293 120.0287323,60.7259293 120.0287323,77.8821793 125.5781479,77.8821793 
		130.1174469,78.9012375 130.8308716,75.9459686 126.143158,74.8935699 	"/>
	<polygon class="st3" points="126.7546082,27.9881439 121.7611923,26.8671436 121.0715485,29.8224125 121.04776,29.8224125 
		121.04776,44.640728 125.5781479,44.640728 130.1174469,45.6597557 130.8308716,42.7044868 126.143158,41.6521263 
		126.143158,30.5212841 	"/>
</g>
<path id="Doors" class="st1" d="M85.405159,52.243187c0,1.1209717-0.2037811,2.0380898-0.6114502,3.0572128
	c-0.4076691,1.0190277-1.0190277,1.9362373-1.7324524,2.6495399c-0.7133942,0.8152428-1.6305161,1.4267273-2.6495438,1.834301
	s-2.0380859,0.611454-3.1590576,0.611454V52.243187 M76.0298386,38.9953842c0-1.1209679,0.2038803-2.0381813,0.6114578-3.057209
	c0.4075699-1.0190277,1.0190277-1.9362411,1.7324524-2.6495399c0.7133942-0.8152428,1.6305161-1.4267273,2.6495438-1.834301
	s2.0380859-0.611454,3.1590576-0.611454v8.152504 M45.6618156,28.6009426c1.1209717,0,2.0380898-0.2037868,3.057209-0.611454
	c1.0190315-0.4076672,1.9362411-1.0190277,2.6495438-1.7324543c0.8152428-0.7133942,1.4267273-1.6305122,1.834301-2.6495419
	c0.4075737-1.0190277,0.611454-2.0380859,0.611454-3.1590557h-8.1525078 M92.5386429,42.0526276
	c1.1209641,0,2.0380859,0.2037849,3.0572052,0.611454c1.0190277,0.4076653,1.9362411,1.0191536,2.6495438,1.7324524
	c0.815239,0.7133942,1.4267273,1.6305161,1.8342972,2.6495438c0.4075775,1.0190277,0.6114578,2.0380859,0.6114578,3.1590538
	h-8.152504 M33.1273155,10.4616623c0-1.3247557,0.3057289-2.5476956,0.8152428-3.7705102
	c0.5095139-1.2229404,1.2229385-2.445755,2.2419662-3.3628428c0.9171829-0.9171815,2.0380859-1.7324541,3.2609978-2.2419682
	C40.6684608,0.5768272,41.9932175,0.2711,43.3179703,0.2711v10.1905622"/>
</g></svg>
