<?xml version="1.0" encoding="utf-8"?>
<!-- DO NOT EDIT THIS, THIS FILE IS GENERATED FROM "1_24_6.original.svg" using transform-svgs.js script -->
<!-- Generator: Adobe Illustrator 24.2.0, SVG Export Plug-In . SVG Version: 6.00 Build 0)  -->
<!DOCTYPE svg PUBLIC "-//W3C//DTD SVG 1.1//EN" "http://www.w3.org/Graphics/SVG/1.1/DTD/svg11.dtd" [
	<!ENTITY ns_extend "http://ns.adobe.com/Extensibility/1.0/">
	<!ENTITY ns_ai "http://ns.adobe.com/AdobeIllustrator/10.0/">
	<!ENTITY ns_graphs "http://ns.adobe.com/Graphs/1.0/">
	<!ENTITY ns_vars "http://ns.adobe.com/Variables/1.0/">
	<!ENTITY ns_imrep "http://ns.adobe.com/ImageReplacement/1.0/">
	<!ENTITY ns_sfw "http://ns.adobe.com/SaveForWeb/1.0/">
	<!ENTITY ns_custom "http://ns.adobe.com/GenericCustomNamespace/1.0/">
	<!ENTITY ns_adobe_xpath "http://ns.adobe.com/XPath/1.0/">
]>
<svg version="1.1" id="Слой_1" xmlns:x="&ns_extend;" xmlns:i="&ns_ai;" xmlns:graph="&ns_graphs;"
	 xmlns="http://www.w3.org/2000/svg" xmlns:xlink="http://www.w3.org/1999/xlink" x="0px" y="0px" viewBox="0 0 150 100"
	 style="enable-background:new 0 0 150 100;" xml:space="preserve"><g transform="translate(22.817614084382136 15.211742722921423) scale(0.6957651455415715)">
<style type="text/css">
	.st0{fill:#DBD4CA;}
	.st1{fill:none;stroke:#565440;}
	.st2{fill:none;stroke:#565440;stroke-width:1.0000414;stroke-miterlimit:4.0001655;}
	.st3{fill:#565440;}
</style>
<metadata>
	<sfw  xmlns="&ns_sfw;">
		<slices></slices>
		<sliceSourceBounds  bottomLeftOrigin="true" height="100.0000687" width="90.4015884" x="29.7999992" y="0"></sliceSourceBounds>
	</sfw>
</metadata>
<polygon id="Floor" class="st0" points="53.4000015,0.5999343 53.4000015,27.7999363 29.7999992,27.7999363 29.7999992,96.1999283 
	38.2999992,96.1999283 40.4000015,96.6999283 40.7000008,95.3999329 53.2999992,98.4999313 53.4000015,98.0999298 
	55.2999992,98.6999283 55.9000015,96.0999298 66.9000015,96.0999298 66.9000015,94.5999298 89.1999969,99.6999283 90,96.0999298 
	99.0999985,96.0999298 99.5999985,95.6999283 115.5999985,98.8999329 119.5153351,80.8588943 116.3000031,80.3251572 
	116.3000031,69.4999313 116.3312912,67.5889587 119.7718124,54.3190193 116.4000015,53.8220863 116.4000015,43.9999313 
	116.207901,42.6628647 119.4664612,30.1222687 116.1999969,28.4999371 116.1999969,15.4999342 119.6073608,1.8662906 
	119.4233093,-0.0000657 53.4000015,-0.0000657 "/>
<g id="Windows">
	<path class="st1" d="M40.4934845,94.3115158l12.8606987,2.9678497l-0.2472992,1.2366333l-12.8606987-2.9678574
		L40.4934845,94.3115158z"/>
	<path class="st1" d="M66.5445709,93.3222122l20.8573837,4.7815247l-0.2472992,1.2366257l-20.8573837-4.7815247
		L66.5445709,93.3222122z"/>
	<polygon class="st1" points="119.2238464,82.6049957 117.9872131,82.3576736 114.6072006,97.4442291 94.7391205,93.4871674 
		94.5741653,94.7236938 115.5964279,98.928154 115.6788712,98.3511124 	"/>
	
		<rect x="109.7024841" y="7.4817686" transform="matrix(0.2514896 -0.96786 0.96786 0.2514896 79.8305588 119.4231339)" class="st2" width="14.8454618" height="1.2348346"/>
	
		<rect x="109.7047882" y="61.6062317" transform="matrix(0.2514896 -0.96786 0.96786 0.2514896 27.4474068 159.9381256)" class="st2" width="14.8455381" height="1.2348472"/>
	
		<rect x="109.703537" y="36.0558853" transform="matrix(0.2514896 -0.96786 0.96786 0.2514896 52.1756248 140.8122101)" class="st2" width="14.8455381" height="1.2348472"/>
</g>
<path id="Doors" class="st1" d="M83.3623505,61.582737c0,0.9068832-0.1648788,1.6487846-0.4946213,2.4732323
	c-0.3297424,0.8243637-0.8243713,1.5663681-1.4014893,2.1434097c-0.5771408,0.6594849-1.319046,1.1541824-2.1434097,1.4839249
	c-0.8244476,0.3297424-1.6487885,0.4946289-2.5556717,0.4946289V61.582737 M75.7778549,45.7542572
	c-0.9068832,0-1.6487885-0.1648827-2.4732285-0.4946251c-0.8244476-0.3297424-1.5663681-0.8243675-2.143486-1.4014854
	c-0.6594849-0.5771446-1.1541901-1.319046-1.4839325-2.1434898c-0.3297424-0.8243675-0.4946213-1.6487846-0.4946213-2.5556717
	h6.595192 M71.3260727,17.0650806c-0.9068832,0-1.6487885-0.1648846-2.4732285-0.4946251
	c-0.8244476-0.3297424-1.5663681-0.8244448-2.143486-1.4014864c-0.6594849-0.5771437-1.1541901-1.3190441-1.4839325-2.1434116
	s-0.4946213-1.6487865-0.4946213-2.5556717h6.595192 M84.5989532,29.5135441c0-0.9068851-0.1648788-1.6487846-0.4946213-2.4732285
	s-0.8243713-1.56637-1.4014893-2.1434879c-0.5771408-0.6594849-1.319046-1.1541862-2.1434097-1.4839287
	c-0.8244476-0.3297424-1.6487885-0.4946251-2.5556717-0.4946251v6.5951939 M48.4901657,39.4888306
	c-0.9068871,0-1.6487885,0.1648827-2.4732323,0.4946251c-0.8243675,0.3297424-1.5663681,0.8243675-2.1434097,1.4014854
	c-0.6594849,0.5771446-1.1541862,1.319046-1.4839287,2.1434135c-0.3297424,0.8244438-0.4946251,1.6487846-0.4946251,2.5556717
	h6.5951958 M86.0004654,48.4747353c0.9893036,0,1.8136673,0.1648865,2.7205276,0.4946289
	c0.9068909,0.3297386,1.6487885,0.9068832,2.2258606,1.4839249c0.6595535,0.5771446,1.2366257,1.4014854,1.5663681,2.225853
	c0.3297424,0.8244438,0.4946213,1.7312279,0.4946213,2.7205315h-7.0074539 M46.8413773,27.7822914
	c0-1.071743-0.2472992-2.0610466-0.659481-3.050272c-0.4121857-0.9893017-0.9893036-1.9785271-1.8136711-2.7205296
	c-0.7419243-0.7419262-1.6487846-1.4014854-2.6381149-1.8136692c-0.9892998-0.4121857-2.0609703-0.6594849-3.1327133-0.6594849
	v8.2440567"/>
<g id="Walls">
	<polygon class="st3" points="33.9516563,92.0856628 33.9516563,30.2555466 38.8155975,30.2555466 38.8155975,27.7822914 
		33.9516563,27.7822914 33.7867737,27.7822914 29.8296146,27.7822914 29.8296146,96.2076263 33.9516563,96.2076263 
		38.3326721,96.2076263 40.3819656,96.7024002 41.2888527,92.6627274 38.8980408,92.0856628 	"/>
	<polygon class="st3" points="53.7372932,94.558815 52.8305092,98.5984116 55.2212181,99.1755524 55.9059639,96.1252594 
		66.9277344,96.1252594 66.9277344,91.1788025 53.7372932,91.1788025 	"/>
	<polygon class="st3" points="87.537735,96.1178589 86.7957077,99.4228592 89.1865234,100 90.0563965,96.1252594 
		99.9038086,96.1252594 99.9038086,91.1788025 87.537735,91.1788025 	"/>
	<polygon class="st3" points="75.1717148,60.7583923 75.1717148,93.1574249 74.6771164,95.383255 75.5015335,95.5481415 
		75.9961548,93.3222122 75.9961548,61.582737 76.8205032,61.582737 76.8205032,60.7583923 75.9961548,60.7583923 	"/>
	<polygon class="st3" points="116.5567322,62.0775146 116.7215881,61.2530708 114.7429886,60.7583923 86.0538101,60.7583923 
		86.0538101,55.3997231 85.2294388,55.3997231 85.2294388,60.7583923 83.4157715,60.7583923 83.4157715,61.582737 
		114.5781021,61.582737 	"/>
	<polygon class="st3" points="72.1214447,17.0650806 71.2969971,17.0650806 71.2969971,29.4311028 55.332737,29.4311028 
		55.332737,27.7822914 55.332737,2.4732299 71.2969971,2.4732299 71.2969971,10.4699106 72.1214447,10.4699106 
		72.1214447,2.4732299 119.7718124,2.4732299 119.7718124,0 52.8595047,0 52.8595047,27.7822914 46.8947983,27.7822914 
		46.8947983,30.2555466 48.5435829,30.2555466 48.5435829,39.4888306 49.3679504,39.4888306 49.3146095,30.2555466 
		58.7951927,30.2555466 58.8485336,50.8655243 49.3679504,50.8655243 49.3679504,46.0839996 48.5435829,46.0839996 
		48.5435829,50.8655243 48.5435829,51.6899681 49.3679504,51.6899681 75.5015335,51.6899681 75.9137192,51.6899681 
		76.3258972,51.6899681 76.3258972,45.7542572 75.5015335,45.7542572 75.5015335,50.8655243 59.6729774,50.8655243 
		59.6729774,30.2555466 75.5015335,30.2555466 75.5015335,39.1590118 76.3258972,39.1590118 76.3258972,30.2555466 
		78.0910568,30.2555466 78.0910568,29.4311028 72.1214447,29.4311028 	"/>
	<polygon class="st3" points="116.7342606,30.2565384 117.5439453,30.2543774 119.5901642,30.7498932 119.5905228,30.7483921 
		119.5932693,30.7490788 120.1703873,28.3582649 117.7795944,27.781147 116.3926086,27.781147 116.3926086,14.5928431 
		116.3727722,14.5928431 116.3727722,14.5916977 111.4338913,14.5916977 111.4332275,27.7822914 85.2293625,27.7822914 
		85.2293625,29.4311028 84.6523209,29.4311028 84.6523209,30.2555466 85.2293625,30.2555466 85.2294388,30.2555466 
		85.2294388,48.4753227 86.0538101,48.4753227 86.0538101,30.2555466 111.4332275,30.2555466 111.4332275,30.2565384 	"/>
	<polygon class="st3" points="116.3727722,68.4460678 111.4263077,68.4460678 111.4263077,82.3251648 115.915741,82.3251648 
		119.5879288,83.1495361 120.1650696,80.7587433 116.3727722,79.9074631 	"/>
	<polygon class="st3" points="116.3727722,44.0111237 116.8673935,41.9618073 112.8277969,41.0549469 112.2699814,43.4457321 
		112.2507248,43.4457321 112.2507248,55.433506 115.915741,55.433506 119.5879288,56.2578468 120.1650696,53.8670578 
		116.3727722,53.0157776 	"/>
</g>
</g></svg>
