<?xml version="1.0" encoding="utf-8"?>
<!-- DO NOT EDIT THIS, THIS FILE IS GENERATED FROM "1_24_2.original.svg" using transform-svgs.js script -->
<!-- Generator: Adobe Illustrator 24.2.0, SVG Export Plug-In . SVG Version: 6.00 Build 0)  -->
<!DOCTYPE svg PUBLIC "-//W3C//DTD SVG 1.1//EN" "http://www.w3.org/Graphics/SVG/1.1/DTD/svg11.dtd" [
	<!ENTITY ns_extend "http://ns.adobe.com/Extensibility/1.0/">
	<!ENTITY ns_ai "http://ns.adobe.com/AdobeIllustrator/10.0/">
	<!ENTITY ns_graphs "http://ns.adobe.com/Graphs/1.0/">
	<!ENTITY ns_vars "http://ns.adobe.com/Variables/1.0/">
	<!ENTITY ns_imrep "http://ns.adobe.com/ImageReplacement/1.0/">
	<!ENTITY ns_sfw "http://ns.adobe.com/SaveForWeb/1.0/">
	<!ENTITY ns_custom "http://ns.adobe.com/GenericCustomNamespace/1.0/">
	<!ENTITY ns_adobe_xpath "http://ns.adobe.com/XPath/1.0/">
]>
<svg version="1.1" id="Слой_1" xmlns:x="&ns_extend;" xmlns:i="&ns_ai;" xmlns:graph="&ns_graphs;"
	 xmlns="http://www.w3.org/2000/svg" xmlns:xlink="http://www.w3.org/1999/xlink" x="0px" y="0px" viewBox="0 0 150 100"
	 style="enable-background:new 0 0 150 100;" xml:space="preserve"><g transform="translate(7.038966362452253 4.692644241634836) scale(0.9061471151673033)">
<style type="text/css">
	.st0{fill:#DBD4CA;}
	.st1{fill:#565440;}
	.st2{fill:none;stroke:#565440;}
</style>
<metadata>
	<sfw  xmlns="&ns_sfw;">
		<slices></slices>
		<sliceSourceBounds  bottomLeftOrigin="true" height="100" width="61.5184326" x="44.2407837" y="0.0000829"></sliceSourceBounds>
	</sfw>
</metadata>
<polygon id="Floor" class="st0" points="45.4000015,0.8999125 45.4000015,99.9999084 90.4000015,99.9999084 90.4000015,45.39991 
	104.5,45.39991 104.5,0.8999125 "/>
<g id="Walls">
	<polygon class="st1" points="76.4300537,43.9936905 76.4300537,43.8376846 76.4300537,40.8215714 75.9100342,40.8215714 
		75.9100342,43.8376846 56.9812622,43.8376846 56.9812622,40.5615616 54.3811646,40.5615616 54.3811646,43.8376846 
		54.3811646,45.0857315 54.3811646,45.3977432 76.4300537,45.3977432 	"/>
	<polygon class="st1" points="75.9100342,36.9734268 76.4300537,36.9734268 76.4300537,36.817421 77.3140869,36.817421 
		77.3140869,36.2974014 76.4300537,36.2974014 76.4300537,13.2084742 76.8460693,13.2084742 76.8460693,10.6083765 
		72.3739014,10.6083765 72.3739014,13.2084742 75.9100342,13.2084742 	"/>
	<polygon class="st1" points="45.020813,13.416482 45.2808228,13.416482 45.2808228,14.1445093 46.164856,14.1445093 
		46.164856,13.416482 46.6328735,13.416482 46.6328735,14.1445093 47.5169067,14.1445093 47.5169067,13.416482 
		48.1409302,13.416482 48.1409302,7.3322535 47.5169067,7.3322535 47.5169067,6.5522242 46.6328735,6.5522242 46.6328735,7.3322535 
		46.164856,7.3322535 46.164856,6.5522242 45.2808228,6.5522242 45.2808228,7.3322535 45.020813,7.3322535 45.020813,7.852273 
		44.2407837,7.852273 44.2407837,8.7363062 45.020813,8.7363062 45.020813,9.2043238 44.2407837,9.2043238 44.2407837,10.088357 
		45.020813,10.088357 45.020813,10.5563745 44.2407837,10.5563745 44.2407837,11.4404078 45.020813,11.4404078 
		45.020813,11.9084253 44.2407837,11.9084253 44.2407837,12.7924585 45.020813,12.7924585 	"/>
	<polygon class="st1" points="45.020813,35.3613663 45.2808228,35.3613663 45.2808228,36.0893936 46.164856,36.0893936 
		46.164856,35.3613663 46.6328735,35.3613663 46.6328735,36.0893936 47.5169067,36.0893936 47.5169067,35.3613663 
		48.1409302,35.3613663 48.1409302,29.2770786 47.5169067,29.2770786 47.5169067,28.4970493 46.6328735,28.4970493 
		46.6328735,29.2770786 46.164856,29.2770786 46.164856,28.4970493 45.2808228,28.4970493 45.2808228,29.2770786 
		45.020813,29.2770786 45.020813,29.7970982 44.2407837,29.7970982 44.2407837,30.6811314 45.020813,30.6811314 45.020813,31.14921 
		44.2407837,31.14921 44.2407837,32.0332413 45.020813,32.0332413 45.020813,32.5012589 44.2407837,32.5012589 
		44.2407837,33.3852921 45.020813,33.3852921 45.020813,33.8533096 44.2407837,33.8533096 44.2407837,34.7373428 
		45.020813,34.7373428 	"/>
	<polygon class="st1" points="45.020813,68.1746597 45.2808228,68.1746597 45.2808228,68.954689 46.164856,68.954689 
		46.164856,68.1746597 46.6328735,68.1746597 46.6328735,68.954689 47.5169067,68.954689 47.5169067,68.1746597 
		48.1409302,68.1746597 48.1409302,62.0904312 47.5169067,62.0904312 47.5169067,61.3104019 46.6328735,61.3104019 
		46.6328735,62.0904312 46.164856,62.0904312 46.164856,61.3104019 45.2808228,61.3104019 45.2808228,62.0904312 
		45.020813,62.0904312 45.020813,62.6104507 44.2407837,62.6104507 44.2407837,63.4944839 45.020813,63.4944839 
		45.020813,63.9625015 44.2407837,63.9625015 44.2407837,64.8465347 45.020813,64.8465347 45.020813,65.3145523 
		44.2407837,65.3145523 44.2407837,66.1985855 45.020813,66.1985855 45.020813,66.718605 44.2407837,66.718605 
		44.2407837,67.6026382 45.020813,67.6026382 	"/>
	<polygon class="st1" points="45.2808228,84.4512711 45.2808228,85.2313614 46.164856,85.2313614 46.164856,84.4512711 
		46.6328735,84.4512711 46.6328735,85.2313614 47.5169067,85.2313614 47.5169067,84.4512711 48.1409302,84.4512711 
		48.1409302,78.3670425 47.5169067,78.3670425 47.5169067,77.5870132 46.6328735,77.5870132 46.6328735,78.3670425 
		46.164856,78.3670425 46.164856,77.5870132 45.2808228,77.5870132 45.2808228,78.3670425 45.020813,78.3670425 
		45.020813,78.8870621 44.2407837,78.8870621 44.2407837,79.7710953 45.020813,79.7710953 45.020813,80.2911148 
		44.2407837,80.2911148 44.2407837,81.175148 45.020813,81.175148 45.020813,81.6431656 44.2407837,81.6431656 
		44.2407837,82.5272598 45.020813,82.5272598 45.020813,82.9952774 44.2407837,82.9952774 44.2407837,83.8793106 
		45.020813,83.8793106 45.020813,84.4512711 	"/>
	<polygon class="st1" points="55.9932251,3.9000635 62.0774536,3.9000635 62.0774536,3.2760401 62.8575439,3.2760401 
		62.8575439,2.3920069 62.0774536,2.3920069 62.0774536,1.9239893 62.8575439,1.9239893 62.8575439,1.0399561 62.0774536,1.0399561 
		62.0774536,0.7799464 61.5574341,0.7799464 61.5574341,-0.0000829 60.6734009,-0.0000829 60.6734009,0.7799464 
		60.2053833,0.7799464 60.2053833,-0.0000829 59.3213501,-0.0000829 59.3213501,0.7799464 58.8533325,0.7799464 
		58.8533325,-0.0000829 57.9692993,-0.0000829 57.9692993,0.7799464 57.4492798,0.7799464 57.4492798,-0.0000829 
		56.5652466,-0.0000829 56.5652466,0.7799464 55.9932251,0.7799464 55.9932251,1.0399561 55.2131958,1.0399561 
		55.2131958,1.9239893 55.9932251,1.9239893 55.9932251,2.3920069 55.2131958,2.3920069 55.2131958,3.2760401 55.9932251,3.2760401 
			"/>
	<polygon class="st1" points="77.8341064,3.9000635 83.918335,3.9000635 83.918335,3.2760401 84.6738281,3.2760401 
		84.6738281,2.3920069 83.918335,2.3920069 83.918335,1.9239893 84.6738281,1.9239893 84.6738281,1.0399561 83.918335,1.0399561 
		83.918335,0.7799464 83.3983154,0.7799464 83.3983154,-0.0000829 82.5142822,-0.0000829 82.5142822,0.7799464 
		82.0462646,0.7799464 82.0462646,-0.0000829 81.1622314,-0.0000829 81.1622314,0.7799464 80.6942139,0.7799464 
		80.6942139,-0.0000829 79.8101807,-0.0000829 79.8101807,0.7799464 79.3421631,0.7799464 79.3421631,-0.0000829 
		78.4581299,-0.0000829 78.4581299,0.7799464 77.8341064,0.7799464 77.8341064,1.0399561 77.1060791,1.0399561 
		77.1060791,1.9239893 77.8341064,1.9239893 77.8341064,2.3920069 77.1060791,2.3920069 77.1060791,3.2760401 77.8341064,3.2760401 
			"/>
	<polygon class="st1" points="105.7592163,2.288003 105.7592163,1.4039698 104.979187,1.4039698 104.979187,0.7799464 
		104.7711792,0.7799464 104.7711792,0.051919 103.835144,0.051919 103.835144,0.7799464 103.3671265,0.7799464 
		103.3671265,0.051919 102.4830933,0.051919 102.4830933,0.7799464 101.8590698,0.7799464 101.8590698,1.4039698 
		101.0790405,1.4039698 101.0790405,2.288003 101.8590698,2.288003 101.8590698,2.7560205 101.0790405,2.7560205 
		101.0790405,3.6400537 101.8590698,3.6400537 101.8590698,4.1080713 101.0790405,4.1080713 101.0790405,4.9921045 
		101.8590698,4.9921045 101.8590698,5.5121241 101.0790405,5.5121241 101.0790405,6.3961573 101.8590698,6.3961573 
		101.8590698,6.8642359 101.0790405,6.8642359 101.0790405,7.7482691 101.8590698,7.7482691 101.8590698,8.2162867 
		101.0790405,8.2162867 101.0790405,9.1003199 101.8590698,9.1003199 101.8590698,9.5683374 101.0790405,9.5683374 
		101.0790405,10.4523706 101.8590698,10.4523706 101.8590698,19.3967075 101.8590698,33.5932999 93.6427612,33.5932999 
		93.6427612,34.1133194 101.8590698,34.1133194 101.8590698,43.8376846 86.4144287,43.8376846 86.4144287,34.1133194 
		89.6386108,34.1133194 89.6386108,33.5932999 86.4144287,33.5932999 85.8944092,33.5932999 85.8944092,34.1133194 
		85.8944092,36.2974014 81.1622314,36.2974014 81.1622314,36.817421 85.8944092,36.817421 85.8944092,43.8376846 
		81.8902588,43.8376846 81.8902588,45.3977432 88.8585815,45.3977432 88.8585815,65.800148 90.4186401,65.800148 
		90.4186401,45.3977432 104.4591675,45.3977432 104.4591675,43.8376846 104.4591675,19.3967075 104.979187,19.3967075 
		104.979187,18.6686802 105.7592163,18.6686802 105.7592163,17.784647 104.979187,17.784647 104.979187,17.2646275 
		105.7592163,17.2646275 105.7592163,16.3805943 104.979187,16.3805943 104.979187,15.9125757 105.7592163,15.9125757 
		105.7592163,15.0285425 104.979187,15.0285425 104.979187,14.5605249 105.7592163,14.5605249 105.7592163,13.6764917 
		104.979187,13.6764917 104.979187,13.2084742 105.7592163,13.2084742 105.7592163,12.324441 104.979187,12.324441 
		104.979187,11.8044214 105.7592163,11.8044214 105.7592163,10.9203882 104.979187,10.9203882 104.979187,10.4523706 
		105.7592163,10.4523706 105.7592163,9.5683374 104.979187,9.5683374 104.979187,9.1003199 105.7592163,9.1003199 
		105.7592163,8.2162867 104.979187,8.2162867 104.979187,7.7482691 105.7592163,7.7482691 105.7592163,6.8642359 
		104.979187,6.8642359 104.979187,6.3961573 105.7592163,6.3961573 105.7592163,5.5121241 104.979187,5.5121241 
		104.979187,4.9921045 105.7592163,4.9921045 105.7592163,4.1080713 104.979187,4.1080713 104.979187,3.6400537 
		105.7592163,3.6400537 105.7592163,2.7560205 104.979187,2.7560205 104.979187,2.288003 	"/>
	<polygon class="st1" points="77.210083,83.3072891 77.7301025,83.3072891 77.7301025,82.2152481 79.4981689,82.2152481 
		79.4981689,80.6551285 76.4300537,80.6551285 76.4300537,50.1097794 76.4300537,49.591774 76.4300537,49.5897598 
		74.5256958,49.5897598 74.5256958,50.1097794 75.9100342,50.1097794 75.9100342,80.6551285 54.3811646,80.6551285 
		54.3811646,82.2152481 77.210083,82.2152481 	"/>
	<polygon class="st1" points="88.8585815,80.6551285 84.8543701,80.6551285 84.8543701,82.2152481 88.8585815,82.2152481 
		88.8585815,87.3634415 84.8543701,87.3634415 84.8543701,87.883461 88.8585815,87.883461 88.8585815,98.4398575 
		77.7301025,98.4398575 77.7301025,87.883461 81.0582275,87.883461 81.0582275,87.3634415 77.7301025,87.3634415 
		77.7301025,87.2074356 77.210083,87.2074356 77.210083,98.4398575 45.1768188,98.4398575 45.1768188,99.9999161 
		88.8585815,99.9999161 90.4186401,99.9999161 90.4186401,98.4398575 90.4186401,70.9109879 88.8585815,70.9109879 	"/>
</g>
<g id="Windows_1_">
	<polygon id="Windows" class="st2" points="104.3551712,0.9359694 45.9568367,0.9359694 45.4368172,0.9359694 45.4368172,99.219902 
		46.2168465,99.219902 46.2168465,1.7160003 104.3551712,1.7160003 	"/>
	<polygon class="st2" points="102.5871201,10.8683729 55.4155464,10.8683729 54.6541176,10.8683729 54.6355171,10.8683729 
		54.6355171,99.2011871 55.4155464,99.2011871 55.4155464,11.6484041 102.5871201,11.6484041 	"/>
</g>
<g id="Doors">
	<path class="st2" d="M89.4825745,33.6972733c0-0.5720253,0.1040115-1.0400391,0.3120117-1.5600624
		c0.2080078-0.5200138,0.5200272-0.9880295,0.8840485-1.3520489c0.3640137-0.4160194,0.8320313-0.7280273,1.3520508-0.936039
		c0.5200272-0.2080059,1.0400467-0.3120155,1.6120682-0.3120155v4.1601582"/>
	<path class="st2" d="M81.3182602,36.4013824c0-0.5720253-0.1040115-1.0400429-0.3120193-1.5600624
		c-0.2080078-0.5200233-0.5200195-0.9880371-0.8840408-1.3520584c-0.3640213-0.4160194-0.8320389-0.7280273-1.3520584-0.936039
		c-0.5200195-0.208004-1.0400391-0.3120155-1.6120682-0.3120155v4.1601677"/>
	<path class="st2" d="M76.2220459,41.2375755c-0.5720291,0-1.0400467-0.1040001-1.5600662-0.3120155
		c-0.5200195-0.208004-0.9880371-0.5200195-1.3520584-0.8840332c-0.416008-0.3640137-0.7280197-0.8320351-0.9360275-1.3520584
		c-0.2080078-0.5200195-0.3120193-1.0400391-0.3120193-1.6120682h4.1601715"/>
	<path class="st2" d="M77.3660965,87.311409c-0.5720291,0-1.0400391-0.1040039-1.5600662-0.3120117
		c-0.5200195-0.2080078-0.9880295-0.5200195-1.3520508-0.8840408c-0.4160156-0.3640213-0.7280273-0.8320389-0.9360352-1.3520584
		c-0.2080002-0.5200195-0.3120117-1.0400391-0.3120117-1.6120682h4.1601639"/>
	<path class="st2" d="M80.9542389,87.5714188c0-0.5720215,0.1040115-1.0400391,0.3120117-1.5600586
		c0.2080078-0.5200195,0.5200195-0.9880371,0.8840408-1.3520584c0.3640213-0.416008,0.8320389-0.7280273,1.3520584-0.9360275
		c0.5200195-0.2080078,1.0400391-0.3120193,1.6120682-0.3120193v4.1601639"/>
	<path class="st2" d="M90.3666153,65.7969437c0.6760178,0,1.3000488,0.1560059,1.9240799,0.4160156
		s1.2480469,0.6240234,1.7160645,1.144043c0.4680176,0.4680176,0.8840408,1.0400467,1.1440506,1.6640701
		s0.4160156,1.3000488,0.4160156,1.9760818h-5.2002106"/>
</g>
</g></svg>
