<?xml version="1.0" encoding="utf-8"?>
<!-- DO NOT EDIT THIS, THIS FILE IS GENERATED FROM "1_2_6.original.svg" using transform-svgs.js script -->
<!-- Generator: Adobe Illustrator 24.2.0, SVG Export Plug-In . SVG Version: 6.00 Build 0)  -->
<!DOCTYPE svg PUBLIC "-//W3C//DTD SVG 1.1//EN" "http://www.w3.org/Graphics/SVG/1.1/DTD/svg11.dtd" [
	<!ENTITY ns_extend "http://ns.adobe.com/Extensibility/1.0/">
	<!ENTITY ns_ai "http://ns.adobe.com/AdobeIllustrator/10.0/">
	<!ENTITY ns_graphs "http://ns.adobe.com/Graphs/1.0/">
	<!ENTITY ns_vars "http://ns.adobe.com/Variables/1.0/">
	<!ENTITY ns_imrep "http://ns.adobe.com/ImageReplacement/1.0/">
	<!ENTITY ns_sfw "http://ns.adobe.com/SaveForWeb/1.0/">
	<!ENTITY ns_custom "http://ns.adobe.com/GenericCustomNamespace/1.0/">
	<!ENTITY ns_adobe_xpath "http://ns.adobe.com/XPath/1.0/">
]>
<svg version="1.1" id="Слой_1" xmlns:x="&ns_extend;" xmlns:i="&ns_ai;" xmlns:graph="&ns_graphs;"
	 xmlns="http://www.w3.org/2000/svg" xmlns:xlink="http://www.w3.org/1999/xlink" x="0px" y="0px" viewBox="0 0 150 100"
	 style="enable-background:new 0 0 150 100;" xml:space="preserve"><g transform="translate(29.53524119697946 19.690160797986305) scale(0.6061967840402739)">
<style type="text/css">
	.st0{fill:#DBD4CA;}
	.st1{fill:none;stroke:#565440;}
	.st2{fill:#565440;}
</style>
<metadata>
	<sfw  xmlns="&ns_sfw;">
		<slices></slices>
		<sliceSourceBounds  bottomLeftOrigin="true" height="79.3461533" width="150" x="0" y="10.6000357"></sliceSourceBounds>
	</sfw>
</metadata>
<polygon id="Floor_1_" class="st0" points="136.8999939,11.1999683 136.3000031,14.1999683 120.5999985,14.0999689 
	118.5999985,13.3999681 118.2254486,13.9243431 107.993866,11.1999683 108,14.3953638 1.2,14.3953638 1.2,34.1999664 
	89.5981598,34.1999664 89.6981583,68.899971 89.1999969,68.899971 89.2254639,89.1699753 135.3254547,89.1699753 
	135.1999969,72.1999664 138.6000061,72.1999664 138.6000061,63.4999657 141.3999939,63.4999657 141.3999939,63.7999649 
	149.8999939,63.7999649 149.8999939,14.099968 "/>
<g id="Windows_1_">
	<path class="st1" d="M136.8000031,11.1999683l10.8000031,2.5l-0.1999969,0.8000002l-10.8000031-2.5L136.8000031,11.1999683z"/>
	<path class="st1" d="M107.9000015,48.8999672h0.8000031v16.1000023h-0.8000031V48.8999672z"/>
	<polygon class="st1" points="118.6999969,13.4999685 107.9000015,10.6999683 107.9000015,14.2999687 1.3,14.2999687 
		0.5,14.2999687 0.5,15.0999689 0.5,33.3999672 0.5,33.3999672 0.5,34.1999664 89.6999969,34.1999664 89.6999969,69.4999695 
		90.5,69.4999695 90.5,34.1999664 90.5,33.8999672 90.5,33.3999672 1.3,33.3999672 1.3,15.0999689 107.9000015,15.0999689 
		107.9000015,26.899971 108.8000031,26.899971 108.8000031,11.7999687 118.5,14.2999687 	"/>
</g>
<g id="Walls_1_">
	<path class="st2" d="M148.3000031,13.4999685H150V63.899971h-1.6999969V13.4999685z"/>
	<path class="st2" d="M147.1999969,62.1999664h1.1000061v1.7000008h-1.1000061V62.1999664z"/>
	<path class="st2" d="M137.3000031,62.1999664h4.3999939v1.7000008h-4.3999939V62.1999664z"/>
	<path class="st2" d="M137.3000031,63.7999649H139v8.9000015h-1.6999969V63.7999649z"/>
	<path class="st2" d="M135.6000061,70.9999695h1.6999969v1.6999969h-1.6999969V70.9999695z"/>
	<path class="st2" d="M133.8999939,70.9999695h1.6999969v18.3000031h-1.6999969V70.9999695z"/>
	<path class="st2" d="M107.4000015,64.399971h3.9000015v24.9000015h-3.9000015V64.399971z"/>
	<path class="st2" d="M107.4000015,21.7999706h5v27.699995h-5V21.7999706z"/>
	<path class="st2" d="M105.6999969,22.2999706h1.6999969v1.7000008h-1.6999969V22.2999706z"/>
	<path class="st2" d="M105.6999969,30.5999718h1.6999969v1.6999931h-1.6999969V30.5999718z"/>
	<path class="st2" d="M105.6999969,38.8999672h1.6999969v1.7000008h-1.6999969V38.8999672z"/>
	<path class="st2" d="M105.6999969,47.7999649h1.6999969v1.7000008h-1.6999969V47.7999649z"/>
	<path class="st2" d="M105.6999969,64.399971h1.6999969v1.6999969h-1.6999969V64.399971z"/>
	<path class="st2" d="M105.6999969,73.2999725h1.6999969v1.6999969h-1.6999969V73.2999725z"/>
	<path class="st2" d="M105.6999969,56.0999641h3.9000015v1.7000008h-3.9000015V56.0999641z"/>
	<path class="st2" d="M118.4000015,13.9999685h18.7999954v1.6999998h-18.8000031
		C118.4000015,15.6999683,118.4000015,13.9999685,118.4000015,13.9999685z"/>
	<path class="st2" d="M118.5999985,13.0999689l3.5999985,1.3999996l-0.5999985,1.500001L118,14.5999689L118.5999985,13.0999689z"/>
	<path class="st2" d="M136.6000061,10.9999685l1.6000061,0.3999996l-1,4.3000002l-1.6000061-0.3999996L136.6000061,10.9999685z"/>
	<path class="st2" d="M119.5999985,15.6999683H123.5v1.7000027h-3.9000015V15.6999683z"/>
	<path class="st2" d="M146.1000061,13.4999685h2.1999969v3.9000025h-2.1999969V13.4999685z"/>
	<path class="st2" d="M90.8000031,80.4999695h16.5999985v0.5H90.8000031V80.4999695z"/>
	<path class="st2" d="M90.8000031,68.7999725h-1.6999969v20.5h1.6999969V68.7999725z"/>
	<path class="st2" d="M89.3000031,87.6999664v1.6999969h46.3000031v-1.6999969H89.3000031z"/>
	<path class="st2" d="M129.5,15.6999683h0.5v22.6999989h-0.5V15.6999683z"/>
	<path class="st2" d="M129.5,42.7999649h0.5v6.0999985h-0.5V42.7999649z"/>
	<path class="st2" d="M122.9000015,36.6999664h0.5v12.2000008h-0.5V36.6999664z"/>
	<path class="st2" d="M116.8000031,75.4999695h0.5v3.3000031h-0.5V75.4999695z"/>
	<path class="st2" d="M111.3000031,75.4999695h1.0999985v0.5h-1.0999985V75.4999695z"/>
	<path class="st2" d="M124,84.2999725h0.5v3.9000015H124V84.2999725z"/>
	<path class="st2" d="M124,79.2999725h0.5v0.5H124V79.2999725z"/>
	<path class="st2" d="M135.6000061,36.1999664h12.6999969v0.5h-12.6999969V36.1999664z"/>
	<path class="st2" d="M130.1000061,36.1999664h1.1000061v0.5h-1.1000061V36.1999664z"/>
	<path class="st2" d="M121.8000031,36.1999664H123.5v0.5h-1.6999969V36.1999664z"/>
	<path class="st2" d="M111.3000031,36.1999664h6.0999985v0.5h-6.0999985V36.1999664z"/>
	<path class="st2" d="M137.3000031,36.6999664h0.5v5.5h-0.5V36.6999664z"/>
	<path class="st2" d="M137.3000031,46.6999664h0.5v5h-0.5V46.6999664z"/>
	<path class="st2" d="M133.3999939,62.1999664h3.8999939v0.5h-3.8999939V62.1999664z"/>
	<path class="st2" d="M137.8000031,51.0999641h10.5v0.5h-10.5V51.0999641z"/>
	<path class="st2" d="M111.3000031,48.8999672h18.8000031v0.5h-18.8000031V48.8999672L111.3000031,48.8999672z"/>
	<path class="st2" d="M116.8000031,78.7999725H134v0.5h-17.1999969V78.7999725z"/>
</g>
<path id="Doors" class="st1" d="M135.6000061,36.1999664c0-0.5999985-0.1000061-1.0999985-0.3000031-1.5999985s-0.5-1-1-1.5
	c-0.3999939-0.4000015-0.8999939-0.7000008-1.3999939-1c-0.5-0.199995-1.1000061-0.2999935-1.6999969-0.2999935v4.3999958
	 M129.5,38.3999672c-0.6000061,0-1.1000061,0.0999985-1.5999985,0.2999992c-0.5,0.2000008-1,0.5-1.5,1
	c-0.4000015,0.4000015-0.6999969,0.9000015-1,1.4000015c-0.1999969,0.5-0.3000031,1.0999985-0.3000031,1.7000008H129.5
	 M137.3000031,46.6999664c-0.6000061,0-1.1000061-0.0999985-1.6000061-0.2999992s-1-0.5-1.5-1
	c-0.3999939-0.4000015-0.6999969-0.9000015-1-1.4000015c-0.1999969-0.5-0.3000031-1.0999985-0.3000031-1.7000008h4.3999939
	 M117.3000031,36.6999664c0,0.5999985,0.0999985,1.0999985,0.3000031,1.5999985c0.1999969,0.5,0.5,1,1,1.5
	c0.4000015,0.4000015,0.9000015,0.7000008,1.4000015,1c0.5,0.2000008,1.0999985,0.2999992,1.6999969,0.2999992v-4.4000015
	 M124,84.2999725c-0.5999985,0-1.0999985-0.0999985-1.5999985-0.3000031c-0.5-0.1999969-1-0.5-1.5-1
	c-0.4000015-0.4000015-0.6999969-0.9000015-1-1.4000015c-0.1999969-0.5-0.3000031-1.0999985-0.3000031-1.6999969H124
	 M141.6999969,62.1999664c0-0.7000008,0.1000061-1.4000015,0.3999939-2
	c0.3000031-0.7000008,0.6999969-1.2999992,1.1999969-1.7999992s1.1000061-0.9000015,1.8000031-1.2000008
	s1.3999939-0.4000015,2.1000061-0.4000015v5.5 M116.8000031,75.4999695c0-0.5599976-0.0800095-1.1999969-0.3199997-1.6799927
	c-0.2399979-0.5600052-0.5599976-1.0400009-0.9599915-1.4400024c-0.4000015-0.4000015-0.8800049-0.7200012-1.4400024-0.9599991
	s-1.1199951-0.3199997-1.6800079-0.3199997v4.4000015 M107.9000015,49.9999657c-0.6999969,0-1.4000015,0.0999985-2,0.4000015
	c-0.6999969,0.2999992-1.3000031,0.7000008-1.8000031,1.2000008s-0.9000015,1.0999985-1.1999969,1.7999992
	C102.5999985,54.099968,102.5,54.7999687,102.5,55.4999657h5.5"/>
</g></svg>
