<?xml version="1.0" encoding="utf-8"?>
<!-- DO NOT EDIT THIS, THIS FILE IS GENERATED FROM "1_37_7.original.svg" using transform-svgs.js script -->
<!-- Generator: Adobe Illustrator 24.2.0, SVG Export Plug-In . SVG Version: 6.00 Build 0)  -->
<!DOCTYPE svg PUBLIC "-//W3C//DTD SVG 1.1//EN" "http://www.w3.org/Graphics/SVG/1.1/DTD/svg11.dtd" [
	<!ENTITY ns_extend "http://ns.adobe.com/Extensibility/1.0/">
	<!ENTITY ns_ai "http://ns.adobe.com/AdobeIllustrator/10.0/">
	<!ENTITY ns_graphs "http://ns.adobe.com/Graphs/1.0/">
	<!ENTITY ns_vars "http://ns.adobe.com/Variables/1.0/">
	<!ENTITY ns_imrep "http://ns.adobe.com/ImageReplacement/1.0/">
	<!ENTITY ns_sfw "http://ns.adobe.com/SaveForWeb/1.0/">
	<!ENTITY ns_custom "http://ns.adobe.com/GenericCustomNamespace/1.0/">
	<!ENTITY ns_adobe_xpath "http://ns.adobe.com/XPath/1.0/">
]>
<svg version="1.1" id="Слой_1" xmlns:x="&ns_extend;" xmlns:i="&ns_ai;" xmlns:graph="&ns_graphs;"
	 xmlns="http://www.w3.org/2000/svg" xmlns:xlink="http://www.w3.org/1999/xlink" x="0px" y="0px" viewBox="0 0 150 100"
	 style="enable-background:new 0 0 150 100;" xml:space="preserve"><g transform="translate(13.861114704371438 9.240743136247625) scale(0.8151851372750475)">
<style type="text/css">
	.st0{fill:#DBD4CA;}
	.st1{fill:#565440;}
	.st2{fill:none;stroke:#565440;}
	.st3{fill:none;stroke:#565440;stroke-width:1.0000414;stroke-miterlimit:4.0001655;}
</style>
<metadata>
	<sfw  xmlns="&ns_sfw;">
		<slices></slices>
		<sliceSourceBounds  bottomLeftOrigin="true" height="100.0343399" width="69.7415085" x="40.2336998" y="-0.031167">
			</sliceSourceBounds>
	</sfw>
</metadata>
<polygon id="Floor" class="st0" points="40.2588844,96.359024 40.2588844,44.3741417 58.009819,44.3741417 58.009819,-0.0031715 
	106.8248901,-0.0031715 106.8248901,2.5326762 109.365509,3.6501982 106.1349716,15.211915 106.1349716,22.4613609 
	109.4478531,23.7668705 106.3558273,35.509201 106.4083633,44.9889679 109.5107651,45.8546181 106.3006134,57.3742332 
	106.2822113,64.2171478 109.6687088,65.4723892 106.399231,77.4171753 106.399231,84.6507568 109.2227402,85.6214142 
	106.399231,99.0429459 93.2331314,96.5950928 85.9669037,96.5398788 85.2638016,99.2752533 83.8295898,99.2752533 
	67.0981598,95.7250595 67.1533737,96.4859009 60.1134987,96.4859009 59.6165657,98.5840607 58.6437798,98.4920349 
	58.3901978,99.0809937 48.1779137,96.504303 47.9754601,96.914299 46.5351028,96.375473 "/>
<g id="Walls">
	<polygon class="st1" points="63.9646912,74.9365234 65.0671005,74.9365234 65.0671005,74.3020248 63.9646912,74.3020248 
		63.9646912,72.7791824 63.3301353,72.7791824 63.3301353,93.2106628 58.6347084,93.2106628 58.6347084,95.8122025 
		57.9367371,98.9213104 59.7768326,99.3655014 60.3038521,97.0177994 68.7870102,97.0177994 68.7870102,93.2106628 
		63.9646912,93.2106628 	"/>
	<polygon class="st1" points="85.2844467,74.3020248 80.5890198,74.3020248 80.5890198,73.5406418 79.9545212,73.5406418 
		79.9545212,74.3020248 70.3732681,74.3020248 70.3732681,74.9365234 84.6499481,74.9365234 84.6499481,97.0120468 
		84.0788498,99.5558624 85.9190216,100 86.5884399,97.0177994 94.1677322,97.0177994 94.1677322,93.2106628 85.2844467,93.2106628 	
		"/>
	<polygon class="st1" points="53.8758278,61.7386093 53.8758278,62.3731232 63.3301353,62.3731232 63.3301353,67.4492569 
		63.9646912,67.4492569 63.9646912,62.3731232 72.5940857,62.3731232 72.5940857,66.1801987 73.2286377,66.1801987 
		73.2286377,59.3274307 72.5940857,59.3274307 72.5940857,61.7386093 56.9849739,61.7386093 56.9849739,46.3198204 
		72.5940857,46.3198204 72.5940857,54.0609207 73.2286377,54.0609207 73.2286377,41.8147545 72.5940857,41.8147545 
		72.5940857,45.6853027 59.9037209,45.6853027 59.9037209,35.8502731 72.5940857,35.8502731 72.5940857,36.9289055 
		73.2286377,36.9289055 73.2286377,35.8502731 73.2286377,35.2157745 73.2286377,26.2690659 72.5940857,26.2690659 
		72.5940857,35.2157745 59.9037209,35.2157745 59.9037209,27.1574059 58.0002136,27.1574059 58.0002136,44.4162521 
		40.2336998,44.4162521 40.2336998,97.0812759 46.7784004,97.0812759 48.3555412,97.461937 49.0535126,94.352829 
		47.2134171,93.9086914 43.4062805,93.9086914 43.4062805,62.3731232 48.9265671,62.3731232 48.9265671,61.7386093 
		43.4062805,61.7386093 43.4062805,46.3198204 56.3504791,46.3198204 56.3504791,61.7386093 	"/>
	<polygon class="st1" points="59.9037209,16.5609818 66.6295853,16.5609818 66.6295853,15.9264174 59.9037209,15.9264174 
		59.9037209,1.9035681 72.5940857,1.9035681 72.5940857,15.9264174 71.5154343,15.9264174 71.5154343,16.5609818 
		73.2286377,16.5609818 73.2286377,1.9035681 103.042717,1.9035681 103.0421524,3.4142151 106.208847,3.4142151 
		109.3180161,4.1121264 109.762207,2.2720997 106.843399,1.6167798 106.8392487,0 58.0002136,0 58.0002136,20.3045769 
		59.9037209,20.3045769 	"/>
	<polygon class="st1" points="106.8586807,44.3518829 106.8586807,34.2012978 106.843399,34.2012978 106.843399,34.2003441 
		103.0421524,34.2003441 103.0415649,44.3528938 79.9545212,44.3528938 79.9545212,47.7791748 80.5890198,47.7791748 
		80.5890198,46.2564049 107.7448502,46.2554512 109.3197861,46.6368713 109.3200607,46.6356659 109.3220901,46.6361732 
		109.766304,44.7960777 107.9262085,44.3518829 	"/>
	<polygon class="st1" points="106.843399,75.650528 103.0362625,75.650528 103.0362625,86.3328476 106.4916229,86.3328476 
		109.3180161,86.9673691 109.762207,85.1271896 106.843399,84.4720001 	"/>
	<polygon class="st1" points="106.843399,56.8436394 107.224144,55.2663841 104.114975,54.5683365 103.6855927,56.4085083 
		103.6707611,56.4085083 103.6707611,66.8147583 80.5890198,66.8147583 80.5890198,53.1725121 79.9545212,53.1725121 
		79.9545212,68.1472397 80.5890198,68.1472397 80.5890198,67.4492569 105.5743484,67.4492569 105.5743484,65.6351013 
		106.4916229,65.6351013 109.3180161,66.2695923 109.762207,64.4294968 106.843399,63.7742462 	"/>
	<polygon class="st1" points="106.8237381,15.9175987 107.3313446,13.7179174 104.2387238,13.0198793 103.6676483,15.4311247 
		103.6676483,24.0453758 106.8237381,24.0453758 106.8237381,24.0402012 109.1080475,24.5529842 109.5521851,22.7128887 
		106.8237381,22.1004238 	"/>
</g>
<g id="Doors">
	<path class="st2" d="M70.3732681,74.8731232c0,0.761467-0.1268845,1.332489-0.380722,1.9670486
		c-0.25383,0.634491-0.6345749,1.2690125-1.142128,1.7132034c-0.444191,0.5076065-1.0787048,0.9517441-1.7132034,1.2055969
		c-0.6344986,0.2537766-1.332489,0.380722-2.0939331,0.380722v-5.3299255"/>
	<path class="st2" d="M80.5890198,73.5406418c0.7614594,0,1.332489-0.1268921,2.0304565-0.380722
		c0.6979675-0.2537766,1.2690125-0.6979675,1.776619-1.142128c0.5076141-0.444191,0.9517441-1.0787048,1.2056046-1.776619
		c0.25383-0.6979675,0.3807144-1.332489,0.3807144-2.0938721h-5.3933945"/>
	<path class="st2" d="M80.5890198,53.1725731c0.7614594,0,1.332489-0.1268883,2.0304565-0.380722
		c0.6979675-0.2537766,1.2690125-0.6979713,1.776619-1.142128c0.5076141-0.4441528,0.9517441-1.0786324,1.2056046-1.776619
		c0.25383-0.6979713,0.3807144-1.332489,0.3807144-2.0938721h-5.3933945"/>
	<path class="st2" d="M63.4570236,72.7791824c-0.7614632,0-1.3324852-0.1269531-2.0304565-0.380722
		c-0.6979675-0.2538376-1.2690125-0.6979752-1.7766228-1.142128c-0.5076065-0.4441986-0.9517441-1.0787125-1.2055969-1.776619
		c-0.2538338-0.6979752-0.380722-1.332489-0.380722-2.0939331h5.3933983"/>
	<path class="st2" d="M72.5940857,54.0609207c-0.6979675,0-1.332489,0.1268883-1.96698,0.380722
		c-0.6344986,0.2538338-1.2690735,0.6344948-1.7132111,1.1421242c-0.5076065,0.4441948-0.9517441,1.0787125-1.2055969,1.7132072
		c-0.2538376,0.6344986-0.380722,1.332489-0.380722,2.0304565h5.26651"/>
	<path class="st2" d="M48.9265671,62.1827431c0,0.6344986,0.1269455,1.2690735,0.3807182,1.8400993
		c0.2538338,0.5710754,0.5710831,1.2055969,1.0787125,1.6497345c0.4441948,0.444191,1.0152359,0.824852,1.586319,1.0787048
		c0.5710831,0.2538376,1.2690125,0.380722,1.9035683,0.380722v-4.9492607"/>
	<path class="st2" d="M66.6295853,15.9264755c0-0.697979,0.1268845-1.2055883,0.380722-1.8400946
		c0.25383-0.6345072,0.6345749-1.1421156,1.0152359-1.5863199c0.4441986-0.5076189,0.9517441-0.88834,1.586319-1.078701
		c0.6344986-0.2537756,1.2055969-0.3807316,1.9035721-0.3807316v4.8857794"/>
	<path class="st2" d="M58.0002136,20.2411728c-0.8883514,0-1.7766228,0.190361-2.6015587,0.5710907
		c-0.8248596,0.3807316-1.6497345,0.8248672-2.2842903,1.5228481c-0.6344948,0.6345062-1.2055969,1.3959579-1.5228462,2.2208252
		c-0.380722,0.8248672-0.5710831,1.77668-0.5710831,2.6649628h6.9797173"/>
	<path class="st2" d="M72.5940857,36.9289055c-0.6344986,0-1.2055969,0.1268883-1.8400955,0.380722
		c-0.5710831,0.2537766-1.2055969,0.5710831-1.586319,1.0787086c-0.4441986,0.4441376-0.8248596,0.9517479-1.0787125,1.5862617
		c-0.2537766,0.5710831-0.380722,1.2056007-0.380722,1.8400955h4.885788"/>
</g>
<g id="Windows">
	<path class="st2" d="M48.4824295,95.5584259l9.8984451,2.2842331l-0.190361,0.9517441l-9.8984451-2.2842941L48.4824295,95.5584259z
		"/>
	<path class="st2" d="M68.5331726,94.7969818l16.0533066,3.680191l-0.190361,0.9517441l-16.0533066-3.680191L68.5331726,94.7969818z
		"/>
	<polygon class="st2" points="109.0789108,86.5482559 108.1271057,86.3578949 105.5256119,97.9695435 90.2337112,94.9238739 
		90.1068192,95.8756714 106.2870178,99.1117249 106.3504868,98.6675339 	"/>
	
		<rect x="101.7506256" y="28.7281113" transform="matrix(0.2514896 -0.96786 0.96786 0.2514896 52.1729393 125.8687973)" class="st3" width="11.4261093" height="0.950449"/>
	
		<rect x="101.7524796" y="70.3861618" transform="matrix(0.2514896 -0.96786 0.96786 0.2514896 11.855134 157.0520477)" class="st3" width="11.426033" height="0.9504623"/>
	
		<rect x="101.7514572" y="50.7208214" transform="matrix(0.2514896 -0.96786 0.96786 0.2514896 30.8876934 142.3313751)" class="st3" width="11.4261093" height="0.9504585"/>
	
		<rect x="102.391037" y="8.3325996" transform="matrix(0.2514896 -0.96786 0.96786 0.2514896 72.0123215 110.7310486)" class="st3" width="10.4108276" height="0.950449"/>
</g>
</g></svg>
