<?xml version="1.0" encoding="utf-8"?>
<!-- DO NOT EDIT THIS, THIS FILE IS GENERATED FROM "1_37_2.original.svg" using transform-svgs.js script -->
<!-- Generator: Adobe Illustrator 24.2.0, SVG Export Plug-In . SVG Version: 6.00 Build 0)  -->
<!DOCTYPE svg PUBLIC "-//W3C//DTD SVG 1.1//EN" "http://www.w3.org/Graphics/SVG/1.1/DTD/svg11.dtd" [
	<!ENTITY ns_extend "http://ns.adobe.com/Extensibility/1.0/">
	<!ENTITY ns_ai "http://ns.adobe.com/AdobeIllustrator/10.0/">
	<!ENTITY ns_graphs "http://ns.adobe.com/Graphs/1.0/">
	<!ENTITY ns_vars "http://ns.adobe.com/Variables/1.0/">
	<!ENTITY ns_imrep "http://ns.adobe.com/ImageReplacement/1.0/">
	<!ENTITY ns_sfw "http://ns.adobe.com/SaveForWeb/1.0/">
	<!ENTITY ns_custom "http://ns.adobe.com/GenericCustomNamespace/1.0/">
	<!ENTITY ns_adobe_xpath "http://ns.adobe.com/XPath/1.0/">
]>
<svg version="1.1" id="Слой_1" xmlns:x="&ns_extend;" xmlns:i="&ns_ai;" xmlns:graph="&ns_graphs;"
	 xmlns="http://www.w3.org/2000/svg" xmlns:xlink="http://www.w3.org/1999/xlink" x="0px" y="0px" viewBox="0 0 150 100"
	 style="enable-background:new 0 0 150 100;" xml:space="preserve"><g transform="translate(30.068665975542768 20.045777317028513) scale(0.5990844536594297)">
<style type="text/css">
	.st0{fill:#DBD4CA;}
	.st1{fill:none;stroke:#565440;}
	.st2{fill:#565440;}
</style>
<metadata>
	<sfw  xmlns="&ns_sfw;">
		<slices></slices>
		<sliceSourceBounds  bottomLeftOrigin="true" height="100.0062866" width="135.2349701" x="14.5780029" y="-0.0062256">
			</sliceSourceBounds>
	</sfw>
</metadata>
<polygon id="Floor" class="st0" points="14.9202452,1.0380257 14.9202452,99.5410919 135.4226074,99.5410919 135.4226074,2.0834208 
	"/>
<path id="Windows" class="st1" d="M15.2767286,1.3889325h2.0834646v70.1433029h-2.0834646V1.3889325z"/>
<g id="Walls">
	<polygon class="st2" points="14.5822144,41.6204224 14.5822144,51.7764282 21.5270996,51.7764282 21.5270996,50.0031128 
		77.2471924,50.0031128 77.2471924,48.6141357 21.5270996,48.6141357 21.5270996,41.6204224 	"/>
	<polygon class="st2" points="131.2562866,95.8393555 102.3114624,95.8393555 102.3114624,70.456604 100.9224854,70.456604 
		100.9224854,95.8393555 22.928894,95.8393555 22.928894,85.060791 21.5270996,85.060791 21.5270996,70.456604 
		14.5822144,70.456604 14.5822144,85.060791 14.5780029,85.060791 14.5780029,100.0062256 19.8092651,100.0062256 
		22.928894,100.0062256 135.4232178,100.0062256 135.4232178,95.8393555 135.4232178,69.1911621 131.2562866,69.1911621 	"/>
	<polygon class="st2" points="14.5822754,-0.000061 14.5822754,4.1668701 14.5785522,4.1668701 14.5785522,8.598938 
		14.5822144,8.598938 14.5822144,21.5853882 21.5270996,21.5853882 21.5270996,8.598938 22.9295044,8.598938 22.9295044,4.1668701 
		98.9391479,4.1668701 98.9391479,48.6141357 88.3590698,48.6141357 88.3590698,50.0031128 98.9391479,50.0031128 
		100.328125,50.0031128 101.9718628,50.0031128 101.9718628,48.6141357 100.328125,48.6141357 100.328125,4.1668701 
		131.2562866,4.1668701 131.2562866,48.6141357 112.9899292,48.6141357 112.9899292,50.0031128 131.2562866,50.0031128 
		131.2562866,55.2971191 135.4232178,55.2971191 135.4232178,4.1668701 135.4232178,-0.000061 	"/>
</g>
<path id="Doors" class="st1" d="M77.2472076,48.6141281c0-1.5278816,0.2777939-2.7779541,0.8333969-4.1669312
	c0.555603-1.3889732,1.3889999-2.6390457,2.3612518-3.6113472c0.9723053-1.1111641,2.222374-1.9445572,3.611351-2.5001373
	c1.3889771-0.555584,2.7779541-0.8333969,4.3058319-0.8333969v11.1118126 M113.0837402,48.6141281
	c0-1.5278816-0.2778168-2.7779541-0.8333969-4.1669312c-0.5555801-1.3889732-1.3889771-2.6390457-2.3612747-3.6113472
	c-0.9723053-1.1111641-2.222374-1.9445572-3.611351-2.5001373c-1.3889771-0.555584-2.7779541-0.8333969-4.3058319-0.8333969
	v11.1118126 M135.4232025,55.3013725c1.8056488,0,3.4724426,0.4166756,5.1392365,1.1111641
	c1.6667786,0.6944885,3.3335266,1.66679,4.5836029,3.0557671c1.2500763,1.2500687,2.3612823,2.7779503,3.0557709,4.4447403
	s1.1111603,3.4724388,1.1111603,5.2780952h-13.8897705"/>
</g></svg>
