<?xml version="1.0" encoding="utf-8"?>
<!-- DO NOT EDIT THIS, THIS FILE IS GENERATED FROM "1_37_5.original.svg" using transform-svgs.js script -->
<!-- Generator: Adobe Illustrator 24.2.0, SVG Export Plug-In . SVG Version: 6.00 Build 0)  -->
<!DOCTYPE svg PUBLIC "-//W3C//DTD SVG 1.1//EN" "http://www.w3.org/Graphics/SVG/1.1/DTD/svg11.dtd" [
	<!ENTITY ns_extend "http://ns.adobe.com/Extensibility/1.0/">
	<!ENTITY ns_ai "http://ns.adobe.com/AdobeIllustrator/10.0/">
	<!ENTITY ns_graphs "http://ns.adobe.com/Graphs/1.0/">
	<!ENTITY ns_vars "http://ns.adobe.com/Variables/1.0/">
	<!ENTITY ns_imrep "http://ns.adobe.com/ImageReplacement/1.0/">
	<!ENTITY ns_sfw "http://ns.adobe.com/SaveForWeb/1.0/">
	<!ENTITY ns_custom "http://ns.adobe.com/GenericCustomNamespace/1.0/">
	<!ENTITY ns_adobe_xpath "http://ns.adobe.com/XPath/1.0/">
]>
<svg version="1.1" id="Слой_1" xmlns:x="&ns_extend;" xmlns:i="&ns_ai;" xmlns:graph="&ns_graphs;"
	 xmlns="http://www.w3.org/2000/svg" xmlns:xlink="http://www.w3.org/1999/xlink" x="0px" y="0px" viewBox="0 0 150 100"
	 style="enable-background:new 0 0 150 100;" xml:space="preserve"><g transform="translate(16.168890820438545 10.77926054695903) scale(0.7844147890608194)">
<style type="text/css">
	.st0{fill:#DBD4CA;}
	.st1{fill:#565440;}
	.st2{fill:none;stroke:#565440;}
</style>
<metadata>
	<sfw  xmlns="&ns_sfw;">
		<slices></slices>
		<sliceSourceBounds  bottomLeftOrigin="true" height="99.9965973" width="73.3845291" x="38.3466263" y="0"></sliceSourceBounds>
	</sfw>
</metadata>
<path id="Floor" class="st0" d="M38.3466263,99.9954453c0,0.1574631,0-93.9507599,0-93.9507599h4.5985832l1.5070686-5.2297506
	l17.3636742,4.4194312h23.9999962l1.4225998-4.1264062l1.6022797,0.4120144V0.5701965l21.2796783,5.1138153l-2.524704,11.1808624
	v16.9516163v12.9842262l3.5165558,1.1721954l-4.5084076,17.700573v9.0848465l4.5084076,1.1667252l-3.9467163,17.2111511v6.8637695"
	/>
<g id="Walls">
	<polygon class="st1" points="41.0606804,77.4579315 50.0775414,77.4579315 50.0775414,76.5562668 41.0606804,76.5562668 
		41.0606804,63.9326591 59.0943489,63.9326591 59.0943489,76.5562668 57.2910156,76.5562668 57.2910156,77.4579315 
		59.9960823,77.4579315 59.9960823,76.5562668 59.9960823,46.8006516 59.0943489,46.8006516 59.0943489,63.0309982 
		41.0606804,63.0309982 41.0606804,38.6855164 59.0943489,38.6855164 59.0943489,39.5872765 59.9960823,39.5872765 
		59.9960823,38.6855164 60.8977623,38.6855164 60.8977623,37.7838593 41.0606804,37.7838593 41.0606804,7.1266656 
		43.7657509,7.1266656 45.2084274,0.9951718 42.5935555,0.3640279 41.638813,4.4215922 41.0606804,4.4215922 38.3556938,4.4215922 
		38.3556938,87.3764725 41.0606804,87.3764725 	"/>
	<polygon class="st1" points="77.1280136,46.8006516 76.2263641,46.8006516 76.2263641,48.1335373 69.9145432,48.1335373 
		69.9145432,49.0337486 107.7669601,49.0278511 111.0130844,49.7565498 111.64431,47.1415825 107.7669601,46.2712288 
		107.7669601,32.9205513 102.373436,32.9205513 102.373436,48.1335373 77.1280136,48.1335373 	"/>
	<polygon class="st1" points="76.2263641,37.7838593 68.1112366,37.7838593 68.1112366,38.6855164 76.2263641,38.6855164 
		76.2263641,39.5872765 77.1280136,39.5872765 77.1280136,38.6855164 77.1280136,37.7838593 77.1280136,8.9299889 
		77.5174179,8.9299889 77.5174179,8.9309855 88.8525238,8.9309855 88.8525238,8.9108381 88.9426117,8.9309855 90.7460251,0.9961705 
		90.743309,0.995627 90.7433929,0.9951718 86.3252182,0.0034 85.3210144,4.4215922 77.1280136,4.4215922 57.2910156,4.4215922 
		57.2910156,7.1266656 76.2263641,7.1266656 	"/>
	<polygon class="st1" points="107.7669601,65.823555 108.4884109,62.6976814 104.0935211,61.7057266 103.2819901,65.1322403 
		103.2819901,76.9071884 107.7669601,76.9071884 107.7669601,76.8998413 111.0130844,77.62854 111.64431,75.0135727 
		107.7669601,74.1432266 	"/>
	<polygon class="st1" points="102.3651581,97.2950134 41.0606804,97.2950134 41.0606804,96.393364 38.3556938,96.393364 
		38.3556938,97.2950134 38.3556938,100 107.7669601,100 107.7669601,91.4607162 102.3651581,91.4607162 	"/>
</g>
<path id="Doors" class="st2" d="M50.0775414,76.5562668c0-0.9918594,0.1803131-1.8034058,0.5410233-2.7050705
	c0.36063-0.9016647,0.9016533-1.7132111,1.5329056-2.3443527c0.6311417-0.7213516,1.4427071-1.2623825,2.3443604-1.6230087
	c0.9017639-0.3607178,1.8034134-0.5410309,2.7952652-0.5410309v7.2134628 M59.0943489,46.8007393
	c-0.9918518,0-1.8033333-0.1803131-2.7050705-0.5410309c-0.9016533-0.3607178-1.7132187-0.9016609-2.3443604-1.5328979
	c-0.7213364-0.6311455-1.2623901-1.4426918-1.6230164-2.3443527c-0.360714-0.9016571-0.5410271-1.8034096-0.5410271-2.7951813
	h7.2134743 M60.8977623,37.7838593c0-0.9918671,0.1803169-1.8034096,0.5410271-2.7050781
	c0.3606262-0.9016609,0.9016533-1.7132111,1.5329056-2.3443527c0.6311378-0.721344,1.4427032-1.2623768,2.3443604-1.6230049
	c0.9017563-0.3607178,1.8034134-0.5410309,2.7952652-0.5410309v7.2134666 M77.1280136,39.5872765
	c0.9918518,0,1.8033371,0.1803131,2.7050705,0.5410309s1.7132187,0.9016571,2.3443604,1.5328979
	c0.7213364,0.6311455,1.2623901,1.4426918,1.6230164,2.3443489c0.3606262,0.9016609,0.5410233,1.8034096,0.5410233,2.7951851
	h-7.2134705 M41.0606804,87.3764725c1.1721649,0,2.2542419,0.2705154,3.3362083,0.721344
	c1.082077,0.4508362,2.1640472,1.0820694,2.9755821,1.9837265c0.8115387,0.8115463,1.5329056,1.8033142,1.9837303,2.8853836
	c0.4508286,1.0820618,0.7213402,2.2542419,0.7213402,3.4264221h-9.016777"/>
<g id="Windows">
	<polygon class="st2" points="110.1373825,5.6869678 88.4970474,0.63754 88.226532,1.9900298 108.6045609,6.6788297 
		106.2602005,16.8678875 106.2602005,33.8194923 107.612709,33.8194923 107.612709,16.8678875 	"/>
	<polygon class="st2" points="109.7767258,75.657608 111.1292343,75.9281235 107.5225067,91.70755 106.1699982,91.4370422 	"/>
	<polygon class="st2" points="109.7767258,47.7053986 111.1292343,47.9759102 107.5225067,63.7553368 106.1699982,63.4848213 	"/>
	<polygon class="st2" points="43.2325058,0.817854 60.184124,4.6951027 59.9136963,6.0476861 42.9619942,2.1704338 	"/>
</g>
</g></svg>
