<?xml version="1.0" encoding="utf-8"?>
<!-- DO NOT EDIT THIS, THIS FILE IS GENERATED FROM "1_37_6.original.svg" using transform-svgs.js script -->
<!-- Generator: Adobe Illustrator 24.2.0, SVG Export Plug-In . SVG Version: 6.00 Build 0)  -->
<!DOCTYPE svg PUBLIC "-//W3C//DTD SVG 1.1//EN" "http://www.w3.org/Graphics/SVG/1.1/DTD/svg11.dtd" [
	<!ENTITY ns_extend "http://ns.adobe.com/Extensibility/1.0/">
	<!ENTITY ns_ai "http://ns.adobe.com/AdobeIllustrator/10.0/">
	<!ENTITY ns_graphs "http://ns.adobe.com/Graphs/1.0/">
	<!ENTITY ns_vars "http://ns.adobe.com/Variables/1.0/">
	<!ENTITY ns_imrep "http://ns.adobe.com/ImageReplacement/1.0/">
	<!ENTITY ns_sfw "http://ns.adobe.com/SaveForWeb/1.0/">
	<!ENTITY ns_custom "http://ns.adobe.com/GenericCustomNamespace/1.0/">
	<!ENTITY ns_adobe_xpath "http://ns.adobe.com/XPath/1.0/">
]>
<svg version="1.1" id="Слой_1" xmlns:x="&ns_extend;" xmlns:i="&ns_ai;" xmlns:graph="&ns_graphs;"
	 xmlns="http://www.w3.org/2000/svg" xmlns:xlink="http://www.w3.org/1999/xlink" x="0px" y="0px" viewBox="0 0 150 100"
	 style="enable-background:new 0 0 150 100;" xml:space="preserve"><g transform="translate(28.518951074312998 19.012634049541997) scale(0.61974731900916)">
<style type="text/css">
	.st0{fill:#DBD4CA;}
	.st1{fill:none;stroke:#565440;}
	.st2{fill:none;stroke:#565440;stroke-width:1.0000414;stroke-miterlimit:4.0001655;}
	.st3{fill:#565440;}
</style>
<metadata>
	<sfw  xmlns="&ns_sfw;">
		<slices></slices>
		<sliceSourceBounds  bottomLeftOrigin="true" height="100.0734177" width="125.9496765" x="4.9101329" y="-0.0733337">
			</sliceSourceBounds>
	</sfw>
</metadata>
<polygon id="Floor_1_" class="st0" points="19.1240864,99.9999084 123.9919815,100.0733337 124.0429459,80.4353333 
	129.4529724,59.9604645 124.2453995,56.8404922 124.2453995,38.5104179 130.0705566,12.3938541 124.1925964,11.4539881 
	124.1925964,-0.0000876 19.1240864,-0.0000876 "/>
<path id="Doors" class="st1" d="M37.8760185,51.5068893c0,1.5068932,0.273941,2.7396927,0.8219528,4.1095505
	c0.5478821,1.3698578,1.3698349,2.602787,2.3288612,3.5616684c0.9588623,1.0959129,2.1918335,1.9178658,3.5615425,2.4657478
	c1.3700027,0.5478859,2.7398376,0.8219757,4.246582,0.8219757V51.5069122 M73.4923401,51.5068893
	c0,1.5068932-0.273941,2.7396927-0.8218231,4.1095505c-0.5480118,1.3698578-1.3698349,2.602787-2.3288651,3.5616684
	c-0.9588623,1.0959129-2.1918335,1.9178658-3.5616684,2.4657478c-1.3698349,0.5478859-2.7397156,0.8219757-4.246582,0.8219757
	V51.5069122 M19.1088715,46.5753899c-1.7808132,0-3.424633-0.4109764-5.0685368-1.0959167
	c-1.6437778-0.6849174-3.2875977-1.6437988-4.5205259-3.0136337c-1.2328014-1.2329483-2.3286958-2.7396927-3.013782-4.3836174
	c-0.6849179-1.6437988-1.0958939-3.4246101-1.0958939-5.2054443h13.6986103"/>
<g id="Windows">
	<polygon class="st1" points="124.1200638,37.7051582 122.1340561,37.1891022 128.0212555,14.4085007 130.0070953,14.9245348 	"/>
	
		<rect x="113.5605469" y="68.3742981" transform="matrix(0.2514896 -0.96786 0.96786 0.2514896 27.0637016 173.7952118)" class="st2" width="24.6682053" height="2.0519567"/>
</g>
<g id="Walls">
	<polygon class="st3" points="23.2183781,4.10955 50.6157684,4.10955 50.6157684,31.0959454 51.9856071,31.0959454 
		51.9856071,4.10955 116.3568726,4.10955 116.3568726,5.3784719 116.3568726,5.3784719 116.3568726,14.2356195 
		123.7922211,14.2356195 129.8964081,15.6057291 129.896698,15.6044874 129.9009399,15.6054554 130.8598022,11.6328135 
		124.5584717,10.2182951 124.5588913,8.911191 124.5591431,8.911191 124.5591431,8.6085548 124.5604019,5.3784719 
		124.5635605,5.3784719 124.5635605,4.1094027 124.5635605,1.8991232 124.5635605,0 19.1088715,0 19.1088715,32.8767548 
		23.2183781,32.8767548 	"/>
	<polygon class="st3" points="124.5544739,83.9990082 124.5500565,83.9990082 124.5500565,80.6787415 116.3614578,80.6787415 
		116.3557739,95.8904495 51.9856071,95.8904495 51.9856071,51.5068893 62.5335693,51.5068893 62.5335693,50.1370354 
		48.8349571,50.1370354 48.8349571,51.5068893 50.6157684,51.5068893 50.6157684,95.8904495 23.2491341,95.8904495 
		23.2183781,51.5068893 37.8760185,51.5068893 37.8760185,50.1370354 23.2183781,50.1370354 23.2183781,46.5752411 
		19.1088715,46.5752411 19.1088715,100 124.5596848,100 124.5587616,97.5050278 124.5596848,97.5050278 124.5596848,95.7529984 
		124.558342,95.7529984 	"/>
	<polygon class="st3" points="124.5244293,54.7276115 124.5244293,41.8672142 125.6203232,37.118103 118.9433975,35.6112099 
		117.7105942,40.816803 117.7105942,50.1347008 73.5015945,50.1399384 73.5015945,51.5097923 117.7105942,51.5046806 
		117.7105942,58.9266319 124.5244293,58.9266319 124.5244293,58.9154625 129.4559326,60.0225258 130.414917,56.0498848 	"/>
</g>
</g></svg>
