<?xml version="1.0" encoding="utf-8"?>
<!-- DO NOT EDIT THIS, THIS FILE IS GENERATED FROM "1_38_3.original.svg" using transform-svgs.js script -->
<!-- Generator: Adobe Illustrator 24.2.0, SVG Export Plug-In . SVG Version: 6.00 Build 0)  -->
<!DOCTYPE svg PUBLIC "-//W3C//DTD SVG 1.1//EN" "http://www.w3.org/Graphics/SVG/1.1/DTD/svg11.dtd" [
	<!ENTITY ns_extend "http://ns.adobe.com/Extensibility/1.0/">
	<!ENTITY ns_ai "http://ns.adobe.com/AdobeIllustrator/10.0/">
	<!ENTITY ns_graphs "http://ns.adobe.com/Graphs/1.0/">
	<!ENTITY ns_vars "http://ns.adobe.com/Variables/1.0/">
	<!ENTITY ns_imrep "http://ns.adobe.com/ImageReplacement/1.0/">
	<!ENTITY ns_sfw "http://ns.adobe.com/SaveForWeb/1.0/">
	<!ENTITY ns_custom "http://ns.adobe.com/GenericCustomNamespace/1.0/">
	<!ENTITY ns_adobe_xpath "http://ns.adobe.com/XPath/1.0/">
]>
<svg version="1.1" id="Слой_1" xmlns:x="&ns_extend;" xmlns:i="&ns_ai;" xmlns:graph="&ns_graphs;"
	 xmlns="http://www.w3.org/2000/svg" xmlns:xlink="http://www.w3.org/1999/xlink" x="0px" y="0px" viewBox="0 0 150 100"
	 style="enable-background:new 0 0 150 100;" xml:space="preserve"><g transform="translate(15.651997866094785 10.43466524406319) scale(0.7913066951187362)">
<style type="text/css">
	.st0{fill:#DBD4CA;}
	.st1{fill:#565440;}
	.st2{fill:none;stroke:#565440;}
</style>
<metadata>
	<sfw  xmlns="&ns_sfw;">
		<slices></slices>
		<sliceSourceBounds  bottomLeftOrigin="true" height="100.029953" width="73.3335724" x="38.3332138" y="0.0000677">
			</sliceSourceBounds>
	</sfw>
</metadata>
<polygon id="Floor" class="st0" points="38.5278931,0.5041734 38.5278931,99.9999313 94.1971741,99.9999313 94.1971741,54.890934 
	111.1521835,54.890934 111.1521835,0.5041734 "/>
<g id="Walls">
	<polygon class="st1" points="70.7842407,53.2779312 70.5940552,53.2779312 70.5940552,52.517189 69.960144,52.517189 
		69.960144,53.2779312 42.3833618,53.2779312 42.3833618,50.1081924 38.5162354,50.1081924 38.5162354,53.2779312 
		38.5162354,55.1797867 70.7842407,55.1797867 	"/>
	<polygon class="st1" points="42.3833618,36.6050797 41.6859741,36.6050797 41.6859741,31.2798862 69.960144,31.2798862 
		69.960144,47.5090103 70.5940552,47.5090103 70.5940552,31.2798862 71.8619385,31.2798862 71.8619385,30.6459751 
		41.6859741,30.6459751 41.6859741,23.1653233 38.5162354,23.1653233 38.5162354,36.6050797 38.5162354,40.3453751 
		38.5162354,41.1061172 42.3833618,41.1061172 	"/>
	<polygon class="st1" points="42.3833618,9.7890406 38.5162354,9.7890406 38.5162354,14.2266626 38.5162354,14.2900782 
		42.3833618,14.2900782 	"/>
	<polygon class="st1" points="57.7249146,3.3861475 71.1011963,3.3861475 71.1011963,0.2164088 57.7249146,0.2164088 
		57.7249146,0.1529932 53.223877,0.1529932 53.223877,4.0201197 57.7249146,4.0201197 	"/>
	<polygon class="st1" points="108.3140259,9.7890406 108.3140259,38.6337051 93.1626587,38.6337051 92.5286865,38.6337051 
		90.7536011,38.6337051 90.7536011,39.2676773 92.5286865,39.2676773 92.5286865,41.1061172 93.1626587,41.1061172 
		93.1626587,39.2676773 108.3140259,39.2676773 108.3140259,53.2779312 94.1769409,53.2779312 93.1626587,53.2779312 
		93.1626587,46.7482681 92.5286865,46.7482681 92.5286865,53.2779312 92.2750854,53.2779312 92.2750854,55.1797867 
		92.2750854,56.0672989 79.4693604,56.0672989 79.4693604,39.2676773 80.1032715,39.2676773 80.7372437,39.2676773 
		85.9356079,39.2676773 85.9356079,38.6337051 80.7372437,38.6337051 80.7372437,37.9363785 80.1032715,37.9363785 
		80.1032715,38.6337051 79.4693604,38.6337051 79.4693604,38.5702896 78.8353882,38.5702896 78.8353882,38.6337051 
		78.8353882,39.2676773 78.8353882,62.2165909 79.4693604,62.2165909 79.4693604,56.7012711 92.2750854,56.7012711 
		92.2750854,69.4436417 79.4693604,69.4436417 79.4693604,67.2248306 78.8353882,67.2248306 78.8353882,78.2555313 
		78.8353882,78.8894424 79.4693604,78.8894424 79.9765015,78.8894424 79.9765015,78.2555313 79.4693604,78.2555313 
		79.4693604,70.0775528 92.2750854,70.0775528 92.2750854,78.2555313 84.4141235,78.2555313 84.4141235,78.8894424 
		92.2750854,78.8894424 92.2750854,79.4599991 94.1769409,79.4599991 94.1769409,55.1797867 111.4837646,55.1797867 
		111.4837646,53.3412857 111.4837646,53.2779312 111.4837646,9.7890406 	"/>
	<polygon class="st1" points="80.1032715,32.8647842 80.7372437,32.8647842 80.7372437,4.0201197 84.6043091,4.0201197 
		84.6043091,3.3861475 97.1564941,3.3861475 97.1564941,0.2164088 84.6043091,0.2164088 84.6043091,0.1529932 80.1032715,0.1529932 
		80.1032715,3.3861475 80.1032715,4.0201197 80.1032715,30.6459751 76.6165771,30.6459751 76.6165771,31.2798862 
		80.1032715,31.2798862 	"/>
	<rect x="38.5162354" y="63.5478897" class="st1" width="3.1697388" height="4.5010376"/>
	<rect x="38.5162354" y="76.987587" class="st1" width="3.8671265" height="4.5010376"/>
	<polygon class="st1" points="92.2750854,90.7443008 83.7167969,90.7443008 83.7167969,91.378273 92.2750854,91.378273 
		92.2750854,98.0980606 78.5817871,98.0980606 78.5817871,91.378273 78.9621582,91.378273 78.9621582,90.7443008 
		78.5817871,90.7443008 77.947876,90.7443008 77.947876,91.378273 77.947876,98.0980606 42.3833618,98.0980606 
		42.3833618,95.8792496 41.6859741,95.8792496 41.6859741,90.2370987 38.5162354,90.2370987 38.5162354,95.8792496 
		38.5162354,96.3864517 38.5162354,99.9999161 41.8761597,99.9999161 42.3833618,99.9999161 94.1769409,99.9999161 
		94.1769409,98.0980606 94.1769409,85.7994766 92.2750854,85.7994766 	"/>
</g>
<g id="Windows">
	<polygon id="Windows_2_" class="st2" points="110.2158661,0.4699826 38.8332138,0.4699826 38.8332138,50.4251556 
		39.7841339,50.4251556 39.7841339,1.4209058 110.2158661,1.4209058 110.2158661,10.1060076 111.1667862,10.1060076 
		111.1667862,0.4699826 	"/>
	<path id="Windows_1_4_" class="st2" d="M38.8332138,54.8627968h0.9509201v35.8180962h-0.9509201V54.8627968z"/>
</g>
<g id="Doors">
	<path class="st2" d="M78.8987732,67.3515854c-0.6973419,0-1.2678909-0.1267853-1.9018402-0.3803711
		c-0.6339493-0.2535782-1.2044983-0.6339493-1.6482773-1.077713c-0.5071487-0.4437637-0.8875198-1.0143204-1.141098-1.6482697
		c-0.2535706-0.6339493-0.3803711-1.2678986-0.3803711-1.9652443h5.1349869"/>
	<path class="st2" d="M84.667717,78.6358795c0,0.6973495-0.1268005,1.2678986-0.3803787,1.9018478
		c-0.2535706,0.6339493-0.6339417,1.2044983-1.0777206,1.6482697c-0.4437714,0.5071564-1.0143204,0.8875198-1.6482697,1.1411057
		c-0.6339493,0.2535782-1.2678986,0.3803787-1.9652405,0.3803787v-5.1349945"/>
	<path class="st2" d="M84.097168,90.8076706c0-0.6973419-0.1268005-1.2678833-0.3803787-1.9018326
		c-0.2535706-0.6339493-0.6339493-1.2044983-1.0777206-1.6482697c-0.4437714-0.507164-1.0143204-0.8875275-1.6482697-1.1411133
		c-0.6339493-0.2535706-1.2678986-0.3803711-1.9652405-0.3803711v5.1349716"/>
	<path class="st2" d="M94.1135483,85.7994919c0.8241272,0,1.5848694-0.1901855,2.3456192-0.507164
		c0.7607422-0.3169708,1.5214691-0.7607346,2.0920258-1.3946838c0.570549-0.570549,1.0777206-1.2678986,1.3946915-2.0286331
		c0.3169785-0.7607346,0.5071487-1.5848694,0.5071487-2.4090042H94.050148"/>
	<path class="st2" d="M71.6083679,30.836134c0-0.6973476,0.1267929-1.2678967,0.3803711-1.9018459
		s0.6339493-1.2044983,1.0777206-1.6482716c0.4437714-0.5071602,1.0143204-0.8875237,1.6482697-1.1411095
		c0.6339493-0.2535763,1.2678986-0.380373,1.9652481-0.380373v5.1349888"/>
	<path class="st2" d="M80.1032944,37.9363556c-0.6973495,0-1.2678986-0.1267891-1.9018478-0.3803749
		c-0.6339493-0.2535744-1.2044983-0.6339455-1.6482697-1.0777092c-0.5071487-0.4437637-0.8875275-1.0143204-1.141098-1.6482697
		c-0.2535782-0.6339493-0.3803711-1.2678986-0.3803711-1.9652481h5.1349869"/>
	<path class="st2" d="M70.0234909,52.5805779c-0.6973419,0-1.2678986-0.1267891-1.9018478-0.3803749
		c-0.6339417-0.2535744-1.2045059-0.6339493-1.6482773-1.0777092c-0.507164-0.4437637-0.8875275-1.0143242-1.1411133-1.6482697
		c-0.2535706-0.6339493-0.3803711-1.2678986-0.3803711-1.9652481h5.1349945"/>
	<path class="st2" d="M85.8722153,38.8872795c0-0.6973495,0.1267929-1.2678986,0.3803711-1.9018478
		s0.6339493-1.2044983,1.0777206-1.6482697c0.4437714-0.5071602,1.0143204-0.8875237,1.6482697-1.1411095
		s1.2678986-0.3803749,1.9652481-0.3803749v5.1349907"/>
</g>
</g></svg>
