<?xml version="1.0" encoding="utf-8"?>
<!-- DO NOT EDIT THIS, THIS FILE IS GENERATED FROM "1_4-6_7.original.svg" using transform-svgs.js script -->
<!-- Generator: Adobe Illustrator 24.2.0, SVG Export Plug-In . SVG Version: 6.00 Build 0)  -->
<!DOCTYPE svg PUBLIC "-//W3C//DTD SVG 1.1//EN" "http://www.w3.org/Graphics/SVG/1.1/DTD/svg11.dtd" [
	<!ENTITY ns_extend "http://ns.adobe.com/Extensibility/1.0/">
	<!ENTITY ns_ai "http://ns.adobe.com/AdobeIllustrator/10.0/">
	<!ENTITY ns_graphs "http://ns.adobe.com/Graphs/1.0/">
	<!ENTITY ns_vars "http://ns.adobe.com/Variables/1.0/">
	<!ENTITY ns_imrep "http://ns.adobe.com/ImageReplacement/1.0/">
	<!ENTITY ns_sfw "http://ns.adobe.com/SaveForWeb/1.0/">
	<!ENTITY ns_custom "http://ns.adobe.com/GenericCustomNamespace/1.0/">
	<!ENTITY ns_adobe_xpath "http://ns.adobe.com/XPath/1.0/">
]>
<svg version="1.1" id="Слой_1" xmlns:x="&ns_extend;" xmlns:i="&ns_ai;" xmlns:graph="&ns_graphs;"
	 xmlns="http://www.w3.org/2000/svg" xmlns:xlink="http://www.w3.org/1999/xlink" x="0px" y="0px" viewBox="0 0 150 100"
	 style="enable-background:new 0 0 150 100;" xml:space="preserve"><g transform="translate(15.019927613748486 10.013285075832323) scale(0.7997342984833535)">
<style type="text/css">
	.st0{fill:#DBD4CA;}
	.st1{fill:none;stroke:#565440;}
	.st2{fill:#565440;}
</style>
<metadata>
	<sfw  xmlns="&ns_sfw;">
		<slices></slices>
		<sliceSourceBounds  bottomLeftOrigin="true" height="100" width="73.3701019" x="38.3453445" y="0"></sliceSourceBounds>
	</sfw>
</metadata>
<polygon id="Floor_2_" class="st0" points="42.7916718,5.5555453 44.1288338,1.0564746 60.8318748,4.7138672 87.3435593,4.7374563 
	88.5138931,0.7222144 110.1805573,5.7222137 107.6250076,16.8888798 107.3865051,47.2777596 110.9332123,48.6195297 
	107.1426392,65.896965 105.6805496,75.4999771 110.9332123,76.884697 107.2208557,92.9705887 105.8472214,98.6666489 
	38.4027863,98.6666489 38.4027863,5.5555453 "/>
<path id="Doors" class="st1" d="M50.0894508,76.5545273c0-0.9918976,0.1803207-1.8034744,0.5410423-2.7051697
	c0.3606377-0.9016876,0.90168-1.7132645,1.5329514-2.3444214c0.6311607-0.7213745,1.4427528-1.2624207,2.3444366-1.6230621
	c0.9017906-0.3607254,1.8034744-0.5410461,2.7953568-0.5410461v7.2136993 M59.1065483,46.7980309
	c-0.9918861,0-1.8033943-0.1803207-2.7051582-0.54105s-1.7132721-0.9016914-2.3444328-1.5329475
	c-0.7213631-0.6311684-1.2624321-1.4427376-1.6230736-2.344429c-0.3607216-0.9016876-0.5410423-1.8034668-0.5410423-2.7952728
	h7.213707 M60.9100227,37.7809525c0-0.9918976,0.1803169-1.8034668,0.5410423-2.705162
	c0.3606377-0.9016876,0.90168-1.7132683,1.5329514-2.344429c0.6312447-0.7213669,1.4427567-1.2624168,2.3444366-1.6230564
	s1.8033905-0.54105,2.7952728-0.54105v7.2136974 M77.1076736,39.5843315c0.9918823,0,1.8033905,0.1803207,2.7051544,0.54105
	s1.7132721,0.9016876,2.3444366,1.5329475c0.7213593,0.6311646,1.2624283,1.4427376,1.6230698,2.3444252
	s0.5410461,1.8034668,0.5410461,2.7952766h-7.213707 M41.0723,87.3750763c1.1722031,0,2.2543144,0.2705231,3.3363152,0.7213669
	s2.1641159,1.082016,2.9756775,1.9837952c0.8115654,0.8115768,1.5329552,1.8034744,1.9837952,2.8854752
	c0.45084,1.0820999,0.7213631,2.2543182,0.7213631,3.4265366h-9.0170708"/>
<g id="Walls">
	<polygon class="st2" points="41.0505028,77.4571228 50.0676003,77.4571228 50.0676003,76.5554276 41.0505028,76.5554276 
		41.0505028,63.9314957 59.0847511,63.9314957 59.0847511,76.5554276 57.2813034,76.5554276 57.2813034,77.4571228 
		59.9864616,77.4571228 59.9864616,76.5554276 59.9864616,46.7989349 59.0847511,46.7989349 59.0847511,63.0297165 
		41.0505028,63.0297165 41.0505028,38.683548 59.0847511,38.683548 59.0847511,39.5852394 59.9864616,39.5852394 
		59.9864616,38.683548 60.8881416,38.683548 60.8881416,37.781765 41.0505028,37.781765 41.0505028,7.1235867 43.7766228,7.1245837 
		45.19841,1.0821022 42.5834579,0.4508444 41.6499252,4.4184265 41.0505028,4.4184265 38.3453445,4.4184265 38.3453445,87.3759842 
		41.0505028,87.3759842 	"/>
	<polygon class="st2" points="107.7771835,65.8216324 108.4986572,62.6956711 104.0802231,61.7037735 103.2686615,65.1303024 
		103.2686615,76.905632 107.7771835,76.905632 107.7771835,76.8982849 111.023407,77.6269989 111.6546555,75.0120468 
		107.7771835,74.1416626 	"/>
	<polygon class="st2" points="101.465271,97.2948456 41.0505028,97.2948456 41.0505028,96.3931503 38.3453445,96.3931503 
		38.3453445,97.2948456 38.3453445,100 107.7771835,100 107.7771835,97.2948456 107.7771835,91.4597244 101.465271,91.4597244 	"/>
	<polygon class="st2" points="77.1190262,46.7980309 76.2173157,46.7980309 76.2173157,48.1310539 69.9053192,48.1310539 
		69.9053192,49.0328331 101.465271,49.0328331 107.7771835,49.0253906 111.023407,49.7542038 111.6546555,47.1391563 
		107.7771835,46.2687759 107.7771835,32.9175797 101.465271,32.9175797 101.465271,48.1310539 77.1190262,48.1310539 	"/>
	<polygon class="st2" points="76.2173157,37.781765 68.1018448,37.781765 68.1018448,38.683548 76.2173157,38.683548 
		76.2173157,39.5843315 77.1190262,39.5843315 77.1190262,38.683548 77.1190262,37.781765 77.1190262,8.9269648 
		88.8412552,8.9269648 88.8412552,8.9067297 88.9314575,8.9269648 90.7349319,0.9918955 86.3164978,0 85.3122635,4.4184265 
		77.1190262,4.4184265 57.2813034,4.4184265 57.2813034,7.1235867 76.2173157,7.1235867 	"/>
</g>
<path id="Windows" class="st1" d="M110.1216202,5.6808448L88.4805298,0.6312543l-0.2705231,1.3525333l20.378685,4.6888614
	l-2.3444366,10.1893864v16.9521465h1.3525238V16.8620358L110.1216202,5.6808448z M109.7609787,75.6537399l1.3525238,0.2705307
	l-3.8342667,16.7719193l-1.3525238-0.2705231L109.7609787,75.6537399z M109.7609787,47.7006264l1.3525238,0.2705269
	l-3.606842,15.7799339l-1.3525238-0.2705307L109.7609787,47.7006264z M43.2146187,0.8115757L60.1667519,4.688951
	l-0.2705193,1.3525333l-16.9521637-3.877377L43.2146187,0.8115757z"/>
</g></svg>
