<?xml version="1.0" encoding="utf-8"?>
<!-- DO NOT EDIT THIS, THIS FILE IS GENERATED FROM "1_7-12_1.original.svg" using transform-svgs.js script -->
<!-- Generator: Adobe Illustrator 24.2.0, SVG Export Plug-In . SVG Version: 6.00 Build 0)  -->
<!DOCTYPE svg PUBLIC "-//W3C//DTD SVG 1.1//EN" "http://www.w3.org/Graphics/SVG/1.1/DTD/svg11.dtd" [
	<!ENTITY ns_extend "http://ns.adobe.com/Extensibility/1.0/">
	<!ENTITY ns_ai "http://ns.adobe.com/AdobeIllustrator/10.0/">
	<!ENTITY ns_graphs "http://ns.adobe.com/Graphs/1.0/">
	<!ENTITY ns_vars "http://ns.adobe.com/Variables/1.0/">
	<!ENTITY ns_imrep "http://ns.adobe.com/ImageReplacement/1.0/">
	<!ENTITY ns_sfw "http://ns.adobe.com/SaveForWeb/1.0/">
	<!ENTITY ns_custom "http://ns.adobe.com/GenericCustomNamespace/1.0/">
	<!ENTITY ns_adobe_xpath "http://ns.adobe.com/XPath/1.0/">
]>
<svg version="1.1" id="Слой_1" xmlns:x="&ns_extend;" xmlns:i="&ns_ai;" xmlns:graph="&ns_graphs;"
	 xmlns="http://www.w3.org/2000/svg" xmlns:xlink="http://www.w3.org/1999/xlink" x="0px" y="0px" viewBox="0 0 150 100"
	 style="enable-background:new 0 0 150 100;" xml:space="preserve">
<style type="text/css">
	.st0{fill:#DBD4CA;}
	.st1{fill:none;stroke:#565440;}
	.st2{fill:#565440;}
</style>
<metadata>
	<sfw  xmlns="&ns_sfw;">
		<slices></slices>
		<sliceSourceBounds  bottomLeftOrigin="true" height="99.9402008" width="53.185936" x="48.4825706" y="-0.0456545">
			</sliceSourceBounds>
	</sfw>
</metadata>
<polygon id="Floor_2_" class="st0" points="66.8000031,23.1999969 62.2000008,23.1999969 62.2000008,34.2999916 
	49.5999985,34.2999916 49.5999985,99.485939 101.1999969,99.485939 101.1999969,1.1999949 66.8000031,1.1999949 "/>
<path id="Windows" class="st1" d="M100.1217728,98.4989395H49.5991745v1.0467148h51.5693283V29.7630177h-1.0467148v68.7359238
	H100.1217728z"/>
<g id="Walls_1_">
	<polygon class="st2" points="79.8847733,96.4054108 73.6043625,96.4054108 72.9065475,96.4054108 65.2304306,96.4054108 
		65.2304306,99.8945465 79.8847733,99.8945465 84.7695313,99.8945465 84.7695313,95.0097961 79.8847733,95.0097961 	"/>
	<rect x="95.9348221" y="84.5423889" class="st2" width="5.5826058" height="4.8847961"/>
	<polygon class="st2" points="98.0282516,39.8815041 98.0282516,40.9476585 74.8698349,40.9476585 74.8698349,41.6454659 
		75.2457733,41.6454659 75.2457733,52.612812 75.9435806,52.612812 75.9435806,41.6454659 98.0282516,41.6454659 
		98.0282516,44.7662544 101.5174332,44.7662544 101.5174332,39.8815041 	"/>
	<polygon class="st2" points="63.8348083,36.3923264 68.0221786,36.3923264 68.0221786,41.6455536 69.4530182,41.6455536 
		69.4530182,40.9477425 68.7199936,40.9477425 68.7199936,35.697773 68.7195663,35.697773 68.7195663,35.6945152 
		63.8348083,35.6945152 63.8348083,25.2271576 68.7195663,25.2271576 68.7195663,23.1336422 68.7195663,16.3378544 
		70.7733841,16.3378544 70.7733841,15.6400442 68.7195663,15.6400442 68.7195663,3.5945008 85.6790543,3.5945008 
		85.6790543,15.6397009 75.9827194,15.6397009 75.9827194,16.3375111 90.0396423,16.3375111 90.0396423,15.6397009 
		86.3768616,15.6397009 86.3768616,3.5945008 96.632637,3.5945008 96.632637,15.6397867 95.3650131,15.6397867 
		95.3650131,16.3375969 96.632637,16.3375969 96.632637,30.1119537 101.5173874,30.1119537 101.5173874,0.1054525 
		66.6261368,0.1054525 66.6261368,3.5945008 66.6261368,23.1336422 61.7412949,23.1336422 61.7412949,25.2271576 
		61.7412949,34.2988968 58.2522049,34.2988968 58.2522049,36.3923264 61.7412949,36.3923264 	"/>
	<polygon class="st2" points="50.5760841,68.4923401 65.9282379,68.4923401 65.9282379,67.7945328 63.8348083,67.7945328 
		63.8348083,61.5141182 63.1369591,61.5141182 63.1369591,67.7945328 50.5760841,67.7945328 50.5760841,50.3488617 
		63.1369591,50.3488617 63.1369591,55.931469 63.8348083,55.931469 63.8348083,49.6510506 63.1369591,49.6510506 
		50.5760841,49.6510506 50.5760841,36.3923264 51.2738914,36.3923264 51.2738914,34.2988968 50.5760841,34.2988968 
		48.4825706,34.2988968 48.4825706,99.8945465 50.5760841,99.8945465 54.7630692,99.8945465 54.7630692,95.0097961 
		50.5760841,95.0097961 	"/>
	<polygon class="st2" points="75.2457733,58.7984924 75.2457733,67.7945328 75.2457733,68.4923401 75.9435806,68.4923401 
		98.0282516,68.4923401 98.0282516,71.2837067 101.5173874,71.2837067 101.5173874,51.7444801 96.632637,51.7444801 
		96.632637,56.629364 98.0282516,56.629364 98.0282516,67.7945328 75.9435806,67.7945328 75.9435806,58.7984924 	"/>
</g>
<path id="Doors" class="st1" d="M63.8347893,55.9314575c0.7676125,0,1.3956413,0.1395493,2.0935173,0.4187126
	c0.6978073,0.2791634,1.3258057,0.6978073,1.8143463,1.186348c0.5582657,0.4884529,0.9769974,1.1165428,1.2560959,1.8143539
	c0.2790985,0.6978073,0.4187088,1.3956413,0.4187088,2.1632576h-5.5826035 M75.9435577,58.9083557
	c0.7473907,0,1.3588638-0.1614761,2.038353-0.4845009c0.6794205-0.3229485,1.2908707-0.8074455,1.7665405-1.3726463
	c0.5435486-0.565197,0.9512482-1.2919731,1.2229919-2.0994186c0.2717438-0.8074493,0.4076767-1.6149216,0.4076767-2.5031471
	h-5.4354935 M89.8954391,16.3375263c0,0.7676163,0.1395493,1.3956413,0.4187164,2.0934505
	c0.2791595,0.6978092,0.6978073,1.3258133,1.186348,1.814352c0.4884491,0.55826,1.116539,0.9769936,1.8143463,1.2560921
	c0.6978149,0.2791615,1.3956451,0.4187107,2.1632614,0.4187107v-5.5826054 M76.1750717,16.3375263
	c0,0.7676163-0.1395493,1.3956413-0.4187088,2.0934505s-0.6978073,1.3258133-1.186348,1.814352
	c-0.4884567,0.55826-1.1165466,0.9769936-1.8143539,1.2560921c-0.6978073,0.2791615-1.3956375,0.4187107-2.1632538,0.4187107
	v-5.5826054 M74.9999695,40.9672852c0-0.7676163-0.1395493-1.3956413-0.4187164-2.0934525
	c-0.2791595-0.6978073-0.6978073-1.3258133-1.186348-1.8143501c-0.4884491-0.5582619-1.116539-0.9769936-1.8143539-1.2560921
	c-0.6978073-0.2791634-1.3956375-0.4187126-2.1632538-0.4187126v5.5826073 M58.252182,36.3923378
	c0,0.9071655-0.2093544,1.744545-0.5582619,2.5819702c-0.3489037,0.8374443-0.8374443,1.6748009-1.5352516,2.302803
	c-0.628067,0.628006-1.3956413,1.186264-2.2330627,1.5351906c-0.8374443,0.3489037-1.7445488,0.5582619-2.6517143,0.5582619
	v-6.9782906"/>
</svg>
